<?xml version="1.0" encoding="UTF-8" standalone="no"?>
<!-- Created with Inkscape (http://www.inkscape.org/) -->

<svg
   xmlns:dc="http://purl.org/dc/elements/1.1/"
   xmlns:cc="http://creativecommons.org/ns#"
   xmlns:rdf="http://www.w3.org/1999/02/22-rdf-syntax-ns#"
   xmlns:svg="http://www.w3.org/2000/svg"
   xmlns="http://www.w3.org/2000/svg"
   xmlns:sodipodi="http://sodipodi.sourceforge.net/DTD/sodipodi-0.dtd"
   xmlns:inkscape="http://www.inkscape.org/namespaces/inkscape"
   version="1.1"
   id="svg2"
   xml:space="preserve"
   width="454.07999"
   height="803.84003"
   viewBox="0 0 454.07999 803.84003"
   sodipodi:docname="Bassoon.svg"
   inkscape:version="0.92.4 (5da689c313, 2019-01-14)"><metadata
     id="metadata8"><rdf:RDF><cc:Work
         rdf:about=""><dc:format>image/svg+xml</dc:format><dc:type
           rdf:resource="http://purl.org/dc/dcmitype/StillImage" /><dc:title></dc:title></cc:Work></rdf:RDF></metadata><defs
     id="defs6"><clipPath
       clipPathUnits="userSpaceOnUse"
       id="clipPath18"><path
         d="M 0,602.88 H 340.56 V 0 H 0 Z"
         id="path16"
         inkscape:connector-curvature="0" /></clipPath></defs><sodipodi:namedview
     pagecolor="#ffffff"
     bordercolor="#666666"
     borderopacity="1"
     objecttolerance="10"
     gridtolerance="10"
     guidetolerance="10"
     inkscape:pageopacity="0"
     inkscape:pageshadow="2"
     inkscape:window-width="2560"
     inkscape:window-height="1377"
     id="namedview4"
     showgrid="false"
     inkscape:zoom="0.29359075"
     inkscape:cx="-137.4129"
     inkscape:cy="538.16409"
     inkscape:window-x="1912"
     inkscape:window-y="-8"
     inkscape:window-maximized="1"
     inkscape:current-layer="g10" /><g
     id="g10"
     inkscape:groupmode="layer"
     inkscape:label="Bassoon"
     transform="matrix(1.3333333,0,0,-1.3333333,0,803.84)"><g
       id="g12"><g
         id="g14"
         clip-path="url(#clipPath18)"><g
           id="g20"
           transform="translate(189.4978,279.8248)"><path
             d="M 0,0 C -0.5,0 -0.943,0.124 -1.264,-0.022 -2.266,-0.481 -2.693,-1.29 -1.368,-1.674 -0.485,-1.931 0.081,-1.069 0,0 m -22.49,137.51 c -1.669,-0.705 -3.049,-0.703 -4.229,0.761 v -1.554 c 1.367,-0.51 2.645,-0.988 4.004,-1.495 0.059,0.597 0.131,1.323 0.225,2.288 M 0.583,42.579 c -0.039,1.029 -1.091,2.158 -1.721,1.902 -0.592,-0.24 -1.027,-0.867 -1.531,-1.324 0.564,-0.55 1.048,-1.373 1.716,-1.569 0.606,-0.178 1.414,0.325 1.536,0.991 m -10.837,22.3 c 0.079,-1.645 0.147,-3.054 0.231,-4.795 0.942,0.676 1.51,1.083 2.002,1.436 v 2.348 c -0.375,0.097 -0.73,0.146 -1.048,0.283 -0.321,0.138 -0.602,0.363 -1.185,0.728 m -11.963,65.665 c -1.429,-1.068 -1.717,-5.739 -0.436,-7.006 0.278,2.36 1.131,4.585 0.436,7.006 m -6.431,-25.013 c 0.535,-0.891 0.961,-1.696 1.487,-2.427 0.196,-0.271 0.663,-0.554 0.943,-0.5 0.298,0.056 0.728,0.5 0.736,0.784 0.02,0.714 0.075,1.642 -0.325,2.103 -0.678,0.784 -1.71,0.643 -2.841,0.04 M -0.242,9.281 c -0.539,1 -0.949,2.018 -1.607,2.837 -0.227,0.284 -1.075,0.119 -1.624,0.047 -0.089,-0.012 -0.236,-0.676 -0.121,-0.931 0.371,-0.819 0.788,-1.636 1.324,-2.353 0.227,-0.303 0.787,-0.453 1.206,-0.477 0.2,-0.01 0.426,0.436 0.822,0.877 M -1.56,-14.192 c 1.725,0.425 1.949,0.699 1.784,2.151 -0.133,1.166 -0.289,2.33 -0.486,3.487 -0.049,0.286 -0.293,0.539 -0.448,0.807 -0.198,-0.272 -0.55,-0.533 -0.569,-0.817 -0.086,-1.291 -0.068,-2.589 -0.113,-3.883 -0.018,-0.542 -0.101,-1.081 -0.168,-1.745 m -28.671,-174.517 c -1.273,-0.087 -1.269,-1.009 -1.397,-1.781 -0.353,-2.117 0.687,-5.375 2.348,-5.656 -0.62,2.449 -1.635,4.803 -0.951,7.437 m 8.209,310.152 c -0.157,-0.052 -0.314,-0.105 -0.471,-0.157 0.073,-0.931 0.184,-1.861 0.212,-2.793 0.054,-1.823 0.045,-3.647 0.109,-5.469 0.008,-0.24 0.286,-0.471 0.439,-0.707 0.183,0.198 0.527,0.396 0.526,0.593 -0.012,2.205 -0.03,4.411 -0.158,6.611 -0.038,0.651 -0.428,1.282 -0.657,1.922 m 112.907,-38.075 0.102,0.306 c -0.43,0.228 -0.839,0.523 -1.296,0.674 -1.658,0.546 -3.326,1.064 -5.004,1.544 -0.338,0.096 -0.79,0.081 -1.089,-0.075 -0.201,-0.104 -0.392,-0.707 -0.295,-0.807 0.271,-0.283 0.673,-0.499 1.06,-0.603 0.873,-0.235 1.885,-0.185 2.631,-0.615 1.319,-0.761 2.585,-0.488 3.891,-0.424 M -26.705,-34.488 c 0,-1.657 -0.026,-3.241 0.02,-4.822 0.01,-0.359 0.27,-0.711 0.415,-1.067 0.365,0.24 0.958,0.414 1.051,0.732 0.257,0.889 0.323,1.836 0.435,2.764 0.198,1.643 -0.153,2.091 -1.921,2.393 M -6.269,-8.48 c -0.217,-0.861 -0.479,-1.406 -0.47,-1.946 0.037,-2.097 0.145,-4.195 0.27,-6.291 0.015,-0.25 0.295,-0.485 0.452,-0.727 0.198,0.21 0.503,0.388 0.576,0.635 0.716,2.447 -0.004,4.912 0.026,7.37 0.003,0.231 -0.402,0.467 -0.854,0.959 m -19.689,-42.957 c 1.199,0.324 2.125,0.719 2.104,2.091 -0.006,0.432 0.03,0.867 0.087,1.295 0.159,1.195 -0.794,2.452 -1.953,2.487 -0.187,0.005 -0.555,-0.278 -0.549,-0.416 0.07,-1.769 0.192,-3.535 0.311,-5.457 m 25.523,-75.39 c 1.687,0.016 2.526,0.438 2.446,1.429 -0.066,0.796 -0.469,1.622 -0.91,2.315 -0.563,0.886 -1.384,0.703 -1.803,-0.106 -0.395,-0.761 -0.509,-1.676 -0.692,-2.536 -0.181,-0.851 0.247,-1.189 0.959,-1.102 m -21.394,-77.343 c -0.076,-0.102 -0.152,-0.204 -0.228,-0.307 0.154,-0.056 0.313,-0.102 0.462,-0.17 2.926,-1.333 5.885,-0.563 8.837,-0.133 0.073,0.01 0.144,0.069 0.206,0.117 0.805,0.618 1.124,1.365 0.589,2.555 -2.927,-2.708 -6.429,-2.213 -9.866,-2.062 M 3.104,105.066 c -0.138,1.182 -1.697,3.069 -2.872,3.285 -0.393,0.072 -0.818,-0.026 -1.228,-0.047 0.059,-0.42 0.023,-0.885 0.197,-1.251 0.441,-0.93 0.881,-1.889 1.508,-2.691 0.354,-0.452 1.077,-0.617 1.634,-0.912 z M -23.334,-146.77 c 0.357,-1.26 1.234,-2.243 2.519,-2.99 1.684,-0.979 2.671,-0.71 3.624,0.99 0.451,0.806 0.233,1.261 -0.711,1.387 -0.668,0.09 -1.348,0.089 -2.019,0.166 -1.089,0.126 -2.175,0.283 -3.413,0.447 m 21.502,17.864 c 0.067,-0.804 0.272,-1.484 0.142,-2.092 -0.224,-1.042 0.335,-1.6 1.068,-1.974 0.732,-0.373 2.203,0.668 2.831,1.866 0.392,0.747 0.369,1.455 -0.241,2.076 -0.129,0.133 -0.345,0.26 -0.518,0.257 -1.108,-0.025 -2.216,-0.086 -3.282,-0.133 m -14.776,-16.76 c -0.142,0.604 -0.185,0.83 -0.248,1.051 -0.548,1.913 -0.787,1.949 -2.637,1.385 -0.754,-0.231 -1.676,0.071 -2.518,0.16 -0.29,0.03 -0.767,0.288 -0.825,0.206 -0.42,-0.591 -0.753,-1.242 -1.114,-1.874 0.487,-0.208 0.96,-0.462 1.465,-0.61 0.333,-0.096 0.711,-0.035 1.068,-0.053 1.528,-0.082 3.057,-0.168 4.809,-0.265 M -28.22,-20.355 c 0,-0.851 -0.029,-1.642 0.006,-2.43 0.069,-1.545 -0.086,-2.972 -1.122,-4.276 -0.306,-0.385 -0.186,-1.383 0.103,-1.895 0.343,-0.61 0.964,-0.967 1.891,-0.485 1.197,0.62 1.424,1.416 1.079,2.581 -0.257,0.873 -0.583,1.745 -0.682,2.638 -0.097,0.875 0.047,1.778 0.101,2.667 0.051,0.843 -0.292,1.282 -1.376,1.2 m 3.567,-9.264 c 0.429,0.55 1.065,0.987 1.093,1.461 0.144,2.45 0.138,4.909 0.175,7.365 0.014,0.941 0.002,1.883 0.002,2.982 -0.315,-0.101 -1.1,-0.123 -1.239,-0.433 -0.864,-1.94 -1.277,-3.99 -0.931,-6.129 0.262,-1.626 0.555,-3.247 0.9,-5.246 m -0.03,130.672 c -0.159,0.086 -0.318,0.173 -0.477,0.26 -0.5,-0.526 -1.34,-1 -1.432,-1.589 -0.205,-1.314 -0.044,-2.686 -0.021,-4.034 0.052,-2.98 0.189,-5.961 0.124,-8.939 -0.022,-1.004 0.217,-1.452 1.243,-1.621 0.189,5.341 0.376,10.632 0.563,15.923 m 20.631,165.098 c -7.303,1.95 -14.531,1.608 -21.75,-0.316 0.384,-0.142 0.792,-0.288 1.185,-0.255 2.553,0.211 5.098,0.573 7.653,0.67 3.419,0.128 6.819,-0.071 10.061,-1.403 1.43,-0.587 2.487,-0.016 2.851,1.304 M 75.276,90.273 c -0.403,-0.106 -0.923,-0.121 -1.282,-0.369 -0.506,-0.349 -1.022,-0.813 -1.263,-1.35 -0.094,-0.211 0.479,-0.842 0.866,-1.114 0.368,-0.258 0.89,-0.418 1.342,-0.412 1.799,0.021 3.327,-0.65 4.747,-1.67 1.059,-0.76 1.607,-0.71 2.182,0.183 0.634,0.982 0.416,1.797 -0.655,2.328 -0.493,0.244 -1.018,0.426 -1.529,0.632 -1.444,0.582 -2.888,1.162 -4.408,1.772 M -21.953,-4.295 c 0.356,0.232 0.503,0.293 0.605,0.399 0.746,0.772 1.408,1.596 2.744,1.246 0.278,-0.074 1.07,0.685 1.106,1.106 0.041,0.478 -0.432,1.374 -0.803,1.444 -1.239,0.234 -1.648,0.917 -1.658,2.047 -0.003,0.315 -0.103,0.628 -0.116,0.944 -0.056,1.417 -0.039,2.84 -0.186,4.249 -0.037,0.348 -0.586,0.906 -0.902,0.908 -0.65,0.004 -1.207,-0.38 -1.192,-1.204 0.057,-3.143 0.097,-6.286 0.165,-9.429 0.011,-0.502 0.135,-1.001 0.237,-1.71 m 6.653,-116.28 c -0.645,0.517 -1.081,1.143 -1.6,1.224 -1.147,0.178 -2.337,0.102 -3.509,0.089 -0.851,-0.009 -1.703,-0.055 -2.551,-0.131 -0.904,-0.079 -1.835,-0.11 -2.687,-0.376 -0.289,-0.09 -0.588,-1.181 -0.519,-1.224 1.23,-0.757 2.446,-1.732 3.805,-2.042 2.609,-0.596 4.697,0.883 7.061,2.46 m -6.344,104.163 c 0.782,0.051 1.118,0.235 1.168,1.096 0.028,0.46 0.591,0.891 0.919,1.331 0.17,0.226 0.356,0.441 0.535,0.662 -0.288,0.167 -0.594,0.503 -0.86,0.473 -1.336,-0.148 -2.663,-0.382 -3.99,-0.606 -1.036,-0.174 -1.609,0.235 -1.648,1.275 -0.025,0.671 0.14,1.364 0.023,2.011 -0.083,0.456 -0.417,1.111 -0.777,1.221 -0.663,0.202 -1.08,-0.324 -1.173,-1.016 -0.027,-0.196 -0.03,-0.396 -0.045,-0.595 -0.165,-2.092 -0.375,-4.184 -0.461,-6.28 -0.02,-0.476 0.312,-1.03 0.627,-1.434 0.2,-0.257 0.733,-0.487 0.998,-0.393 0.253,0.089 0.478,0.607 0.493,0.947 0.024,0.581 -0.145,1.169 -0.193,1.757 -0.041,0.499 0.042,0.887 0.728,0.665 1.211,-0.392 2.436,-0.745 3.656,-1.114 M -6.876,75.66 c 0.056,1.606 -0.797,2.264 -1.666,2.65 -0.474,0.211 -1.37,-0.048 -1.84,-0.405 -1.074,-0.816 -1.566,-2.645 -0.738,-3.709 1.428,-1.833 0.849,-3.279 -0.331,-4.802 -0.072,-0.094 -0.158,-0.18 -0.218,-0.282 -0.596,-1.024 -0.226,-2.836 1.065,-3.374 0.717,-0.3 1.918,0.179 2.724,0.628 0.43,0.239 0.787,1.257 0.631,1.75 -0.247,0.776 -0.832,1.571 -1.494,2.061 -1.082,0.8 -0.927,1.715 -0.452,2.609 0.358,0.675 1.032,1.179 1.533,1.786 0.356,0.432 0.659,0.909 0.786,1.088 m -18.039,-223.756 c -0.699,-2.515 0.865,-4.545 3.597,-5.069 0.643,-0.123 1.346,-0.645 1.733,-1.189 0.386,-0.543 0.534,-1.338 0.569,-2.035 0.111,-2.191 0.095,-4.388 0.188,-6.581 0.017,-0.415 0.408,-1.184 0.463,-1.17 0.743,0.196 1.634,0.328 2.125,0.831 0.437,0.448 0.711,1.413 0.549,2.013 -0.365,1.347 -1.114,2.584 -1.567,3.912 -0.233,0.684 -0.144,1.471 -0.242,2.206 -0.121,0.914 -0.23,1.837 -0.466,2.725 -0.065,0.245 -0.591,0.563 -0.858,0.524 -1.229,-0.177 -2.197,0.313 -3.063,1.06 -1.008,0.868 -1.966,1.796 -3.028,2.773 m -0.938,141.055 c 0.368,-0.797 0.752,-1.493 1.01,-2.233 0.18,-0.516 0.143,-1.105 0.292,-1.635 0.071,-0.255 0.476,-0.665 0.513,-0.643 0.684,0.41 1.802,0.793 1.9,1.347 0.213,1.2 0.557,2.655 -0.864,3.583 -0.222,0.144 -0.389,0.552 -0.386,0.836 0.02,1.972 0.13,3.943 0.136,5.915 0.006,2.33 -0.028,4.662 -0.119,6.99 -0.034,0.884 -0.612,1.309 -1.8,1.206 0,-1.498 -0.012,-2.954 0.003,-4.41 0.029,-3.077 0.121,-6.155 0.07,-9.23 -0.01,-0.628 -0.534,-1.248 -0.755,-1.726 m 1.147,-176.983 c -0.114,-0.156 -0.229,-0.311 -0.343,-0.466 0.278,-0.435 0.456,-1.052 0.854,-1.272 1.299,-0.717 2.261,-2.348 4.134,-1.66 0.124,0.046 0.317,-0.046 0.457,-0.115 2.163,-1.062 4.183,-0.745 6.065,0.659 0.337,0.251 0.563,0.649 0.841,0.98 -0.43,0.109 -0.872,0.343 -1.288,0.303 -1.502,-0.144 -2.066,0.258 -2.109,1.803 -0.031,1.103 0.052,2.212 0.129,3.314 0.125,1.801 -0.833,3.406 -2.189,3.409 -0.475,0 -0.991,-0.385 -1.389,-0.713 -0.076,-0.064 0.309,-0.689 0.484,-1.052 0.265,-0.545 0.675,-1.066 0.764,-1.638 0.135,-0.873 0.117,-1.785 0.042,-2.671 -0.173,-2.057 -1.132,-2.552 -3.093,-1.808 -1.081,0.41 -2.236,0.624 -3.359,0.927 m 14.549,215.795 c 1.147,-0.278 1.408,0.364 1.461,1.229 0.199,3.304 0.414,6.606 0.584,9.912 0.087,1.694 0.15,3.303 -0.787,4.957 -0.83,1.46 -1.285,3.295 0.027,4.944 0.179,0.225 0.309,0.686 0.2,0.906 -0.345,0.69 -0.755,1.803 -1.249,1.864 -0.893,0.109 -0.509,-0.885 -0.522,-1.466 -0.049,-1.945 -0.323,-3.917 -0.092,-5.828 0.287,-2.382 -0.722,-3.815 -2.559,-5.025 -0.354,-0.233 -0.504,-0.969 -0.5,-1.472 0.002,-0.232 0.569,-0.554 0.932,-0.672 1.02,-0.331 2.067,-0.668 2.19,-1.909 0.177,-1.773 0.227,-3.561 0.31,-5.343 0.031,-0.67 0.005,-1.342 0.005,-2.097 m -11.664,147.996 c 0.081,1.055 0.207,2.107 0.229,3.16 0.02,0.985 -0.195,1.99 -0.058,2.951 0.067,0.477 0.661,0.912 1.087,1.285 0.13,0.114 0.637,0.052 0.726,-0.087 0.369,-0.571 0.827,-1.178 0.914,-1.818 0.179,-1.323 0.149,-2.675 0.189,-4.016 0.019,-0.665 -0.045,-1.337 0.03,-1.994 0.024,-0.215 0.351,-0.54 0.569,-0.565 1.415,-0.163 3.233,1.463 3.117,2.909 -0.108,1.362 -0.495,2.699 -0.703,4.055 -0.288,1.878 -1.627,2.79 -3.224,3.215 -0.813,0.216 -1.789,-0.188 -2.693,-0.303 -3.884,-0.497 -4.714,-3.697 -3.941,-6.374 0.536,-1.854 2.12,-2.784 3.758,-2.418 m -0.576,-26.276 c -1.376,0.431 -2.7,0.846 -4.005,1.255 -0.136,-5.361 -0.27,-10.677 -0.409,-16.147 1.584,0.285 3.037,0.29 4.399,-0.755 -0.696,2.563 0.467,5.018 0.098,7.611 -0.375,2.635 -0.083,5.365 -0.083,8.036 m 9.059,-346.958 c -0.775,0.523 -5.188,-0.543 -6.075,-1.601 -1.27,-1.517 -1.844,-3.281 -2.301,-5.134 -0.26,-1.051 0.135,-1.877 1.213,-2.03 2.067,-0.293 4.145,-0.206 6.107,0.544 0.69,0.263 1.697,0.878 1.747,1.41 0.147,1.57 -0.084,3.181 -0.224,4.771 -0.051,0.58 -0.257,1.147 -0.467,2.04 M -9.96,27.096 c -0.035,-0.385 -0.069,-0.728 -0.098,-1.071 -0.159,-1.932 -0.227,-3.879 -0.522,-5.79 -0.11,-0.714 -0.667,-1.418 -1.17,-1.997 -0.617,-0.711 -1.392,-1.287 -2.098,-1.922 -0.897,-0.806 -1.095,-1.823 -0.867,-2.955 0.552,-2.744 1.725,-3.6 4.548,-3.021 0.234,0.049 0.47,0.141 0.704,0.139 1.003,-0.012 1.272,0.573 1.316,1.455 0.111,2.211 0.364,4.419 0.377,6.628 0.015,2.335 -0.208,4.672 -0.272,7.009 -0.035,1.248 -0.769,1.512 -1.918,1.525 m -13.5,244.92 c -0.002,-0.013 -0.004,-0.026 -0.006,-0.039 -0.673,-0.066 -1.35,-0.096 -2.016,-0.205 -2.211,-0.361 -2.81,-1.478 -1.976,-3.528 0.241,-0.592 0.53,-0.798 1.173,-0.629 0.923,0.243 1.865,0.434 2.809,0.573 2.773,0.409 5.543,0.874 8.331,1.133 1.765,0.164 3.569,0.105 5.338,-0.05 2.149,-0.188 4.277,-0.594 6.418,-0.865 0.183,-0.023 0.502,0.221 0.592,0.417 0.38,0.831 -0.115,1.734 -1.034,1.893 -0.815,0.141 -1.651,0.174 -2.463,0.328 -1.551,0.296 -3.084,0.878 -4.637,0.927 -4.173,0.132 -8.352,0.045 -12.529,0.045 m 4.83,-408.13 c 0.488,-2.004 0.33,-2.162 -1.601,-1.743 -0.702,0.151 -1.412,0.259 -2.115,0.403 -0.885,0.182 -1.145,-0.311 -1.183,-1.065 -0.073,-1.467 0.498,-2.353 1.849,-2.863 1.267,-0.477 2.292,-0.125 3.284,1.008 2.584,2.951 2.093,6.341 1.414,9.75 -0.061,0.301 -0.389,0.601 -0.666,0.797 -1.699,1.196 -4.208,-0.017 -5.096,-2.202 -0.065,-0.162 0.207,-0.638 0.404,-0.699 0.904,-0.274 1.828,-0.541 2.763,-0.634 0.657,-0.066 1.184,-0.009 1.194,-0.898 0.004,-0.35 0.228,-0.699 0.461,-1.358 -1.353,0.209 -2.468,0.463 -3.595,0.538 -1.89,0.127 -2.85,1.692 -3.09,3.117 -0.408,2.425 -0.695,4.876 -0.901,7.326 -0.09,1.063 -0.521,1.459 -1.521,1.493 0,-1.239 0.016,-2.411 -0.004,-3.583 -0.027,-1.501 0.02,-3.012 -0.15,-4.499 -0.263,-2.319 0.969,-4.234 3.252,-4.537 1.727,-0.228 3.484,-0.239 5.301,-0.351 m -5.459,242.042 c 0.102,0.031 0.204,0.062 0.306,0.093 0.026,0.372 0.088,0.744 0.074,1.113 -0.049,1.269 -0.249,2.545 -0.163,3.803 0.184,2.668 0.315,5.33 0.065,7.999 -0.058,0.622 0.021,1.29 -0.18,1.861 -1.144,3.247 -1.489,6.501 -0.324,9.817 0.129,0.366 0.203,0.751 0.318,1.122 0.464,1.496 -0.286,2.308 -1.989,2.544 -0.876,0.121 -1.716,0.641 -2.247,-0.441 -0.396,-0.806 -0.707,-1.664 -0.949,-2.529 -0.182,-0.646 -0.315,-1.351 -0.251,-2.009 0.067,-0.694 0.298,-1.417 0.638,-2.025 0.258,-0.462 0.908,-0.696 1.193,-1.151 0.404,-0.645 0.9,-1.401 0.894,-2.106 -0.033,-4.559 -0.119,-9.12 -0.352,-13.671 -0.072,-1.425 0.008,-2.426 1.591,-2.815 0.316,-0.077 0.546,-0.535 0.798,-0.833 0.206,-0.246 0.386,-0.514 0.578,-0.772 m -2.854,75.621 c -0.098,-0.766 -0.194,-1.166 -0.193,-1.566 0.008,-2.102 0.097,-4.206 0.046,-6.306 -0.039,-1.551 -0.336,-3.095 -0.368,-4.646 -0.069,-3.453 -0.066,-6.908 -0.031,-10.362 0.004,-0.441 0.259,-1.052 0.602,-1.286 0.907,-0.618 1.912,-1.1 2.905,-1.581 0.605,-0.293 1.341,-0.584 1.728,0.259 0.463,1.005 0.036,2.268 -0.796,2.521 -1.532,0.467 -2.599,1.476 -3.432,2.783 -0.742,1.163 -0.285,2.439 1.059,2.753 0.725,0.169 1.506,0.083 2.253,0.178 0.313,0.04 0.789,0.181 0.874,0.4 0.736,1.883 1.29,3.764 -0.149,5.631 -1.208,1.567 -1.363,4.761 -0.049,6.328 0.252,0.301 0.202,0.896 0.174,1.349 -0.005,0.076 -0.648,0.04 -0.929,0.185 -0.789,0.407 -1.616,0.795 -2.288,1.358 -0.507,0.426 -0.797,1.109 -1.406,2.002 m -2.231,-372.634 c -0.082,-0.04 -0.165,-0.079 -0.248,-0.119 0.535,-1.171 0.998,-2.383 1.621,-3.505 1.008,-1.818 1.563,-2.081 3.566,-1.624 0.993,0.227 1.936,0.697 2.878,1.111 0.202,0.088 0.3,0.411 0.445,0.627 -0.23,0.112 -0.456,0.235 -0.692,0.332 -0.851,0.349 -1.746,0.614 -2.543,1.057 -0.539,0.3 -0.985,0.81 -1.389,1.295 -0.234,0.281 -0.301,0.699 -0.443,1.057 0.423,0.107 0.867,0.344 1.266,0.285 0.338,-0.051 0.595,-0.507 0.942,-0.672 0.944,-0.449 1.937,-1.225 2.874,-1.176 2.295,0.119 4.572,0.613 6.851,0.989 1.163,0.193 2.123,-0.324 2.462,-1.442 0.127,-0.418 0.146,-0.868 0.278,-1.284 0.093,-0.294 0.272,-0.764 0.448,-0.781 0.279,-0.025 0.718,0.186 0.858,0.43 0.444,0.775 0.789,1.609 1.16,2.424 0.684,1.505 0.467,2.849 -0.59,4.025 -0.715,0.797 -1.512,1.027 -2.443,0.439 -1.01,-0.639 -1.953,-1.398 -3.008,-1.945 -0.628,-0.326 -1.443,-0.554 -2.125,-0.462 -2.59,0.346 -5.119,0.86 -7.451,2.233 -2.877,1.694 -4.593,0.047 -4.716,-2.936 -0.005,-0.12 -0.001,-0.239 -0.001,-0.358 m 15.147,103.217 c 0.024,0.055 0.048,0.112 0.071,0.169 -0.588,-0.338 -1.222,-0.618 -1.754,-1.03 -0.703,-0.542 -1.57,-1.067 -1.936,-1.811 -0.845,-1.712 -1.061,-1.99 -2.923,-1.605 -1.114,0.231 -1.862,-0.351 -1.992,-1.197 -0.139,-0.906 -0.027,-2.127 0.499,-2.803 1.096,-1.407 1.232,-3.159 2.078,-4.625 0.103,-0.177 0.048,-0.462 0.025,-0.694 -0.287,-2.768 -0.51,-5.546 -0.897,-8.301 -0.284,-2.021 -0.137,-4.197 -1.943,-5.781 -0.468,-0.41 -0.625,-1.337 0.078,-1.946 0.638,-0.555 1.297,-0.473 1.973,-0.019 0.29,0.195 0.629,0.336 0.965,0.436 1.453,0.432 1.654,1.079 1.081,2.516 -0.369,0.926 -0.575,1.979 -0.574,2.974 0.001,1.296 0.32,2.588 0.43,3.888 0.176,2.089 0.306,4.182 0.425,6.275 0.032,0.571 -0.046,1.15 -0.067,1.724 -0.047,1.287 -0.433,2.692 -0.041,3.829 0.421,1.223 1.445,2.332 2.429,3.251 2.215,2.066 4.456,3.217 7.487,1.508 0.396,-0.223 0.855,-0.334 1.509,-0.582 -0.084,1.207 -0.146,2.186 -0.224,3.164 -0.076,0.952 -0.776,0.993 -1.482,0.958 -1.74,-0.086 -3.478,-0.198 -5.217,-0.298 m -10.685,-30.093 c 0.298,1.15 0.441,2.109 0.797,2.981 0.563,1.374 1.603,2.631 1.848,4.042 0.51,2.931 0.674,5.928 0.877,8.905 0.038,0.569 -0.301,1.24 -0.644,1.742 -0.576,0.843 -1.114,1.582 -1.487,2.634 -0.532,1.499 -0.865,2.869 -0.816,4.442 0.059,1.882 1.337,3.197 3.203,3.047 1.569,-0.126 2.194,0.36 2.476,1.92 -2.176,0.524 -4.351,1.048 -6.575,1.584 -0.624,-10.613 -1.243,-21.139 -1.871,-31.817 0.476,0.16 0.83,0.312 1.198,0.393 0.383,0.085 0.78,0.102 0.994,0.127 m 14.829,256.566 c 0.167,2.301 0.374,4.428 0.462,6.56 0.087,2.101 0.728,4.289 -0.749,6.212 -0.059,0.078 -0.051,0.238 -0.022,0.346 0.273,1.06 -0.322,1.367 -1.217,1.417 -1.814,0.101 -3.628,0.205 -5.442,0.298 -0.756,0.039 -0.941,-0.412 -0.919,-1.075 0.031,-0.913 0.055,-1.83 0.02,-2.743 -0.126,-3.335 -0.292,-6.67 -0.398,-10.006 -0.012,-0.366 0.258,-1.062 0.399,-1.063 1.282,-0.003 2.853,-0.315 3.774,0.304 1.186,0.798 2.058,0.39 3.084,0.188 0.32,-0.063 0.614,-0.261 1.008,-0.438 m -4.707,22.537 c -0.441,1.57 -1.484,1.693 -2.596,1.687 -0.743,-0.005 -1.37,0.081 -1.709,0.923 -0.615,1.528 0.452,3.223 -0.519,4.704 -0.044,0.068 0.115,0.268 0.175,0.408 0.41,0.956 0.832,1.906 1.222,2.87 0.471,1.162 -0.024,2.022 -0.946,2.687 -0.819,0.59 -1.161,1.324 -1.094,2.352 0.169,2.602 0.279,5.209 0.366,7.815 0.011,0.329 -0.255,0.666 -0.393,0.999 -0.203,-0.318 -0.568,-0.631 -0.579,-0.956 -0.041,-1.23 0.165,-2.478 0.032,-3.692 -0.205,-1.878 -0.333,-3.846 -1.019,-5.566 -0.609,-1.53 -0.682,-2.694 0.279,-3.985 0.824,-1.105 1.067,-2.37 0.915,-3.741 -0.168,-1.526 -0.216,-3.066 -0.425,-4.585 -0.082,-0.595 -0.461,-1.149 -0.767,-1.868 -0.439,0.42 -0.607,0.705 -0.843,0.781 -0.66,0.212 -1.346,0.35 -2.03,0.474 -0.059,0.01 -0.273,-0.424 -0.25,-0.442 0.49,-0.385 0.999,-0.747 1.517,-1.097 0.089,-0.06 0.232,-0.063 0.35,-0.061 1.362,0.016 1.935,-0.697 1.94,-2.012 0.002,-0.472 0.218,-0.946 0.207,-1.416 -0.079,-3.174 -0.245,-6.347 -0.284,-9.521 -0.051,-4.208 -0.049,-8.418 0.003,-12.626 0.026,-2.058 0.315,-4.114 0.303,-6.17 -0.011,-1.812 -0.282,-3.621 -0.419,-5.432 -0.022,-0.296 -0.055,-0.68 0.1,-0.885 1.266,-1.668 1.312,-3.552 1.154,-5.522 -0.102,-1.263 -0.065,-2.544 0.016,-3.811 0.026,-0.415 0.383,-0.81 0.589,-1.214 0.174,0.348 0.478,0.69 0.497,1.047 0.06,1.079 0.014,2.163 10e-4,3.245 -0.022,1.881 -0.046,3.761 -0.077,5.642 -0.042,2.578 -0.087,5.157 -0.141,7.735 -0.037,1.747 -0.012,3.5 -0.161,5.238 -0.13,1.52 -0.638,2.939 -0.431,4.57 0.349,2.751 0.218,5.561 0.341,8.345 0.162,3.682 0.413,7.361 0.546,11.044 0.05,1.385 0.448,1.967 1.824,2.03 0.708,0.032 1.417,0.006 2.306,0.006 m -8.906,-219.404 c 0,1.56 0.03,2.98 -0.021,4.397 -0.012,0.345 -0.287,0.681 -0.441,1.022 -0.369,-0.18 -0.815,-0.281 -1.093,-0.553 -1.229,-1.208 -1.129,-2.85 -1.181,-4.363 -0.042,-1.195 0.03,-2.537 0.538,-3.576 0.776,-1.586 2.49,-2.297 4.133,-2.149 1.947,0.174 3.178,0.547 3.718,2.549 0.35,1.299 0.637,2.531 0.479,3.932 -0.205,1.819 -0.766,3.268 -2.299,4.345 -0.48,0.337 -1.003,0.941 -1.067,1.477 -0.196,1.608 -0.276,3.247 -0.186,4.862 0.033,0.579 0.571,1.257 1.067,1.657 1.456,1.173 1.503,1.156 0.175,2.529 -0.273,0.282 -0.699,0.429 -0.933,0.732 -0.391,0.503 -0.914,1.061 -0.965,1.633 -0.09,1.005 0.276,2.049 0.191,3.055 -0.091,1.083 0.415,1.724 1.121,2.351 1.553,1.382 1.229,3.123 0.073,4.036 -0.755,0.596 -0.745,1.185 -0.623,1.94 0.05,0.309 0.086,0.624 0.086,0.937 0.003,1.432 -0.03,2.866 -0.003,4.298 0.007,0.374 0.393,0.918 0.251,1.088 -0.815,0.973 -0.725,2.042 -0.617,3.175 0.019,0.201 -0.484,0.452 -0.745,0.681 -0.1,-0.287 -0.233,-0.567 -0.287,-0.862 -0.032,-0.176 0.095,-0.375 0.094,-0.565 -0.005,-2.196 -0.054,-4.393 -0.023,-6.59 0.032,-2.226 0.189,-4.41 -2.605,-5.316 -1.03,-0.335 -0.976,-1.4 0.055,-1.992 1.125,-0.646 1.293,-1.601 1.175,-2.738 -0.065,-0.624 -0.065,-1.255 -0.139,-1.877 -0.131,-1.102 -0.123,-2.269 -0.525,-3.267 -0.194,-0.481 -1.188,-0.639 -1.821,-0.941 -0.646,-0.308 -0.723,-1.036 -0.107,-1.404 0.334,-0.199 0.75,-0.259 1.128,-0.387 2.133,-0.717 2.621,-1.427 2.625,-3.537 0.006,-3.173 0.06,-6.348 0.109,-9.523 0.026,-1.65 0.309,-1.87 1.96,-1.53 0.682,0.14 1.473,0.172 1.495,-0.627 0.012,-0.421 -0.725,-1.133 -1.232,-1.251 -1.992,-0.466 -3.766,0.202 -5.316,1.47 -0.173,0.141 -0.307,0.501 -0.25,0.701 0.054,0.188 0.386,0.424 0.588,0.418 0.502,-0.017 1,-0.16 1.418,-0.237 m 13.974,9.535 c 0.175,-0.13 0.352,-0.261 0.529,-0.393 0.123,0.301 0.18,0.656 0.38,0.892 1.231,1.464 3.715,2.096 5.439,1.411 0.549,-0.218 1.088,-0.46 1.632,-0.691 -0.01,0.613 -0.017,1.228 -0.03,1.841 -0.044,2.028 -0.032,4.06 -0.149,6.083 -0.269,4.702 -0.732,9.401 0.139,14.094 0.033,0.174 -0.163,0.389 -0.27,0.623 -0.526,-0.419 -0.925,-0.942 -1.44,-1.107 -1.447,-0.463 -2.369,0.395 -2.41,1.994 -0.011,0.418 -0.366,0.828 -0.564,1.242 -0.278,-0.377 -0.624,-0.723 -0.817,-1.139 -0.206,-0.445 -0.268,-0.958 -0.375,-1.372 0.31,-0.451 0.741,-0.827 0.849,-1.281 0.379,-1.601 -0.063,-3.477 -1.762,-4.222 -0.462,-0.202 -1.115,-0.688 -1.131,-1.066 -0.105,-2.528 -0.065,-5.061 -0.064,-7.592 0,-0.587 0.04,-1.174 0.042,-1.76 0.004,-2.519 0.002,-5.038 0.002,-7.557 m -1.024,78.262 c 0.007,-0.138 0.014,-0.276 0.021,-0.414 0.533,-0.079 1.066,-0.156 1.599,-0.235 0.897,-0.133 1.436,-0.462 1.641,-1.528 0.646,-3.352 0.78,-6.69 0.55,-10.098 -0.145,-2.147 0.294,-4.327 0.315,-6.494 0.005,-0.516 -0.524,-1.386 -0.96,-1.497 -1.955,-0.499 -3.946,-0.997 -6,-0.366 -0.475,0.146 -1.032,0.101 -1.542,0.05 -0.915,-0.091 -1.351,-0.696 -1.293,-1.565 0.059,-0.878 0.171,-1.884 1.282,-2.027 1.214,-0.154 2.454,-0.127 3.682,-0.145 1.389,-0.022 2.79,0.102 4.164,-0.04 1.156,-0.12 2.026,0.259 2.194,1.295 0.236,1.447 0.211,2.954 0.141,4.427 -0.081,1.697 -0.341,3.384 -0.51,5.077 -0.149,1.496 -0.361,2.991 -0.398,4.49 -0.045,1.863 0.189,3.739 0.067,5.594 -0.136,2.058 -0.136,2.21 1.833,2.847 0.382,0.123 0.709,0.419 1.061,0.636 -0.327,0.296 -0.611,0.681 -0.991,0.871 -1.254,0.626 -1.78,1.522 -1.603,2.709 0.159,1.065 0.288,2.144 0.304,3.219 0.025,1.667 -0.136,3.338 -0.073,5.002 0.076,2.024 0.363,4.039 0.444,6.062 0.056,1.419 -0.709,2.834 -10e-4,4.281 0.098,0.198 -0.115,0.608 -0.276,0.862 -0.836,1.328 -0.47,2.496 1.029,3.187 1.342,0.618 1.654,2.102 0.476,3.018 -0.746,0.58 -1.772,1.022 -2.7,1.077 -0.786,0.046 -1.778,-0.365 -2.378,-0.907 -0.84,-0.757 -0.311,-1.798 0.278,-2.467 1.144,-1.298 1.19,-2.623 0.519,-4.094 -0.671,-1.468 -0.505,-2.84 0.356,-4.202 0.374,-0.592 0.758,-1.302 0.776,-1.969 0.042,-1.545 -0.129,-3.097 -0.226,-4.645 -0.189,-3.018 -0.411,-6.034 -0.569,-9.054 -0.079,-1.513 -0.511,-2.119 -1.918,-2.476 -0.443,-0.113 -0.863,-0.318 -1.294,-0.481 m 9.048,-120.312 c -0.232,-1.552 -0.475,-3.771 -0.947,-5.939 -0.138,-0.632 -0.131,-2.284 -1.74,-1.252 -0.086,0.056 -0.297,-0.05 -0.434,-0.114 -1.036,-0.488 -1.541,-0.318 -1.953,0.762 -0.212,0.553 -0.49,1.181 -0.41,1.727 0.221,1.513 -0.645,2.172 -1.793,2.736 -1.276,0.627 -2.591,0.95 -3.871,0.175 -1.27,-0.769 -2.524,-1.603 -3.644,-2.572 -1.255,-1.084 -1.508,-2.303 -0.888,-3.536 0.517,-1.028 1.114,-2.023 1.758,-2.977 0.715,-1.056 3.523,-1.807 4.455,-1.019 1.248,1.056 2.657,1.316 4.156,1.572 1.484,0.253 2.644,-0.39 2.887,-1.887 0.209,-1.29 0.271,-2.604 0.394,-3.909 0.046,-0.484 0.066,-1.146 0.768,-0.806 0.726,0.35 1.343,0.935 1.989,1.442 0.967,0.76 0.488,1.808 0.545,2.761 0.102,1.681 0.291,3.358 0.421,5.039 0.039,0.503 -0.007,1.012 0,1.518 0.031,2.024 0.012,4.05 0.122,6.07 0.054,0.993 0.315,1.981 0.542,2.959 0.347,1.494 1.895,2.796 0.603,4.546 -0.516,0.698 -1.017,0.805 -1.569,0.143 -0.296,-0.356 -0.628,-0.883 -0.999,-0.934 -0.839,-0.117 -0.815,-0.605 -0.775,-1.186 0.109,-1.549 0.223,-3.097 0.383,-5.319 m -28.373,88.651 c 0.031,-0.003 0.062,-0.005 0.094,-0.008 0,-0.479 -0.008,-0.959 0.002,-1.437 0.006,-0.28 0.036,-0.559 0.064,-0.836 0.153,-1.53 0.669,-1.86 2.15,-1.375 0.903,0.294 1.879,1.685 1.837,2.786 -0.067,1.782 -0.196,3.563 -0.33,5.342 -0.172,2.287 -0.498,4.569 -0.533,6.857 -0.041,2.642 0.249,5.288 0.236,7.931 -0.016,3.34 -0.232,6.678 -0.283,10.018 -0.027,1.778 0.14,3.557 0.172,5.338 0.025,1.359 0.038,2.724 -0.057,4.078 -0.148,2.111 -0.57,4.217 -0.551,6.322 0.027,3.111 0.399,6.219 0.51,9.332 0.083,2.306 0.007,4.618 -0.036,6.926 -0.041,2.206 -0.173,4.412 -0.185,6.618 -0.011,2.158 0.301,4.341 0.065,6.468 -0.279,2.517 0.352,4.848 1.063,7.124 0.497,1.589 0.007,2.711 -0.731,3.888 -0.449,0.717 -1.2,0.965 -1.992,0.545 -0.828,-0.44 -0.644,-1.186 -0.426,-1.9 0.198,-0.647 0.553,-1.288 0.573,-1.939 0.114,-3.817 0.215,-7.637 0.192,-11.455 -0.022,-3.615 -0.252,-7.228 -0.3,-10.843 -0.065,-4.817 -0.035,-9.635 -0.063,-14.453 -0.014,-2.264 -0.079,-4.528 -0.104,-6.792 -0.038,-3.617 -0.03,-7.235 -0.103,-10.851 -0.048,-2.394 -0.247,-4.786 -0.299,-7.18 -0.072,-3.302 0.031,-6.609 -0.126,-9.905 -0.168,-3.538 -0.55,-7.067 -0.839,-10.599 m 17.615,-181.809 c 0.107,2.81 0.198,5.539 0.316,8.268 0.084,1.942 0.126,3.891 0.326,5.822 0.173,1.671 0.637,3.312 0.801,4.983 0.233,2.398 0.327,4.811 0.445,7.219 0.044,0.904 -0.024,1.811 -0.016,2.716 0.022,2.387 0.032,4.774 0.094,7.159 0.058,2.212 0.248,4.422 0.248,6.633 0,3.34 -0.225,6.682 -0.147,10.019 0.077,3.334 0.382,6.665 0.65,9.992 0.054,0.669 0.474,1.304 0.573,1.977 0.189,1.275 0.319,2.566 0.376,3.854 0.036,0.807 0.398,0.877 1.078,0.83 1.72,-0.119 3.106,0.554 3.932,2.084 0.226,0.416 0.279,1.185 0.036,1.522 -0.246,0.34 -0.949,0.422 -1.466,0.471 -0.325,0.032 -0.668,-0.253 -1.017,-0.316 -1.9,-0.344 -3.822,-1.732 -5.696,0.161 -0.204,0.206 -0.923,0.162 -1.195,-0.042 -0.205,-0.155 -0.209,-0.804 -0.075,-1.145 0.834,-2.13 1.606,-4.201 1.369,-6.617 -0.338,-3.443 -0.369,-6.918 -0.485,-10.38 -0.181,-5.365 -0.457,-10.733 -0.436,-16.098 0.016,-3.829 -0.101,-7.65 -0.768,-11.392 -0.82,-4.588 -0.604,-9.19 -0.698,-13.785 -0.094,-4.617 0.115,-9.24 0.191,-13.935 z m -12.068,59.199 c 0.044,-0.882 0.07,-1.628 0.12,-2.372 0.051,-0.756 0.093,-1.514 0.205,-2.261 0.042,-0.28 0.232,-0.575 0.44,-0.772 0.074,-0.07 0.543,0.079 0.595,0.218 0.434,1.154 1.576,1.348 2.458,1.897 1.856,1.156 4.076,0.407 4.36,-1.688 0.53,-3.927 1.31,-7.933 -1.221,-11.494 1.581,-1.836 2.141,-3.91 1.851,-6.162 -0.121,-0.935 -0.443,-1.975 -1.024,-2.677 -0.446,-0.538 -0.507,-0.833 -0.309,-1.408 0.296,-0.857 0.59,-1.729 0.731,-2.618 0.178,-1.117 0.151,-2.266 0.317,-3.386 0.054,-0.361 0.437,-0.674 0.669,-1.008 0.191,0.396 0.504,0.778 0.548,1.189 0.12,1.135 0.074,2.289 0.197,3.424 0.1,0.927 0.479,1.835 0.502,2.758 0.045,1.779 -0.125,3.561 -0.112,5.341 0.02,2.739 0.119,5.478 0.185,8.217 0.056,2.323 0.096,4.647 0.174,6.971 0.086,2.555 0.191,5.11 0.319,7.663 0.079,1.588 0.127,3.184 0.355,4.754 0.192,1.315 0.122,2.45 -0.593,3.65 -0.677,1.137 -1.041,2.468 -1.473,3.737 -0.097,0.285 -0.014,0.753 0.173,0.993 1.221,1.576 2.765,1.715 4.356,0.532 0.418,-0.311 1.036,-0.66 1.477,-0.572 1.502,0.304 2.964,0.795 4.468,1.223 -0.313,1.758 -0.536,3.288 -0.889,4.788 -0.082,0.347 -0.651,0.861 -0.932,0.824 -1.005,-0.131 -2.112,-0.256 -2.944,-0.768 -2.175,-1.336 -4.849,-1.314 -6.828,0.27 -0.372,0.298 -0.825,0.495 -1.24,0.739 -0.024,-0.405 -0.045,-0.81 -0.073,-1.213 -0.008,-0.12 -0.04,-0.238 -0.051,-0.357 -0.254,-2.742 -0.659,-5.474 -0.322,-8.247 0.171,-1.406 0.155,-2.834 0.306,-4.244 0.031,-0.298 0.383,-0.597 0.647,-0.828 0.584,-0.511 1.429,-0.857 1.769,-1.486 1.255,-2.32 -0.009,-4.183 -2.447,-5.028 -1.926,-0.668 -3.932,-1.449 -6.049,-0.572 -0.161,0.066 -0.38,-0.01 -0.715,-0.027 m 18.7,234.152 c 0.46,-0.046 0.991,-0.021 1.472,-0.165 1.007,-0.302 1.306,0.102 1.499,1.06 0.483,2.41 0.962,4.836 1.7,7.174 0.852,2.694 2.181,5.177 4.875,6.517 1.042,0.518 2.176,1.015 3.308,1.137 1.235,0.133 2.527,-0.341 3.775,-0.26 1.931,0.126 3.656,-0.395 5.152,-1.462 1.674,-1.194 3.208,-2.592 4.744,-3.967 0.988,-0.883 1.951,-1.819 2.78,-2.848 1.165,-1.446 2.18,-3.012 3.289,-4.505 1.822,-2.453 3.644,-4.908 5.51,-7.327 1.526,-1.978 2.94,-4.088 5.405,-5.082 0.551,-0.221 1.067,-0.526 1.603,-0.787 2.394,-1.164 4.741,-2.442 7.199,-3.454 1.954,-0.804 4.032,-1.313 6.071,-1.898 2.528,-0.727 5.065,-1.428 7.614,-2.08 1.814,-0.465 3.642,-0.889 5.482,-1.223 1.592,-0.288 3.209,-0.459 4.821,-0.598 0.304,-0.025 0.641,0.348 0.964,0.537 -0.236,0.262 -0.426,0.6 -0.716,0.768 -0.442,0.255 -0.937,0.464 -1.435,0.564 -1.552,0.315 -3.12,0.56 -4.677,0.849 -3.164,0.586 -6.34,1.112 -9.48,1.803 -1.971,0.433 -3.959,0.949 -5.809,1.734 -3.027,1.284 -5.993,2.734 -8.894,4.281 -1.496,0.798 -3.062,1.735 -4.134,3.001 -2.25,2.654 -4.116,5.629 -6.288,8.354 -1.808,2.266 -3.793,4.395 -5.765,6.524 -1.852,2.002 -3.663,4.075 -5.731,5.835 -1.491,1.269 -3.477,1.939 -5.056,3.123 -2.007,1.505 -4.255,1.65 -6.568,1.63 -0.694,-0.006 -1.462,-0.186 -2.065,-0.522 -1.424,-0.794 -2.829,-1.65 -4.135,-2.623 -3.709,-2.764 -5.761,-6.47 -6.085,-11.112 -0.113,-1.615 -0.275,-3.226 -0.425,-4.978 m -2.26,-47.5 c 1.142,-0.103 1.851,-0.197 2.563,-0.226 1.623,-0.065 2.62,-0.977 3.359,-2.33 1.069,-1.954 0.653,-4.101 -1.13,-5.231 -0.597,-0.378 -0.593,-0.732 -0.474,-1.379 0.245,-1.348 0.325,-2.731 0.404,-4.104 0.059,-1.022 0.012,-2.05 0.012,-3.509 1.294,1.755 2.443,1.261 3.574,0.209 0.151,0.351 0.291,0.522 0.29,0.692 -0.018,2.661 0.02,5.325 -0.102,7.982 -0.153,3.323 -0.427,6.641 -0.677,9.959 -0.233,3.075 -0.577,6.143 -0.732,9.22 -0.125,2.476 -0.051,4.963 -0.049,7.445 0.001,2.4 0.029,4.8 0.034,7.201 0.002,1.099 -0.575,1.823 -1.692,1.849 -2.694,0.06 -5.391,0.022 -8.087,0.015 -0.057,0 -0.115,-0.097 -0.18,-0.155 0,-2.736 0.027,-5.476 -0.014,-8.216 -0.014,-0.941 0.198,-1.308 1.267,-1.269 2.545,0.095 4.166,-1.79 4.084,-4.332 -0.041,-1.275 -0.78,-2.057 -1.526,-2.864 -0.681,-0.736 -0.851,-1.277 -0.014,-2.085 1.426,-1.378 1.534,-3.011 0.665,-4.806 -0.602,-1.245 -1.009,-2.584 -1.575,-4.066 M -24.952,-70.731 c 0,-4.216 0.114,-8.301 -0.058,-12.373 -0.065,-1.527 0.2,-2.135 1.772,-2.227 2.204,-0.129 4.393,-0.597 6.596,-0.66 2.403,-0.069 4.819,0.086 7.217,0.283 2.071,0.17 1.968,0.257 1.965,2.376 -0.003,2.48 0.217,4.961 0.276,7.442 0.028,1.147 -0.039,2.303 -0.187,3.439 -0.04,0.303 -0.527,0.762 -0.832,0.78 -1.781,0.114 -3.59,0.305 -5.352,0.118 -3.117,-0.329 -6.176,-0.51 -9.211,0.526 -0.753,0.257 -1.606,0.223 -2.186,0.296 m 21.727,-12.737 c -0.04,0.63 -0.123,1.104 -0.086,1.568 0.042,0.508 0.316,1.017 0.278,1.51 -0.191,2.51 0.845,3.889 3.29,4.425 0.622,0.136 1.519,0.415 1.704,0.867 0.417,1.024 0.536,2.189 0.648,3.309 0.114,1.124 0.093,2.264 0.089,3.396 -0.002,0.625 -0.092,1.249 -0.14,1.874 -0.055,0.711 -0.172,1.424 -0.151,2.133 0.056,1.905 0.245,3.807 0.245,5.709 -0.001,2.356 -0.183,4.71 -0.206,7.065 -0.027,2.96 0.039,5.921 0.047,8.881 0.013,5.045 0.012,10.091 0.016,15.136 10e-4,1.74 0,3.478 0,5.285 -0.634,-0.073 -1.118,-0.232 -1.566,-0.16 -1.013,0.164 -1.25,-0.341 -1.27,-1.198 -0.045,-1.935 -0.152,-3.868 -0.177,-5.804 -0.023,-1.98 -0.023,-3.964 0.049,-5.943 0.109,-3.04 0.303,-6.077 0.434,-9.116 0.078,-1.769 0.367,-3.559 -0.601,-5.223 -0.366,-0.63 -0.72,-0.724 -1.173,-0.168 -1.662,2.036 -4.334,1.685 -6.01,-0.159 -0.899,-0.99 -0.749,-3.408 0.339,-3.71 0.974,-0.271 2.104,-0.286 3.101,-0.088 1.177,0.234 2.262,0.904 3.431,1.225 0.927,0.255 2.002,-0.433 2.031,-1.21 0.093,-2.641 0.175,-5.283 0.159,-7.925 -0.006,-0.994 -0.528,-1.701 -1.69,-1.817 -0.653,-0.066 -1.327,-0.305 -1.906,-0.623 -0.741,-0.408 -0.653,-1.222 0.123,-1.558 0.325,-0.141 0.696,-0.172 1.046,-0.256 1.023,-0.245 1.59,-0.809 1.5,-1.947 -0.075,-0.948 0.087,-1.933 -0.107,-2.849 -0.165,-0.78 -0.688,-1.485 -1.052,-2.224 -0.437,0.497 -0.956,0.943 -1.292,1.5 -0.559,0.923 -1.463,1.092 -2.279,0.868 -0.51,-0.141 -1.136,-0.872 -1.209,-1.407 -0.276,-2.015 -0.368,-4.058 -0.487,-6.093 -0.108,-1.849 -0.24,-3.702 -0.221,-5.553 0.024,-2.542 0.158,-5.083 0.287,-7.623 0.087,-1.723 0.245,-3.442 0.396,-5.497 0.979,0.606 2.025,0.882 2.251,1.472 0.444,1.157 0.555,2.486 0.579,3.749 0.051,2.587 -0.047,5.178 -0.085,7.913 0.128,0.064 0.55,0.276 0.971,0.488 -0.05,0.089 -0.101,0.179 -0.151,0.267 -0.298,-0.125 -0.597,-0.252 -1.155,-0.489 m -12.072,-93.205 v 11.611 c -0.617,-0.251 -0.977,-0.399 -1.338,-0.544 -0.406,-0.165 -0.801,-0.374 -1.221,-0.478 -1.326,-0.326 -2.057,0.13 -2.145,1.462 -0.084,1.263 -0.117,2.553 0.047,3.802 0.213,1.623 0.001,3.17 -0.496,4.682 -0.136,0.414 -0.571,0.81 -0.969,1.044 -0.912,0.537 -1.957,0.866 -2.817,1.468 -1.825,1.275 -1.997,3.32 -2.161,5.307 -0.025,0.294 0.277,0.822 0.53,0.896 0.901,0.267 0.884,0.914 0.806,1.593 -0.144,1.253 -0.108,2.428 0.816,3.446 0.174,0.192 0.085,0.697 0.003,1.03 -0.257,1.028 -0.72,2.027 -0.823,3.064 -0.15,1.522 -0.173,1.649 -1.923,1.699 -0.033,-0.221 -0.087,-0.45 -0.096,-0.68 -0.103,-2.66 -0.289,-5.32 -0.273,-7.978 0.019,-3.41 0.207,-6.818 0.312,-10.229 0.073,-2.379 0.174,-4.76 0.179,-7.14 0.004,-1.742 -0.164,-3.484 -0.189,-5.226 -0.038,-2.548 0.006,-5.096 -0.028,-7.644 -0.03,-2.266 -0.124,-4.532 -0.176,-6.797 -0.02,-0.85 -0.003,-1.699 -0.003,-2.737 0.811,-0.436 0.932,-0.363 1.108,0.872 0.116,0.816 0.345,1.638 1.401,1.599 1.205,-0.046 2.45,0.235 3.558,-0.674 0.335,-0.273 1.195,-0.181 1.647,0.058 0.31,0.166 0.553,0.945 0.434,1.327 -0.239,0.765 -0.733,1.452 -1.15,2.155 -0.339,0.571 -1.015,1.109 -1.03,1.674 -0.052,2.03 2.232,3.766 4.072,2.563 0.589,-0.386 1.188,-0.757 1.925,-1.225 m 0.369,193.868 c -1.82,0.643 -2.251,2.163 -2.543,3.703 -0.446,2.358 -0.834,4.729 -1.16,7.106 -0.306,2.23 -0.515,4.475 -0.738,6.716 -0.287,2.898 -0.608,5.796 -0.792,8.701 -0.1,1.567 0.057,3.149 0.092,4.725 0.029,1.358 0.087,2.718 0.064,4.076 -0.023,1.466 -0.177,2.93 -0.182,4.395 -0.013,3.39 0.089,6.78 0.034,10.169 -0.058,3.576 -0.353,7.151 -0.345,10.726 0.008,3.615 0.226,7.231 0.415,10.842 0.217,4.137 0.537,8.268 0.749,12.405 0.138,2.692 0.207,5.389 0.21,8.085 10e-4,0.778 -0.024,1.779 -1.332,1.68 -1.499,-0.113 -1.959,-0.576 -1.967,-1.907 -0.009,-1.275 -0.114,-2.551 -0.205,-3.824 -0.018,-0.26 -0.099,-0.666 -0.266,-0.738 -0.757,-0.33 -0.581,-0.923 -0.576,-1.52 0.03,-3.751 0.076,-7.502 0.041,-11.252 -0.04,-4.268 -0.3,-8.538 -0.206,-12.802 0.103,-4.7 0.487,-9.394 0.771,-14.088 0.143,-2.383 0.419,-4.76 0.486,-7.144 0.078,-2.773 -0.098,-5.554 0,-8.326 0.189,-5.394 0.491,-10.784 0.751,-16.176 0.165,-3.422 0.31,-6.847 0.517,-10.267 0.149,-2.454 0.305,-4.913 0.614,-7.349 0.185,-1.457 0.81,-2.748 2.431,-3.246 0.844,-0.26 1.652,-0.64 2.633,-1.027 -0.492,2.134 -1.397,4.239 0.504,6.337 m 10.324,-227.496 c -0.731,-0.098 -1.236,-0.167 -1.741,-0.236 -1.374,-0.19 -2.743,-0.481 -4.123,-0.546 -2.302,-0.108 -4.613,-0.146 -6.915,-0.071 -1.727,0.055 -3.51,-0.376 -5.176,0.481 -1.236,0.637 -2.491,1.24 -3.759,1.813 -0.336,0.151 -0.855,0.298 -1.095,0.143 -0.215,-0.139 -0.21,-0.692 -0.218,-1.065 -0.014,-0.556 0.136,-1.125 0.06,-1.667 -0.481,-3.389 -0.558,-6.77 -0.088,-10.17 0.163,-1.178 0.09,-2.388 0.156,-3.581 0.076,-1.397 0.734,-2.354 2.171,-2.612 1.646,-0.293 3.29,-0.641 4.95,-0.794 2.176,-0.201 4.365,-0.255 6.55,-0.331 1.908,-0.068 3.888,-0.413 5.709,-0.032 2.553,0.533 2.532,0.345 2.856,3.037 0.085,0.713 0.068,1.442 0.198,2.144 0.816,4.407 0.437,8.841 0.465,13.487 m 3.667,301.909 c -0.138,0.648 -0.16,1.17 -0.361,1.609 -0.529,1.156 -1.177,2.257 -1.688,3.419 -0.158,0.358 -0.028,0.843 -0.03,1.269 0.498,-0.146 1.144,-0.148 1.461,-0.471 0.485,-0.494 0.907,-1.171 1.064,-1.838 0.316,-1.343 0.486,-2.727 0.626,-4.103 0.229,-2.259 0.49,-4.521 0.55,-6.787 C 0.768,81.578 0.585,78.442 0.684,75.315 0.82,71.009 1.151,66.71 1.329,62.406 1.532,57.513 1.669,52.618 1.812,47.724 1.873,45.615 1.882,43.505 1.905,41.395 1.94,38.208 1.977,35.02 1.995,31.832 2.009,29.445 1.95,27.058 2.005,24.672 2.096,20.696 2.303,16.723 2.362,12.746 2.402,10.076 2.218,7.403 2.243,4.732 2.257,3.337 2.696,1.964 1.452,0.76 1.126,0.443 1.152,-0.665 1.461,-1.076 1.714,-1.413 2.769,-1.495 3.203,-1.24 c 0.36,0.212 0.391,1.073 0.462,1.66 0.05,0.416 -0.152,0.862 -0.111,1.282 0.35,3.616 0.831,7.223 1.072,10.846 0.21,3.16 0.173,6.338 0.218,9.508 0.019,1.416 10e-4,2.835 -0.053,4.251 -0.105,2.722 -0.312,5.442 -0.36,8.165 -0.066,3.591 0.018,7.186 -0.036,10.778 -0.042,2.777 -0.206,5.552 -0.303,8.328 -0.049,1.387 -0.017,2.779 -0.119,4.161 -0.208,2.779 -0.54,5.549 -0.715,8.329 -0.159,2.53 -0.152,5.071 -0.267,7.604 -0.088,1.945 -0.368,3.886 -0.356,5.828 0.019,3.286 0.237,6.57 0.303,9.856 0.034,1.681 0.218,3.189 1.772,4.27 1.069,0.743 1.503,1.901 1.428,3.249 -0.126,2.288 -0.283,4.581 -0.258,6.869 0.021,1.978 -0.534,3.533 -2.296,4.583 -0.24,0.143 -0.322,0.603 -0.415,0.935 -0.359,1.288 -0.825,2.496 -2.007,3.286 -0.803,0.537 -1.876,0.392 -2.003,-0.297 -0.213,-1.146 0.495,-2.238 1.64,-2.529 1.43,-0.364 3.072,-2.182 3.144,-3.652 0.041,-0.82 -0.275,-1.66 -0.219,-2.477 0.066,-0.982 -0.625,-1.374 -1.238,-1.493 -0.664,-0.129 -1.735,-0.053 -2.07,0.373 -0.932,1.187 -1.62,2.577 -2.309,3.936 -0.295,0.585 -0.543,1.023 -1.278,1.01 -1.905,-0.034 -3.822,0.083 -5.715,-0.083 -2.11,-0.184 -2.66,-0.75 -2.708,-2.445 -0.05,-1.754 -0.008,-3.512 0.041,-5.266 0.062,-2.215 0.206,-4.429 0.237,-6.644 0.007,-0.644 0.192,-0.884 0.796,-1.076 3.123,-0.993 6.259,-0.317 9.583,-0.297 m -1.191,-203.953 c -0.278,-0.107 -0.397,-0.117 -0.415,-0.165 -0.807,-2.186 -2.336,-3.407 -4.681,-3.659 -0.267,-0.029 -0.643,-0.601 -0.682,-0.952 -0.337,-2.996 -0.684,-5.994 -0.877,-9.001 -0.194,-3.024 -0.262,-6.059 -0.298,-9.089 -0.04,-3.384 0.043,-6.768 0.027,-10.153 -0.015,-3.576 -0.05,-7.154 -0.142,-10.729 -0.052,-2.016 -0.191,-4.034 -0.379,-6.043 -0.16,-1.715 -0.506,-3.413 -0.658,-5.129 -0.104,-1.178 0.035,-2.378 -0.026,-3.563 -0.117,-2.261 -0.342,-4.517 -0.44,-6.778 -0.079,-1.79 -0.052,-3.586 -0.041,-5.378 0.003,-0.514 0.304,-1.106 0.133,-1.522 -0.289,-0.696 0.111,-0.754 0.514,-1.058 0.792,-0.602 1.636,-1.228 2.193,-2.029 1.243,-1.791 0.749,-3.676 0.099,-5.59 -0.618,-1.823 -1.097,-3.645 -3.54,-3.615 0.299,-1.59 0.778,-3.051 0.812,-4.521 0.095,-4.13 -0.701,-5.623 -4.715,-5.834 -0.871,-0.046 -1.785,0.246 -2.621,0.083 -1.866,-0.365 -3.348,0.55 -4.891,1.255 -0.312,0.141 -0.596,0.684 -0.622,1.061 -0.154,2.249 -0.397,4.517 0.608,6.885 -1.696,-0.57 -3.255,-1.094 -4.857,-1.633 0,-1.352 -0.007,-2.887 0.003,-4.421 0.005,-0.749 -0.213,-1.664 0.138,-2.197 0.335,-0.51 1.276,-0.621 1.949,-0.91 0.073,-0.032 0.132,-0.095 0.204,-0.123 2.216,-0.872 4.389,-1.847 6.873,-1.742 2.139,0.092 4.284,0 6.426,0.033 1.228,0.018 2.464,0.055 3.681,0.206 1.233,0.152 2.447,0.454 3.723,0.701 0.14,1.155 0.345,2.326 0.408,3.505 0.093,1.739 0.096,3.484 0.119,5.227 0.026,1.824 -0.004,3.648 0.054,5.47 0.07,2.171 0.236,4.339 0.309,6.509 0.073,2.152 0.096,4.307 0.116,6.46 0.023,2.582 0.02,5.164 0.028,7.747 0.004,1.296 -0.039,2.595 0.03,3.888 0.036,0.685 0.336,1.355 0.386,2.042 0.05,0.686 -0.105,1.386 -0.094,2.079 0.071,4.681 0.176,9.362 0.245,14.043 0.042,2.826 0.034,5.652 0.051,8.478 0.011,1.7 0.276,3.445 -0.027,5.086 -0.292,1.579 -0.216,3.114 -0.17,4.659 0.107,3.575 0.505,7.149 0.454,10.719 -0.041,2.872 -0.104,5.701 0.666,8.496 0.096,0.348 -0.04,0.759 -0.073,1.202 m -14.427,84.592 c -0.027,-0.134 -0.054,-0.268 -0.081,-0.4 0.848,-0.06 1.7,-0.085 2.542,-0.195 0.431,-0.055 0.974,-0.146 1.226,-0.433 0.245,-0.278 0.253,-0.828 0.24,-1.255 -0.023,-0.813 -0.157,-1.622 -0.2,-2.435 -0.019,-0.352 0.106,-0.71 0.116,-1.066 0.068,-2.255 0.13,-4.51 0.179,-6.766 0.052,-2.418 0.124,-4.836 0.119,-7.254 -0.007,-3.289 -0.025,-6.58 -0.142,-9.867 -0.066,-1.862 0.327,-3.803 -1.011,-5.502 -0.552,-0.7 -0.092,-1.595 0.637,-2.049 0.586,-0.364 1.312,-0.665 1.984,-0.682 0.665,-0.018 1.694,0.158 1.937,0.595 0.494,0.891 0.191,1.834 -0.625,2.675 -0.966,0.995 -1.739,2.121 -1.643,3.72 0.199,3.3 0.242,6.61 0.317,9.918 0.043,1.906 0.023,3.814 0.035,5.722 0.004,0.589 0.047,1.18 0.022,1.769 -0.065,1.55 -0.211,3.098 -0.223,4.647 -0.012,1.657 0.257,3.332 0.093,4.967 -0.111,1.112 0.393,1.623 1.112,2.129 0.451,0.318 0.964,0.552 1.457,0.808 0.996,0.518 1.044,1.007 0.131,1.637 -0.26,0.179 -0.559,0.304 -0.846,0.442 -2.225,1.069 -2.854,2.687 -2.07,4.669 -0.189,0.835 -0.452,1.391 -0.406,1.92 0.083,0.945 0.404,1.868 0.53,2.812 0.185,1.374 0.458,2.77 0.372,4.136 -0.092,1.471 -0.612,2.91 -0.832,4.38 -0.123,0.82 -0.033,1.675 -0.008,2.513 0.02,0.644 0.317,1.17 1.018,0.953 0.237,-0.073 0.399,-0.721 0.415,-1.112 0.027,-0.705 -0.15,-1.415 -0.122,-2.119 0.077,-2.021 0.265,-4.039 0.306,-6.06 0.025,-1.224 -0.17,-2.449 -0.216,-3.676 -0.033,-0.832 -0.14,-1.725 0.738,-2.193 -0.192,-0.847 -0.374,-1.661 -0.561,-2.475 -0.172,-0.745 0.145,-1.28 0.871,-1.175 0.313,0.046 0.812,0.811 0.74,1.144 -0.251,1.159 0.476,1.554 1.269,1.813 0.971,0.319 2.045,0.459 2.513,-0.796 0.267,-0.717 0.328,-1.51 0.491,-2.313 1.059,-0.041 0.935,0.933 1.167,1.502 0.532,1.307 1.195,1.834 2.57,1.904 2.948,0.152 2.765,-0.493 3.066,2.972 0.035,0.396 0.149,0.895 -0.034,1.178 -0.405,0.623 -0.976,1.138 -1.479,1.697 -0.448,-0.485 -0.913,-0.959 -1.336,-1.466 -0.114,-0.138 -0.087,-0.386 -0.15,-0.574 -0.349,-1.031 -1.215,-1.254 -1.877,-0.405 -0.344,0.441 -0.655,1.09 -0.613,1.617 0.149,1.908 0.476,3.802 0.685,5.706 0.052,0.47 -0.089,0.96 -0.146,1.486 -2.236,-0.834 -2.236,-0.834 -1.842,-2.925 0.021,-0.114 0.05,-0.231 0.04,-0.344 -0.149,-1.691 -0.274,-3.384 -0.476,-5.069 -0.069,-0.576 -0.224,-1.206 -0.548,-1.667 -0.24,-0.343 -0.828,-0.648 -1.231,-0.615 -0.391,0.032 -0.989,0.467 -1.064,0.818 -0.232,1.069 -0.308,2.179 -0.347,3.277 -0.063,1.799 -0.108,3.6 -0.05,5.398 0.05,1.528 0.254,3.049 0.405,4.753 0.527,-0.392 1.13,-0.665 1.469,-1.13 0.829,-1.138 1.523,-1.365 2.756,-0.679 0.454,0.252 0.895,0.529 1.359,0.759 1.722,0.853 2.494,0.469 2.769,-1.448 0.162,-1.124 0.1,-2.286 0.329,-3.392 0.08,-0.385 0.73,-0.652 1.118,-0.972 0.229,0.368 0.605,0.717 0.661,1.11 0.242,1.678 0.397,3.368 0.562,5.056 0.05,0.51 0.125,1.047 0.022,1.537 -0.224,1.08 -1.044,1.396 -2.097,1.158 -1.092,-0.247 -2.232,-0.306 -3.354,-0.381 -0.88,-0.057 -1.605,0.461 -1.615,1.269 -0.013,0.974 0.167,2.066 0.636,2.896 0.404,0.718 1.297,0.743 2.105,0.143 0.567,-0.421 1.443,0.017 1.483,0.681 0.115,1.894 0.236,3.792 0.256,5.689 0.034,3.071 -0.037,6.144 -0.012,9.216 0.015,1.956 0.204,3.913 0.171,5.867 -0.044,2.524 -0.266,5.045 -0.347,7.57 -0.089,2.74 -0.103,5.482 -0.154,8.224 -0.001,0.07 -0.067,0.138 -0.112,0.227 -0.316,0.084 -0.645,0.17 -0.96,0.254 -0.021,0.429 -0.04,0.781 -0.057,1.134 L -0.611,39.56 c -0.901,0.494 -1.801,0.987 -2.852,1.563 -0.057,-0.644 -0.142,-1.216 -0.151,-1.79 -0.028,-1.747 0.08,-3.502 -0.074,-5.236 -0.09,-1.024 -0.107,-1.732 1,-2.189 0.843,-0.348 1.558,-2.178 1.459,-3.09 -0.129,-1.201 -0.866,-1.641 -1.959,-1.767 -0.684,-0.079 -1.031,-0.408 -0.934,-1.216 0.088,-0.734 -0.093,-1.497 -0.095,-2.248 -0.005,-2.321 -0.014,-4.645 0.048,-6.966 0.024,-0.892 0.24,-1.78 0.322,-2.349 0.909,-0.275 1.78,-0.291 2.26,-0.731 C -0.251,12.317 0.415,10.689 0.519,8.864 0.604,7.36 -0.728,6.373 -2.119,6.925 -2.575,7.104 -2.982,7.407 -3.451,7.677 -3.827,6.604 -4.036,5.561 -4.551,4.697 -4.885,4.137 -5.637,3.534 -6.248,3.479 -8.508,3.28 -10.786,3.287 -13.059,3.242 c -3.134,-0.061 -5.396,2.31 -4.594,5.049 0.37,1.266 -0.092,1.573 -1.041,1.808 -1.487,0.368 -2.515,1.209 -2.859,2.738 -0.198,0.883 -0.379,1.778 -0.458,2.678 -0.153,1.743 -0.229,3.493 -0.336,5.24 -0.164,2.685 -0.352,5.37 -0.486,8.058 -0.177,3.529 -0.308,7.06 -0.466,10.59 -0.118,2.658 -0.302,5.313 -0.361,7.972 -0.075,3.443 0.034,6.891 -0.098,10.33 -0.193,5.032 -0.526,10.058 -0.806,15.086 -0.044,0.772 -0.123,1.541 -0.186,2.312 -0.123,0.001 -0.245,0.002 -0.367,0.003 -0.093,-0.284 -0.264,-0.568 -0.267,-0.853 -0.019,-1.635 -0.012,-3.271 0.012,-4.907 0.068,-4.539 0.194,-9.078 0.21,-13.617 0.02,-5.498 -0.078,-10.995 -0.071,-16.492 0.005,-4.628 0.089,-9.255 0.137,-13.883 0.044,-4.336 0.122,-8.673 0.113,-13.011 -0.005,-2.106 1.362,-3.273 3.415,-2.749 1.586,0.405 2.128,0.038 2.254,-1.613 0.109,-1.424 0.144,-2.854 0.235,-4.28 0.062,-0.985 0.275,-1.859 1.39,-2.249 0.877,-0.307 1.385,-0.996 1.207,-1.959 -0.203,-1.082 -0.339,-2.242 -0.857,-3.172 -0.264,-0.474 -1.289,-0.553 -1.987,-0.754 -1.005,-0.288 -1.851,-1.355 -1.766,-2.272 0.094,-1.031 0.121,-2.071 0.275,-3.094 0.047,-0.32 0.357,-0.659 0.635,-0.876 0.707,-0.55 1.563,-0.939 2.178,-1.57 0.77,-0.79 0.742,-2.556 -0.034,-2.974 -1.52,-0.818 -1.7,-2.228 -1.734,-3.637 -0.056,-2.267 0.045,-4.539 0.114,-6.806 0.038,-1.239 -0.25,-2.481 0.69,-3.638 1.529,-1.88 1.322,-4.42 -0.303,-6.231 -1.357,-1.514 -1.13,-3.776 0.393,-5.115 1.494,-1.314 2.21,-3.836 0.024,-5.293 -1.115,-0.745 -1.004,-3.872 -0.069,-4.852 0.888,-0.932 1.904,-1.97 2.251,-3.143 0.832,-2.815 1.109,-5.711 -0.258,-8.535 -1.142,-2.36 -4.067,-3.525 -6.466,-2.496 -0.67,0.287 -1.377,0.487 -2.134,0.751 0,-1.486 -0.041,-2.749 0.036,-4.005 0.015,-0.245 0.455,-0.573 0.76,-0.67 0.793,-0.253 1.612,-0.439 2.434,-0.577 1.214,-0.204 2.471,-0.604 3.654,-0.462 3.815,0.459 7.627,0.543 11.452,0.358 0.734,-0.035 1.295,0.007 1.971,0.476 0.519,0.361 1.473,0.195 2.214,0.102 0.588,-0.074 1.145,-0.392 1.734,-0.608 0.35,1.488 0.152,1.765 -1.547,2.429 -1.076,0.421 -1.616,1.401 -1.566,2.525 0.07,1.512 1.461,2.807 3.086,2.948 1.026,0.089 1.268,0.634 1.125,1.528 -0.036,0.228 -0.047,0.46 -0.06,0.691 -0.085,1.399 -0.152,2.798 -0.254,4.196 -0.075,1.016 -0.764,1.001 -1.468,0.747 -0.597,-0.215 -1.126,-0.641 -1.73,-0.806 -1.019,-0.277 -2.105,-0.675 -3.103,-0.549 -0.934,0.119 -1.789,0.852 -2.635,1.292 -0.112,-0.975 -0.168,-2.173 -0.406,-3.335 -0.23,-1.127 0.199,-2.043 0.906,-2.708 1.238,-1.166 1.307,-2.615 1.245,-4.081 -0.066,-1.569 -0.871,-2.349 -2.251,-2.697 -1.429,-0.359 -2.609,0.225 -3.699,0.948 -1.467,0.974 -1.777,3.567 -0.861,5.062 0.544,0.888 0.832,1.839 0.807,3.018 -0.071,3.429 -0.564,6.875 0.121,10.3 0.115,0.579 0.197,1.183 0.172,1.771 -0.108,2.52 -0.262,5.04 -0.398,7.56 -0.046,0.861 -0.115,1.721 -0.121,2.582 -0.008,1.37 0.085,2.743 0.011,4.109 -0.022,0.392 -0.386,0.902 -0.74,1.113 -0.744,0.444 -1.562,0.801 -2.391,1.057 -1.165,0.36 -1.326,1.131 -1.252,2.203 0.086,1.243 0.931,1.634 1.874,2.038 1.586,0.679 1.8,1.213 1.703,2.92 -0.126,2.214 -0.171,4.437 -0.143,6.655 0.032,2.493 0.261,4.984 0.255,7.476 -0.005,1.881 -0.269,3.762 -0.362,5.646 -0.023,0.478 0.17,0.965 0.263,1.448 0.165,0.007 0.329,0.014 0.493,0.021 0.232,-0.605 0.638,-1.202 0.664,-1.815 0.085,-2.062 0.036,-4.129 0.034,-6.195 -0.003,-2.154 -0.045,-4.31 -0.006,-6.463 0.045,-2.459 0.168,-4.917 0.24,-7.375 0.032,-1.077 0.296,-2.226 -0.941,-2.924 -0.806,-0.454 -1.564,-0.989 -2.345,-1.488 m -0.926,192.549 c 0.669,-0.106 1.336,-0.196 1.999,-0.317 1.479,-0.272 2.553,-1.881 2.35,-3.5 -0.198,-1.576 -0.943,-2.09 -2.874,-1.99 -0.278,0.015 -0.604,0.098 -0.825,-0.014 -0.263,-0.135 -0.588,-0.428 -0.618,-0.684 -0.078,-0.661 -0.06,-1.346 0.026,-2.008 0.036,-0.285 0.293,-0.718 0.522,-0.77 0.797,-0.181 1.623,-0.286 2.441,-0.308 1.232,-0.034 2.471,-0.019 3.698,0.082 0.271,0.022 0.715,0.48 0.723,0.748 0.049,1.69 0.002,3.382 -0.024,5.073 -0.017,1.176 -0.046,2.352 -0.081,3.528 -0.044,1.517 -0.149,3.035 -0.135,4.552 0.012,1.416 0.163,2.83 0.218,4.247 0.036,0.912 -0.021,1.829 0.019,2.741 0.143,3.274 0.378,6.544 0.445,9.819 0.062,2.981 -0.166,5.97 -0.05,8.947 0.094,2.463 0.509,4.914 0.771,7.371 0.307,2.874 0.675,5.744 0.878,8.625 0.169,2.405 0.056,4.829 0.212,7.235 0.279,4.321 0.703,8.632 0.996,12.952 0.187,2.762 0.273,5.532 0.358,8.3 0.111,3.556 0.161,7.114 0.268,10.67 0.023,0.772 0.275,1.541 0.263,2.309 -0.05,3.084 -0.139,6.169 -0.284,9.25 -0.015,0.353 -0.402,0.902 -0.721,0.993 -1.756,0.499 -3.524,1.075 -5.325,1.265 -2.839,0.298 -5.706,0.341 -8.563,0.434 -1.472,0.048 -2.067,-0.393 -2.327,-1.801 -0.199,-1.084 -0.191,-2.207 -0.252,-3.314 -0.191,-3.455 -0.316,-6.915 -0.571,-10.365 -0.264,-3.583 -0.735,-7.151 -0.963,-10.735 -0.326,-5.122 -0.466,-10.256 -0.777,-15.38 -0.227,-3.734 -0.698,-7.454 -0.886,-11.189 -0.234,-4.655 -0.342,-9.318 -0.4,-13.978 -0.035,-2.779 0.121,-5.56 0.211,-8.339 0.019,-0.606 0.118,-1.209 0.194,-1.94 0.317,0.19 0.542,0.247 0.63,0.389 0.91,1.462 2.269,2.171 3.925,2.406 0.711,0.101 1.426,0.186 2.134,0.306 1.814,0.307 3.187,-0.364 4.241,-1.888 1.376,-1.991 1.659,-4.265 1.931,-6.563 0.258,-2.194 -1.225,-4.128 -3.419,-4.451 -0.353,-0.052 -0.709,-0.135 -1.039,-0.265 -0.77,-0.302 -0.915,-0.763 -0.213,-1.301 1.859,-1.422 2.041,-3.225 1.343,-5.315 -0.627,-1.877 -1.08,-3.796 -0.449,-5.827 m -0.501,-27.989 c 0.138,-5.075 0.302,-9.795 0.378,-14.517 0.032,-1.878 -0.202,-3.759 -0.189,-5.638 0.022,-3.414 0.176,-6.828 0.201,-10.242 0.014,-1.827 -0.104,-3.656 -0.196,-5.482 -0.374,-7.383 -0.843,-14.761 -1.112,-22.147 -0.153,-4.157 0.014,-8.326 0.038,-12.489 0.037,-6.644 0.043,-13.288 0.129,-19.931 0.031,-2.416 0.261,-4.83 0.388,-7.245 0.119,-2.244 0.145,-4.496 0.351,-6.731 0.218,-2.374 0.535,-4.744 0.932,-7.094 0.26,-1.542 0.727,-3.049 1.124,-4.566 0.109,-0.42 0.184,-0.949 0.473,-1.199 0.475,-0.409 1.374,-1.029 1.632,-0.859 0.847,0.559 1.797,1.316 2.13,2.213 0.457,1.232 0.443,2.656 0.529,4.004 0.083,1.317 0.21,2.63 -0.889,3.747 -0.715,0.729 -0.636,1.656 0.125,2.461 0.233,0.247 0.475,0.61 0.484,0.927 0.054,1.933 0.134,3.876 -0.009,5.799 -0.039,0.533 -0.736,1.107 -1.259,1.487 -0.464,0.338 -1.129,0.385 -1.658,0.653 -0.29,0.146 -0.69,0.488 -0.684,0.732 0.029,1.169 0.154,2.337 0.313,3.497 0.03,0.217 0.336,0.497 0.569,0.57 1.627,0.512 2.068,1.78 2.206,3.282 0.091,0.985 0.306,1.965 0.321,2.95 0.02,1.337 -0.172,2.678 -0.138,4.015 0.035,1.41 0.263,2.813 0.34,4.223 0.04,0.743 -0.08,1.493 -0.095,2.241 -0.015,0.74 0.084,1.49 -0.007,2.219 -0.053,0.437 -0.317,0.883 -0.587,1.251 -1.065,1.45 -1.772,2.963 -0.959,4.769 0.282,0.625 0.564,1.296 1.019,1.784 0.609,0.654 0.242,1.097 -0.022,1.699 -0.336,0.772 -0.737,1.63 -0.699,2.432 0.137,2.884 0.518,5.756 0.665,8.64 0.095,1.853 0.142,3.753 -0.175,5.565 -0.195,1.121 -0.71,2.172 -0.607,3.388 0.125,1.477 0.146,2.968 0.133,4.453 -0.023,2.487 -0.026,4.979 -0.192,7.459 -0.149,2.257 0.051,2.751 2.166,3.407 1.028,0.319 2.105,0.475 3.126,0.81 0.356,0.117 0.833,0.52 0.874,0.841 0.234,1.844 0.327,3.707 0.518,5.558 0.301,2.899 1.149,5.631 2.926,7.966 1.774,2.332 4.035,4.106 6.558,5.631 3.994,2.413 7.758,1.83 11.535,-0.404 1.093,-0.647 2.319,-1.104 3.324,-1.861 1.376,-1.036 2.676,-2.2 3.869,-3.444 2.409,-2.508 4.73,-5.103 7.076,-7.672 1.66,-1.817 3.352,-3.61 4.935,-5.493 0.966,-1.149 1.76,-2.442 2.618,-3.68 1.445,-2.086 3.241,-3.729 5.6,-4.765 3.132,-1.376 6.242,-2.807 9.333,-4.276 2.536,-1.206 5.217,-1.801 7.975,-2.184 3.317,-0.46 6.629,-0.955 9.934,-1.493 0.694,-0.113 1.334,-0.526 2.021,-0.726 1.104,-0.32 2.251,-0.505 3.334,-0.88 1.19,-0.413 2.323,-0.983 3.486,-1.471 1.349,-0.566 2.731,-1.058 4.042,-1.699 0.528,-0.259 0.906,-0.827 1.314,-1.218 0.781,-0.329 1.554,-0.71 2.362,-0.982 1.017,-0.342 2.072,-0.569 3.095,-0.894 0.828,-0.263 1.681,-0.514 2.439,-0.925 1.035,-0.557 1.149,-3.178 0.222,-3.855 -0.142,-0.104 -0.38,-0.158 -0.554,-0.126 -2.85,0.529 -5.697,1.074 -8.545,1.617 -0.117,0.023 -0.249,0.107 -0.345,0.076 -1.661,-0.531 -2.875,0.409 -4.225,1.129 -0.974,0.52 -2.134,0.78 -3.241,0.942 -1.528,0.224 -2.901,0.618 -4.004,1.79 -0.31,0.33 -0.858,0.518 -1.328,0.604 -3.172,0.581 -6.41,0.895 -9.516,1.718 -4.892,1.297 -9.775,2.718 -14.512,4.487 -3.432,1.282 -6.675,3.115 -9.885,4.911 -1.084,0.607 -1.858,1.817 -2.685,2.823 -1.636,1.992 -3.243,4.011 -4.801,6.066 -0.804,1.062 -1.445,2.246 -2.218,3.333 -0.895,1.258 -1.753,2.565 -2.805,3.683 -1.922,2.044 -3.994,3.946 -5.967,5.942 -1.858,1.88 -4.156,2.553 -6.711,2.608 -0.438,0.01 -0.888,0.001 -1.312,0.093 -4.336,0.939 -9.13,-4.231 -9.377,-8.191 -0.01,-0.149 0.057,-0.303 0.086,-0.444 2.298,-0.091 3.49,-1.121 4.161,-3.505 0.08,-0.286 0.284,-0.578 0.51,-0.777 2.005,-1.768 2.646,-4.248 3.146,-6.658 0.344,-1.659 -0.2,-3.483 -0.024,-5.201 C 7.8,95.902 7.117,93.93 5.562,92.075 4.046,90.265 3.99,87.99 4.057,85.742 4.133,83.152 4.167,80.56 4.294,77.972 4.632,71.091 5.074,64.213 5.349,57.33 5.516,53.131 5.445,48.923 5.489,44.72 5.539,39.959 5.619,35.198 5.641,30.437 5.652,27.725 5.526,25.011 5.552,22.298 5.574,19.923 5.76,17.549 5.799,15.174 5.818,13.985 5.68,12.793 5.596,11.604 5.401,8.864 5.206,6.125 4.992,3.388 4.831,1.308 4.637,-0.77 4.467,-2.849 4.444,-3.124 4.417,-3.421 4.491,-3.68 5.337,-6.6 4.25,-9.438 4.108,-12.314 4.08,-12.906 3.562,-13.474 3.39,-13.813 3.59,-15.248 3.926,-16.557 3.927,-17.866 3.93,-21.678 3.771,-25.49 3.729,-29.302 3.691,-32.758 3.727,-36.214 3.722,-39.67 3.714,-44.116 3.657,-48.563 3.701,-53.01 c 0.026,-2.545 0.273,-5.087 0.304,-7.631 0.045,-3.656 -0.017,-7.312 -0.029,-10.968 -0.005,-1.349 -10e-4,-2.698 -10e-4,-4.123 -1.432,-0.656 -2.765,-1.24 -4.075,-1.873 -0.965,-0.468 -1.738,-1.049 -1.708,-2.34 0.02,-0.828 -0.274,-1.664 -0.461,-2.68 2.321,0.869 1.859,2.906 2.208,4.513 0.238,-0.091 0.363,-0.11 0.368,-0.146 0.189,-1.347 0.454,-2.439 1.754,-3.447 1.718,-1.331 1.997,-3.316 0.563,-5.784 -1.268,-2.18 -1.355,-4.576 -1.217,-7.034 0.171,-3.055 0.373,-6.127 0.222,-9.175 -0.088,-1.759 -0.872,-3.465 -2.558,-4.493 -0.266,-0.163 -0.477,-0.416 -0.718,-0.632 0.712,-1.564 0.577,-3.091 0.419,-4.691 -0.224,-2.283 -0.151,-4.596 -0.139,-6.896 10e-4,-0.221 0.443,-0.586 0.723,-0.634 2.586,-0.444 4.017,-2.474 3.633,-5.099 -0.077,-0.524 0.044,-1.17 0.303,-1.632 0.962,-1.718 0.666,-4.035 -0.774,-5.363 -0.321,-0.296 -0.664,-0.586 -0.908,-0.94 -0.605,-0.879 -1.351,-1.286 -2.445,-1.043 -0.687,0.153 -0.973,-0.133 -0.97,-0.921 0.019,-4.781 -0.012,-9.563 -0.052,-14.345 -0.03,-3.624 -0.093,-7.247 -0.147,-10.869 -0.066,-4.507 -0.128,-9.013 -0.211,-13.518 -0.106,-5.774 -0.182,-11.549 -0.362,-17.321 -0.203,-6.535 -0.533,-13.066 -0.758,-19.6 -0.138,-3.987 -0.166,-7.976 -0.272,-11.962 -0.035,-1.268 -0.175,-2.532 -0.247,-3.8 -0.089,-1.563 -1.038,-2.82 -2.541,-3.064 -1.449,-0.234 -2.933,-0.449 -4.39,-0.391 -4.185,0.165 -8.367,0.42 -12.541,0.753 -1.415,0.113 -2.83,0.484 -4.188,0.914 -0.44,0.14 -0.885,0.803 -0.999,1.302 -0.186,0.812 -0.07,1.689 -0.146,2.533 -0.031,0.343 -0.223,0.675 -0.36,1.004 -0.072,0.177 -0.268,0.342 -0.262,0.507 0.144,4.09 -0.396,8.183 0.312,12.285 0.335,1.934 0.003,3.982 -0.002,5.978 -0.005,1.937 -0.012,3.875 0.055,5.81 0.021,0.596 0.041,0.963 -0.585,1.345 -3.637,2.214 -4.906,8.048 -2.077,11.118 0.844,0.915 2.057,1.489 3.21,2.297 -0.71,1.48 -0.771,3.318 -0.416,5.215 0.097,0.512 -0.16,1.08 -0.163,1.622 -0.011,1.933 -0.014,3.866 0.039,5.797 0.049,1.757 0.189,3.511 0.261,5.267 0.043,1.05 0.067,2.103 0.038,3.154 -0.14,5.027 -0.376,10.052 -0.43,15.079 -0.045,4.26 0.11,8.522 0.181,12.783 0.031,1.942 0.067,3.884 0.112,5.827 0.024,1.016 0.08,2.033 0.105,3.051 0.092,3.688 0.132,7.379 0.275,11.066 0.141,3.653 0.329,7.306 0.601,10.951 0.186,2.496 0.588,4.975 0.82,7.468 0.141,1.523 0.175,3.06 0.203,4.592 0.075,4.17 0.119,8.34 0.181,12.51 0.035,2.326 0.144,4.652 0.105,6.975 -0.035,2.174 -0.199,4.346 -0.348,6.516 -0.09,1.304 -0.31,2.553 -0.729,3.843 -0.461,1.419 -0.147,3.102 -0.106,4.667 0.048,1.843 0.226,3.683 0.239,5.525 0.018,2.589 -0.065,5.179 -0.106,7.769 -0.001,0.079 0.018,0.188 -0.025,0.235 -1.532,1.683 -0.324,3.544 -0.37,5.326 -0.052,2.006 -0.235,4.009 -0.353,6.013 -0.015,0.234 0.017,0.47 0.024,0.705 0.025,0.924 -0.109,1.676 -1.211,1.998 -1.407,0.41 -2.342,2.393 -1.633,3.6 1.417,2.417 1.59,4.993 1.449,7.695 -0.061,1.178 0.284,2.373 0.374,3.565 0.169,2.262 0.277,4.526 0.435,6.789 0.035,0.502 0.172,0.997 0.276,1.572 -0.405,0.071 -0.825,0.063 -1.164,0.225 -0.366,0.176 -0.869,0.461 -0.944,0.783 -0.452,1.957 -0.888,3.907 -0.646,5.971 0.317,2.703 0.448,5.429 0.648,8.146 0.214,2.883 0.482,5.764 0.599,8.652 0.084,2.051 -0.107,4.111 -0.06,6.164 0.075,3.372 0.277,6.741 0.358,10.113 0.042,1.749 -0.113,3.502 -0.086,5.252 0.067,4.448 0.218,8.895 0.274,13.343 0.024,1.946 -0.124,3.892 -0.155,5.839 -0.064,4.025 -0.066,8.038 0.351,12.062 0.265,2.55 -0.055,5.157 -0.067,7.739 -0.007,1.976 -0.484,3.82 -1.132,5.68 -0.563,1.615 0.472,3.22 2.057,3.96 0.382,0.179 0.801,0.786 0.799,1.195 -0.005,1.694 -0.22,3.387 -0.258,5.082 -0.064,2.856 0.052,5.721 -0.132,8.568 -0.061,0.953 -0.816,1.858 -1.235,2.794 -0.289,0.643 -0.679,1.282 -0.768,1.957 -0.058,0.433 0.334,0.934 0.552,1.393 0.273,0.576 0.71,1.11 0.839,1.713 0.517,2.432 0.458,4.888 0.288,7.366 -0.146,2.131 -0.003,4.281 0.027,6.423 0.019,1.331 -0.5,2.392 -1.541,3.209 -1.416,1.113 -1.537,2.588 -1.166,4.196 0.329,1.421 0.642,2.846 1.019,4.254 0.107,0.401 0.325,0.9 0.648,1.092 1.875,1.115 1.714,3.142 1.568,4.668 -0.272,2.837 -0.338,5.616 -0.046,8.443 0.19,1.836 0.132,3.697 0.173,5.548 0.007,0.277 0.022,0.59 -0.092,0.828 -1.595,3.332 -1.025,6.865 -0.985,10.348 0.033,2.885 0.062,5.772 0.144,8.656 0.055,1.927 0.238,3.85 0.293,5.777 0.036,1.262 -0.121,2.529 -0.075,3.79 0.087,2.374 0.334,4.744 0.372,7.118 0.037,2.275 -0.126,4.552 -0.165,6.829 -0.026,1.503 0.009,3.007 0.023,4.511 0.017,1.814 0.012,3.629 0.068,5.442 0.042,1.344 0.163,2.685 0.256,4.028 0.183,2.651 0.336,5.306 0.568,7.954 0.129,1.463 0.511,2.908 0.579,4.37 0.235,5.004 0.284,10.017 0.59,15.016 0.297,4.854 0.887,9.689 1.227,14.541 0.254,3.627 0.315,7.268 0.465,10.967 -1.358,-0.548 -3.874,0.325 -4.573,1.536 -0.184,0.318 -0.328,0.942 -0.159,1.13 0.808,0.903 0.315,1.861 0.153,2.731 -0.471,2.545 0.326,3.511 2.65,4.094 1.825,0.458 3.79,0.434 5.696,0.476 2.739,0.059 5.496,0.156 8.218,-0.079 3.251,-0.281 6.484,-0.831 9.7,-1.404 1.112,-0.198 1.846,-1.883 1.616,-3.006 -0.172,-0.844 -0.059,-1.829 -0.462,-2.528 -0.884,-1.536 -0.853,-3.696 -2.918,-4.488 -0.188,-0.072 -0.307,-0.555 -0.309,-0.847 -0.02,-3.05 -0.004,-6.099 -0.009,-9.149 -0.002,-1.671 -0.005,-3.343 -0.043,-5.014 -0.081,-3.584 -0.153,-7.169 -0.291,-10.751 -0.123,-3.186 -0.321,-6.369 -0.503,-9.552 -0.328,-5.759 -0.591,-11.522 -1.032,-17.272 -0.305,-3.965 -1.006,-7.901 -1.273,-11.867 -0.254,-3.768 -0.162,-7.558 -0.242,-11.337 -0.076,-3.575 -0.182,-7.148 -0.269,-10.722 -0.095,-3.899 -0.218,-7.798 -0.267,-11.698 -0.041,-3.299 -0.065,-6.602 0.044,-9.898 0.059,-1.819 0.568,-3.627 0.59,-5.443 0.032,-2.744 -0.199,-5.491 -0.29,-8.237 -0.058,-1.745 -0.066,-3.491 -0.099,-5.236 -0.005,-0.24 0.069,-0.574 -0.058,-0.702 -1.581,-1.611 -0.667,-3.623 -0.732,-5.394 -0.145,-3.927 0.165,-7.87 0.221,-11.806 0.032,-2.342 -0.035,-4.687 -0.139,-7.027 -0.018,-0.397 -0.446,-0.777 -0.686,-1.164 -0.201,0.405 -0.551,0.801 -0.579,1.218 -0.151,2.364 -0.322,4.734 -0.302,7.1 0.023,2.921 0.136,5.828 -0.115,8.756 -0.196,2.284 0.11,4.607 0.09,6.911 -0.008,1.02 -0.19,2.059 -0.454,3.046 -0.086,0.321 -0.77,0.786 -1.033,0.705 -1.816,-0.556 -3.6,-1.189 -5.651,-0.389"
             style="fill:#000000;fill-opacity:1;fill-rule:nonzero;stroke:none"
             id="path22"
             inkscape:connector-curvature="0" /></g></g></g></g></svg>