<?xml version="1.0" encoding="UTF-8" standalone="no"?>
<!-- Created with Inkscape (http://www.inkscape.org/) -->

<svg
   xmlns:dc="http://purl.org/dc/elements/1.1/"
   xmlns:cc="http://creativecommons.org/ns#"
   xmlns:rdf="http://www.w3.org/1999/02/22-rdf-syntax-ns#"
   xmlns:svg="http://www.w3.org/2000/svg"
   xmlns="http://www.w3.org/2000/svg"
   xmlns:sodipodi="http://sodipodi.sourceforge.net/DTD/sodipodi-0.dtd"
   xmlns:inkscape="http://www.inkscape.org/namespaces/inkscape"
   version="1.1"
   id="svg2"
   xml:space="preserve"
   width="536.96002"
   height="726.40002"
   viewBox="0 0 536.96002 726.40002"
   sodipodi:docname="Clarinet.svg"
   inkscape:version="0.92.4 (5da689c313, 2019-01-14)"><metadata
     id="metadata8"><rdf:RDF><cc:Work
         rdf:about=""><dc:format>image/svg+xml</dc:format><dc:type
           rdf:resource="http://purl.org/dc/dcmitype/StillImage" /><dc:title></dc:title></cc:Work></rdf:RDF></metadata><defs
     id="defs6"><clipPath
       clipPathUnits="userSpaceOnUse"
       id="clipPath18"><path
         d="M 0,544.8 H 402.72 V 0 H 0 Z"
         id="path16"
         inkscape:connector-curvature="0" /></clipPath></defs><sodipodi:namedview
     pagecolor="#ffffff"
     bordercolor="#666666"
     borderopacity="1"
     objecttolerance="10"
     gridtolerance="10"
     guidetolerance="10"
     inkscape:pageopacity="0"
     inkscape:pageshadow="2"
     inkscape:window-width="640"
     inkscape:window-height="480"
     id="namedview4"
     showgrid="false"
     inkscape:zoom="0.32488986"
     inkscape:cx="-60.862373"
     inkscape:cy="363.20001"
     inkscape:window-x="803"
     inkscape:window-y="117"
     inkscape:window-maximized="0"
     inkscape:current-layer="g10" /><g
     id="g10"
     inkscape:groupmode="layer"
     inkscape:label="Clarinet"
     transform="matrix(1.3333333,0,0,-1.3333333,0,726.4)"><g
       id="g12"><g
         id="g14"
         clip-path="url(#clipPath18)"><g
           id="g20"
           transform="translate(179.3317,279.7686)"><path
             d="M 0,0 C 0.55,0 1.028,-0.055 1.489,0.011 2.588,0.167 3.347,-0.324 3.864,-1.213 4.179,-1.754 4.436,-2.349 4.602,-2.952 4.803,-3.679 5.151,-3.848 5.952,-3.443 5.127,-1.208 3.852,0.539 1.541,1.359 0.051,1.888 -0.165,1.696 0,0 m -108.498,167.66 c -0.512,-1.516 -0.036,-2.223 1.176,-1.902 0.718,0.189 1.421,0.52 2.056,0.909 0.759,0.464 1.114,1.809 0.605,2.315 -0.719,0.713 -1.283,-0.029 -1.854,-0.383 -0.197,-0.123 -0.465,-0.292 -0.503,-0.48 -0.197,-0.973 -0.717,-0.999 -1.48,-0.459 M 92.355,-99.609 c 0.707,-0.503 1.375,-1.303 1.748,-1.183 1.179,0.38 2.285,1.048 3.327,1.745 0.203,0.134 0.077,0.925 -0.075,1.352 -0.062,0.174 -0.671,0.346 -0.898,0.237 -1.258,-0.598 -2.475,-1.284 -4.102,-2.151 M 17.81,-16.104 c 0.078,-0.179 0.156,-0.357 0.233,-0.536 0.943,-0.136 1.675,0.367 2.381,0.93 1.514,1.207 3.015,2.43 4.541,3.624 0.357,0.278 1.053,0.413 0.526,1 -0.192,0.215 -0.963,0.248 -1.182,0.048 -1.331,-1.213 -2.574,-2.526 -3.863,-3.787 -0.207,-0.203 -0.489,-0.342 -0.757,-0.465 -0.62,-0.286 -1.252,-0.544 -1.879,-0.814 M 1.653,-5.052 C 2.624,-5.017 3.698,-4.13 3.614,-3.381 3.517,-2.514 3.5,-1.554 2.19,-1.625 0.771,-1.701 -0.137,-2.324 -0.07,-3.23 0,-4.183 0.851,-5.082 1.653,-5.052 m 4.333,-4.291 c 0.584,0.444 1.285,0.798 1.723,1.356 0.484,0.615 0.346,1.24 -0.577,1.477 -0.15,0.038 -0.179,0.433 -0.328,0.608 C 6.608,-5.673 6.376,-5.393 6.11,-5.321 5.426,-5.138 4.245,-6.136 4.172,-6.888 4.06,-8.065 4.804,-9.075 5.986,-9.343 m -9.517,11.22 c -1.068,0.032 -1.5,-0.414 -1.548,-1.599 -0.037,-0.923 0.716,-1.614 1.8,-1.653 1.282,-0.047 2.314,0.775 2.399,1.909 0.06,0.797 -0.917,1.292 -2.651,1.343 m 65.497,-25.583 c -0.037,0.161 -0.075,0.32 -0.113,0.48 -0.52,0 -1.21,0.217 -1.53,-0.036 -1.668,-1.319 -3.269,-2.726 -4.812,-4.189 -0.203,-0.192 -0.005,-0.905 0.156,-1.318 0.042,-0.106 0.782,-0.136 0.979,0.044 1.801,1.642 3.553,3.339 5.32,5.019 m -95.423,96.904 c -1.272,0.078 -2.219,0.033 -2.476,-1.138 -0.226,-1.03 0.886,-3.038 1.879,-3.518 0.635,-0.307 1.064,-0.315 1.314,0.559 0.177,0.619 0.744,1.117 1.072,1.707 0.185,0.333 0.375,0.762 0.323,1.112 -0.218,1.459 -1.49,1.094 -2.112,1.278 m 90.68,-91.161 c -1.164,1.575 -1.308,1.655 -2.681,0.578 -1.31,-1.028 -2.531,-2.173 -3.727,-3.335 -0.244,-0.237 -0.394,-0.929 -0.234,-1.135 0.227,-0.291 0.793,-0.457 1.197,-0.43 0.451,0.032 0.962,0.246 1.306,0.545 1.393,1.209 2.73,2.482 4.139,3.777 m -14.39,-19.955 c -0.033,0.117 -0.066,0.233 -0.1,0.35 -2.527,0.232 -5.046,0.302 -7.404,-0.876 -0.727,-0.363 -1.415,-0.856 -2.02,-1.402 -0.775,-0.698 -0.605,-1.446 0.125,-2.125 0.799,-0.745 1.129,0.128 1.544,0.478 1.957,1.659 3.912,3.277 6.69,3.259 0.388,-0.003 0.776,0.205 1.165,0.316 M 4.97,7.506 C 4.195,8.737 3.589,9.809 2.877,10.805 2.14,11.837 1.362,12.854 0.487,13.769 -0.288,14.578 -0.29,16.023 -1.755,16.598 -1.017,14.82 -0.434,13.287 0.253,11.801 0.86,10.488 1.565,9.219 2.261,7.949 2.608,7.316 3.031,6.726 3.42,6.116 3.936,6.579 4.452,7.042 4.97,7.506 m -106.071,154.318 c -0.906,0.06 -2.071,-0.87 -2.543,-1.981 -0.453,-1.07 -0.24,-1.642 0.823,-2.072 1.798,-0.729 4.132,0.2 4.302,2.916 0.055,0.86 -0.092,1.43 -1.132,1.286 -0.499,-0.069 -1.003,-0.104 -1.45,-0.149 M -57.586,95.77 c -0.578,-0.983 -1.237,-1.866 -0.637,-2.856 0.556,-0.916 1.571,-1.015 2.568,-0.776 0.573,0.137 1.116,0.432 1.693,0.511 1.136,0.155 1.17,0.877 1.201,1.797 0.053,1.596 -1.069,1.98 -2.211,2.391 -0.273,0.098 -0.575,0.115 -0.863,0.169 -0.026,-0.334 -0.106,-0.676 -0.061,-1.001 0.052,-0.38 0.213,-0.746 0.328,-1.118 -0.466,0.147 -0.936,0.278 -1.394,0.446 -0.174,0.065 -0.316,0.216 -0.624,0.437 M -4.704,18.854 c -0.098,-0.1 -0.197,-0.199 -0.296,-0.299 0.321,-0.664 0.679,-1.313 0.957,-1.994 1.4,-3.435 1.957,-7.052 2.263,-10.72 0.053,-0.633 0.059,-1.282 0.218,-1.889 0.067,-0.258 0.557,-0.647 0.707,-0.59 0.291,0.112 0.689,0.509 0.674,0.765 -0.113,1.853 -0.167,3.731 -0.539,5.54 -0.324,1.574 -1.014,3.077 -1.589,4.593 -0.516,1.364 -1.074,2.714 -1.668,4.046 -0.108,0.242 -0.478,0.368 -0.727,0.548 M -20.586,39.01 c 0.083,-0.137 0.123,-0.266 0.209,-0.336 1.625,-1.326 3.244,-2.662 4.901,-3.947 0.205,-0.159 0.67,-0.149 0.932,-0.032 0.419,0.188 0.768,0.532 1.188,0.839 -0.649,0.838 -1.087,1.446 -1.571,2.017 -0.961,1.134 -1.926,2.268 -2.934,3.36 -0.451,0.488 -0.968,0.716 -1.437,-0.083 -0.359,-0.61 -0.817,-1.161 -1.288,-1.818 m 10.571,-8.808 c -0.814,-0.59 -1.632,-1.086 -2.312,-1.728 -0.244,-0.231 -0.366,-0.989 -0.184,-1.208 0.948,-1.142 1.99,-2.211 3.058,-3.243 0.146,-0.14 0.723,-0.047 0.933,0.133 0.563,0.481 1.034,1.068 1.547,1.618 -1.009,1.47 -2.025,2.948 -3.042,4.428 m -20.043,26.38 c 0.261,-0.381 0.43,-0.882 0.738,-0.993 0.229,-0.082 0.664,0.314 0.962,0.553 0.277,0.222 0.456,0.572 0.743,0.774 1.721,1.206 3.475,2.365 5.177,3.597 0.273,0.198 0.566,0.839 0.452,1.012 -0.296,0.449 -0.769,0.935 -1.257,1.054 -0.413,0.101 -1.047,-0.175 -1.408,-0.487 -1.65,-1.425 -3.25,-2.91 -4.836,-4.406 -0.254,-0.24 -0.345,-0.653 -0.571,-1.104 M 86.299,-78.851 c 0.539,0.298 1.364,0.709 2.139,1.196 0.832,0.523 0.858,1.218 0.391,2.057 -0.812,1.46 -2.211,1.516 -3.607,1.64 -1.41,0.125 -2.38,-0.843 -2.222,-2.236 0.201,-1.782 1.012,-2.508 3.299,-2.657 M 1.413,26.37 c -0.973,1.948 -0.986,1.808 -2.66,0.977 -1.371,-0.681 -2.614,-1.644 -3.849,-2.569 -0.874,-0.654 -1.638,-1.453 -2.407,-2.148 0.375,-0.581 0.657,-0.966 0.884,-1.38 0.502,-0.917 0.792,-0.931 1.566,-0.145 0.92,0.934 1.826,1.896 2.843,2.717 1.127,0.912 2.373,1.679 3.623,2.548 m 22.983,-53.429 c -0.029,-0.114 -0.056,-0.229 -0.084,-0.343 0.801,-1.258 1.626,-2.501 2.4,-3.775 1.543,-2.543 3.055,-5.107 4.589,-7.656 0.409,-0.679 0.814,-0.512 1.154,0.071 0.521,0.894 0.153,1.689 -0.33,2.445 -1.209,1.889 -2.402,3.789 -3.668,5.639 -0.71,1.038 -1.483,2.053 -2.365,2.943 -0.392,0.397 -1.12,0.461 -1.696,0.676 M -31.202,79.596 c 1.614,-0.073 2.287,0.633 2.421,2.535 0.075,1.07 -1.95,3.369 -3.05,3.462 -0.964,0.082 -2.629,-1.571 -2.702,-2.683 -0.114,-1.717 1.404,-3.226 3.331,-3.314 m 17.75,-49.752 c 0.451,0.324 0.847,0.564 1.191,0.863 1.951,1.695 3.885,3.41 5.837,5.103 0.435,0.377 1.167,0.607 0.549,1.374 -0.502,0.622 -0.955,1.332 -1.944,0.64 -1.302,-0.911 -2.66,-1.74 -3.98,-2.626 -2.314,-1.553 -2.804,-3 -1.653,-5.354 m 10.243,7.815 c 1.495,-0.051 2.691,0.81 3.236,2.12 0.535,1.286 -0.345,2.566 -1.339,3.392 -0.252,0.21 -0.758,0.251 -1.109,0.18 -0.805,-0.166 -1.576,-0.494 -2.38,-0.673 -1.023,-0.227 -1.312,-1.001 -1.364,-1.847 -0.127,-2.049 0.895,-3.102 2.956,-3.172 M -14.02,48.142 c -0.713,0.264 -0.445,1.638 -1.575,1.087 -1.533,-0.749 -3.007,-1.63 -4.454,-2.537 -0.354,-0.222 -0.441,-0.836 -0.769,-1.143 -0.649,-0.607 -1.418,-1.088 -2.058,-1.703 -0.212,-0.204 -0.285,-0.678 -0.234,-0.999 0.06,-0.377 0.334,-0.718 0.496,-1.082 0.557,-1.25 1.024,-1.341 1.911,-0.337 0.854,0.966 1.63,2.008 2.541,2.915 1.252,1.244 2.599,2.393 4.142,3.799 M 55.499,-65.583 c 0.639,-1.318 1.139,-2.255 1.55,-3.231 0.279,-0.664 0.715,-0.803 1.326,-0.605 2.292,0.74 4.579,1.492 6.874,2.242 -1.129,2.414 -1.129,2.412 -3.728,2.181 -0.196,-0.017 -0.399,0.039 -0.595,0.018 -1.755,-0.189 -3.509,-0.39 -5.427,-0.605 m 3.48,19.245 c -0.11,0.051 -0.218,0.104 -0.327,0.157 0.159,1.407 -0.525,2.237 -1.829,2.517 -0.795,0.171 -1.695,-0.003 -2.425,0.288 -1.051,0.419 -1.519,-0.086 -1.901,-0.842 -0.809,-1.605 -0.084,-4.074 1.369,-5.156 1.197,-0.891 2.43,-0.571 3.313,0.181 0.816,0.696 1.216,1.883 1.8,2.855 M 29.967,-4.726 c -1.314,-0.023 -3.225,-1.176 -3.488,-2.315 -0.35,-1.515 -0.208,-3.111 0.78,-4.322 0.443,-0.543 1.655,-0.963 2.286,-0.75 1.636,0.553 2.681,1.869 3.054,3.617 0.349,1.639 -1.165,3.797 -2.632,3.77 M 1.38,31.013 C 1.337,28.67 2.555,27.08 4.69,26.63 c 0.361,-0.076 0.867,-0.049 1.139,0.153 0.71,0.529 1.303,1.212 1.987,1.779 0.822,0.684 0.834,2.127 0.19,3.155 -0.784,1.251 -1.712,1.757 -2.92,1.497 C 4.387,33.063 3.704,32.783 2.999,32.721 1.812,32.617 1.244,32.081 1.38,31.013 m -15.292,21.325 c -0.115,-3.268 1.833,-4.815 4.712,-3.925 1.548,0.479 2.755,2.496 2.245,3.753 -0.803,1.979 -2.51,2.932 -4.601,2.403 -0.59,-0.149 -1.106,-0.696 -1.586,-1.137 -0.321,-0.295 -0.518,-0.724 -0.77,-1.094 m 48.962,-96.05 c 1.251,-2.782 2.399,-5.351 3.561,-7.914 0.459,-1.013 0.897,-2.041 1.438,-3.01 0.471,-0.844 1.332,-0.783 2.127,-0.601 0.221,0.051 0.555,0.427 0.532,0.617 -0.342,2.81 -1.696,5.185 -3.225,7.501 -0.583,0.885 -1.296,1.898 -1.334,2.875 -0.048,1.282 -0.705,1.705 -1.669,2.215 -0.536,-0.631 -1.046,-1.232 -1.43,-1.683 m 7.568,9.245 c 0.18,-1.304 0.732,-2.769 2.225,-3.537 0.563,-0.29 1.433,-0.161 2.11,10e-4 0.502,0.12 0.92,0.597 1.371,0.921 0.949,0.681 1.733,3.169 1.288,4.22 -0.608,1.436 -1.932,2.834 -4.035,2.362 -1.234,-0.277 -2.946,-2.333 -2.959,-3.967 m 19.414,-28.7 c 0.058,0.142 0.114,0.285 0.172,0.427 -0.555,0.761 -1.005,1.653 -1.716,2.217 -0.281,0.224 -1.137,-0.29 -1.737,-0.448 -0.189,-0.051 -0.398,-0.023 -0.594,-0.057 -0.975,-0.169 -1.969,-0.274 -2.921,-0.536 -1.601,-0.439 -2.988,-1.54 -4.804,-1.367 -0.95,0.091 -1.939,-0.11 -2.896,-0.263 -0.58,-0.094 -1.359,-0.184 -1.647,-0.573 -0.419,-0.566 -0.663,-1.405 -0.64,-2.117 0.029,-0.863 0.875,-0.814 1.497,-0.702 1.642,0.292 3.426,0.34 4.872,1.054 2.558,1.263 5.178,2.074 7.985,2.353 0.802,0.079 1.619,0.012 2.429,0.012 m 34.31,-29.443 c 0.099,-0.341 0.166,-0.696 0.304,-1.019 0.755,-1.754 1.474,-3.527 2.31,-5.241 0.842,-1.725 2.05,-3.137 3.956,-3.779 1.157,-0.39 2.197,-0.074 3.095,0.655 0.207,0.168 0.321,0.746 0.193,0.979 -0.534,0.969 -1.154,1.893 -1.783,2.806 -1.817,2.633 -3.64,5.264 -5.508,7.861 -0.173,0.24 -0.815,0.438 -1.017,0.308 -0.903,-0.577 -1.582,-1.36 -1.55,-2.57 M 30.179,10.026 c -1.38,1.899 -1.638,1.986 -3.709,0.875 C 25.497,10.378 24.575,9.754 23.658,9.135 21.023,7.358 18.405,5.557 15.777,3.77 14.078,2.614 13.005,0.95 12.087,-0.826 c -0.108,-0.211 -0.011,-0.626 0.135,-0.854 0.44,-0.687 0.952,-1.327 1.432,-1.981 4.443,5.876 10.01,10.353 16.525,13.687 m 0.783,-27.552 0.284,-0.129 c -0.1,-1.649 0.501,-3.023 1.573,-4.244 1.149,-1.307 2.493,-1.824 3.922,-1.209 1.681,0.725 3.038,1.859 3.403,3.786 0.122,0.648 -0.031,1.346 0.084,1.996 0.231,1.316 -0.612,2.192 -1.296,3.045 -0.291,0.363 -1.195,0.487 -1.725,0.352 -1.034,-0.265 -1.995,-0.804 -3.002,-1.189 -0.178,-0.068 -0.527,-0.018 -0.633,0.112 -0.534,0.659 -1.087,0.348 -1.386,-0.098 -0.501,-0.745 -0.826,-1.608 -1.224,-2.422 m -134.4,187.431 c 1.126,2.836 3.196,4.697 5.157,6.639 2.049,2.029 4.512,3.011 7.617,2.764 -0.753,1.088 -1.34,2.087 -2.088,2.945 -0.297,0.341 -1.052,0.638 -1.424,0.497 -1.701,-0.648 -3.447,-1.291 -4.974,-2.255 -1.903,-1.201 -3.761,-2.562 -5.348,-4.145 -1.256,-1.253 -2.754,-2.444 -3.201,-4.368 -0.22,-0.945 0.144,-1.578 1.026,-1.255 1.277,0.467 2.297,0.318 3.235,-0.822 m 205.507,-298.7 c 0.108,0.045 0.215,0.091 0.324,0.137 -0.617,1.448 -1.112,2.964 -1.892,4.316 -0.508,0.878 -1.511,1.454 -2.154,2.273 -1.464,1.865 -2.444,1.693 -4.349,0.256 -0.88,-0.663 -1.803,-1.607 -1.571,-2.903 0.592,-3.309 2.451,-5.633 5.619,-6.868 2.389,-0.931 4.057,-0.377 4.023,2.789 M -29.31,65.966 c 0.637,0.739 1.085,1.332 1.608,1.849 0.722,0.714 1.395,1.589 2.273,2.007 2.011,0.957 4.029,1.845 5.75,3.31 0.504,0.429 0.61,0.71 0.286,1.278 -1.268,2.222 -2.47,4.481 -3.751,6.694 -1.143,1.978 -2.296,3.955 -3.562,5.854 -1.049,1.576 -2.578,1.307 -3.399,-0.511 0.81,-0.744 1.795,-1.373 2.401,-2.26 1.747,-2.562 3.353,-5.22 4.987,-7.857 0.425,-0.688 0.6,-1.47 -0.266,-1.962 -1.07,-0.608 -2.176,-1.166 -3.309,-1.647 -1.859,-0.789 -3.56,-1.751 -4.52,-3.626 -0.15,-0.293 -0.226,-0.789 -0.078,-1.038 0.398,-0.671 0.935,-1.259 1.58,-2.091 m -74.677,99.02 c 0.749,-1.097 1.546,-1.831 3.28,-1.199 1.786,0.65 3.4,-0.598 3.674,-2.431 0.106,-0.71 0.017,-1.448 0.017,-2.173 0.167,-0.121 0.334,-0.242 0.501,-0.363 0.229,0.404 0.4,0.859 0.698,1.204 1.864,2.155 3.886,4.161 6.374,5.585 1.823,1.044 3.736,1.937 5.633,2.848 0.756,0.363 0.98,0.757 0.416,1.452 -1.443,1.775 -2.879,3.556 -4.326,5.329 -0.024,0.03 -0.142,-0.019 -0.298,-0.044 0.035,-0.187 0.106,-0.371 0.095,-0.551 -0.058,-0.921 0.186,-2.062 -0.265,-2.725 -2.199,-3.232 -5.191,-5.619 -8.705,-7.325 -1.445,-0.702 -3.373,-0.21 -4.381,1.008 -0.491,0.592 -0.995,1.173 -1.604,1.892 -0.41,-0.925 -0.724,-1.636 -1.109,-2.507 M 74.607,-87.402 c -0.077,0.037 -0.153,0.075 -0.23,0.113 -0.07,0.493 -0.005,1.065 -0.237,1.461 -0.652,1.113 -1.295,2.284 -2.194,3.18 -0.736,0.735 -1.777,1.299 -2.784,1.597 -1.302,0.384 -2.575,0.14 -3.869,-0.582 -1.573,-0.879 -1.827,-1.192 -1.797,-2.94 0.07,-4.02 4.994,-6.547 8,-6.94 0.612,-0.08 1.601,0.367 1.917,0.879 0.591,0.959 0.816,2.142 1.194,3.232 M -47.295,124.244 c -0.404,1.879 -1.873,3.116 -3.595,3.195 -1.983,0.091 -3.801,-0.467 -5.69,-1.02 -2.3,-0.673 -4.281,-1.86 -6.175,-3.149 -2.86,-1.947 -4.425,-5.049 -6.231,-7.897 -0.132,-0.206 -0.085,-0.698 0.077,-0.888 0.559,-0.654 1.176,-1.269 1.836,-1.821 0.221,-0.185 0.824,-0.294 0.936,-0.165 0.772,0.896 1.753,1.765 2.112,2.83 0.699,2.078 2.064,3.562 3.699,4.79 1.541,1.157 3.228,2.167 4.968,2.999 1.922,0.919 3.922,1.801 6.178,1.403 0.611,-0.108 1.228,-0.182 1.885,-0.277 m -50.887,41.797 c 0.369,0.124 0.761,0.206 1.106,0.378 2.359,1.179 4.504,2.682 6.272,4.634 1.831,2.023 1.914,3.487 0.483,5.528 -0.276,0.394 -0.817,0.938 -1.164,0.89 -1.536,-0.211 -3.32,-0.217 -4.501,-1.036 -1.962,-1.36 -3.607,-3.217 -5.236,-5.001 -1.097,-1.202 -1.045,-2.387 -0.124,-3.582 0.78,-1.011 1.75,-1.764 3.164,-1.811 M 69.188,-73.075 c -0.91,1.438 -1.77,2.846 -2.695,4.211 -0.141,0.21 -0.621,0.38 -0.861,0.305 -2.268,-0.715 -4.496,-1.561 -6.778,-2.226 -3.367,-0.981 -6.609,-2.234 -9.682,-3.931 -1.136,-0.627 -1.611,-1.491 -1.161,-2.234 0.453,-0.748 0.91,-1.493 1.356,-2.245 0.956,-1.611 2.68,-1.748 3.859,-0.349 0.753,0.893 1.503,1.823 2.404,2.554 2.76,2.243 5.777,3.943 9.491,3.917 1.298,-0.009 2.596,-0.002 4.067,-0.002 M -91.858,149.136 c 0.031,-0.379 -0.009,-0.57 0.066,-0.689 0.658,-1.042 1.321,-2.082 2.034,-3.087 0.062,-0.086 0.598,0 0.735,0.16 0.636,0.745 1.246,1.52 1.798,2.329 1.482,2.17 3.614,3.602 5.839,4.797 2.23,1.199 4.653,2.04 6.999,3.018 0.977,0.408 1.042,0.664 0.318,1.4 -0.906,0.922 -1.764,1.893 -2.706,2.775 -0.316,0.296 -0.881,0.618 -1.237,0.532 -1.408,-0.339 -2.812,-0.754 -4.15,-1.303 -0.831,-0.341 -1.595,-0.909 -2.294,-1.489 -1.339,-1.114 -2.659,-2.259 -3.892,-3.487 -0.806,-0.803 -1.486,-1.746 -2.147,-2.68 -0.541,-0.766 -0.97,-1.612 -1.363,-2.276 m 10.093,18.309 c -1.144,-0.556 -2.111,-1.276 -3.184,-1.502 -3.761,-0.791 -6.259,-3.505 -8.973,-5.816 -1.223,-1.04 -1.937,-2.679 -2.9,-4.072 1.278,-1.84 2.576,-3.709 3.932,-5.662 3.428,5.416 7.593,9.711 13.51,12.057 -0.842,1.762 -1.64,3.434 -2.385,4.995 m 210.393,-300.43 c -0.477,0.626 -0.795,0.982 -1.044,1.381 -0.844,1.35 -1.669,2.71 -2.487,4.075 -0.349,0.581 -1.044,0.93 -1.28,0.3 -0.361,-0.968 -1.27,-1.103 -1.816,-1.718 -1.173,-1.321 -2.171,-2.76 -3.765,-3.721 -1.382,-0.834 -2.523,-2.068 -3.759,-3.138 -1.938,-1.675 -4.736,-2.409 -5.612,-5.123 -0.525,0.142 -1.016,0.277 -1.508,0.411 -0.045,-0.11 -0.09,-0.221 -0.135,-0.331 1.011,-1.611 2.034,-3.217 3.032,-4.837 0.666,-1.082 1.205,-1.273 2.381,-0.761 2.735,1.191 4.931,3.135 7.096,5.114 1.523,1.393 3.021,2.811 4.525,4.223 1.463,1.374 2.92,2.754 4.372,4.125 m -20.752,8.45 c -1.311,1.19 -1.636,2.832 -2.764,4.125 -2.318,2.659 -4.237,5.671 -6.255,8.583 -0.81,1.17 -1.408,2.486 -2.172,3.691 -1.207,1.903 -2.492,3.759 -3.71,5.654 -0.998,1.552 -1.92,3.152 -2.928,4.697 -1.027,1.574 -2.138,3.09 -3.174,4.657 -1.621,2.45 -3.21,4.92 -4.812,7.382 -1.059,1.626 -2.105,3.261 -3.181,4.877 -0.816,1.225 -1.651,2.438 -2.513,3.631 -0.389,0.539 -0.906,0.988 -1.288,1.53 -0.614,0.872 -1.121,1.82 -1.752,2.678 -1.271,1.734 -2.738,3.339 -3.867,5.157 -1.896,3.055 -3.582,6.239 -5.376,9.357 -0.215,0.372 -0.501,0.738 -0.838,0.999 -0.861,0.666 -1.61,0.01 -2.283,-0.398 -0.154,-0.093 -0.04,-0.975 0.201,-1.321 2.475,-3.55 4.99,-7.071 7.518,-10.585 1.062,-1.475 2.258,-2.859 3.256,-4.376 1.635,-2.489 3.065,-5.117 4.749,-7.571 2.518,-3.668 5.203,-7.22 7.77,-10.854 0.865,-1.224 1.631,-2.525 2.371,-3.832 1.033,-1.822 1.891,-3.752 3.018,-5.511 2.276,-3.553 4.505,-7.16 7.096,-10.478 1.9,-2.432 2.092,-6.058 5.314,-7.522 -0.314,-1.428 0.932,-2.095 1.411,-3.111 0.989,-2.098 1.809,-2.677 4.209,-1.459 m 27.578,-81.795 c 2.515,0.295 5.275,0.643 8.042,0.938 3.307,0.352 6.249,1.821 9.209,3.136 1.518,0.673 2.718,2.032 4.13,2.978 2.99,2.005 5.577,4.38 7.399,7.526 1.585,2.736 3.242,5.432 4.777,8.197 1.257,2.262 1.782,4.728 1.658,7.326 -0.014,0.293 0.12,0.594 0.104,0.886 -0.025,0.458 0.014,1.014 -0.231,1.328 -0.152,0.195 -0.916,0.182 -1.167,-0.026 -0.563,-0.465 -1.093,-1.05 -1.427,-1.695 -0.803,-1.549 -1.418,-3.196 -2.233,-4.737 -1.411,-2.67 -2.885,-5.308 -4.395,-7.923 -1.145,-1.984 -2.688,-3.655 -4.571,-4.952 -2.125,-1.465 -4.304,-2.857 -6.505,-4.205 -1.693,-1.038 -3.416,-2.045 -5.198,-2.915 -2.737,-1.338 -5.749,-1.525 -8.723,-1.757 -1.197,-0.094 -2.461,-0.139 -3.608,0.142 -1.165,0.286 -1.653,0.155 -1.694,-1.061 -0.016,-0.479 -0.174,-1.022 -10e-4,-1.42 0.221,-0.513 0.634,-1.159 1.101,-1.303 0.971,-0.298 2.03,-0.302 3.333,-0.463 M 41.312,-20.647 c -0.981,-1.233 -1.726,-2.284 -2.587,-3.228 -1.213,-1.33 -3.61,-1.737 -4.899,-0.824 -0.589,0.417 -1,1.078 -1.522,1.599 -1.916,1.913 -1.964,4.444 -2.072,6.853 -0.09,2.038 1.69,3.156 3.786,2.777 0.375,-0.068 0.804,0.168 1.209,0.264 -0.135,0.324 -0.247,0.659 -0.41,0.967 -0.166,0.316 -0.335,0.656 -0.589,0.893 -0.314,0.291 -0.717,0.485 -1.19,0.791 -0.153,-1.171 -2.015,-3.539 -2.781,-3.531 -1.003,0.009 -2.079,0.128 -2.981,0.524 -0.686,0.303 -1.117,0.388 -1.713,-0.053 -1.081,-0.8 -2.227,-1.513 -3.296,-2.328 -0.66,-0.502 -1.227,-1.126 -1.854,-1.713 0.473,-0.357 0.88,-0.554 1.131,-0.874 1.642,-2.088 3.271,-4.186 4.851,-6.323 0.317,-0.43 0.399,-1.034 0.589,-1.558 0.455,-0.362 0.851,-0.964 1.241,-1.57 1.74,-2.711 3.49,-5.415 5.208,-8.14 0.391,-0.62 0.771,-0.636 1.482,-0.492 1.983,0.404 3.843,1.621 6.022,0.931 0.725,-0.23 1.123,0.174 0.962,1.005 -0.347,1.809 0.268,3.155 1.958,3.982 0.226,0.111 0.479,0.342 0.544,0.568 0.319,1.107 1.171,1.177 2.086,1.15 0.282,-0.008 0.561,-0.063 1.171,-0.136 -2.25,3.001 -4.294,5.728 -6.346,8.466 m 20.896,-54.886 c 0.965,-1.262 1.735,-2.359 2.614,-3.361 0.227,-0.259 0.812,-0.356 1.199,-0.298 1.847,0.276 3.471,-0.151 5.174,-0.954 3.711,-1.747 5.509,-7.759 3.71,-10.955 -0.372,-0.66 -0.26,-1.122 0.181,-1.719 2.151,-2.908 4.297,-5.823 6.342,-8.806 1.169,-1.706 2.068,-3.595 3.22,-5.314 2.128,-3.173 4.325,-6.302 6.553,-9.405 0.808,-1.124 1.79,-2.121 2.818,-3.322 0.492,1.661 0.777,1.858 1.937,1.209 1.063,-0.593 1.999,-1.409 3.009,-2.1 0.298,-0.204 0.658,-0.319 0.99,-0.476 0.083,0.114 0.167,0.228 0.25,0.341 -0.348,0.45 -0.751,0.869 -1.031,1.359 -0.628,1.095 -1.129,2.266 -1.799,3.333 -1.166,1.856 -2.461,3.632 -3.625,5.49 -1.033,1.649 -1.911,3.395 -2.952,5.04 -1.065,1.681 -2.322,3.243 -3.353,4.943 -1.375,2.268 -2.601,4.625 -3.912,6.932 -0.641,1.127 -1.269,2.269 -2.009,3.332 -1.983,2.847 -4.036,5.645 -6.036,8.481 -1.195,1.696 -2.397,3.392 -3.493,5.153 -0.565,0.907 -1.429,0.988 -2.281,1.201 -0.374,0.094 -0.761,0.135 -1.142,0.202 -2.014,0.352 -4.014,0.375 -6.364,-0.306 M -95.153,184.814 c -0.608,0.665 -1.35,1.476 -2.092,2.288 -0.511,0.56 -1.04,1.105 -1.524,1.687 -0.246,0.296 -0.358,0.71 -0.618,0.988 -2.091,2.238 -4.2,4.457 -6.307,6.679 -2.066,2.18 -5.476,2.902 -8.178,1.605 -0.937,-0.451 -1.768,-1.163 -2.57,-1.845 -2.232,-1.898 -2.874,-4.611 -1.676,-7.27 0.621,-1.381 1.365,-2.712 1.912,-4.121 1.559,-4.016 4.451,-7.202 6.632,-10.829 0.261,-0.434 0.678,-0.85 1.103,-0.217 0.873,1.301 1.726,2.544 3.099,3.454 1.011,0.67 1.691,1.823 2.584,2.693 0.445,0.433 1.03,0.728 1.563,1.066 1.996,1.263 3.998,2.518 6.072,3.822 m 197.66,-309.549 c -0.141,-0.323 -0.218,-0.413 -0.197,-0.463 0.786,-1.864 1.024,-3.804 0.842,-5.81 -0.015,-0.178 0.066,-0.399 0.174,-0.547 1.337,-1.839 2.696,-3.661 4.029,-5.502 0.412,-0.568 0.752,-0.629 1.375,-0.205 1.343,0.914 2.854,1.594 4.139,2.574 2.452,1.87 5.11,3.477 7.132,5.907 1.735,2.086 1.917,2.833 0.509,5.009 -2.586,3.993 -5.186,7.977 -7.731,11.995 -1.592,2.512 -3.113,5.069 -4.623,7.631 -0.433,0.735 -0.733,0.848 -1.442,0.252 -1.592,-1.337 -3.639,-1.279 -5.293,-0.097 -1.293,0.923 -2.271,2.042 -2.852,3.533 -0.064,0.166 -0.709,0.322 -0.862,0.201 -0.959,-0.753 -1.854,-1.587 -2.769,-2.393 0.006,-0.083 -0.016,-0.179 0.021,-0.237 2.392,-3.711 4.718,-7.468 7.206,-11.114 2.184,-3.201 4.591,-6.249 6.793,-9.437 0.36,-0.522 0.967,-1.459 -0.113,-2.14 -0.706,-0.444 -1.385,-0.949 -2.015,-1.497 -0.734,-0.638 -1.269,-0.717 -1.958,0.135 -0.647,0.8 -1.511,1.425 -2.365,2.205 M -50.965,129.624 c -0.258,0.488 -0.386,0.87 -0.625,1.162 -1.173,1.436 -2.419,2.814 -3.556,4.277 -1.72,2.214 -3.347,4.5 -5.059,6.722 -2.099,2.724 -4.209,5.442 -6.388,8.103 -0.826,1.009 -1.561,2.318 -3.258,2.037 -0.162,-0.026 -0.444,0.206 -0.55,0.389 -0.848,1.453 -1.737,1.984 -3.607,1.293 -3.067,-1.131 -6.379,-1.6 -8.872,-4.012 -1.59,-1.539 -3.315,-2.942 -4.862,-4.52 -0.803,-0.82 -0.98,-1.876 -0.114,-2.905 0.615,-0.732 1.16,-1.524 1.714,-2.304 3.199,-4.501 6.41,-8.992 9.57,-13.518 0.723,-1.036 1.187,-2.253 1.91,-3.289 1.349,-1.932 2.82,-3.779 4.2,-5.691 0.4,-0.555 0.745,-0.788 1.136,-0.089 0.369,0.659 0.615,1.387 0.963,2.06 1.521,2.943 3.822,5.302 6.632,6.829 3.248,1.766 6.681,3.392 10.766,3.456 m 164.76,-277.817 c 0.74,-1.053 1.605,-2.092 2.26,-3.251 1.915,-3.39 3.817,-6.792 5.579,-10.264 0.933,-1.837 1.543,-3.837 2.34,-5.747 1.461,-3.499 3.193,-6.905 4.369,-10.495 1.411,-4.311 2.464,-8.751 3.464,-13.181 0.542,-2.4 0.674,-4.895 0.945,-7.352 0.168,-1.533 0.523,-1.973 2.074,-1.991 0.991,-0.011 1.985,0.147 2.976,0.244 3.412,0.331 6.672,1.143 9.581,3.054 2.357,1.549 4.639,3.231 7.096,4.603 3.047,1.703 5.099,4.237 6.8,7.16 0.158,0.272 0.391,0.502 0.537,0.779 1.124,2.122 2.263,4.237 3.339,6.384 0.516,1.029 0.884,2.13 1.357,3.182 0.285,0.632 0.514,1.219 -0.289,1.625 -1.556,0.786 -3.134,1.53 -4.675,2.346 -1.708,0.903 -3.549,1.66 -5.039,2.848 -3.089,2.464 -6.005,5.149 -8.951,7.789 -1.533,1.373 -3.011,2.81 -4.45,4.281 -0.936,0.958 -1.715,2.066 -2.636,3.04 -1.403,1.481 -3.092,2.744 -4.26,4.385 -2.862,4.02 -5.496,8.204 -8.308,12.451 -4.495,-4.134 -8.692,-8.601 -14.109,-11.89 M -23.845,45.468 c 2.302,1.332 2.383,1.687 0.859,3.562 -0.125,0.154 -0.267,0.296 -0.38,0.458 -0.98,1.416 -1.919,2.863 -2.95,4.241 -0.381,0.508 -0.82,1.305 -1.647,0.282 -0.66,-0.815 -1.474,-0.614 -2.283,0.223 -1.038,1.072 -0.901,2.437 -1.046,3.731 -0.023,0.212 0.229,0.498 0.418,0.682 1.021,0.99 2.024,2.003 3.107,2.921 1.191,1.011 2.425,1.979 3.71,2.866 0.9,0.622 1.814,0.365 2.39,-0.531 0.53,-0.823 1.079,-1.712 1.271,-2.644 0.108,-0.527 -0.375,-1.293 -0.794,-1.777 -0.426,-0.493 -1.107,-0.761 -1.664,-1.147 -1.128,-0.783 -2.248,-1.579 -3.321,-2.335 1.432,-2.164 2.763,-4.158 4.074,-6.165 0.615,-0.939 1.362,-1.149 2.309,-0.645 0.981,0.522 1.937,1.162 2.987,1.468 1.107,0.323 1.558,0.829 1.512,1.983 -0.049,1.22 2.627,3.521 4.031,3.634 3.636,0.294 5.725,-2.919 5.963,-5.656 0.155,-1.787 -3.034,-4.819 -5.826,-4.471 -2.792,0.348 -4.263,-1.494 -5.974,-3.025 -0.167,-0.149 -0.19,-0.748 -0.036,-0.922 1.591,-1.8 3.232,-3.555 4.781,-5.238 1.75,1.13 3.36,2.169 5.056,3.264 0,0.239 -0.011,0.677 0.002,1.114 0.08,2.794 4.515,4.633 6.157,3.555 1.457,-0.957 2.361,-2.259 2.83,-3.868 0.548,-1.873 -0.938,-4.227 -2.846,-4.688 -0.801,-0.194 -1.715,-0.257 -2.357,-0.699 -1.695,-1.167 -3.248,-2.538 -4.903,-3.766 -0.589,-0.438 -0.666,-0.839 -0.282,-1.399 0.696,-1.017 1.47,-1.989 2.073,-3.058 0.584,-1.035 1.227,-0.777 1.952,-0.295 1.388,0.92 2.782,1.833 4.132,2.806 0.249,0.18 0.347,0.622 0.434,0.964 0.229,0.899 0.145,2.357 0.668,2.614 1.571,0.774 3.35,1.3 5.094,1.478 0.843,0.086 1.906,-0.677 2.664,-1.304 2.278,-1.883 2.192,-5.446 0.124,-7.516 C 7.285,25.004 5.825,24.733 4.244,24.851 3.576,24.901 2.739,25.139 2.262,24.839 0.756,23.893 -0.61,22.726 -2.04,21.658 -2.72,21.15 -2.6,20.569 -2.195,19.997 c 1.63,-2.304 3.27,-4.6 4.923,-6.887 1.07,-1.482 2.269,-2.881 3.226,-4.431 0.957,-1.55 1.62,-3.278 2.534,-4.858 0.74,-1.278 1.661,-2.45 2.566,-3.764 0.264,0.324 0.403,0.46 0.5,0.621 0.614,1.025 1.009,2.305 1.869,3.038 2.4,2.046 4.944,3.934 7.524,5.752 2.193,1.547 4.515,2.909 6.874,4.413 -0.701,0.908 -1.344,1.699 -1.941,2.523 -1.203,1.66 -2.514,3.26 -3.541,5.023 -2.434,4.18 -4.702,8.457 -7.095,12.661 -0.702,1.232 -1.589,2.358 -2.407,3.521 -1.438,2.046 -2.936,4.053 -4.319,6.136 -1.043,1.571 -1.917,3.254 -2.923,4.852 -0.85,1.351 -1.801,2.639 -2.674,3.976 -1.898,2.906 -3.759,5.835 -5.669,8.732 -0.539,0.818 -1.162,1.586 -1.805,2.325 -0.48,0.551 -1.167,0.944 -1.569,1.538 -2.208,3.265 -4.339,6.581 -6.529,9.858 -3.069,4.594 -6.161,9.172 -9.253,13.75 -1.13,1.673 -2.268,3.341 -3.436,4.986 -0.959,1.35 -2.001,2.642 -2.947,4 -1.333,1.912 -2.618,3.857 -3.911,5.797 -1.376,2.064 -2.729,4.143 -4.105,6.207 -1.398,2.096 -2.782,4.202 -4.227,6.265 -1.249,1.783 -2.513,3.562 -3.895,5.241 -0.526,0.638 -1.065,1.844 -2.349,0.893 -0.222,-0.164 -0.71,-0.055 -1.045,0.037 -1.785,0.491 -3.544,0.472 -5.231,-0.318 -1.971,-0.923 -4.033,-1.73 -5.828,-2.927 -1.686,-1.125 -3.302,-2.474 -4.171,-4.461 -0.379,-0.868 -0.878,-1.689 -1.372,-2.5 -0.685,-1.127 -1.123,-2.111 -0.158,-3.436 2.36,-3.242 4.557,-6.602 6.816,-9.917 0.458,-0.674 0.936,-0.818 1.701,-0.357 0.829,0.5 1.848,1.259 2.374,-0.412 0.039,-0.123 0.237,-0.207 0.375,-0.285 1.643,-0.926 1.846,-4.023 1.104,-5.136 -0.527,-0.79 -0.281,-1.21 0.219,-1.849 2.035,-2.597 4.073,-5.199 5.973,-7.896 2.131,-3.024 4.088,-6.17 6.176,-9.226 0.67,-0.982 1.513,-1.846 2.289,-2.778 0.217,0.224 0.305,0.273 0.318,0.337 0.03,0.151 0.058,0.316 0.029,0.465 -0.271,1.371 0.288,2.462 1.494,2.915 0.982,0.369 2.14,0.322 3.224,0.357 1.024,0.034 1.747,-0.43 1.947,-1.532 0.168,-0.93 0.539,-0.907 1.308,-0.413 1.352,0.866 2.834,1.527 4.234,2.322 0.444,0.252 1.057,0.497 0.548,1.273 -1.146,1.747 -2.238,3.53 -3.432,5.426 -0.18,-0.613 -0.209,-1.261 -0.531,-1.687 -0.643,-0.851 -1.344,-2.088 -2.205,-2.263 -2.498,-0.506 -5.088,1.805 -4.571,4.686 0.188,1.053 0.888,2.036 1.453,2.993 0.492,0.834 0.512,2.335 2.172,1.798 0.028,-0.009 0.092,0.118 0.15,0.169 0.787,0.701 1.575,1.4 2.362,2.1 0.83,0.74 1.629,0.621 2.254,-0.215 0.702,-0.94 1.337,-1.937 1.931,-2.951 1.806,-3.078 3.653,-6.137 5.333,-9.284 0.815,-1.526 2.338,-2.831 1.918,-4.867 -0.932,-0.479 -1.875,-0.913 -2.768,-1.433 -1.055,-0.613 -2.001,-1.467 -3.115,-1.915 -1.425,-0.573 -2.55,-1.369 -3.465,-2.602 -0.641,-0.864 -1.5,-1.567 -2.374,-2.457 -0.79,1.051 -1.361,1.899 -2.032,2.659 -0.285,0.325 -0.812,0.692 -1.171,0.64 -0.658,-0.096 -1.273,-0.488 -2.081,-0.831 1.277,-1.644 2.439,-3.333 3.81,-4.83 0.8,-0.874 0.767,-1.455 -0.007,-2.272 -0.679,0.598 -1.317,1.163 -1.947,1.719 -1.293,-1.16 -1.235,-1.133 -0.567,-2.493 0.379,-0.769 0.694,-1.639 0.753,-2.483 0.118,-1.717 0.999,-2.86 2.45,-3.535 2.886,-1.341 5.043,-3.297 5.949,-6.443 0.061,-0.211 0.222,-0.393 0.336,-0.589 M 31.84,-3.612 c -0.16,0.609 -0.404,1.154 0.298,1.697 1.328,1.027 2.565,2.171 3.8,3.231 -0.89,1.316 -1.829,2.653 -2.711,4.026 -0.581,0.903 -1.046,1.88 -1.64,2.772 -0.146,0.219 -0.706,0.428 -0.881,0.322 -1.987,-1.217 -3.939,-2.492 -5.897,-3.757 -3.351,-2.164 -6.284,-4.826 -9.06,-7.664 -0.512,-0.523 -0.93,-1.232 -1.118,-1.93 -0.081,-0.301 0.537,-0.787 0.831,-1.194 0.069,-0.096 0.109,-0.213 0.172,-0.315 1.21,-1.96 2.447,-3.905 3.617,-5.889 0.421,-0.713 0.784,-0.616 1.311,-0.174 1.125,0.947 2.238,1.915 3.419,2.788 1.318,0.974 2.086,2.092 1.528,3.803 -0.07,0.212 0.011,0.641 0.164,0.732 1.904,1.144 3.711,2.743 6.205,1.585 0.376,-0.775 0.881,-1.513 1.101,-2.33 0.532,-1.966 1.2,-3.836 2.42,-5.506 0.512,-0.7 0.919,-1.188 1.912,-1.079 0.566,0.064 1.379,-0.149 1.742,-0.547 1.177,-1.291 2.312,-2.66 2.154,-4.624 -0.029,-0.352 0.183,-0.781 0.404,-1.087 2.042,-2.834 4.109,-5.651 6.174,-8.468 0.34,-0.463 0.718,-0.791 0.444,-1.545 -0.287,-0.787 1.022,-2.088 1.727,-1.756 0.901,0.424 1.265,-0.128 1.679,-0.612 1.703,-1.989 3.443,-3.95 5.035,-6.024 1.763,-2.296 3.385,-4.699 5.056,-7.064 3.45,-4.882 6.708,-9.914 10.388,-14.614 3.819,-4.874 6.628,-10.344 9.885,-15.342 1.129,0.796 2.307,1.626 3.527,2.486 -0.647,1.161 -1.326,2.54 -2.154,3.822 -1.231,1.91 -2.596,3.733 -3.853,5.625 -1.416,2.132 -2.762,4.31 -4.172,6.446 -0.365,0.551 -0.936,0.97 -1.274,1.534 -1.088,1.812 -2.062,3.694 -3.172,5.493 -1.428,2.317 -2.941,4.583 -4.428,6.863 -0.318,0.486 -0.736,0.91 -1.015,1.415 -0.655,1.188 -1.134,2.49 -1.903,3.593 -1.498,2.15 -3.22,4.147 -4.7,6.309 -0.673,0.983 -1.083,0.958 -1.891,0.234 -1.22,-1.092 -1.257,-1.042 -2.111,0.252 -0.33,0.499 -0.67,0.991 -1.026,1.473 -0.486,0.658 -0.362,1.749 0.304,2.246 0.35,0.261 0.74,0.472 1.122,0.69 1.113,0.632 1.17,0.976 0.354,2.278 -0.598,0.955 -1.081,1.04 -2.034,0.408 -0.597,-0.396 -1.187,-0.861 -1.851,-1.076 -0.405,-0.131 -1.131,-0.008 -1.384,0.285 -0.541,0.629 -0.792,1.499 -1.301,2.164 -0.683,0.891 -0.138,1.376 0.455,1.887 0.258,0.221 0.557,0.395 0.785,0.554 -0.312,0.696 -0.497,1.314 -0.838,1.828 -1.005,1.521 -2.042,3.022 -3.126,4.487 -0.73,0.985 -1.623,1.852 -2.333,2.85 -0.966,1.359 -1.785,2.822 -2.747,4.182 -1.009,1.429 -2.161,2.757 -3.164,4.189 -0.884,1.262 -1.137,1.327 -2.466,0.431 -1.23,-0.829 -2.505,-1.59 -3.763,-2.383 m 73.804,-136.442 c 0.386,0.491 0.73,0.929 1.206,1.535 -0.616,0.912 -1.383,2.054 -2.154,3.193 -0.223,0.329 -0.461,0.65 -0.685,0.979 -1.11,1.623 -1.093,1.592 -2.818,0.72 -1.59,-0.803 -3.05,0.026 -4.288,0.775 -2.373,1.436 -4.273,3.385 -4.93,6.248 -0.114,0.495 -0.217,1.033 -0.489,1.441 -0.657,0.986 -0.233,1.824 0.234,2.665 1.078,1.947 0.908,2.721 -0.756,4.242 -0.47,0.429 -0.669,1.141 -1.056,1.677 -1.435,1.993 -2.941,3.935 -4.336,5.954 -0.964,1.396 -1.751,2.911 -2.68,4.332 -1.577,2.406 -3.216,4.771 -4.802,7.171 -1.387,2.099 -2.737,4.222 -4.149,6.403 -0.405,-0.166 -0.862,-0.412 -1.349,-0.536 -0.45,-0.115 -0.997,-0.264 -1.393,-0.114 -2.801,1.067 -5.688,2.006 -7.532,4.648 -1.054,1.51 -2.049,5.796 -0.377,7.67 0.238,0.266 0.302,0.94 0.136,1.268 -0.426,0.841 -0.976,1.634 -1.567,2.373 -1.221,1.531 -1.94,1.68 -3.421,0.467 -1.549,-1.269 -3.24,-2.321 -4.429,-4.103 -1.582,-2.371 -4.195,-1.977 -5.527,0.579 -0.568,1.092 -1.193,2.169 -1.621,3.317 -0.655,1.759 -0.135,2.936 1.604,3.718 2.469,1.111 4.975,2.138 7.463,3.208 0.205,0.088 0.387,0.231 0.581,0.349 -0.327,0.529 -0.612,0.992 -0.9,1.453 -1.171,1.873 -1.684,1.835 -3.594,1.23 -1.721,-0.544 -3.516,-0.975 -5.307,-1.138 -1.832,-0.166 -2.622,0.87 -2.52,2.723 0.023,0.402 -0.029,0.817 -0.11,1.214 -0.215,1.064 1.023,2.276 2.472,2.359 1.42,0.081 2.842,0.129 4.553,0.204 -2.458,3.286 -4.741,6.337 -7.024,9.388 -0.096,-0.071 -0.191,-0.142 -0.288,-0.214 0.099,-1.007 0.205,-2.014 0.293,-3.023 0.073,-0.824 -0.223,-1.328 -1.105,-1.559 -1.423,-0.369 -2.708,0.194 -3.665,1.461 -1.456,1.931 -2.204,4.139 -2.929,6.394 -0.672,2.087 -2.041,3.775 -3.361,5.502 -1.15,1.505 -2.073,3.182 -3.098,4.783 -0.971,1.517 -1.96,3.023 -2.909,4.554 -0.477,0.767 -0.868,1.588 -1.327,2.367 -0.491,0.833 -1.003,1.655 -1.534,2.463 -0.282,0.43 -0.688,0.789 -0.927,1.239 -0.616,1.159 -0.406,1.732 0.736,2.369 0.272,0.151 0.503,0.379 0.874,0.665 -1.652,2.392 -3.282,4.752 -4.944,7.157 -0.629,-0.103 -1.478,-0.47 -2.178,-0.283 -0.496,0.134 -0.938,0.965 -1.148,1.573 -0.586,1.701 0.853,2.265 2.076,3.14 -0.852,1.475 -1.633,2.977 -2.553,4.389 -1.424,2.184 -2.95,4.302 -4.419,6.457 C 9.705,-0.122 7.75,2.772 5.706,5.788 5.434,5.516 4.982,5.151 4.639,4.703 4.05,3.934 3.509,3.704 2.864,4.623 2.504,5.136 2.123,5.636 1.725,6.119 1.574,6.303 1.349,6.425 1.065,6.646 1.065,5.614 1.021,4.754 1.089,3.903 1.113,3.615 1.361,3.188 1.605,3.099 4.715,1.972 6.235,-0.393 7.076,-3.453 7.343,-4.427 8.25,-5.21 8.767,-6.135 9.554,-7.544 9.439,-9.44 7.642,-10.387 c -1.666,-0.878 -3.308,-0.381 -4.11,1.301 -0.085,0.178 -0.156,0.366 -0.219,0.554 -0.349,1.039 -0.224,2.271 -2.17,1.884 -1.27,-0.253 -1.719,1.472 -2.205,2.511 -0.321,0.686 -0.633,1.009 -1.383,1.03 -0.59,0.017 -1.195,0.137 -1.76,0.315 -1.404,0.44 -2.116,1.359 -2.149,2.655 -0.048,1.947 0.731,3.325 2.361,3.81 0.701,0.21 0.921,0.493 0.826,1.152 -0.367,2.55 -0.599,5.129 -1.138,7.641 -0.377,1.759 -0.946,3.559 -1.842,5.102 -0.934,1.608 -2.129,3.267 -3.626,4.3 -2.441,1.685 -3.778,4.007 -4.943,6.538 -0.301,0.656 -0.465,1.4 -0.56,2.121 -0.335,2.542 -2.056,4.082 -4.017,5.301 -2.506,1.558 -3.97,3.723 -4.854,6.485 -0.669,2.092 -0.984,4.433 -2.79,5.97 -1.078,0.918 -2.355,1.599 -3.517,2.425 -0.871,0.619 -1.851,1.177 -2.498,1.989 -0.525,0.658 -0.861,1.652 -0.867,2.5 -0.012,1.589 -0.712,2.804 -1.561,4.015 -0.199,0.284 -0.332,0.614 -0.48,0.894 0.843,0.714 1.615,1.366 2.432,2.058 -1.488,2.119 -2.849,4.159 -4.318,6.121 -1.564,2.09 -3.26,4.081 -4.837,6.163 -0.733,0.969 -1.308,2.058 -1.976,3.079 -1.091,1.669 -2.205,3.325 -3.3,4.992 -1.207,1.837 -2.357,3.715 -3.624,5.511 -0.697,0.988 -1.535,1.895 -2.422,2.717 -0.203,0.189 -0.918,-0.026 -1.315,-0.222 -1.563,-0.775 -3.996,0.442 -4.096,2.376 -0.051,0.982 0.214,2.089 0.677,2.957 0.443,0.831 0.319,1.386 -0.154,2.017 -0.811,1.081 -1.694,2.111 -2.45,3.229 -1.775,2.626 -3.491,5.292 -5.234,7.939 -1.188,1.806 -2.362,3.622 -3.579,5.408 -1.281,1.88 -2.625,3.717 -3.907,5.597 -1.987,2.911 -3.969,5.826 -5.906,8.77 -1.275,1.937 -2.395,3.979 -3.723,5.877 -1.055,1.509 -2.389,2.821 -3.475,4.311 -1.416,1.944 -2.707,3.98 -4.056,5.973 -0.329,0.487 -0.688,0.955 -1.005,1.449 -1.831,2.853 -3.81,5.628 -5.415,8.604 -0.809,1.499 -1.588,1.373 -2.892,1.055 -1.527,-0.372 -3.09,-0.385 -4.271,1.036 -1.012,1.218 -1.019,2.556 0.02,3.785 0.331,0.39 0.638,0.831 0.822,1.301 0.094,0.239 -0.045,0.631 -0.194,0.886 -0.17,0.289 -0.513,0.472 -0.702,0.754 -0.399,0.594 -0.845,0.627 -1.536,0.483 -0.815,-0.17 -1.728,-0.183 -2.536,0.006 -0.842,0.198 -1.347,0.963 -1.156,1.85 0.215,0.999 0.672,1.945 0.948,2.935 0.132,0.473 0.304,1.132 0.088,1.47 -1.276,1.992 -2.744,3.862 -3.986,5.873 -1.511,2.45 -2.917,4.969 -4.265,7.513 -0.847,1.597 -1.509,3.292 -2.242,4.948 -1.481,3.344 -0.271,7.564 2.683,9.775 1.498,1.122 3.092,1.998 4.952,2.03 3.307,0.059 5.81,-1.743 8.076,-3.901 1.428,-1.361 2.822,-2.766 4.145,-4.228 1.777,-1.964 3.475,-4.001 5.2,-6.012 1.079,-1.258 2.206,-2.482 3.207,-3.801 2.118,-2.79 4.148,-5.648 6.256,-8.447 0.808,-1.072 1.871,-1.972 2.569,-3.104 1.504,-2.44 2.748,-5.043 4.292,-7.455 0.964,-1.508 2.259,-2.808 3.447,-4.166 1.126,-1.286 2.281,-2.55 3.472,-3.777 0.746,-0.768 1.61,-1.42 2.369,-2.177 1.51,-1.504 3.058,-2.98 4.45,-4.59 1.298,-1.5 2.393,-3.174 3.614,-4.743 2.906,-3.733 5.86,-7.431 8.747,-11.179 2.813,-3.652 5.618,-7.312 8.334,-11.037 2.82,-3.869 5.523,-7.825 8.29,-11.734 1.855,-2.621 3.747,-5.216 5.595,-7.842 1.452,-2.062 2.882,-4.141 4.289,-6.234 2.311,-3.438 4.556,-6.922 6.899,-10.338 3.234,-4.711 6.543,-9.37 9.8,-14.067 1.15,-1.658 2.236,-3.36 3.361,-5.037 0.199,-0.297 0.405,-0.609 0.672,-0.839 2.472,-2.125 3.79,-5.044 5.416,-7.758 0.685,-1.145 1.59,-2.157 2.314,-3.281 1.984,-3.077 3.883,-6.21 5.896,-9.268 1.994,-3.028 4.2,-5.919 6.106,-8.997 2.954,-4.772 5.673,-9.69 8.615,-14.47 1.37,-2.227 3.044,-4.267 4.554,-6.41 0.938,-1.332 1.819,-2.704 2.739,-4.051 2.947,-4.317 5.91,-8.623 8.848,-12.947 1.605,-2.363 3.118,-4.789 4.769,-7.119 1.354,-1.912 2.862,-3.713 4.279,-5.581 0.908,-1.197 1.774,-2.428 2.781,-3.81 0.891,0.759 1.738,1.498 2.603,2.213 0.366,0.302 0.739,0.687 1.167,0.794 0.403,0.101 1.008,0.03 1.306,-0.222 0.754,-0.641 1.526,-1.343 2.021,-2.18 0.366,-0.617 0.304,-1.486 0.411,-2.11 -1.216,-0.684 -2.275,-1.279 -3.388,-1.906 0.246,-0.463 0.399,-0.776 0.575,-1.076 1.05,-1.783 1.299,-1.8 2.734,-0.198 0.027,0.029 0.048,0.064 0.075,0.094 0.624,0.666 0.989,1.807 2.179,1.526 0.894,-0.211 2.234,-2.555 2.109,-3.53 -0.045,-0.352 -0.25,-0.761 -0.515,-0.991 -1.217,-1.059 -2.481,-2.065 -3.831,-3.172 0.989,-1.402 1.911,-2.637 2.759,-3.921 2.128,-3.222 4.245,-6.451 6.324,-9.704 2.766,-4.327 5.441,-8.713 8.249,-13.012 2.502,-3.829 5.157,-7.558 7.697,-11.362 1.389,-2.081 2.502,-4.37 4.073,-6.295 1.049,-1.287 1.556,-2.6 1.833,-4.146 0.182,-1.024 0.067,-1.85 -0.951,-2.304 -1.561,-0.698 -3.076,-1.955 -4.901,-0.888 -0.625,0.365 -1.238,1.028 -1.488,1.694 -0.367,0.981 -0.405,2.085 -0.598,3.218 -0.226,-0.055 -0.475,-0.115 -0.862,-0.208 -1.343,2.499 -2.596,5.096 -4.097,7.54 -1.182,1.928 -2.692,3.651 -4.013,5.497 -1.325,1.849 -2.57,3.753 -3.898,5.599 -0.815,1.133 -1.749,2.179 -2.578,3.303 -0.815,1.106 -1.578,2.251 -2.343,3.393 -1.585,2.367 -3.107,4.776 -4.747,7.104 -1.111,1.577 -2.364,3.055 -3.579,4.557 -1.539,1.903 -3.104,3.786 -4.664,5.671 -0.065,0.078 -0.209,0.091 -0.546,0.228 0,-0.616 -0.055,-1.134 0.01,-1.638 0.285,-2.205 -1.002,-5.041 -3.528,-5.855 -0.608,-0.196 -1.339,-0.267 -1.956,-0.129 -1.862,0.414 -5.347,0.087 -7.201,-0.859 0.153,-0.294 0.286,-0.601 0.463,-0.883 0.614,-0.976 1.102,-1.98 1.539,-3.073 0.71,-1.774 1.378,-3.827 3.409,-4.793 0.472,-0.225 0.989,-1.049 1.223,-0.953 0.748,0.305 1.354,0.942 2.052,1.395 0.825,0.534 1.69,1.008 2.538,1.509 0.149,-0.139 0.3,-0.279 0.45,-0.419 -0.216,-0.413 -0.341,-0.927 -0.667,-1.219 -0.853,-0.766 -1.801,-1.425 -2.698,-2.143 -0.852,-0.68 -0.847,-0.82 -0.142,-1.67 1.855,1.313 3.698,2.616 5.527,3.91 -1.868,3.002 -0.367,5.253 1.922,7.47 1.255,-0.187 2.617,-0.396 3.979,-0.592 1.51,-0.217 1.695,-1.611 2.168,-2.622 0.836,-1.784 -0.882,-5.707 -2.679,-6.482 -1.825,-0.788 -3.388,-0.318 -4.532,1.359 -0.083,0.122 -0.204,0.219 -0.126,0.137 -1.841,-1.472 -3.622,-2.897 -5.397,-4.317 1.548,-2.039 3.135,-4.171 4.787,-6.254 0.233,-0.293 0.834,-0.551 1.173,-0.466 1.962,0.492 3.898,1.088 5.839,1.661 0.258,0.076 0.494,0.226 0.736,0.34 -0.665,1.666 -0.663,1.664 0.946,2.588 0.276,0.158 0.541,0.336 0.808,0.512 1.274,0.842 2.128,0.696 2.987,-0.606 0.76,-1.153 1.473,-2.338 2.16,-3.536 0.914,-1.592 1.685,-3.275 2.692,-4.802 1.488,-2.255 3.14,-4.401 4.705,-6.607 1.864,-2.626 3.737,-5.249 5.557,-7.906 1.667,-2.433 3.283,-4.903 4.897,-7.373 2.515,-3.85 5.009,-7.714 7.355,-11.328 1.402,0.685 2.662,1.361 3.975,1.914 0.609,0.258 0.732,0.534 0.448,1.072 -0.551,1.045 -1.207,2.036 -0.663,3.336 0.451,1.079 0.708,2.248 1.906,2.814 0.127,0.06 0.2,0.234 0.454,0.547 -1.344,1.806 -2.705,3.631 -4.061,5.457 -0.825,1.109 -1.645,2.221 -2.465,3.334 -0.119,0.161 -0.307,0.317 -0.329,0.493 -0.055,0.431 -0.032,0.872 -0.041,1.309 0.331,-0.226 0.759,-0.383 0.979,-0.689 2.381,-3.304 4.733,-6.629 7.087,-9.951 1.934,-2.727 3.919,-5.418 5.773,-8.197 1.565,-2.347 2.958,-4.807 4.456,-7.2 1.809,-2.891 3.674,-5.749 5.469,-8.649 2.49,-4.024 4.937,-8.072 7.399,-12.112 0.346,-0.568 0.684,-0.888 1.281,-0.241 0.614,0.666 1.282,0.587 1.846,-0.074 0.593,-0.694 1.206,-1.39 1.677,-2.168 0.825,-1.36 1.543,-2.786 2.314,-4.18 0.558,-1.004 0.745,-2.02 0.091,-3.051 -0.422,-0.664 -0.309,-1.157 0.167,-1.821 1.253,-1.746 2.451,-3.545 3.512,-5.412 1.879,-3.31 4.15,-6.281 6.869,-8.954 2.588,-2.542 4.926,-5.34 7.55,-7.842 2.59,-2.469 5.319,-4.811 8.139,-7.013 1.994,-1.557 4.187,-2.888 6.395,-4.133 1.836,-1.035 3.821,-1.81 5.753,-2.669 0.253,-0.113 0.626,-0.148 0.877,-0.05 2.27,0.887 3.46,0.385 3.86,-2.031 0.652,-3.935 -0.062,-7.617 -2.351,-11.005 -1.213,-1.795 -2.057,-3.834 -3.126,-5.73 -1.42,-2.52 -2.875,-5.011 -5.206,-6.859 -1.778,-1.411 -3.362,-3.1 -5.251,-4.33 -2.207,-1.436 -4.605,-2.608 -7.009,-3.701 -1.503,-0.683 -3.14,-1.172 -4.768,-1.458 -3.598,-0.634 -7.2,-1.159 -10.904,-0.842 -1.834,0.157 -3.333,0.617 -3.829,2.385 -0.491,1.743 -0.391,3.588 0.66,5.233 0.609,0.954 0.953,1.889 0.703,3.147 -0.332,1.667 -0.187,3.423 -0.381,5.126 -0.111,0.972 -0.509,1.911 -0.742,2.873 -0.448,1.849 -0.866,3.707 -1.307,5.558 -0.319,1.343 -0.57,2.71 -1.005,4.016 -0.49,1.475 -1.137,2.897 -1.741,4.333 -0.963,2.29 -1.999,4.552 -2.908,6.862 -1.762,4.476 -3.267,9.064 -6.033,13.076 -1.471,2.133 -2.916,4.287 -4.391,6.418 -0.143,0.207 -0.438,0.485 -0.621,0.457 -1.584,-0.244 -1.945,1.004 -2.529,1.993 -0.16,0.268 -0.298,0.561 -0.508,0.786 -1.583,1.686 -2.794,3.593 -3.53,5.875"
             style="fill:#000000;fill-opacity:1;fill-rule:nonzero;stroke:none"
             id="path22"
             inkscape:connector-curvature="0" /></g></g></g></g></svg>