<?xml version="1.0" encoding="UTF-8" standalone="no"?>
<!-- Created with Inkscape (http://www.inkscape.org/) -->

<svg
   xmlns:dc="http://purl.org/dc/elements/1.1/"
   xmlns:cc="http://creativecommons.org/ns#"
   xmlns:rdf="http://www.w3.org/1999/02/22-rdf-syntax-ns#"
   xmlns:svg="http://www.w3.org/2000/svg"
   xmlns="http://www.w3.org/2000/svg"
   xmlns:sodipodi="http://sodipodi.sourceforge.net/DTD/sodipodi-0.dtd"
   xmlns:inkscape="http://www.inkscape.org/namespaces/inkscape"
   version="1.1"
   id="svg2"
   xml:space="preserve"
   width="604.72931"
   height="604.72931"
   viewBox="0 0 604.72931 604.72931"
   sodipodi:docname="Double bass.svg"
   inkscape:version="0.92.4 (5da689c313, 2019-01-14)"><metadata
     id="metadata8"><rdf:RDF><cc:Work
         rdf:about=""><dc:format>image/svg+xml</dc:format><dc:type
           rdf:resource="http://purl.org/dc/dcmitype/StillImage" /><dc:title></dc:title></cc:Work></rdf:RDF></metadata><defs
     id="defs6"><clipPath
       clipPathUnits="userSpaceOnUse"
       id="clipPath18"><path
         d="M 0,453.547 H 453.547 V 0 H 0 Z"
         id="path16"
         inkscape:connector-curvature="0" /></clipPath></defs><sodipodi:namedview
     pagecolor="#ffffff"
     bordercolor="#666666"
     borderopacity="1"
     objecttolerance="10"
     gridtolerance="10"
     guidetolerance="10"
     inkscape:pageopacity="0"
     inkscape:pageshadow="2"
     inkscape:window-width="640"
     inkscape:window-height="480"
     id="namedview4"
     showgrid="false"
     inkscape:zoom="0.39025725"
     inkscape:cx="28.186536"
     inkscape:cy="302.36465"
     inkscape:window-x="677"
     inkscape:window-y="130"
     inkscape:window-maximized="0"
     inkscape:current-layer="g10" /><g
     id="g10"
     inkscape:groupmode="layer"
     inkscape:label="Double bass"
     transform="matrix(1.3333333,0,0,-1.3333333,0,604.72933)"><g
       id="g12"><g
         id="g14"
         clip-path="url(#clipPath18)"><g
           id="g20"
           transform="translate(56.8534,355.2733)"><path
             d="m 0,0 c -0.723,-0.912 -1.51,-1.199 -2.601,-0.496 -0.468,0.302 -1.191,0.202 -1.895,0.298 1.258,-0.972 2.351,-1.815 3.477,-2.683 C -0.101,-2.26 0.505,-0.754 0,0 m 224.598,-137.234 c -0.708,-0.852 -1.412,-1.583 -1.963,-2.417 -0.242,-0.369 -0.881,-0.931 -0.093,-1.428 0.698,-0.444 1.434,-0.833 2.099,-1.214 0.912,1.063 1.83,2.128 2.828,3.292 -0.916,0.564 -1.886,1.159 -2.871,1.767 m 8.247,3.636 c -0.108,-0.139 -0.217,-0.278 -0.326,-0.417 1.418,-1.537 2.724,-3.196 4.292,-4.558 0.682,-0.59 1.885,-0.611 2.875,-0.801 0.23,-0.043 0.536,0.29 0.93,0.519 -2.191,2.609 -4.602,4.515 -7.771,5.257 m -6.933,-2.407 c 0.784,-0.647 1.49,-1.158 2.109,-1.757 0.875,-0.844 1.851,-1.122 3.043,-0.87 0.462,0.098 0.975,-0.034 1.462,-0.014 0.806,0.032 1.615,0.105 2.7,0.18 -1.233,1.325 -2.391,2.359 -3.268,3.59 -0.677,0.954 -1.318,1.055 -2.271,0.648 -0.931,-0.398 -1.89,-0.729 -2.815,-1.127 -0.33,-0.143 -0.606,-0.403 -0.96,-0.65 m 109.469,-130.016 c 2.007,-0.896 4.334,-0.242 5.235,1.729 0.681,1.497 1.528,2.929 2.353,4.355 0.397,0.689 1.312,1.3 1.312,1.951 0.01,1.553 -0.381,3.11 -0.611,4.666 -0.089,-0.021 -0.175,-0.04 -0.266,-0.061 -2.664,-4.196 -5.327,-8.394 -8.023,-12.64 m 8.934,5.783 c -0.081,-0.043 -0.174,-0.058 -0.202,-0.108 -0.92,-1.718 -1.866,-3.423 -2.732,-5.169 -0.098,-0.204 0.165,-0.757 0.413,-0.924 0.949,-0.657 2.018,-1.144 2.933,-1.839 2.184,-1.646 4.311,-3.367 6.443,-5.075 0.73,-0.583 1.403,-0.298 1.862,0.242 0.242,0.29 0.211,0.944 0.09,1.375 -0.144,0.491 -0.478,0.94 -0.797,1.356 -1.725,2.225 -3.458,4.444 -5.203,6.651 -0.927,1.175 -1.877,2.332 -2.807,3.491 M 221.434,-141.99 c -0.514,-1.107 -1.054,-2.026 -1.376,-3.018 -0.568,-1.755 -1.166,-3.53 -1.456,-5.343 -0.356,-2.18 -0.46,-4.405 -0.567,-6.614 -0.136,-2.838 -0.195,-5.679 -0.221,-8.519 -0.004,-0.533 0.227,-1.106 0.482,-1.597 0.342,-0.655 0.931,-0.732 1.505,-0.279 1.528,1.206 2.308,3.953 1.878,5.846 -0.394,1.735 -0.846,3.525 -0.812,5.284 0.071,3.854 1.263,7.48 2.879,10.959 0.365,0.785 0.409,1.363 -0.432,1.868 -0.651,0.391 -1.222,0.913 -1.88,1.413 m -9.012,20.097 c -0.781,-1.085 -1.557,-2.116 -2.256,-3.199 -0.092,-0.147 0.149,-0.657 0.37,-0.825 0.745,-0.564 1.551,-1.047 2.331,-1.568 2.091,-1.403 4.171,-2.818 6.264,-4.211 1.578,-1.045 3.172,-2.068 4.773,-3.076 0.244,-0.154 0.651,-0.302 0.864,-0.198 1.374,0.646 2.722,1.361 4.301,2.173 -4.954,4.668 -10.636,7.944 -16.647,10.904 m 8.205,-18.394 c 0.977,1.203 1.785,2.142 2.511,3.142 0.164,0.222 0.19,0.789 0.026,0.965 -0.641,0.685 -1.332,1.356 -2.104,1.894 -2.158,1.499 -4.363,2.93 -6.555,4.382 -1.769,1.174 -3.547,2.343 -5.405,3.573 -0.964,-1.327 -1.892,-2.559 -2.765,-3.83 -0.293,-0.43 -0.513,-0.963 0.082,-1.393 0.829,-0.595 1.625,-1.243 2.488,-1.776 1.847,-1.146 3.729,-2.237 5.6,-3.344 2.08,-1.232 4.164,-2.459 6.122,-3.613 m 55.696,-47.79 c 0.653,1.004 1.268,1.854 1.766,2.769 0.137,0.246 0.056,0.791 -0.139,1.005 -3.696,4.087 -7.418,8.148 -11.144,12.204 -0.731,0.805 -1.539,1.548 -2.227,2.385 -2.579,3.148 -5.057,6.383 -7.703,9.473 -2.966,3.465 -6.167,6.691 -9.646,9.686 -3.178,2.739 -6.024,5.872 -8.915,8.931 -1.229,1.304 -2.416,2.258 -4.338,1.903 -0.85,-0.155 -1.75,-0.027 -2.632,-0.04 -0.249,-0.005 -0.493,-0.059 -0.843,-0.105 2.277,-2.299 4.42,-4.509 6.613,-6.667 1.693,-1.662 3.446,-3.257 5.169,-4.885 0.475,-0.45 0.932,-0.906 1.396,-1.362 0.887,-0.887 1.727,-1.825 2.659,-2.659 2.609,-2.329 5.296,-4.565 7.87,-6.938 1.907,-1.754 3.752,-3.594 5.499,-5.516 2.918,-3.22 5.774,-6.502 8.585,-9.821 1.715,-2.027 3.304,-4.165 4.931,-6.263 1.005,-1.296 1.978,-2.614 3.099,-4.1 m -3.911,-5.709 c 0.715,0.977 1.402,1.938 2.122,2.871 1.353,1.752 1.347,2.113 -0.113,3.756 -0.139,0.155 -0.255,0.331 -0.381,0.502 -1.85,2.412 -3.622,4.9 -5.581,7.226 -2.342,2.788 -4.817,5.473 -7.296,8.142 -2.581,2.776 -5.163,5.557 -7.883,8.193 -2.642,2.557 -5.483,4.921 -8.204,7.4 -3.276,2.981 -6.526,5.99 -9.775,8.996 -2.114,1.954 -4.236,3.902 -6.299,5.908 -0.627,0.606 -1.132,0.503 -1.6,-0.015 -0.59,-0.646 -1.109,-1.365 -1.586,-2.101 -0.107,-0.176 -0.008,-0.628 0.156,-0.808 0.945,-1.072 1.942,-2.104 2.924,-3.141 2.701,-2.86 5.418,-5.701 8.11,-8.574 2.134,-2.279 4.244,-4.573 6.334,-6.891 0.802,-0.886 1.462,-1.903 2.278,-2.764 3.131,-3.328 6.306,-6.603 9.445,-9.917 2.943,-3.104 5.892,-6.211 8.788,-9.369 2.744,-2.992 5.422,-6.049 8.132,-9.079 0.091,-0.098 0.216,-0.17 0.429,-0.335 M 86.371,-56.017 c -0.938,-2.091 -0.808,-3.782 0.414,-5.264 0.979,-1.188 2.131,-2.231 3.181,-3.365 1.336,-1.444 2.642,-2.915 3.97,-4.364 1.541,-1.689 3.065,-3.391 4.643,-5.044 1.44,-1.505 1.396,-4.172 0.25,-5.861 -0.508,-0.752 -1.098,-1.46 -1.526,-2.257 -1.027,-1.903 -2.061,-3.778 -3.403,-5.499 -0.873,-1.12 -1.578,-2.422 -2.101,-3.746 -0.549,-1.402 -0.434,-1.577 1.544,-2.585 0.449,-0.226 1.385,0.169 1.912,0.54 0.611,0.427 1.048,1.124 1.511,1.741 0.752,1.01 1.457,2.053 2.194,3.071 0.692,0.954 1.342,1.944 2.12,2.822 0.462,0.521 0.602,1.905 1.753,0.953 1.237,2.389 2.477,4.692 3.637,7.036 0.974,1.974 1.784,4.033 2.813,5.976 0.394,0.743 0.439,1.13 -0.226,1.654 -2.454,1.936 -4.894,3.89 -7.314,5.87 -3.261,2.668 -6.667,5.186 -9.705,8.089 -3.62,3.458 -7.446,6.589 -11.675,9.254 -3.152,1.983 -6.277,4.018 -9.355,6.105 -4.74,3.215 -9.426,6.51 -14.146,9.753 -3.01,2.066 -6.079,4.049 -9.05,6.17 -2.659,1.897 -5.215,3.934 -7.828,5.894 -0.629,0.471 -1.305,0.879 -1.996,1.338 -0.341,-0.553 -0.592,-0.964 -0.775,-1.256 1.678,-1.262 3.298,-2.473 4.91,-3.69 2.497,-1.887 4.978,-3.796 7.487,-5.664 2.312,-1.722 4.685,-3.358 6.973,-5.11 4.211,-3.228 8.364,-6.538 12.579,-9.765 3.155,-2.412 6.375,-4.746 9.564,-7.116 2.554,-1.896 5.11,-3.796 7.645,-5.68 M -3.495,9.415 C -3.477,9.325 -3.458,9.232 -3.44,9.143 -3.073,9.129 -2.707,9.129 -2.341,9.107 -0.729,8.997 0.911,9.043 2.48,8.728 4.716,8.285 6.894,7.549 9.109,6.984 14.298,5.661 19.157,3.575 23.689,0.725 c 1.815,-1.14 3.641,-2.267 5.402,-3.49 2.596,-1.803 5.158,-3.657 7.697,-5.541 1.08,-0.804 2.062,-1.741 3.07,-2.602 0.696,0.467 1.41,0.711 1.734,1.21 1.085,1.663 2.538,3.06 3.314,4.97 0.38,0.944 0.242,1.319 -0.517,1.761 -2.094,1.214 -4.183,2.431 -6.255,3.684 -1.142,0.689 -2.219,1.478 -3.36,2.17 -2.283,1.379 -4.577,2.747 -6.89,4.079 C 26.089,8 24.301,9.057 22.432,9.94 c -1.58,0.748 -3.244,1.342 -4.916,1.858 -3.279,1.015 -6.566,2.099 -10.047,0.757 -0.312,-0.12 -0.853,0.171 -1.192,0.403 -0.147,0.099 -0.118,0.559 -0.059,0.834 0.177,0.856 0.486,1.691 0.608,2.552 0.399,2.858 0.214,5.686 -0.681,8.436 -0.4,1.228 -0.808,2.49 -1.449,3.598 -2.086,3.599 -5.685,5.081 -9.372,6.33 -2.368,0.801 -4.835,0.562 -7.277,0.372 -2.343,-0.187 -4.416,-1.047 -6.2,-2.577 -0.285,-0.244 -0.506,-0.562 -0.759,-0.842 0.066,-0.092 0.13,-0.18 0.194,-0.27 0.459,0.197 0.93,0.365 1.371,0.595 3.108,1.622 8.279,1.404 11.426,-1.291 1.86,-1.595 3.158,-3.558 4.416,-5.605 1.931,-3.153 2.534,-6.51 1.818,-10.107 -0.261,-1.314 -0.66,-2.597 -1.702,-3.558 -0.713,-0.659 -1.404,-1.34 -2.106,-2.01 M 46.262,-5.362 c 0.763,-0.407 1.577,-0.744 2.278,-1.24 2.959,-2.09 5.933,-4.163 8.81,-6.363 4.583,-3.503 9.088,-7.109 13.641,-10.655 0.746,-0.58 1.606,-1.019 2.352,-1.6 2.042,-1.598 4.031,-3.265 6.09,-4.843 0.886,-0.681 1.931,-1.157 2.835,-1.819 1.669,-1.226 3.218,-2.631 4.942,-3.766 2.754,-1.819 5.628,-3.45 8.417,-5.209 3.301,-2.081 6.622,-4.133 9.828,-6.353 3.41,-2.361 6.68,-4.93 10.038,-7.368 2.705,-1.962 5.474,-3.839 8.179,-5.803 4.387,-3.184 8.714,-6.443 13.12,-9.597 2.201,-1.578 4.547,-2.954 6.776,-4.493 3.235,-2.237 6.409,-4.565 9.64,-6.815 4.792,-3.331 9.627,-6.597 14.409,-9.95 2.357,-1.655 4.592,-3.479 6.943,-5.141 3.123,-2.213 6.291,-4.366 9.468,-6.497 3.445,-2.31 6.894,-4.607 10.391,-6.831 2.996,-1.904 6.074,-3.68 9.096,-5.545 2.77,-1.709 5.516,-3.453 8.243,-5.167 1.286,1.496 1.388,2.112 0.418,2.761 -0.973,0.651 -2.038,1.159 -3.054,1.739 -0.269,0.152 -0.539,0.304 -0.776,0.499 -0.696,0.57 -1.348,1.203 -2.064,1.74 -1.21,0.9 -2.467,1.73 -3.685,2.62 -2.148,1.567 -4.272,3.171 -6.425,4.731 -0.88,0.635 -1.827,1.173 -2.71,1.803 -2.37,1.692 -4.665,3.488 -7.085,5.098 -3.54,2.353 -7.138,4.617 -10.755,6.844 -3.113,1.921 -6.309,3.694 -9.422,5.605 -2.999,1.839 -5.939,3.769 -8.899,5.667 -3.871,2.479 -7.77,4.924 -11.607,7.457 -2.63,1.737 -5.182,3.583 -7.752,5.407 -2.631,1.869 -5.264,3.738 -7.855,5.662 -1.689,1.256 -3.263,2.668 -4.958,3.912 -2.171,1.591 -4.436,3.054 -6.617,4.631 -2.589,1.871 -5.128,3.815 -7.702,5.709 -2.597,1.91 -5.203,3.809 -7.822,5.688 -2.651,1.907 -5.368,3.722 -7.973,5.686 -4.369,3.293 -8.667,6.682 -13.013,10.005 -2.004,1.533 -4.038,3.036 -6.084,4.508 -1.793,1.295 -3.622,2.534 -5.442,3.791 -2.049,1.419 -4.111,2.818 -6.155,4.242 -1.929,1.342 -3.867,2.674 -5.762,4.067 -2.227,1.64 -4.347,3.434 -6.63,4.988 -2.553,1.738 -2.664,2.068 -5.667,0.195 M 43.489,-9.92 c -0.533,-0.538 -1.06,-1.144 -1.66,-1.665 -0.822,-0.71 -0.906,-1.213 -0.067,-1.852 0.915,-0.697 1.95,-1.24 2.872,-1.932 1.907,-1.426 3.698,-3.028 5.68,-4.339 3.728,-2.458 7.549,-4.769 11.344,-7.126 3.015,-1.873 5.988,-3.822 9.085,-5.555 4.258,-2.384 8,-5.482 11.919,-8.334 2.073,-1.507 3.854,-3.463 6.044,-4.75 3.222,-1.896 5.957,-4.391 8.942,-6.573 0.564,-0.409 1.053,-0.925 1.618,-1.331 2.645,-1.895 5.289,-3.79 7.963,-5.647 3.37,-2.343 6.774,-4.641 10.153,-6.977 1.82,-1.258 3.628,-2.531 5.41,-3.84 1.101,-0.805 2.114,-1.734 3.22,-2.534 2.103,-1.521 4.263,-2.961 6.366,-4.486 3.53,-2.556 6.999,-5.199 10.557,-7.719 3.58,-2.53 7.252,-4.93 10.854,-7.434 2.908,-2.02 5.812,-4.053 8.645,-6.179 4.439,-3.336 8.802,-6.777 13.219,-10.139 3.018,-2.298 6.067,-4.559 9.112,-6.82 3.135,-2.323 6.402,-4.483 9.391,-6.981 3.295,-2.75 6.688,-5.346 10.249,-7.729 0.194,-0.128 0.773,-0.034 0.902,0.15 0.839,1.195 1.628,2.428 2.375,3.686 0.131,0.216 0.078,0.674 -0.074,0.894 -0.209,0.302 -0.585,0.497 -0.9,0.718 -2.378,1.675 -4.767,3.336 -7.14,5.017 -2.463,1.742 -4.874,3.556 -7.377,5.235 -2.591,1.741 -5.272,3.347 -7.897,5.038 -1.448,0.931 -2.837,1.956 -4.296,2.866 -3.867,2.4 -7.786,4.724 -11.631,7.161 -2.07,1.311 -4.031,2.803 -6.055,4.19 -2.434,1.667 -4.908,3.276 -7.328,4.963 -4.311,3.009 -8.59,6.061 -12.891,9.087 -0.657,0.462 -1.359,0.862 -2.009,1.336 -1.477,1.073 -2.933,2.176 -4.4,3.261 -2.673,1.975 -5.341,3.953 -8.02,5.921 -1.582,1.161 -3.171,2.312 -4.77,3.447 -3.181,2.263 -6.378,4.502 -9.556,6.77 -2.028,1.448 -4.008,2.965 -6.045,4.397 -3.765,2.65 -7.592,5.214 -11.334,7.898 -3.644,2.619 -7.183,5.382 -10.826,8 -2.842,2.048 -5.758,3.988 -8.661,5.952 -1.62,1.095 -3.208,2.281 -4.937,3.183 -3.591,1.878 -6.703,4.424 -9.936,6.805 -1.012,0.748 -1.994,1.533 -2.998,2.29 -2.241,1.692 -4.493,3.366 -6.726,5.068 -1.169,0.886 -2.3,1.82 -3.453,2.727 -1.638,1.294 -3.278,2.58 -4.933,3.882 m 0.508,0.958 c 1.45,-1.057 2.822,-2.032 4.162,-3.045 1.841,-1.39 3.662,-2.809 5.487,-4.222 2.777,-2.155 5.55,-4.316 8.327,-6.471 1.636,-1.275 3.202,-2.652 4.926,-3.794 4.833,-3.207 9.819,-6.183 14.58,-9.494 5.426,-3.772 10.644,-7.845 16.006,-11.714 5.418,-3.914 10.895,-7.747 16.361,-11.595 3.766,-2.65 7.612,-5.191 11.322,-7.919 3.814,-2.802 7.466,-5.823 11.257,-8.652 3.608,-2.687 7.269,-5.304 10.965,-7.867 5.09,-3.531 10.202,-7.03 15.361,-10.453 4.394,-2.916 8.874,-5.706 13.312,-8.55 4.233,-2.719 8.481,-5.41 12.691,-8.164 3.674,-2.4 7.325,-4.836 10.947,-7.314 2.081,-1.427 4.071,-2.984 6.125,-4.457 0.821,-0.586 1.681,-1.129 2.561,-1.633 0.197,-0.115 0.679,-0.088 0.797,0.061 0.61,0.769 1.18,1.578 1.684,2.419 0.124,0.209 0.058,0.692 -0.108,0.883 -0.282,0.32 -0.708,0.524 -1.09,0.753 -1.646,0.993 -3.307,1.959 -4.945,2.97 -2.323,1.44 -4.618,2.92 -6.935,4.371 -2.141,1.34 -4.322,2.624 -6.432,4.006 -2.026,1.329 -3.978,2.763 -5.974,4.134 -4.139,2.832 -8.323,5.6 -12.422,8.493 -5.513,3.895 -10.943,7.905 -16.449,11.815 -3.573,2.534 -7.219,4.973 -10.828,7.46 -0.61,0.419 -1.187,0.879 -1.801,1.29 -2.557,1.721 -5.145,3.4 -7.677,5.155 -2.219,1.539 -4.365,3.181 -6.573,4.737 -3.395,2.397 -6.829,4.738 -10.219,7.138 -1.344,0.955 -2.575,2.068 -3.922,3.017 -3.757,2.647 -7.528,5.27 -11.327,7.853 -2.582,1.755 -5.218,3.43 -7.837,5.127 -2.975,1.938 -5.974,3.838 -8.931,5.803 -1.107,0.736 -2.102,1.644 -3.189,2.415 -2.451,1.74 -4.957,3.409 -7.386,5.18 -2.949,2.148 -5.748,4.512 -8.784,6.526 -3.758,2.492 -7.215,5.339 -10.661,8.213 -0.992,0.829 -1.869,1.804 -2.898,2.58 -1.76,1.331 -3.578,2.59 -5.415,3.817 -1.021,0.683 -2.126,1.243 -3.105,1.809 -0.754,-1.031 -1.351,-1.847 -1.963,-2.681 m 235.174,-177.142 c -0.421,-0.588 -0.784,-1.012 -1.063,-1.49 -0.311,-0.532 -0.902,-1.277 -0.737,-1.646 0.504,-1.135 1.255,-2.179 2.042,-3.154 0.22,-0.266 0.903,-0.14 1.362,-0.238 0.439,-0.096 0.874,-0.233 1.305,-0.375 1.154,-0.379 0.719,-1.206 0.475,-1.908 -0.252,-0.719 -1.554,-1.401 -1.944,-0.992 -0.609,0.645 -1.534,1.002 -1.755,2.074 -0.301,1.498 -1.473,2.454 -2.515,3.623 -0.832,-1.242 -1.55,-2.36 -2.324,-3.442 -1.019,-1.439 -1.056,-1.549 0.247,-2.768 0.351,-0.328 0.969,-0.652 1.379,-0.569 1.594,0.331 1.649,0.35 1.993,-1.3 0.219,-1.046 -0.379,-1.754 -1.627,-1.937 -0.798,-0.118 -1.736,0.698 -1.799,1.537 -0.022,0.268 -0.017,0.599 -0.167,0.776 -0.545,0.633 -1.153,1.213 -1.761,1.842 -0.121,-0.077 -0.237,-0.145 -0.353,-0.217 -1.467,-0.857 -2.951,-1.694 -4.39,-2.602 -0.186,-0.116 -0.306,-0.725 -0.175,-0.889 0.49,-0.63 1.069,-1.203 1.662,-1.743 2.995,-2.747 6.918,-3.699 10.515,-5.182 3.634,-1.494 7.207,-3.046 10.276,-5.47 5.297,-4.183 11.294,-7.429 16.166,-12.183 2.666,-2.602 5.513,-5.022 8.158,-7.653 4.462,-4.431 8.819,-8.974 13.236,-13.452 0.838,-0.85 1.778,-1.589 2.627,-2.421 1.926,-1.889 3.818,-3.808 5.743,-5.7 1.11,-1.101 2.255,-2.167 3.393,-3.256 0.109,0.056 0.239,0.078 0.281,0.152 0.829,1.43 1.687,2.846 2.429,4.323 0.155,0.311 0.027,1.01 -0.23,1.247 -2.614,2.386 -5.305,4.684 -7.932,7.06 -1.925,1.733 -3.817,3.505 -5.65,5.337 -0.741,0.737 -1.232,1.715 -1.913,2.511 -1.666,1.932 -3.362,3.838 -5.074,5.731 -2.529,2.804 -5.072,5.597 -7.633,8.372 -0.874,0.949 -1.833,1.821 -2.725,2.754 -0.776,0.812 -1.49,1.682 -2.271,2.489 -1.116,1.16 -2.376,2.202 -3.383,3.452 -2.976,3.691 -5.869,7.454 -8.781,11.194 -1.234,1.579 -2.447,3.166 -3.694,4.731 -0.517,0.652 -1.178,1.198 -1.625,1.89 -0.427,0.66 -0.631,1.461 -0.979,2.174 -0.475,0.975 -1.08,1.897 -1.47,2.901 -0.973,2.484 -1.904,4.978 -3.504,7.161 -1.162,1.587 -2.679,1.644 -3.817,0.043 -0.165,-0.231 -0.316,-0.471 -0.487,-0.691 -1.21,-1.582 -1.213,-1.611 0.177,-3.088 0.097,-0.103 0.187,-0.209 0.282,-0.314 0.401,-0.459 0.761,-0.689 1.436,-0.314 0.97,0.54 2.233,0.31 2.865,-0.325 0.778,-0.788 0.666,-1.255 -0.369,-1.591 -0.195,-0.065 -0.398,-0.152 -0.55,-0.284 -0.893,-0.754 -2.015,-0.577 -2.728,0.395 -0.829,1.123 -1.693,2.218 -2.624,3.425 M 39.796,-12.105 c -0.691,0.51 -1.306,0.853 -1.78,1.338 -1.839,1.889 -3.958,3.419 -6.117,4.904 -2.82,1.943 -5.575,3.993 -8.511,5.749 C 21.023,1.302 18.457,2.398 15.943,3.561 11.908,5.426 7.655,6.584 3.265,7.248 2.486,7.365 1.696,7.395 0.922,7.532 0.331,7.635 -0.239,7.95 -0.833,7.989 -2.391,8.09 -3.958,8.061 -5.517,8.16 -5.802,8.176 -6.07,8.541 -6.344,8.746 c 0.221,0.223 0.402,0.53 0.668,0.651 1.655,0.764 3.216,1.644 4.017,3.39 1.105,2.404 1.36,4.955 0.832,7.508 -0.73,3.534 -2.648,6.491 -5.156,9.012 -2.117,2.126 -4.75,3.006 -7.799,2.627 -2.403,-0.299 -4.482,-1.37 -6.534,-2.521 -2.363,-1.327 -3.395,-3.439 -3.429,-6.08 -0.012,-0.903 0.012,-1.812 0.117,-2.707 0.144,-1.215 0.2,-2.487 0.617,-3.612 0.722,-1.939 1.586,-3.844 2.584,-5.658 C -17.189,5.479 -12.291,1.992 -5.539,1.217 -3.411,0.973 -1.304,0.558 1,0.192 1.403,0.934 1.964,1.967 2.56,3.068 2.921,2.887 3.246,2.725 3.695,2.502 2.604,0.804 1.571,-0.765 0.58,-2.361 0.232,-2.923 0.022,-3.567 -0.319,-4.134 -0.521,-4.475 -0.851,-4.976 -1.12,-4.975 c -0.34,0.004 -0.746,0.389 -0.999,0.705 -0.473,0.595 -0.774,1.336 -1.29,1.877 -0.876,0.916 -2.025,1.365 -3.263,0.949 -1.695,-0.569 -2.974,-1.693 -3.263,-3.535 -0.327,-2.097 0.473,-3.908 2.201,-5.051 2.081,-1.376 4.408,-2.314 6.886,-2.783 1.346,-0.257 2.93,1.093 2.671,2.341 -0.249,1.2 -0.72,2.355 -1,3.555 -0.082,0.338 0.063,0.809 0.259,1.124 0.865,1.408 1.8,2.771 2.686,4.166 0.731,1.152 1.424,2.321 2.13,3.486 C 7.44,1.4 7.44,1.4 6.567,0.065 5.525,-1.536 5.638,-1.839 7.489,-2.46 c 0.036,-0.01 0.067,-0.023 0.103,-0.032 2.932,-0.854 5.627,-2.204 8.114,-3.969 0.613,-0.436 0.961,-0.356 1.319,0.296 0.521,0.954 1.086,1.889 1.702,2.781 0.149,0.216 0.568,0.242 0.863,0.356 0.018,-0.331 0.16,-0.728 0.026,-0.977 -0.476,-0.887 -1.078,-1.707 -1.575,-2.585 -0.347,-0.614 -0.557,-1.305 -0.91,-1.914 -0.454,-0.781 -1.116,-1.46 -1.462,-2.278 -0.513,-1.21 -1.227,-2.053 -2.569,-2.262 -0.241,-0.036 -0.483,-0.072 -0.724,-0.117 -2.078,-0.369 -3.943,-0.975 -4.694,-3.305 -0.993,-3.078 -0.386,-5.108 2.61,-5.856 1.162,-0.29 2.459,-0.233 3.666,-0.096 0.747,0.084 1.614,0.454 2.12,0.987 0.857,0.897 1.486,2.011 2.173,3.059 1.354,2.077 1.06,3.408 -0.912,4.946 -0.35,0.275 -0.682,1.042 -0.542,1.384 0.375,0.911 0.996,1.725 1.552,2.556 0.871,1.306 1.797,2.574 2.647,3.892 0.438,0.682 0.763,1.435 1.145,2.171 1.453,-0.916 1.464,-0.922 0.756,-2.111 -0.54,-0.905 -1.071,-1.819 -1.679,-2.676 -0.389,-0.549 -0.346,-0.857 0.257,-1.146 0.247,-0.116 0.451,-0.332 0.671,-0.505 1.645,-1.306 3.299,-2.603 4.935,-3.925 1.383,-1.113 2.706,-2.305 4.128,-3.364 0.998,-0.742 2.089,-1.383 3.211,-1.914 0.29,-0.14 1.001,0.179 1.262,0.499 0.663,0.809 1.194,1.724 1.754,2.617 0.795,1.268 1.567,2.551 2.36,3.843 m 0.78,-1.603 c -0.624,-0.951 -1.159,-1.769 -1.694,-2.584 -0.37,-0.564 -0.217,-0.898 0.373,-1.252 1.44,-0.866 2.872,-1.766 4.226,-2.763 1.667,-1.228 3.193,-2.65 4.882,-3.84 6.24,-4.395 12.521,-8.734 18.784,-13.094 1.064,-0.74 2.101,-1.525 3.186,-2.237 2.977,-1.943 5.967,-3.859 8.956,-5.778 1.025,-0.659 2.059,-1.306 3.101,-1.936 0.965,-0.586 1.987,-1.088 2.913,-1.728 0.981,-0.677 1.902,-1.448 2.805,-2.225 3.856,-3.33 7.674,-6.707 11.552,-10.008 1.845,-1.572 3.793,-3.022 5.696,-4.522 2.515,-1.985 5.011,-3.995 7.555,-5.94 1.757,-1.347 3.621,-2.558 5.365,-3.923 1.494,-1.163 2.805,-2.571 4.334,-3.684 3.655,-2.662 7.402,-5.203 11.101,-7.813 2.095,-1.477 4.187,-2.962 6.248,-4.489 2.624,-1.94 5.214,-3.929 7.818,-5.895 2.523,-1.906 5.056,-3.801 7.568,-5.72 1.563,-1.193 3.077,-2.445 4.645,-3.629 3.306,-2.499 6.675,-4.92 9.938,-7.473 1.874,-1.465 3.553,-3.181 5.394,-4.692 2.85,-2.326 5.759,-4.585 8.656,-6.852 2.239,-1.747 4.471,-3.505 6.765,-5.175 1.341,-0.982 2.819,-1.782 4.207,-2.712 1.554,-1.037 3.079,-2.124 4.355,-3.007 0.706,0.436 1.275,0.625 1.599,1.017 1.042,1.255 2.011,2.579 2.953,3.914 0.093,0.129 -0.106,0.62 -0.302,0.766 -0.984,0.735 -2.028,1.387 -3.016,2.114 -1.362,0.999 -2.711,2.016 -4.031,3.065 -2.699,2.143 -5.325,4.379 -8.069,6.46 -3.419,2.592 -6.958,5.027 -10.388,7.603 -3.377,2.533 -6.647,5.205 -10.025,7.732 -5.068,3.794 -10.178,7.535 -15.295,11.259 -2.244,1.632 -4.55,3.18 -6.833,4.76 -2.862,1.976 -5.769,3.898 -8.587,5.94 -2.582,1.866 -5.029,3.914 -7.609,5.785 -3.076,2.228 -6.225,4.349 -9.344,6.517 -5.021,3.494 -10.046,6.98 -15.068,10.475 -2.483,1.727 -5.015,3.393 -7.43,5.211 -2.184,1.646 -4.188,3.533 -6.367,5.192 -1.98,1.506 -4.2,2.704 -6.113,4.285 -4.498,3.718 -9,7.409 -14.042,10.395 -5.989,3.548 -11.966,7.125 -17.888,10.781 -2.706,1.673 -5.331,3.495 -7.886,5.39 -1.731,1.284 -3.275,2.816 -4.988,4.31 M 169.07,-250.606 c 1.576,0.937 3.034,1.749 4.437,2.648 3.065,1.957 6.144,3.895 9.14,5.954 3.557,2.444 7.027,5.008 10.549,7.514 0.808,0.573 1.551,1.338 2.704,1.141 0.142,-0.026 0.382,0.064 0.469,0.183 0.631,0.862 1.557,1.671 1.781,2.638 0.45,1.964 0.844,4.043 0.668,6.018 -0.294,3.275 -1.582,6.29 -3.636,8.926 -2.656,3.408 -5.185,6.919 -7.974,10.217 -3.247,3.838 -7.201,6.946 -11.195,9.979 -0.805,0.61 -1.729,1.065 -2.556,1.651 -2.488,1.772 -5.202,3.121 -8.157,3.834 -4.22,1.014 -8.493,1.056 -12.737,0.061 -2.372,-0.561 -4.663,-1.073 -6.266,-3.358 -1.213,-1.733 -3.056,-3.016 -4.587,-4.532 -1.192,-1.183 -2.319,-2.427 -3.506,-3.617 -1.037,-1.042 -2.13,-2.025 -3.176,-3.06 -1.543,-1.532 -3.069,-3.076 -4.597,-4.621 -0.683,-0.694 -1.348,-1.407 -2.025,-2.111 0.065,-0.088 0.132,-0.174 0.198,-0.264 0.933,0.234 1.854,0.524 2.799,0.689 3.562,0.627 7.014,0.189 10.454,-0.904 4.185,-1.329 7.998,-3.326 11.306,-6.164 2.842,-2.44 5.497,-5.109 8.161,-7.752 2.9,-2.875 4.929,-6.389 6.188,-10.188 1.325,-4.007 2.148,-8.197 1.673,-12.507 -0.087,-0.788 -0.08,-1.587 -0.115,-2.375 m -23.486,58.855 c -0.157,0.579 -0.261,0.97 -0.369,1.361 -0.229,0.838 -0.358,1.723 -0.712,2.51 -1.113,2.461 -2.583,4.712 -4.388,6.725 -1.124,1.251 -2.32,2.443 -3.511,3.636 -2.182,2.184 -4.241,4.518 -6.612,6.47 -2.727,2.248 -5.792,4.08 -8.615,6.215 -3.011,2.284 -5.983,4.627 -8.843,7.097 -3.245,2.803 -5.78,6.248 -7.977,9.903 -1.293,2.146 -2.265,4.493 -3.385,6.75 -0.671,1.355 -1.542,2.65 -1.981,4.076 -1.098,3.584 -2.095,7.205 -2.952,10.853 -0.569,2.415 -0.918,4.896 -1.2,7.366 -0.304,2.655 -0.888,5.315 -0.188,8.021 0.32,1.24 0.316,2.566 0.64,3.808 0.762,2.922 1.573,5.836 2.483,8.72 0.736,2.327 1.639,4.611 2.486,6.905 0.354,0.954 0.759,1.886 1.141,2.826 -0.105,0.058 -0.209,0.11 -0.314,0.166 -0.203,-0.166 -0.441,-0.301 -0.599,-0.499 -1.125,-1.422 -2.296,-2.811 -3.32,-4.304 -0.916,-1.334 -1.983,-2.246 -3.672,-2.299 -0.251,-0.005 -0.606,-0.23 -0.724,-0.453 -1.664,-3.131 -3.3,-6.273 -4.937,-9.419 -1.524,-2.926 -3.043,-5.848 -4.561,-8.775 -0.257,-0.501 -0.616,-0.986 -0.722,-1.521 -0.612,-3.058 -1.297,-6.113 -1.692,-9.2 -0.379,-2.959 -0.386,-5.962 -0.645,-8.937 -0.382,-4.45 -0.78,-8.898 -0.47,-13.368 0.127,-1.822 0.276,-3.655 0.61,-5.448 0.424,-2.307 1.019,-4.589 1.594,-6.869 0.59,-2.34 1.025,-4.756 1.927,-6.977 1.117,-2.756 2.442,-5.475 4.057,-7.964 1.535,-2.371 3.478,-4.5 5.399,-6.591 1.398,-1.519 3.032,-2.828 4.596,-4.193 3.099,-2.7 6.22,-5.38 9.338,-8.06 1.566,-1.344 3.205,-2.609 4.701,-4.028 1.503,-1.416 2.862,-2.985 4.297,-4.472 3.144,-3.263 5.523,-6.989 6.982,-11.29 0.306,-0.901 0.699,-1.062 1.35,-0.391 1.017,1.05 1.883,2.25 2.886,3.317 1.776,1.898 3.594,3.75 5.413,5.607 2.787,2.844 5.589,5.677 8.382,8.521 1.397,1.42 2.784,2.849 4.107,4.205 m 23.683,-61.456 c 0.273,-0.076 0.4,-0.122 0.532,-0.149 3.378,-0.751 6.579,-1.945 9.058,-4.447 2.073,-2.089 3.933,-4.391 5.929,-6.565 2.815,-3.059 4.801,-6.676 6.907,-10.212 1.009,-1.692 1.761,-3.581 2.978,-5.096 2.087,-2.589 4.308,-5.111 6.733,-7.378 3.814,-3.571 7.749,-7.032 12.516,-9.368 3.127,-1.529 6.101,-3.411 9.314,-4.703 3.28,-1.328 6.757,-2.196 10.183,-3.145 3.439,-0.957 6.981,-1.163 10.545,-1.078 4.986,0.118 9.966,0.223 14.952,0.338 3.569,0.081 7.063,0.623 10.478,1.689 3.453,1.079 6.968,2.003 10.369,3.228 3.73,1.34 7.406,2.853 11.02,4.478 2.398,1.071 4.59,2.595 6.973,3.693 3.326,1.532 6.324,3.476 8.951,6.012 0.17,0.168 0.229,0.441 0.464,0.91 -0.657,-0.211 -1.054,-0.33 -1.438,-0.469 -5.926,-2.184 -11.96,-3.887 -18.334,-3.982 -3.469,-0.049 -6.941,-0.099 -10.407,0.01 -2.515,0.074 -5.037,0.304 -7.527,0.66 -2.031,0.288 -4.023,0.863 -6.025,1.324 -1.262,0.291 -2.531,0.571 -3.776,0.921 -1.232,0.347 -2.438,0.794 -3.662,1.166 -2.751,0.844 -5.497,1.7 -8.258,2.494 -3.811,1.094 -6.572,3.87 -9.579,6.158 -1.959,1.494 -4.05,3.028 -5.405,5.236 -0.208,0.343 -0.633,0.546 -0.955,0.822 -0.796,0.677 -1.653,1.297 -2.371,2.048 -1.617,1.698 -3.162,3.47 -4.75,5.196 -2.139,2.319 -4.065,4.789 -5.79,7.436 -1.758,2.7 -3.768,5.237 -5.526,7.938 -1.956,3.008 -4.025,5.916 -6.611,8.411 -2.281,2.194 -4.332,4.799 -7.864,5.082 -1.089,0.087 -2.182,0.475 -3.224,-0.292 -1.409,-1.036 -2.866,-2.006 -4.299,-3.011 -2.757,-1.929 -5.465,-3.933 -8.279,-5.77 -3.116,-2.042 -6.352,-3.893 -9.482,-5.912 -1.442,-0.929 -2.75,-2.058 -4.108,-3.113 -0.115,-0.086 -0.13,-0.302 -0.232,-0.56 M 124.04,-57.035 c 1.556,-1.217 2.923,-2.367 4.369,-3.404 3.142,-2.255 6.305,-4.479 9.491,-6.667 3.652,-2.506 7.326,-4.982 11.017,-7.429 4.662,-3.088 9.333,-6.162 14.034,-9.184 3.687,-2.375 7.422,-4.68 11.156,-6.982 3.889,-2.396 7.869,-4.653 11.689,-7.156 3.961,-2.593 7.793,-5.385 11.651,-8.131 3.716,-2.644 7.395,-5.346 11.095,-8.014 0.596,-0.429 1.214,-0.825 1.823,-1.235 1.062,-0.714 2.229,-1.309 3.158,-2.167 1.028,-0.948 0.935,-1.81 0.06,-2.958 -0.139,-0.185 -0.225,-0.414 -0.338,-0.621 2.822,-1.657 5.587,-3.281 8.487,-4.982 -0.578,1.805 -0.951,3.423 -0.293,5.153 0.513,1.344 3.313,2.989 4.662,2.428 1.386,-0.578 2.782,-1.217 4.018,-2.061 1.797,-1.229 3.492,-2.617 5.154,-4.026 2.927,-2.477 5.811,-5.003 8.676,-7.548 0.65,-0.574 1.092,-1.381 1.746,-1.947 1.247,-1.086 2.59,-2.054 3.857,-3.118 0.337,-0.282 0.535,-0.719 0.79,-1.089 0.228,-0.329 0.386,-0.724 0.672,-0.984 0.756,-0.683 1.545,-1.332 2.353,-1.958 1.798,-1.402 3.522,-2.893 5.793,-3.577 1.568,-0.471 2.871,0.49 3.279,2.115 0.221,0.872 -0.325,1.511 -1.082,1.759 -0.868,0.281 -1.879,0.586 -2.443,1.222 -0.498,0.562 -0.673,1.605 -0.614,2.412 0.052,0.753 0.781,1.122 1.631,1.217 1.055,0.113 1.94,-0.163 2.791,-0.723 1.377,-0.902 2.145,-2.284 2.961,-3.645 0.707,-1.18 1.026,-2.337 0.595,-3.699 -0.153,-0.484 0.004,-1.066 0.01,-1.468 -0.248,-0.17 -0.619,-0.299 -0.8,-0.56 -1.573,-2.241 -4.546,-3.603 -6.66,-2.746 -1.778,0.718 -3.623,1.533 -5.08,2.741 -4.381,3.637 -8.586,7.481 -12.413,11.722 -0.915,1.015 -1.873,2.022 -2.943,2.853 -3.028,2.346 -6.105,4.629 -9.211,6.866 -0.725,0.525 -1.613,0.878 -2.477,1.122 -0.409,0.115 -0.942,-0.219 -1.421,-0.348 0.229,-0.383 0.439,-0.783 0.698,-1.149 0.474,-0.671 1.457,-1.138 0.884,-2.211 -0.284,-0.529 -0.952,-1.104 -0.856,-1.521 0.112,-0.476 0.881,-0.797 1.362,-1.187 0.053,-0.044 0.095,-0.103 0.152,-0.147 1.148,-0.877 2.101,-2.061 3.658,-2.286 0.202,-0.028 0.416,-0.08 0.615,-0.049 1.888,0.285 3.518,-0.297 5.045,-1.389 1.805,-1.296 3.678,-2.479 4.86,-4.46 0.492,-0.826 0.623,-1.533 -0.356,-1.99 -0.695,-0.319 -1.461,-0.476 -2.326,-0.749 1.086,-1.218 2.123,-2.537 3.318,-3.696 3.281,-3.172 6.712,-6.187 9.91,-9.435 2.311,-2.345 4.357,-4.95 6.496,-7.463 2.915,-3.418 5.778,-6.893 8.719,-10.292 1.535,-1.774 3.2,-3.441 4.798,-5.165 1.123,-1.206 2.238,-2.422 3.349,-3.637 1.033,-1.129 2.058,-2.267 3.07,-3.387 0.688,0.866 1.283,1.635 1.904,2.389 1.044,1.258 2.884,1.405 4.137,0.344 1.438,-1.213 2.406,-2.783 3.038,-4.509 2.069,-5.644 5.105,-10.704 8.95,-15.312 1.957,-2.348 3.839,-4.758 5.739,-7.151 1.33,-1.677 2.527,-3.476 3.973,-5.048 3.466,-3.768 7.084,-7.401 10.573,-11.154 2.434,-2.623 4.779,-5.333 7.119,-8.046 1.901,-2.215 3.526,-4.711 5.645,-6.687 3.872,-3.611 8.015,-6.933 12.047,-10.377 0.412,-0.358 0.806,-0.732 1.277,-1.158 0.521,0.808 1.023,1.482 1.414,2.222 0.725,1.353 1.394,2.74 2.078,4.113 1.029,2.065 2.176,4.085 3.052,6.212 1.424,3.495 2.716,7.048 3.971,10.607 0.482,1.386 0.82,2.847 1.039,4.302 0.597,3.973 1.168,7.938 0.907,11.994 -0.194,2.925 -0.054,5.873 -0.082,8.812 -0.016,1.242 -0.047,2.48 -0.133,3.721 -0.14,1.902 -0.225,3.818 -0.543,5.694 -0.309,1.83 -0.9,3.613 -1.316,5.427 -0.13,0.563 0.045,1.224 -0.158,1.748 -0.739,1.911 -1.561,3.792 -2.4,5.662 -0.3,0.671 -0.762,1.263 -1.088,1.924 -0.91,1.856 -1.756,3.744 -2.682,5.592 -2.298,4.572 -5.482,8.476 -9.138,12.02 -2.192,2.127 -4.351,4.285 -6.591,6.359 -1.779,1.645 -3.58,3.281 -5.509,4.737 -2.089,1.574 -4.53,2.719 -6.485,4.435 -2.842,2.509 -6.339,3.605 -9.667,5.053 -2.035,0.886 -4.322,1.176 -6.457,1.851 -2.84,0.901 -5.652,1.908 -8.468,2.884 -1.091,0.379 -2.133,0.929 -3.244,1.195 -2.939,0.7 -5.779,1.59 -8.226,3.442 -1.138,0.864 -2.397,1.652 -3.313,2.725 -1.289,1.509 -2.308,3.255 -3.45,4.896 -0.069,0.105 -0.206,0.168 -0.279,0.23 -0.128,-0.033 -0.198,-0.041 -0.259,-0.072 -0.123,-0.067 -0.25,-0.133 -0.355,-0.219 -2.801,-2.198 -5.736,-3.774 -9.537,-3.357 -2.944,0.322 -5.673,1.255 -8.424,2.187 -1.779,0.603 -3.529,1.297 -5.239,2.073 -1.811,0.817 -3.61,1.7 -5.309,2.722 -1.071,0.641 -1.899,1.664 -2.934,2.378 -3.091,2.139 -6.038,4.49 -8.478,7.333 -1.487,1.734 -2.74,3.794 -3.606,5.907 -0.76,1.868 -0.911,4.006 -1.178,6.042 -0.237,1.779 0.711,3.344 2.384,4.054 -0.546,0.178 -0.915,0.411 -1.268,0.388 -1.631,-0.115 -3.169,0.175 -4.756,0.58 -3.313,0.842 -6.538,1.839 -9.661,3.233 -3.016,1.345 -5.476,3.398 -7.39,5.974 -2.09,2.812 -3.879,5.853 -5.693,8.859 -2.539,4.212 -5.665,7.955 -9.014,11.521 -3.111,3.318 -7.013,5.631 -10.81,8.012 -2.661,1.669 -5.586,2.935 -8.456,4.241 -3.743,1.696 -7.761,2.495 -11.8,2.988 -2.259,0.274 -4.52,0.857 -6.868,0.451 -0.951,-0.166 -1.999,0.326 -2.994,0.285 -2.719,-0.109 -5.463,-0.149 -8.144,-0.576 -2.521,-0.397 -4.996,-1.168 -7.44,-1.942 -2.747,-0.873 -5.448,-1.873 -7.65,-3.896 -0.68,-0.623 -1.596,-1.031 -2.463,-1.396 -1.543,-0.658 -3.131,-1.206 -4.931,-1.888 M 110.886,-71.68 c -0.172,-0.365 -0.249,-0.548 -0.345,-0.729 -1.357,-2.496 -2.709,-4.995 -4.07,-7.489 -0.871,-1.59 -1.842,-3.138 -2.613,-4.778 -0.686,-1.459 -1.056,-3.063 -1.741,-4.523 -1.785,-3.795 -2.911,-7.801 -4.01,-11.821 -0.549,-2.013 -1.16,-4.022 -1.49,-6.074 -0.429,-2.646 -0.796,-5.337 -0.84,-8.016 -0.059,-3.44 0.576,-6.839 1.314,-10.204 0.437,-1.994 0.694,-4.033 1.256,-5.99 0.649,-2.249 1.424,-4.484 2.369,-6.625 0.875,-1.983 2.237,-3.759 3.041,-5.764 0.936,-2.328 1.872,-4.624 3.457,-6.593 1.94,-2.4 3.593,-5.049 6.039,-7.018 1.859,-1.494 3.671,-3.058 5.58,-4.488 2.891,-2.167 5.872,-4.213 8.771,-6.369 2.112,-1.569 4.29,-3.088 6.192,-4.889 2.747,-2.609 5.3,-5.423 7.87,-8.208 0.893,-0.972 1.716,-2.05 2.346,-3.199 0.873,-1.597 1.517,-3.317 2.303,-4.966 0.102,-0.21 0.48,-0.456 0.692,-0.421 0.757,0.117 1.492,0.365 2.243,0.526 2.363,0.516 4.706,1.267 7.097,1.463 5.606,0.469 10.937,-0.833 15.774,-3.651 3.015,-1.755 5.831,-3.891 8.611,-6.023 1.973,-1.506 3.771,-3.256 5.586,-4.965 2.595,-2.445 4.757,-5.258 6.779,-8.188 1.476,-2.141 3.137,-4.152 4.533,-6.338 0.763,-1.19 1.194,-2.609 1.68,-3.957 0.372,-1.032 0.663,-2.106 0.864,-3.186 0.127,-0.674 -0.001,-1.394 0.017,-2.092 0.059,-2.26 -0.394,-4.385 -1.617,-6.31 -0.325,-0.509 -0.361,-0.75 0.367,-0.914 0.982,-0.221 2.053,-0.438 2.863,-0.983 2.953,-1.994 5.584,-4.395 7.858,-7.139 1.157,-1.405 2.096,-2.987 3.155,-4.477 2.682,-3.775 5.34,-7.567 8.088,-11.294 1.723,-2.344 3.482,-4.68 5.427,-6.844 1.686,-1.876 3.779,-3.38 5.459,-5.262 3.225,-3.622 6.912,-6.727 10.716,-9.675 1.635,-1.267 3.597,-2.214 5.54,-2.965 2.615,-1.007 5.331,-1.773 8.048,-2.48 3.665,-0.954 7.339,-1.925 11.067,-2.579 3.77,-0.66 7.598,-1.071 11.421,-1.343 2.473,-0.18 4.996,-0.054 7.466,0.191 3.253,0.321 6.474,0.861 9.7,1.369 1.21,0.189 2.41,0.479 3.579,0.839 2.316,0.713 4.587,1.582 6.912,2.248 3.574,1.028 6.949,2.481 10.101,4.448 0.526,0.325 0.978,0.775 1.523,1.054 1.795,0.921 3.654,1.621 5.009,3.349 1.173,1.488 2.788,2.635 4.253,3.883 1.42,1.212 2.404,2.887 4.333,3.599 0.884,0.326 1.519,1.424 2.173,2.246 0.907,1.136 1.743,2.335 2.565,3.532 0.902,1.308 1.761,2.647 2.467,3.715 -1.236,1.249 -2.278,2.248 -3.26,3.298 -1.034,1.097 -1.951,2.304 -3.028,3.359 -1.069,1.051 -2.325,1.916 -3.405,2.958 -2.195,2.12 -4.328,4.301 -6.477,6.466 -2.502,2.514 -4.977,5.05 -7.495,7.548 -2.49,2.474 -5.007,4.922 -7.546,7.35 -1.244,1.185 -2.55,2.308 -3.844,3.445 -0.766,0.674 -1.526,1.356 -2.349,1.955 -3.101,2.257 -6.224,4.473 -9.338,6.716 -1.854,1.333 -3.574,2.924 -5.58,3.966 -3.154,1.64 -6.491,2.93 -9.762,4.337 -0.56,0.242 -1.249,0.221 -1.779,0.507 -1.628,0.89 -3.272,1.767 -4.774,2.846 -1.234,0.883 -2.328,1.995 -3.356,3.123 -0.345,0.378 -0.393,1.119 -0.371,1.683 0.012,0.205 0.651,0.35 0.968,0.573 1.239,0.857 2.471,1.724 3.69,2.606 0.428,0.307 0.424,0.648 0.071,1.06 -1.756,2.044 -3.432,4.168 -5.256,6.15 -2.232,2.428 -4.607,4.728 -6.89,7.119 -3.9,4.096 -7.771,8.23 -11.657,12.342 -1.06,1.122 -2.177,2.192 -3.214,3.338 -2.735,3.02 -5.402,6.103 -8.173,9.097 -2.669,2.895 -5.423,5.712 -8.144,8.555 -0.889,0.928 -1.804,1.83 -2.867,2.902 -0.667,-1.786 -1.372,-3.289 -1.79,-4.866 -0.548,-2.097 -1.199,-4.251 -1.204,-6.383 -0.002,-2.095 0.696,-4.204 1.189,-6.281 0.422,-1.776 -1.451,-5.675 -3.168,-6.279 -0.37,-0.131 -0.838,-0.14 -1.22,-0.044 -0.4,0.1 -0.995,0.327 -1.073,0.611 -0.302,1.132 -0.46,2.308 -0.623,3.47 -0.428,3.104 -0.504,6.202 0.201,9.282 0.071,0.307 0.097,0.626 0.128,0.941 0.14,1.569 0.194,3.151 0.438,4.705 0.175,1.117 0.597,2.195 0.911,3.294 0.037,0.134 0.052,0.276 0.091,0.41 0.296,1 0.498,2.034 0.91,2.983 0.595,1.36 0.657,1.326 -0.668,1.913 -0.322,0.144 -0.636,0.311 -0.936,0.495 -3.01,1.879 -6.024,3.755 -9.025,5.648 -1.324,0.833 -2.626,1.697 -3.919,2.536 -0.889,-1.23 -1.735,-2.355 -2.524,-3.52 -0.821,-1.211 -2.137,-1.581 -3.378,-1.572 -0.86,0.01 -1.757,0.726 -2.557,1.249 -2.144,1.405 -4.32,2.775 -6.343,4.344 -3.716,2.879 -7.318,5.909 -10.992,8.847 -2.716,2.172 -5.478,4.282 -8.201,6.441 -0.687,0.543 -1.272,1.216 -1.964,1.754 -1.858,1.444 -3.752,2.845 -5.629,4.269 -2.969,2.25 -5.915,4.535 -8.913,6.75 -3.616,2.676 -7.295,5.271 -10.909,7.952 -1.972,1.464 -3.817,3.1 -5.803,4.544 -2.101,1.529 -4.329,2.875 -6.444,4.383 -4.088,2.922 -8.152,5.876 -12.193,8.863 -2.764,2.038 -5.474,4.152 -8.334,6.329 M 19.873,-9.896 c -0.52,-0.711 -1.03,-1.225 -1.292,-1.843 -0.142,-0.33 -0.012,-1.026 0.253,-1.239 1.812,-1.466 1.995,-3.417 1.082,-5.21 -0.943,-1.858 -2.055,-3.893 -4.038,-4.815 -1.828,-0.848 -3.937,-0.694 -5.917,-0.282 -1.799,0.377 -3.281,1.408 -3.837,3.189 -0.294,0.935 -0.117,2.103 0.116,3.105 0.574,2.453 1.797,4.361 4.66,4.527 0.243,0.014 0.479,0.13 0.722,0.147 2.4,0.169 3.072,2.198 4.066,3.843 0.107,0.175 -0.229,0.806 -0.511,0.994 -1.439,0.946 -2.879,1.91 -4.41,2.683 C 9.145,-3.976 7.431,-3.335 5.729,-2.686 5.447,-2.579 4.877,-2.715 4.696,-2.943 3.959,-3.872 3.246,-4.84 2.68,-5.879 2.409,-6.377 2.38,-7.074 2.436,-7.664 c 0.073,-0.8 0.306,-1.591 0.519,-2.37 0.407,-1.486 -0.196,-2.601 -1.276,-3.533 -0.199,-0.17 -0.511,-0.354 -0.741,-0.326 -2.207,0.306 -4.367,0.693 -6.477,1.561 -1.886,0.774 -3.473,1.779 -4.43,3.511 -1.152,2.089 -1.842,4.375 0.018,6.43 0.842,0.929 2.053,1.522 3.166,2.316 -0.174,0.077 -0.505,0.278 -0.861,0.368 -2.662,0.689 -5.297,1.436 -7.481,3.226 -2.614,2.146 -4.787,4.673 -6.319,7.69 -1.026,2.024 -1.962,4.11 -2.767,6.233 -0.346,0.914 -0.336,1.991 -0.361,2.997 -0.034,1.49 -0.2,3.039 0.128,4.465 0.822,3.578 3.3,6.137 5.839,8.603 2.787,2.709 6.333,2.883 9.902,2.92 4.113,0.041 7.687,-1.575 10.938,-3.896 2.434,-1.741 3.879,-4.174 4.777,-7.106 1.062,-3.47 1.167,-6.901 0.721,-10.423 -0.067,-0.531 0.017,-0.768 0.739,-0.753 1.809,0.038 3.674,0.123 5.42,-0.259 3.897,-0.847 7.618,-2.301 11.11,-4.24 2.855,-1.588 5.625,-3.336 8.43,-5.018 2.022,-1.213 4.021,-2.461 6.06,-3.646 2.186,-1.268 4.413,-2.469 6.607,-3.731 0.316,-0.182 0.534,-0.537 0.799,-0.816 0.064,0.002 0.156,-0.028 0.2,0.006 1.659,1.202 3.132,0.508 4.521,-0.5 1.45,-1.052 2.805,-2.237 4.269,-3.266 3.453,-2.426 6.944,-4.8 10.425,-7.191 2.623,-1.799 5.294,-3.534 7.866,-5.405 1.67,-1.214 3.153,-2.684 4.804,-3.925 1.756,-1.323 3.251,-2.999 5.383,-3.845 0.772,-0.309 1.341,-1.107 2.039,-1.633 1.753,-1.319 3.552,-2.579 5.284,-3.926 1.747,-1.355 3.368,-2.874 5.152,-4.169 4.973,-3.608 10.029,-7.101 14.996,-10.713 2.959,-2.147 5.803,-4.46 8.717,-6.668 0.667,-0.505 1.431,-1.266 2.132,-1.247 1.179,0.027 2.453,0.388 3.493,0.961 3.126,1.729 6.12,3.7 9.25,5.418 1.209,0.664 2.635,0.958 3.986,1.345 2.153,0.623 4.298,1.391 6.503,1.716 2.84,0.418 5.738,0.638 8.611,0.614 3.509,-0.026 7.052,-0.14 10.508,-0.674 4.573,-0.708 9.128,-1.68 13.279,-3.931 1.289,-0.697 2.723,-1.162 3.945,-1.956 4.339,-2.827 8.852,-5.402 12.807,-8.783 0.715,-0.613 1.337,-1.345 1.989,-2.035 4.099,-4.291 7.679,-8.978 10.786,-14.034 1.341,-2.183 2.695,-4.366 4.214,-6.422 1.677,-2.273 3.936,-3.923 6.518,-5.066 1.917,-0.848 3.857,-1.669 5.844,-2.331 1.788,-0.597 3.641,-1.014 5.486,-1.402 0.663,-0.138 1.404,0 2.098,0.089 1.176,0.156 2.339,0.371 3.504,0.562 0.083,-0.119 0.164,-0.238 0.244,-0.36 -0.168,-0.325 -0.291,-0.691 -0.519,-0.965 -0.587,-0.695 -1.188,-1.386 -1.846,-2.009 -1.441,-1.364 -1.548,-3.028 -1.083,-4.777 0.644,-2.405 1.179,-4.869 2.15,-7.142 0.608,-1.423 1.783,-2.706 2.965,-3.759 2.406,-2.145 5.104,-3.964 7.47,-6.149 3.081,-2.85 6.729,-4.532 10.629,-5.797 2.831,-0.916 5.651,-1.912 8.537,-2.608 4.323,-1.043 8.107,0.072 11.095,3.455 0.419,0.469 0.63,1.116 1.126,2.039 0.52,-0.936 1.002,-1.566 1.25,-2.279 0.72,-2.067 2.03,-3.755 3.426,-5.36 1.685,-1.936 3.803,-3.341 6.165,-4.337 1.478,-0.627 3.001,-1.173 4.538,-1.65 3.185,-0.986 6.404,-1.87 9.59,-2.852 4.12,-1.271 8.306,-2.394 12.306,-3.976 2.625,-1.035 5.021,-2.681 7.413,-4.223 2.186,-1.406 4.299,-2.947 6.319,-4.588 4.246,-3.461 8.332,-7.075 12.018,-11.186 2.548,-2.837 5.056,-5.676 7.118,-8.848 1.503,-2.316 2.64,-4.873 3.862,-7.364 0.933,-1.894 1.715,-3.863 2.609,-5.773 1.569,-3.35 2.246,-6.95 2.977,-10.525 0.381,-1.882 0.619,-3.799 0.768,-5.711 0.136,-1.805 0.045,-3.628 0.102,-5.447 0.069,-2.371 0.299,-4.746 0.242,-7.112 -0.078,-3.253 -0.322,-6.503 -0.559,-9.752 -0.108,-1.498 -0.256,-3.008 -0.587,-4.467 -0.382,-1.651 -0.951,-3.268 -1.514,-4.871 -0.916,-2.612 -1.812,-5.239 -2.878,-7.792 -0.894,-2.134 -1.966,-4.198 -3.052,-6.242 -1.215,-2.288 -2.537,-4.517 -3.813,-6.776 -0.345,-0.611 -0.566,-1.203 -0.02,-1.847 0.191,-0.223 0.282,-0.555 0.344,-0.856 0.268,-1.3 0.526,-2.605 0.758,-3.917 0.053,-0.298 0.121,-0.75 -0.037,-0.904 -0.695,-0.692 -0.261,-1.155 0.185,-1.71 2.087,-2.593 4.191,-5.179 6.206,-7.826 0.991,-1.309 1.814,-2.748 2.707,-4.133 0.426,-0.661 0.276,-1.247 -0.379,-1.62 -0.67,-0.381 -1.368,-0.784 -2.103,-0.936 -0.455,-0.093 -1.106,0.137 -1.494,0.44 -2.458,1.926 -4.846,3.942 -7.309,5.858 -0.849,0.667 -1.846,1.151 -2.788,1.687 -0.173,0.099 -0.509,0.143 -0.655,0.044 -1.431,-0.971 -3.023,-0.794 -4.582,-0.599 -0.929,0.115 -1.606,0.007 -2.357,-0.694 -2.849,-2.652 -5.937,-5.058 -8.663,-7.821 -1.84,-1.861 -3.969,-3.077 -6.228,-4.211 -0.879,-0.44 -1.637,-1.112 -2.498,-1.579 -1.02,-0.546 -2.13,-0.917 -3.145,-1.478 -0.924,-0.509 -1.925,-1.028 -2.616,-1.79 -2.713,-2.996 -5.743,-5.529 -9.399,-7.321 -3.499,-1.714 -6.92,-3.582 -10.402,-5.327 -4.548,-2.279 -9.357,-3.914 -14.228,-5.327 -3.976,-1.151 -7.988,-2.233 -12.048,-3.013 -4.347,-0.823 -8.781,-0.907 -13.209,-0.631 -0.732,0.044 -1.486,0.072 -2.215,-0.01 -4.412,-0.487 -8.801,0.125 -13.137,0.639 -3.191,0.375 -6.32,1.507 -9.391,2.558 -2.883,0.986 -5.752,2.115 -8.443,3.528 -3.32,1.744 -6.581,3.658 -9.628,5.834 -4.934,3.526 -9.505,7.519 -12.961,12.584 -1.937,2.837 -3.552,5.897 -5.457,8.76 -1.804,2.712 -3.712,5.364 -5.731,7.92 -1.605,2.034 -3.363,3.969 -5.215,5.783 -1.819,1.788 -4.048,3.034 -6.492,3.814 -1.226,0.39 -2.479,0.716 -3.743,0.924 -1.021,0.169 -1.008,0.842 -0.94,1.541 0.211,2.145 0.562,4.279 0.699,6.427 0.208,3.309 -0.669,6.459 -1.528,9.622 -1.444,5.333 -4.7,9.486 -8.556,13.198 -2.418,2.332 -5.088,4.416 -7.721,6.511 -2.828,2.252 -6.137,3.545 -9.615,4.398 -1.634,0.4 -3.288,0.76 -4.956,0.949 -0.979,0.109 -2.006,-0.125 -3.003,-0.268 -2.132,-0.302 -4.231,-0.747 -6.092,-1.916 -0.468,-0.294 -0.887,-0.671 -1.34,-1.001 -1.139,-0.822 -2.087,-0.478 -2.554,0.822 -1.193,3.336 -2.698,6.494 -5.122,9.15 -1.466,1.607 -2.719,3.423 -4.274,4.934 -2.134,2.082 -4.47,3.953 -6.707,5.927 -2.766,2.439 -5.51,4.905 -8.28,7.345 -1.98,1.74 -4.176,3.275 -5.933,5.212 -2.163,2.388 -4.124,5 -5.892,7.696 -2.11,3.217 -3.384,6.857 -4.388,10.561 -0.769,2.839 -1.338,5.728 -2.024,8.59 -1.262,5.245 -1.341,10.547 -0.951,15.888 0.261,3.573 0.378,7.152 0.658,10.722 0.205,2.592 0.394,5.209 0.923,7.748 0.558,2.686 1.223,5.354 2.61,7.829 2.524,4.502 4.836,9.128 7.2,13.72 0.481,0.931 0.952,1.918 1.136,2.935 0.103,0.565 -0.28,1.321 -0.655,1.843 -0.746,1.042 -0.986,1.97 -0.299,3.047 1.256,1.968 2.621,3.861 3.919,5.801 0.386,0.579 0.71,1.204 1.042,1.818 0.537,0.984 0.98,2.031 1.602,2.955 1.742,2.589 1.766,4.128 -0.264,6.44 -3.017,3.439 -6.106,6.81 -9.177,10.194 -0.824,0.909 -1.753,1.723 -2.539,2.658 -0.831,0.993 -1.134,2.188 -0.741,3.458 0.376,1.221 -0.271,1.776 -1.168,2.463 -3.771,2.878 -7.414,5.926 -11.195,8.786 -3.056,2.311 -6.3,4.375 -9.364,6.679 -2.979,2.237 -5.8,4.68 -8.752,6.953 -2.537,1.955 -5.185,3.759 -7.735,5.698 -2.66,2.02 -5.254,4.126 -7.885,6.187 -0.437,0.341 -0.884,0.686 -1.368,0.952 -0.188,0.098 -0.544,0.065 -0.738,-0.051 -1.425,-0.843 -2.699,-0.797 -3.995,0.294 -0.989,0.832 -1.872,1.793 -2.868,2.613 -1.249,1.03 -2.572,1.968 -3.853,2.956 -1.447,1.113 -2.878,2.248 -4.334,3.347 -0.379,0.287 -0.837,0.465 -1.31,0.725"
             style="fill:#101921;fill-opacity:1;fill-rule:evenodd;stroke:none"
             id="path22"
             inkscape:connector-curvature="0" /></g><g
           id="g24"
           transform="translate(283.2806,148.7992)"><path
             d="m 0,0 c -1.362,-0.406 -3.277,-1.072 -5.367,-0.527 -1.712,0.446 -3.449,0.802 -5.152,1.296 -1.304,0.378 -2.468,2.127 -2.344,3.322 0.086,0.836 1.18,1.946 2.253,2.126 1.782,0.295 3.596,0.31 4.603,-2.071 0.531,-1.248 1.686,-1.644 2.963,-1.631 1.545,0.014 3.106,1.067 3.382,2.539 0.118,0.633 -0.27,1.597 -0.757,2.068 -1.565,1.508 -3.205,2.965 -4.97,4.227 -1.553,1.113 -3.306,1.954 -4.98,2.902 -2.068,1.172 -4.14,2.349 -6.221,3.502 -1.225,0.678 -2.506,1.262 -3.705,1.984 -2.364,1.417 -4.704,2.88 -7.026,4.361 -2.488,1.584 -4.948,3.214 -7.414,4.824 -2.861,1.863 -5.305,4.108 -6.974,7.159 -1.52,2.773 0.381,5.839 3.298,6.32 2.932,0.482 5.608,-0.165 7.927,-1.963 1.522,-1.184 2.066,-2.903 1.689,-4.819 -0.254,-1.284 -2.362,-1.823 -3.636,-1.015 -1.009,0.634 -1.43,1.572 -1.62,2.696 -0.097,0.584 -0.265,1.173 -0.511,1.708 -0.695,1.513 -2.327,1.848 -3.458,0.652 -0.301,-0.323 -0.282,-0.981 -0.347,-1.492 -0.261,-2.09 0.326,-3.714 2.231,-4.939 2.687,-1.724 5.168,-3.772 7.861,-5.483 2.278,-1.441 4.731,-2.601 7.106,-3.888 2,-1.085 4.001,-2.171 5.997,-3.258 2.129,-1.163 4.288,-2.274 6.369,-3.518 3.07,-1.832 6.307,-3.419 8.928,-5.937 C 2.241,9.101 3.163,6.536 3.31,3.678 3.381,2.313 2.239,1.023 0,0"
             style="fill:#101921;fill-opacity:1;fill-rule:evenodd;stroke:none"
             id="path26"
             inkscape:connector-curvature="0" /></g><g
           id="g28"
           transform="translate(43.1957,375.7186)"><path
             d="M 0,0 C 0.318,0.595 0.532,1.108 0.85,1.542 0.985,1.729 1.336,1.759 1.591,1.858 1.567,1.619 1.613,1.336 1.505,1.139 0.964,0.156 0.398,-0.814 -0.186,-1.775 c -0.86,-1.418 -0.466,-2.833 1.047,-3.47 0.221,-0.095 0.691,0.062 0.861,0.261 0.933,1.086 1.811,2.222 2.705,3.34 C 5.451,-2.197 5.583,-2.506 4.932,-3.3 4.064,-4.358 3.142,-5.378 2.168,-6.341 1.94,-6.566 1.352,-6.65 1.038,-6.527 c -1.365,0.542 -2.399,1.524 -2.735,2.959 -0.127,0.552 0.241,1.273 0.513,1.853 0.26,0.557 0.336,0.906 -0.043,1.51 -0.648,1.036 -1.108,2.193 -0.226,3.431 0.506,0.713 0.428,1.922 1.523,2.118 C 1.521,5.602 3.003,5.441 4.247,4.623 6.284,3.279 7.771,1.436 8.84,-0.777 9.829,-2.828 7.666,-5.996 5.681,-6.187 5.352,-6.222 4.932,-6.174 4.689,-5.986 4.412,-5.78 4.285,-5.371 4.095,-5.047 c 0.338,0.045 0.689,0.049 1.011,0.144 0.561,0.165 1.184,0.275 1.644,0.603 1.266,0.904 1.529,2.481 0.763,3.833 C 6.573,1.19 5.315,2.563 3.663,3.499 3.027,3.859 2.219,3.95 1.473,4.076 0.218,4.285 -0.116,3.322 -0.498,2.432 -0.87,1.569 -0.725,0.826 0,0"
             style="fill:#101921;fill-opacity:1;fill-rule:evenodd;stroke:none"
             id="path30"
             inkscape:connector-curvature="0" /></g></g></g></g></svg>