<?xml version="1.0" encoding="UTF-8" standalone="no"?>
<!-- Created with Inkscape (http://www.inkscape.org/) -->

<svg
   xmlns:dc="http://purl.org/dc/elements/1.1/"
   xmlns:cc="http://creativecommons.org/ns#"
   xmlns:rdf="http://www.w3.org/1999/02/22-rdf-syntax-ns#"
   xmlns:svg="http://www.w3.org/2000/svg"
   xmlns="http://www.w3.org/2000/svg"
   xmlns:sodipodi="http://sodipodi.sourceforge.net/DTD/sodipodi-0.dtd"
   xmlns:inkscape="http://www.inkscape.org/namespaces/inkscape"
   version="1.1"
   id="svg2"
   xml:space="preserve"
   width="604.72931"
   height="604.72931"
   viewBox="0 0 604.72931 604.72931"
   sodipodi:docname="Flute.svg"
   inkscape:version="0.92.4 (5da689c313, 2019-01-14)"><metadata
     id="metadata8"><rdf:RDF><cc:Work
         rdf:about=""><dc:format>image/svg+xml</dc:format><dc:type
           rdf:resource="http://purl.org/dc/dcmitype/StillImage" /><dc:title></dc:title></cc:Work></rdf:RDF></metadata><defs
     id="defs6"><clipPath
       clipPathUnits="userSpaceOnUse"
       id="clipPath18"><path
         d="M 0,453.547 H 453.547 V 0 H 0 Z"
         id="path16"
         inkscape:connector-curvature="0" /></clipPath></defs><sodipodi:namedview
     pagecolor="#ffffff"
     bordercolor="#666666"
     borderopacity="1"
     objecttolerance="10"
     gridtolerance="10"
     guidetolerance="10"
     inkscape:pageopacity="0"
     inkscape:pageshadow="2"
     inkscape:window-width="640"
     inkscape:window-height="480"
     id="namedview4"
     showgrid="false"
     inkscape:zoom="0.39025725"
     inkscape:cx="28.186536"
     inkscape:cy="302.36465"
     inkscape:window-x="0"
     inkscape:window-y="0"
     inkscape:window-maximized="0"
     inkscape:current-layer="g10" /><g
     id="g10"
     inkscape:groupmode="layer"
     inkscape:label="Flute"
     transform="matrix(1.3333333,0,0,-1.3333333,0,604.72933)"><g
       id="g12"><g
         id="g14"
         clip-path="url(#clipPath18)"><g
           id="g20"
           transform="translate(154.2337,204.1625)"><path
             d="m 0,0 c -0.119,-0.053 -0.238,-0.109 -0.355,-0.166 -0.1,-0.75 0.4,-1.219 1.154,-1.57 C 0.534,-1.154 0.268,-0.578 0,0 m 111.238,89.412 c 0.019,0.09 0.035,0.182 0.053,0.274 -0.416,0.22 -0.83,0.44 -1.245,0.661 -0.058,-0.078 -0.112,-0.154 -0.169,-0.229 0.07,-0.296 0.137,-0.593 0.225,-0.975 0.436,0.101 0.787,0.185 1.136,0.269 m -2.391,-0.11 c 0.576,1.33 0.344,2.591 -0.535,2.837 0.176,-0.934 0.343,-1.818 0.535,-2.837 M 84.35,68.493 c 0.48,0.199 0.873,0.363 1.388,0.576 -0.473,0.535 -0.879,0.987 -1.444,1.625 -0.065,-0.614 -0.124,-0.898 -0.116,-1.178 0.01,-0.283 0.09,-0.56 0.172,-1.023 M 5.303,21.559 C 5.297,21.687 5.293,21.819 5.285,21.95 4.888,21.973 4.26,22.167 4.135,21.997 3.784,21.512 3.64,20.877 3.414,20.301 3.502,20.234 3.59,20.168 3.675,20.104 c 0.542,0.484 1.087,0.968 1.628,1.455 m 62.6,40.541 c 0.143,-1.142 0.265,-2.109 0.388,-3.074 1.049,1.29 0.894,2.336 -0.388,3.074 M -0.682,0.287 c 0.409,0.863 -1.22,3.826 -1.962,3.953 0.673,-1.357 1.318,-2.658 1.962,-3.953 m 93.858,78.874 c 0.496,2.059 0.232,3.18 -0.776,3.357 0.191,-1.07 -0.011,-2.165 0.776,-3.357 M 39.494,43.631 c 0.793,0.536 1.361,0.919 2.018,1.36 -0.6,0.532 -1.077,0.953 -1.744,1.545 -0.102,-1.063 -0.174,-1.83 -0.274,-2.905 M 22.426,35.405 v -2.698 c 0.755,0.307 1.402,0.571 2.168,0.881 -0.727,0.608 -1.332,1.116 -2.168,1.817 m 34.146,19.171 c 0.096,-0.032 0.193,-0.06 0.29,-0.093 0.656,0.826 0.517,1.935 0.677,2.915 0.094,0.571 -0.201,1.08 -0.967,1.334 z M 4.785,24.875 4.523,24.71 C 4.491,24.135 3.999,23.424 4.791,23.057 5.494,22.732 6.187,21.808 7.345,22.786 6.43,23.536 5.606,24.207 4.785,24.875 m 128.838,82.816 c -0.082,-0.096 -0.16,-0.194 -0.238,-0.29 0.578,-1.397 1.138,-2.799 1.754,-4.178 0.082,-0.185 0.427,-0.254 0.652,-0.377 0.035,0.233 0.158,0.49 0.092,0.687 -0.361,1.073 -0.705,2.156 -1.184,3.176 -0.191,0.406 -0.709,0.661 -1.076,0.982 M 21.549,37.562 c -0.113,0.025 -0.224,0.05 -0.334,0.073 -0.258,-1.789 -0.516,-3.58 -0.783,-5.458 1.224,0.296 1.722,3.276 1.117,5.385 m 15.849,5.333 c 0.524,0.199 0.89,0.34 1.135,0.433 0.147,1.206 0.233,2.282 0.42,3.344 0.154,0.883 -0.144,1.202 -0.88,1.06 -0.219,-1.575 -0.43,-3.072 -0.675,-4.837 m 37.914,21.112 c 0.069,0.098 0.135,0.2 0.205,0.302 -0.911,1.38 -1.811,2.768 -2.751,4.13 -0.102,0.148 -0.434,0.138 -0.661,0.2 -0.052,-0.254 -0.235,-0.589 -0.137,-0.751 0.723,-1.211 1.473,-2.412 2.298,-3.555 0.17,-0.238 0.689,-0.226 1.046,-0.326 m 7.038,3.077 0.553,-0.081 c 0.126,0.313 0.346,0.621 0.36,0.939 0.044,0.998 -0.063,2.004 0.028,2.995 0.091,0.999 -0.48,1.105 -1.361,1.186 0.143,-1.728 0.281,-3.385 0.42,-5.039 m 35.734,32.174 c 0.332,-0.764 0.617,-1.294 0.798,-1.855 0.319,-0.979 0.541,-1.986 0.872,-2.958 0.113,-0.339 0.369,-0.752 0.662,-0.865 0.195,-0.074 0.572,0.32 0.809,0.466 -0.977,1.828 -0.615,4.252 -3.141,5.212 M 35.553,38.106 c -1.078,1.505 -2.117,2.953 -3.192,4.454 -0.447,-0.268 -0.843,-0.507 -1.216,-0.731 0.806,-1.15 1.646,-2.141 2.251,-3.258 0.688,-1.268 0.7,-1.346 2.157,-0.465 m -2.321,4.982 c 0.768,-1.099 1.467,-2.131 2.216,-3.13 0.084,-0.112 0.612,-0.092 0.64,-0.016 0.175,0.438 0.334,0.905 0.365,1.372 0.067,0.947 0.057,1.897 0.063,2.845 0,0.307 -0.043,0.621 -0.073,0.982 -1.136,-0.726 -2.125,-1.361 -3.211,-2.053 M 137.807,97.24 c 0.179,0.018 0.343,0.018 0.5,0.052 1.433,0.317 2.815,2.398 2.504,3.821 -0.48,2.184 -2.088,2.564 -3.331,1.352 -0.259,-0.258 -0.609,-0.527 -0.953,-0.59 -1.327,-0.25 -1.7,-0.611 -1.851,-1.983 -0.108,-0.993 0.547,-2.004 1.537,-2.306 0.522,-0.159 1.072,-0.234 1.594,-0.346 m -28.611,-3.978 c 2.64,1.876 5.22,3.709 7.803,5.547 -0.985,1.244 -1.04,1.301 -2.133,0.597 -1.941,-1.251 -3.846,-2.562 -5.749,-3.873 -1.664,-1.147 -1.654,-1.16 0.079,-2.271 m 15.001,1.482 c -0.109,-0.023 -0.461,-0.076 -0.796,-0.185 -1.176,-0.396 -2,-0.987 -2.563,-2.295 -0.44,-1.011 -0.421,-1.785 0.083,-2.466 0.376,-0.512 1.194,-0.946 1.834,-0.974 1.946,-0.082 3.628,1.595 3.884,3.531 0.168,1.271 -1.092,2.47 -2.442,2.389 M 73.943,63.086 c -0.862,1.405 -1.701,2.801 -2.582,4.17 -0.103,0.162 -0.535,0.315 -0.653,0.233 -1.284,-0.883 -2.538,-1.813 -3.878,-2.79 0.399,-0.171 0.748,-0.223 0.955,-0.427 0.68,-0.658 1.25,-1.441 1.975,-2.046 0.508,-0.427 1.338,-1.032 1.771,-0.872 0.891,0.329 1.61,1.12 2.412,1.732 m 61.162,45.491 c 0.932,-1.07 1.952,-2.031 2.708,-3.168 0.953,-1.431 2.303,-1.625 3.472,-0.215 -0.332,0.365 -0.658,0.757 -1.021,1.115 -1.026,1.005 -1.696,2.139 -1.753,3.646 -0.063,1.616 -1.57,2.784 -2.919,2.238 -1.199,-0.481 -2.295,-1.221 -3.502,-1.879 1.314,-1.154 1.621,-1.188 2.879,-0.487 0.74,0.415 1.474,0.256 2.119,-0.168 0.748,-0.489 0.721,-1.13 -0.005,-1.641 -0.599,0.423 -1.167,1.041 -1.978,0.559 M 4.004,27.186 c 1.039,-1.243 1.566,-1.303 2.516,-0.625 2.096,1.508 4.185,3.033 6.343,4.443 2.184,1.427 4.465,2.702 6.67,4.096 0.51,0.318 0.7,0.877 0.235,1.567 C 14.51,33.504 9.297,30.37 4.004,27.186 m 33.172,21.982 c -1.172,-0.937 -2.131,-1.774 -3.164,-2.512 -1.467,-1.049 -3.004,-2 -4.485,-3.031 C 27.232,42.02 24.959,40.38 22.68,38.75 22.574,38.677 22.401,38.59 22.395,38.5 c -0.034,-0.484 -0.026,-0.972 -0.032,-1.455 0.328,0.084 0.729,0.08 0.977,0.276 1.369,1.055 2.58,2.381 4.07,3.209 2.665,1.486 4.787,3.81 7.773,4.8 1.57,0.521 1.977,1.966 1.993,3.838 m 54.912,14.351 c 0.083,2.609 -1.739,4.618 -4.331,4.556 -3.025,-0.074 -4.819,-1.262 -5.046,-3.763 -0.241,-2.711 1.783,-5.605 3.803,-5.668 3.064,-0.096 5.535,1.962 5.574,4.875 M 6.322,25.157 c 0.244,-0.33 0.371,-0.625 0.592,-0.78 0.621,-0.424 1.236,-0.915 1.932,-1.152 0.894,-0.305 1.863,-0.396 2.801,-0.567 0.266,-0.047 0.621,-0.175 0.793,-0.06 1.165,0.797 2.298,1.647 3.519,2.539 -0.867,1.653 -1.701,3.241 -2.586,4.933 -0.451,-0.292 -0.802,-0.523 -1.131,-0.736 0.852,-1.322 1.67,-2.514 2.397,-3.757 0.281,-0.484 0.174,-1.004 -0.6,-1.277 -0.81,1.456 -1.613,2.9 -2.521,4.533 C 9.795,27.612 8.099,26.413 6.322,25.157 M -3.611,-9.455 c 1.387,1.223 2.779,2.441 4.156,3.684 0.082,0.072 0.086,0.316 0.033,0.441 -0.693,1.619 -1.402,3.228 -2.168,4.975 -2.236,-1.6 -4.275,-3.059 -6.436,-4.606 4.155,-1.275 4.319,-1.449 4.415,-4.494 M 98.227,80.263 c -2.582,-0.686 -5.386,-1.494 -6.827,-4.456 -0.144,-0.3 -0.226,-0.725 -0.13,-1.025 0.239,-0.753 0.407,-1.751 0.959,-2.127 0.791,-0.535 1.882,-0.712 2.871,-0.829 0.736,-0.09 1.416,0.93 2.284,0.238 0.059,-0.045 0.29,0.104 0.429,0.181 0.619,0.348 1.269,0.654 1.845,1.063 1.742,1.233 1.977,2.736 0.785,4.599 -0.076,0.121 -0.076,0.301 -0.084,0.456 -0.031,1.159 -0.73,1.883 -2.132,1.9 M 44.209,44.085 c -0.986,-0.048 -1.721,0.078 -2.326,-0.147 -1.219,-0.447 -2.584,-0.85 -3.492,-1.697 -1.327,-1.227 -1.737,-2.952 -1.297,-4.824 0.429,-1.836 2.312,-3.19 3.867,-2.67 2.196,0.732 3.947,2.193 5.614,3.693 1.695,1.53 1.78,4.156 -0.702,5.226 -0.605,0.258 -1.295,0.333 -1.664,0.419 m 66.462,35.282 c 0.509,0.179 1.076,0.276 1.524,0.556 2.209,1.381 3.763,3.299 4.608,5.782 0.427,1.262 -0.642,2.968 -1.731,3.424 -0.164,0.067 -0.414,0.091 -0.556,0.014 -0.86,-0.471 -1.771,-0.543 -2.732,-0.635 -1.97,-0.186 -3.208,-1.618 -4.278,-3.077 -0.866,-1.185 -0.762,-2.557 -0.111,-3.871 0.667,-1.34 1.717,-2.078 3.276,-2.193 M 27.551,33.773 c 0.515,0.03 1.134,-0.11 1.525,0.124 1.216,0.723 2.346,1.592 3.508,2.402 0.666,0.463 0.596,1.032 0.186,1.599 -0.717,0.994 -1.447,1.981 -2.217,2.935 -0.1,0.122 -0.545,0.119 -0.718,0 -2.087,-1.385 -4.147,-2.816 -6.231,-4.211 -0.471,-0.318 -0.549,-0.581 -0.116,-0.983 1.147,-1.073 2.345,-2.017 4.063,-1.866 m 31.031,11.689 c 0.492,0.143 1.018,0.214 1.465,0.44 2.52,1.284 4.336,3.167 5.139,5.971 0.629,2.195 -0.315,3.062 -2.028,3.234 -1.295,0.129 -2.613,0.026 -3.922,-0.038 -0.324,-0.015 -0.677,-0.221 -0.945,-0.435 -0.523,-0.418 -1.014,-0.887 -1.488,-1.363 -0.444,-0.445 -0.925,-0.879 -1.248,-1.407 -1.139,-1.859 -0.367,-3.54 0.61,-5.171 0.541,-0.899 1.368,-1.234 2.417,-1.231 m 7.126,9.709 c 0.419,0.627 0.829,1.156 1.142,1.737 0.24,0.452 0.535,0.989 0.491,1.462 -0.145,1.606 -0.403,3.202 -0.669,4.798 -0.136,0.817 -0.603,0.958 -1.301,0.479 -1.199,-0.817 -2.387,-1.65 -3.606,-2.435 -1.156,-0.744 -2.347,-1.434 -3.563,-2.173 0.576,-0.772 1.117,-1.57 1.741,-2.291 0.228,-0.258 0.666,-0.468 1.004,-0.466 1.389,0.007 2.778,0.064 4.01,0.864 0.209,0.134 0.543,0.078 0.818,0.111 0.029,-0.113 0.057,-0.223 0.086,-0.337 -0.388,-0.242 -0.774,-0.485 -1.259,-0.791 0.367,-0.316 0.693,-0.602 1.106,-0.958 M 26.767,32.739 c -0.017,0.076 -0.038,0.154 -0.056,0.228 -0.987,-0.236 -2.01,-0.373 -2.951,-0.729 -1.131,-0.427 -2.376,-0.493 -3.179,-1.806 -1.272,-2.084 -1.249,-4.751 0.474,-6.307 1.17,-1.06 2.991,-1.741 4.512,-0.63 1.189,0.863 2.396,1.713 3.517,2.656 0.559,0.471 1.089,1.075 1.395,1.726 1.248,2.682 0.396,4.569 -2.641,4.858 -0.356,0.035 -0.713,0.004 -1.071,0.004 m 50.285,21.28 c 0.079,0.033 0.157,0.065 0.235,0.099 -0.441,1.149 -0.605,2.554 -1.381,3.395 -1.767,1.918 -4.113,2.09 -6.345,0.647 -0.762,-0.492 -1.28,-1.35 -2.014,-1.904 -1.498,-1.134 -1.692,-2.611 -1.324,-4.282 0.085,-0.403 0.107,-0.922 0.365,-1.163 2.371,-2.189 5.348,-3.498 8.603,-1.565 0.134,0.081 0.327,0.127 0.396,0.246 0.813,1.401 1.554,2.832 1.465,4.527 m -131.406,-84.824 0.323,-0.297 c 4.047,2.668 8.094,5.336 12.14,8.006 -0.037,0.08 -0.074,0.16 -0.113,0.242 -0.239,-0.033 -0.496,-0.017 -0.711,-0.107 -1.271,-0.516 -2.226,-0.141 -2.855,1.033 -0.575,1.069 -1.085,2.164 -1.733,3.459 -2.191,-1.633 -4.401,-3.275 -6.657,-4.957 2.257,-2.549 2.142,-5.017 -0.394,-7.379 m 16.899,20.692 c -0.727,-0.127 -1.468,-0.209 -2.182,-0.391 -1.733,-0.445 -3.072,-1.572 -4.256,-2.805 -2.461,-2.558 -2.956,-4.336 -1.026,-7.543 0.48,-0.793 1.132,-1.335 2.077,-1.062 1.014,0.293 2.062,0.619 2.951,1.164 1.724,1.057 3.391,2.176 4.827,3.688 1.376,1.451 1.933,2.373 1.431,4.16 -0.592,2.121 -1.608,2.841 -3.822,2.789 m 95.06,69.595 c 0.77,0.596 1.299,1.049 1.872,1.44 2.544,1.723 5.125,3.396 7.648,5.151 3.086,2.141 6.127,4.345 9.189,6.523 1.841,1.311 3.668,2.645 5.528,3.932 1.773,1.229 3.568,2.432 5.379,3.608 1.305,0.847 2.677,1.589 3.951,2.48 0.243,0.172 0.152,0.825 0.215,1.256 -0.308,-0.028 -0.651,0.025 -0.916,-0.097 -0.672,-0.313 -1.347,-0.647 -1.957,-1.07 C 86.348,81.197 84.242,79.6 82.049,78.131 79.064,76.132 76.018,74.227 73.004,72.27 70.3,70.514 67.588,68.771 64.916,66.971 c -1.77,-1.189 -3.471,-2.479 -5.211,-3.71 -1.123,-0.797 -2.26,-1.567 -3.192,-2.212 0.385,-0.554 0.774,-1.106 1.092,-1.567 M -8.974,-6.156 c -1.106,-0.313 -2.099,-0.444 -2.952,-0.864 -3.131,-1.531 -4.867,-4.062 -5.443,-7.531 -0.303,-1.822 1.09,-3.299 2.637,-3.541 3.271,-0.506 5.855,0.881 8.175,2.946 0.481,0.423 0.922,1.021 1.112,1.623 0.517,1.636 0.858,3.33 0.509,5.056 -0.085,0.42 -0.335,0.996 -0.668,1.145 -1.111,0.484 -2.292,0.806 -3.37,1.166 m -53.243,-27.948 c 1.637,0.272 3.602,0.51 5.186,1.858 0.549,0.467 1.057,0.988 1.527,1.535 0.688,0.799 1.447,1.578 1.936,2.496 0.332,0.625 0.546,1.584 0.302,2.186 -0.596,1.455 -1.653,2.685 -3.235,3.142 -2.611,0.758 -4.948,0.02 -6.904,-1.781 -0.896,-0.822 -1.582,-1.869 -2.37,-2.811 -1.372,-1.638 -0.967,-3.316 -0.079,-4.976 0.704,-1.313 1.977,-1.549 3.637,-1.649 M 120.158,99.657 c 0.94,-1.098 1.801,-2.116 2.672,-3.126 0.422,-0.488 0.807,-0.975 1.617,-0.75 0.407,0.112 0.891,-0.089 1.341,-0.098 0.341,-0.005 0.757,-0.045 1.013,0.126 1.076,0.71 2.081,1.532 3.164,2.233 0.933,0.608 1.9,1.2 2.923,1.631 0.97,0.41 1.632,1.407 1.288,2.439 -0.758,2.265 -1.542,4.523 -2.348,6.773 -0.284,0.791 -0.945,0.881 -1.605,0.318 -0.414,-0.353 -0.858,-0.68 -1.318,-0.968 -0.852,-0.532 -1.735,-1.015 -2.591,-1.54 -2.504,-1.527 -5.003,-3.063 -7.5,-4.604 -0.532,-0.328 -1.044,-0.691 -1.556,-1.029 1.3,-1.17 2.464,-1.062 3.758,-0.051 1.086,0.852 2.35,1.469 3.526,2.204 1.458,0.909 2.909,1.828 4.356,2.753 0.651,0.412 1.265,0.892 1.942,1.258 0.238,0.126 0.618,0 0.932,-0.013 -0.17,-0.287 -0.28,-0.653 -0.527,-0.844 -0.429,-0.332 -0.947,-0.542 -1.413,-0.829 -1.501,-0.929 -2.986,-1.884 -4.494,-2.798 -1.75,-1.063 -3.522,-2.097 -5.18,-3.085 M 40.332,48.075 c 0.848,-0.934 1.459,-1.69 2.162,-2.349 0.317,-0.296 0.797,-0.506 1.233,-0.573 0.943,-0.145 1.904,-0.195 2.86,-0.236 0.273,-0.012 0.593,0.078 0.825,0.226 0.598,0.374 1.113,0.909 1.742,1.2 1.678,0.767 2.717,2.689 4.84,2.585 0,0.681 -0.092,1.308 0.025,1.895 0.118,0.587 0.29,1.321 0.706,1.655 1.226,0.98 0.845,2.322 0.955,3.523 0.125,1.39 0.029,2.799 0.029,4.2 -0.106,0.043 -0.214,0.087 -0.32,0.131 -5.721,-3.581 -11.441,-7.161 -17.43,-10.913 0.82,-0.259 1.465,-0.671 2.027,-0.581 0.571,0.094 1.071,0.676 1.587,1.062 1.142,0.849 2.236,1.769 3.419,2.557 2.418,1.61 4.887,3.139 7.323,4.719 0.65,0.422 1.24,0.943 1.902,1.342 0.221,0.132 0.58,0.03 0.873,0.034 C 55.025,58.268 54.979,57.978 54.885,57.705 54.85,57.598 54.711,57.517 54.605,57.441 52.803,56.192 51.004,54.94 49.193,53.699 48.531,53.245 47.856,52.81 47.176,52.379 44.889,50.937 42.6,49.501 40.332,48.075 m 179.732,102.061 c 2.157,-0.01 4.006,0.788 5.76,1.903 0.545,0.347 1.102,0.691 1.684,0.968 2.506,1.189 4.783,2.68 6.633,4.773 1.05,1.186 1.757,2.545 1.941,4.131 0.254,2.15 -1.316,3.422 -3.352,2.75 -0.091,-0.031 -0.185,-0.062 -0.271,-0.105 -2.545,-1.192 -5.145,-2.284 -7.615,-3.607 -3.198,-1.71 -6.313,-3.574 -9.418,-5.445 -0.639,-0.383 -1.155,-1.042 -1.586,-1.669 -0.168,-0.243 -0.094,-0.916 0.125,-1.114 1.73,-1.563 3.822,-2.323 6.099,-2.585 M 157.396,96.724 c 0.524,0.343 0.922,0.583 1.293,0.857 2.518,1.85 5.01,3.733 7.547,5.55 1.125,0.811 2.36,1.474 3.512,2.248 1.693,1.139 3.338,2.349 5.041,3.475 1.449,0.963 2.928,1.885 4.43,2.762 1.613,0.945 2.185,2.292 1.824,4.1 -0.295,1.482 -0.51,2.984 -0.828,4.459 -0.479,2.232 -1.615,4.075 -3.526,5.36 -0.306,0.205 -0.929,0.282 -1.23,0.11 -2.416,-1.372 -4.787,-2.823 -7.18,-4.237 -0.668,-0.393 -1.377,-0.713 -2.037,-1.119 -1.42,-0.873 -2.738,-1.97 -4.25,-2.642 -3.41,-1.515 -6.377,-3.683 -9.357,-5.856 -0.721,-0.528 -1.428,-1.075 -2.125,-1.6 3.793,-3.7 6.683,-7.734 6.886,-13.467 m 19.166,30.651 c 0.034,-0.069 0.067,-0.142 0.102,-0.212 0.346,-0.036 0.801,0.057 1.023,-0.13 1.061,-0.91 2.293,-1.742 3.038,-2.882 2.027,-3.096 3.31,-6.48 2.863,-10.437 0.646,0.201 1.201,0.461 1.703,0.801 1.359,0.927 2.652,1.958 4.055,2.818 1.402,0.86 2.929,1.517 4.351,2.349 2.063,1.211 4.074,2.504 6.114,3.753 1.73,1.056 3.503,2.049 5.201,3.159 2.925,1.911 5.769,3.942 8.713,5.822 2.429,1.551 4.968,2.926 7.423,4.433 2.141,1.314 4.241,2.697 6.352,4.063 2.197,1.42 4.387,2.857 6.58,4.289 1.531,1 3.07,1.994 4.594,3.013 1.629,1.09 3.263,2.174 4.859,3.312 1.34,0.957 2.567,2.079 3.951,2.959 1.916,1.208 3.901,2.283 5.52,3.927 0.803,0.816 1.81,1.428 2.635,2.061 -0.198,0.552 -0.475,1.03 -0.534,1.532 -0.193,1.625 -0.472,3.244 -1.546,4.517 -1.413,1.671 -2.95,3.235 -4.459,4.82 -0.608,0.64 -1.25,0.448 -1.918,0 -1.825,-1.226 -3.649,-2.468 -5.528,-3.612 -1.384,-0.842 -2.865,-1.525 -4.285,-2.306 -0.426,-0.234 -0.75,-0.463 -0.498,-1.144 0.268,-0.734 0.367,-1.59 0.305,-2.374 -0.319,-3.926 -2.834,-6.371 -5.897,-8.364 -1.459,-0.949 -3.013,-1.763 -4.554,-2.582 -1.366,-0.724 -2.709,-1.606 -4.176,-2.008 -3.049,-0.84 -5.887,-0.173 -8.395,1.819 -0.572,0.455 -1.213,0.704 -1.951,0.164 -2.615,-1.911 -5.234,-3.817 -7.896,-5.664 -1.245,-0.863 -2.588,-1.581 -3.881,-2.374 -0.436,-0.267 -0.846,-0.581 -1.285,-0.848 -1.762,-1.079 -3.571,-2.089 -5.287,-3.235 -2.389,-1.59 -4.68,-3.333 -7.075,-4.915 -2.386,-1.575 -4.855,-3.023 -7.277,-4.548 -0.996,-0.629 -1.961,-1.316 -2.94,-1.976 M 93.713,83.363 c 0.22,0.361 0.35,0.856 0.67,1.058 4.191,2.667 8.414,5.283 12.613,7.943 0.232,0.146 0.426,0.555 0.414,0.834 -0.015,0.443 -0.221,0.879 -0.355,1.355 -4.965,-3.198 -9.942,-6.408 -15.151,-9.763 0.71,-0.544 1.273,-0.974 1.835,-1.404 0.042,-0.116 0.048,-0.283 0.132,-0.344 0.729,-0.519 1.429,-1.11 2.229,-1.492 0.457,-0.219 1.125,-0.236 1.619,-0.084 1.055,0.321 2.448,-0.102 3.041,-1.086 0.695,-1.147 0.665,-1.1 1.886,-0.394 0.902,0.525 1.889,0.904 2.838,1.347 0.034,-0.081 0.073,-0.158 0.106,-0.239 -0.731,-0.511 -1.457,-1.025 -2.192,-1.527 -0.102,-0.07 -0.247,-0.077 -0.365,-0.129 -1.235,-0.539 -1.388,-0.99 -1.195,-2.28 0.261,-1.746 -0.133,-3.345 -1.561,-4.536 -1.312,-1.099 -2.802,-1.775 -4.511,-2.072 -1.536,-0.268 -2.963,-0.179 -4.264,0.689 -0.354,0.236 -0.556,0.7 -0.785,1.001 -1.156,-0.865 -2.241,-1.677 -3.543,-2.65 0.786,-0.222 1.301,-0.391 1.824,-0.507 2.727,-0.604 4.523,-3.56 4.046,-6.324 -0.425,-2.463 -1.8,-4.063 -3.989,-4.996 -2.366,-1.007 -5.013,-0.95 -6.166,2.146 -0.33,0.881 -0.9,1.667 -1.323,2.514 -0.093,0.182 -0.102,0.453 -0.052,0.656 0.277,1.1 0.449,2.077 0.027,3.298 -0.474,1.379 -0.23,2.999 -0.354,4.508 -0.078,0.91 0.158,1.883 -0.572,2.695 -0.136,0.151 0.137,0.667 0.238,1.084 2.352,-1.333 4.385,-2.705 5.599,-4.699 1.452,1.14 2.756,2.161 4.114,3.228 -0.72,1.103 -0.502,2.237 0.305,3.254 1.262,1.589 0.866,3.345 0.735,5.29 -6.6,-3.73 -12.566,-8.058 -18.465,-12.494 0.767,-1.086 1.549,-2.195 2.336,-3.297 0.902,-1.268 0.908,-1.249 2.156,-0.351 0.853,0.617 1.738,1.207 2.861,0.965 0.065,-0.105 0.13,-0.21 0.194,-0.315 -1.09,-0.673 -2.178,-1.341 -3.051,-1.88 1.693,-2.098 3.288,-4.083 4.893,-6.059 1.388,-1.711 2.933,-2.991 5.398,-2.48 2.316,0.484 4.567,0.21 6.651,-1.034 0.203,-0.12 0.597,-0.094 0.821,0.021 1.519,0.776 3.066,1.52 4.512,2.421 1.721,1.07 3.328,2.324 5.031,3.43 1.111,0.72 2.344,1.253 3.444,1.987 2.464,1.641 4.845,3.409 7.317,5.032 4.484,2.942 8.999,5.84 13.528,8.715 2.646,1.679 5.358,3.26 8.014,4.927 0.957,0.599 1.816,1.357 2.754,1.986 1.721,1.153 3.496,2.231 5.199,3.406 1.379,0.954 2.639,2.08 4.039,2.997 1.698,1.113 3.53,2.017 5.219,3.142 0.963,0.638 1.752,1.534 2.803,2.48 -1.043,0.038 -1.844,0.082 -1.908,1.001 -0.182,2.511 -0.668,4.924 -1.926,7.137 -1.127,1.978 -2.26,3.97 -4.442,4.986 -0.31,0.145 -0.857,0.049 -1.175,-0.136 -1.03,-0.6 -1.995,-1.312 -3.002,-1.952 -1.377,-0.877 -2.773,-1.73 -4.198,-2.616 0.854,-1.398 1.084,-2.631 0.79,-4.227 -0.458,-2.494 -2.993,-3.502 -4.979,-3.315 -1.334,0.126 -2.156,0.932 -2.537,2.171 -0.218,0.712 -0.502,0.79 -1.112,0.387 -1.806,-1.197 -3.654,-2.328 -5.453,-3.536 -0.223,-0.151 -0.391,-0.643 -0.33,-0.921 0.768,-3.482 -0.787,-5.771 -4.112,-6.617 -1.558,-0.397 -2.207,-0.099 -2.94,1.269 -0.118,0.221 -0.287,0.499 -0.49,0.565 -0.725,0.233 -0.729,0.756 -0.426,1.22 0.585,0.903 0.32,1.701 -0.078,2.551 -0.19,0.408 -0.284,0.86 -0.419,1.295 -0.322,1.037 -0.635,2.076 -0.97,3.161 -2.682,-1.735 -5.266,-3.405 -7.855,-5.078 1.356,-1.958 2.525,-2.535 4.62,-2.408 0.259,0.015 0.536,0.092 0.774,0.023 0.482,-0.135 1.144,-0.218 1.373,-0.564 0.447,-0.667 0.834,-0.734 1.498,-0.41 0.224,0.108 0.583,-0.063 1.052,-0.13 -0.292,-0.257 -0.413,-0.448 -0.577,-0.491 -0.895,-0.244 -0.977,-0.843 -0.861,-1.642 0.213,-1.497 -0.335,-2.849 -1.145,-4.031 -0.703,-1.024 -1.708,-1.838 -2.457,-2.837 -0.885,-1.18 -2.09,-1.66 -3.448,-1.916 -0.798,-0.153 -1.562,-0.21 -2.314,0.317 -2.173,1.522 -3.141,5.856 -1.128,7.983 1.28,1.355 0.794,3.082 0.556,4.781 -0.924,-0.418 -1.733,-0.672 -2.422,-1.116 -1.938,-1.245 -3.811,-2.592 -5.739,-3.852 -1.347,-0.883 -2.728,-1.719 -4.13,-2.508 -0.489,-0.275 -1.088,-0.351 -1.637,-0.517 M 2.333,18.115 c 0.146,0.28 0.249,0.6 0.45,0.83 0.278,0.311 0.512,0.504 0.168,0.975 -0.174,0.236 -0.025,0.726 0.017,1.096 0.208,1.813 0.428,3.627 0.649,5.488 C 1.379,25.926 0.287,23.631 1.119,21.69 1.549,20.687 1.791,19.604 2.115,18.557 L 1.713,18.422 c -0.316,0.873 -0.631,1.744 -0.939,2.617 -0.063,0.178 -0.087,0.373 -0.145,0.555 -0.202,0.623 -0.634,1.269 -0.572,1.86 0.155,1.468 0.757,2.801 2.041,3.671 0.855,0.579 1.789,1.042 2.657,1.602 1.703,1.107 3.358,2.288 5.085,3.354 1.784,1.101 3.641,2.082 5.443,3.152 1.752,1.043 3.512,2.077 5.205,3.211 2.391,1.598 4.711,3.301 7.084,4.926 2.074,1.418 4.201,2.757 6.26,4.196 1.448,1.011 2.777,2.191 4.234,3.183 1.482,1.01 3.053,1.885 4.588,2.817 0.164,0.1 0.348,0.174 0.514,0.276 2.281,1.415 4.59,2.794 6.836,4.265 3.17,2.071 6.283,4.224 9.439,6.316 2.778,1.839 5.588,3.627 8.366,5.467 2.511,1.661 4.987,3.377 7.503,5.031 1.569,1.031 3.209,1.951 4.768,2.993 1.941,1.295 3.797,2.715 5.752,3.988 2.822,1.839 5.709,3.581 8.551,5.39 1.145,0.729 2.221,1.567 3.373,2.284 2.661,1.663 5.383,3.235 8.023,4.931 3.782,2.429 7.491,4.968 11.276,7.393 1.9,1.218 3.904,2.272 5.853,3.42 1.473,0.87 2.941,1.75 4.39,2.662 0.683,0.43 1.298,0.968 1.973,1.412 1.963,1.291 3.904,2.624 5.928,3.816 1.415,0.836 3.342,-0.047 3.74,-1.673 0.364,-1.479 0.998,-2.772 1.899,-3.994 1.112,-1.502 2.06,-1.563 3.422,-0.311 0.969,0.89 2.127,1.572 3.209,2.334 1.687,1.188 3.293,2.543 5.105,3.493 1.602,0.837 2.916,2.003 4.387,2.971 2.039,1.342 4.312,2.321 6.453,3.518 0.918,0.514 1.734,1.202 2.617,1.78 0.912,0.597 1.852,1.152 2.776,1.728 1.558,0.974 3.134,1.923 4.664,2.948 0.424,0.284 0.654,0.846 1.056,1.18 0.522,0.426 1.125,0.75 1.692,1.119 1.64,1.07 3.281,2.143 4.924,3.206 0.316,0.206 0.664,0.365 0.986,0.564 0.906,0.561 1.81,1.121 2.707,1.698 1.221,0.784 2.441,1.568 3.644,2.378 2.604,1.746 5.19,3.517 7.795,5.262 2.463,1.649 4.952,3.267 7.418,4.915 2.58,1.723 5.145,3.468 7.723,5.194 0.289,0.192 0.625,0.316 0.938,0.472 -0.461,1.231 0.443,3.086 1.933,3.968 1.281,0.758 2.578,1.497 3.869,2.242 2.942,1.7 5.846,3.466 8.84,5.069 2.106,1.126 4.318,2.068 6.524,2.992 0.513,0.217 1.193,0.029 1.796,0.047 0.547,0.014 1.196,-0.124 1.629,0.114 2.151,1.178 4.264,2.43 6.356,3.709 1.135,0.694 2.25,1.428 3.285,2.258 1.603,1.288 2.947,0.774 4.051,-0.189 2.658,-2.316 5.017,-4.909 5.662,-8.596 0.088,-0.499 0.324,-0.973 0.496,-1.456 0.297,-0.825 -0.129,-2.213 -0.883,-2.785 -1.752,-1.331 -3.496,-2.669 -5.271,-3.964 -0.461,-0.335 -1.065,-0.471 -1.53,-0.803 -0.968,-0.691 -1.867,-1.48 -2.83,-2.178 -0.883,-0.636 -1.816,-1.193 -2.713,-1.807 -0.324,-0.222 -0.607,-0.504 -0.898,-0.769 -0.404,-0.367 -0.758,-0.817 -1.213,-1.111 -2.896,-1.882 -5.791,-3.78 -8.742,-5.584 -2.391,-1.462 -4.893,-2.748 -7.283,-4.21 -1.649,-1.006 -3.168,-2.217 -4.789,-3.272 -2.608,-1.692 -5.262,-3.303 -7.87,-4.996 -2.003,-1.301 -3.935,-2.72 -5.955,-4.004 -1.881,-1.196 -3.836,-2.278 -5.75,-3.425 -0.804,-0.484 -1.58,-1.013 -2.379,-1.505 -2.619,-1.611 -5.257,-3.188 -7.857,-4.831 -1.914,-1.211 -3.754,-2.537 -5.672,-3.739 -0.515,-0.321 -1.232,-0.6 -1.789,-0.506 -0.717,0.121 -1.131,-0.121 -1.658,-0.484 -3.067,-2.109 -6.158,-4.183 -9.248,-6.262 -2.393,-1.609 -4.819,-3.17 -7.184,-4.812 -2.443,-1.695 -4.842,-3.453 -7.242,-5.208 -0.17,-0.125 -0.242,-0.444 -0.279,-0.686 -0.071,-0.496 -0.035,-0.915 -0.653,-1.233 -0.693,-0.355 -1.173,-1.105 -1.837,-1.546 -1.198,-0.801 -2.477,-1.472 -3.692,-2.245 -1.066,-0.68 -2.092,-1.418 -3.133,-2.138 -2.015,-1.393 -4.015,-2.812 -6.045,-4.18 -1.943,-1.313 -3.915,-2.588 -5.882,-3.857 -3.797,-2.445 -7.587,-4.896 -11.407,-7.305 -2.066,-1.302 -4.207,-2.482 -6.265,-3.793 -1.198,-0.76 -2.277,-1.699 -3.444,-2.506 -2.099,-1.446 -4.226,-2.851 -6.338,-4.282 -1.039,-0.704 -2.046,-1.457 -3.106,-2.125 -1.192,-0.752 -2.433,-1.431 -3.646,-2.15 -2.36,-1.4 -4.742,-2.76 -7.058,-4.227 -0.707,-0.448 -1.18,-1.249 -1.848,-1.779 -1.547,-1.226 -3.123,-2.424 -4.742,-3.551 -0.45,-0.317 -1.103,-0.523 -1.646,-0.491 -1.125,0.069 -2.254,0.262 -3.342,0.551 -0.355,0.092 -0.692,0.596 -0.863,0.988 -0.798,1.837 -1.52,3.705 -2.29,5.552 -0.814,1.956 -1.562,3.966 -3.193,5.428 -0.496,0.446 -1.174,0.685 -1.706,1.1 -0.255,0.2 -0.36,0.589 -0.536,0.892 0.321,0.037 0.692,0.201 0.956,0.096 1.968,-0.788 3.251,-2.334 4.116,-4.178 1.086,-2.311 1.962,-4.717 3.005,-7.049 0.714,-1.599 2.054,-2.198 3.814,-2.172 1.56,0.022 2.398,1.15 3.47,1.926 0.809,0.588 1.549,1.269 2.296,1.935 0.218,0.194 0.454,0.468 0.49,0.731 0.019,0.137 -0.356,0.454 -0.581,0.485 -1.465,0.207 -2.976,0.667 -4.39,0.466 -2.843,-0.408 -4.994,0.399 -6.674,2.764 -1.211,1.705 -2.557,3.325 -3.947,4.891 -0.985,1.112 -1.866,1.11 -3.059,0.244 -0.801,-0.579 -1.58,-1.183 -2.555,-1.917 2.963,0.322 4.489,-1.468 5.503,-3.512 0.548,-1.105 0.279,-2.635 0.277,-3.973 -0.003,-0.566 -0.276,-1.131 -0.401,-1.7 -0.489,-2.23 -2.078,-3.431 -4.271,-4.067 -2.854,-0.829 -4.79,0.516 -6.707,2.169 -0.571,0.49 -0.732,0.111 -1.051,-0.252 -1.113,-1.274 -2.18,-2.611 -3.422,-3.753 -1.168,-1.071 -2.71,-1.381 -4.28,-1.267 -1.443,0.101 -2.167,1.18 -2.783,2.306 -0.304,0.556 -0.493,1.177 -0.754,1.82 -0.234,-0.092 -0.437,-0.17 -0.638,-0.254 -2.038,-0.855 -3.766,-2.193 -5.438,-3.593 -0.201,-0.168 -0.095,-0.852 0.033,-1.247 0.571,-1.761 0.768,-3.523 -0.409,-5.078 -0.753,-0.99 -1.696,-1.875 -2.682,-2.642 -1.012,-0.789 -2.141,-1.455 -3.293,-2.031 -1.469,-0.737 -2.979,-0.352 -4.08,0.652 -0.781,0.713 -1.125,1.898 -1.688,2.92 -0.924,-0.104 -3.807,-1.901 -5.732,-3.649 1.558,-1.508 2.046,-3.345 1.404,-5.398 -0.439,-1.404 -1.332,-2.504 -2.457,-3.508 -1.266,-1.131 -2.521,-2.202 -4.131,-2.791 -1.761,-0.645 -4.625,0.391 -5.493,2.065 -0.705,1.365 -1.224,2.808 -0.974,4.392 0.069,0.434 0.176,0.91 0.423,1.26 0.878,1.253 0.402,2.666 0.683,4.283 -1.994,-1.159 -3.777,-2.199 -5.713,-3.324 0.914,-1.399 1.768,-2.786 2.719,-4.098 0.168,-0.232 0.744,-0.166 1.332,-0.277 -0.11,-0.234 -0.168,-0.644 -0.4,-0.812 C 16.071,24.062 14.5,23.004 12.938,21.926 15.077,18.006 13.641,13.816 9.849,11.348 8.906,10.732 7.919,10.133 6.873,9.738 4.718,8.922 2.566,10.035 1.635,12.271 1.414,12.801 1.201,13.332 0.967,13.904 -1.232,12.43 -3.423,10.965 -5.457,9.602 -4.803,8.93 -4.256,8.385 -3.73,7.82 -3.512,7.59 -3.354,7.293 -3.136,7.055 -0.378,4.033 1.537,0.6 2.182,-3.5 c 0.261,-1.645 0.816,-1.771 2.25,-0.865 2.271,1.429 4.613,2.756 6.893,4.176 1.257,0.781 2.45,1.662 3.673,2.498 2.189,1.494 4.377,2.986 6.563,4.484 2.156,1.475 4.316,2.945 6.46,4.441 2.729,1.903 5.43,3.848 8.171,5.733 1.412,0.969 2.898,1.818 4.327,2.762 4.075,2.688 8.12,5.414 12.208,8.082 1.833,1.195 3.752,2.259 5.601,3.433 3.879,2.465 7.723,4.985 11.608,7.44 2.052,1.297 4.169,2.487 6.242,3.748 0.716,0.44 1.369,0.979 2.082,1.422 1.842,1.144 3.697,2.265 5.556,3.381 0.236,0.141 0.525,0.195 0.809,0.295 0.318,-0.659 0.168,-1.009 -0.392,-1.345 -2.21,-1.338 -4.37,-2.762 -6.593,-4.077 -1.106,-0.654 -2.384,-1.032 -3.455,-1.731 -2.38,-1.56 -4.648,-3.289 -7.021,-4.854 -1.181,-0.779 -2.529,-1.3 -3.744,-2.032 -1.709,-1.037 -3.455,-2.049 -5.022,-3.282 -1.596,-1.256 -3.4,-2.106 -5.119,-3.134 C 51.158,25.805 49.191,24.28 47.127,22.91 46.252,22.329 45.278,21.893 44.381,21.341 43.424,20.754 42.5,20.109 41.566,19.482 39.403,18.021 37.259,16.533 35.074,15.107 33.436,14.035 31.711,13.084 30.09,11.99 28.147,10.686 26.26,9.293 24.37,7.91 23.985,7.631 23.736,7.166 23.351,6.891 22.406,6.232 21.389,5.668 20.451,4.994 18.614,3.674 16.85,2.248 14.984,0.967 13.523,-0.035 11.943,-0.859 10.441,-1.807 8.748,-2.871 7.113,-4.027 5.401,-5.066 4.469,-5.633 3.448,-6.064 2.439,-6.488 2.234,-6.574 1.898,-6.355 1.59,-6.266 c -1.56,-1.218 -3.228,-2.48 -4.842,-3.81 -0.359,-0.295 -0.672,-0.787 -0.762,-1.237 -0.414,-2.011 -1.026,-3.927 -2.629,-5.306 -2.037,-1.756 -4.316,-2.973 -7.151,-2.662 -0.54,0.058 -1.099,0.023 -1.634,0.121 -1.88,0.342 -2.951,1.748 -2.881,3.64 0.071,1.899 0.438,3.709 1.279,5.608 -0.452,-0.205 -0.952,-0.34 -1.351,-0.621 -1.36,-0.969 -2.701,-1.969 -4.004,-3.01 -0.203,-0.164 -0.344,-0.709 -0.228,-0.92 0.613,-1.135 1.318,-2.217 1.988,-3.322 0.214,-0.354 0.41,-0.719 0.643,-1.129 0.263,0.019 0.591,0.047 0.921,0.07 0.034,-0.093 0.071,-0.189 0.106,-0.281 -2.1,-1.65 -4.15,-3.369 -6.316,-4.926 -2.342,-1.681 -4.801,-3.203 -7.196,-4.812 -2.417,-1.625 -4.832,-3.256 -7.228,-4.912 -2.668,-1.844 -5.287,-3.752 -7.975,-5.563 -2.07,-1.394 -4.137,-2.824 -6.338,-3.982 -2.164,-1.139 -4.055,-2.635 -6.03,-4.022 -3.421,-2.394 -6.8,-4.859 -10.253,-7.209 -2.168,-1.474 -4.458,-2.771 -6.664,-4.185 -1.441,-0.926 -2.856,-1.897 -4.246,-2.899 -0.695,-0.496 -1.27,-0.537 -2.033,-0.09 -1.684,0.987 -2.776,2.5 -3.874,4.034 -1.487,2.076 -2.303,4.457 -3.146,6.822 -0.264,0.746 -0.459,1.549 -0.486,2.33 -0.013,0.34 0.478,0.699 0.742,1.049 0.139,-0.483 0.239,-0.979 0.419,-1.448 0.159,-0.412 0.472,-0.773 0.6,-1.193 1.036,-3.416 2.51,-6.566 5.065,-9.156 1.519,-1.541 1.707,-1.619 3.554,-0.422 0.107,0.07 0.231,0.117 0.346,0.178 0.739,0.398 1.518,0.74 2.208,1.209 1.176,0.793 2.269,1.709 3.447,2.498 1.145,0.765 2.365,1.422 3.532,2.154 0.576,0.356 1.093,0.805 1.666,1.162 0.648,0.406 1.378,0.692 1.993,1.139 1.401,1.019 2.705,2.176 4.134,3.15 3.235,2.201 6.523,4.321 9.788,6.473 1.614,1.064 3.236,2.113 4.836,3.191 1.071,0.723 2.056,1.596 3.185,2.207 0.868,0.463 0.871,0.858 0.371,1.553 -0.674,0.932 -1.318,1.887 -1.946,2.848 -0.389,0.593 -0.692,0.718 -1.388,0.269 -2.572,-1.674 -5.203,-3.26 -7.837,-4.832 -1.469,-0.877 -2.989,-1.672 -4.487,-2.494 -1.955,-1.078 -3.892,-2.187 -5.881,-3.201 -1.062,-0.539 -1.763,-0.24 -2.273,0.74 -0.346,0.668 -0.107,1.467 0.751,1.967 2.195,1.273 4.419,2.506 6.654,3.709 0.3,0.16 0.734,0.07 1.104,0.096 0.035,-0.118 0.069,-0.235 0.106,-0.352 -2.308,-1.91 -5.363,-2.699 -7.661,-4.73 0.581,-0.686 1.073,-0.639 1.643,-0.272 0.84,0.541 1.69,1.068 2.566,1.555 2.063,1.138 4.149,2.238 6.216,3.373 1.277,0.701 2.573,1.371 3.795,2.16 1.924,1.238 3.783,2.58 5.697,3.832 0.179,0.119 0.711,0.031 0.836,-0.139 1.046,-1.441 2.02,-2.935 3.064,-4.379 0.138,-0.187 0.635,-0.332 0.824,-0.234 1.199,0.635 2.389,1.291 3.522,2.037 3.431,2.268 6.861,4.535 10.237,6.881 2.601,1.811 5.119,3.738 7.671,5.613 0.745,0.551 0.715,1.26 0.356,1.991 -0.311,0.632 -0.678,1.236 -1.031,1.849 -0.397,0.68 -0.725,1.43 -1.238,2.014 -0.454,0.514 -0.438,0.781 0.089,1.148 0.768,0.537 1.519,1.104 2.272,1.664 1.338,0.994 2.668,1.998 4.018,2.975 0.163,0.119 0.419,0.111 0.779,0.199 -0.223,-0.51 -0.36,-0.812 -0.497,-1.121 0.36,0.004 0.549,0.113 0.666,0.275 1.248,1.743 2.92,2.918 4.878,3.729 1.486,0.611 2.988,1.111 4.235,2.26 1.367,1.265 2.954,2.291 4.452,3.414 0.355,0.269 0.605,0.586 0.189,0.933 -0.162,0.139 -0.589,0.147 -0.791,0.03 -2.441,-1.395 -4.851,-2.84 -7.292,-4.239 -2.18,-1.25 -4.409,-2.425 -6.575,-3.699 -2.721,-1.599 -5.406,-3.258 -8.098,-4.908 -0.822,-0.5 -1.611,-1.057 -2.429,-1.572 -1.117,-0.701 -2.233,-1.41 -3.381,-2.059 -0.33,-0.183 -0.772,-0.164 -1.16,-0.238 -0.026,0.107 -0.049,0.219 -0.074,0.33 0.398,0.18 0.826,0.318 1.183,0.557 1.832,1.222 3.852,2.128 5.567,3.574 1.286,1.086 2.841,1.861 4.297,2.736 2.576,1.547 5.158,3.072 7.753,4.584 1.811,1.055 3.666,2.029 5.463,3.106 1.469,0.88 2.899,1.828 4.303,2.806 0.26,0.18 0.501,0.698 0.429,0.981 C -3.925,5.52 -5.98,6.746 -7.942,7.92 -8.43,7.508 -8.789,7.141 -9.209,6.863 c -0.826,-0.551 -1.696,-1.037 -2.533,-1.572 -1.578,-1.016 -3.147,-2.045 -4.717,-3.07 -3.105,-2.026 -6.228,-4.022 -9.309,-6.084 -2.648,-1.772 -5.241,-3.625 -7.878,-5.418 -0.635,-0.432 -0.694,-0.696 -0.258,-1.444 0.943,-1.625 1.738,-3.41 0.715,-5.32 -0.756,-1.404 -1.633,-2.664 -3.109,-3.549 -1.552,-0.931 -2.833,-2.299 -4.302,-3.383 -2.121,-1.568 -4.279,-3.085 -6.465,-4.56 -1.816,-1.227 -3.685,-2.379 -5.551,-3.525 -1.154,-0.711 -2.376,-1.315 -3.521,-2.038 -1.262,-0.798 -2.4,-1.66 -4.025,-1.861 -2.102,-0.26 -4.083,-0.453 -5.805,1.016 -0.534,0.455 -0.914,1.093 -1.346,1.625 -0.855,-0.744 -1.597,-1.541 -2.48,-2.133 -3.342,-2.236 -6.652,-4.535 -10.122,-6.565 -2.94,-1.714 -5.947,-3.296 -8.598,-5.464 -0.471,-0.383 -1.006,-0.692 -1.508,-1.032 0.299,0.438 0.514,0.985 0.912,1.305 1.597,1.27 3.21,2.523 4.892,3.668 1.211,0.826 2.576,1.42 3.817,2.203 1.853,1.172 3.644,2.438 5.488,3.627 1.133,0.729 2.363,1.315 3.462,2.09 1.237,0.869 2.405,1.85 3.535,2.859 0.263,0.235 0.376,0.782 0.348,1.172 -0.085,1.153 -0.136,2.172 0.875,3.096 0.729,0.668 1.096,1.719 1.672,2.566 1.012,1.496 2.352,2.537 4.149,2.94 0.6,0.134 1.194,0.301 1.777,0.498 1.344,0.455 2.557,0.34 3.594,-0.717 0.348,-0.352 0.684,-0.535 1.166,-0.123 0.584,0.5 1.228,0.937 1.871,1.359 1.447,0.948 2.903,1.881 4.375,2.793 0.506,0.313 0.952,0.557 1.046,1.262 0.212,1.539 1.12,2.744 2.19,3.783 1.188,1.154 2.427,2.283 3.768,3.252 0.612,0.443 1.513,0.588 2.303,0.666 1.121,0.115 2.263,0.029 3.396,0.061 0.258,0.008 0.553,0.091 0.76,0.24 1.371,0.975 2.69,2.029 4.088,2.965 3.476,2.328 6.978,4.617 10.484,6.908 3.313,2.164 6.633,4.326 9.971,6.459 0.828,0.531 1.757,0.906 2.578,1.443 0.436,0.285 0.689,0.84 1.113,1.147 2.082,1.512 4.188,2.998 6.314,4.447 0.276,0.19 0.727,0.127 1.089,0.178 0.23,0.892 0.47,1.922 0.779,2.931 0.066,0.229 0.365,0.383 0.564,0.579 0.01,-0.196 0.043,-0.397 0.014,-0.59 -0.142,-0.975 -0.482,-1.965 -0.418,-2.924 0.139,-2.045 1.776,-3.557 3.691,-3.52 1.471,0.03 2.743,0.668 3.893,1.565 1.844,1.445 3.451,2.976 3.547,5.586 0.08,2.224 -2.776,4.121 -4.387,3.679 C 7.548,21.626 6.455,21.018 5.43,20.391 4.338,19.727 3.361,18.883 2.333,18.115"
             style="fill:#101921;fill-opacity:1;fill-rule:evenodd;stroke:none"
             id="path22"
             inkscape:connector-curvature="0" /></g><g
           id="g24"
           transform="translate(123.0345,184.6449)"><path
             d="m 0,0 c -4.21,-3.334 -9.14,-5.701 -12.967,-9.584 0.432,-0.824 0.887,-1.672 1.328,-2.529 0.269,-0.526 0.563,-0.645 1.048,-0.209 0.568,0.509 1.152,1.013 1.784,1.431 1.83,1.213 3.705,2.364 5.537,3.575 2.451,1.619 4.881,3.267 7.318,4.906 1.103,0.74 2.181,1.521 3.302,2.23 C 8.178,0.342 8.331,1.033 7.715,1.807 7.333,2.287 6.971,2.783 6.628,3.293 6.277,3.822 6.072,4.986 5.382,3.502 5.331,3.391 5.09,3.379 4.959,3.287 3.795,2.475 2.641,1.639 1.467,0.838 0.996,0.516 0.476,0.268 0,0 m 8.654,1.686 c 0.28,-2.479 -1.205,-3.174 -2.451,-3.991 -2.645,-1.744 -5.348,-3.4 -7.991,-5.144 -1.643,-1.082 -3.224,-2.26 -4.832,-3.395 -1.351,-0.951 -2.724,-1.871 -4.038,-2.875 -0.612,-0.467 -1.022,-0.349 -1.354,0.225 -0.726,1.26 -1.437,2.529 -2.093,3.824 -0.098,0.193 0.04,0.676 0.226,0.82 1.391,1.09 2.781,2.192 4.25,3.168 2.746,1.827 5.596,3.504 8.309,5.371 C 0.486,0.934 2.144,2.395 3.848,3.777 4.523,4.328 5.139,4.949 5.803,5.51 5.914,5.604 6.26,5.633 6.301,5.568 7.199,4.121 8.068,2.66 8.654,1.686"
             style="fill:#101921;fill-opacity:1;fill-rule:evenodd;stroke:none"
             id="path26"
             inkscape:connector-curvature="0" /></g><g
           id="g28"
           transform="translate(92.975,173.5629)"><path
             d="M 0,0 C 0.905,0.289 2.286,0.574 3.503,1.186 4.079,1.475 4.728,2.422 4.665,2.998 4.581,3.744 3.985,4.664 2.798,4.252 2.697,4.217 2.507,4.266 2.44,4.346 1.937,4.924 1.368,4.676 0.974,4.328 0.06,3.537 -0.86,2.711 -1.597,1.76 -2.128,1.074 -1.354,0.004 0,0 m -1.196,-1.58 c -0.405,0.357 -1.069,0.682 -1.285,1.193 -0.383,0.907 -0.651,1.938 0.164,2.836 0.734,0.809 1.333,1.879 2.242,2.358 C 1.196,5.48 2.827,6.006 4.169,5.357 6.034,4.453 6.244,2.744 4.581,0.789 3.836,-0.086 2.845,-0.602 1.632,-0.754 0.749,-0.857 -0.099,-1.246 -1.196,-1.58"
             style="fill:#101921;fill-opacity:1;fill-rule:evenodd;stroke:none"
             id="path30"
             inkscape:connector-curvature="0" /></g><g
           id="g32"
           transform="translate(142.1312,189.0472)"><path
             d="M 0,0 C 1.713,0.018 4.278,1.57 4.569,3.047 4.653,3.467 4.647,4.156 4.401,4.336 3.825,4.75 3.362,5.793 2.48,5.295 1.231,4.592 0.005,3.779 -1.036,2.803 -1.481,2.385 -1.628,1.408 -1.523,0.75 -1.475,0.428 -0.536,0.246 0,0 M -0.052,-0.988 C -3.458,-1.061 -3.28,0.643 -2.338,2.916 -1.71,4.43 -0.278,5.27 1.22,5.893 1.339,5.943 1.487,5.937 1.591,6.008 3.347,7.172 3.694,6.486 5.165,5.211 6.179,4.334 5.504,3.156 5.104,2.227 4.509,0.85 1.896,-1.303 -0.052,-0.988"
             style="fill:#101921;fill-opacity:1;fill-rule:evenodd;stroke:none"
             id="path34"
             inkscape:connector-curvature="0" /></g><g
           id="g36"
           transform="translate(115.3695,190.6918)"><path
             d="m 0,0 c -1.099,0.086 -3.267,-1.906 -3.525,-3.277 -0.074,-0.399 -0.059,-1.071 0.167,-1.209 0.408,-0.252 1.148,-0.43 1.494,-0.219 1.384,0.842 2.705,1.805 3.962,2.83 0.263,0.213 0.303,0.928 0.171,1.318 -0.092,0.27 -0.643,0.452 -1.02,0.536 C 0.854,0.068 0.419,0 0,0 m 1.298,1.07 c 1.519,0.02 2.295,-1.175 1.818,-2.597 -0.669,-2.008 -2.453,-2.815 -3.969,-3.924 -0.234,-0.17 -0.502,-0.287 -0.757,-0.428 -1.442,-0.773 -2.721,-0.256 -2.973,1.354 -0.117,0.752 -0.067,1.765 0.355,2.316 1.379,1.787 3.057,3.256 5.526,3.279"
             style="fill:#101921;fill-opacity:1;fill-rule:evenodd;stroke:none"
             id="path38"
             inkscape:connector-curvature="0" /></g><g
           id="g40"
           transform="translate(224.2845,257.7396)"><path
             d="m 0,0 c 0.016,-0.323 0.012,-0.648 0.048,-0.97 0.138,-1.221 0.731,-1.665 1.919,-1.395 1.131,0.258 1.879,1.02 2.269,2.061 C 4.693,0.895 4.109,2.083 2.994,2.459 1.057,3.113 -0.047,2.205 0,0 m -0.789,-0.391 c 0.059,0.716 0.081,1.202 0.144,1.679 0.196,1.45 1.563,2.597 3.034,2.565 1.32,-0.031 2.748,-1.39 2.776,-2.778 0.044,-2.047 -1.669,-4.704 -4.272,-4.548 -0.84,0.052 -1.373,0.587 -1.536,1.382 -0.13,0.629 -0.115,1.286 -0.146,1.7"
             style="fill:#101921;fill-opacity:1;fill-rule:evenodd;stroke:none"
             id="path42"
             inkscape:connector-curvature="0" /></g><g
           id="g44"
           transform="translate(159.0492,219.8011)"><path
             d="M 0,0 C 0.224,-0.473 0.294,-0.855 0.524,-1.059 1.102,-1.566 3.307,-1.436 3.839,-0.885 4.44,-0.26 5.06,0.361 5.546,1.072 5.777,1.412 5.933,2.074 5.754,2.369 5.399,2.957 4.804,3.592 3.997,3.232 2.987,2.783 1.995,2.238 1.11,1.582 0.621,1.219 0.366,0.543 0,0 M -0.771,0.115 C -0.613,1.053 -0.17,2.082 0.919,2.74 1.628,3.17 2.294,3.666 3.021,4.061 4.501,4.863 6.041,4.365 6.669,2.826 6.867,2.34 6.954,1.588 6.713,1.184 5.597,-0.684 4.257,-2.354 1.831,-2.561 0.132,-2.711 -0.843,-1.818 -0.771,0.115"
             style="fill:#101921;fill-opacity:1;fill-rule:evenodd;stroke:none"
             id="path46"
             inkscape:connector-curvature="0" /></g><g
           id="g48"
           transform="translate(178.5248,230.2235)"><path
             d="M 0,0 C 0.959,-0.009 3.189,0.932 4.148,1.891 4.447,2.189 4.723,2.949 4.561,3.17 4.242,3.607 3.641,3.934 3.098,4.074 2.633,4.195 2.086,3.986 1.575,3.941 -0.145,3.783 -0.443,3.54 -0.904,1.897 -1.143,1.047 -0.646,0.006 0,0 m -1.887,1.555 c 0.254,1.023 0.194,2.252 1.256,3.039 0.18,0.134 0.352,0.334 0.552,0.371 C 1.535,5.267 3.164,5.661 4.725,4.752 5.408,4.354 5.744,3.043 5.268,2.211 4.66,1.155 3.943,0.184 2.633,-0.158 1.861,-0.361 1.15,-0.802 0.383,-1.039 -0.799,-1.404 -1.088,-1.217 -1.503,-0.012 -1.619,0.318 -1.746,0.646 -1.846,0.98 -1.888,1.135 -1.871,1.303 -1.887,1.555"
             style="fill:#101921;fill-opacity:1;fill-rule:evenodd;stroke:none"
             id="path50"
             inkscape:connector-curvature="0" /></g><g
           id="g52"
           transform="translate(217.2533,255.3378)"><path
             d="M 0,0 C -0.314,0.721 -0.452,1.381 -0.849,1.794 -1.04,1.99 -1.733,1.765 -2.176,1.641 -4.57,0.972 -4.533,0.418 -4.587,-1.868 c -0.018,-0.774 0.558,-1.117 1.27,-0.812 0.733,0.315 1.474,0.686 2.097,1.177 C -0.717,-1.107 -0.389,-0.494 0,0 m -5.464,-1.412 c 0.012,2.47 2.291,4.512 4.609,4.097 0.487,-0.084 1.056,-0.849 1.22,-1.409 0.553,-1.856 -0.453,-3.155 -1.853,-4.191 -0.509,-0.378 -1.087,-0.761 -1.69,-0.902 -1.488,-0.348 -2.347,0.429 -2.323,1.964 0.003,0.195 0.032,0.388 0.037,0.441"
             style="fill:#101921;fill-opacity:1;fill-rule:evenodd;stroke:none"
             id="path54"
             inkscape:connector-curvature="0" /></g><g
           id="g56"
           transform="translate(267.2005,291.0262)"><path
             d="m 0,0 c -1.75,-0.353 -2.367,-1.896 -2.939,-3.4 -0.15,-0.396 0.072,-1.008 0.296,-1.43 0.075,-0.137 0.768,-0.109 1.052,0.059 1.115,0.657 2.352,1.146 2.926,2.521 0.272,0.653 0.136,0.932 -0.313,1.293 C 0.701,-0.697 0.416,-0.392 0,0 M 2.277,-1.743 C 2.08,-2.798 1.525,-3.824 0.556,-4.523 c -0.672,-0.487 -1.47,-0.835 -2.257,-1.119 -1.346,-0.484 -2.172,0.333 -1.99,1.748 0.259,2.018 1.312,3.362 3.157,4.14 1.101,0.464 2.794,-0.645 2.811,-1.989"
             style="fill:#101921;fill-opacity:1;fill-rule:evenodd;stroke:none"
             id="path58"
             inkscape:connector-curvature="0" /></g><g
           id="g60"
           transform="translate(197.392,245.786)"><path
             d="m 0,0 c -1.573,0.117 -2.326,-0.682 -2.842,-1.824 -0.308,-0.686 -0.246,-1.351 0.324,-1.748 0.372,-0.258 1.04,-0.356 1.472,-0.211 1.4,0.464 2.508,1.416 3.484,2.498 0.569,0.637 0.373,1.08 -0.501,1.181 C 1.297,-0.034 0.647,-0.031 0,0 M -0.391,1.227 C 0.812,1.088 1.801,1 2.779,0.848 3.516,0.732 3.807,0.336 3.582,-0.471 3.215,-1.791 2.589,-2.877 1.376,-3.59 0.963,-3.833 0.611,-4.189 0.207,-4.449 c -0.971,-0.617 -1.972,-0.936 -3.085,-0.296 -0.973,0.559 -1.089,1.409 -0.993,2.41 0.177,1.874 1.937,3.598 3.48,3.562"
             style="fill:#101921;fill-opacity:1;fill-rule:evenodd;stroke:none"
             id="path62"
             inkscape:connector-curvature="0" /></g><g
           id="g64"
           transform="translate(249.6673,277.5966)"><path
             d="M 0,0 C 1.396,0.151 2.955,1.182 3.266,2.367 3.354,2.702 3.205,3.33 2.955,3.484 1.9,4.136 0.471,3.825 -0.336,2.903 -0.484,2.732 -0.637,2.556 -0.817,2.425 -1.368,2.021 -1.597,1.464 -1.219,0.916 -0.947,0.518 -0.416,0.297 0,0 m -2.34,1.28 c 0.25,0.458 0.403,1.026 0.767,1.355 C -0.791,3.338 0.08,3.957 0.961,4.537 1.856,5.125 2.801,4.692 3.584,4.313 4.244,3.998 3.959,3.175 3.885,2.543 3.629,0.354 1.262,-1.134 -0.684,-0.727 -1.734,-0.509 -2.21,0.102 -2.34,1.28"
             style="fill:#101921;fill-opacity:1;fill-rule:evenodd;stroke:none"
             id="path66"
             inkscape:connector-curvature="0" /></g><g
           id="g68"
           transform="translate(241.6693,264.7054)"><path
             d="M 0,0 C 1.182,-0.033 1.875,0.304 2.563,1.249 3.177,2.087 3.032,2.995 2.172,3.576 1.434,4.075 0.687,4.561 -0.073,5.025 -0.215,5.112 -0.456,5.11 -0.626,5.056 -1.684,4.726 -2.525,3.403 -2.387,2.325 -2.162,0.625 -1.562,0.044 0,0 M -0.105,-0.919 C -2.023,-1.364 -3.036,0.512 -3.106,2.354 -3.17,4.011 -1.543,5.811 -0.053,5.834 1.443,5.855 3.854,3.88 3.84,2.585 3.826,1.004 2.465,-1.075 -0.105,-0.919"
             style="fill:#101921;fill-opacity:1;fill-rule:evenodd;stroke:none"
             id="path70"
             inkscape:connector-curvature="0" /></g><g
           id="g72"
           transform="translate(279.5287,297.6039)"><path
             d="m 0,0 c 0.443,-1.756 -0.526,-3.154 -2.062,-3.07 -0.453,0.026 -1.136,0.361 -1.269,0.722 -0.214,0.57 -0.038,1.275 0.727,1.621 0.076,-0.585 -0.573,-1.356 0.395,-1.613 0.813,-0.214 1.578,0.379 1.688,1.191 -0.446,0.135 -0.891,0.268 -1.335,0.401 0.004,0.133 0.01,0.263 0.014,0.394 C -1.248,-0.241 -0.654,-0.126 0,0"
             style="fill:#101921;fill-opacity:1;fill-rule:evenodd;stroke:none"
             id="path74"
             inkscape:connector-curvature="0" /></g><g
           id="g76"
           transform="translate(291.6009,304.8763)"><path
             d="m 0,0 c -0.118,-0.11 -0.237,-0.222 -0.355,-0.332 0.173,-0.556 0.22,-1.224 0.573,-1.62 0.194,-0.218 0.972,-0.096 1.358,0.11 0.236,0.127 0.395,0.986 0.308,1.037 C 1.298,-0.466 0.637,-0.253 0,0 m 0.467,-2.898 c -1.164,0.044 -1.614,0.461 -1.582,1.474 0.031,1.074 1.304,2.115 2.544,2.079 C 1.975,0.64 2.598,-0.091 2.574,-0.688 2.521,-2.058 1.68,-2.941 0.467,-2.898"
             style="fill:#101921;fill-opacity:1;fill-rule:evenodd;stroke:none"
             id="path78"
             inkscape:connector-curvature="0" /></g></g></g></g></svg>