<?xml version="1.0" encoding="UTF-8" standalone="no"?>
<!-- Created with Inkscape (http://www.inkscape.org/) -->

<svg
   xmlns:dc="http://purl.org/dc/elements/1.1/"
   xmlns:cc="http://creativecommons.org/ns#"
   xmlns:rdf="http://www.w3.org/1999/02/22-rdf-syntax-ns#"
   xmlns:svg="http://www.w3.org/2000/svg"
   xmlns="http://www.w3.org/2000/svg"
   xmlns:sodipodi="http://sodipodi.sourceforge.net/DTD/sodipodi-0.dtd"
   xmlns:inkscape="http://www.inkscape.org/namespaces/inkscape"
   version="1.1"
   id="svg2"
   xml:space="preserve"
   width="604.72931"
   height="604.72931"
   viewBox="0 0 604.72931 604.72931"
   sodipodi:docname="French horn.svg"
   inkscape:version="0.92.4 (5da689c313, 2019-01-14)"><metadata
     id="metadata8"><rdf:RDF><cc:Work
         rdf:about=""><dc:format>image/svg+xml</dc:format><dc:type
           rdf:resource="http://purl.org/dc/dcmitype/StillImage" /><dc:title></dc:title></cc:Work></rdf:RDF></metadata><defs
     id="defs6"><clipPath
       clipPathUnits="userSpaceOnUse"
       id="clipPath18"><path
         d="M 0,453.547 H 453.547 V 0 H 0 Z"
         id="path16"
         inkscape:connector-curvature="0" /></clipPath></defs><sodipodi:namedview
     pagecolor="#ffffff"
     bordercolor="#666666"
     borderopacity="1"
     objecttolerance="10"
     gridtolerance="10"
     guidetolerance="10"
     inkscape:pageopacity="0"
     inkscape:pageshadow="2"
     inkscape:window-width="640"
     inkscape:window-height="480"
     id="namedview4"
     showgrid="false"
     inkscape:zoom="0.39025725"
     inkscape:cx="28.186536"
     inkscape:cy="302.36465"
     inkscape:window-x="0"
     inkscape:window-y="0"
     inkscape:window-maximized="0"
     inkscape:current-layer="g10" /><g
     id="g10"
     inkscape:groupmode="layer"
     inkscape:label="French horn"
     transform="matrix(1.3333333,0,0,-1.3333333,0,604.72933)"><g
       id="g12"><g
         id="g14"
         clip-path="url(#clipPath18)"><g
           id="g20"
           transform="translate(229.0189,202.8783)"><path
             d="M 0,0 C 0.539,-0.942 0.998,-1.746 1.563,-2.73 1.596,-1.402 1.625,-0.245 1.652,0.911 1.579,0.955 1.504,0.997 1.43,1.04 0.963,0.703 0.496,0.362 0,0 m -95.251,37.628 c 1.147,0.331 2.203,0.636 3.481,1.003 -1.293,0.527 -2.328,0.95 -3.422,1.394 -0.024,-0.864 -0.041,-1.587 -0.059,-2.397 M 1.47,-2.907 c -0.775,-0.209 -1.017,0.257 -1.232,0.798 -0.111,0.273 -0.263,0.542 -0.441,0.779 -0.724,0.973 -1.248,0.979 -2.073,0.086 0.56,-1.125 1.11,-2.243 1.674,-3.352 0.256,-0.504 0.581,-0.666 1.192,-0.407 0.964,0.409 0.846,1.198 0.88,2.096 M -4.497,8.652 c -0.695,1.499 -1.356,2.949 -2.059,4.378 -0.068,0.14 -0.451,0.269 -0.594,0.203 -0.337,-0.159 -0.647,-0.413 -0.909,-0.685 -0.104,-0.102 -0.109,-0.389 -0.043,-0.544 0.339,-0.788 0.715,-1.562 1.079,-2.339 0.195,-0.417 0.317,-0.895 0.602,-1.237 0.724,-0.859 1.275,0.012 1.924,0.224 m -75.996,4.371 c -2.717,-1.911 -6.25,-2.217 -8.811,-4.586 3.294,0.093 7.622,1.793 8.811,4.586 m 77.568,21.954 c 0.076,0.011 0.152,0.023 0.227,0.036 -0.763,3.279 -0.563,6.449 1.181,9.432 -0.08,0.055 -0.162,0.107 -0.244,0.162 -1.388,-0.911 -2.775,-1.82 -4.16,-2.732 1.001,-2.306 1.997,-4.601 2.996,-6.898 m -96.788,0.771 c 0.414,0.182 0.652,0.273 0.885,0.383 0.492,0.228 0.963,0.515 1.478,0.678 1.185,0.375 1.361,0.551 1.463,1.79 0.022,0.298 -0.005,0.604 0.048,0.897 0.049,0.275 0.175,0.538 0.276,0.823 -0.696,0.369 -1.48,0.744 -2.216,1.193 -0.612,0.369 -0.857,0.321 -1.179,-0.35 -0.788,-1.656 -0.492,-3.448 -0.755,-5.414 m -8.077,-13.047 c 0.011,0.082 0.069,0.272 0.058,0.458 -0.055,0.963 -0.665,1.587 -1.298,1.37 -1.725,-0.59 -3.016,-1.719 -3.968,-3.235 -0.139,-0.221 -0.133,-0.68 0.005,-0.902 0.701,-1.104 0.726,-1.086 1.99,-0.599 0.355,0.138 0.719,0.253 1.079,0.38 1.443,0.5 2.113,1.262 2.134,2.528 m 79.737,17.117 c -2.749,2.435 -3.777,5.464 -3.85,9.128 -1.066,-0.721 -2.15,-1.452 -3.331,-2.252 1.333,-0.523 2.054,-1.348 2.232,-2.643 0.047,-0.324 0.312,-0.617 0.489,-0.917 0.913,-1.557 1.991,-3.081 0.817,-5.02 0.061,-0.044 0.122,-0.093 0.186,-0.14 1.15,0.615 2.306,1.229 3.457,1.844 M -2.137,16.222 c -1.449,-0.871 -2.713,-1.635 -3.947,-2.38 0.739,-1.47 1.455,-2.839 2.118,-4.237 0.248,-0.524 0.561,-0.529 0.97,-0.279 0.733,0.448 1.47,0.904 2.181,1.394 0.152,0.105 0.321,0.406 0.272,0.553 -0.48,1.576 -1.004,3.142 -1.594,4.949 M -145.824,78.73 c 0.253,0.094 0.599,0.147 0.85,0.332 1.12,0.82 2.215,1.675 3.305,2.537 0.112,0.09 0.204,0.387 0.143,0.497 -0.514,0.92 -1.036,1.839 -1.624,2.712 -0.183,0.274 -0.526,0.377 -0.722,-0.146 -0.082,-0.218 -0.396,-0.367 -0.63,-0.513 -1.218,-0.747 -2.451,-1.472 -3.666,-2.223 -0.464,-0.286 -0.405,-0.687 -0.098,-1.047 0.358,-0.422 0.973,-0.761 1.087,-1.229 0.195,-0.799 0.754,-0.747 1.355,-0.92 m 38.863,-95.866 c 0.113,-0.343 0.188,-0.71 0.351,-1.029 1.117,-2.173 2.226,-4.352 3.401,-6.495 0.453,-0.829 1.054,-1.58 1.62,-2.347 0.13,-0.18 0.376,-0.371 0.571,-0.369 0.128,0.001 0.37,0.336 0.364,0.514 -0.036,0.881 -0.067,1.774 -0.234,2.636 -0.221,1.131 -0.12,2.253 0.771,2.917 0.804,0.6 1.733,1.237 2.888,1.139 0.219,-0.018 0.449,0.084 0.765,0.151 -0.813,1.153 -1.56,2.207 -2.438,3.446 -0.525,-2.054 -1.493,-3.438 -3.109,-4.354 -0.895,-0.508 -1.51,-0.391 -2.035,0.516 -0.243,0.425 -0.49,0.857 -0.659,1.313 -0.382,1.037 -1.196,1.585 -2.256,1.962 m 81.886,-3.694 c -2.768,-1.455 -5.381,-2.825 -8.086,-4.246 0.194,-0.126 0.219,-0.155 0.239,-0.153 0.084,0.009 0.166,0.017 0.24,0.044 1.275,0.459 2.335,0.264 3.373,-0.711 0.471,-0.443 1.34,-0.594 2.037,-0.62 0.863,-0.031 1.382,-0.39 1.771,-1.081 0.424,-0.759 0.904,-1.529 0.223,-2.378 -0.208,-0.259 -0.53,-0.428 -0.796,-0.635 0.653,-1.101 1.055,-1.208 2.054,-0.682 0.869,0.454 1.774,0.831 2.64,1.291 0.378,0.199 0.749,0.471 1.02,0.794 0.156,0.187 0.211,0.584 0.123,0.813 -0.066,0.174 -0.44,0.342 -0.661,0.324 -0.452,-0.042 -0.936,-0.126 -1.326,-0.342 -0.652,-0.359 -1.169,-0.345 -1.673,0.216 -0.198,0.222 -0.491,0.358 -0.682,0.584 -0.538,0.641 -1.086,1.277 -0.977,2.219 0.174,1.447 0.309,2.899 0.481,4.563 m -61.113,32.502 c 0.752,0.244 1.354,0.413 1.935,0.634 1.438,0.537 2.873,1.089 4.295,1.66 0.322,0.129 0.706,0.301 0.872,0.566 1.167,1.897 1.24,4.033 1.24,6.166 0,0.223 -0.237,0.596 -0.409,0.625 -0.23,0.038 -0.54,-0.15 -0.755,-0.318 -1.201,-0.94 -2.306,-2.031 -3.594,-2.827 -2.409,-1.488 -3.193,-3.772 -3.584,-6.506 m -4.215,-39.757 c -0.068,-0.018 -0.134,-0.034 -0.201,-0.055 0.045,-1.972 -0.879,-3.404 -2.404,-4.503 -0.068,-0.048 -0.114,-0.118 -0.17,-0.176 -1.175,-1.157 -2.049,-1.081 -2.889,0.22 -0.487,0.758 -1.199,1.392 -1.888,1.994 -0.505,0.443 -0.987,0.193 -0.929,-0.47 0.047,-0.529 0.208,-1.072 0.437,-1.553 0.714,-1.516 1.534,-2.984 2.22,-4.51 0.552,-1.216 1.319,-2.241 2.284,-3.137 0.184,-0.166 0.546,-0.408 0.648,-0.342 0.216,0.141 0.468,0.484 0.436,0.704 -0.09,0.62 -0.207,1.284 -0.515,1.813 -0.858,1.474 -0.925,2.952 0.186,3.883 0.812,0.684 1.799,1.306 2.81,1.565 1.231,0.317 2.509,0.807 3.849,0.461 0.078,-0.023 0.184,0.061 0.321,0.111 -1.432,1.365 -2.813,2.68 -4.195,3.995 m 105.087,39.45 c 1.902,0.106 3.56,1.554 3.767,3.388 0.162,1.455 -0.82,3.369 -2.095,4.086 -1.45,0.82 -2.924,0.639 -3.807,-0.61 -0.74,-1.048 -1.326,-2.205 -0.961,-3.591 0.045,-0.166 -0.004,-0.38 -0.068,-0.547 -0.278,-0.698 -0.108,-1.43 0.585,-1.76 0.825,-0.392 1.715,-0.648 2.579,-0.966 m -181.524,91.679 c 0.032,-0.155 0.069,-0.31 0.102,-0.465 0.714,-0.138 1.446,-0.453 2.132,-0.373 0.699,0.084 1.386,0.497 2.016,0.869 1.862,1.093 3.684,2.245 5.536,3.356 1.075,0.647 2.179,1.242 3.26,1.883 0.898,0.533 1.787,1.085 1.644,2.358 -0.071,0.617 -0.299,1.054 -1.024,0.975 -0.324,-0.034 -0.655,-0.032 -0.974,-0.084 -2.095,-0.345 -3.764,-1.552 -5.423,-2.741 -1.507,-1.08 -2.956,-2.236 -4.409,-3.386 -0.972,-0.773 -1.911,-1.593 -2.86,-2.392 M -63.975,-45.83 c 0.029,0.111 0.058,0.218 0.089,0.327 -1.286,0.588 -2.546,1.242 -3.864,1.746 -1.771,0.678 -3.245,2.075 -5.327,2.033 -2.296,-0.046 -4.599,0.421 -6.837,-0.615 -1.276,-0.591 -2.013,-1.468 -1.839,-2.819 0.274,-2.096 0.718,-4.155 2.19,-5.772 0.499,-0.549 1.244,-0.899 1.925,-1.253 0.391,-0.204 0.605,0.042 0.694,0.501 0.335,1.773 -0.226,3.276 -1.313,4.625 -0.521,0.649 -0.535,1.394 0.026,2.016 0.791,0.879 1.861,0.963 2.924,0.987 1.163,0.028 2.327,-0.053 3.491,-0.037 1.61,0.022 3.168,0.017 4.676,-0.782 0.957,-0.503 2.102,-0.648 3.165,-0.957 m 9.741,107.527 c -0.392,-0.84 -0.354,-1.023 0.13,-1.494 0.705,-0.682 1.411,-1.361 2.077,-2.079 0.898,-0.966 1.886,-1.568 3.254,-1.088 0.612,0.215 1.253,0.356 1.849,0.611 1.147,0.49 2.286,1.007 3.397,1.573 1.127,0.579 2.212,1.239 3.326,1.845 1.001,0.55 2.073,0.996 3.013,1.631 1.459,0.99 2.783,2.179 4.259,3.138 1.532,0.996 2.696,2.243 3.556,3.845 0.952,1.758 0.34,3.584 -1.461,3.969 0.042,-0.391 0.064,-0.767 0.127,-1.137 0.205,-1.176 -0.034,-2.253 -0.851,-3.115 -0.766,-0.811 -1.565,-1.625 -2.471,-2.262 -1.571,-1.105 -3.266,-2.033 -4.855,-3.117 -1.98,-1.35 -3.878,-2.829 -6.29,-3.363 -0.13,-0.032 -0.245,-0.122 -0.371,-0.168 -1.372,-0.495 -2.73,-1.063 -4.134,-1.454 -1.201,-0.334 -3.098,0.577 -3.778,1.618 -0.218,0.333 -0.472,0.642 -0.777,1.047 m 40.116,-2.157 c 0.24,-0.452 0.406,-0.731 0.542,-1.024 1.265,-2.737 2.525,-5.478 3.786,-8.22 0.368,-0.796 0.536,-0.824 1.216,-0.22 0.745,0.66 1.541,1.268 2.219,1.989 0.767,0.815 1.489,1.628 1.733,2.847 0.569,2.798 -1.534,4.981 -3.581,5.455 -1.966,0.453 -3.919,-0.213 -5.915,-0.827 m -15.27,-46.621 c 0.641,0.172 1.507,0.281 2.247,0.642 0.535,0.258 0.981,0.801 1.328,1.315 0.93,1.375 0.633,2.883 0.243,4.336 -0.342,1.257 -0.897,2.51 -2.271,2.894 -1.646,0.465 -3.327,0.37 -4.841,-0.515 -0.425,-0.247 -0.708,-0.774 -0.987,-1.212 -0.217,-0.339 -0.371,-0.734 -0.475,-1.126 -0.083,-0.31 -0.172,-0.713 -0.046,-0.973 0.75,-1.534 1.558,-3.045 2.366,-4.551 0.093,-0.168 0.288,-0.346 0.469,-0.395 0.58,-0.154 1.173,-0.254 1.967,-0.415 M -51.312,2.3 c 0.225,0.146 0.333,0.222 0.441,0.294 1.673,1.068 3.304,2.205 5.025,3.189 2.266,1.294 4.598,2.477 6.909,3.691 0.528,0.28 0.519,0.599 0.239,1.048 -0.544,0.885 -1.079,1.773 -1.581,2.678 -0.234,0.42 -0.475,0.456 -0.856,0.219 -0.873,-0.547 -1.729,-1.137 -2.651,-1.589 -1.878,-0.924 -3.827,-1.711 -5.688,-2.674 -1.305,-0.676 -2.511,-1.549 -3.745,-2.324 0.61,-1.451 1.239,-2.939 1.907,-4.532 m 36.977,-16.109 c 0.016,-0.132 0.031,-0.264 0.047,-0.396 1.173,-0.327 2.33,-0.789 3.524,-0.951 2.588,-0.357 5.172,-0.695 7.819,-0.516 1.284,0.088 1.66,0.411 2.031,1.66 0.724,2.428 1.303,4.897 1.933,7.353 0.054,0.216 0.051,0.447 0.075,0.672 -0.065,0.058 -0.131,0.12 -0.195,0.179 -5.078,-2.668 -10.155,-5.334 -15.234,-8.001 m 11.299,12.165 c -5.436,-2.732 -10.607,-5.613 -15.77,-8.57 0.504,-0.63 0.822,-1.21 1.298,-1.574 0.779,-0.591 1.149,-2.132 2.669,-1.204 0.656,0.4 1.461,0.559 2.133,0.94 1.333,0.747 2.583,1.639 3.933,2.349 2.387,1.256 4.825,2.414 7.226,3.646 0.202,0.106 0.452,0.54 0.386,0.684 -0.582,1.25 -1.232,2.471 -1.875,3.729 m -30.127,1.299 c -0.293,-0.245 -0.47,-0.447 -0.691,-0.572 -2.283,-1.297 -4.573,-2.588 -6.866,-3.868 -1.958,-1.093 -3.922,-2.171 -5.892,-3.261 0.758,-1.272 1.547,-2.638 2.387,-3.966 0.108,-0.172 0.528,-0.294 0.724,-0.223 0.449,0.164 0.848,0.47 1.278,0.701 1.804,0.96 3.647,1.853 5.407,2.886 2.029,1.189 3.983,2.497 6.022,3.782 -0.758,1.447 -1.56,2.975 -2.369,4.521 m -74.51,27.064 c 0.59,1.052 1.063,2.051 1.667,2.955 1.215,1.826 2.699,3.408 4.539,4.637 0.76,0.509 1.209,1.045 1.196,2.157 -0.018,1.736 0.352,3.486 0.649,5.214 0.079,0.448 0.111,0.669 -0.312,0.909 -1.655,0.952 -3.29,1.942 -4.937,2.909 -0.105,0.061 -0.247,0.061 -0.408,0.101 -1.991,-6.122 -3.198,-12.297 -2.394,-18.882 m 81.84,-23.651 c 0.653,-1.418 1.296,-2.787 1.912,-4.165 0.221,-0.486 0.511,-0.47 0.915,-0.243 3.827,2.139 7.973,3.662 11.673,6.057 1.385,0.896 2.87,1.633 4.342,2.462 -0.653,1.662 -1.271,3.242 -1.897,4.842 -0.293,-0.099 -0.402,-0.118 -0.492,-0.17 -1.922,-1.114 -3.838,-2.24 -5.766,-3.346 C -15.734,8.17 -16.344,7.876 -16.949,7.569 -18.427,6.82 -19.912,6.092 -21.38,5.328 -22.317,4.842 -23.218,4.29 -24.152,3.8 -24.653,3.538 -25.192,3.345 -25.833,3.068 m 24.278,28.109 c 0.071,0.008 0.144,0.017 0.214,0.028 0.029,0.194 0.07,0.385 0.082,0.583 0.053,0.871 0.024,1.751 0.161,2.609 0.211,1.345 0.517,2.678 0.811,4.012 0.092,0.418 0.208,0.854 0.42,1.221 1.279,2.196 2.564,4.37 4.078,6.441 1.292,1.77 2.921,2.989 4.588,4.189 1.353,0.974 2.984,1.564 4.49,2.324 0.221,0.11 0.446,0.205 0.656,0.331 1.062,0.654 2.234,0.857 3.456,0.866 0.454,0.003 0.961,-0.121 1.35,0.04 1.085,0.448 1.948,0.016 2.821,-0.511 0.705,-0.43 1.375,-0.927 2.115,-1.279 1.042,-0.5 1.684,-1.317 2.26,-2.274 0.388,-0.645 0.965,-1.178 1.456,-1.759 0.07,0.019 0.138,0.038 0.206,0.057 -0.034,0.789 -0.038,1.581 -0.114,2.367 -0.042,0.464 -0.12,0.953 -0.319,1.366 -0.23,0.473 -0.694,0.835 -0.916,1.309 -0.717,1.548 -1.839,2.594 -3.56,2.776 -2.389,0.254 -4.771,0.315 -7.161,-0.247 -1.635,-0.385 -3.188,-0.879 -4.685,-1.639 -1.54,-0.779 -3.182,-1.368 -4.681,-2.21 -3.006,-1.686 -5.023,-4.36 -6.778,-7.229 -0.891,-1.453 -1.785,-2.944 -1.794,-4.742 -0.004,-1.251 -0.343,-2.464 0.081,-3.77 0.392,-1.227 0.308,-2.608 0.462,-3.916 0.039,-0.323 0.197,-0.631 0.301,-0.943 M -92.08,14.479 c 0.44,-1.772 0.834,-3.432 1.291,-5.072 0.037,-0.136 0.585,-0.3 0.738,-0.199 0.999,0.641 1.96,1.348 2.926,2.048 0.097,0.069 0.173,0.211 0.2,0.331 0.26,1.166 0.394,2.372 0.794,3.484 0.329,0.918 0.829,1.861 1.503,2.549 0.936,0.957 2.121,1.67 3.176,2.516 1.056,0.842 2.061,1.752 3.135,2.571 0.406,0.312 0.555,0.662 0.351,1.045 -0.775,1.432 -1.595,2.843 -2.42,4.248 -0.278,0.474 -0.596,0.277 -0.95,0.028 -0.683,-0.478 -1.397,-0.909 -2.094,-1.359 -0.135,-0.087 -0.268,-0.188 -0.388,-0.297 -0.697,-0.639 -1.36,-1.319 -2.089,-1.916 -1.57,-1.282 -3.361,-2.342 -4.113,-4.389 -0.683,-1.855 -1.369,-3.713 -2.06,-5.588 m 59.901,23.296 c -0.049,0.048 -0.1,0.098 -0.153,0.144 0.097,0.423 0.201,0.846 0.287,1.273 0.067,0.331 0.255,0.735 0.14,0.996 -0.681,1.531 -1.41,3.041 -2.17,4.537 -0.38,0.738 -1.139,0.971 -2.014,0.86 -0.408,-0.045 -0.839,0.115 -1.26,0.157 -0.18,0.02 -0.396,0.035 -0.545,-0.046 -0.655,-0.354 -1.296,-0.734 -1.932,-1.125 -2.006,-1.229 -4.001,-2.473 -6.014,-3.693 -0.485,-0.289 -0.59,-0.618 -0.282,-1.066 0.263,-0.38 0.577,-0.728 0.841,-1.106 0.62,-0.889 1.267,-1.766 1.827,-2.692 0.696,-1.15 1.31,-2.345 1.946,-3.499 3.108,1.752 6.219,3.506 9.329,5.26 m -15.734,-74.651 c -0.688,0.904 -1.275,1.781 -1.97,2.564 -2.261,2.546 -4.035,5.442 -5.964,8.227 -0.73,1.053 -1.412,2.141 -2.192,3.154 -0.594,0.774 -1.293,1.25 -2.455,1.018 -1.418,-0.281 -2.425,-1.211 -3.629,-1.821 -1.179,-0.601 -2.397,-1.137 -3.627,-1.629 -0.657,-0.262 -1.375,-0.369 -2.066,-0.548 0.003,-0.086 0.003,-0.17 0.005,-0.254 1.036,-0.592 2.064,-1.192 3.109,-1.769 3.561,-1.954 7.143,-3.87 10.681,-5.859 2.539,-1.429 5.313,-2.175 8.108,-3.083 m 26.67,91.479 c 0.236,-0.101 0.4,-0.183 0.573,-0.243 1.168,-0.404 1.566,-1.299 0.928,-2.356 -0.371,-0.616 -0.836,-1.281 -1.432,-1.637 -1.677,-1.005 -3.405,-1.937 -5.178,-2.751 -1.461,-0.67 -1.627,-0.542 -2.597,0.735 -0.7,0.925 -0.345,1.834 0.813,2.08 -0.137,-0.356 -0.432,-0.742 -0.384,-1.073 0.107,-0.702 1.178,-1.175 1.896,-0.989 1.911,0.493 3.499,1.608 5.134,2.628 0.428,0.268 0.789,0.683 1.103,1.087 0.36,0.473 0.375,0.965 -0.217,1.321 -0.441,0.266 -0.873,0.551 -1.324,0.8 -0.122,0.066 -0.338,0.08 -0.453,0.016 -0.824,-0.47 -1.624,-0.979 -2.443,-1.453 -0.934,-0.538 -1.872,-1.077 -2.825,-1.583 -1.168,-0.621 -2.354,-1.208 -3.532,-1.81 0.091,-0.061 0.184,-0.122 0.275,-0.181 -0.091,-0.347 -0.186,-0.695 -0.273,-1.043 -0.07,-0.276 -0.22,-0.573 -0.174,-0.829 0.486,-2.692 1.777,-4.939 3.814,-6.754 0.133,-0.117 0.479,-0.117 0.664,-0.032 0.642,0.295 1.253,0.662 1.886,0.978 3.069,1.532 6.143,3.055 9.218,4.575 0.444,0.22 0.585,0.444 0.329,0.955 -1.158,2.289 -2.272,4.6 -3.394,6.911 -0.758,1.559 -0.754,1.563 -2.272,0.807 -0.025,-0.01 -0.037,-0.042 -0.135,-0.159 m -63.71,-16.176 c -0.138,0.133 -0.217,0.244 -0.32,0.305 -2.763,1.601 -5.528,3.195 -8.294,4.792 -0.846,-0.352 -1.054,0.463 -1.567,0.781 -1.317,0.809 -2.786,1.362 -4.148,2.108 -2.528,1.386 -5.043,2.792 -7.522,4.261 -1.704,1.01 -3.335,2.134 -4.992,3.22 -1.779,1.157 -3.553,2.319 -5.318,3.502 -0.675,0.45 -1.296,0.982 -1.973,1.422 -0.815,0.532 -1.689,0.971 -2.495,1.513 -1.056,0.714 -2.115,1.437 -3.095,2.251 -2.213,1.845 -4.493,3.632 -6.531,5.66 -1.924,1.914 -3.617,4.073 -5.33,6.188 -1.094,1.352 -2.037,2.826 -3.054,4.239 -0.283,0.393 -0.599,0.762 -0.899,1.141 -0.149,-0.185 -0.166,-0.271 -0.134,-0.33 0.817,-1.401 1.677,-2.781 2.45,-4.207 0.782,-1.442 1.27,-3.097 2.265,-4.359 1.487,-1.883 2.561,-4.082 4.546,-5.622 2.726,-2.109 5.203,-4.544 7.929,-6.656 2.516,-1.948 5.21,-3.661 7.838,-5.46 1.555,-1.061 3.096,-2.148 4.716,-3.105 2.884,-1.71 5.832,-3.31 8.735,-4.987 1.412,-0.815 2.765,-1.734 4.182,-2.549 1.058,-0.61 2.165,-1.147 3.269,-1.674 1.377,-0.658 2.715,-1.501 4.169,-1.847 1.773,-0.419 3.649,-0.406 5.573,-0.587 m 35.336,7.16 c 0.859,-1.368 1.648,-2.691 2.508,-3.966 0.524,-0.781 0.999,-0.741 1.65,-0.109 0.557,0.542 1.162,1.057 1.816,1.467 0.871,0.545 1.811,0.975 2.721,1.458 0.873,0.467 1.735,0.951 2.612,1.405 1.011,0.521 2.069,0.954 3.037,1.541 1.471,0.898 2.836,1.974 4.331,2.827 2.184,1.248 4.459,2.338 6.665,3.545 1.394,0.762 2.734,1.62 4.064,2.412 -0.724,1.438 -1.424,2.795 -2.086,4.167 -0.197,0.41 -0.425,0.653 -0.875,0.432 -0.681,-0.342 -1.373,-0.678 -2.02,-1.078 -1.381,-0.85 -2.722,-1.771 -4.115,-2.604 -1.712,-1.025 -3.469,-1.974 -5.18,-2.994 -0.804,-0.479 -1.518,-1.108 -2.331,-1.564 -1.697,-0.953 -3.436,-1.832 -5.149,-2.756 -1.044,-0.561 -2.066,-1.164 -3.103,-1.73 -1.452,-0.793 -2.912,-1.574 -4.545,-2.453 m 40.681,3.032 c 0.298,-0.69 0.605,-1.381 0.899,-2.08 0.422,-1.007 0.807,-2.031 1.275,-3.013 0.108,-0.218 0.621,-0.496 0.749,-0.418 1.652,0.992 3.273,2.035 4.895,3.08 2.476,1.595 3.15,4.075 2.934,6.756 -0.151,1.852 -0.66,3.715 -1.271,5.482 -0.735,2.124 -1.621,4.242 -3.671,5.534 -0.485,0.305 -0.954,0.651 -1.474,0.881 -2.155,0.949 -4.323,1.795 -6.759,1.022 -1.658,-0.523 -3.347,-0.951 -5.008,-1.419 0.523,-1.152 1.011,-2.17 1.447,-3.208 0.251,-0.599 0.724,-0.754 1.255,-0.637 0.902,0.193 1.779,0.503 2.675,0.723 0.599,0.145 1.214,0.293 1.822,0.313 1.702,0.058 2.981,-0.774 4.121,-1.965 0.68,-0.706 1.169,-1.447 1.18,-2.435 0.009,-0.817 0.002,-1.642 -0.092,-2.453 -0.058,-0.499 -0.207,-1.027 -0.461,-1.456 -1.124,-1.909 -2.805,-3.302 -4.516,-4.707 m 27.123,-69.915 c 0.063,-0.06 0.122,-0.122 0.184,-0.183 C 29,-13.845 38.456,-4.927 47.12,4.888 46.843,4.944 46.666,4.848 46.479,4.799 45.457,4.531 44.385,3.955 43.416,4.095 41.915,4.308 40.441,4.988 39.61,6.419 38.984,7.494 38.506,8.656 37.979,9.79 c -0.285,0.614 -0.534,1.248 -0.801,1.869 -0.083,-0.018 -0.167,-0.042 -0.251,-0.06 -0.146,-0.77 -0.219,-1.56 -0.448,-2.303 C 36.066,7.948 35.613,6.608 35.084,5.305 34.53,3.951 33.889,2.632 33.248,1.315 c -1.064,-2.173 -2.316,-4.274 -3.197,-6.519 -1.024,-2.613 -2.364,-4.993 -4.129,-7.152 -1.292,-1.579 -2.556,-3.182 -3.884,-4.732 -0.739,-0.861 -1.599,-1.621 -2.376,-2.454 -0.518,-0.561 -0.986,-1.167 -1.475,-1.754 M -38.756,26.83 c 1.392,0.8 2.711,1.575 4.049,2.316 0.919,0.511 1.841,1.023 2.802,1.441 1.421,0.618 2.895,1.119 4.315,1.735 0.922,0.398 1.782,0.938 2.692,1.368 1.128,0.536 2.296,0.998 3.421,1.547 1.737,0.848 3.454,1.738 5.175,2.618 1.329,0.68 2.661,1.356 3.961,2.086 0.191,0.104 0.384,0.57 0.302,0.736 -0.747,1.549 -1.529,3.08 -2.371,4.581 -0.13,0.226 -0.64,0.4 -0.923,0.341 -0.467,-0.092 -0.896,-0.385 -1.333,-0.609 -1.531,-0.784 -3.05,-1.594 -4.592,-2.36 -1.468,-0.731 -2.961,-1.412 -4.431,-2.134 -0.325,-0.161 -0.696,-0.349 -0.89,-0.63 -0.322,-0.468 -0.479,-1.07 -1.253,-0.63 -0.099,0.055 -0.35,-0.106 -0.509,-0.199 -1.666,-0.99 -3.483,-1.679 -5.109,-2.78 -1.487,-1.008 -3.175,-1.722 -4.781,-2.557 -1.055,-0.548 -2.118,-1.081 -3.214,-1.64 0.882,-1.754 1.736,-3.452 2.597,-5.149 0.021,-0.043 0.081,-0.072 0.092,-0.081 m 15.624,-29.292 c 1.25,-2.375 2.366,-4.544 3.532,-6.685 0.229,-0.424 0.595,-0.607 1.146,-0.249 1.773,1.152 3.557,2.294 5.397,3.331 2.448,1.378 4.969,2.626 7.432,3.977 2.223,1.217 4.421,2.486 6.604,3.775 0.228,0.136 0.457,0.585 0.41,0.837 C 0.982,4.698 0.52,6.858 0.055,9.018 -0.066,9.573 -0.414,9.712 -0.919,9.41 -1.9,8.826 -3.175,8.614 -3.435,7.418 -3.867,7.452 -4.249,7.605 -4.476,7.481 -6.026,6.635 -7.539,5.71 -9.078,4.848 -11.645,3.408 -14.2,1.953 -16.805,0.59 c -2.045,-1.07 -4.154,-2.013 -6.327,-3.052 m -26.737,62.72 c 0.692,0.151 1.475,0.146 2.057,0.488 2.071,1.207 4.462,1.629 6.51,2.977 2.711,1.78 5.498,3.432 8.031,5.478 1.368,1.107 1.973,2.383 1.617,4.129 -0.236,1.149 -0.475,1.457 -1.621,1.732 -0.796,0.194 -1.585,0.464 -2.393,0.541 -1.466,0.141 -2.952,0.169 -4.337,-0.487 -1.333,-0.63 -2.654,-1.282 -3.971,-1.945 -1.14,-0.572 -2.291,-1.133 -3.399,-1.771 -1.027,-0.59 -2.054,-1.211 -2.981,-1.946 -0.662,-0.529 -1.131,-1.291 -1.727,-1.909 -1.029,-1.066 -1.702,-2.323 -2.076,-3.738 -0.079,-0.293 -0.108,-0.735 0.055,-0.938 1.088,-1.36 2.257,-2.632 4.235,-2.611 m -94.956,25.514 c -0.152,0.39 -0.421,0.979 -0.621,1.59 -0.542,1.647 -1.061,3.302 -1.58,4.955 -0.733,2.356 -1.453,4.717 -2.19,7.069 -0.366,1.171 -0.725,2.345 -1.14,3.496 -0.582,1.615 -1.279,3.199 -1.224,4.969 0.004,0.146 -0.089,0.291 -0.173,0.542 -1.087,-0.567 -2.141,-1.059 -3.137,-1.65 -1.464,-0.873 -2.928,-1.759 -4.31,-2.753 -1.258,-0.904 -2.521,-1.745 -4.014,-2.209 -0.322,-0.101 -0.613,-0.306 -1.033,-0.523 0.616,-0.573 1.211,-1.014 1.659,-1.572 2.094,-2.598 4.146,-5.23 6.215,-7.844 0.925,-1.165 1.878,-2.306 2.79,-3.479 1.41,-1.819 2.789,-3.664 4.21,-5.473 0.102,-0.131 0.531,-0.181 0.67,-0.077 1.275,0.936 2.521,1.915 3.878,2.959 M -30.374,-5.77 c -1.905,-1.216 -3.809,-2.474 -5.753,-3.668 -1.248,-0.763 -2.552,-1.435 -3.833,-2.139 -0.88,-0.484 -1.73,-1.057 -2.663,-1.404 -0.765,-0.287 -0.92,-0.562 -0.572,-1.297 0.473,-0.999 0.58,-2.053 0.006,-3.075 -0.285,-0.512 -0.762,-0.624 -1.149,-0.233 -0.444,0.45 -0.809,1.007 -1.106,1.571 -0.647,1.236 -1.02,1.407 -2.259,0.838 -1.74,-0.799 -3.476,-1.607 -5.298,-2.449 1.468,-2.603 2.458,-5.459 4.393,-7.687 0.703,0.189 1.302,0.334 1.893,0.516 0.335,0.102 0.668,0.234 0.976,0.401 1.894,1.022 3.768,2.083 5.672,3.082 1.761,0.924 3.563,1.774 5.331,2.687 1.569,0.81 3.118,1.671 4.684,2.493 1.556,0.817 3.123,1.612 4.644,2.393 -1.676,2.69 -3.324,5.334 -4.966,7.971 m -56.174,-5.743 c 0.358,-0.405 0.61,-0.684 0.854,-0.971 0.9,-1.065 1.78,-2.143 2.701,-3.184 0.305,-0.342 0.618,-0.756 1.222,-0.333 0.824,0.568 1.695,1.08 2.572,1.571 1.735,0.978 3.467,1.955 5.233,2.87 1.319,0.687 2.716,1.225 4.033,1.92 1.371,0.718 2.679,1.55 4.02,2.323 1.388,0.799 2.77,1.615 4.183,2.364 2.709,1.435 5.558,2.632 7.954,4.599 0.607,0.499 0.884,0.282 1.182,-0.282 0.241,-0.455 0.511,-0.896 0.812,-1.314 0.083,-0.113 0.331,-0.148 0.494,-0.132 0.057,0.004 0.146,0.271 0.128,0.409 -0.067,0.515 -0.111,1.039 -0.27,1.527 -0.373,1.165 -0.919,2.283 -1.193,3.467 -0.512,2.207 -1.795,3.81 -3.604,5.058 -0.218,0.153 -0.692,0.291 -0.791,0.187 -0.199,-0.204 -0.321,-0.591 -0.289,-0.885 0.068,-0.65 0.274,-1.281 0.37,-1.929 0.044,-0.304 0.082,-0.734 -0.084,-0.922 -0.463,-0.518 -0.976,-1.055 -1.581,-1.367 -1.689,-0.876 -3.442,-1.629 -5.157,-2.454 -2.185,-1.051 -4.397,-2.056 -6.525,-3.21 -2.541,-1.375 -5.005,-2.891 -7.5,-4.342 -1.341,-0.781 -2.677,-1.567 -4.026,-2.333 -1.539,-0.871 -3.09,-1.721 -4.738,-2.637 m -22.335,37.722 c 0.13,0.02 0.262,0.037 0.393,0.057 -0.439,6.73 0.315,13.284 2.53,19.572 -4.345,2.791 -8.782,5.596 -13.171,8.476 -4.368,2.868 -8.28,6.321 -12.247,9.721 0.016,-0.336 0.102,-0.588 0.23,-0.822 1.004,-1.805 1.963,-3.635 3.032,-5.401 1.052,-1.741 2.234,-3.4 3.324,-5.115 1.08,-1.702 2.106,-3.438 3.171,-5.148 0.952,-1.518 1.953,-3.005 2.886,-4.534 1.286,-2.119 2.53,-4.261 3.794,-6.392 1.538,-2.603 3.083,-5.201 4.615,-7.808 0.501,-0.857 0.963,-1.736 1.443,-2.606 m 80.834,44.116 c -1.209,-1.545 -1.609,-3.351 -3.18,-4.416 -1.993,-1.35 -3.799,-2.979 -5.817,-4.29 -1.84,-1.197 -3.862,-2.121 -5.794,-3.179 -1.094,-0.6 -2.139,-1.294 -3.264,-1.817 -0.91,-0.423 -1.913,-0.64 -2.868,-0.967 -0.804,-0.273 -1.604,-0.246 -2.274,0.253 -0.689,0.515 -1.277,1.169 -1.921,1.75 -0.333,0.298 -0.692,0.566 -1.038,0.845 -0.1,-0.503 -0.056,-0.845 0.017,-1.183 0.312,-1.487 0.553,-2.992 0.975,-4.444 0.257,-0.898 0.784,-1.715 1.203,-2.563 0.641,-1.298 1.279,-2.596 1.959,-3.871 0.095,-0.182 0.48,-0.385 0.639,-0.328 0.555,0.206 1.078,0.506 1.596,0.793 2.461,1.365 4.934,2.707 7.368,4.114 3.336,1.93 6.671,3.871 9.954,5.892 1.849,1.139 3.583,2.46 5.383,3.679 0.641,0.432 1.325,0.806 2.052,1.244 -1.742,2.816 -2.78,5.938 -4.99,8.488 m -77.446,-50.337 c 0.308,-0.38 0.718,-0.887 1.126,-1.395 1.458,-1.817 2.835,-3.712 4.394,-5.44 1.973,-2.18 4.384,-3.731 7.323,-4.322 0.348,-0.071 0.716,-0.027 1.162,-0.038 -0.115,0.3 -0.172,0.449 -0.228,0.599 -0.699,1.856 -1.095,3.78 -0.869,5.757 0.22,1.914 0.856,3.745 1.851,5.381 0.846,1.391 1.73,2.787 3.128,3.769 1.67,1.174 3.283,2.431 4.903,3.674 0.428,0.327 0.793,0.729 1.22,1.126 -0.159,0.149 -0.261,0.281 -0.39,0.365 -1.388,0.915 -2.851,1.728 -4.148,2.754 -1.699,1.343 -3.579,1.025 -5.4,0.724 -1.289,-0.211 -2.524,-0.822 -3.748,-1.34 -1.151,-0.488 -2.329,-0.971 -3.37,-1.65 -2.645,-1.73 -4.339,-4.298 -5.792,-7.031 -0.291,-0.549 -0.488,-1.149 -0.719,-1.729 -0.148,-0.367 -0.274,-0.738 -0.443,-1.204 m 34.787,-45.667 c 0.239,0.186 0.391,0.367 0.578,0.435 0.793,0.288 1.589,0.578 2.403,0.802 2.243,0.622 4.017,2.129 6.039,3.167 2.364,1.211 2.41,1.384 4.188,-0.853 0.781,-0.979 1.399,-2.087 2.129,-3.109 2.09,-2.928 4.177,-5.862 6.315,-8.753 1.043,-1.413 2.263,-2.739 4.014,-3.203 1.137,-0.296 2.375,-0.275 3.57,-0.282 2.498,-0.011 4.998,0.042 7.494,0.095 0.406,0.009 0.813,0.118 1.208,0.225 1.183,0.318 2.376,0.621 3.54,1.002 1.146,0.377 2.26,0.845 3.39,1.272 -0.012,0.078 -0.028,0.159 -0.041,0.237 -0.222,0.026 -0.444,0.058 -0.668,0.072 -3.025,0.202 -6.05,0.355 -9.069,0.622 -1.405,0.123 -2.917,0.183 -4.157,0.76 -2.501,1.162 -5.034,2.327 -7.032,4.385 -1.589,1.635 -2.954,3.414 -4.05,5.387 -1.005,1.803 -1.846,3.704 -2.734,5.572 -0.088,0.182 -0.099,0.551 0.014,0.647 0.311,0.261 0.704,0.423 1.067,0.624 1.532,0.841 3.059,1.688 4.591,2.527 1.252,0.682 1.707,0.57 2.565,-0.55 0.467,-0.614 0.956,-1.211 1.436,-1.817 0.099,0.042 0.203,0.079 0.302,0.117 -0.214,0.753 -0.304,1.572 -0.668,2.244 -1.413,2.611 -2.907,5.177 -4.382,7.752 -0.094,0.163 -0.23,0.317 -0.379,0.43 -0.161,0.124 -0.446,0.323 -0.524,0.269 -0.17,-0.118 -0.358,-0.384 -0.345,-0.574 0.056,-0.676 0.144,-1.357 0.307,-2.011 0.204,-0.837 -0.116,-1.639 -0.859,-2.039 -2.709,-1.456 -5.414,-2.921 -8.119,-4.385 -1.895,-1.025 -3.785,-2.061 -5.677,-3.085 -0.935,-0.503 -1.876,-0.993 -2.817,-1.487 -0.907,-0.479 -1.786,-1.028 -2.729,-1.416 -1.674,-0.692 -3.39,-1.286 -5.255,-1.98 1.568,-1.115 2.938,-2.09 4.355,-3.099 m -39.498,44.425 c 1.25,-1.626 2.529,-3.308 3.826,-4.975 1.23,-1.575 2.42,-3.189 3.735,-4.691 1.375,-1.57 3.237,-2.487 5.021,-3.525 1.485,-0.865 3.058,-1.341 4.688,-1.78 2.355,-0.631 4.617,-0.294 6.811,0.541 2.178,0.831 4.303,1.746 6.25,3.13 2.411,1.71 4.332,3.768 5.739,6.325 1.171,2.132 1.139,4.458 0.995,6.791 -0.153,2.482 -0.546,4.9 -2.217,6.904 -0.148,0.177 -0.229,0.434 -0.29,0.668 -0.112,0.446 -0.116,0.934 -0.286,1.35 -0.652,1.575 -1.751,2.806 -3.068,3.864 -1.748,1.405 -3.459,2.89 -5.701,3.44 -2.651,0.652 -5.327,1.24 -8.051,0.32 -0.541,-0.183 -1.072,-0.423 -1.623,-0.562 -1.788,-0.451 -3.539,-1.041 -5.004,-2.15 -1.709,-1.299 -3.315,-2.744 -4.893,-4.209 -0.736,-0.683 -1.374,-1.514 -1.912,-2.369 -0.475,-0.756 -0.764,-1.631 -1.091,-2.469 -0.096,-0.244 -0.096,-0.556 -0.048,-0.82 0.126,-0.685 0.541,-1.414 0.406,-2.033 -0.236,-1.053 0.479,-1.315 0.871,-1.71 0.519,1.262 0.972,2.545 1.564,3.761 0.879,1.807 1.859,3.56 3.478,4.849 0.425,0.338 0.758,0.797 1.202,1.098 1.21,0.817 2.396,1.65 3.861,2.051 1.28,0.351 2.46,1.071 3.735,1.446 2.267,0.664 4.556,0.677 6.623,-0.629 1.695,-1.076 3.426,-2.162 4.898,-3.511 2.001,-1.83 3.419,-4.141 3.869,-6.865 0.199,-1.212 0.071,-2.507 -0.069,-3.745 -0.212,-1.907 -0.345,-3.867 -1.556,-5.497 -0.433,-0.578 -0.93,-1.102 -1.392,-1.659 -0.539,-0.654 -0.964,-1.458 -1.627,-1.953 -3.359,-2.51 -7.071,-3.593 -11.223,-2.357 -1.386,0.412 -2.893,0.69 -4.067,1.454 -2.947,1.906 -5.413,4.357 -7.323,7.354 -0.935,1.473 -2.071,2.815 -2.995,4.057 -1.168,-0.705 -2.177,-1.315 -3.136,-1.894 m -36.196,58.972 c 0.634,-1.088 1.137,-1.955 1.645,-2.821 1.022,-1.737 2.017,-3.497 3.083,-5.208 0.551,-0.886 1.253,-1.678 1.857,-2.532 0.567,-0.797 1.152,-1.586 1.63,-2.435 1.115,-1.991 2.145,-4.032 3.261,-6.024 0.865,-1.541 1.899,-2.994 2.709,-4.563 2.348,-4.557 4.598,-9.16 6.931,-13.721 0.969,-1.89 1.999,-3.757 3.106,-5.565 0.996,-1.626 2.192,-3.126 3.202,-4.744 1.297,-2.081 2.484,-4.228 3.741,-6.334 0.399,-0.662 0.873,-1.275 1.404,-2.041 1.095,1.823 2.514,3.091 4.368,4.043 -1.401,2.571 -2.725,5.088 -4.139,7.552 -0.811,1.41 -1.803,2.722 -2.654,4.11 -1.584,2.574 -3.118,5.182 -4.683,7.768 -0.771,1.277 -1.527,2.567 -2.354,3.807 -1.559,2.334 -3.216,4.601 -4.728,6.968 -1.214,1.9 -2.259,3.911 -3.408,5.854 -1.206,2.04 -2.473,4.046 -3.668,6.09 -1.441,2.466 -2.86,4.947 -4.241,7.449 -0.835,1.512 -1.57,3.078 -2.395,4.707 -0.221,-0.154 -0.387,-0.268 -0.553,-0.386 -1.231,-0.866 -2.094,-2.42 -4.114,-1.974 m 98.509,-103.921 c 1.098,-1.471 2.294,-2.717 3.812,-3.622 0.128,-0.075 0.375,-0.075 0.507,-0.002 1.476,0.811 2.927,1.669 4.409,2.468 2.237,1.203 4.498,2.365 6.74,3.559 1.779,0.948 3.55,1.905 5.311,2.877 1.553,0.859 3.076,1.77 4.643,2.597 0.239,0.126 0.639,-0.058 0.967,-0.1 -0.123,-0.249 -0.214,-0.52 -0.378,-0.736 -0.161,-0.212 -0.371,-0.418 -0.607,-0.527 -1.531,-0.73 -2.044,-2.01 -2.04,-3.607 -0.002,-0.542 -0.018,-1.096 -0.126,-1.619 -0.318,-1.519 1.008,-2.807 2.511,-2.404 0.448,0.12 0.899,0.287 1.355,0.306 0.302,0.013 0.724,-0.115 0.903,-0.334 0.449,-0.545 0.579,-1.19 0.351,-1.922 -0.311,-0.995 -1.072,-1.45 -1.935,-1.834 -0.571,-0.251 -1.163,-0.474 -1.695,-0.795 -0.943,-0.567 -1.76,-1.127 -2.926,-0.246 -0.65,0.491 -0.849,0.953 -0.891,1.666 -0.04,0.729 0.499,0.888 0.981,1.133 0.137,0.072 0.262,0.16 0.405,0.248 -0.301,0.993 -0.937,1.429 -1.92,1.56 -0.708,0.097 -1.536,0.208 -2.053,0.625 -1.03,0.835 -2.022,1.166 -3.324,0.793 -0.507,-0.146 -1.225,-0.343 -1.632,0.35 -2.83,-1.518 -5.655,-3.036 -8.574,-4.602 1.766,-1.029 3.41,-2.098 5.402,-2.26 4.054,-0.338 8.128,-0.488 12.169,-0.952 2.791,-0.317 5.253,0.598 7.77,1.436 1.366,0.454 2.71,0.992 4.038,1.546 0.93,0.391 1.872,0.795 2.72,1.33 2.636,1.665 4.384,4.18 6.179,6.638 0.327,0.447 0.563,0.963 0.841,1.445 -1.212,-0.581 -2.382,-0.904 -3.622,-0.882 -1.252,0.022 -2.505,0.117 -3.754,0.217 -0.752,0.062 -1.535,0.084 -2.241,0.32 -1.131,0.378 -2.229,0.881 -3.31,1.391 -2.883,1.36 -5.549,3.035 -7.754,5.383 -0.127,0.132 -0.527,0.154 -0.716,0.058 -1.092,-0.549 -2.148,-1.16 -3.231,-1.725 -1.081,-0.562 -2.181,-1.095 -3.271,-1.642 -1.597,-0.804 -3.193,-1.608 -4.791,-2.41 -1.202,-0.602 -2.415,-1.19 -3.606,-1.817 -0.518,-0.271 -0.972,-0.672 -1.494,-0.932 -1.993,-0.99 -4.003,-1.949 -6.123,-2.976 m -33.864,9.452 c -0.011,0.023 0.006,-0.065 0.061,-0.113 1.769,-1.578 3.534,-3.162 5.332,-4.709 0.195,-0.166 0.624,-0.206 0.884,-0.124 1.17,0.363 2.322,0.783 3.47,1.207 1.379,0.513 2.809,0.935 4.106,1.609 2.699,1.408 5.328,2.957 7.987,4.443 1.332,0.745 2.68,1.464 3.997,2.233 1.523,0.89 3.003,1.859 4.542,2.729 1.089,0.616 1.086,0.624 0.766,1.841 -0.276,1.031 -0.373,2.093 0.422,3.014 0.351,0.406 0.678,0.568 1.066,0.097 0.485,-0.586 0.939,-1.202 1.427,-1.783 0.161,-0.192 0.411,-0.465 0.597,-0.448 0.532,0.052 1.105,0.13 1.568,0.375 2.133,1.136 4.236,2.327 6.345,3.507 1.892,1.055 3.775,2.121 5.605,3.149 -1.249,2.452 -2.469,4.849 -3.694,7.242 -0.668,1.311 -0.739,1.332 -2.083,0.706 -0.095,-0.046 -0.184,-0.118 -0.281,-0.167 -2.341,-1.227 -4.703,-2.419 -7.018,-3.694 -1.332,-0.735 -2.59,-1.608 -3.883,-2.414 -0.362,-0.226 -0.385,-0.462 -0.259,-0.887 0.237,-0.773 0.387,-1.588 0.456,-2.396 0.055,-0.66 0.109,-1.424 -0.699,-1.749 -0.636,-0.259 -1.304,0.106 -1.895,0.955 -0.078,0.111 -0.111,0.272 -0.211,0.346 -0.117,0.087 -0.316,0.177 -0.424,0.135 -0.703,-0.284 -1.423,-0.544 -2.082,-0.916 -2.172,-1.231 -4.299,-2.549 -6.489,-3.753 -2.094,-1.153 -4.25,-2.194 -6.37,-3.3 -0.844,-0.443 -1.65,-0.963 -2.504,-1.385 -1.573,-0.776 -3.206,-1.441 -4.749,-2.276 -2.008,-1.081 -3.953,-2.286 -5.99,-3.474 m 40.618,31.159 c -1.223,2.675 -2.346,5.159 -3.517,7.62 -0.106,0.233 -0.562,0.508 -0.76,0.45 -0.668,-0.204 -1.303,-0.524 -1.927,-0.844 -1.572,-0.813 -3.072,-1.805 -4.714,-2.438 -1.916,-0.742 -3.598,-1.82 -5.238,-3.002 -0.741,-0.53 -1.235,-1.174 -1.03,-2.201 0.089,-0.432 -0.008,-0.942 -0.161,-1.364 -0.099,-0.276 -0.43,-0.615 -0.695,-0.655 -0.354,-0.05 -0.798,0.089 -1.106,0.291 -0.269,0.179 -0.452,0.542 -0.599,0.855 -0.247,0.526 -0.536,0.577 -1.041,0.311 -1.754,-0.932 -3.538,-1.814 -5.297,-2.737 -2.587,-1.354 -5.17,-2.714 -7.737,-4.103 -1.413,-0.764 -2.788,-1.605 -4.194,-2.385 -1.785,-0.995 -3.574,-1.977 -5.38,-2.938 -1.676,-0.897 -3.247,-1.969 -5.185,-2.384 -0.976,-0.21 -1.838,-0.962 -2.923,-1.568 1.878,-2.719 3.635,-5.277 5.419,-7.817 0.099,-0.144 0.454,-0.261 0.601,-0.191 1.503,0.694 3.002,1.402 4.47,2.17 0.865,0.454 1.664,1.032 2.506,1.528 1.593,0.939 3.198,1.854 4.789,2.795 1.386,0.816 2.74,1.701 4.147,2.476 1.402,0.772 2.878,1.412 4.289,2.171 1.074,0.578 2.073,1.306 3.159,1.866 1.106,0.578 2.284,1.019 3.414,1.551 0.516,0.239 1.005,0.533 1.492,0.835 0.528,0.33 0.729,0.79 0.437,1.394 -0.504,1.037 -0.144,2.012 0.197,2.999 0.199,0.572 0.592,0.739 1.077,0.489 0.576,-0.294 1.152,-0.639 1.619,-1.077 0.651,-0.607 1.327,-0.828 2.123,-0.437 0.609,0.301 1.17,0.692 1.762,1.023 1.228,0.678 2.463,1.346 3.701,2.008 0.378,0.205 0.778,0.364 1.161,0.558 0.623,0.315 1.246,0.634 1.858,0.964 1.118,0.603 2.23,1.215 3.283,1.787 m 10.59,-2.777 c 1.278,-2.301 2.618,-4.734 3.992,-7.148 0.088,-0.152 0.466,-0.282 0.634,-0.221 0.976,0.344 1.962,0.68 2.881,1.148 1.822,0.923 3.609,1.92 5.396,2.904 2.265,1.245 4.537,2.47 6.767,3.769 2.728,1.585 5.408,3.254 8.128,4.851 0.459,0.27 0.507,0.504 0.361,0.975 -0.601,1.953 -1.146,3.927 -1.745,5.883 -0.24,0.775 -0.513,1.549 -0.863,2.278 -1.072,2.234 -2.223,4.433 -3.282,6.673 -0.921,1.948 -1.768,3.938 -2.628,5.913 -0.193,0.45 -0.428,0.786 -0.967,0.635 -0.442,-0.126 -0.9,-0.254 -1.293,-0.486 -1.302,-0.758 -2.539,-1.629 -3.863,-2.331 -1.584,-0.842 -3.231,-1.558 -4.853,-2.33 -1.476,-0.702 -2.948,-1.413 -4.429,-2.1 -0.366,-0.17 -0.788,-0.224 -1.145,-0.401 -1.042,-0.514 -2.023,-1.167 -3.101,-1.576 -2.609,-0.992 -5.107,-2.153 -7.326,-3.884 -0.419,-0.328 -0.457,-0.553 -0.202,-0.999 0.757,-1.344 1.45,-2.728 2.204,-4.076 0.336,-0.597 0.755,-1.146 1.277,-1.927 0.215,0.668 0.29,1.133 0.504,1.517 0.402,0.717 0.738,1.615 1.368,2.028 1.412,0.924 3.094,1.103 4.738,0.769 0.729,-0.148 1.662,-0.503 2.018,-1.07 1.361,-2.16 2.241,-4.518 1.269,-7.108 -0.487,-1.295 -1.057,-2.62 -2.626,-2.995 -1.088,-0.259 -2.19,-0.471 -3.214,-0.691 M 6.4,-14.01 c 0.557,0.322 0.954,0.489 1.278,0.749 0.589,0.477 1.156,0.982 1.689,1.52 1.045,1.054 2.145,2.075 3.07,3.229 1.29,1.612 2.457,3.323 3.649,5.009 1.473,2.082 3.045,4.113 4.344,6.304 1.379,2.319 2.627,4.743 3.674,7.23 0.926,2.196 1.501,4.534 2.22,6.817 0.113,0.36 0.114,0.753 0.228,1.113 0.473,1.466 1.026,2.909 1.433,4.392 0.311,1.122 0.451,2.289 0.652,3.438 0.064,0.375 0.099,0.76 0.118,1.14 0.067,1.36 0.134,2.723 0.181,4.086 0.062,1.872 0.224,3.748 0.126,5.612 -0.11,2.061 -0.439,4.116 -0.732,6.163 -0.142,0.99 -0.197,2.095 -0.684,2.912 -0.941,1.582 -2.029,3.13 -3.313,4.437 -0.965,0.982 -2.312,1.603 -3.535,2.301 -0.532,0.305 -1.21,0.636 -1.768,0.559 -1.801,-0.245 -3.692,-0.4 -5.327,-1.106 C 11.979,51.154 10.266,50.285 8.668,49.172 6.458,47.638 4.722,45.753 3.264,43.556 2.06,41.744 0.771,39.923 0.301,37.775 c -0.518,-2.356 -1.034,-4.741 -0.939,-7.19 0.027,-0.698 -0.13,-1.459 0.089,-2.084 1.074,-3.055 2.244,-6.076 3.401,-9.098 0.057,-0.151 0.291,-0.31 0.457,-0.33 0.534,-0.056 1.08,-0.022 1.617,-0.072 1.937,-0.176 3.433,-1.106 4.566,-2.679 0.248,-0.343 0.619,-0.6 0.915,-0.88 0.507,1.133 0.915,2.139 1.404,3.102 1.146,2.246 3.493,2.683 5.449,1.17 1.577,-1.219 2.394,-2.911 2.075,-5.023 -0.447,-2.943 -3.054,-4.92 -5.989,-4.059 -0.408,0.121 -0.811,0.247 -1.184,0.36 -0.07,-0.086 -0.103,-0.109 -0.101,-0.126 0.007,-0.137 0.013,-0.268 0.039,-0.401 C 12.611,7.689 12.088,5.116 10.603,2.734 10.369,2.362 10.118,1.995 9.817,1.683 9.676,1.54 9.393,1.531 9.172,1.461 9.113,1.677 8.966,1.916 9.014,2.103 9.098,2.402 9.287,2.692 9.48,2.944 c 1.129,1.486 1.846,3.138 1.752,5.022 -0.09,1.788 -0.344,3.547 -1.11,5.227 -0.862,1.88 -2.017,3.431 -3.997,4.165 -0.84,0.313 -1.77,0.385 -2.672,0.571 C 3.422,17.694 3.392,17.609 3.404,17.534 3.436,17.374 3.471,17.212 3.535,17.063 4.799,14.254 5.445,11.217 6.887,8.453 7.697,6.899 7.983,5.025 8.277,3.261 8.83,-0.088 8.33,-3.415 7.738,-6.715 7.475,-8.194 7.129,-9.657 6.851,-11.133 6.685,-12.004 6.573,-12.885 6.4,-14.01 M -103.973,8.819 c -0.046,-0.017 -0.091,-0.037 -0.138,-0.053 0.488,-1.344 0.925,-2.704 1.474,-4.021 1.524,-3.654 3.537,-7.026 5.7,-10.34 2.822,-4.325 5.867,-8.474 9.032,-12.544 1.12,-1.441 2.228,-2.921 3.549,-4.165 1.995,-1.887 4.119,-3.653 6.286,-5.337 2.043,-1.592 4.16,-3.101 6.348,-4.483 1.654,-1.046 3.443,-1.888 5.214,-2.728 2.81,-1.334 5.645,-2.619 8.491,-3.871 1.174,-0.516 2.386,-0.959 3.611,-1.33 2.066,-0.624 4.163,-1.137 6.232,-1.746 1.187,-0.352 2.32,-0.953 3.528,-1.165 1.709,-0.298 3.463,-0.4 5.205,-0.478 3.753,-0.171 7.489,0.16 11.171,0.864 2.382,0.456 4.725,1.114 7.08,1.702 0.74,0.186 1.483,0.385 2.188,0.672 2.804,1.141 5.619,2.263 8.38,3.505 1.759,0.793 3.509,1.662 5.107,2.727 1.284,0.855 2.656,1.666 3.456,3.157 0.663,1.237 1.69,2.278 2.378,3.504 0.651,1.155 0.986,2.488 1.61,3.661 1.347,2.541 2.416,5.187 3.132,7.958 0.453,1.762 0.644,3.592 0.978,5.39 0.427,2.305 0.959,4.594 1.299,6.91 0.66,4.483 -0.322,8.747 -1.928,12.91 -0.846,2.188 -1.716,4.368 -2.514,6.575 -1.068,2.949 -2.05,5.925 -3.125,8.869 -0.404,1.108 -1.039,2.136 -1.432,3.25 -0.478,1.351 -0.669,2.814 -1.23,4.125 -2.483,5.821 -5.035,11.614 -7.597,17.398 -1.197,2.694 -2.473,5.345 -3.723,8.012 -0.975,2.078 -1.932,4.162 -2.948,6.219 -0.559,1.135 -1.315,2.179 -1.827,3.333 -1.01,2.274 -2.035,4.526 -3.637,6.464 -0.07,0.084 -0.134,0.174 -0.198,0.26 -1.162,1.554 -1.927,3.421 -3.588,4.59 -0.146,0.104 -0.199,0.325 -0.316,0.473 -0.572,0.743 -1.077,1.554 -1.746,2.201 -1.171,1.136 -2.712,1.308 -4.268,1.357 -1.174,0.037 -2.401,0.343 -3.511,0.102 -2.278,-0.495 -4.59,-0.997 -6.634,-2.239 -1.326,-0.804 -2.619,-1.673 -3.988,-2.395 -1.662,-0.873 -3.398,-1.602 -5.086,-2.433 -2.502,-1.229 -4.989,-2.51 -6.618,-4.899 -0.482,-0.71 -0.746,-1.561 -1.161,-2.323 -0.9,-1.653 -1.25,-3.454 -1.145,-5.28 0.122,-2.117 0.222,-4.303 0.829,-6.309 0.838,-2.749 2.063,-5.394 3.273,-8.017 1.38,-2.994 2.948,-5.901 4.393,-8.865 1.532,-3.135 3.012,-6.292 4.524,-9.437 1.253,-2.607 2.52,-5.208 3.784,-7.814 1.072,-2.207 2.163,-4.408 3.21,-6.629 0.339,-0.717 0.754,-1.164 1.608,-0.951 0.029,0.006 0.081,-0.063 0.185,-0.155 -0.088,-0.165 -0.233,-0.331 -0.274,-0.521 -0.053,-0.274 -0.141,-0.618 -0.029,-0.838 0.86,-1.694 1.794,-3.354 2.65,-5.051 1.203,-2.384 2.303,-4.819 3.545,-7.177 1.45,-2.753 2.981,-5.464 4.525,-8.162 1,-1.746 2.162,-3.403 3.127,-5.171 0.871,-1.595 2.055,-2.892 3.48,-3.939 1.406,-1.03 2.921,-1.922 4.44,-2.776 2.011,-1.127 4.105,-2.042 6.486,-2 0.462,0.008 0.95,-0.01 1.384,-0.147 1.21,-0.38 2.371,-0.124 3.555,0.12 0.792,0.163 1.6,0.236 2.634,0.382 0.283,0.684 0.664,1.64 1.077,2.583 0.309,0.705 0.253,0.793 -0.498,0.764 -0.979,-0.036 -1.967,-0.109 -2.945,-0.051 -1.472,0.088 -2.94,0.265 -4.409,0.428 -2.009,0.22 -3.938,0.84 -5.618,1.887 -1.717,1.072 -2.963,2.725 -3.991,4.468 -1.271,2.159 -2.435,4.38 -3.658,6.566 -0.127,0.227 -0.315,0.525 -0.523,0.572 -0.486,0.112 -0.599,0.282 -0.384,0.734 0.068,0.14 0.017,0.375 -0.056,0.532 -0.74,1.611 -1.434,3.25 -2.267,4.813 -1.1,2.067 -2.337,4.059 -3.478,6.106 -1.51,2.706 -2.991,5.428 -4.469,8.152 -1.547,2.856 -3.089,5.712 -4.6,8.588 -1.227,2.338 -2.305,4.765 -3.629,7.047 -1.631,2.82 -3.476,5.516 -5.178,8.293 -1.111,1.815 -2.196,3.651 -3.173,5.538 -0.924,1.793 -1.874,3.609 -2.488,5.518 -1.035,3.218 -1.663,6.532 -1.264,9.96 0.249,2.135 0.919,4.112 2.168,5.841 1.251,1.733 2.954,3.039 4.786,4.086 2.384,1.361 4.898,2.504 7.329,3.794 3.02,1.604 6.041,1.048 8.922,-0.201 1.892,-0.817 3.505,-2.186 4.564,-4.079 0.702,-1.255 1.544,-2.437 2.232,-3.704 0.937,-1.739 1.774,-3.531 2.691,-5.285 0.146,-0.282 0.557,-0.431 0.685,-0.712 0.281,-0.621 0.387,-1.329 0.697,-1.93 1.401,-2.707 2.863,-5.386 4.278,-8.085 1.503,-2.871 2.971,-5.76 4.462,-8.635 0.755,-1.453 1.577,-2.87 2.28,-4.348 1.198,-2.522 2.305,-5.088 3.496,-7.614 0.545,-1.159 1.322,-2.22 1.778,-3.402 0.88,-2.285 1.663,-4.613 2.383,-6.955 0.689,-2.239 1.233,-4.519 1.874,-6.773 0.393,-1.383 1.047,-2.674 1.28,-4.122 C 1.035,8.646 1.463,7.229 1.768,5.792 2.599,1.92 2.85,-1.969 2.074,-5.882 c -0.367,-1.87 -0.716,-3.75 -1.222,-5.587 -0.453,-1.645 -1.124,-3.225 -1.669,-4.847 -0.849,-2.519 -1.959,-4.921 -3.317,-7.204 -0.654,-1.094 -1.351,-2.19 -2.183,-3.149 -1.026,-1.177 -2.106,-2.369 -3.368,-3.271 -1.192,-0.85 -2.622,-1.403 -3.998,-1.962 -1.865,-0.756 -3.774,-1.409 -5.672,-2.072 -1.444,-0.503 -2.906,-0.951 -4.361,-1.423 -2.665,-0.862 -5.325,-1.739 -7.997,-2.579 -0.697,-0.216 -1.427,-0.367 -2.15,-0.449 -1.053,-0.121 -2.115,-0.199 -3.178,-0.212 -2.592,-0.024 -5.202,-0.193 -7.77,0.066 -2.09,0.211 -4.168,0.835 -6.177,1.498 -1.933,0.639 -3.813,1.486 -5.641,2.389 -1.998,0.987 -3.907,2.15 -5.863,3.22 -1.319,0.722 -2.694,1.35 -3.974,2.133 -2.345,1.435 -4.621,2.983 -6.958,4.435 -3.287,2.042 -6.177,4.563 -8.884,7.303 -3.248,3.288 -5.921,7.058 -8.622,10.782 -1.157,1.595 -2.028,3.403 -2.991,5.136 -0.921,1.662 -1.79,3.354 -2.698,5.025 -0.115,0.217 -0.291,0.433 -0.493,0.561 -1.562,1.001 -3.169,1.938 -4.696,2.988 -0.789,0.542 -1.445,1.275 -2.165,1.92 m 7.016,37.542 c -0.802,0.541 -0.59,1.171 -0.444,1.719 0.303,1.125 0.691,2.23 1.031,3.346 0.839,2.733 1.579,5.504 2.535,8.196 0.699,1.968 1.636,3.854 2.54,5.741 0.612,1.277 1.392,2.471 2.023,3.739 1.133,2.263 2.209,4.555 3.318,6.831 0.13,0.271 0.304,0.519 0.473,0.766 0.719,1.061 1.454,2.11 2.168,3.176 0.833,1.24 1.518,2.608 2.504,3.711 1.717,1.92 3.231,4.03 5.231,5.693 1.817,1.511 3.498,3.195 5.389,4.598 1.91,1.419 3.955,2.676 6.037,3.834 1.321,0.736 2.44,1.861 4.158,1.932 1.504,0.061 2.984,0.572 4.483,0.852 1.019,0.19 2.058,0.27 3.069,0.489 2.027,0.443 4.052,0.908 6.062,1.434 2.175,0.573 4.38,0.856 6.621,0.914 1.085,0.03 2.171,0.149 3.257,0.2 2.785,0.135 5.512,1.131 8.366,0.414 1.392,-0.35 2.884,-0.283 4.292,-0.578 2.955,-0.622 5.9,-1.302 8.821,-2.071 2.4,-0.632 4.821,-1.268 7.117,-2.194 3.654,-1.474 7.241,-3.127 10.801,-4.824 3.804,-1.812 7.431,-3.899 10.378,-7.028 1.357,-1.442 3.03,-2.578 4.446,-3.965 2.144,-2.103 3.705,-4.664 5.105,-7.291 1.656,-3.099 3.127,-6.298 4.721,-9.432 1.273,-2.506 2.094,-5.166 2.735,-7.876 0.491,-2.07 0.747,-4.195 1.083,-6.3 0.678,-4.194 1.467,-8.384 1.346,-12.656 -0.057,-2.038 -0.321,-4.073 -0.555,-6.1 -0.136,-1.186 -0.554,-2.355 -0.58,-3.535 -0.036,-1.872 0.28,-3.75 0.209,-5.618 C 31.691,22.01 31.504,19.529 31.107,17.095 30.776,15.04 30.062,13.051 29.568,11.021 28.518,6.707 26.831,2.667 24.508,-1.112 24.174,-1.653 23.887,-2.219 23.563,-2.766 23.32,-3.174 23.039,-3.557 22.8,-3.964 22.501,-4.475 22.357,-5.22 21.92,-5.473 20.523,-6.282 20.002,-7.75 19.068,-8.894 c -1.385,-1.703 -2.6,-3.544 -3.981,-5.255 -1.136,-1.412 -2.353,-2.77 -3.631,-4.056 -1.665,-1.67 -3.368,-3.309 -5.164,-4.831 -1.085,-0.914 -2.378,-1.586 -3.574,-2.373 -0.22,-0.146 -0.508,-0.272 -0.624,-0.485 -0.496,-0.897 -0.934,-1.826 -1.401,-2.743 -0.865,-1.705 -1.811,-3.353 -3.329,-4.584 -0.251,-0.205 -0.565,-0.331 -1.052,-0.608 0.403,-0.039 0.555,-0.067 0.705,-0.064 1.585,0.033 2.88,0.898 4.208,1.581 1.568,0.808 3.034,1.815 4.539,2.744 1.931,1.188 3.863,2.371 5.783,3.579 1.516,0.953 3.099,1.788 4.307,3.209 1.562,1.841 3.292,3.532 4.917,5.32 0.743,0.818 1.44,1.681 2.092,2.571 1.095,1.493 2.155,3.013 3.199,4.545 0.856,1.251 1.813,2.47 2.465,3.824 1.422,2.946 2.686,5.968 4.001,8.971 0.915,2.096 2.065,4.132 2.648,6.32 0.806,3.021 1.23,6.147 1.72,9.244 0.337,2.125 0.518,4.277 0.752,6.415 0.247,2.276 0.46,4.553 0.71,6.828 0.103,0.948 0.317,1.888 0.399,2.838 0.167,1.903 0.281,3.81 0.411,5.716 0.037,0.544 0.115,1.09 0.076,1.627 -0.292,4.168 -0.602,8.329 -0.926,12.492 -0.115,1.47 -0.181,2.956 -0.447,4.4 -0.442,2.419 -0.984,4.821 -1.566,7.211 -0.335,1.37 -0.694,2.765 -1.285,4.04 -1.77,3.845 -3.557,7.712 -6.272,11.005 -1.924,2.33 -3.994,4.548 -6.094,6.722 -0.957,0.992 -2.155,1.75 -3.229,2.632 -2.083,1.715 -4.141,3.461 -6.237,5.158 -3.602,2.913 -7.721,4.939 -11.908,6.839 -1.313,0.597 -2.623,1.21 -3.968,1.733 -3.181,1.238 -6.372,2.45 -9.579,3.617 -0.943,0.345 -1.955,0.511 -2.936,0.741 -2.341,0.544 -4.659,1.241 -7.029,1.582 -3.664,0.524 -7.368,0.23 -11.038,-0.108 -3.369,-0.314 -6.721,-0.796 -10.074,-1.242 -4.736,-0.63 -9.441,-1.392 -13.995,-2.913 -3.31,-1.107 -6.64,-2.133 -9.789,-3.662 -1.348,-0.658 -2.793,-1.122 -4.108,-1.832 -2.374,-1.283 -4.652,-2.748 -7.039,-4.011 -1.263,-0.668 -2.544,-1.286 -3.52,-2.341 -1.368,-1.476 -2.586,-3.099 -4.026,-4.498 -2.986,-2.904 -5.16,-6.382 -7.277,-9.904 -0.925,-1.541 -1.777,-3.124 -2.652,-4.694 -0.519,-0.931 -1.123,-1.832 -1.502,-2.818 -1.163,-3.026 -2.345,-6.05 -3.307,-9.142 -0.796,-2.561 -1.324,-5.213 -1.887,-7.843 -0.135,-0.636 0.155,-1.355 0.075,-2.015 -0.128,-1.067 -0.402,-2.117 -0.633,-3.272 2.746,-1.491 5.482,-3.183 8.485,-4.204 0.243,1.048 0.532,1.93 0.64,2.833 0.314,2.646 1.259,5.116 2.361,7.474 1.45,3.102 3.221,6.053 4.876,9.052 1.079,1.955 2.186,3.893 3.32,5.816 0.411,0.7 1.005,1.299 1.401,2.009 1.719,3.073 3.889,5.804 6.393,8.242 2.071,2.015 4.318,3.854 6.539,5.71 1.246,1.041 2.531,2.065 3.922,2.89 1.4,0.832 2.941,1.427 4.436,2.083 0.647,0.281 1.352,0.423 2.007,0.683 1.14,0.451 2.238,1.02 3.396,1.401 2.013,0.66 4.047,1.266 6.095,1.8 3.67,0.957 7.144,2.622 10.963,3.033 1.752,0.186 3.467,0.822 5.272,0.403 0.304,-0.072 0.647,0.014 0.972,0.045 3.109,0.297 6.195,0.464 9.269,-0.391 1.726,-0.478 3.52,-0.701 5.272,-1.098 1.374,-0.312 2.736,-0.687 4.087,-1.079 0.884,-0.259 1.728,-0.665 2.62,-0.887 2.789,-0.7 5.444,-1.755 8.018,-3.017 1.201,-0.588 2.367,-1.252 3.594,-1.778 2.595,-1.108 5.179,-2.244 7.285,-4.171 1.989,-1.821 3.9,-3.729 5.801,-5.644 0.605,-0.61 1.06,-1.364 1.594,-2.045 1.404,-1.8 2.868,-3.555 4.198,-5.409 0.756,-1.054 1.2,-2.334 1.951,-3.4 1.389,-1.976 2.096,-4.24 2.959,-6.446 0.682,-1.747 1.313,-3.522 1.848,-5.32 0.653,-2.193 1.291,-4.403 1.726,-6.646 0.356,-1.843 0.399,-3.744 0.602,-5.616 0.319,-2.904 0.668,-5.802 0.979,-8.706 0.094,-0.866 0.174,-1.742 0.131,-2.605 -0.08,-1.757 -0.248,-3.511 -0.382,-5.262 -0.093,-1.239 -0.17,-2.477 -0.29,-3.71 C 29.285,24.843 29.151,24.337 29.045,23.833 28.768,22.472 28.52,21.106 28.193,19.759 27.995,18.943 27.582,18.174 27.43,17.356 26.887,14.45 25.725,11.763 24.608,9.06 24.201,8.072 23.641,7.147 23.17,6.185 22.602,5.025 22.132,3.808 21.482,2.696 c -0.837,-1.439 -1.8,-2.811 -2.735,-4.19 -0.976,-1.438 -1.936,-2.893 -2.989,-4.277 -1.148,-1.502 -2.392,-2.932 -3.598,-4.395 -0.597,-0.724 -1.109,-1.561 -1.828,-2.138 -1.109,-0.898 -2.038,-2.091 -3.516,-2.458 -0.652,-0.165 -0.751,-0.715 -0.927,-1.227 -0.647,-1.843 -1.295,-3.687 -1.955,-5.529 -0.287,-0.798 -0.604,-1.583 -0.995,-2.605 0.405,0.232 0.626,0.349 0.837,0.482 1.928,1.228 3.48,2.871 5.011,4.539 2.326,2.532 4.738,4.983 6.971,7.592 2.137,2.496 4.101,5.134 6.107,7.738 0.614,0.795 1.138,1.667 1.635,2.54 0.659,1.156 1.275,2.338 1.867,3.532 0.811,1.622 1.604,3.263 2.365,4.911 0.215,0.461 0.313,0.982 0.439,1.481 0.492,1.92 1.02,3.834 1.446,5.771 0.493,2.26 1.018,4.526 1.299,6.819 0.375,3.07 0.147,6.156 -0.14,9.233 -0.09,0.963 -0.407,2.019 0.489,2.869 0.174,0.171 0.149,0.565 0.198,0.86 0.061,0.371 0.121,0.742 0.162,1.118 0.135,1.247 0.426,2.504 0.363,3.742 -0.117,2.302 -0.431,4.594 -0.683,6.889 -0.231,2.108 -0.485,4.215 -0.733,6.321 -0.582,4.908 -1.676,9.663 -3.988,14.084 -1.869,3.575 -3.707,7.168 -5.529,10.766 -1.159,2.286 -2.852,4.119 -4.726,5.819 -1.308,1.193 -2.558,2.452 -3.9,3.605 -1.466,1.26 -2.913,2.592 -4.548,3.601 -2.286,1.405 -4.719,2.582 -7.127,3.776 -2.269,1.126 -4.537,2.285 -6.897,3.178 -3.317,1.253 -6.744,2.215 -10.085,3.415 -3.82,1.374 -7.85,1.633 -11.795,2.295 -2.839,0.479 -5.712,-0.088 -8.558,-0.389 -2.155,-0.225 -4.327,-0.329 -6.473,-0.612 -1.86,-0.245 -3.699,-0.654 -5.549,-1.012 -2.521,-0.489 -5.019,-1.231 -7.56,-1.438 -3.936,-0.318 -7.118,-2.224 -10.287,-4.24 -1.235,-0.785 -2.401,-1.683 -3.574,-2.559 -1.396,-1.046 -2.879,-2.008 -4.12,-3.216 -2.536,-2.466 -5.086,-4.943 -7.035,-7.931 -1.722,-2.644 -3.482,-5.274 -5.042,-8.011 -1.362,-2.391 -2.482,-4.924 -3.695,-7.401 -1.186,-2.418 -2.443,-4.811 -3.496,-7.289 -0.667,-1.569 -1.044,-3.267 -1.507,-4.919 -0.411,-1.469 -0.748,-2.956 -1.143,-4.426 -0.265,-0.986 -0.574,-1.956 -0.895,-3.049 m 24.832,-30.187 c 0.135,0.024 0.328,0.016 0.479,0.095 0.944,0.48 1.884,0.966 2.814,1.47 1.244,0.672 2.457,1.414 3.731,2.016 0.655,0.312 0.716,0.691 0.583,1.291 -0.221,1.008 -0.426,2.023 -0.587,3.041 -0.041,0.254 0.029,0.67 0.191,0.769 0.198,0.119 0.68,0.082 0.812,-0.074 0.437,-0.529 0.85,-1.106 1.131,-1.727 0.5,-1.091 0.885,-1.195 1.825,-0.51 0.892,0.656 1.814,1.317 2.821,1.759 2.918,1.27 5.678,2.813 8.394,4.451 0.312,0.19 0.656,0.324 0.999,0.493 0.448,-0.957 -0.18,-1.128 -0.747,-1.422 -1.929,-1.01 -3.828,-2.079 -5.748,-3.1 -1.945,-1.036 -3.906,-2.04 -5.859,-3.061 -0.258,-0.136 -0.626,-0.214 -0.751,-0.43 -0.451,-0.779 -0.751,-0.298 -0.972,0.109 -0.281,0.524 -0.442,1.112 -0.693,1.656 -0.111,0.245 -0.317,0.446 -0.48,0.666 -0.066,-0.043 -0.132,-0.085 -0.199,-0.125 0.011,-0.155 0.002,-0.314 0.03,-0.466 0.184,-0.933 0.351,-1.873 0.577,-2.8 0.173,-0.721 0.076,-1.219 -0.736,-1.428 -0.384,-0.103 -0.746,-0.313 -1.108,-0.495 -1.568,-0.785 -3.117,-1.605 -4.699,-2.355 -1.026,-0.484 -2.303,-0.634 -2.433,-2.128 -0.006,-0.071 -0.1,-0.13 -0.138,-0.201 -1,-1.721 -1.962,-3.48 -3.442,-4.839 -1.215,-1.116 -2.473,-2.225 -3.852,-3.123 -1.295,-0.842 -2.735,-1.505 -4.179,-2.065 -1.536,-0.594 -3.127,-1.135 -4.744,-1.398 -1.092,-0.176 -2.274,0.137 -3.406,0.3 -0.974,0.141 -1.935,0.376 -3.032,0.599 0.147,-0.418 0.215,-0.742 0.365,-1.017 0.656,-1.194 1.319,-2.379 2.028,-3.541 0.094,-0.153 0.502,-0.257 0.683,-0.182 0.643,0.258 1.243,0.632 1.88,0.91 1.413,0.617 2.954,0.879 4.238,1.87 1.073,0.822 2.322,1.422 3.518,2.077 1.409,0.768 2.859,1.466 4.262,2.245 1.736,0.962 3.424,2.017 5.172,2.957 1.621,0.877 3.31,1.633 4.946,2.487 1.122,0.583 2.194,1.267 3.31,1.862 1.213,0.651 2.463,1.235 3.681,1.881 0.4,0.217 0.62,0.229 0.8,-0.249 0.159,-0.427 0.368,-0.849 0.626,-1.228 0.262,-0.385 0.591,-0.423 0.758,0.099 0.094,0.303 0.107,0.632 0.165,0.947 0.076,0.451 0.009,1.019 0.261,1.326 0.606,0.724 1.281,1.448 2.072,1.946 1.353,0.849 2.816,1.519 4.228,2.272 2.066,1.097 4.133,2.197 6.189,3.315 0.316,0.172 0.576,0.447 0.818,0.641 -0.265,0.626 -0.458,1.138 -0.693,1.629 -0.785,1.644 -1.57,3.29 -2.393,4.917 -0.737,1.453 -1.57,2.859 -2.281,4.326 -0.791,1.643 -1.448,3.354 -2.246,4.993 -1.56,3.206 -3.215,6.364 -4.759,9.579 -0.812,1.686 -1.58,3.408 -2.186,5.179 -0.856,2.492 -1.606,5.014 -1.587,7.72 0.02,2.541 0.241,5.002 1.455,7.282 0.442,0.833 0.812,1.726 1.376,2.47 1.273,1.661 3.021,2.772 4.797,3.832 0.513,0.304 0.984,0.683 1.508,0.962 2.924,1.551 5.883,3.036 8.777,4.636 1.525,0.841 3.028,1.593 4.732,2.079 2.13,0.606 4.221,0.696 6.395,0.564 2.67,-0.164 4.893,-1.061 6.467,-3.293 0.513,-0.731 0.974,-1.499 1.5,-2.221 1.193,-1.624 2.581,-3.135 3.582,-4.866 1.403,-2.421 2.544,-4.992 3.761,-7.517 0.431,-0.887 0.641,-1.041 1.576,-0.743 1.579,0.508 3.17,0.998 4.736,1.547 1.168,0.41 2.322,0.548 3.522,0.203 0.678,-0.193 1.363,-0.349 2.044,-0.522 1.786,-0.454 3.456,-1.235 4.51,-2.747 0.956,-1.367 1.662,-2.933 2.314,-4.481 0.473,-1.115 0.63,-2.358 1.017,-3.517 0.545,-1.641 0.57,-3.26 0.076,-4.908 -0.064,-0.217 -0.048,-0.458 -0.084,-0.874 0.963,0.701 1.738,1.361 2.602,1.877 1.711,1.028 3.394,2.161 5.226,2.912 2.08,0.851 4.08,2.084 6.504,1.9 1.932,-0.147 3.811,0.603 5.8,0.281 1.313,-0.21 2.487,-0.433 3.384,-1.471 0.111,-0.127 0.257,-0.22 0.528,-0.454 -0.061,0.369 -0.067,0.557 -0.126,0.723 -0.574,1.708 -1.148,3.416 -1.741,5.118 -1.158,3.322 -2.404,6.592 -4.252,9.631 -1.998,3.285 -4.36,6.286 -6.847,9.177 -1.623,1.894 -3.535,3.557 -5.442,5.176 -1.359,1.155 -2.853,2.194 -4.413,3.054 -1.979,1.091 -4.07,1.975 -6.137,2.894 -1.589,0.707 -3.2,1.373 -4.831,1.974 -2.659,0.981 -5.301,2.063 -8.028,2.8 -2.757,0.745 -5.6,1.183 -8.424,1.633 -1.909,0.302 -3.86,0.608 -5.778,0.532 -3.236,-0.126 -6.476,-0.459 -9.686,-0.893 -1.711,-0.232 -3.377,-0.826 -5.048,-1.312 -2.017,-0.588 -4.01,-1.26 -6.028,-1.85 -2.013,-0.585 -4.084,-1.004 -6.058,-1.703 -2.184,-0.772 -4.309,-1.729 -6.419,-2.699 -1.131,-0.524 -2.262,-1.127 -3.24,-1.893 -2.212,-1.727 -4.351,-3.555 -6.48,-5.387 -1.504,-1.292 -3.11,-2.527 -4.374,-4.033 -1.748,-2.083 -3.32,-4.331 -4.783,-6.629 -2.03,-3.195 -3.915,-6.481 -5.804,-9.763 -1.13,-1.958 -2.234,-3.937 -3.193,-5.982 -1.372,-2.926 -2.297,-6.014 -2.925,-9.186 -0.115,-0.58 -0.279,-1.22 -0.138,-1.755 0.076,-0.289 0.77,-0.396 1.16,-0.628 2.81,-1.675 5.614,-3.359 8.421,-5.046 0.449,-0.268 1.027,-0.442 0.864,-1.19 -0.02,-0.099 0.263,-0.297 0.437,-0.401 0.954,-0.568 1.979,-1.037 2.86,-1.698 1.034,-0.773 1.954,-1.699 2.908,-2.576 0.463,-0.425 0.809,-0.573 1.485,-0.207 1.932,1.049 3.943,1.947 5.927,2.897 0.951,0.456 1.918,0.88 2.865,1.342 0.994,0.482 1.968,1.001 2.958,1.489 0.834,0.413 1.683,0.792 2.511,1.209 1.752,0.885 3.487,1.804 5.251,2.663 0.224,0.109 0.578,-0.048 0.873,-0.082 -0.017,-0.081 -0.033,-0.163 -0.05,-0.244 -6.941,-3.391 -13.878,-6.781 -20.706,-10.116 0.53,-1.146 1.007,-2.209 1.511,-3.258 0.2,-0.416 0.474,-0.796 0.685,-1.208 0.197,-0.395 0.43,-0.419 0.783,-0.193 0.846,0.542 1.675,1.122 2.566,1.579 2.057,1.059 4.156,2.037 6.221,3.082 1.283,0.645 2.529,1.361 3.796,2.034 2.154,1.145 4.309,2.292 6.477,3.417 0.176,0.09 0.433,0.026 0.654,0.033 0.019,-0.071 0.036,-0.14 0.051,-0.21 -0.29,-0.23 -0.555,-0.517 -0.88,-0.678 -1.283,-0.624 -2.609,-1.16 -3.869,-1.826 -2.666,-1.411 -5.302,-2.881 -7.949,-4.326 -2.276,-1.243 -4.55,-2.483 -6.83,-3.714 -0.45,-0.243 -0.483,-0.488 -0.318,-0.985 0.383,-1.154 0.75,-2.336 0.913,-3.534 0.175,-1.264 0.113,-2.557 0.131,-3.84 0.009,-0.718 -0.032,-1.431 -0.053,-2.272 m -37.493,0.289 c -0.09,-0.042 -0.182,-0.087 -0.274,-0.128 0.008,-0.21 -0.009,-0.422 0.027,-0.623 0.502,-2.728 0.968,-5.463 1.529,-8.179 0.456,-2.209 0.929,-4.423 1.578,-6.58 0.447,-1.495 1.368,-2.854 1.799,-4.352 0.722,-2.515 2.102,-4.707 3.293,-6.972 1.249,-2.376 2.871,-4.569 4.415,-6.78 1.651,-2.362 3.372,-4.678 5.121,-6.966 1.038,-1.356 2.172,-2.638 3.306,-3.916 0.501,-0.564 1.162,-0.988 1.656,-1.557 2.157,-2.49 4.735,-4.49 7.421,-6.342 1.583,-1.09 3.322,-1.964 5.029,-2.858 2.173,-1.139 4.385,-2.195 6.579,-3.292 1.258,-0.628 2.475,-1.342 3.771,-1.878 2.521,-1.043 5.069,-2.03 7.636,-2.963 2.666,-0.967 5.378,-1.807 8.051,-2.761 2.531,-0.902 5.115,-1.517 7.759,-1.992 3.024,-0.538 6.052,-0.845 9.111,-0.877 1.808,-0.016 3.612,0.024 5.415,-0.018 3.086,-0.074 6.17,-0.294 9.251,-0.261 2.673,0.026 5.347,0.297 8.016,0.5 1.36,0.099 2.741,0.174 4.067,0.465 1.344,0.293 2.696,0.02 4.068,0.454 1.987,0.619 4.148,0.644 6.166,1.18 2.819,0.747 5.6,1.662 8.351,2.636 2.213,0.783 4.372,1.735 6.526,2.666 2.729,1.184 5.426,2.448 8.156,3.622 3.234,1.394 6.506,2.709 9.746,4.097 2.643,1.138 5.27,2.316 7.891,3.507 1.787,0.815 3.569,1.651 5.326,2.542 2.751,1.392 5.475,2.843 8.217,4.251 1.232,0.634 2.498,1.198 3.711,1.857 2.123,1.153 4.199,2.377 6.328,3.52 1.022,0.552 2.121,0.958 3.164,1.469 0.562,0.275 1.078,0.644 1.628,0.944 1.184,0.652 2.411,1.227 3.557,1.938 2.753,1.709 5.444,3.525 8.211,5.211 2.213,1.348 4.508,2.552 6.753,3.843 3.577,2.065 7.39,3.613 11.242,5.062 0.738,0.277 1.525,0.42 2.257,0.707 3.112,1.224 6.358,1.737 9.665,1.97 1.774,0.127 3.561,0.198 5.31,0.485 6.329,1.032 12.573,1.012 18.692,-1.181 3.911,-1.403 7.838,-2.756 11.746,-4.172 1.459,-0.527 2.905,-1.117 4.306,-1.779 1.144,-0.544 2.195,-1.276 3.32,-1.864 1.5,-0.784 3.031,-1.509 4.549,-2.256 1.566,-0.768 3.1,-1.613 4.709,-2.273 1.466,-0.596 2.743,0.153 2.891,1.723 0.192,2.022 0.196,4.064 0.247,6.1 0.015,0.678 -0.008,1.373 -0.135,2.036 -0.432,2.268 -0.883,4.535 -1.389,6.789 -0.686,3.037 -1.393,6.067 -2.158,9.085 -0.723,2.855 -1.501,5.704 -3.086,8.242 -1.655,2.657 -2.879,5.507 -3.916,8.453 -0.619,1.761 -1.311,3.503 -2.086,5.203 -1.302,2.854 -2.671,5.679 -4.06,8.491 -0.883,1.786 -1.792,3.564 -2.805,5.28 -1.175,1.99 -2.484,3.901 -3.718,5.857 -1.826,2.904 -3.632,5.823 -5.463,8.725 -1.586,2.516 -3.206,5.011 -4.796,7.527 -1.803,2.852 -3.527,5.762 -5.411,8.562 -1.412,2.1 -2.961,4.117 -4.566,6.075 -1.156,1.408 -2.531,2.633 -3.768,3.976 -1.56,1.699 -3.018,3.489 -4.63,5.137 -1.598,1.636 -3.262,3.223 -5.019,4.689 -2.532,2.116 -5.149,4.135 -7.777,6.133 -1.823,1.385 -3.72,2.665 -5.592,3.984 -1.284,0.906 -2.57,1.807 -3.872,2.688 -1.307,0.884 -2.623,1.749 -3.945,2.607 -0.613,0.398 -1.301,0.694 -1.87,1.143 -1.259,0.992 -2.642,1.717 -4.183,2.155 -1.162,0.329 -1.581,0.07 -1.464,-1.172 0.134,-1.399 0.401,-2.798 0.741,-4.167 0.629,-2.54 1.496,-5.026 1.995,-7.587 0.46,-2.349 0.642,-4.758 0.802,-7.153 0.145,-2.142 0.318,-4.319 0.075,-6.441 -0.471,-4.167 -1.11,-8.325 -1.889,-12.448 -0.92,-4.87 -1.835,-9.751 -3.607,-14.42 -1.393,-3.669 -2.606,-7.412 -4.081,-11.047 -1.154,-2.85 -2.433,-5.666 -3.924,-8.349 -1.627,-2.922 -3.547,-5.68 -5.367,-8.491 -1.683,-2.602 -3.373,-5.202 -5.119,-7.761 -2.223,-3.268 -4.494,-6.499 -6.77,-9.728 -1.119,-1.587 -2.284,-3.134 -3.43,-4.696 C 54.855,13.042 54.346,12.295 53.775,11.601 52.537,10.077 51.258,8.585 50.008,7.067 47.95,4.568 45.955,2.008 43.829,-0.435 c -1.167,-1.34 -2.506,-2.549 -3.85,-3.722 -2.125,-1.86 -3.682,-4.281 -6.075,-5.896 -1.263,-0.853 -2.218,-2.152 -3.384,-3.171 -1.838,-1.609 -3.711,-3.184 -5.618,-4.716 -1.759,-1.413 -3.564,-2.773 -5.381,-4.118 -2.093,-1.545 -4,-3.349 -6.445,-4.394 -0.812,-0.347 -1.484,-0.999 -2.252,-1.461 -1.46,-0.877 -2.955,-1.706 -4.422,-2.574 -1.774,-1.048 -3.529,-2.119 -5.293,-3.178 -0.093,-0.056 -0.199,-0.094 -0.304,-0.122 -1.832,-0.526 -3.673,-1.018 -5.494,-1.582 -1.083,-0.334 -2.157,-0.729 -3.194,-1.187 -2.089,-0.924 -4.121,-1.975 -6.227,-2.853 -2.447,-1.025 -4.839,-2.225 -7.5,-2.655 -0.212,-0.038 -0.417,-0.132 -0.63,-0.186 -2.366,-0.62 -4.709,-1.354 -7.108,-1.817 -2.051,-0.395 -4.161,-0.565 -6.254,-0.678 -4.394,-0.237 -8.699,0.265 -12.928,1.59 -4.791,1.503 -9.651,2.801 -14.211,4.959 -2.781,1.317 -5.62,2.551 -8.252,4.128 -2.873,1.72 -5.624,3.682 -8.27,5.742 -2.945,2.291 -5.778,4.753 -8.117,7.693 -1.659,2.084 -3.235,4.238 -4.79,6.403 -2.73,3.807 -5.598,7.523 -7.816,11.676 -0.56,1.053 -1.269,2.035 -1.791,3.104 -0.764,1.557 -1.534,3.126 -2.097,4.761 -0.534,1.549 -0.8,3.192 -1.192,4.791 -0.048,0.202 -0.096,0.426 -0.215,0.589 -0.935,1.271 -1.888,2.53 -2.84,3.788 -0.496,0.663 -0.996,1.321 -1.497,1.984 m 2.806,-18.3 c -1.648,6.452 -3.75,12.726 -3.809,19.522 -0.444,0.195 -0.84,0.898 -1.664,0.488 -0.114,-0.059 -0.523,0.268 -0.667,0.498 -1.93,2.967 -3.846,5.936 -5.739,8.923 -1.572,2.478 -3.171,4.948 -4.644,7.489 -1.583,2.725 -3.061,5.514 -4.531,8.303 -1.401,2.656 -2.701,5.36 -4.102,8.013 -1.595,3.015 -3.213,6.02 -4.903,8.981 -1.052,1.842 -2.274,3.586 -3.39,5.387 -1.047,1.694 -2.062,3.406 -3.076,5.117 -0.975,1.638 -1.918,3.294 -2.902,4.93 -1.065,1.774 -2.123,3.551 -3.255,5.284 -0.787,1.204 -1.695,2.328 -2.547,3.491 -0.704,0.961 -1.386,1.945 -2.111,2.893 -1.287,1.686 -2.594,3.359 -3.907,5.029 -1.209,1.538 -2.374,3.116 -3.668,4.579 -1.221,1.379 -2.406,2.935 -3.945,3.841 -1.214,0.713 -1.566,1.893 -2.495,2.587 1.255,0.939 2.451,1.822 3.634,2.723 1.646,1.255 3.304,2.489 4.909,3.792 1.288,1.041 2.66,1.918 4.229,2.437 0.743,0.247 1.54,0.356 2.325,0.442 0.769,0.085 1.37,-0.476 1.532,-1.357 0.234,-1.256 0.352,-2.54 0.678,-3.773 0.553,-2.107 1.242,-4.182 1.852,-6.277 0.56,-1.933 1.087,-3.878 1.646,-5.811 0.097,-0.334 0.321,-0.63 0.426,-0.961 0.131,-0.414 0.2,-0.846 0.295,-1.271 0.04,-0.184 0.055,-0.372 0.115,-0.547 0.656,-1.962 1.332,-3.917 1.973,-5.883 0.175,-0.531 0.349,-0.914 0.942,-1.2 1.107,-0.534 1.878,-1.475 2.261,-2.682 0.065,-0.207 0.143,-0.411 0.225,-0.614 0.221,-0.548 0.518,-1.081 0.004,-1.655 -0.11,-0.124 -0.057,-0.396 0.119,-0.44 0.337,-0.195 0.76,-0.312 0.996,-0.591 1.828,-2.169 3.623,-4.368 5.424,-6.562 2.57,-3.134 5.41,-6.011 8.656,-8.418 3.743,-2.776 7.604,-5.39 11.452,-8.019 3.286,-2.246 6.629,-4.401 9.926,-6.625 0.585,-0.394 0.833,-0.237 0.973,0.357 0.105,0.451 0.253,0.904 0.27,1.362 0.113,3.275 0.784,6.446 1.69,9.586 0.649,2.245 1.215,4.519 1.942,6.743 0.413,1.279 1.065,2.479 1.613,3.716 0.042,0.1 0.138,0.19 0.149,0.289 0.136,1.459 1.187,2.458 1.851,3.647 0.862,1.539 1.759,3.057 2.663,4.572 0.846,1.421 1.616,2.904 2.607,4.217 1.126,1.496 2.471,2.821 3.694,4.241 1.105,1.281 2.205,2.568 3.249,3.899 1.353,1.723 3.02,2.995 4.98,3.981 2.409,1.215 4.727,2.601 7.093,3.898 2.37,1.298 4.82,2.416 7.381,3.297 2.763,0.949 5.501,1.965 8.25,2.951 0.282,0.101 0.563,0.216 0.856,0.278 3.075,0.651 6.14,1.365 9.232,1.912 2.82,0.497 5.664,0.871 8.513,1.188 2.328,0.261 4.686,0.282 7.016,0.55 3.987,0.458 7.922,0.14 11.814,-0.702 2.559,-0.557 5.108,-1.216 7.606,-1.997 2.133,-0.666 4.209,-1.533 6.282,-2.381 4.045,-1.655 8.088,-3.299 11.82,-5.624 1.453,-0.906 3.15,-1.425 4.584,-2.351 1.693,-1.093 3.23,-2.425 4.811,-3.681 1.216,-0.963 2.42,-1.941 3.586,-2.965 1.246,-1.095 2.482,-2.205 3.642,-3.392 2.096,-2.144 4.211,-4.28 6.158,-6.554 1.068,-1.253 1.853,-2.759 2.698,-4.19 0.8,-1.361 1.625,-2.729 2.234,-4.176 0.879,-2.08 1.71,-4.203 2.314,-6.376 0.753,-2.703 1.318,-5.461 1.847,-8.219 0.263,-1.386 0.284,-2.821 0.39,-4.233 0.177,-2.332 0.34,-4.663 0.5,-6.999 0.101,-1.41 0.052,-2.849 0.334,-4.224 0.353,-1.738 -0.118,-3.413 -0.101,-5.118 0.027,-2.79 -0.518,-5.521 -0.895,-8.275 -0.279,-2.015 -0.307,-4.058 -0.491,-6.084 -0.157,-1.71 -0.48,-3.407 -0.549,-5.116 -0.084,-2.119 -0.28,-4.304 0.132,-6.344 0.35,-1.729 1.363,-3.379 2.33,-4.904 1.118,-1.768 3.238,-2.217 5.238,-1.341 1.099,0.484 2.224,0.967 3.207,1.639 0.643,0.44 1.038,1.234 1.564,1.849 0.955,1.113 1.936,2.205 2.891,3.316 0.218,0.252 0.385,0.543 0.574,0.815 -0.054,0.044 -0.105,0.09 -0.161,0.138 -0.837,-0.668 -1.671,-1.34 -2.513,-2.003 -1.403,-1.107 -2.968,-1.925 -4.642,-2.545 -1.955,-0.727 -4.893,0.074 -5.797,1.827 -0.559,1.086 -0.773,2.384 -0.963,3.613 -0.277,1.803 -0.432,3.625 -0.561,5.448 -0.074,1.021 -0.014,2.055 0.024,3.084 0.086,2.236 0.195,4.471 0.299,6.707 0.012,0.297 0.049,0.592 0.242,0.888 0.05,-1.273 0.144,-2.547 0.139,-3.82 -0.01,-1.969 -0.157,-3.936 -0.11,-5.902 0.028,-1.133 0.333,-2.259 0.503,-3.392 0.199,-1.323 0.353,-2.655 0.59,-3.969 0.546,-3.016 3.662,-4.461 6.376,-2.984 1.096,0.598 2.217,1.162 3.266,1.832 0.771,0.492 1.439,1.149 2.168,1.708 0.725,0.557 1.482,1.072 2.205,1.633 0.447,0.349 0.945,0.683 1.267,1.133 2.848,3.968 5.654,7.961 8.479,11.943 1.04,1.461 2.127,2.894 3.142,4.371 0.569,0.829 0.988,1.76 1.552,2.59 1.349,1.985 2.788,3.909 4.099,5.919 0.786,1.208 1.451,2.506 2.091,3.804 1.402,2.837 2.887,5.642 4.086,8.562 1.257,3.053 2.223,6.225 3.303,9.347 0.481,1.394 1.018,2.778 1.377,4.202 0.75,2.963 1.471,5.94 2.074,8.936 0.65,3.21 1.216,6.439 1.711,9.68 0.715,4.699 0.666,9.431 0.254,14.154 -0.305,3.468 -1.137,6.835 -2.123,10.166 -0.431,1.459 -0.894,2.917 -1.189,4.409 -0.164,0.826 -0.157,1.755 0.05,2.568 0.122,0.479 0.765,0.842 1.208,1.218 0.195,0.164 0.474,0.232 0.569,0.276 0.8,-0.447 1.534,-0.829 2.241,-1.26 1.582,-0.965 3.168,-1.917 4.715,-2.939 2.09,-1.375 4.141,-2.812 6.212,-4.223 2.302,-1.567 4.626,-3.098 6.9,-4.709 1.822,-1.293 3.645,-2.607 5.354,-4.044 2.504,-2.109 4.923,-4.318 7.344,-6.522 0.702,-0.641 1.28,-1.414 1.931,-2.113 2.59,-2.774 5.298,-5.444 7.742,-8.341 2.567,-3.041 4.761,-6.369 6.74,-9.846 1.321,-2.318 2.875,-4.5 4.334,-6.742 1.913,-2.941 3.851,-5.867 5.738,-8.824 1.508,-2.363 2.939,-4.775 4.425,-7.15 0.832,-1.328 1.772,-2.593 2.545,-3.954 0.706,-1.247 1.246,-2.585 1.874,-3.876 0.79,-1.609 1.651,-3.186 2.373,-4.827 0.587,-1.338 1.004,-2.751 1.521,-4.121 0.19,-0.51 0.452,-0.99 0.672,-1.485 1.365,-3.087 2.701,-6.183 4.104,-9.254 0.541,-1.185 1.277,-2.281 1.836,-3.462 0.66,-1.399 1.339,-2.805 1.813,-4.27 0.943,-2.927 1.816,-5.883 2.592,-8.858 0.522,-1.996 0.827,-4.051 1.226,-6.08 0.45,-2.297 0.956,-4.585 1.328,-6.896 0.187,-1.143 0.205,-2.331 0.165,-3.494 -0.049,-1.467 -0.15,-2.938 -0.382,-4.384 -0.207,-1.275 -1.635,-2.241 -2.902,-1.931 -1.281,0.311 -2.555,0.76 -3.746,1.33 -2.362,1.138 -4.671,2.388 -6.985,3.62 -1.079,0.574 -2.075,1.321 -3.19,1.812 -2.067,0.917 -4.178,1.737 -6.296,2.538 -2.576,0.975 -5.158,1.944 -7.771,2.818 -1.865,0.625 -3.788,1.068 -5.676,1.624 -3.43,1.009 -6.928,0.747 -10.415,0.546 -1.168,-0.068 -2.321,-0.327 -3.49,-0.424 -1.602,-0.135 -3.219,-0.124 -4.818,-0.309 -3.223,-0.367 -6.456,-0.722 -9.529,-1.874 -3.089,-1.151 -6.251,-2.144 -9.243,-3.513 -3.444,-1.57 -6.77,-3.415 -10.08,-5.257 -2.315,-1.284 -4.524,-2.76 -6.779,-4.151 -2.487,-1.527 -4.942,-3.11 -7.469,-4.562 -1.793,-1.032 -3.698,-1.867 -5.53,-2.833 -3.375,-1.781 -6.718,-3.62 -10.105,-5.378 -1.863,-0.964 -3.785,-1.813 -5.678,-2.716 -2.338,-1.118 -4.674,-2.243 -7.015,-3.351 -2.881,-1.363 -5.751,-2.749 -8.656,-4.053 -1.693,-0.76 -3.456,-1.357 -5.168,-2.067 -0.801,-0.332 -1.541,-0.804 -2.344,-1.124 -1.115,-0.442 -2.278,-0.762 -3.39,-1.209 -0.932,-0.378 -1.817,-0.868 -2.725,-1.299 -1.452,-0.685 -2.895,-1.385 -4.364,-2.033 -1.467,-0.647 -2.933,-1.31 -4.448,-1.827 -2.452,-0.837 -4.935,-1.572 -7.413,-2.321 -1.568,-0.475 -3.153,-0.894 -4.732,-1.339 -0.104,-0.031 -0.215,-0.119 -0.309,-0.102 -2.008,0.364 -3.838,-0.587 -5.767,-0.785 -2.857,-0.293 -5.699,-0.727 -8.561,-0.924 -2.669,-0.184 -5.356,-0.211 -8.031,-0.169 -5.328,0.088 -10.656,0.199 -15.977,0.446 -2.092,0.098 -4.177,0.525 -6.245,0.905 -5.052,0.935 -9.765,2.96 -14.574,4.673 -1.237,0.437 -2.47,0.909 -3.737,1.23 -0.693,0.173 -1.498,0.212 -2.186,0.04 -1.315,-0.329 -2.419,0.233 -3.568,0.61 -0.988,0.324 -1.914,0.831 -2.911,1.103 -0.548,0.149 -1.182,-0.017 -1.777,-0.039 -1.493,-0.049 -2.99,-0.089 -4.484,-0.149 -0.272,-0.008 -0.546,-0.062 -0.808,-0.127 -1.158,-0.283 -1.226,-0.507 -0.703,-1.572 0.781,-1.591 1.218,-3.228 0.836,-5.052 -0.231,-1.122 -1.072,-1.385 -1.945,-1.049 -1.286,0.488 -2.166,1.508 -2.687,2.798 -0.383,0.944 -0.8,1.882 -1.087,2.856 -0.383,1.301 -0.754,2.642 -0.345,4.008 0.345,1.136 1.141,1.765 2.311,2.087 2.046,0.566 4.102,0.482 6.175,0.339 0.117,-0.01 0.237,0.048 0.616,0.132 -1.209,0.64 -2.224,1.14 -3.2,1.704 -2.123,1.227 -4.32,2.343 -6.147,4.029 -0.599,0.552 -1.198,1.159 -1.91,1.51 -0.564,0.28 -1.308,0.186 -1.962,0.301 -2.378,0.414 -4.287,-0.678 -6.142,-1.909 -0.5,-0.331 -0.451,-1.688 0.056,-2.519 0.599,-0.979 0.933,-2 0.326,-3.078 -0.226,-0.399 -0.632,-0.698 -0.886,-0.967 -2.249,1.272 -3.217,3.406 -4.292,5.447 -0.695,1.31 -1.325,2.657 -1.989,3.985 -0.471,0.94 -0.286,1.88 0.057,2.783 0.234,0.607 1.216,0.647 1.84,0.036 0.858,-0.834 1.664,-1.724 2.454,-2.622 0.346,-0.396 0.676,-0.448 1.049,-0.123 0.698,0.611 1.423,1.192 2.046,1.867 1.036,1.123 1.041,3.147 0.104,4.38 -1.191,1.562 -2.386,3.118 -3.545,4.699 -0.289,0.397 -0.513,0.536 -1,0.308 -0.327,-0.152 -0.746,-0.128 -1.127,-0.165 -1.629,-0.148 -2.812,-1.811 -2.295,-3.328 0.473,-1.39 0.147,-2.642 -0.596,-3.794 -0.265,-0.414 -0.752,-0.255 -1.131,0.096 -1.227,1.13 -2.031,2.529 -2.732,4.031 -0.919,1.979 -2.007,3.872 -2.941,5.843 -0.281,0.594 -0.328,1.312 -0.42,1.984 -0.025,0.205 0.104,0.532 0.265,0.632 0.148,0.091 0.474,0.008 0.659,-0.102 1.48,-0.876 2.765,-1.929 3.265,-3.686 0.153,-0.529 0.542,-0.786 1.077,-0.525 1.552,0.756 2.587,1.914 2.931,3.673 0.22,1.134 -0.632,1.748 -1.074,2.554 -1.139,2.077 -2.381,4.104 -3.492,6.196 -0.713,1.346 -1.286,2.768 -1.883,4.171 -0.252,0.59 -0.532,0.711 -1.03,0.277 -0.373,-0.317 -0.785,-0.59 -1.156,-0.915 -0.992,-0.862 -2.181,-0.852 -3.176,-0.301 -0.695,0.382 -1.064,1.323 -1.639,1.964 -0.376,0.427 -0.824,0.811 -1.301,1.128 -0.173,0.116 -0.597,0.076 -0.75,-0.066 -0.14,-0.127 -0.167,-0.536 -0.069,-0.735 0.44,-0.902 0.958,-1.761 1.418,-2.658 1.02,-1.982 2.01,-3.98 3.04,-5.96 0.186,-0.358 0.477,-0.667 0.754,-0.964 0.437,-0.479 0.857,-0.336 0.917,0.241 0.088,0.88 0.015,1.778 -0.002,2.672 -0.005,0.186 -0.073,0.373 -0.119,0.558 -0.43,1.743 -0.149,2.218 1.558,2.66 0.311,0.081 0.601,0.25 0.916,0.307 0.277,0.051 0.576,0.002 0.865,-0.002 -0.184,-0.273 -0.314,-0.619 -0.563,-0.804 -0.32,-0.233 -0.724,-0.377 -1.112,-0.495 -0.942,-0.281 -1.137,-0.831 -0.964,-1.792 0.234,-1.282 0.349,-2.613 -0.225,-3.868 -0.447,-0.986 -1.089,-1.158 -1.704,-0.29 -0.905,1.281 -1.651,2.677 -2.421,4.049 -0.879,1.562 -1.692,3.156 -2.561,4.723 -0.443,0.797 -0.844,1.581 -0.722,2.542 0.115,0.898 0.661,1.263 1.571,1.133 1.242,-0.18 1.936,-0.974 2.493,-1.981 0.769,-1.392 1.673,-1.874 2.797,-1.423 0.385,0.155 0.675,0.525 1.03,0.768 0.469,0.317 0.955,0.609 1.347,0.858"
             style="fill:#3d3c3e;fill-opacity:1;fill-rule:evenodd;stroke:#3d3c3e;stroke-width:1;stroke-linecap:butt;stroke-linejoin:miter;stroke-miterlimit:10;stroke-dasharray:none;stroke-opacity:1"
             id="path22"
             inkscape:connector-curvature="0" /></g><g
           id="g24"
           transform="translate(119.4012,219.3402)"><path
             d="m 0,0 c 0.5,-0.66 1,-1.319 1.498,-1.981 0.95,-1.259 1.901,-2.52 2.84,-3.79 0.119,-0.162 0.166,-0.385 0.214,-0.587 0.393,-1.602 0.659,-3.245 1.193,-4.794 0.561,-1.633 1.331,-3.202 2.096,-4.761 0.523,-1.068 1.231,-2.048 1.792,-3.104 2.216,-4.153 5.086,-7.867 7.814,-11.674 1.554,-2.166 3.131,-4.321 4.789,-6.405 2.339,-2.94 5.172,-5.402 8.118,-7.693 2.648,-2.06 5.396,-4.022 8.27,-5.742 2.632,-1.573 5.472,-2.811 8.254,-4.125 4.56,-2.158 9.418,-3.457 14.211,-4.962 4.228,-1.323 8.534,-1.827 12.928,-1.589 2.093,0.112 4.202,0.283 6.254,0.679 2.398,0.462 4.742,1.196 7.107,1.815 0.213,0.054 0.418,0.151 0.63,0.186 2.661,0.43 5.053,1.631 7.5,2.655 2.104,0.878 4.139,1.932 6.227,2.854 1.036,0.457 2.112,0.852 3.195,1.188 1.82,0.563 3.662,1.056 5.494,1.582 0.104,0.028 0.21,0.065 0.303,0.12 1.764,1.06 3.52,2.131 5.292,3.178 1.468,0.871 2.962,1.697 4.423,2.574 0.769,0.462 1.439,1.114 2.25,1.463 2.448,1.043 4.355,2.848 6.445,4.392 1.819,1.345 3.623,2.706 5.383,4.119 1.906,1.531 3.78,3.106 5.616,4.718 1.165,1.016 2.12,2.317 3.386,3.168 2.394,1.616 3.949,4.037 6.074,5.898 1.346,1.171 2.683,2.38 3.852,3.722 2.127,2.444 4.121,5.003 6.179,7.503 1.248,1.518 2.526,3.007 3.767,4.531 0.569,0.697 1.077,1.441 1.612,2.169 1.145,1.562 2.313,3.108 3.43,4.695 2.274,3.228 4.547,6.462 6.77,9.728 1.744,2.559 3.435,5.161 5.12,7.761 1.817,2.811 3.738,5.572 5.364,8.493 1.494,2.683 2.773,5.499 3.928,8.348 1.471,3.636 2.686,7.377 4.08,11.046 1.769,4.669 2.685,9.553 3.605,14.423 0.779,4.12 1.42,8.278 1.891,12.448 0.243,2.119 0.069,4.299 -0.074,6.44 -0.162,2.393 -0.346,4.804 -0.803,7.153 -0.5,2.561 -1.368,5.047 -1.994,7.585 -0.342,1.369 -0.61,2.768 -0.743,4.17 -0.118,1.242 0.302,1.498 1.463,1.169 1.54,-0.436 2.922,-1.16 4.186,-2.153 0.568,-0.45 1.255,-0.747 1.868,-1.145 1.322,-0.855 2.64,-1.723 3.945,-2.607 1.299,-0.881 2.588,-1.782 3.873,-2.686 1.87,-1.319 3.768,-2.601 5.59,-3.985 2.629,-1.997 5.244,-4.018 7.779,-6.133 1.755,-1.467 3.421,-3.054 5.018,-4.69 1.61,-1.646 3.071,-3.438 4.631,-5.135 1.236,-1.343 2.609,-2.568 3.765,-3.977 1.608,-1.956 3.157,-3.976 4.569,-6.076 1.884,-2.8 3.605,-5.71 5.408,-8.561 1.593,-2.514 3.21,-5.012 4.799,-7.526 1.83,-2.904 3.635,-5.822 5.463,-8.727 1.233,-1.954 2.543,-3.866 3.718,-5.857 1.011,-1.716 1.92,-3.491 2.804,-5.278 1.389,-2.812 2.756,-5.639 4.06,-8.491 0.775,-1.702 1.466,-3.442 2.087,-5.203 1.035,-2.946 2.258,-5.798 3.916,-8.454 1.583,-2.537 2.362,-5.386 3.084,-8.243 0.764,-3.018 1.474,-6.048 2.157,-9.085 0.509,-2.251 0.959,-4.518 1.39,-6.788 0.128,-0.664 0.151,-1.358 0.137,-2.034 -0.051,-2.036 -0.055,-4.078 -0.248,-6.102 -0.149,-1.569 -1.426,-2.317 -2.89,-1.721 -1.612,0.659 -3.144,1.502 -4.709,2.273 -1.519,0.744 -3.05,1.47 -4.551,2.255 -1.123,0.586 -2.177,1.318 -3.321,1.862 -1.402,0.664 -2.845,1.252 -4.306,1.78 -3.905,1.417 -7.832,2.77 -11.743,4.171 -6.122,2.194 -12.363,2.214 -18.694,1.184 -1.749,-0.288 -3.536,-0.361 -5.308,-0.485 -3.31,-0.235 -6.556,-0.749 -9.665,-1.971 -0.733,-0.289 -1.52,-0.432 -2.259,-0.707 -3.852,-1.45 -7.662,-2.999 -11.242,-5.061 -2.243,-1.294 -4.541,-2.498 -6.752,-3.844 -2.768,-1.688 -5.457,-3.503 -8.209,-5.212 -1.147,-0.71 -2.377,-1.287 -3.56,-1.937 -0.548,-0.302 -1.063,-0.669 -1.625,-0.946 -1.043,-0.51 -2.143,-0.917 -3.167,-1.469 -2.126,-1.14 -4.207,-2.367 -6.327,-3.52 -1.215,-0.656 -2.48,-1.223 -3.712,-1.855 -2.743,-1.41 -5.464,-2.859 -8.214,-4.253 -1.758,-0.888 -3.54,-1.726 -5.33,-2.542 -2.621,-1.19 -5.245,-2.369 -7.891,-3.507 -3.238,-1.388 -6.508,-2.703 -9.743,-4.096 -2.734,-1.173 -5.427,-2.439 -8.156,-3.62 -2.158,-0.934 -4.314,-1.884 -6.526,-2.669 -2.751,-0.974 -5.532,-1.887 -8.351,-2.633 -2.019,-0.538 -4.181,-0.561 -6.166,-1.183 -1.375,-0.434 -2.724,-0.159 -4.068,-0.454 -1.327,-0.289 -2.707,-0.365 -4.068,-0.465 -2.668,-0.201 -5.343,-0.474 -8.015,-0.497 -3.081,-0.033 -6.166,0.185 -9.251,0.26 -1.803,0.04 -3.611,0 -5.416,0.019 -3.061,0.032 -6.089,0.336 -9.111,0.876 -2.644,0.473 -5.228,1.09 -7.758,1.991 -2.673,0.955 -5.385,1.795 -8.052,2.762 -2.567,0.933 -5.115,1.918 -7.637,2.962 -1.295,0.535 -2.514,1.251 -3.77,1.877 -2.193,1.098 -4.408,2.155 -6.579,3.293 -1.71,0.894 -3.445,1.769 -5.028,2.857 -2.686,1.852 -5.265,3.854 -7.422,6.342 -0.493,0.57 -1.154,0.994 -1.655,1.559 -1.134,1.276 -2.269,2.559 -3.306,3.915 -1.752,2.287 -3.47,4.603 -5.123,6.965 -1.545,2.214 -3.164,4.405 -4.416,6.78 -1.19,2.265 -2.569,4.457 -3.29,6.974 -0.431,1.499 -1.352,2.856 -1.802,4.35 -0.649,2.158 -1.119,4.373 -1.577,6.58 -0.559,2.716 -1.029,5.451 -1.528,8.181 -0.036,0.199 -0.019,0.414 -0.026,0.622 C -0.181,-0.086 -0.089,-0.043 0,0"
             style="fill:#3d3c3e;fill-opacity:1;fill-rule:nonzero;stroke:none"
             id="path26"
             inkscape:connector-curvature="0" /></g><g
           id="g28"
           transform="translate(119.4012,219.3402)"><path
             d="m 0,0 c 0.5,-0.66 1,-1.319 1.498,-1.981 0.95,-1.259 1.901,-2.52 2.84,-3.79 0.119,-0.162 0.166,-0.385 0.214,-0.587 0.393,-1.602 0.659,-3.245 1.193,-4.794 0.561,-1.633 1.331,-3.202 2.096,-4.761 0.523,-1.068 1.231,-2.048 1.792,-3.104 2.216,-4.153 5.086,-7.867 7.814,-11.674 1.554,-2.166 3.131,-4.321 4.789,-6.405 2.339,-2.94 5.172,-5.402 8.118,-7.693 2.648,-2.06 5.396,-4.022 8.27,-5.742 2.632,-1.573 5.472,-2.811 8.254,-4.125 4.56,-2.158 9.418,-3.457 14.211,-4.962 4.228,-1.323 8.534,-1.827 12.928,-1.589 2.093,0.112 4.202,0.283 6.254,0.679 2.398,0.462 4.742,1.196 7.107,1.815 0.213,0.054 0.418,0.151 0.63,0.186 2.661,0.43 5.053,1.631 7.5,2.655 2.104,0.878 4.139,1.932 6.227,2.854 1.036,0.457 2.112,0.852 3.195,1.188 1.82,0.563 3.662,1.056 5.494,1.582 0.104,0.028 0.21,0.065 0.303,0.12 1.764,1.06 3.52,2.131 5.292,3.178 1.468,0.871 2.962,1.697 4.423,2.574 0.769,0.462 1.439,1.114 2.25,1.463 2.448,1.043 4.355,2.848 6.445,4.392 1.819,1.345 3.623,2.706 5.383,4.119 1.906,1.531 3.78,3.106 5.616,4.718 1.165,1.016 2.12,2.317 3.386,3.168 2.394,1.616 3.949,4.037 6.074,5.898 1.346,1.171 2.683,2.38 3.852,3.722 2.127,2.444 4.121,5.003 6.179,7.503 1.248,1.518 2.526,3.007 3.767,4.531 0.569,0.697 1.077,1.441 1.612,2.169 1.145,1.562 2.313,3.108 3.43,4.695 2.274,3.228 4.547,6.462 6.77,9.728 1.744,2.559 3.435,5.161 5.12,7.761 1.817,2.811 3.738,5.572 5.364,8.493 1.494,2.683 2.773,5.499 3.928,8.348 1.471,3.636 2.686,7.377 4.08,11.046 1.769,4.669 2.685,9.553 3.605,14.423 0.779,4.12 1.42,8.278 1.891,12.448 0.243,2.119 0.069,4.299 -0.074,6.44 -0.162,2.393 -0.346,4.804 -0.803,7.153 -0.5,2.561 -1.368,5.047 -1.994,7.585 -0.342,1.369 -0.61,2.768 -0.743,4.17 -0.118,1.242 0.302,1.498 1.463,1.169 1.54,-0.436 2.922,-1.16 4.186,-2.153 0.568,-0.45 1.255,-0.747 1.868,-1.145 1.322,-0.855 2.64,-1.723 3.945,-2.607 1.299,-0.881 2.588,-1.782 3.873,-2.686 1.87,-1.319 3.768,-2.601 5.59,-3.985 2.629,-1.997 5.244,-4.018 7.779,-6.133 1.755,-1.467 3.421,-3.054 5.018,-4.69 1.61,-1.646 3.071,-3.438 4.631,-5.135 1.236,-1.343 2.609,-2.568 3.765,-3.977 1.608,-1.956 3.157,-3.976 4.569,-6.076 1.884,-2.8 3.605,-5.71 5.408,-8.561 1.593,-2.514 3.21,-5.012 4.799,-7.526 1.83,-2.904 3.635,-5.822 5.463,-8.727 1.233,-1.954 2.543,-3.866 3.718,-5.857 1.011,-1.716 1.92,-3.491 2.804,-5.278 1.389,-2.812 2.756,-5.639 4.06,-8.491 0.775,-1.702 1.466,-3.442 2.087,-5.203 1.035,-2.946 2.258,-5.798 3.916,-8.454 1.583,-2.537 2.362,-5.386 3.084,-8.243 0.764,-3.018 1.474,-6.048 2.157,-9.085 0.509,-2.251 0.959,-4.518 1.39,-6.788 0.128,-0.664 0.151,-1.358 0.137,-2.034 -0.051,-2.036 -0.055,-4.078 -0.248,-6.102 -0.149,-1.569 -1.426,-2.317 -2.89,-1.721 -1.612,0.659 -3.144,1.502 -4.709,2.273 -1.519,0.744 -3.05,1.47 -4.551,2.255 -1.123,0.586 -2.177,1.318 -3.321,1.862 -1.402,0.664 -2.845,1.252 -4.306,1.78 -3.905,1.417 -7.832,2.77 -11.743,4.171 -6.122,2.194 -12.363,2.214 -18.694,1.184 -1.749,-0.288 -3.536,-0.361 -5.308,-0.485 -3.31,-0.235 -6.556,-0.749 -9.665,-1.971 -0.733,-0.289 -1.52,-0.432 -2.259,-0.707 -3.852,-1.45 -7.662,-2.999 -11.242,-5.061 -2.243,-1.294 -4.541,-2.498 -6.752,-3.844 -2.768,-1.688 -5.457,-3.503 -8.209,-5.212 -1.147,-0.71 -2.377,-1.287 -3.56,-1.937 -0.548,-0.302 -1.063,-0.669 -1.625,-0.946 -1.043,-0.51 -2.143,-0.917 -3.167,-1.469 -2.126,-1.14 -4.207,-2.367 -6.327,-3.52 -1.215,-0.656 -2.48,-1.223 -3.712,-1.855 -2.743,-1.41 -5.464,-2.859 -8.214,-4.253 -1.758,-0.888 -3.54,-1.726 -5.33,-2.542 -2.621,-1.19 -5.245,-2.369 -7.891,-3.507 -3.238,-1.388 -6.508,-2.703 -9.743,-4.096 -2.734,-1.173 -5.427,-2.439 -8.156,-3.62 -2.158,-0.934 -4.314,-1.884 -6.526,-2.669 -2.751,-0.974 -5.532,-1.887 -8.351,-2.633 -2.019,-0.538 -4.181,-0.561 -6.166,-1.183 -1.375,-0.434 -2.724,-0.159 -4.068,-0.454 -1.327,-0.289 -2.707,-0.365 -4.068,-0.465 -2.668,-0.201 -5.343,-0.474 -8.015,-0.497 -3.081,-0.033 -6.166,0.185 -9.251,0.26 -1.803,0.04 -3.611,0 -5.416,0.019 -3.061,0.032 -6.089,0.336 -9.111,0.876 -2.644,0.473 -5.228,1.09 -7.758,1.991 -2.673,0.955 -5.385,1.795 -8.052,2.762 -2.567,0.933 -5.115,1.918 -7.637,2.962 -1.295,0.535 -2.514,1.251 -3.77,1.877 -2.193,1.098 -4.408,2.155 -6.579,3.293 -1.71,0.894 -3.445,1.769 -5.028,2.857 -2.686,1.852 -5.265,3.854 -7.422,6.342 -0.493,0.57 -1.154,0.994 -1.655,1.559 -1.134,1.276 -2.269,2.559 -3.306,3.915 -1.752,2.287 -3.47,4.603 -5.123,6.965 -1.545,2.214 -3.164,4.405 -4.416,6.78 -1.19,2.265 -2.569,4.457 -3.29,6.974 -0.431,1.499 -1.352,2.856 -1.802,4.35 -0.649,2.158 -1.119,4.373 -1.577,6.58 -0.559,2.716 -1.029,5.451 -1.528,8.181 -0.036,0.199 -0.019,0.414 -0.026,0.622 C -0.181,-0.086 -0.089,-0.043 0,0 Z"
             style="fill:none;stroke:#3d3c3e;stroke-width:0.75;stroke-linecap:butt;stroke-linejoin:miter;stroke-miterlimit:10;stroke-dasharray:none;stroke-opacity:1"
             id="path30"
             inkscape:connector-curvature="0" /></g><g
           id="g32"
           transform="translate(119.8778,219.1849)"><path
             d="m 0,0 c 0.5,-0.658 0.998,-1.316 1.495,-1.978 0.949,-1.257 1.9,-2.515 2.836,-3.783 0.119,-0.162 0.166,-0.385 0.213,-0.586 0.393,-1.6 0.658,-3.239 1.191,-4.787 0.56,-1.629 1.329,-3.196 2.094,-4.753 0.521,-1.066 1.229,-2.047 1.788,-3.096 2.213,-4.15 5.078,-7.854 7.801,-11.66 1.553,-2.16 3.127,-4.311 4.782,-6.392 2.335,-2.934 5.164,-5.395 8.105,-7.682 2.644,-2.056 5.389,-4.015 8.257,-5.732 2.628,-1.571 5.464,-2.808 8.241,-4.12 4.552,-2.153 9.403,-3.45 14.188,-4.953 4.221,-1.322 8.52,-1.824 12.908,-1.587 2.091,0.112 4.196,0.284 6.245,0.679 2.393,0.458 4.733,1.195 7.096,1.81 0.211,0.055 0.416,0.154 0.627,0.186 2.657,0.432 5.045,1.629 7.488,2.653 2.101,0.876 4.132,1.928 6.219,2.848 1.034,0.457 2.107,0.849 3.187,1.188 1.818,0.56 3.658,1.052 5.488,1.577 0.103,0.03 0.209,0.067 0.302,0.121 1.762,1.059 3.513,2.127 5.281,3.173 1.466,0.871 2.959,1.695 4.419,2.569 0.767,0.462 1.437,1.113 2.245,1.461 2.444,1.042 4.349,2.844 6.435,4.385 1.816,1.345 3.616,2.703 5.375,4.11 1.903,1.532 3.774,3.103 5.606,4.713 1.166,1.015 2.116,2.312 3.383,3.164 2.388,1.611 3.942,4.031 6.062,5.887 1.344,1.173 2.68,2.377 3.846,3.717 2.122,2.44 4.116,4.994 6.168,7.491 1.247,1.514 2.524,3.001 3.762,4.526 0.569,0.692 1.075,1.436 1.611,2.163 1.14,1.562 2.308,3.101 3.423,4.689 2.271,3.223 4.541,6.45 6.758,9.712 1.743,2.554 3.431,5.151 5.112,7.747 1.817,2.808 3.733,5.565 5.357,8.479 1.49,2.681 2.769,5.493 3.92,8.335 1.469,3.63 2.683,7.366 4.073,11.03 1.769,4.661 2.683,9.537 3.602,14.399 0.776,4.114 1.416,8.265 1.886,12.428 0.243,2.116 0.071,4.293 -0.075,6.431 -0.16,2.388 -0.343,4.796 -0.799,7.141 -0.5,2.556 -1.366,5.039 -1.993,7.573 -0.34,1.367 -0.606,2.763 -0.741,4.163 -0.116,1.241 0.303,1.496 1.462,1.167 1.537,-0.435 2.916,-1.158 4.179,-2.149 0.567,-0.449 1.252,-0.746 1.864,-1.144 1.32,-0.854 2.635,-1.72 3.94,-2.603 1.296,-0.879 2.584,-1.779 3.865,-2.682 1.869,-1.316 3.764,-2.597 5.585,-3.977 2.623,-1.994 5.232,-4.012 7.762,-6.124 1.753,-1.465 3.417,-3.049 5.013,-4.683 1.607,-1.643 3.065,-3.431 4.623,-5.126 1.235,-1.341 2.606,-2.564 3.757,-3.971 1.606,-1.952 3.154,-3.969 4.562,-6.066 1.883,-2.796 3.599,-5.701 5.402,-8.548 1.591,-2.51 3.202,-5.004 4.79,-7.513 1.828,-2.9 3.63,-5.813 5.456,-8.713 1.229,-1.953 2.537,-3.86 3.712,-5.849 1.008,-1.712 1.914,-3.485 2.798,-5.269 1.387,-2.808 2.752,-5.629 4.054,-8.478 0.773,-1.697 1.464,-3.436 2.083,-5.195 1.034,-2.941 2.254,-5.787 3.91,-8.441 1.582,-2.531 2.359,-5.377 3.078,-8.23 0.763,-3.012 1.472,-6.034 2.154,-9.072 0.509,-2.245 0.958,-4.507 1.388,-6.774 0.128,-0.664 0.152,-1.354 0.137,-2.032 -0.051,-2.032 -0.054,-4.071 -0.249,-6.088 -0.146,-1.568 -1.422,-2.316 -2.885,-1.722 -1.609,0.658 -3.138,1.499 -4.7,2.269 -1.514,0.744 -3.047,1.468 -4.543,2.252 -1.123,0.586 -2.174,1.317 -3.318,1.859 -1.397,0.663 -2.839,1.247 -4.296,1.778 -3.901,1.415 -7.82,2.763 -11.725,4.164 -6.114,2.192 -12.344,2.208 -18.666,1.183 -1.747,-0.288 -3.529,-0.36 -5.297,-0.485 -3.307,-0.235 -6.548,-0.747 -9.651,-1.968 -0.732,-0.29 -1.518,-0.431 -2.256,-0.707 -3.846,-1.447 -7.65,-2.994 -11.224,-5.052 -2.24,-1.292 -4.533,-2.494 -6.74,-3.837 -2.764,-1.686 -5.449,-3.499 -8.198,-5.203 -1.144,-0.712 -2.372,-1.284 -3.555,-1.934 -0.545,-0.301 -1.061,-0.67 -1.622,-0.944 -1.041,-0.511 -2.138,-0.917 -3.162,-1.469 -2.123,-1.137 -4.197,-2.362 -6.315,-3.513 -1.215,-0.654 -2.479,-1.222 -3.706,-1.854 -2.739,-1.407 -5.457,-2.852 -8.202,-4.245 -1.754,-0.887 -3.533,-1.723 -5.321,-2.537 -2.618,-1.191 -5.238,-2.366 -7.878,-3.501 -3.235,-1.389 -6.497,-2.699 -9.729,-4.092 -2.728,-1.173 -5.416,-2.434 -8.143,-3.613 -2.152,-0.932 -4.306,-1.883 -6.514,-2.666 -2.746,-0.972 -5.523,-1.886 -8.337,-2.626 -2.017,-0.539 -4.176,-0.56 -6.158,-1.184 -1.372,-0.43 -2.719,-0.157 -4.06,-0.451 -1.325,-0.291 -2.704,-0.367 -4.062,-0.467 -2.664,-0.199 -5.335,-0.469 -8.002,-0.497 -3.077,-0.028 -6.157,0.187 -9.238,0.261 -1.799,0.039 -3.604,0 -5.405,0.019 -3.058,0.036 -6.08,0.336 -9.098,0.877 -2.64,0.469 -5.22,1.088 -7.746,1.986 -2.669,0.955 -5.375,1.79 -8.038,2.76 -2.563,0.927 -5.107,1.914 -7.625,2.954 -1.293,0.534 -2.51,1.251 -3.764,1.876 -2.19,1.096 -4.401,2.153 -6.569,3.288 -1.706,0.891 -3.44,1.764 -5.02,2.852 -2.681,1.851 -5.257,3.848 -7.41,6.331 -0.492,0.571 -1.152,0.991 -1.653,1.554 -1.132,1.279 -2.264,2.559 -3.3,3.911 -1.749,2.283 -3.464,4.598 -5.115,6.954 -1.542,2.209 -3.159,4.398 -4.409,6.769 -1.188,2.264 -2.565,4.452 -3.285,6.963 -0.43,1.497 -1.35,2.852 -1.798,4.346 -0.649,2.152 -1.118,4.364 -1.576,6.569 -0.557,2.709 -1.027,5.441 -1.524,8.166 -0.036,0.199 -0.02,0.415 -0.027,0.622 C -0.181,-0.086 -0.089,-0.041 0,0"
             style="fill:#ffffff;fill-opacity:1;fill-rule:evenodd;stroke:#3d3c3e;stroke-width:1;stroke-linecap:butt;stroke-linejoin:miter;stroke-miterlimit:10;stroke-dasharray:none;stroke-opacity:1"
             id="path34"
             inkscape:connector-curvature="0" /></g></g></g></g></svg>