<?xml version="1.0" encoding="UTF-8" standalone="no"?>
<!-- Created with Inkscape (http://www.inkscape.org/) -->

<svg
   xmlns:dc="http://purl.org/dc/elements/1.1/"
   xmlns:cc="http://creativecommons.org/ns#"
   xmlns:rdf="http://www.w3.org/1999/02/22-rdf-syntax-ns#"
   xmlns:svg="http://www.w3.org/2000/svg"
   xmlns="http://www.w3.org/2000/svg"
   xmlns:sodipodi="http://sodipodi.sourceforge.net/DTD/sodipodi-0.dtd"
   xmlns:inkscape="http://www.inkscape.org/namespaces/inkscape"
   version="1.1"
   id="svg2"
   xml:space="preserve"
   width="604.72931"
   height="604.72931"
   viewBox="0 0 604.72931 604.72931"
   sodipodi:docname="Harp.svg"
   inkscape:version="0.92.4 (5da689c313, 2019-01-14)"><metadata
     id="metadata8"><rdf:RDF><cc:Work
         rdf:about=""><dc:format>image/svg+xml</dc:format><dc:type
           rdf:resource="http://purl.org/dc/dcmitype/StillImage" /><dc:title></dc:title></cc:Work></rdf:RDF></metadata><defs
     id="defs6"><clipPath
       clipPathUnits="userSpaceOnUse"
       id="clipPath18"><path
         d="M 0,453.547 H 453.547 V 0 H 0 Z"
         id="path16"
         inkscape:connector-curvature="0" /></clipPath></defs><sodipodi:namedview
     pagecolor="#ffffff"
     bordercolor="#666666"
     borderopacity="1"
     objecttolerance="10"
     gridtolerance="10"
     guidetolerance="10"
     inkscape:pageopacity="0"
     inkscape:pageshadow="2"
     inkscape:window-width="640"
     inkscape:window-height="480"
     id="namedview4"
     showgrid="false"
     inkscape:zoom="0.39025725"
     inkscape:cx="28.186536"
     inkscape:cy="302.36465"
     inkscape:window-x="0"
     inkscape:window-y="0"
     inkscape:window-maximized="0"
     inkscape:current-layer="g10" /><g
     id="g10"
     inkscape:groupmode="layer"
     inkscape:label="Harp"
     transform="matrix(1.3333333,0,0,-1.3333333,0,604.72933)"><g
       id="g12"><g
         id="g14"
         clip-path="url(#clipPath18)"><g
           id="g20"
           transform="translate(316.6341,310.2772)"><path
             d="M 0,0 C 0.297,0.161 0.434,0.19 0.447,0.249 0.713,1.343 0.995,2.435 1.178,3.545 1.213,3.762 0.759,4.289 0.641,4.257 0.222,4.148 -0.486,3.839 -0.476,3.638 -0.421,2.452 -0.187,1.273 0,0 m -3.623,-9.016 c 2.031,1.387 3.672,4.848 3.047,6.536 -1.012,-1.56 -1.97,-3.07 -2.967,-4.552 -0.436,-0.65 -0.497,-1.263 -0.08,-1.984 m -1.017,0.122 c -0.183,-0.194 -0.307,-0.292 -0.391,-0.418 -0.928,-1.381 -1.872,-2.753 -2.762,-4.16 -0.502,-0.793 -0.411,-1.591 0.193,-2.369 0.148,0.098 0.284,0.141 0.343,0.234 0.954,1.486 1.923,2.961 2.823,4.476 0.409,0.691 0.339,1.443 -0.206,2.237 m -7.834,-14.249 c 0.367,0.48 0.626,0.79 0.853,1.119 0.794,1.141 1.515,2.337 2.383,3.416 0.808,1.011 0.867,2.02 0.434,3.232 -0.23,-0.159 -0.444,-0.247 -0.563,-0.404 -1.108,-1.463 -2.243,-2.903 -3.272,-4.415 -0.599,-0.88 -0.435,-1.847 0.165,-2.948 m -1.424,1.36 c -0.901,-1.102 -1.633,-2.076 -2.448,-2.982 -0.874,-0.97 -0.93,-2.021 -0.502,-3.166 0.302,-0.803 0.637,-0.847 1.167,-0.145 0.515,0.676 0.951,1.416 1.492,2.069 1.038,1.25 1.06,2.557 0.291,4.224 M -33.71,-51.132 c -0.101,0.031 -0.2,0.062 -0.304,0.099 -0.34,-0.479 -0.708,-0.939 -1.013,-1.439 -0.569,-0.947 -1.018,-1.975 -1.671,-2.853 -0.68,-0.912 -0.945,-1.847 -0.672,-2.926 0.078,-0.308 0.272,-0.586 0.411,-0.877 0.269,0.231 0.602,0.416 0.796,0.7 0.739,1.059 1.359,2.211 2.155,3.227 1.059,1.352 0.696,2.69 0.298,4.069 m -16.046,-24.139 c -0.326,-0.345 -0.586,-0.567 -0.781,-0.835 -0.653,-0.891 -1.205,-1.869 -1.936,-2.685 -1.528,-1.713 -0.814,-3.555 -0.556,-5.562 0.253,0.269 0.408,0.387 0.504,0.544 0.974,1.617 2.01,3.205 2.88,4.878 0.569,1.1 0.51,2.316 -0.111,3.66 M -20.74,-36.2 c 1.064,1.927 2.511,3.619 3.183,5.744 0.329,1.031 0.236,2.084 -0.258,3.162 -0.218,-0.164 -0.406,-0.241 -0.503,-0.382 -1.055,-1.572 -2.116,-3.135 -3.132,-4.729 -0.54,-0.842 -0.384,-2.969 0.71,-3.795 m -17.625,-22.185 c -0.131,-0.123 -0.297,-0.226 -0.391,-0.378 -1.228,-1.977 -2.498,-3.93 -3.655,-5.952 -0.725,-1.256 -0.573,-2.563 0.253,-3.936 0.287,0.46 0.522,0.795 0.714,1.147 0.948,1.742 1.788,3.549 2.856,5.212 0.848,1.316 0.971,2.529 0.223,3.907 m 5.925,5.687 c 0.297,0.269 0.604,0.461 0.788,0.73 1.072,1.599 2.146,3.193 3.16,4.832 0.816,1.331 0.681,2.682 -0.1,4.061 -0.158,-0.138 -0.272,-0.202 -0.338,-0.3 -1.129,-1.712 -2.299,-3.4 -3.359,-5.155 -0.772,-1.282 -0.819,-2.672 -0.151,-4.168 m -15.938,-24.144 c 0.136,0.054 0.243,0.066 0.29,0.127 1.453,1.938 2.99,3.827 4.317,5.849 0.819,1.242 0.715,2.675 -0.112,4.122 -0.246,-0.269 -0.443,-0.456 -0.597,-0.674 -1.155,-1.616 -2.274,-3.253 -3.453,-4.852 -1.069,-1.447 -0.997,-2.958 -0.445,-4.572 m -14.567,-22.792 c 0.115,-0.088 0.228,-0.176 0.341,-0.262 0.136,0.246 0.273,0.494 0.415,0.732 0.962,1.664 1.94,3.321 2.886,4.995 0.137,0.228 0.228,0.544 0.188,0.802 -0.192,1.19 -0.434,2.369 -0.699,3.768 -0.362,-0.418 -0.602,-0.654 -0.797,-0.918 -0.618,-0.838 -1.142,-1.76 -1.838,-2.525 -1.912,-2.102 -1.323,-4.327 -0.496,-6.592 m 8.862,17.884 c -0.085,0.053 -0.173,0.104 -0.259,0.156 -0.277,-0.313 -0.588,-0.604 -0.83,-0.943 -0.96,-1.333 -1.829,-2.736 -2.867,-4.004 -0.828,-1.015 -1.152,-2.07 -0.899,-3.334 0.157,-0.794 0.297,-1.589 0.463,-2.474 0.19,0.133 0.375,0.203 0.467,0.338 1.095,1.584 2.238,3.14 3.241,4.781 1.04,1.705 0.982,3.595 0.684,5.48 m 27.156,36.833 c 0.32,0.438 0.538,0.742 0.763,1.044 1.074,1.439 2.088,2.932 3.244,4.306 1.412,1.679 1.111,3.465 0.625,5.396 -0.193,-0.096 -0.368,-0.126 -0.439,-0.228 -1.536,-2.159 -3.157,-4.262 -4.541,-6.51 -0.709,-1.149 -0.59,-2.526 0.348,-4.008 m -40.576,-62.122 c 1.505,2.008 3.049,3.905 3.685,6.286 0.367,1.369 -0.223,2.738 -0.73,4.322 -0.508,-0.594 -0.884,-0.959 -1.173,-1.385 -0.817,-1.199 -1.604,-2.414 -2.386,-3.641 -1.004,-1.564 -0.799,-3.945 0.604,-5.582 m -5.77,-8.65 c 0.4,0.346 0.599,0.455 0.707,0.625 1.255,1.963 2.556,3.904 3.711,5.926 0.323,0.574 0.364,1.412 0.268,2.094 -0.148,1.074 -0.526,2.117 -0.859,3.373 -0.392,-0.428 -0.692,-0.696 -0.915,-1.01 -0.576,-0.828 -1.049,-1.742 -1.701,-2.506 -1.393,-1.631 -1.823,-3.445 -1.406,-5.539 0.177,-0.875 0.124,-1.785 0.195,-2.963 m 68.98,109.1 c 0.298,0.193 0.397,0.222 0.445,0.29 1.041,1.543 2.104,3.078 3.094,4.652 0.211,0.334 0.26,0.844 0.213,1.257 -0.114,1.063 -0.346,2.117 -0.492,3.181 -0.113,0.808 -0.512,0.948 -1.182,0.6 C -2.941,3.007 -3.66,2.608 -4.391,2.235 -5.555,1.639 -5.701,1.355 -5.484,0.067 c 0.042,-0.249 0.054,-0.502 0.099,-0.751 0.354,-1.919 0.71,-3.835 1.092,-5.905 m -74.311,-117.616 c 0.397,0.438 0.636,0.643 0.806,0.899 1.021,1.517 2.036,3.041 3.028,4.58 0.256,0.391 0.566,0.842 0.578,1.277 0.061,2.039 0.026,4.08 0.026,6.477 -0.582,-0.455 -1.049,-0.69 -1.33,-1.065 -1.174,-1.568 -2.302,-3.166 -3.413,-4.773 -0.22,-0.322 -0.423,-0.762 -0.392,-1.125 0.18,-1.998 0.434,-3.994 0.697,-6.27 m -28.15,-39.675 c 0.431,0.396 0.694,0.57 0.865,0.814 0.827,1.152 1.686,2.283 2.411,3.502 0.294,0.498 0.357,1.176 0.375,1.779 0.019,0.557 -0.148,1.123 -0.255,1.682 -0.351,1.844 -0.706,3.689 -1.117,5.814 -0.553,-0.705 -0.883,-1.242 -1.32,-1.67 -2.31,-2.246 -2.657,-4.869 -1.735,-7.849 0.384,-1.231 0.496,-2.555 0.776,-4.072 m -20.62,-17.821 c -0.194,0.114 -0.387,0.231 -0.582,0.344 -0.103,-0.264 -0.159,-0.564 -0.322,-0.791 -0.609,-0.848 -1.21,-1.703 -1.896,-2.484 -0.547,-0.625 -0.596,-1.27 -0.442,-2.022 0.481,-2.32 0.946,-4.64 1.388,-6.965 0.211,-1.097 0.362,-2.203 0.583,-3.574 0.358,0.44 0.586,0.643 0.729,0.901 0.642,1.119 1.308,2.236 1.859,3.404 0.206,0.433 0.236,1.027 0.153,1.513 -0.396,2.333 -0.892,4.645 -1.288,6.973 -0.152,0.887 -0.127,1.797 -0.182,2.701 m 18.464,24.612 c -0.488,-0.368 -0.941,-0.616 -1.257,-0.977 -0.604,-0.687 -1.117,-1.451 -1.687,-2.164 -0.746,-0.934 -0.926,-1.955 -0.691,-3.119 0.4,-1.977 0.72,-3.975 1.094,-5.965 0.066,-0.342 0.229,-0.67 0.386,-1.115 0.274,0.242 0.463,0.357 0.586,0.523 0.857,1.174 1.745,2.33 2.526,3.555 0.282,0.437 0.489,1.068 0.411,1.564 -0.388,2.52 -0.882,5.028 -1.368,7.698 m 9.673,-80.026 c 0.467,0.073 0.845,0.127 1.215,0.199 0.904,0.184 1.081,0.594 0.502,1.288 -0.963,1.144 -2.031,2.14 -3.552,2.544 -1.946,0.518 -3.868,1.135 -5.817,1.629 -0.579,0.149 -1.239,0.129 -1.839,0.034 -0.966,-0.161 -1.837,-0.957 -1.782,-1.584 0.086,-0.977 0.792,-1.452 1.622,-1.778 0.144,-0.06 0.307,-0.064 0.46,-0.103 1.682,-0.414 3.362,-0.834 5.046,-1.244 1.406,-0.342 2.817,-0.674 4.145,-0.985 m -2.949,80.192 c 0.366,0.347 0.674,0.568 0.892,0.855 0.814,1.086 1.573,2.217 2.407,3.285 0.842,1.082 1.202,2.18 0.532,3.492 -0.177,0.354 -0.193,0.791 -0.255,1.196 -0.183,1.213 -0.341,2.424 -0.543,3.633 -0.041,0.25 -0.237,0.478 -0.359,0.711 -0.251,-0.161 -0.576,-0.27 -0.744,-0.491 -0.713,-0.965 -1.313,-2.021 -2.09,-2.927 -1.149,-1.348 -1.583,-2.737 -1.04,-4.498 0.404,-1.319 0.516,-2.723 0.787,-4.084 0.072,-0.36 0.244,-0.7 0.413,-1.172 M -8.59,-12.992 c 0.115,-0.014 0.231,-0.027 0.348,-0.04 0.199,0.183 0.453,0.339 0.594,0.559 0.908,1.439 1.812,2.879 2.669,4.349 0.162,0.273 0.197,0.688 0.135,1.009 -0.482,2.596 -1,5.184 -1.537,7.915 -0.912,-0.639 -1.713,-1.188 -2.501,-1.755 -0.832,-0.603 -1.234,-1.399 -1.112,-2.448 0.213,-1.848 0.357,-3.708 0.619,-5.551 0.189,-1.356 0.519,-2.693 0.785,-4.038 m -104.712,-149.74 c -0.421,-0.309 -0.609,-0.391 -0.713,-0.533 -1.109,-1.535 -2.245,-3.049 -3.281,-4.633 -0.245,-0.373 -0.272,-0.977 -0.207,-1.447 0.193,-1.405 0.464,-2.797 0.739,-4.192 0.263,-1.312 0.572,-2.611 0.888,-4.052 0.294,0.25 0.465,0.345 0.565,0.49 1.108,1.613 2.226,3.219 3.285,4.865 0.193,0.299 0.238,0.781 0.181,1.156 -0.269,1.743 -0.598,3.475 -0.905,5.213 -0.172,0.979 -0.344,1.955 -0.552,3.133 m 27.923,29.412 c 0.109,-0.096 0.215,-0.189 0.326,-0.285 0.133,0.254 0.237,0.529 0.4,0.764 1.464,2.097 2.954,4.175 4.393,6.287 0.272,0.4 0.493,0.924 0.508,1.398 0.047,1.795 0.012,3.592 -0.026,5.389 -0.006,0.342 -0.167,0.682 -0.294,1.158 -0.372,-0.318 -0.643,-0.492 -0.836,-0.726 -1.718,-2.141 -3.446,-4.278 -5.118,-6.456 -0.263,-0.337 -0.445,-0.888 -0.386,-1.302 0.292,-2.086 0.68,-4.155 1.033,-6.227 m -6.019,-8.123 c 0.444,0.361 0.679,0.49 0.826,0.682 1.459,1.902 2.915,3.804 4.334,5.738 0.206,0.279 0.336,0.723 0.291,1.057 -0.303,2.181 -0.667,4.343 -1.045,6.748 -0.378,-0.305 -0.719,-0.5 -0.945,-0.787 -1.276,-1.604 -2.479,-3.266 -3.794,-4.84 -0.826,-0.992 -1.035,-2.053 -0.785,-3.264 0.08,-0.369 0.121,-0.744 0.201,-1.115 0.286,-1.338 0.58,-2.678 0.917,-4.219 m -2.038,5.651 h -0.391 c -0.343,-0.36 -0.715,-0.704 -1.023,-1.092 -0.87,-1.127 -1.629,-2.348 -2.582,-3.391 -1.143,-1.248 -1.388,-2.559 -0.98,-4.162 0.449,-1.756 0.733,-3.559 1.115,-5.484 0.401,0.324 0.732,0.486 0.923,0.752 1.133,1.595 2.272,3.189 3.334,4.832 0.635,0.976 0.835,2.089 0.617,3.271 -0.204,1.111 -0.323,2.242 -0.525,3.357 -0.116,0.649 -0.322,1.28 -0.488,1.917 m -31.828,-55.157 c 0.111,-0.031 0.222,-0.062 0.331,-0.092 0.226,0.241 0.479,0.457 0.674,0.721 0.826,1.117 1.609,2.268 2.46,3.367 0.615,0.795 0.709,1.651 0.536,2.59 -0.373,2.02 -0.731,4.041 -1.109,6.051 -0.162,0.877 -0.358,1.75 -0.585,2.834 -0.453,-0.391 -0.749,-0.57 -0.951,-0.826 -0.645,-0.817 -1.251,-1.668 -1.884,-2.494 -0.59,-0.77 -0.816,-1.616 -0.693,-2.577 0.415,-3.189 0.816,-6.382 1.221,-9.574 m 4.877,6.686 c 0.466,0.447 0.843,0.724 1.106,1.086 0.782,1.064 1.48,2.199 2.288,3.246 0.531,0.685 0.656,1.392 0.482,2.201 -0.539,2.523 -1.073,5.055 -1.625,7.574 -0.052,0.246 -0.187,0.479 -0.379,0.946 -1.247,-1.727 -2.402,-3.252 -3.462,-4.848 -0.245,-0.371 -0.278,-0.979 -0.204,-1.438 0.369,-2.369 0.793,-4.722 1.233,-7.078 0.095,-0.513 0.329,-0.994 0.561,-1.689 M -10.843,-2.629 c -0.973,-0.614 -1.96,-1.126 -2.803,-1.816 -0.364,-0.301 -0.632,-0.974 -0.606,-1.462 0.182,-3.494 0.439,-6.987 0.702,-10.477 0.075,-1.005 0.247,-2.005 0.393,-3.137 0.303,0.209 0.428,0.256 0.499,0.348 1.023,1.284 2.084,2.544 3.03,3.88 0.294,0.417 0.439,1.083 0.37,1.595 -0.482,3.656 -1.038,7.303 -1.585,11.069 m -6.253,-22.077 c 0.11,-0.035 0.219,-0.065 0.328,-0.098 0.896,1.196 1.84,2.361 2.661,3.609 0.27,0.408 0.334,1.032 0.3,1.547 -0.218,3.307 -0.496,6.606 -0.743,9.912 -0.106,1.439 -0.18,2.88 -0.28,4.433 -1.123,-0.618 -2.1,-1.19 -3.107,-1.701 -1.367,-0.687 -1.545,-0.934 -1.363,-2.425 0.58,-4.696 1.171,-9.397 1.78,-14.087 0.053,-0.409 0.28,-0.796 0.424,-1.19 m -4.802,-6.893 c 0.349,0.273 0.592,0.384 0.718,0.571 0.932,1.388 1.927,2.744 2.713,4.209 0.36,0.672 0.479,1.592 0.393,2.362 -0.403,3.477 -0.918,6.936 -1.395,10.404 -0.26,1.882 -0.524,3.765 -0.808,5.784 -1.319,-0.669 -2.468,-1.247 -3.616,-1.835 -1.244,-0.639 -1.25,-0.714 -1.013,-2.137 0.455,-2.735 0.879,-5.479 1.306,-8.219 0.563,-3.642 1.112,-7.287 1.702,-11.139 M -137.85,-209.435 c 0.075,-0.053 0.15,-0.104 0.228,-0.156 0.085,0.164 0.148,0.351 0.261,0.494 2.384,3.185 4.786,6.351 7.138,9.556 0.271,0.372 0.415,0.961 0.357,1.418 -0.366,2.907 -0.781,5.809 -1.239,8.704 -0.128,0.82 -0.45,1.605 -0.684,2.406 -0.155,0.096 -0.308,0.195 -0.461,0.293 -0.308,-0.475 -0.602,-0.957 -0.927,-1.418 -1.953,-2.795 -3.903,-5.588 -5.878,-8.363 -0.519,-0.727 -0.635,-1.483 -0.468,-2.329 0.25,-1.269 0.501,-2.539 0.696,-3.816 0.348,-2.258 0.654,-4.525 0.977,-6.789 m 112.213,198.46 c -1.621,-0.602 -3.078,-1.194 -4.57,-1.678 -0.782,-0.258 -0.919,-0.702 -0.827,-1.427 0.368,-2.947 0.692,-5.899 1.052,-8.844 0.484,-3.985 0.995,-7.96 1.477,-11.945 0.218,-1.804 0.392,-3.617 0.603,-5.544 0.253,0.166 0.442,0.225 0.533,0.355 1.39,1.956 2.801,3.901 4.139,5.895 0.648,0.972 0.791,2.074 0.597,3.267 -0.504,3.118 -0.91,6.251 -1.38,9.374 -0.518,3.463 -1.065,6.926 -1.624,10.547 m -7.191,-36.653 c 0.108,-0.027 0.219,-0.047 0.326,-0.074 0.311,0.382 0.651,0.738 0.916,1.147 0.809,1.246 1.559,2.53 2.385,3.763 0.564,0.836 0.692,1.71 0.584,2.695 -0.268,2.481 -0.429,4.973 -0.719,7.452 -0.723,6.182 -1.496,12.352 -2.23,18.53 -0.088,0.754 -0.418,0.868 -1.088,0.658 -1.056,-0.325 -2.125,-0.607 -3.2,-0.858 -0.736,-0.173 -0.962,-0.585 -0.858,-1.308 0.345,-2.339 0.704,-4.68 0.98,-7.03 0.894,-7.621 1.753,-15.249 2.627,-22.872 0.081,-0.703 0.185,-1.404 0.277,-2.103 m -4.791,-7.904 c 0.396,0.489 0.654,0.75 0.851,1.054 0.744,1.133 1.423,2.314 2.205,3.422 0.956,1.352 1.151,2.842 0.967,4.419 -0.138,1.158 -0.341,2.31 -0.461,3.475 -0.677,6.554 -1.314,13.117 -2.022,19.667 -0.23,2.135 -0.687,4.239 -0.95,6.37 -0.341,2.776 -0.805,2.149 -2.717,1.845 -2.598,-0.414 -2.641,-0.555 -2.193,-3.174 0.621,-3.67 1.322,-7.334 1.779,-11.024 0.773,-6.203 1.415,-12.424 2.035,-18.647 0.208,-2.057 0.186,-4.143 0.283,-6.221 0.012,-0.316 0.117,-0.625 0.223,-1.186 m -5.092,-8.362 c 0.384,0.465 0.645,0.727 0.832,1.027 1.021,1.637 2.049,3.262 3.012,4.933 0.266,0.466 0.467,1.066 0.437,1.59 -0.251,4.662 -0.472,9.335 -0.881,13.986 -0.363,4.15 -0.889,8.291 -1.458,12.419 -0.598,4.376 -1.336,8.735 -1.989,13.104 -0.115,0.769 -0.488,0.914 -1.181,0.759 -1.204,-0.265 -2.415,-0.482 -3.626,-0.707 -1.232,-0.228 -1.263,-0.269 -1.098,-1.552 0.067,-0.534 0.108,-1.072 0.169,-1.605 0.424,-3.572 0.757,-7.16 1.286,-10.718 1.106,-7.462 2.38,-14.898 3.45,-22.367 0.502,-3.496 0.688,-7.036 1.047,-10.869 m -20.583,46.187 c 0.094,-0.894 0.133,-1.558 0.236,-2.202 1.468,-8.977 2.895,-17.958 4.425,-26.921 1.447,-8.461 3.375,-16.846 4.104,-25.428 0.185,-2.184 0.699,-4.343 1.063,-6.512 0.079,-0.04 0.161,-0.078 0.24,-0.117 1.228,1.738 2.88,3.167 3.587,5.288 0.055,0.173 0.049,0.376 0.03,0.564 -0.365,3.802 -0.547,7.635 -1.153,11.391 -0.89,5.549 -2.134,11.036 -3.115,16.571 -0.488,2.764 -0.678,5.58 -1.09,8.363 -0.31,2.088 -0.832,4.145 -1.129,6.235 -0.556,3.94 -1.017,7.893 -1.528,11.839 -0.061,0.474 -0.124,0.947 -0.812,0.937 -1.574,-0.025 -3.15,-0.008 -4.858,-0.008 m 14.642,-54.65 c 0.298,0.321 0.47,0.464 0.595,0.637 1.334,1.922 2.7,3.825 3.965,5.789 0.336,0.521 0.55,1.256 0.494,1.868 -0.492,5.504 -0.918,11.022 -1.636,16.5 -0.727,5.54 -1.826,11.031 -2.639,16.562 -0.627,4.248 -1.076,8.522 -1.568,12.792 -0.084,0.736 -0.364,0.98 -1.092,0.886 -0.845,-0.113 -1.699,-0.159 -2.551,-0.176 -1.219,-0.028 -2.441,-0.008 -3.758,-0.008 1.717,-18.546 5.421,-36.535 8.19,-54.85 M -159.32,-207.63 c -0.255,-0.1 -0.495,-0.139 -0.639,-0.27 -1.524,-1.473 -3.086,-2.902 -4.529,-4.441 -1.029,-1.102 -1.731,-2.446 -1.759,-4.004 -0.041,-2.221 0.814,-4.166 2.262,-5.78 4.763,-5.322 10.903,-6.535 17.675,-5.777 1.376,0.156 2.756,0.264 4.138,0.36 0.879,0.058 1.782,-0.049 2.643,0.107 3.45,0.609 6.891,1.275 10.326,1.965 0.566,0.111 1.09,0.428 1.666,0.666 -0.105,0.222 -0.132,0.359 -0.21,0.447 -2.719,3.072 -5.422,6.166 -8.177,9.217 -1.283,1.414 -2.792,1.918 -4.526,0.693 -0.099,-0.076 -0.228,-0.107 -0.346,-0.16 -4.85,-2.096 -9.816,-2.111 -14.846,-0.789 -0.93,0.244 -1.624,0.793 -1.91,1.791 -0.559,1.957 -1.151,3.902 -1.768,5.975 m 88.73,191.397 c 2.363,-23.851 7.495,-47.144 11.554,-70.843 1.2,1.659 2.153,3.235 3.362,4.579 1.381,1.543 1.487,3.271 1.238,5.127 -0.687,5.135 -1.32,10.279 -2.123,15.393 -0.798,5.078 -1.775,10.126 -2.673,15.19 -0.872,4.912 -1.749,9.822 -2.605,14.734 -0.763,4.39 -1.502,8.78 -2.243,13.17 -0.115,0.67 -0.339,1.168 -1.103,1.337 -1.751,0.393 -3.492,0.843 -5.407,1.313 m -121.921,99.085 c -0.009,-0.077 -0.021,-0.153 -0.03,-0.229 -0.821,-0.04 -1.641,-0.066 -2.46,-0.118 -4.009,-0.24 -7.573,-1.847 -11.055,-3.662 -1.062,-0.551 -1.413,-1.543 -1.206,-2.741 0.086,-0.525 0.012,-1.069 0.047,-1.602 0.064,-1.029 0.036,-2.081 0.251,-3.08 0.473,-2.185 1.17,-4.328 1.596,-6.522 0.682,-3.492 1.226,-7.014 1.814,-10.526 0.152,-0.905 0.526,-1.623 1.418,-1.964 0.616,-0.237 1.235,-0.512 1.877,-0.636 2.78,-0.541 5.528,-0.178 8.077,0.908 3.362,1.424 6.607,3.128 9.897,4.721 2.045,0.988 2.158,1.12 1.819,3.348 -0.904,5.959 -1.86,11.914 -2.797,17.868 -0.306,1.942 -1.451,3.157 -3.363,3.488 -1.945,0.339 -3.921,0.506 -5.885,0.747 m 93.409,-223.875 c 0.112,-0.012 0.223,-0.025 0.332,-0.039 0.235,0.248 0.491,0.471 0.689,0.738 1.187,1.6 2.334,3.229 3.553,4.807 0.572,0.734 0.741,1.476 0.59,2.381 -0.845,5.043 -1.617,10.105 -2.506,15.14 -1.255,7.123 -2.648,14.225 -3.878,21.348 -1.25,7.223 -2.336,14.472 -3.556,21.694 -1.399,8.254 -2.909,16.485 -4.285,24.742 -0.467,2.8 -0.532,5.669 -1.014,8.466 -1.67,9.743 -3.497,19.459 -5.153,29.205 -0.843,4.982 -1.448,10.003 -2.179,15.004 -1.424,9.755 -2.858,19.508 -4.308,29.256 -0.068,0.443 -0.236,0.976 -0.546,1.262 -1.227,1.118 -2.526,2.155 -3.987,3.378 0,-0.609 -0.034,-0.945 0.007,-1.274 0.268,-2.133 0.506,-4.268 0.835,-6.391 0.9,-5.807 1.865,-11.602 2.765,-17.409 0.877,-5.651 1.648,-11.32 2.562,-16.963 1.38,-8.482 2.911,-16.936 4.25,-25.421 1.065,-6.742 1.92,-13.514 2.917,-20.265 0.753,-5.096 1.617,-10.174 2.368,-15.267 1.555,-10.566 3.08,-21.132 4.592,-31.703 0.575,-4.035 1.08,-8.082 1.623,-12.115 0.728,-5.414 1.439,-10.832 2.204,-16.242 0.675,-4.781 1.415,-9.551 2.125,-14.332 m -20.997,172.748 c 0,-0.592 -0.037,-0.894 0.004,-1.186 0.292,-2.002 0.602,-3.998 0.898,-5.998 0.98,-6.593 1.942,-13.19 2.933,-19.783 1.031,-6.842 2,-13.694 3.161,-20.515 1.266,-7.438 2.799,-14.833 4.071,-22.273 0.845,-4.951 1.339,-9.957 2.158,-14.911 1.753,-10.626 3.632,-21.236 5.424,-31.854 1.264,-7.478 2.415,-14.972 3.718,-22.439 1.426,-8.182 2.965,-16.346 4.464,-24.517 0.057,-0.325 0.206,-0.635 0.369,-1.114 0.402,0.379 0.72,0.623 0.973,0.922 1.122,1.33 2.142,2.754 3.354,3.992 1.125,1.149 1.286,2.287 1.001,3.846 -1.252,6.869 -2.53,13.719 -4.179,20.512 -1.384,5.703 -2.667,11.439 -3.762,17.203 -0.788,4.154 -1.129,8.39 -1.776,12.574 -1.126,7.271 -2.267,14.541 -3.539,21.783 -0.896,5.098 -2.1,10.138 -3.017,15.233 -0.8,4.444 -1.392,8.925 -2.073,13.388 -0.729,4.772 -1.468,9.544 -2.18,14.32 -0.886,5.936 -1.666,11.89 -2.652,17.81 -0.655,3.92 -1.569,7.802 -2.408,11.691 -0.294,1.374 -0.493,2.838 -1.127,4.051 -0.765,1.469 -1.917,2.74 -2.964,4.042 -0.837,1.043 -1.77,2.007 -2.851,3.223 m -10.861,-215.594 c 0.473,0.379 0.794,0.571 1.027,0.84 0.604,0.69 1.146,1.434 1.755,2.119 0.505,0.569 0.635,1.2 0.512,1.934 -0.598,3.578 -1.133,7.178 -1.79,10.748 -0.939,5.092 -1.933,10.18 -2.963,15.25 -1.165,5.721 -2.391,11.436 -3.607,17.143 -1.184,5.552 -2.458,11.087 -3.569,16.658 -0.664,3.34 -1.052,6.736 -1.638,10.095 -1.876,10.766 -3.862,21.514 -5.652,32.294 -1.194,7.168 -2.162,14.372 -3.166,21.571 -0.57,4.092 -0.912,8.217 -1.533,12.302 -0.786,5.148 -1.782,10.263 -2.631,15.404 -0.502,3.054 -0.837,6.132 -1.353,9.181 -0.488,2.894 -1.16,5.758 -1.67,8.65 -1.206,6.84 -2.326,13.7 -3.549,20.536 -1.646,9.205 -3.35,18.392 -5.025,27.591 -0.269,1.472 -0.513,2.945 -0.77,4.442 -1.275,-0.397 -2.439,-0.703 -3.552,-1.141 -0.29,-0.115 -0.6,-0.643 -0.588,-0.972 0.039,-0.972 0.223,-1.945 0.37,-2.911 1.198,-7.772 2.22,-15.578 3.642,-23.31 2.437,-13.265 5.136,-26.477 7.693,-39.719 0.951,-4.927 1.905,-9.854 2.671,-14.814 1.092,-7.054 1.964,-14.146 3.021,-21.206 0.837,-5.594 1.812,-11.166 2.722,-16.743 1.367,-8.389 2.674,-16.783 4.11,-25.158 1.347,-7.842 2.816,-15.663 4.249,-23.493 1.344,-7.33 2.632,-14.673 4.089,-21.988 2.255,-11.299 5.123,-22.478 6.805,-33.894 0.058,-0.391 0.21,-0.768 0.39,-1.409 m -31.078,23.188 c -0.588,-0.035 -1.154,0.107 -1.362,-0.102 -1.484,-1.506 -2.533,-3.273 -2.4,-5.472 0.083,-1.409 0.406,-2.803 0.573,-4.211 0.431,-3.606 0.673,-7.241 1.286,-10.813 1.002,-5.853 2.155,-11.678 3.403,-17.482 0.97,-4.506 2.176,-8.953 3.282,-13.43 0.314,-1.268 1.055,-2.18 2.376,-2.42 4.653,-0.853 9.273,-0.939 13.61,1.293 3.362,1.725 2.986,1 2.493,4.652 -0.818,6.034 -1.899,12.038 -3.03,18.024 -1.57,8.312 -3.278,16.596 -4.958,24.887 -0.18,0.884 -0.439,1.789 -0.844,2.593 -0.821,1.62 -2.089,2.871 -3.582,3.953 -0.226,-0.386 -0.386,-0.664 -0.589,-1.011 -0.139,0.228 -0.227,0.359 -0.302,0.494 -1.047,1.955 -1.076,1.969 -3.18,1.006 -0.202,-0.092 -0.404,-0.184 -0.602,-0.278 -1.749,-0.832 -3.492,-1.636 -5.529,-1.298 -0.239,0.041 -0.545,-0.321 -0.645,-0.385 m 2.47,205.364 c -1.983,-0.528 -3.872,-0.997 -5.732,-1.564 -0.231,-0.07 -0.466,-0.694 -0.417,-1.018 0.869,-5.589 1.7,-11.186 2.707,-16.747 1.133,-6.248 2.517,-12.446 3.635,-18.693 1.219,-6.807 2.18,-13.665 3.396,-20.472 2.234,-12.496 4.838,-24.928 6.252,-37.561 0.462,-4.111 1.165,-8.195 1.779,-12.287 0.954,-6.407 1.814,-12.83 2.914,-19.211 1.933,-11.206 3.901,-22.411 6.07,-33.567 1.229,-6.316 2.15,-12.699 3.889,-18.924 1.196,-4.279 1.894,-8.697 2.77,-13.064 1.033,-5.139 2.069,-10.28 3.011,-15.436 0.808,-4.439 1.475,-8.91 2.234,-13.359 0.055,-0.332 0.341,-0.623 0.519,-0.932 0.334,0.205 0.755,0.336 0.985,0.621 0.656,0.815 1.289,1.653 1.811,2.553 0.266,0.453 0.458,1.084 0.386,1.598 -0.672,4.943 -1.272,9.906 -2.154,14.814 -1,5.551 -2.246,11.061 -3.418,16.588 -1.537,7.254 -3.181,14.494 -4.632,21.766 -0.804,4.023 -1.275,8.107 -1.961,12.16 -1.054,6.191 -2.129,12.383 -3.253,18.564 -0.925,5.093 -2.032,10.154 -2.885,15.256 -1.651,9.872 -3.237,19.762 -4.744,29.66 -1.359,8.927 -2.551,17.884 -3.865,26.821 -0.694,4.717 -1.485,9.417 -2.241,14.124 -0.685,4.233 -1.439,8.462 -2.06,12.708 -0.561,3.845 -0.916,7.719 -1.48,11.565 -0.859,5.875 -1.835,11.733 -2.725,17.604 -0.31,2.057 -0.511,4.13 -0.791,6.433 m 26.309,-3.175 c -0.097,-0.085 -0.197,-0.173 -0.296,-0.259 0.105,-0.906 0.172,-1.817 0.321,-2.715 1.159,-7.013 2.357,-14.019 3.503,-21.031 1.458,-8.951 2.847,-17.912 4.321,-26.858 1.314,-7.977 2.739,-15.939 4.045,-23.919 0.791,-4.832 1.461,-9.682 2.17,-14.528 1.116,-7.658 2.224,-15.318 3.323,-22.978 0.923,-6.443 1.768,-12.899 2.756,-19.327 1.239,-8.057 2.617,-16.09 3.887,-24.139 0.91,-5.746 1.697,-11.505 2.625,-17.24 0.854,-5.271 1.819,-10.523 2.74,-15.779 0.031,-0.164 0.127,-0.317 0.258,-0.631 0.31,0.365 0.546,0.605 0.736,0.873 0.81,1.168 1.551,2.391 2.429,3.508 0.714,0.912 0.824,1.863 0.645,2.931 -0.488,2.924 -0.996,5.848 -1.424,8.78 -0.438,3.002 -0.783,6.013 -1.178,9.025 -0.527,3.975 -1.019,7.959 -1.615,11.926 -1.073,7.119 -2.278,14.223 -3.307,21.348 -0.881,6.095 -1.535,12.221 -2.4,18.316 -0.982,6.913 -2.113,13.797 -3.125,20.704 -0.676,4.594 -1.214,9.207 -1.898,13.799 -0.57,3.811 -1.313,7.598 -1.893,11.407 -0.649,4.278 -1.12,8.585 -1.819,12.855 -1.56,9.537 -3.277,19.048 -4.808,28.59 -1.06,6.611 -1.898,13.255 -2.899,19.875 -0.093,0.627 -0.483,1.406 -0.985,1.743 -1.983,1.32 -4.067,2.493 -6.112,3.724 m 10.778,-214.099 c 0.114,-0.037 0.228,-0.076 0.343,-0.112 1.227,1.409 2.639,2.672 3.431,4.422 0.159,0.356 0.182,0.817 0.118,1.207 -0.951,5.924 -1.818,11.864 -2.922,17.758 -1.305,6.945 -2.902,13.842 -4.214,20.793 -0.965,5.117 -1.643,10.291 -2.523,15.426 -0.403,2.361 -1.085,4.678 -1.46,7.043 -0.848,5.336 -1.527,10.697 -2.375,16.033 -0.726,4.582 -1.618,9.14 -2.38,13.723 -1.108,6.666 -2.109,13.356 -3.266,20.011 -0.559,3.233 -1.459,6.405 -2.045,9.637 -1.314,7.272 -2.526,14.564 -3.782,21.848 -0.772,4.48 -1.6,8.952 -2.306,13.447 -0.817,5.181 -1.438,10.391 -2.311,15.562 -0.858,5.074 -2.07,10.087 -2.866,15.17 -0.783,4.99 -1.231,10.034 -1.849,15.051 -0.414,3.358 -0.855,6.712 -1.343,10.056 -0.055,0.366 -0.515,0.966 -0.77,0.956 -1.365,-0.054 -2.725,-0.264 -4.164,-0.431 0.306,-2.562 0.526,-4.983 0.894,-7.384 1.137,-7.431 2.345,-14.848 3.486,-22.278 0.513,-3.342 0.766,-6.723 1.419,-10.032 1.819,-9.177 3.368,-18.388 4.391,-27.69 0.467,-4.234 1.085,-8.453 1.714,-12.664 0.7,-4.684 1.465,-9.362 2.25,-14.032 0.489,-2.928 1.291,-5.818 1.563,-8.759 0.598,-6.464 1.89,-12.811 2.901,-19.201 0.578,-3.642 1.655,-7.204 2.249,-10.844 1.646,-10.103 3.189,-20.216 5.323,-30.234 1.892,-8.892 3.582,-17.834 5.321,-26.762 1.517,-7.783 2.98,-15.57 4.454,-23.363 0.274,-1.443 0.482,-2.902 0.719,-4.357 m 48.467,64.353 c 0.174,-0.096 0.347,-0.191 0.52,-0.291 0.176,0.338 0.316,0.699 0.531,1.008 0.633,0.906 1.24,1.842 1.957,2.68 1.406,1.638 1.593,3.441 1.153,5.496 -1.567,7.287 -3.046,14.589 -4.567,21.883 -0.779,3.737 -1.588,7.473 -2.369,11.208 -0.454,2.199 -0.793,4.424 -1.338,6.595 -0.545,2.168 -0.316,4.489 -1.316,6.567 -0.016,0.024 -0.008,0.061 -0.012,0.09 -0.611,4.184 -1.07,8.379 -1.954,12.532 -1.187,5.587 -1.966,11.261 -2.886,16.903 -0.111,0.678 -0.321,2.606 -0.321,3.303 0.391,0.03 0.339,0.228 0.715,-1.19 4.07,-26.795 9.585,-53.305 15.082,-79.963 0.257,0.22 0.373,0.287 0.438,0.386 1.141,1.709 2.287,3.41 3.399,5.137 0.158,0.246 0.239,0.605 0.209,0.893 -0.217,1.917 -0.393,3.841 -0.731,5.734 -1.624,9.042 -3.297,18.078 -4.941,27.121 -0.045,0.242 0.027,0.502 0.043,0.754 0.117,0.009 0.236,0.023 0.351,0.031 2.174,-10.757 4.195,-21.549 5.946,-32.392 0.182,-0.092 0.366,-0.18 0.546,-0.268 0.159,0.312 0.288,0.641 0.477,0.928 0.816,1.242 1.625,2.49 2.484,3.701 0.512,0.726 0.633,1.484 0.496,2.338 -1.289,7.98 -2.525,15.975 -3.872,23.942 -0.794,4.7 -1.786,9.366 -2.647,14.054 -0.41,2.232 -0.755,4.472 -1.076,6.712 -0.208,1.458 -0.257,2.937 -0.49,4.393 -0.698,4.394 -1.489,8.775 -2.165,13.175 -0.397,2.582 -0.641,5.187 -0.952,7.779 -0.095,0.804 -0.497,1.301 -1.292,1.568 -1.674,0.563 -3.322,1.204 -4.993,1.794 -1.02,0.364 -1.237,0.221 -1.054,-0.844 0.428,-2.524 0.947,-5.027 1.395,-7.543 0.235,-1.307 0.396,-2.625 0.59,-3.937 -0.1,-0.015 -0.197,-0.031 -0.298,-0.05 -0.064,0.382 -0.143,0.761 -0.197,1.147 -0.111,0.779 -0.161,1.566 -0.316,2.336 -0.556,2.851 -1.22,5.684 -1.669,8.554 -0.126,0.798 -0.449,1.107 -1.046,1.417 -1.845,0.961 -3.681,1.955 -5.523,2.927 -0.197,0.104 -0.417,0.17 -0.73,0.296 0.74,-3.711 1.455,-7.283 2.166,-10.855 -0.096,-0.139 -0.229,-0.051 -0.345,-0.075 -0.24,0.869 -0.552,1.726 -0.714,2.61 -0.475,2.576 -0.857,5.173 -1.356,7.744 -0.112,0.58 -0.443,1.211 -0.861,1.625 -1.773,1.758 -3.627,3.433 -5.431,5.159 -0.578,0.552 -1.094,1.167 -1.842,1.975 -0.049,-0.599 -0.153,-0.955 -0.094,-1.282 1.064,-6.13 2.058,-12.274 3.252,-18.379 1.255,-6.413 2.741,-12.779 4.066,-19.178 2.553,-12.343 5.115,-24.681 7.576,-37.037 1.856,-9.293 3.565,-18.609 5.338,-27.918 0.211,-1.099 0.445,-2.193 0.668,-3.293 m -22.925,75.061 c 0.08,0.014 0.164,0.031 0.245,0.047 0.064,-0.187 0.146,-0.376 0.187,-0.565 0.321,-1.515 0.649,-3.028 0.955,-4.542 1.612,-7.923 3.116,-15.867 4.847,-23.763 2.613,-11.904 5.768,-23.685 7.625,-35.75 0.76,-4.927 1.982,-9.781 2.976,-14.673 0.249,-1.215 0.421,-2.446 0.674,-3.948 0.474,0.537 0.76,0.821 0.994,1.137 1.016,1.375 1.985,2.781 3.038,4.123 0.683,0.873 0.849,1.774 0.625,2.838 -0.691,3.275 -1.374,6.557 -1.993,9.846 -1.478,7.879 -2.886,15.779 -4.392,23.654 -0.412,2.165 -1.139,4.268 -1.578,6.426 -0.371,1.821 -0.446,3.706 -0.801,5.531 -0.623,3.188 -1.383,6.347 -2.053,9.528 -0.642,3.054 -1.271,6.113 -1.863,9.175 -0.324,1.672 -0.496,3.37 -0.843,5.035 -0.473,2.285 -1.117,4.534 -1.568,6.817 -1.922,9.728 -3.778,19.471 -5.727,29.193 -0.273,1.361 -0.668,2.834 -1.461,3.925 -1.764,2.423 -3.814,4.639 -5.753,6.93 -0.23,0.268 -0.52,0.488 -0.932,0.87 0.218,-1.919 0.408,-3.591 0.598,-5.266 -0.082,-0.011 -0.163,-0.019 -0.247,-0.03 -0.115,0.737 -0.189,1.487 -0.356,2.215 -0.407,1.776 -0.499,3.743 -1.365,5.266 -1.995,3.51 -4.368,6.804 -6.607,10.173 -0.178,0.272 -0.493,0.454 -0.744,0.678 0.015,-1.068 0.231,-1.985 0.378,-2.91 1.897,-11.887 3.909,-23.752 5.634,-35.658 1.888,-13.045 4.405,-25.966 6.821,-38.912 0.801,-4.284 1.67,-8.559 2.335,-12.864 0.886,-5.744 1.434,-11.543 2.437,-17.265 1.127,-6.402 2.583,-12.748 3.938,-19.107 1.174,-5.496 2.415,-10.98 3.608,-16.467 0.264,-1.217 0.466,-2.445 0.697,-3.67 0.163,-0.08 0.329,-0.158 0.492,-0.23 0.15,0.277 0.263,0.586 0.454,0.836 1.33,1.726 2.619,3.49 4.027,5.154 1.162,1.369 1.757,2.803 1.284,4.606 -0.176,0.666 -0.146,1.382 -0.281,2.064 -2.288,11.582 -4.507,23.176 -6.911,34.734 -1.272,6.117 -2.892,12.161 -4.297,18.248 -0.557,2.424 -0.929,4.892 -1.424,7.327 -1.044,5.131 -2.129,10.253 -3.157,15.386 -0.254,1.27 -0.348,2.573 -0.516,3.858 m -94.988,59.593 c 0.084,-0.394 0.141,-0.698 0.215,-0.996 0.736,-3.006 1.679,-5.979 2.167,-9.024 0.702,-4.422 1.206,-8.888 1.563,-13.353 0.821,-10.285 2.617,-20.428 4.207,-30.603 1.974,-12.61 3.952,-25.216 5.778,-37.85 1.765,-12.195 3.323,-24.416 4.998,-36.625 0.691,-5.039 1.322,-10.093 2.202,-15.101 1.455,-8.274 3.025,-16.528 4.666,-24.764 1.078,-5.418 2.372,-10.791 3.544,-16.191 0.173,-0.805 0.569,-1.053 1.375,-1.065 2.3,-0.043 4.341,0.67 6.238,1.912 0.474,0.307 0.967,0.629 1.5,0.789 0.731,0.227 0.884,0.596 0.747,1.323 -2.447,13.097 -4.915,26.197 -7.291,39.312 -1.917,10.602 -3.753,21.215 -5.56,31.834 -0.937,5.511 -1.594,11.073 -2.612,16.568 -1.533,8.26 -3.013,16.522 -4.009,24.873 -0.413,3.445 -1.18,6.841 -1.752,10.268 -1.574,9.473 -3.131,18.946 -4.69,28.421 -0.532,3.24 -1.114,6.477 -1.562,9.73 -0.745,5.446 -1.347,10.915 -2.118,16.358 -0.28,1.974 -0.876,3.905 -1.34,5.905 -2.853,-0.594 -5.531,-1.151 -8.266,-1.721 m 51.921,-222.322 c 0.33,0.27 0.499,0.362 0.608,0.498 2.292,3.02 4.614,6.022 6.834,9.102 0.394,0.549 0.571,1.451 0.459,2.129 -0.831,5.045 -1.713,10.084 -2.668,15.111 -0.952,4.99 -1.974,9.971 -3.024,14.945 -0.805,3.799 -1.809,7.555 -2.544,11.364 -1.08,5.613 -1.991,11.259 -2.991,16.888 -1.263,7.112 -2.587,14.215 -3.808,21.336 -0.757,4.418 -1.333,8.867 -2.055,13.295 -0.98,6.004 -2.076,11.994 -3.017,18.008 -1.291,8.236 -2.487,16.492 -3.712,24.743 -0.865,5.806 -1.597,11.645 -2.604,17.431 -1.061,6.095 -2.353,12.148 -3.586,18.215 -0.749,3.68 -1.643,7.332 -2.347,11.02 -1.533,8.036 -3.059,16.07 -4.446,24.133 -0.758,4.386 -1.223,8.821 -1.823,13.236 -0.238,1.77 -0.483,3.539 -0.738,5.405 -3.003,-1.184 -5.952,-2.347 -8.825,-3.478 0.105,-1.59 0.196,-3.068 0.298,-4.546 0.141,-1.995 -0.688,-3.352 -2.622,-3.971 -0.562,-0.182 -0.678,-0.466 -0.51,-1.068 0.571,-2.066 1.228,-4.129 1.557,-6.242 0.79,-5.082 1.382,-10.198 2.116,-15.29 0.445,-3.092 1.052,-6.164 1.513,-9.256 0.768,-5.156 1.378,-10.337 2.235,-15.477 1.008,-6.043 2.274,-12.04 3.311,-18.078 0.632,-3.7 0.965,-7.454 1.571,-11.163 1.954,-11.936 3.927,-23.876 5.97,-35.798 2.458,-14.347 4.96,-28.691 7.508,-43.027 1.625,-9.143 3.382,-18.258 5.052,-27.389 0.373,-2.05 0.567,-4.058 2.627,-5.373 2.167,-1.388 3.329,-3.58 3.811,-6.109 1.645,-8.623 3.288,-17.242 4.933,-25.863 0.288,-1.512 0.586,-3.022 0.917,-4.731 m 12.018,121.777 c 0.106,0.025 0.212,0.056 0.317,0.081 0.066,-0.199 0.163,-0.39 0.199,-0.594 0.706,-4.076 1.441,-8.146 2.099,-12.234 0.675,-4.209 1.209,-8.446 1.924,-12.653 0.705,-4.135 1.625,-8.236 2.329,-12.371 1.233,-7.26 2.342,-14.537 3.562,-21.797 0.704,-4.197 1.096,-8.449 2.355,-12.56 0.638,-2.069 0.964,-4.243 1.319,-6.387 0.306,-1.867 0.447,-3.764 0.68,-5.645 0.07,-0.582 0.193,-1.158 0.304,-1.796 0.288,0.113 0.477,0.125 0.565,0.23 1.223,1.441 2.484,2.861 3.05,4.719 0.106,0.342 0.058,0.754 0.002,1.127 -0.793,5.084 -1.615,10.158 -2.402,15.246 -0.754,4.84 -1.439,9.689 -2.213,14.523 -1.269,7.92 -2.656,15.828 -3.864,23.758 -1.261,8.275 -2.362,16.58 -3.558,24.866 -0.818,5.686 -1.628,11.38 -2.534,17.053 -1.315,8.232 -2.693,16.456 -4.073,24.68 -1.725,10.277 -3.513,20.546 -5.211,30.825 -0.834,5.046 -1.535,10.114 -2.295,15.174 -0.089,0.592 -0.171,1.184 -0.254,1.776 0.079,0.012 -2.611,19.173 -3.36,22.85 0.071,-0.189 2.239,-7.245 3.809,-23.381 0.448,-2.551 0.91,-5.101 1.328,-7.656 1.409,-8.634 2.803,-17.268 4.205,-25.902 0.715,-4.397 1.389,-8.802 2.172,-13.184 1.377,-7.711 2.966,-15.39 4.207,-23.122 1.426,-8.89 2.569,-17.821 3.845,-26.733 0.784,-5.474 1.525,-10.951 2.401,-16.41 0.963,-6.016 2.133,-12.004 3.081,-18.025 1.714,-10.856 3.325,-21.731 4.992,-32.596 0.171,-1.127 0.417,-2.238 0.632,-3.356 0.141,-0.037 0.286,-0.074 0.427,-0.111 0.959,1.352 1.98,2.664 2.846,4.07 0.324,0.52 0.446,1.286 0.38,1.913 -0.277,2.666 -0.579,5.339 -1.018,7.984 -1.01,6.103 -2.157,12.191 -3.155,18.299 -1.329,8.14 -2.562,16.287 -3.852,24.433 -0.833,5.241 -1.76,10.467 -2.529,15.72 -1.14,7.746 -2.184,15.51 -3.253,23.273 -0.855,6.197 -1.626,12.404 -2.548,18.588 -0.771,5.185 -1.733,10.337 -2.566,15.509 -1.428,8.889 -2.811,17.789 -4.241,26.677 -0.574,3.553 -1.28,7.086 -1.835,10.644 -0.947,6.086 -1.778,12.191 -2.749,18.273 -0.507,3.175 -1.198,6.32 -1.837,9.472 -0.064,0.312 -0.27,0.755 -0.522,0.849 -1.669,0.645 -3.367,1.215 -5.06,1.798 -0.058,0.021 -0.158,-0.073 -0.271,-0.127 0.514,-2.645 1.027,-5.278 1.537,-7.913 -0.292,0.126 -0.426,0.304 -0.469,0.5 -0.369,1.73 -0.855,3.448 -1.045,5.197 -0.204,1.873 -0.894,3.003 -2.866,3.474 -1.743,0.416 -3.437,0.762 -5.296,0.545 1.332,-7.173 2.655,-14.307 3.979,-21.443 -1.838,6.653 -2.972,13.437 -3.99,20.245 -0.17,1.136 -0.349,1.355 -1.488,1.343 -0.789,-0.006 -1.582,-0.07 -2.367,-0.031 -1.578,0.082 -1.628,0.011 -1.423,-1.524 0.451,-3.381 0.868,-6.771 1.271,-10.157 0.433,-3.609 0.717,-7.238 1.278,-10.827 1.348,-8.579 2.846,-17.135 4.23,-25.707 0.962,-5.959 1.716,-11.951 2.779,-17.887 1.866,-10.381 3.909,-20.734 5.859,-31.102 0.843,-4.501 1.661,-9.002 2.458,-13.511 1.377,-7.808 2.777,-15.615 4.078,-23.436 1.669,-10.035 3.194,-20.088 4.892,-30.121 0.853,-5.034 1.958,-10.032 2.941,-15.049 1.239,-6.321 2.542,-12.629 3.68,-18.969 0.788,-4.379 1.342,-8.795 2.013,-13.197 0.047,-0.309 0.206,-0.6 0.314,-0.905 0.107,-0.033 0.212,-0.064 0.318,-0.099 0.826,1.133 1.57,2.334 2.491,3.381 1.402,1.593 1.402,3.289 1.043,5.273 -0.837,4.598 -1.355,9.25 -2.143,13.85 -0.717,4.172 -1.705,8.295 -2.423,12.465 -1.196,6.937 -2.263,13.902 -3.407,20.853 -1.026,6.27 -2.104,12.526 -3.11,18.795 -0.666,4.141 -1.219,8.298 -1.87,12.438 -0.304,1.926 -0.723,3.833 -1.094,5.749 M -183.744,55.08 c 0.87,0.067 0.736,-0.706 0.833,-1.132 0.326,-1.448 0.563,-2.918 0.789,-4.385 0.507,-3.246 0.986,-6.495 1.48,-9.745 0.037,-0.24 0.096,-0.481 0.166,-0.822 0.44,0.136 0.839,0.22 1.2,0.379 2.229,0.976 4.448,1.97 6.672,2.955 0.655,0.287 0.97,0.736 0.868,1.489 -0.686,5.073 -1.337,10.149 -2.042,15.219 -0.105,0.772 -0.507,1.501 -0.638,2.268 -0.088,0.52 0.063,1.077 0.108,1.616 0.702,-0.091 1.488,-0.034 2.064,-0.358 0.223,-0.122 0.161,-1.236 -0.122,-1.667 -0.403,-0.612 -0.528,-1.155 -0.45,-1.84 0.59,-5.214 1.161,-10.423 1.759,-15.809 1.283,0.434 2.514,0.804 3.689,1.298 0.235,0.098 0.407,0.688 0.375,1.031 -0.29,3.274 -0.661,6.542 -0.932,9.814 -0.106,1.283 0.041,2.588 -0.037,3.876 -0.033,0.51 -0.243,1.098 -0.567,1.488 -0.688,0.828 -0.482,2.423 0.51,2.847 0.193,0.084 0.557,-0.043 0.753,-0.19 0.739,-0.549 0.853,-1.411 0.48,-2.276 -0.207,-0.475 -0.358,-1.028 -0.337,-1.538 0.173,-4.106 0.392,-8.208 0.598,-12.311 0.004,-0.094 0.008,-0.189 0.018,-0.286 0.231,-2.026 0.445,-2.182 2.411,-1.693 1.378,0.34 2.749,0.695 4.207,1.065 -0.343,1.747 -0.721,3.435 -1,5.142 -0.56,3.395 -1.067,6.803 -1.592,10.202 -0.005,0.033 -0.013,0.064 -0.015,0.095 -0.023,0.637 -0.095,1.498 0.649,1.572 0.795,0.078 0.705,-0.843 0.743,-1.381 0.05,-0.718 -0.079,-1.446 -0.133,-2.171 -0.21,-2.878 0.529,-5.644 1.001,-8.445 0.214,-1.278 0.466,-2.551 0.602,-3.837 0.095,-0.869 0.508,-1.034 1.274,-0.9 0.932,0.165 1.873,0.282 2.816,0.382 0.688,0.073 1.047,0.364 0.933,1.104 -0.686,4.523 -1.371,9.047 -2.041,13.572 -0.078,0.525 -0.096,1.069 -0.055,1.596 0.047,0.627 0.459,0.694 0.951,0.455 0.757,-0.367 0.988,-1.405 0.631,-2.225 -0.215,-0.487 -0.357,-1.076 -0.306,-1.594 0.371,-3.805 0.818,-7.601 1.196,-11.406 0.083,-0.851 0.461,-1.265 1.283,-1.325 0.978,-0.063 1.956,-0.142 2.933,-0.189 1.134,-0.058 1.26,0.08 1.103,1.235 -0.229,1.69 -0.545,3.371 -0.717,5.066 -0.185,1.823 -0.212,3.656 -0.382,5.48 -0.089,1 -0.356,1.985 -0.493,2.98 -0.057,0.419 -0.113,0.927 0.073,1.255 0.192,0.335 0.798,0.775 1.013,0.68 0.393,-0.165 0.759,-0.655 0.896,-1.082 0.118,-0.381 0.067,-1.063 -0.184,-1.259 -0.561,-0.439 -0.708,-0.926 -0.667,-1.555 0.155,-2.261 0.303,-4.524 0.471,-6.785 0.116,-1.572 0.218,-3.15 0.412,-4.711 0.049,-0.39 0.376,-1.004 0.67,-1.068 2.125,-0.452 4.27,-0.787 6.585,-1.194 -0.072,0.862 -0.105,1.692 -0.216,2.517 -0.444,3.191 -0.882,6.385 -1.387,9.561 -0.169,1.084 -0.574,2.124 -0.786,3.201 -0.11,0.563 -0.126,1.179 -0.008,1.734 0.125,0.594 0.602,0.633 0.986,0.2 0.484,-0.549 0.735,-1.108 0.56,-1.957 -0.227,-1.092 -0.247,-2.263 -0.127,-3.376 0.388,-3.55 0.905,-7.085 1.319,-10.63 0.117,-1.001 0.532,-1.601 1.508,-1.924 1.349,-0.44 2.658,-1.001 3.991,-1.492 0.79,-0.287 1.006,-0.113 0.887,0.707 -0.767,5.282 -1.55,10.566 -2.288,15.854 -0.059,0.422 0.039,0.995 0.298,1.293 0.28,0.321 0.839,0.397 1.276,0.581 0.11,-0.388 0.354,-0.797 0.3,-1.16 -0.088,-0.57 -0.417,-1.098 -0.567,-1.664 -0.144,-0.528 -0.333,-1.106 -0.259,-1.627 0.65,-4.661 1.342,-9.317 2.063,-13.967 0.062,-0.39 0.333,-0.878 0.657,-1.076 1.993,-1.206 4.029,-2.341 6.241,-3.611 -0.267,1.491 -0.534,2.803 -0.73,4.126 -0.77,5.217 -1.516,10.44 -2.266,15.664 -0.067,0.475 -0.151,1.061 0.509,1.112 0.389,0.029 0.898,-0.164 1.188,-0.431 0.428,-0.401 0.322,-0.874 -0.137,-1.306 -0.646,-0.61 -0.786,-1.376 -0.628,-2.262 0.926,-5.284 1.809,-10.579 2.738,-15.863 0.113,-0.641 0.26,-1.405 0.676,-1.835 1.207,-1.248 2.557,-2.356 3.852,-3.515 0.098,0.065 0.194,0.128 0.292,0.196 -0.251,1.638 -0.498,3.278 -0.753,4.914 -0.362,2.309 -0.778,4.612 -1.072,6.93 -0.128,1.023 -0.06,2.078 0,3.116 0.104,1.751 0.189,3.475 -0.749,5.072 -0.295,0.502 -0.318,1.122 0.255,1.416 0.395,0.204 1.239,0.319 1.351,0.14 0.271,-0.434 0.333,-1.067 0.302,-1.609 -0.065,-1.203 -0.278,-2.399 -0.356,-3.601 -0.234,-3.525 0.258,-7 0.816,-10.469 0.324,-2.027 0.551,-4.07 0.877,-6.098 0.082,-0.51 0.276,-1.069 0.6,-1.459 1.776,-2.138 3.609,-4.237 5.423,-6.343 0.096,-0.113 0.231,-0.189 0.56,-0.454 -0.061,1.155 -0.057,2.084 -0.176,3.001 -0.389,3.101 -0.847,6.197 -1.235,9.297 -0.35,2.786 -0.602,5.585 -0.993,8.363 -0.129,0.917 -0.553,1.79 -0.861,2.676 -0.191,0.561 -0.253,1.1 0.434,1.322 0.641,0.213 1.02,-0.148 1.204,-0.742 0.113,-0.362 0.265,-0.723 0.294,-1.094 0.232,-3.111 0.394,-6.231 0.674,-9.337 0.388,-4.311 0.875,-8.615 1.286,-12.926 0.142,-1.511 0.583,-2.858 1.469,-4.126 2.084,-2.978 4.066,-6.024 6.097,-9.041 0.184,-0.276 0.402,-0.53 0.735,-0.962 -0.067,1.141 -0.121,2.037 -0.174,2.931 0.078,0.012 0.156,0.025 0.233,0.035 0.135,-0.753 0.332,-1.503 0.388,-2.264 0.1,-1.413 0.616,-2.621 1.502,-3.711 1.901,-2.326 3.776,-4.674 5.67,-7.005 0.226,-0.275 0.51,-0.498 0.769,-0.745 0.074,0.037 0.148,0.072 0.22,0.104 -0.095,0.794 -0.152,1.592 -0.288,2.378 -0.611,3.548 -1.286,7.083 -1.852,10.637 -0.388,2.455 -0.674,4.924 -0.922,7.399 -0.192,1.918 -0.743,3.708 -1.617,5.409 -0.145,0.281 -0.418,0.602 -0.367,0.855 0.081,0.396 0.3,0.861 0.608,1.096 0.439,0.326 0.841,0.049 1.03,-0.441 0.103,-0.261 0.201,-0.536 0.239,-0.817 0.378,-2.806 0.694,-5.621 1.119,-8.423 0.905,-5.968 1.87,-11.922 2.79,-17.885 0.174,-1.136 0.598,-2.102 1.45,-2.902 1.838,-1.737 3.641,-3.511 5.474,-5.254 0.353,-0.332 0.776,-0.594 1.245,-0.952 -0.521,3.532 -1.002,6.887 -1.521,10.239 -0.3,1.936 -0.606,3.872 -1.019,5.785 -0.111,0.512 -0.551,1.034 -0.975,1.38 -0.702,0.571 -1.088,1.314 -0.737,1.934 0.366,0.643 1.005,0.77 1.642,0.58 0.738,-0.221 1.124,-1.16 1.036,-1.908 -0.107,-0.925 -0.22,-1.888 -0.094,-2.801 0.642,-4.662 1.409,-9.305 2.016,-13.97 0.191,-1.449 0.691,-2.438 2.05,-3.095 1.448,-0.697 2.794,-1.605 4.19,-2.407 0.287,-0.166 0.611,-0.269 1.097,-0.48 -0.181,1.397 -0.319,2.611 -0.505,3.819 -0.467,3.088 -0.946,6.179 -1.453,9.262 -0.057,0.352 -0.254,0.709 -0.471,1.001 -0.913,1.218 -0.9,1.371 0.363,2.347 0.87,-0.396 1.433,-1.118 1.206,-2.02 -0.406,-1.589 0.052,-3.079 0.253,-4.595 0.374,-2.817 0.882,-5.618 1.26,-8.434 0.182,-1.341 0.772,-2.18 2.098,-2.595 1.709,-0.532 3.377,-1.191 5.32,-1.891 -0.303,2.147 -0.533,4.082 -0.862,5.999 -0.216,1.267 -0.612,2.5 -0.845,3.769 -0.081,0.437 -0.024,0.976 0.178,1.364 0.185,0.357 0.644,0.571 0.986,0.849 0.306,-0.392 0.67,-0.755 0.892,-1.191 0.099,-0.195 0.002,-0.603 -0.152,-0.804 -0.677,-0.877 -0.507,-1.834 -0.361,-2.808 0.319,-2.155 0.635,-4.311 0.94,-6.473 0.097,-0.691 0.416,-1.163 1.115,-1.369 1.453,-0.426 2.904,-0.863 4.349,-1.317 0.735,-0.224 1.122,-0.06 1.003,0.776 -0.333,2.348 -0.665,4.693 -0.991,7.04 -0.047,0.339 -0.127,0.692 -0.072,1.019 0.113,0.692 0.41,1.306 1.232,1.334 0.85,0.033 1.061,-0.675 1.316,-1.281 0.298,-0.715 0.04,-1.255 -0.646,-1.541 -0.463,-0.197 -0.584,-0.464 -0.523,-0.949 0.242,-1.85 0.448,-3.701 0.658,-5.554 0.076,-0.666 0.365,-1.015 1.105,-0.976 1.165,0.057 2.338,0.047 3.508,0.061 0.688,0.011 0.975,0.335 0.873,1.027 -0.236,1.561 -0.474,3.123 -0.675,4.692 -0.047,0.357 -0.076,0.834 0.117,1.08 0.301,0.396 0.801,0.896 1.202,0.884 0.349,-0.016 0.833,-0.629 0.964,-1.063 0.111,-0.378 -0.158,-0.89 -0.311,-1.325 -0.144,-0.415 -0.519,-0.81 -0.513,-1.213 0.017,-1.099 0.14,-2.205 0.315,-3.296 0.041,-0.253 0.466,-0.637 0.7,-0.629 2.078,0.084 4.154,0.242 6.44,0.392 -0.424,1.638 -0.167,3.274 -1.125,4.68 -0.156,0.228 -0.298,0.527 -0.288,0.785 0.017,0.383 0.175,0.761 0.274,1.141 0.427,-0.179 1.088,-0.243 1.236,-0.553 0.311,-0.66 0.401,-1.437 0.503,-2.181 0.12,-0.871 0.184,-1.759 0.22,-2.643 0.027,-0.643 0.275,-0.943 0.941,-0.824 1.401,0.245 2.807,0.463 4.2,0.744 0.262,0.052 0.593,0.282 0.697,0.519 0.353,0.792 -0.467,2.755 -1.19,3.315 -0.314,0.244 -0.663,0.836 -0.567,1.132 0.13,0.403 0.671,0.678 1.034,1.003 0.292,-0.329 0.744,-0.621 0.842,-1.003 0.301,-1.19 0.496,-2.412 0.689,-3.626 0.129,-0.805 0.491,-1.081 1.307,-0.849 1.148,0.323 2.316,0.566 3.556,0.864 -0.498,1.754 -0.981,3.416 -1.439,5.083 -0.142,0.514 -0.183,1.041 0.547,1.163 0.662,0.113 1.169,-0.31 1.19,-0.995 0.005,-0.249 -0.084,-0.505 -0.07,-0.75 0.059,-1.083 0.073,-2.174 0.241,-3.241 0.114,-0.725 0.625,-1.037 1.418,-0.775 0.899,0.3 1.815,0.544 2.733,0.769 0.584,0.143 0.769,0.435 0.647,1.027 -0.169,0.834 -0.228,1.692 -0.42,2.523 -0.081,0.348 -0.364,0.657 -0.58,0.971 -0.085,0.125 -0.245,0.198 -0.348,0.316 -0.45,0.512 -0.598,1.133 -0.112,1.622 0.301,0.3 0.91,0.544 1.291,0.448 0.649,-0.164 1.139,-0.824 0.853,-1.469 -0.632,-1.433 -0.094,-2.799 -0.025,-4.195 0.036,-0.703 0.395,-0.802 0.944,-0.584 1.264,0.5 2.547,0.966 3.76,1.566 0.349,0.173 0.698,0.769 0.687,1.161 -0.036,1.437 -0.038,2.892 -1.172,4.076 -0.289,0.306 -0.291,1.085 -0.14,1.55 0.11,0.337 0.694,0.52 1.07,0.769 0.222,-0.342 0.596,-0.664 0.646,-1.029 0.217,-1.565 0.337,-3.14 0.502,-4.712 0.034,-0.311 0.116,-0.615 0.207,-1.091 1.452,0.75 2.823,1.418 4.145,2.178 0.241,0.134 0.388,0.654 0.368,0.978 -0.082,1.198 -0.212,2.395 -0.411,3.578 -0.061,0.362 -0.347,0.745 -0.633,0.996 -1.04,0.898 -1.049,1.151 0.086,1.995 0.172,0.127 0.357,0.238 0.786,0.522 0.227,-0.728 0.523,-1.334 0.597,-1.967 0.199,-1.75 0.307,-3.51 0.471,-5.495 1.336,0.72 2.484,1.297 3.593,1.942 0.676,0.394 0.881,1.052 0.678,1.81 -0.413,1.558 -0.836,3.116 -1.254,4.674 h -0.291 c 0.256,0.169 0.492,0.426 0.77,0.487 0.364,0.076 0.896,0.134 1.098,-0.063 0.197,-0.194 0.088,-0.718 0.072,-1.096 -0.023,-0.44 -0.21,-0.906 -0.117,-1.314 0.223,-1.011 0.568,-1.991 0.943,-3.246 1.137,0.872 2.183,1.61 3.133,2.455 0.229,0.204 0.229,0.772 0.195,1.16 -0.143,1.572 -0.672,3.012 -1.69,4.264 0.204,0.325 0.331,0.689 0.59,0.888 0.263,0.202 0.709,0.398 0.973,0.302 0.24,-0.084 0.451,-0.55 0.49,-0.87 0.19,-1.541 0.317,-3.09 0.489,-4.891 1.168,0.789 2.115,1.356 2.96,2.046 0.276,0.223 0.425,0.79 0.382,1.171 -0.12,1.031 -0.438,2.039 -0.55,3.072 -0.048,0.462 0.11,1.025 0.375,1.402 C -6.8,8.011 -5.889,7.868 -5.762,7.632 -5.557,7.25 -5.674,6.685 -5.686,6.197 -5.699,5.329 -5.738,4.46 -5.768,3.59 -5.656,3.535 -5.55,3.478 -5.439,3.423 c 0.528,0.223 1.058,0.443 1.581,0.673 0.288,0.129 0.58,0.259 0.848,0.423 0.519,0.32 1.471,0.69 1.449,0.992 -0.054,0.894 -0.382,1.82 -0.818,2.616 -0.309,0.575 -0.662,0.999 -0.157,1.591 0.521,0.606 1.184,0.665 1.772,0.232 C -0.505,9.754 -0.266,9.048 -0.398,8.885 -1.239,7.847 -0.764,6.783 -0.637,5.668 0.012,5.668 0.641,5.695 1.268,5.66 2.192,5.613 2.668,5.048 2.471,4.137 2.086,2.36 1.875,0.516 0.723,-1.021 0.502,-1.313 0.582,-1.825 0.52,-2.235 c 0.091,-0.04 0.184,-0.081 0.274,-0.129 0.251,0.286 0.554,0.539 0.745,0.86 0.665,1.11 1.275,2.254 1.947,3.361 C 3.71,2.229 4.051,2.529 4.339,2.861 4.438,2.804 4.539,2.75 4.637,2.69 4.559,2.433 4.527,2.151 4.398,1.924 3.01,-0.481 1.65,-2.906 0.195,-5.274 c -1.52,-2.474 -3.099,-4.918 -4.718,-7.328 -3.727,-5.566 -7.512,-11.094 -11.24,-16.662 -0.981,-1.466 -1.792,-3.044 -2.767,-4.515 -3.613,-5.45 -7.245,-10.889 -10.907,-16.309 -1.667,-2.458 -3.506,-4.805 -5.114,-7.296 -2.564,-3.981 -5.012,-8.034 -7.472,-12.075 -0.282,-0.464 -0.323,-1.078 -0.497,-1.704 -0.81,0.197 -1.167,-0.429 -1.562,-1.051 -5.645,-8.806 -11.274,-17.62 -16.955,-26.405 -5.836,-9.015 -11.654,-18.047 -17.617,-26.986 -2.908,-4.357 -6.137,-8.5 -9.203,-12.758 -10.671,-14.793 -20.675,-30.047 -30.67,-45.299 -5.736,-8.755 -11.851,-17.238 -17.959,-25.73 -0.222,-0.311 -0.458,-0.609 -0.645,-0.942 -0.61,-1.091 -0.411,-1.976 0.446,-2.873 2.904,-3.035 5.784,-6.087 8.652,-9.158 0.379,-0.406 0.633,-0.935 0.941,-1.402 0.145,0.096 0.287,0.191 0.432,0.287 0.15,0.299 0.305,0.59 0.45,0.889 0.728,1.498 1.255,3.144 2.216,4.476 8.482,11.709 16.05,24.01 23.855,36.158 5.993,9.332 11.862,18.743 17.795,28.114 6.679,10.545 13.403,21.062 20.041,31.627 6.289,10.011 11.854,20.441 17.682,30.716 7.109,12.533 14.516,24.886 21.662,37.396 3.525,6.168 6.65,12.561 10.141,18.751 3.709,6.575 7.638,13.023 11.461,19.536 0.814,1.39 1.554,2.822 2.352,4.219 0.911,1.588 1.795,3.192 2.778,4.736 2.12,3.327 3.543,6.974 5.034,10.597 0.548,1.335 1.129,2.66 1.719,4.044 0.879,-0.425 0.658,-0.951 0.408,-1.47 C 9.521,3.344 8.07,0.396 6.691,-2.584 3.934,-8.564 0.523,-14.171 -2.891,-19.791 -6.43,-25.618 -9.824,-31.55 -12.977,-37.594 c -4.251,-8.16 -8.773,-16.152 -13.505,-24.036 -3.103,-5.174 -5.936,-10.51 -8.904,-15.759 -4.909,-8.689 -9.844,-17.364 -14.745,-26.054 -7.514,-13.328 -15.631,-26.287 -23.758,-39.244 -7.202,-11.48 -14.497,-22.908 -21.8,-34.33 -6.826,-10.674 -13.696,-21.318 -20.581,-31.947 -2.029,-3.135 -4.267,-6.133 -6.234,-9.293 -1.173,-1.887 -2.102,-3.948 -2.97,-6 -0.602,-1.428 -1.531,-2.336 -2.992,-2.608 -3.693,-0.697 -7.379,-1.488 -11.104,-1.926 -3.817,-0.443 -7.675,-0.722 -11.51,-0.681 -3.368,0.035 -6.587,1.137 -9.593,2.699 -2.103,1.088 -3.723,2.695 -4.769,4.856 -0.491,1.011 -1.016,2.005 -1.526,3.009 -0.1,-0.004 -0.2,-0.011 -0.3,-0.015 0,-0.666 -0.004,-1.328 0,-1.987 0.045,-6.158 0.1,-12.326 0.124,-18.49 0.005,-0.816 -0.122,-1.637 -0.236,-2.451 -0.049,-0.33 -0.233,-0.641 -0.355,-0.961 -0.098,0.02 -0.196,0.033 -0.294,0.049 -0.043,0.828 -0.139,1.654 -0.127,2.482 0.069,4.33 0.223,8.664 0.233,12.989 0.007,2.871 -0.168,5.75 -0.28,8.619 -0.036,0.945 0.049,1.83 0.739,2.56 0.127,0.131 0.261,0.307 0.29,0.475 0.486,3.017 2.47,5.047 4.621,6.947 0.78,0.699 1.655,1.289 2.388,2.022 0.291,0.298 0.513,0.898 0.435,1.291 -1.098,5.509 -2.374,10.992 -3.368,16.523 -1.292,7.178 -2.365,14.393 -3.542,21.596 -0.351,2.152 0.011,4.09 1.617,5.683 0.29,0.285 0.529,0.625 0.796,0.938 0.773,0.894 1.05,1.859 0.719,3.062 -3.227,11.684 -5.214,23.621 -7.181,35.555 -1.753,10.658 -3.237,21.359 -4.797,32.051 -0.955,6.564 -1.841,13.142 -2.727,19.72 -0.947,7.048 -1.776,14.106 -2.805,21.14 -0.849,5.815 -1.945,11.59 -2.873,17.39 -1.149,7.173 -2.339,14.341 -3.315,21.541 -0.733,5.413 -0.998,10.889 -1.758,16.3 -0.742,5.278 -1.845,10.508 -2.797,15.756 -0.234,1.273 -0.46,2.547 -0.771,3.805 -0.092,0.359 -0.399,0.759 -0.724,0.95 -0.836,0.499 -1.726,0.919 -2.618,1.324 -0.649,0.293 -0.929,0.769 -1.05,1.451 -0.961,5.505 -1.957,11.001 -2.912,16.507 -0.222,1.272 -0.302,2.565 -0.491,3.841 -0.128,0.872 -0.55,1.41 -1.518,1.657 -1.453,0.378 -2.321,1.425 -2.605,2.947 -0.966,5.181 -1.998,10.353 -2.918,15.544 -0.34,1.919 -0.429,3.88 -0.66,5.824 -0.097,0.812 -0.267,1.618 -0.469,2.822 0.376,0.261 1.035,0.735 1.714,1.18 0.419,0.276 0.876,0.5 1.307,0.761 3.159,1.903 6.485,3.209 10.262,3.181 1.915,-0.017 3.835,0.283 5.749,0.292 1.025,0.008 2.079,-0.211 3.07,-0.501 1.971,-0.578 3.22,-1.884 3.662,-3.947 0.249,-1.165 0.611,-2.303 0.954,-3.568 1.675,0.451 3.278,0.9 4.891,1.308 7.744,1.954 15.489,3.903 23.237,5.838 2.984,0.747 5.958,0.206 8.95,-0.055 4.656,-0.405 9.019,-1.887 13.345,-3.455 2.729,-0.995 5.162,-2.622 7.407,-4.509 1.28,-1.077 2.662,-2.032 4.021,-3.003 6.887,-4.92 12.769,-10.804 17.395,-17.924 2.288,-3.52 4.866,-6.874 6.938,-10.516 4.398,-7.742 8.636,-15.579 12.78,-23.467 2.243,-4.268 5.331,-7.713 9.036,-10.708 7.552,-6.095 15.99,-9.943 25.826,-10.308 2.541,-0.095 5.042,0.158 7.514,0.77 0.853,0.208 1.743,0.272 2.605,0.45 1.389,0.285 2.828,0.452 4.143,0.946 5.767,2.166 11.485,4.458 16.7,7.812 2.952,1.894 5.873,3.839 8.861,5.674 3.684,2.263 7.4,4.487 11.154,6.63 1.878,1.069 3.962,1.649 6.134,1.827 4.266,0.348 8.347,-3.376 8.774,-7.312 0.113,-1.047 0.502,-2.063 0.761,-3.094 V 11.524 C 18.396,10.208 17.961,8.908 17.83,7.574 17.521,4.401 16.754,1.386 15.506,-1.56 12.774,-8.013 10.324,-14.586 7.488,-20.994 5.071,-26.445 2.215,-31.699 -0.327,-37.1 c -3.31,-7.04 -7.11,-13.808 -10.834,-20.63 -3.932,-7.198 -7.405,-14.649 -11.146,-21.957 -2.273,-4.439 -4.751,-8.779 -7,-13.227 -7.581,-14.994 -15.087,-30.021 -22.653,-45.023 -6.301,-12.496 -12.819,-24.873 -19.808,-37.004 -5.468,-9.496 -10.952,-18.99 -16.416,-28.49 -2.801,-4.873 -5.536,-9.779 -8.366,-14.631 -2.105,-3.605 -4.322,-7.137 -6.481,-10.701 -1.197,-1.977 -1.204,-2.018 0.977,-2.834 2.225,-0.834 4.009,-2.244 5.561,-3.998 0.71,-0.799 0.582,-1.551 -0.351,-2.114 -1.031,-0.626 -2.14,-0.726 -3.293,-0.431 -2.966,0.754 -5.956,1.443 -8.881,2.328 -0.971,0.297 -1.884,1.025 -2.612,1.76 -0.286,0.287 -0.186,1.256 0.075,1.728 0.823,1.485 2.086,2.33 3.892,2.135 0.801,-0.088 1.78,-0.393 2.358,-0.049 0.533,0.315 0.598,1.371 0.939,2.076 0.412,0.85 0.826,1.711 1.367,2.489 3.393,4.847 6.216,10.039 9.116,15.185 2.154,3.822 4.668,7.438 6.858,11.244 7.088,12.323 14.28,24.586 21.084,37.065 6.451,11.838 12.498,23.898 18.658,35.892 7.951,15.477 15.822,30.995 23.759,46.478 7.186,14.024 14.354,28.054 21.639,42.026 5.864,11.238 11.163,22.729 15.942,34.464 1.019,2.505 1.804,5.113 2.58,7.709 0.245,0.821 0.096,1.758 0.16,2.639 0.093,1.285 0.215,2.567 0.33,3.85 0.014,0.187 0.088,0.382 0.06,0.563 -0.292,1.93 -0.462,3.891 -0.938,5.771 -0.764,3.031 -5.116,5.476 -8.313,4.441 -1.942,-0.628 -3.899,-1.342 -5.663,-2.347 -3.649,-2.078 -7.184,-4.355 -10.742,-6.589 -3.156,-1.979 -6.242,-4.076 -9.427,-6.013 -7.899,-4.809 -16.461,-7.74 -25.616,-9.107 -3.396,-0.508 -6.602,0.172 -9.862,0.708 -2.18,0.361 -4.346,0.816 -6.513,1.259 -0.551,0.112 -1.13,0.253 -1.611,0.526 -4.336,2.47 -8.85,4.638 -12.768,7.791 -3.673,2.954 -6.615,6.493 -8.86,10.638 -4.453,8.221 -8.679,16.577 -13.474,24.593 -4.803,8.03 -10.091,15.827 -17.148,22.106 -4.902,4.363 -10.072,8.49 -15.877,11.635 -3.799,2.059 -8.044,2.981 -12.235,3.918 -5.282,1.178 -10.492,0.829 -15.743,-0.567 -5.336,-1.417 -10.796,-2.348 -16.181,-3.589 -2.635,-0.608 -5.22,-1.437 -7.909,-2.188 0.339,-2.564 0.658,-5.068 1.003,-7.567 0.373,-2.69 0.755,-5.382 1.163,-8.066 0.147,-0.963 -0.176,-1.571 -1.078,-1.943 -0.818,-0.337 -1.614,-0.725 -2.398,-1.135 -0.28,-0.147 -0.49,-0.433 -0.733,-0.651 -0.284,-0.049 -0.594,-0.039 -0.844,-0.156 -0.855,-0.401 -1.679,-0.873 -2.536,-1.275 -2.77,-1.294 -5.511,-2.712 -8.599,-3.076 -1.295,-0.15 -2.621,-0.025 -3.93,-0.025 -0.02,-0.078 -0.055,-0.14 -0.046,-0.193 1.168,-6.422 2.312,-12.849 3.523,-19.264 0.312,-1.662 1.334,-2.485 3.03,-2.595 3.152,-0.212 6.23,0.059 9.161,1.414 2.866,1.321 3.092,1.609 2.968,4.785 -0.009,0.188 -0.03,0.377 -0.057,0.566 -0.766,5.051 -1.558,10.101 -2.285,15.162 -0.224,1.544 -0.269,3.112 -0.393,4.671"
             style="fill:#101921;fill-opacity:1;fill-rule:evenodd;stroke:none"
             id="path22"
             inkscape:connector-curvature="0" /></g><g
           id="g24"
           transform="translate(147.2684,62.0043)"><path
             d="m 0,0 c 0,-2.053 -0.059,-3.824 0.043,-5.586 0.027,-0.453 0.465,-1.027 0.88,-1.303 3.235,-2.113 6.774,-3.422 10.563,-4.242 7.574,-1.635 15.206,-2.439 22.954,-2.172 2.587,0.092 5.07,0.606 7.483,1.526 6.099,2.328 12.204,4.652 18.312,6.965 2.047,0.773 3.804,1.998 5.343,3.517 0.428,0.414 0.563,1.135 0.814,1.725 0.121,0.283 0.198,0.578 0.411,0.841 0.559,-1.466 0.432,-2.787 -0.647,-3.947 -1.478,-1.586 -3.399,-2.379 -5.389,-3.041 -1.553,-0.513 -3.172,-0.861 -4.264,-2.277 -0.239,-0.311 -0.759,-0.43 -1.173,-0.578 -4.461,-1.586 -8.923,-3.164 -13.389,-4.735 -3.616,-1.277 -7.37,-1.455 -11.138,-1.228 -4.319,0.26 -8.656,0.474 -12.935,1.068 -5.927,0.821 -11.758,2.125 -16.923,5.422 -0.263,0.172 -0.586,0.387 -0.859,0.363 -0.976,-0.095 -1.107,0.457 -1.1,1.219 0.016,2.738 0.044,5.49 0.025,8.236 -0.013,1.383 0.798,2.262 1.841,2.864 0.424,0.246 1.263,0.15 1.725,-0.116 1.418,-0.822 2.752,-1.787 4.108,-2.714 4.813,-3.315 10.135,-5.104 15.972,-5.248 4.707,-0.123 9.418,-0.315 14.119,-0.166 2.163,0.066 4.302,0.877 6.458,1.326 0.672,0.144 1.361,0.267 2.043,0.283 0.265,0.004 0.54,-0.315 0.812,-0.486 -0.19,-0.25 -0.337,-0.674 -0.574,-0.733 C 42.975,-3.836 40.441,-4.756 37.865,-4.9 33.044,-5.162 28.192,-5.135 23.363,-4.936 17.095,-4.672 11.204,-3.07 6.14,0.893 5.097,1.705 3.974,2.443 2.807,3.061 2.33,3.313 1.541,3.369 1.062,3.148 -0.128,2.611 -0.259,1.631 0.563,0.605 2.051,-1.244 3.864,-2.73 5.975,-3.783 11.047,-6.322 16.474,-8.01 22.034,-8.68 c 8.151,-0.98 16.291,-0.601 23.999,2.836 1.063,0.473 2.189,0.805 3.292,1.192 0.234,0.084 0.508,0.199 0.726,0.146 0.4,-0.096 0.774,-0.306 1.159,-0.465 -0.285,-0.271 -0.528,-0.623 -0.863,-0.799 -3.613,-1.865 -7.411,-3.251 -11.443,-3.83 -2.339,-0.339 -4.716,-0.482 -7.085,-0.543 -3.653,-0.103 -7.323,-0.41 -10.954,0.411 -4.844,1.097 -9.649,2.345 -14.132,4.517 -1.53,0.742 -2.847,1.949 -4.216,3.002 C 1.701,-1.588 0.968,-0.854 0,0"
             style="fill:#101921;fill-opacity:1;fill-rule:evenodd;stroke:none"
             id="path26"
             inkscape:connector-curvature="0" /></g><g
           id="g28"
           transform="translate(203.4437,58.0257)"><path
             d="m 0,0 c 0.807,0.127 1.617,0.223 2.415,0.383 0.988,0.199 1.098,0.445 0.413,1.207 -3.034,3.365 -6.486,6.244 -10.241,8.767 -0.027,0.02 -0.058,0.028 -0.086,0.039 -2.66,1.387 -6.025,0.272 -7.336,-2.431 -0.461,-0.961 -0.402,-1.459 0.522,-1.977 C -11.978,4.68 -9.607,3.432 -7.226,2.213 -4.962,1.053 -2.582,0.254 0,0 M 2.495,7.686 C 2.474,6.043 1.011,6.051 0.396,5.27 1.309,4.139 1.666,3.99 2.893,4.525 3.629,4.844 4.34,5.293 4.957,5.805 5.654,6.391 6.219,6.434 6.94,5.633 5.631,4.648 4.338,3.676 2.968,2.65 3.317,2.117 3.666,1.602 3.993,1.076 4.528,0.219 4.403,-0.141 3.424,-0.443 1.59,-1.01 -0.259,-0.889 -2.1,-0.479 c -4.658,1.053 -8.836,3.19 -12.755,5.829 -1.792,1.203 -1.606,1.363 -0.692,3.332 0.984,2.113 2.51,3.388 4.784,3.66 0.805,0.096 1.786,0.041 2.458,-0.342 1.683,-0.969 3.245,-2.154 4.838,-3.27 0.385,-0.275 0.703,-0.638 1.06,-0.945 1.536,-1.328 1.521,-1.303 3.289,-0.41 0.443,0.219 1.009,0.203 1.613,0.311"
             style="fill:#101921;fill-opacity:1;fill-rule:evenodd;stroke:none"
             id="path30"
             inkscape:connector-curvature="0" /></g><g
           id="g32"
           transform="translate(215.0072,66.2543)"><path
             d="m 0,0 c -0.478,0.311 -0.943,0.641 -1.439,0.924 -3.582,2.053 -7.154,4.127 -10.767,6.129 -1.377,0.763 -3.011,0.314 -3.985,-0.918 -0.675,-0.862 -0.675,-1.455 0.192,-2.102 0.982,-0.736 1.974,-1.562 3.099,-1.976 3.037,-1.129 6.16,-2.022 9.221,-3.086 C -2.4,-1.471 -1.366,-1.133 0,0 m -1.067,2.08 c 0.081,1.172 -0.378,2.32 -0.068,3.457 0.134,0.016 0.266,0.031 0.398,0.051 0.168,-0.828 0.33,-1.666 0.508,-2.49 0.237,-1.102 0.441,-2.205 0.745,-3.289 0.245,-0.87 0.088,-1.485 -0.81,-1.7 -0.902,-0.207 -1.923,-0.425 -2.791,-0.211 -3.987,0.977 -7.911,2.19 -11.524,4.215 -0.494,0.278 -0.941,0.637 -1.422,0.936 -1.105,0.685 -1.68,1.627 -1.385,2.951 0.313,1.398 1.246,2.232 2.593,2.615 1.176,0.338 2.241,-0.021 3.26,-0.599 C -8.075,6.043 -4.587,4.07 -1.067,2.08"
             style="fill:#101921;fill-opacity:1;fill-rule:evenodd;stroke:none"
             id="path34"
             inkscape:connector-curvature="0" /></g><g
           id="g36"
           transform="translate(210.6615,329.4369)"><path
             d="m 0,0 c -0.383,2.074 -0.831,4.135 -1.141,6.221 -0.69,4.619 -1.299,9.251 -1.975,13.869 -0.113,0.771 -0.279,1.577 -0.627,2.252 -0.329,0.637 -0.335,1.18 0.065,1.657 0.184,0.221 0.907,0.35 0.97,0.251 0.318,-0.487 0.679,-1.063 0.694,-1.614 0.036,-1.508 -0.3,-3.045 -0.121,-4.527 C -1.558,13.378 -0.808,8.668 -0.13,3.95 0.031,2.824 0.178,1.696 0.31,0.567 0.333,0.381 0.251,0.177 0.214,-0.014 0.145,-0.008 0.072,-0.004 0,0"
             style="fill:#101921;fill-opacity:1;fill-rule:evenodd;stroke:none"
             id="path38"
             inkscape:connector-curvature="0" /></g><g
           id="g40"
           transform="translate(203.4437,58.0257)"><path
             d="m 0,0 c -2.582,0.254 -4.962,1.053 -7.226,2.213 -2.381,1.219 -4.752,2.467 -7.087,3.775 -0.924,0.518 -0.983,1.016 -0.522,1.977 1.311,2.703 4.676,3.818 7.336,2.431 0.028,-0.011 0.059,-0.019 0.086,-0.039 C -3.658,7.834 -0.206,4.955 2.828,1.59 3.513,0.828 3.403,0.582 2.415,0.383 1.617,0.223 0.807,0.127 0,0"
             style="fill:#101921;fill-opacity:1;fill-rule:evenodd;stroke:#ffffff;stroke-width:1;stroke-linecap:butt;stroke-linejoin:miter;stroke-miterlimit:10;stroke-dasharray:none;stroke-opacity:1"
             id="path42"
             inkscape:connector-curvature="0" /></g><g
           id="g44"
           transform="translate(215.0072,66.2543)"><path
             d="m 0,0 c -1.366,-1.133 -2.4,-1.471 -3.679,-1.029 -3.061,1.064 -6.184,1.957 -9.221,3.086 -1.125,0.414 -2.117,1.24 -3.099,1.976 -0.867,0.647 -0.867,1.24 -0.192,2.102 0.974,1.232 2.608,1.681 3.985,0.918 C -8.593,5.051 -5.021,2.977 -1.439,0.924 -0.943,0.641 -0.478,0.311 0,0"
             style="fill:#101921;fill-opacity:1;fill-rule:evenodd;stroke:#ffffff;stroke-width:1;stroke-linecap:butt;stroke-linejoin:miter;stroke-miterlimit:10;stroke-dasharray:none;stroke-opacity:1"
             id="path46"
             inkscape:connector-curvature="0" /></g><g
           id="g48"
           transform="translate(188.7889,235.1171)"><path
             d="M 0,0 C -1.636,9.846 -4.686,27.464 -6.328,37.304 -5.67,36.976 0.517,1.83 0.374,0.519 0.45,-1.768 0.115,0.022 0,0"
             style="fill:#101921;fill-opacity:1;fill-rule:evenodd;stroke:none"
             id="path50"
             inkscape:connector-curvature="0" /></g><g
           id="g52"
           transform="translate(181.8046,276.9003)"><path
             d="M 0,0 C -4.053,19.011 -8.665,46.332 -11.21,65.572 -7.95,46.446 -3.264,19.125 0,0"
             style="fill:#101921;fill-opacity:1;fill-rule:evenodd;stroke:none"
             id="path54"
             inkscape:connector-curvature="0" /></g><g
           id="g56"
           transform="translate(220.1258,276.5814)"><path
             d="m 0,0 c -0.208,0.175 -0.39,0.31 -0.431,0.518 -0.55,2.807 -2.12,10.188 -2.632,13.003 -0.045,0.245 -4.001,24.113 -4.02,24.365 0.121,0.017 0.274,-0.282 0.395,-0.263 0.624,-3.261 4.779,-27.32 5.404,-30.579 z"
             style="fill:#101921;fill-opacity:1;fill-rule:evenodd;stroke:none"
             id="path58"
             inkscape:connector-curvature="0" /></g><g
           id="g60"
           transform="translate(246.5834,248.9159)"><path
             d="m 0,0 c -0.624,-0.157 -0.559,0.569 -0.95,1.459 -0.672,2.946 -1.441,5.884 -1.905,8.87 -0.708,4.584 -1.133,9.212 -1.803,13.804 -0.336,2.337 -0.954,4.632 -1.416,6.952 -0.154,0.773 -0.841,4.137 -0.826,4.931 C -6.235,36.437 0.09,1.005 0,0"
             style="fill:#101921;fill-opacity:1;fill-rule:evenodd;stroke:none"
             id="path62"
             inkscape:connector-curvature="0" /></g><g
           id="g64"
           transform="translate(217.9208,73.1371)"><path
             d="m 0,0 c -1.327,0.311 -2.739,0.642 -4.142,0.983 -1.683,0.412 -3.362,0.829 -5.042,1.244 -0.156,0.04 -0.317,0.044 -0.462,0.104 -0.83,0.326 -1.533,0.801 -1.619,1.776 -0.054,0.625 0.814,1.422 1.781,1.581 0.599,0.096 1.256,0.117 1.837,-0.032 C -5.699,5.163 -3.78,4.545 -1.833,4.028 -0.313,3.625 0.753,2.629 1.713,1.485 2.294,0.793 2.117,0.383 1.212,0.199 0.844,0.128 0.467,0.072 0,0"
             style="fill:#101921;fill-opacity:1;fill-rule:evenodd;stroke:#fdfdfc;stroke-width:1;stroke-linecap:butt;stroke-linejoin:miter;stroke-miterlimit:10;stroke-dasharray:none;stroke-opacity:1"
             id="path66"
             inkscape:connector-curvature="0" /></g></g></g></g></svg>