<?xml version="1.0" encoding="UTF-8" standalone="no"?>
<!-- Created with Inkscape (http://www.inkscape.org/) -->

<svg
   xmlns:dc="http://purl.org/dc/elements/1.1/"
   xmlns:cc="http://creativecommons.org/ns#"
   xmlns:rdf="http://www.w3.org/1999/02/22-rdf-syntax-ns#"
   xmlns:svg="http://www.w3.org/2000/svg"
   xmlns="http://www.w3.org/2000/svg"
   xmlns:sodipodi="http://sodipodi.sourceforge.net/DTD/sodipodi-0.dtd"
   xmlns:inkscape="http://www.inkscape.org/namespaces/inkscape"
   version="1.1"
   id="svg2"
   xml:space="preserve"
   width="536.96002"
   height="726.40002"
   viewBox="0 0 536.96002 726.40002"
   sodipodi:docname="Oboe.svg"
   inkscape:version="0.92.4 (5da689c313, 2019-01-14)"><metadata
     id="metadata8"><rdf:RDF><cc:Work
         rdf:about=""><dc:format>image/svg+xml</dc:format><dc:type
           rdf:resource="http://purl.org/dc/dcmitype/StillImage" /><dc:title></dc:title></cc:Work></rdf:RDF></metadata><defs
     id="defs6"><clipPath
       clipPathUnits="userSpaceOnUse"
       id="clipPath18"><path
         d="M 0,544.8 H 402.72 V 0 H 0 Z"
         id="path16"
         inkscape:connector-curvature="0" /></clipPath></defs><sodipodi:namedview
     pagecolor="#ffffff"
     bordercolor="#666666"
     borderopacity="1"
     objecttolerance="10"
     gridtolerance="10"
     guidetolerance="10"
     inkscape:pageopacity="0"
     inkscape:pageshadow="2"
     inkscape:window-width="640"
     inkscape:window-height="480"
     id="namedview4"
     showgrid="false"
     inkscape:zoom="0.32488986"
     inkscape:cx="-60.862373"
     inkscape:cy="363.20001"
     inkscape:window-x="0"
     inkscape:window-y="0"
     inkscape:window-maximized="0"
     inkscape:current-layer="g10" /><g
     id="g10"
     inkscape:groupmode="layer"
     inkscape:label="Oboe"
     transform="matrix(1.3333333,0,0,-1.3333333,0,726.4)"><g
       id="g12"><g
         id="g14"
         clip-path="url(#clipPath18)"><g
           id="g20"
           transform="translate(123.9513,183.1773)"><path
             d="m 0,0 0.294,-0.305 c 0.318,0.274 0.743,0.492 0.925,0.837 0.183,0.347 0.125,0.822 0.172,1.239 l -0.466,0.1 C 0.617,1.248 0.309,0.624 0,0 m 20.401,10.656 c 0.105,0.237 0.21,0.472 0.315,0.708 -0.695,0.269 -1.391,0.538 -2.087,0.807 -0.075,-0.177 -0.15,-0.353 -0.225,-0.529 0.666,-0.329 1.331,-0.658 1.997,-0.986 m 134.443,235.868 c 0.108,-0.148 0.214,-0.295 0.322,-0.441 0.593,0.187 1.186,0.375 2.132,0.673 -0.647,0.455 -1.16,1.025 -1.382,0.928 -0.442,-0.193 -0.724,-0.752 -1.072,-1.16 M 23.919,8.532 c 1.12,0.778 2.624,-0.577 3.617,0.898 -1.422,0.405 -2.873,1.664 -3.617,-0.898 M 4.439,6.814 C 4.292,6.914 4.145,7.014 3.998,7.113 3.105,5.627 2.214,4.141 1.322,2.655 L 1.693,2.427 c 1.353,1.181 1.883,2.891 2.746,4.387 m 69.621,116.44 c 1.018,-1.525 4.275,-2.408 6.266,-1.837 -2.069,0.606 -4.169,1.222 -6.266,1.837 M 2.211,0.11 C 2.081,-0.054 1.95,-0.218 1.819,-0.382 2.8,-1.281 3.749,-2.222 4.782,-3.057 5.085,-3.301 5.65,-3.355 6.055,-3.281 6.244,-3.246 6.537,-2.558 6.434,-2.408 6.215,-2.096 5.77,-1.937 5.412,-1.726 4.624,-1.263 3.832,-0.805 3.04,-0.349 2.767,-0.19 2.487,-0.042 2.211,0.11 m 74.308,115.197 c -2.964,0.131 -5.474,0.712 -7.434,2.759 1.28,-2.685 5.383,-4.286 7.434,-2.759 M 7.36,-5.833 c -1.254,-0.386 -4.473,-5.566 -4.371,-6.936 1.518,2.188 3.336,4.189 4.371,6.936 m 87.042,150.536 c -3.209,-0.527 -5.676,1.164 -8.377,1.879 2.374,-2.633 6.049,-3.826 8.377,-1.879 M 45.067,72.806 c -0.998,-0.433 -0.8,-1.08 -0.15,-1.6 0.954,-0.762 1.933,-1.561 3.032,-2.055 1.328,-0.595 2.798,-0.8 4.281,-0.289 -1.038,0.384 -2.111,0.545 -3.166,0.79 -0.49,0.115 -1.026,0.294 -1.394,0.614 -0.901,0.782 -1.717,1.663 -2.603,2.54 M 13.33,24.106 c 0.202,-0.124 0.405,-0.248 0.607,-0.372 2.16,3.661 4.32,7.32 6.48,10.979 -0.178,0.106 -0.356,0.213 -0.535,0.32 C 17.698,31.391 15.514,27.748 13.33,24.106 M 7.353,12.814 c 1.091,0.678 5.447,8.148 6.135,10.384 -0.94,-0.223 -5.533,-7.927 -6.135,-10.384 m 3.62,19.74 c -0.394,-1.775 0.315,-3.208 1.877,-3.99 1.505,-0.752 1.682,-0.674 2.266,1.036 -1.36,0.969 -2.73,1.947 -4.143,2.954 m 10.085,3.957 c 0.092,-0.083 0.184,-0.167 0.276,-0.25 0.933,0.548 1.964,0.987 2.745,1.701 0.274,0.251 0.143,1.321 -0.168,1.756 -0.578,0.807 -1.456,1.199 -2.529,0.696 -0.796,-0.374 -1.284,-0.965 -0.609,-1.637 0.741,-0.736 0.997,-1.354 0.285,-2.266 M -1.935,-6.811 c 0.793,0.109 1.474,0.007 1.813,0.3 0.377,0.325 0.527,0.998 0.614,1.545 0.056,0.359 -0.173,0.763 -0.279,1.145 -0.352,1.267 -1.775,1.739 -2.803,0.93 -0.836,-0.657 -0.772,-2.088 0.178,-2.293 0.928,-0.199 0.917,-0.637 0.477,-1.627 m 90.644,163.375 c 0.043,-0.596 -0.025,-1.478 0.132,-1.521 0.638,-0.171 1.418,-0.275 2.008,-0.047 0.868,0.336 1.264,2.189 0.856,3.194 -0.313,0.769 -1.919,1.429 -2.861,1.176 -0.893,-0.241 -1.442,-1.238 -1.347,-2.49 0.436,-0.112 0.883,-0.228 1.212,-0.312 m 4.883,-23.938 c 1.237,-0.004 2.568,1.665 2.586,3.241 0.008,0.639 -1.921,2.214 -2.725,2.226 -0.815,0.011 -2.018,-1.393 -2.016,-2.354 0.002,-1.715 0.968,-3.109 2.155,-3.113 m -5.179,-7.32 c 1.697,0.021 3.182,0.802 3.456,1.59 0.306,0.882 -0.145,2.212 -1.178,2.749 -0.612,0.318 -1.463,0.394 -2.154,0.276 -0.567,-0.097 -1.245,-0.53 -1.531,-1.016 -0.332,-0.565 -0.732,-1.415 0.304,-1.921 0.163,-0.08 0.171,-0.433 0.304,-0.623 0.303,-0.435 0.639,-0.847 0.799,-1.055 M 82.86,114.278 c -0.312,0.435 -0.747,1.583 -1.572,2.062 -1.113,0.646 -3.056,-0.483 -3.363,-1.63 -0.215,-0.801 1.216,-3.495 1.978,-3.703 0.147,-0.04 0.315,-0.018 0.473,-0.008 1.412,0.087 2.507,1.257 2.484,3.279 m 1.876,8.86 c -1.396,-0.004 -2.447,-0.816 -2.482,-1.916 -0.047,-1.549 1.34,-3.61 2.405,-3.688 1.221,-0.09 3.141,1.993 3.207,3 0.083,1.267 -1.566,2.609 -3.13,2.604 M 33.583,19.72 c -1.366,0.441 -2.098,0.18 -2.721,-0.782 -0.51,-0.787 -1.095,-1.525 -1.625,-2.3 -1.239,-1.813 -2.465,-3.634 -3.721,-5.489 1.379,-0.513 2.649,-0.263 3.198,0.56 1.078,1.615 2.165,3.228 3.186,4.879 0.618,0.999 1.118,2.07 1.683,3.132 m 20.333,49.195 c -0.093,-0.816 -0.235,-1.409 -0.202,-1.992 0.022,-0.394 0.181,-0.963 0.467,-1.13 1.844,-1.072 5.06,0.676 5.253,2.809 0.013,0.147 -0.063,0.301 -0.085,0.455 -0.198,1.384 -1.31,1.613 -2.384,1.889 -0.947,0.244 -1.693,0.133 -2.134,-0.924 -0.201,-0.479 -0.686,-0.839 -0.915,-1.107 M 34.831,51.048 c -0.048,-0.085 -0.097,-0.17 -0.145,-0.254 1.336,-0.948 2.541,-2.203 4.413,-1.966 1.298,0.164 1.909,-0.302 1.911,-1.673 0.002,-1.295 0.895,-1.923 2.072,-2.05 1.109,-0.119 2.138,0.254 2.509,1.391 0.243,0.742 0.241,1.604 0.171,2.395 -0.041,0.462 -0.326,1.109 -0.692,1.29 -0.691,0.342 -1.487,0.983 -2.316,0.228 -0.836,-0.761 -1.617,-1.509 -2.932,-1.062 -1.04,0.353 -2.155,0.483 -3.205,0.812 -0.626,0.196 -1.193,0.586 -1.786,0.889 M -7.332,-26.079 c -0.33,0.398 -0.402,0.565 -0.525,0.622 -3.013,1.388 -5.304,3.758 -7.865,5.759 -0.404,0.315 -0.92,0.594 -1.144,1.016 -1.245,2.343 -2.406,4.73 -3.623,7.088 -0.129,0.25 -0.431,0.411 -0.653,0.614 -0.144,-0.33 -0.497,-0.752 -0.399,-0.974 0.881,-1.978 1.697,-4.01 2.827,-5.845 0.868,-1.409 2.275,-2.475 3.239,-3.838 1.685,-2.384 4.032,-3.656 6.732,-4.427 0.351,-0.101 0.756,-0.015 1.411,-0.015 m 109.069,170.164 c -0.408,0.633 -0.717,1.369 -1.244,1.879 -1.727,1.67 -4.024,1.06 -4.779,-1.199 -0.314,-0.941 -0.213,-1.756 0.506,-2.511 0.362,-0.38 0.86,-0.951 0.792,-1.35 -0.133,-0.777 0.227,-0.838 0.74,-0.834 1.728,0.013 3.763,2.123 3.985,4.015 M 53.792,60.651 c 0.078,1.131 -0.59,1.852 -1.442,2.284 -0.857,0.434 -1.816,0.542 -2.705,-0.156 -0.353,-0.276 -0.83,-0.516 -1.266,-0.545 -3.074,-0.2 -5.925,0.267 -8.006,2.884 -0.127,0.158 -0.568,0.181 -0.798,0.095 -0.117,-0.044 -0.185,-0.514 -0.1,-0.717 0.095,-0.228 0.382,-0.382 0.598,-0.552 2.152,-1.7 4.582,-2.513 7.336,-2.281 0.88,0.075 1.228,-0.199 1.272,-1.198 0.035,-0.788 0.456,-1.66 0.955,-2.301 0.609,-0.784 1.547,-0.557 2.294,-0.094 0.959,0.594 1.708,1.397 1.862,2.581 m -5.114,18.45 c 0.369,-0.267 0.649,-0.484 0.942,-0.68 1.074,-0.717 2.073,-1.639 3.251,-2.081 1.185,-0.445 2.546,-0.436 3.836,-0.576 0.763,-0.083 2.099,0.192 2.022,-0.67 -0.137,-1.526 0.924,-1.538 1.7,-1.954 0.968,-0.519 2.689,-0.181 3.055,0.522 0.415,0.795 -0.282,2.131 -1.421,2.718 -0.07,0.037 -0.139,0.092 -0.214,0.104 -1.068,0.189 -1.679,0.792 -1.638,2.294 -0.714,-0.602 -1.127,-1.08 -1.647,-1.354 -0.575,-0.305 -1.278,-0.653 -1.874,-0.576 -1.293,0.166 -2.604,0.463 -3.812,0.945 -1.104,0.441 -2.138,1.122 -3.097,1.839 -0.81,0.605 -0.908,0.136 -1.103,-0.531 m 32.795,39.6 c -0.161,0.486 -0.39,1.071 -1.399,0.802 -0.481,-0.128 -1.032,-0.065 -1.541,-0.004 -2.405,0.287 -4.734,0.729 -6.125,3.077 -0.084,0.142 -0.79,0.153 -0.884,0.012 -0.585,-0.88 -1.078,-1.821 -1.65,-2.828 0.697,-0.616 1.307,-1.324 2.066,-1.79 1.692,-1.037 3.714,-0.535 5.541,-1.008 0.153,-0.04 0.362,0.116 0.54,0.194 1.082,0.482 2.163,0.968 3.452,1.545 M -13.6,-33.713 c -3.889,1.038 -6.934,3.284 -9.741,6.098 -0.168,-1.13 -0.567,-2.436 -0.096,-3.217 1.646,-2.727 4.071,-4.751 6.848,-6.316 0.227,-0.127 0.794,-0.074 0.911,0.096 0.714,1.039 1.344,2.137 2.078,3.339 M 57.758,72.534 c -0.158,1.317 -0.6,1.86 -1.77,1.485 -0.352,-0.114 -0.786,-0.033 -1.171,0.031 -2.312,0.381 -4.219,1.611 -6.013,3.01 -0.582,0.454 -0.911,0.392 -1.242,-0.153 -0.503,-0.826 -0.97,-1.676 -1.55,-2.686 0.509,-0.464 1.221,-0.907 1.651,-1.541 1.221,-1.803 3.22,-1.706 4.982,-2.18 0.242,-0.064 0.674,0.135 0.853,0.35 1.093,1.313 2.462,1.941 4.26,1.684 m -59.485,-93.533 -0.287,0.237 c -0.432,-0.602 -0.835,-1.229 -1.305,-1.801 -0.745,-0.908 -1.601,-1.73 -2.293,-2.674 -1.389,-1.897 -2.674,-3.869 -4.049,-5.776 -1.066,-1.477 -2.353,-2.814 -3.274,-4.372 -1.387,-2.345 -2.525,-4.838 -3.802,-7.25 -0.273,-0.515 -0.522,-1.044 0.162,-1.257 0.316,-0.097 0.953,0.222 1.174,0.539 1.24,1.79 2.552,3.557 3.549,5.481 1.65,3.184 4.54,5.648 5.362,9.302 0.03,0.133 0.216,0.227 0.321,0.346 0.387,0.442 0.852,0.839 1.142,1.337 1.131,1.946 2.205,3.922 3.3,5.888 m 146.597,275.64 c -0.943,0 -1.472,0.092 -1.954,-0.019 -0.978,-0.226 -2.386,-0.284 -2.775,-0.924 -0.478,-0.787 -0.415,-2.226 -0.034,-3.157 1.247,-3.053 4.069,-4.433 6.82,-5.819 0.637,-0.32 1.262,-0.672 1.923,-0.93 1.646,-0.646 3.276,-1.379 4.981,-1.812 0.867,-0.221 1.92,-0.012 2.818,0.251 1.705,0.499 1.924,2.213 0.568,3.371 -0.598,-0.391 -1.135,-0.983 -1.765,-1.107 -1.793,-0.352 -3.647,-0.744 -5.426,0.023 -1.682,0.726 -3.608,1.039 -4.842,2.584 -0.861,1.078 -1.58,2.278 -2.501,3.299 -0.822,0.912 -0.302,1.479 0.267,2.119 0.558,0.628 1.129,1.248 1.92,2.121 M -8.236,-34.691 c 2.44,-0.976 5.126,-1.222 7.845,-1.249 0.25,-0.002 0.648,0.074 0.731,0.238 0.926,1.821 1.802,3.667 2.59,5.296 -2.473,0.319 -4.803,0.654 -7.144,0.883 -0.334,0.033 -0.827,-0.371 -1.059,-0.703 -1.016,-1.447 -1.962,-2.943 -2.963,-4.465 m 95.04,159.275 c -0.476,0.985 -0.788,1.754 -1.219,2.45 -0.143,0.232 -0.6,0.405 -0.899,0.384 -2.701,-0.187 -4.958,0.841 -6.978,2.505 -0.465,0.384 -0.824,0.899 -1.323,1.454 -0.995,-1.826 -1.914,-3.51 -2.876,-5.275 1.578,-1.246 3.257,-2.279 5.276,-2.551 1.115,-0.15 2.537,-0.541 3.328,-0.042 1.449,0.916 2.795,1.523 4.691,1.075 M 10.871,2.367 c 0.115,-0.049 0.232,-0.098 0.347,-0.147 0.099,0.052 0.242,0.08 0.29,0.163 1.385,2.396 2.819,4.766 4.124,7.206 2.116,3.955 4.095,7.984 6.228,11.93 2.055,3.8 4.285,7.506 6.327,11.314 0.712,1.328 1.447,2.266 3.105,2.296 0.834,0.015 1.707,1.442 1.542,2.147 -0.182,0.779 -1.686,1.697 -2.6,1.532 C 29.037,38.59 29.195,37.654 29.132,36.765 29.1,36.299 28.752,35.833 28.477,35.413 28.252,35.07 27.87,34.83 27.653,34.483 27.276,33.883 26.997,33.221 26.634,32.61 25.705,31.044 24.692,29.524 23.824,27.925 23.013,26.43 22.382,24.838 21.604,23.323 20.16,20.508 18.692,17.703 17.182,14.922 16.467,13.605 15.542,12.399 14.867,11.065 13.713,8.783 12.675,6.441 11.6,4.12 11.334,3.546 11.112,2.952 10.871,2.367 m 152.822,278.136 c -0.109,-0.153 -0.322,-0.407 -0.485,-0.69 -1.049,-1.837 -2.091,-3.679 -3.13,-5.523 -0.796,-1.413 -1.304,-2.845 -0.687,-4.505 0.667,-1.794 1.854,-2.214 3.243,-0.905 0.853,0.803 1.453,1.869 2.222,2.769 0.28,0.327 0.716,0.525 1.091,0.765 0.15,0.096 0.413,0.096 0.486,0.221 0.837,1.423 1.648,2.861 2.51,4.374 -0.981,0.509 -1.94,0.912 -2.792,1.476 -0.834,0.552 -1.56,1.269 -2.458,2.018 M -25.012,-25.252 c 0.088,0.026 0.175,0.054 0.263,0.081 -0.378,1.01 -0.713,2.04 -1.154,3.022 -0.223,0.497 -0.639,0.907 -0.969,1.356 -0.47,-0.429 -1.059,-0.783 -1.385,-1.303 -0.64,-1.021 -1.128,-2.138 -1.692,-3.209 -0.516,-0.98 -0.932,-1.962 -0.333,-3.061 0.845,-1.553 1.675,-3.114 2.542,-4.655 0.17,-0.3 0.467,-0.539 0.731,-0.776 1.803,-1.617 3.576,-3.27 5.433,-4.821 1.032,-0.861 2.159,-1.709 3.611,-1.644 0.422,0.019 0.828,0.4 1.241,0.615 -0.233,0.354 -0.402,0.785 -0.714,1.046 -0.451,0.378 -1.039,0.588 -1.508,0.949 -1.347,1.033 -2.751,2.015 -3.969,3.188 -1.31,1.263 -2.615,2.609 -2.397,4.716 0.154,1.493 0.204,2.997 0.3,4.496 M 4.714,36.006 c -1.037,-2.116 0.254,-3.042 1.237,-4.125 0.827,-0.913 1.624,-1.857 2.381,-2.828 1.069,-1.376 2.065,-2.809 3.155,-4.168 0.167,-0.208 0.867,-0.323 0.978,-0.191 0.897,1.057 0.526,2.472 -0.783,2.994 -1.161,0.465 -1.821,1.288 -1.906,2.498 C 9.634,32.21 9.231,34.1 8.481,36.047 7.275,39.175 5.538,42.284 6.195,45.893 6.213,45.992 5.54,46.347 5.507,46.309 4.477,45.111 3.242,44.002 2.55,42.623 1.616,40.763 2.015,38.747 2.849,36.859 3.139,36.203 3.014,35.041 4.714,36.006 M 26.567,7.419 C 25.685,7.511 24.765,7.402 24.045,7.731 23.163,8.136 22.951,7.651 22.708,7.107 22.15,5.853 21.671,4.562 21.089,3.318 20.988,3.103 20.525,2.935 20.257,2.968 20.101,2.986 19.82,3.534 19.899,3.697 c 0.91,1.889 1.737,3.838 2.86,5.597 2.181,3.419 4.651,6.657 6.759,10.119 0.711,1.167 1.425,1.563 2.657,1.708 2.144,0.253 2.743,0.787 2.962,2.191 0.401,2.57 -1.389,3.881 -3.711,3.736 -2.189,-0.138 -3.098,-1.524 -2.731,-3.637 0.242,-1.395 0.383,-2.748 -0.718,-4.022 -1.042,-1.207 -1.825,-2.647 -2.664,-4.02 C 23.46,12.339 21.64,9.289 19.815,6.242 19.198,5.211 18.606,4.164 17.954,3.041 c 1.307,-0.411 2.442,-0.77 3.58,-1.124 0.869,-0.271 1.418,0.078 1.874,0.84 0.424,0.709 0.863,1.646 1.529,1.922 1.245,0.516 1.325,1.494 1.63,2.74 m 91.237,158.915 c -0.463,0.63 -0.812,1.454 -1.434,1.861 -0.69,0.451 -1.559,0.341 -2.273,-0.344 -1.66,-1.592 -3.191,-3.299 -4.184,-5.374 -0.968,-2.025 -1.788,-4.127 -2.56,-6.236 -0.335,-0.913 0.65,-2.173 1.572,-2.467 1.609,-0.513 2.767,0.151 3.609,1.389 1.186,1.745 2.405,3.502 3.309,5.397 0.833,1.745 1.27,3.679 1.961,5.774 M 88.391,153.683 c -0.073,0.079 -0.145,0.158 -0.218,0.237 -0.281,-0.233 -0.633,-0.418 -0.831,-0.708 -1.004,-1.476 -1.933,-3.004 -2.955,-4.467 -1.449,-2.075 -3.102,-4.021 -4.406,-6.181 -2.529,-4.187 -4.86,-8.494 -7.309,-12.731 -0.758,-1.312 -1.631,-2.558 -2.452,-3.834 -1.738,-2.704 -3.477,-5.407 -5.214,-8.112 -0.104,-0.162 -0.183,-0.34 -0.282,-0.506 -1.12,-1.874 -2.21,-3.766 -3.376,-5.611 -0.485,-0.767 -1.191,-1.392 -1.688,-2.152 -0.961,-1.472 -1.97,-2.823 -3.574,-3.72 -1.983,-1.109 -2.354,-3.344 -0.688,-4.62 0.858,-0.657 2.19,-0.817 3.332,-0.918 0.412,-0.036 1.139,0.682 1.297,1.189 0.319,1.022 0.259,2.057 -0.511,3.033 -0.377,0.478 -0.573,1.416 -0.369,1.967 0.452,1.222 1.109,2.4 1.857,3.473 2.452,3.519 5.05,6.936 7.456,10.483 1.473,2.172 2.713,4.503 4.03,6.778 1.576,2.721 3.097,5.474 4.687,8.186 1.751,2.987 3.533,5.954 5.341,8.906 1.114,1.82 2.31,3.591 3.452,5.395 0.821,1.295 1.614,2.608 2.421,3.913 m 28.91,16.151 c 0.562,0.219 1.155,0.261 1.3,0.539 0.816,1.547 1.412,3.217 2.294,4.721 1.348,2.299 2.888,4.485 4.308,6.742 1.922,3.056 3.856,6.106 5.687,9.217 0.688,1.168 1.124,2.489 1.631,3.758 0.224,0.562 0.449,0.934 1.167,0.951 0.706,0.018 1.42,0.216 2.106,0.417 1.207,0.354 2.789,2.001 2.747,2.9 -0.089,1.83 -0.599,3.399 -2.328,4.466 -1.356,0.838 -2.626,0.895 -3.939,0.183 -1.207,-0.656 -2.092,-1.65 -2.066,-3.118 0.015,-0.901 0.17,-1.817 0.39,-2.694 0.386,-1.541 0.592,-3.176 -0.099,-4.549 -1.301,-2.583 -2.875,-5.032 -4.402,-7.494 -1.778,-2.869 -3.622,-5.696 -5.448,-8.534 -1.417,-2.201 -2.816,-4.408 -3.348,-7.505 M 11.692,-0.665 c 0.006,-0.113 0.012,-0.226 0.018,-0.339 1.02,-0.583 1.994,-1.277 3.07,-1.726 2.56,-1.07 5.166,-2.03 7.759,-3.02 1.343,-0.514 2.69,-0.185 3.445,0.873 0.855,1.195 1.796,2.356 2.454,3.657 0.653,1.288 1.228,2.699 1.422,4.115 0.209,1.526 -0.718,2.089 -2.156,1.564 C 26.41,3.986 25.301,3.289 24.68,1.942 24.177,0.854 23.354,0.15 22.014,0.475 20.662,0.802 19.313,1.146 17.951,1.418 17.581,1.492 17.165,1.331 16.77,1.277 L 16.8,0.894 c 0.175,-0.071 0.344,-0.169 0.526,-0.208 1.052,-0.228 2.12,-0.399 3.155,-0.687 0.297,-0.082 0.503,-0.489 0.75,-0.748 -0.311,-0.145 -0.618,-0.403 -0.933,-0.412 -0.634,-0.017 -1.282,0.048 -1.906,0.174 -1.62,0.327 -3.291,0.574 -4.491,2.198 0.568,0.317 1.086,0.606 1.523,0.851 -0.118,0.662 -0.244,1.359 -0.369,2.057 l 0.46,-0.252 c 0.531,0.193 1.24,0.237 1.554,0.611 0.602,0.717 0.9,1.682 1.467,2.437 1.08,1.442 0.761,2.644 -0.552,3.896 -2.216,-3.283 -3.622,-6.922 -5.406,-10.74 2.425,-0.682 4.676,-1.299 6.913,-1.964 0.377,-0.111 0.69,-0.435 1.032,-0.662 -0.379,-0.24 -0.786,-0.72 -1.133,-0.68 -2.481,0.285 -4.873,0.864 -6.852,2.55 -0.166,0.143 -0.559,0.02 -0.846,0.02 m -34.65,-13.226 c -0.653,-1.284 -1.213,-2.41 -1.794,-3.524 -0.502,-0.964 -0.817,-1.876 0.104,-2.821 0.273,-0.282 0.332,-0.794 0.436,-1.214 0.262,-1.068 0.249,-2.295 0.797,-3.177 0.769,-1.235 1.918,-2.242 2.958,-3.295 0.834,-0.844 1.646,-1.78 2.649,-2.366 1.289,-0.753 2.745,-1.231 4.158,-1.751 0.358,-0.132 1.006,-0.148 1.204,0.071 1.158,1.281 2.221,2.645 3.398,4.081 -7.08,2.242 -10.711,7.716 -13.91,13.996 m 90.046,89.318 c 1.202,0.659 2.405,0.974 3.075,1.751 1.947,2.259 3.677,4.704 5.498,7.072 1.769,2.303 3.544,4.601 5.316,6.9 1.375,1.785 1.254,2.555 -0.607,3.847 -0.033,0.023 -0.065,0.047 -0.098,0.069 C 79.458,95.608 78.693,95.628 78.058,94.8 75.814,91.87 73.559,88.948 71.356,85.987 70.289,84.553 69.364,83.013 68.308,81.568 67.632,80.646 66.713,80.079 65.501,80 64.637,79.943 63.745,79.825 62.942,79.526 62.621,79.407 62.283,78.39 62.331,78.358 63.876,77.344 65.469,76.4 67.088,75.427 M 17.357,33.098 c -1.978,0.147 -3.663,2.13 -3.421,3.96 0.082,0.621 0.254,1.239 0.453,1.836 0.255,0.769 0.243,1.388 -0.326,2.091 -1.424,1.758 -2.524,3.58 -1.682,6.086 0.475,1.41 1.007,2.682 2.206,3.536 1.359,0.97 2.818,1.799 4.212,2.722 0.731,0.484 0.651,0.949 -0.161,1.263 -0.296,0.114 -0.61,0.203 -0.924,0.244 -2.571,0.343 -4.674,-0.675 -6.519,-2.334 -2.778,-2.498 -4.281,-5.536 -3.6,-9.347 0.235,-1.316 0.823,-2.566 1.113,-3.876 0.736,-3.336 2.901,-5.509 5.701,-7.165 1.848,-1.092 1.873,-1.05 2.948,0.984 m 52.815,53.648 c -1.656,0 -3.026,0.009 -4.396,-0.002 -3.013,-0.024 -5.942,0.37 -8.702,1.665 -1.416,0.664 -1.668,0.534 -2.511,-0.739 -1.068,-1.612 -2.199,-3.187 -3.363,-4.732 -0.856,-1.135 -0.913,-1.959 0.351,-2.519 1.796,-0.796 3.745,-1.248 5.634,-1.829 0.128,-0.039 0.316,0.044 0.451,0.116 1.46,0.781 2.874,1.666 4.386,2.325 1.039,0.453 2.203,0.764 3.328,0.823 0.81,0.042 1.393,0.226 1.845,0.827 0.952,1.263 1.872,2.55 2.977,4.065 M -4.843,-22.299 c -0.607,0.24 -1.182,0.468 -1.757,0.697 -0.292,0.118 -0.659,0.165 -0.862,0.371 -1.992,2.031 -4.026,4.029 -5.909,6.16 -1.52,1.72 -1.461,3.389 -0.351,5.401 1.019,1.851 1.873,3.722 0.849,5.979 -0.54,1.187 -0.616,2.599 -0.817,3.922 -0.196,1.291 -0.839,1.627 -1.936,0.891 -0.329,-0.221 -0.623,-0.5 -0.902,-0.782 -2.932,-2.962 -3.3,-6.604 -2.76,-10.481 0.065,-0.466 0.049,-0.982 0.251,-1.384 1.714,-3.411 3.394,-6.841 6.854,-8.935 1.475,-0.893 2.774,-2.102 4.299,-2.881 1.654,-0.845 1.728,-0.699 3.041,1.042 m 64.992,88.708 c 0.344,0.126 0.761,0.17 1.018,0.396 0.746,0.654 1.449,1.362 2.132,2.085 1.572,1.661 3.287,3.179 5.493,3.856 2.126,0.652 4.354,1.035 6.592,0.698 1.804,-0.272 2.846,0.759 3.795,1.962 3.984,5.051 7.2,10.57 9.957,16.372 0.462,0.974 0.46,1.881 -0.355,2.466 -0.864,0.619 -2.002,1.4 -2.905,1.274 -0.989,-0.138 -2.031,-1.03 -2.263,-2.367 -0.082,-0.473 -0.41,-0.934 -0.716,-1.33 -0.487,-0.633 -1.11,-1.165 -1.566,-1.816 -0.542,-0.775 -0.919,-1.665 -1.455,-2.445 -1.427,-2.081 -3.611,-3.581 -4.624,-5.989 -0.074,-0.177 -0.224,-0.326 -0.353,-0.477 -0.801,-0.94 -1.716,-1.806 -2.384,-2.832 -1,-1.536 -2.101,-2.961 -3.79,-3.705 -0.769,-0.34 -1.737,-0.396 -2.592,-0.322 -0.782,0.068 -1.295,-0.007 -1.381,-0.838 -0.104,-1.009 -0.754,-1.473 -1.611,-1.681 -1.07,-0.259 -2.165,-0.417 -3.352,-0.638 0.967,-1.391 0.987,-2.893 0.36,-4.669 m -1.931,-2.37 c -0.385,0.018 -0.563,0.082 -0.677,0.024 -1.467,-0.76 -2.829,-0.196 -4.124,0.417 -0.461,0.218 -1.058,0.888 -1.018,1.293 0.154,1.53 -0.891,1.381 -1.751,1.388 -2.111,0.019 -3.964,0.542 -5.52,2.09 -1.417,1.41 -1.847,1.322 -2.935,-0.206 -1.449,-2.035 -1.449,-2.035 0.471,-3.647 1.97,-1.654 4.84,-1.923 7.122,-0.924 0.785,0.342 1.941,0.418 2.715,0.1 2.634,-1.081 3.123,-3.032 2.001,-5.567 -0.698,-1.576 -2.139,-2.598 -3.88,-2.875 -1.599,-0.254 -2.642,0.68 -3.168,2.85 -0.204,0.844 -0.591,1.03 -1.305,0.991 -2.594,-0.142 -4.673,1.007 -6.558,2.63 -1.031,0.887 -1.403,0.786 -1.904,-0.528 -0.113,-0.295 -0.29,-0.569 -0.455,-0.842 -1.226,-2.032 -2.456,-4.062 -3.703,-6.122 0.183,-0.256 0.397,-0.493 0.541,-0.766 0.834,-1.587 2.205,-2.462 3.87,-2.949 1.56,-0.457 3.101,-0.732 4.49,0.484 0.171,0.149 0.43,0.211 0.658,0.279 1.766,0.53 3.827,-0.859 3.904,-2.671 0.051,-1.199 0.01,-2.402 0.01,-3.705 3.704,6.03 7.397,12.039 11.216,18.256 m 16.034,28.197 c -0.375,0.121 -0.627,0.28 -0.875,0.272 -2.176,-0.07 -4.36,-0.071 -6.524,-0.281 -4.982,-0.483 -9.305,1.334 -13.478,3.701 -3.03,1.72 -4.96,4.498 -6.876,7.287 -0.149,0.217 -0.817,0.37 -0.976,0.236 -0.678,-0.573 -0.75,-2.071 -0.227,-2.839 0.787,-1.155 1.481,-2.397 2.407,-3.43 0.987,-1.101 2.137,-2.086 3.331,-2.967 1.038,-0.767 1.884,-2.472 1.349,-3.234 -1.139,-1.622 -2.327,-3.211 -3.429,-4.859 -1.344,-2.009 -2.653,-4.043 -3.917,-6.102 -1.128,-1.836 -2.159,-3.733 -3.262,-5.585 -1.267,-2.126 -2.55,-4.245 -3.857,-6.347 -1.688,-2.718 -3.45,-5.391 -5.1,-8.131 -1.622,-2.693 -3.176,-5.429 -4.691,-8.185 -0.571,-1.039 -1.177,-1.898 -2.362,-2.334 -0.649,-0.24 -1.41,-0.696 -1.709,-1.268 -0.852,-1.634 0.288,-3.559 2.33,-4.199 1.271,-0.4 2.164,0.092 2.309,1.415 0.064,0.583 -0.222,1.198 -0.308,1.804 -0.091,0.639 -0.315,1.335 -0.154,1.915 0.25,0.903 0.701,1.777 1.202,2.578 1.769,2.831 3.599,5.624 5.4,8.435 2.234,3.484 4.444,6.983 6.699,10.453 1.948,2.999 3.959,5.957 5.915,8.952 2.284,3.498 4.533,7.021 6.819,10.519 0.136,0.208 0.461,0.431 0.687,0.42 0.933,-0.043 2.018,0.102 2.767,-0.319 3.477,-1.957 7.203,-2.13 11.011,-1.801 1.009,0.087 2.174,0.262 2.935,0.837 1.006,0.76 1.686,1.953 2.584,3.057 m 83.995,181.555 c -1.216,-1.552 -2.508,-2.889 -3.434,-4.444 -2.325,-3.908 -4.48,-7.917 -6.714,-11.879 -1.031,-1.831 -1.98,-3.722 -3.169,-5.447 -0.863,-1.253 -0.372,-2.096 0.512,-2.791 1.17,-0.92 2.424,-1.791 3.765,-2.422 1.1,-0.518 2.372,-0.693 3.583,-0.95 0.778,-0.165 1.063,0.375 1.367,1.023 0.977,2.09 1.93,4.207 3.106,6.187 2.149,3.617 4.528,7.097 6.653,10.726 0.941,1.608 1.631,3.404 1.639,5.614 -0.51,-0.238 -0.942,-0.328 -1.207,-0.588 -0.475,-0.468 -0.87,-1.024 -1.262,-1.57 -0.609,-0.847 -2.002,-1.264 -2.963,-0.913 -1.354,0.493 -2.137,1.481 -2.177,2.862 -0.04,1.429 0.176,2.865 0.301,4.592 m 6.667,8.485 c 1.056,-1.618 2.72,-2.722 4.697,-3.361 0.281,-0.091 0.808,0.125 1.025,0.372 1.023,1.164 1.964,2.4 2.961,3.588 0.484,0.577 1.027,1.104 1.471,1.576 -1.092,0.332 -2.224,0.568 -3.252,1.033 -0.537,0.244 -1.117,0.824 -1.275,1.369 -0.219,0.756 0.681,1.027 1.643,0.681 1.6,-0.576 3.235,-1.055 4.873,-1.515 0.29,-0.082 0.818,0.005 0.971,0.21 1.742,2.356 3.544,4.679 5.099,7.156 1.074,1.707 0.606,3.8 0.868,5.713 0.24,1.756 0.112,3.054 -1.48,4.152 -0.951,0.658 -1.722,1.255 -2.901,0.732 -0.679,-0.3 -1.369,-0.586 -2.075,-0.812 -2.385,-0.76 -3.953,-2.62 -5.573,-4.318 -1.038,-1.089 -1.788,-2.501 -2.469,-3.868 -0.722,-1.448 -1.573,-2.978 -1.722,-4.534 -0.287,-2.98 -1.868,-5.377 -2.861,-8.174 M 2.894,32.823 C -2.587,22.875 -8.641,13.602 -12.64,3.275 c 0.201,-0.514 0.662,-1.115 0.608,-1.663 -0.215,-2.146 0.547,-4.068 1.097,-6.058 0.406,-1.469 0.548,-2.84 -0.793,-4.164 -1.63,-1.611 -1.501,-3.911 -0.066,-5.708 0.347,-0.435 0.712,-0.86 1.01,-1.328 1.486,-2.328 3.624,-3.874 6.08,-4.999 0.294,-0.134 1.011,0.126 1.22,0.424 1.028,1.462 2.003,2.969 2.901,4.516 1.655,2.851 3.264,5.731 4.844,8.627 0.326,0.598 0.807,1.684 0.582,1.907 -0.855,0.851 -1.969,1.439 -3.163,2.243 0,-0.51 -0.032,-0.705 0.005,-0.885 0.586,-2.929 -1.185,-4.682 -3.982,-3.933 -0.594,0.159 -2.184,2.328 -2.206,3.028 -0.035,1.186 0.284,2.297 1.295,2.942 1.223,0.778 2.04,1.822 2.627,3.096 0.264,0.574 0.458,1.184 0.769,1.729 1.826,3.202 3.69,6.384 5.515,9.587 0.708,1.242 1.327,2.535 2.025,3.785 1.218,2.183 2.466,4.351 3.601,6.349 -1.667,2.043 -3.215,3.975 -4.801,5.876 -1.089,1.305 -2.229,2.567 -3.634,4.177 m 155.08,207.649 c -2.75,0.04 -5.278,-0.616 -7.776,0.639 -3.165,1.591 -6.699,2.503 -9.318,5.068 -1.817,1.78 -3.319,3.743 -2.632,6.549 -0.091,0.039 -0.167,0.104 -0.232,0.094 -0.154,-0.024 -0.322,-0.051 -0.451,-0.132 -3.133,-1.956 -5.037,-4.969 -6.266,-8.256 -0.821,-2.197 -0.74,-4.726 -1.125,-7.096 -0.055,-0.34 -0.457,-0.625 -0.698,-0.935 -0.229,0.282 -0.552,0.531 -0.664,0.854 -0.11,0.317 -0.014,0.708 0.004,1.066 0.041,0.835 0.09,1.67 0.152,2.806 -1.077,-0.785 -1.878,-1.295 -2.593,-1.904 -1.774,-1.509 -3.152,-3.287 -2.615,-5.78 0.296,-1.369 0.894,-2.688 1.47,-3.978 1.071,-2.401 2.726,-4.472 4.812,-5.949 2.647,-1.876 5.577,-3.367 8.444,-4.914 2.655,-1.432 5.46,-2.189 8.533,-1.485 1.526,0.35 2.779,1.058 3.188,2.562 0.631,2.323 1.027,4.71 1.517,7.045 -1.378,0.738 -2.434,-1.339 -4.086,-0.143 0.824,0.5 1.423,0.901 2.056,1.237 1.078,0.571 2.392,0.882 3.221,1.697 1.4,1.376 2.682,2.951 3.676,4.641 1.109,1.885 1.453,4.066 1.383,6.314 M 18.342,56.776 c 0.667,-0.338 1.162,-0.445 1.418,-0.751 0.508,-0.61 1.206,-1.317 1.235,-2.007 0.035,-0.875 -0.531,-1.753 -1.696,-1.801 -0.135,-0.005 -0.271,-0.142 -0.395,-0.234 -0.886,-0.66 -1.702,-1.453 -2.668,-1.962 -2.933,-1.552 -3.699,-4.627 -1.394,-7.25 1.348,-1.532 1.415,-3.01 0.804,-4.828 -0.295,-0.88 -0.311,-1.995 -0.037,-2.875 0.175,-0.56 1.08,-0.953 1.735,-1.255 0.128,-0.058 0.642,0.632 0.92,1.019 0.325,0.452 0.674,0.92 0.853,1.436 0.181,0.521 0.347,1.164 0.202,1.66 -0.37,1.268 -0.186,2.799 0.617,3.551 0.847,0.793 3.102,1.143 4.088,0.634 0.913,-0.47 1.894,-2.333 1.768,-3.354 C 25.606,37.238 24.557,35.95 23.287,35.583 22.813,35.446 22.221,35.278 21.964,34.922 21.18,33.832 20.51,32.657 19.835,31.492 17.455,27.388 15.113,23.261 12.713,19.168 11.167,16.532 9.48,13.978 7.975,11.319 6.453,8.632 5.065,5.868 3.641,3.127 2.951,1.8 3.102,1.3 4.409,0.466 5.011,0.081 5.651,-0.246 6.278,-0.592 c 0.679,-0.374 1.196,-0.282 1.556,0.478 0.428,0.898 0.91,1.771 1.368,2.655 1.458,2.817 2.906,5.64 4.376,8.45 0.79,1.51 1.637,2.99 2.422,4.503 2.145,4.138 4.251,8.296 6.414,12.425 1.088,2.08 2.292,4.1 3.39,6.174 0.446,0.844 0.381,2.023 1.67,2.263 0.097,0.019 0.21,0.494 0.153,0.715 -0.386,1.523 1.172,3.153 3.089,3.37 1.831,0.207 3.686,-1.893 3.741,-3.178 0.072,-1.688 -1.009,-3.097 -3.028,-3.641 -1.21,-0.327 -1.89,-1.098 -2.436,-2.105 -2.04,-3.768 -4.093,-7.531 -6.115,-11.309 -1.207,-2.257 -2.365,-4.54 -3.546,-6.812 1.613,-0.943 2.364,-0.867 3.196,0.437 1.538,2.411 3.063,4.832 4.525,7.289 0.243,0.409 0.297,1.067 0.168,1.537 -0.637,2.325 0.454,4.618 2.794,5.681 2.063,0.936 4.825,0.117 5.947,-1.758 0.149,-0.248 0.341,-0.472 0.67,-0.924 3.377,6.509 6.639,12.799 9.902,19.089 -0.453,-0.039 -0.761,-0.171 -0.971,-0.394 -1.804,-1.919 -5.699,-0.519 -6.017,2.156 -0.031,0.262 -0.549,0.541 -0.895,0.679 -0.935,0.375 -2.003,0.516 -2.828,1.046 -1.558,1.001 -2.982,2.21 -4.463,3.334 -1.479,-1.418 -2.407,-2.893 -1.137,-5.038 0.694,-1.172 -0.789,-3.773 -2.12,-4.095 -1.094,-0.265 -4.438,0.896 -5.023,1.846 -1.474,2.39 -1.448,5.529 1.939,6.695 1.137,0.39 1.792,1.066 2.084,2.214 0.122,0.481 0.416,0.929 0.685,1.359 3.29,5.252 6.621,10.478 9.877,15.752 2.026,3.281 3.891,6.66 5.921,9.938 2.238,3.615 4.557,7.182 6.899,10.73 0.489,0.74 0.058,1.128 -0.389,1.344 -2.423,1.165 -3.795,3.331 -5.281,5.391 -0.512,0.711 -1.062,0.71 -1.548,0.067 -0.398,-0.527 -0.641,-1.169 -0.981,-1.743 -2.08,-3.511 -4.173,-7.015 -6.253,-10.527 -1.479,-2.498 -3.046,-4.95 -4.394,-7.517 -2.028,-3.862 -4.063,-7.701 -6.717,-11.189 -1.613,-2.12 -3.109,-4.332 -4.593,-6.546 -0.722,-1.078 -1.297,-2.255 -1.987,-3.473 M 119.609,210.46 c 0.734,0.54 1.255,0.929 1.78,1.308 0.83,0.599 1.908,1.053 1.979,2.227 0.047,0.767 0.005,1.771 -0.443,2.273 -0.465,0.522 -1.559,0.924 -2.211,0.751 -1.407,-0.374 -2.344,-1.415 -2.453,-3.02 -0.235,-3.486 -0.95,-6.831 -3.017,-9.754 -1.238,-1.751 -2.543,-3.459 -3.693,-5.266 -1.127,-1.772 -2.027,-3.688 -3.148,-5.463 -1.692,-2.677 -3.477,-5.294 -5.246,-7.92 -0.615,-0.911 -1.359,-1.738 -1.942,-2.666 -1.511,-2.408 -2.965,-4.852 -4.446,-7.279 -0.93,-1.523 -2.065,-2.959 -2.737,-4.587 -0.489,-1.184 -1.184,-1.896 -2.287,-2.118 -1.445,-0.291 -2.936,-0.457 -4.409,-0.476 -2.192,-0.029 -4.507,-3.606 -3.985,-5.485 0.149,-0.538 0.167,-1.251 -0.066,-1.734 -0.873,-1.807 -1.775,-3.616 -2.855,-5.302 -1.175,-1.834 -2.576,-3.521 -3.85,-5.292 -1.933,-2.686 -3.827,-5.399 -5.764,-8.082 -0.897,-1.243 -2.233,-1.953 -3.425,-2.86 -1.485,-1.129 -2.709,-2.733 -3.714,-4.339 -2.149,-3.437 -4.029,-7.041 -6.139,-10.504 -0.649,-1.065 -0.348,-1.565 0.532,-2.088 0.189,-0.113 0.443,-0.245 0.505,-0.424 0.42,-1.216 1.355,-1.623 2.43,-0.873 0.841,0.587 1.717,1.252 2.283,2.083 2.371,3.478 4.723,6.976 6.883,10.585 0.803,1.343 1.3,2.981 1.491,4.54 0.153,1.242 0.165,2.446 0.91,3.5 1.564,2.212 3.182,4.387 4.699,6.63 1.961,2.899 3.824,5.864 5.781,8.766 0.368,0.545 0.982,0.923 1.491,1.386 0.803,-1.253 0.289,-1.981 -0.313,-2.699 -0.227,-0.272 -0.425,-0.569 -0.624,-0.863 -1.815,-2.68 -3.595,-5.386 -5.455,-8.035 -1.157,-1.647 -2.527,-3.148 -3.619,-4.834 -0.571,-0.882 -0.803,-2.005 -1.086,-3.047 -0.459,-1.682 -0.491,-3.578 -1.311,-5.045 -2.064,-3.695 -4.385,-7.258 -6.779,-10.753 -0.877,-1.282 -2.271,-2.206 -3.39,-3.331 -0.708,-0.712 -1.506,-0.86 -2.386,-0.501 -0.544,0.222 -1.058,0.54 -1.543,0.875 -0.533,0.367 -0.885,0.366 -1.271,-0.23 -1.444,-2.236 -2.99,-4.409 -4.387,-6.673 -1.516,-2.457 -2.934,-4.977 -4.329,-7.505 -0.221,-0.4 -0.303,-1.099 -0.103,-1.474 1.324,-2.477 2.982,-4.709 5.237,-6.436 1.884,-1.443 4.049,-2.321 6.217,-3.247 3.327,-1.421 6.836,-1.341 10.294,-1.461 1.911,-0.067 3.903,0.379 5.747,0.95 1.024,0.317 2.14,1.188 2.661,2.119 1.469,2.621 2.568,5.447 3.968,8.111 1.94,3.693 3.985,7.332 6.057,10.954 1.307,2.283 2.844,4.436 4.103,6.743 2.722,4.987 5.337,10.033 7.979,15.063 0.384,0.732 0.683,1.509 1.035,2.298 -1.582,-0.519 -2.994,-0.983 -4.231,-1.389 0.215,-0.506 0.689,-1.127 0.707,-1.762 0.059,-1.971 -0.882,-3.616 -2.234,-4.944 -0.478,-0.47 -1.423,-0.779 -2.088,-0.686 -2.351,0.332 -3.889,3.158 -3.095,5.427 0.843,2.408 1.887,3.157 4.621,3.317 0.501,1.847 -0.237,2.72 -2.092,2.322 -2.545,-0.546 -4.744,0.246 -6.754,1.663 -1.54,1.084 -1.816,1.1 -2.818,-0.496 -0.063,-0.101 -0.093,-0.222 -0.153,-0.325 -1.584,-2.702 -3.169,-5.402 -4.752,-8.1 0.299,-0.336 0.563,-0.746 0.929,-1.022 1.097,-0.826 2.139,-1.835 3.38,-2.338 1.872,-0.76 3.881,-0.715 5.879,-0.159 0.689,0.192 1.552,0.202 2.213,-0.04 1.778,-0.648 2.737,-2.562 2.353,-4.337 -0.428,-1.978 -2.037,-3.298 -4,-3.284 -0.402,0.003 -0.802,0.001 -1.349,0.001 0.426,-0.538 0.711,-0.863 0.956,-1.215 0.617,-0.887 1.135,-2.013 0.439,-2.865 -1.355,-1.656 -2.14,-4.237 -5.148,-3.686 0.079,-0.546 0.125,-0.975 0.206,-1.396 0.34,-1.755 0.042,-3.238 -1.457,-4.446 -1.585,-1.279 -4.277,-0.838 -4.912,0.416 -0.341,0.674 -0.671,1.362 -1.091,1.986 -0.674,1.002 -1.504,0.184 -2.271,0.124 -0.193,-0.015 -0.404,0.02 -0.59,0.083 -2.023,0.687 -3.862,1.719 -5.532,3.043 -0.86,0.683 -1.141,0.594 -1.641,-0.447 -0.428,-0.891 -0.806,-1.902 -1.496,-2.554 -1.765,-1.67 -3.147,-3.558 -4.007,-5.816 -0.16,-0.419 -0.213,-1.02 -0.031,-1.403 0.589,-1.243 0.542,-2.514 0.501,-3.83 -0.046,-1.488 -0.985,-2.473 -2.134,-2.734 -1.423,-0.322 -2.986,-0.034 -4.488,0.007 -0.092,0.002 -0.202,0.128 -0.268,0.221 -0.569,0.815 -1.249,1.581 -1.671,2.468 -0.912,1.919 0.551,4.7 2.753,5.832 0.446,0.23 0.915,0.522 1.215,0.908 1.364,1.757 2.739,3.512 3.985,5.353 1.939,2.868 3.809,5.784 5.647,8.72 1.644,2.626 3.209,5.302 4.799,7.963 2.858,4.781 5.694,9.576 8.569,14.347 1.109,1.841 2.283,3.643 3.456,5.444 1.122,1.723 2.282,3.423 3.271,4.902 -0.341,0.715 -0.737,1.183 -0.769,1.674 -0.128,1.975 2.406,4.766 4.695,4.178 0.373,-0.096 0.987,0.204 1.29,0.515 0.428,0.443 0.688,1.056 0.993,1.612 1.746,3.193 3.43,6.42 5.239,9.577 1.86,3.245 3.859,6.41 5.758,9.633 1.931,3.28 3.757,6.623 5.734,9.874 1.652,2.717 3.489,5.319 5.182,8.012 1.729,2.751 3.338,5.579 5.097,8.311 0.466,0.724 0.561,1.182 -0.431,1.845 m -11.634,-58.208 c -1.213,0.513 -1.895,1.329 -1.909,2.51 -0.01,0.863 0.089,1.758 0.32,2.588 0.967,3.465 2.2,6.772 4.741,9.504 1.27,1.366 2.465,2.681 4.244,3.363 0.309,0.119 0.59,0.483 0.746,0.802 0.941,1.936 1.604,4.054 2.804,5.809 3.176,4.645 6.009,9.48 8.741,14.389 1.237,2.223 2.072,4.385 1.19,6.998 -1.22,3.616 1.754,7.645 6.01,7.969 0.291,0.022 0.614,-0.118 0.892,-0.247 1.53,-0.714 1.81,-0.559 2.687,0.877 1.054,1.724 2.261,3.353 3.374,5.041 0.73,1.11 1.412,2.252 2.057,3.285 -1.502,0.341 -2.933,0.494 -4.225,1.001 -1.799,0.705 -3.491,1.682 -5.234,2.53 -1.037,0.503 -2.165,0.861 -3.105,1.501 -1.246,0.849 -2.321,1.945 -3.519,2.87 -1.912,1.478 -3.306,3.344 -4.359,5.495 -0.215,0.438 -0.502,0.839 -0.826,1.375 -0.547,-0.693 -0.995,-1.196 -1.371,-1.748 -1.49,-2.191 -2.983,-4.381 -4.428,-6.603 -1.072,-1.65 -2.073,-3.347 -3.101,-5.026 -0.454,-0.74 -0.906,-1.481 -1.338,-2.234 -1.084,-1.887 -2.14,-3.79 -3.239,-5.669 -1.002,-1.714 -2.057,-3.398 -3.07,-5.106 -1.011,-1.705 -1.994,-3.425 -2.997,-5.134 -0.964,-1.64 -1.946,-3.269 -2.906,-4.912 -0.537,-0.918 -1.145,-1.813 -1.542,-2.79 -0.62,-1.522 -2.004,-2.492 -2.568,-4.117 -0.705,-2.036 -1.882,-3.915 -2.919,-5.828 -1.231,-2.276 -2.548,-4.505 -3.791,-6.774 -0.595,-1.088 -1.104,-2.223 -1.713,-3.461 0.996,-0.141 1.732,-0.303 2.475,-0.339 1.921,-0.09 2.812,0.548 3.531,2.356 0.206,0.515 0.508,0.997 0.806,1.469 2.213,3.497 4.466,6.969 6.65,10.485 3.066,4.939 6.053,9.929 9.137,14.857 1.182,1.888 2.569,3.647 3.809,5.5 1.763,2.631 2.428,5.622 2.649,8.721 0.138,1.907 1.08,3.318 2.52,4.432 1.873,1.448 5.147,0.551 5.611,-1.519 0.34,-1.516 0.05,-2.97 -0.871,-4.202 -0.71,-0.949 -1.413,-1.807 -1.939,-2.948 -1.295,-2.808 -2.968,-5.453 -4.611,-8.088 -1.941,-3.115 -4.03,-6.137 -6.018,-9.223 -2.371,-3.681 -4.547,-7.475 -6.629,-11.329 -1.033,-1.912 -2.303,-3.697 -3.473,-5.536 -0.822,-1.291 -1.701,-2.548 -2.466,-3.872 -0.389,-0.673 -0.487,-1.518 -0.886,-2.183 -1.42,-2.361 -2.951,-4.654 -4.361,-7.021 -0.512,-0.859 -0.847,-1.708 -0.537,-2.911 0.425,-1.648 0.531,-3.636 -1.055,-4.796 -1.222,-0.894 -2.171,-1.96 -3.094,-3.09 -0.598,-0.731 -1.131,-1.525 -1.591,-2.348 -0.103,-0.185 0.138,-0.785 0.362,-0.891 1.072,-0.504 2.187,-0.921 3.299,-1.336 1.893,-0.706 3.558,-0.39 4.97,1.121 0.255,0.273 0.634,0.489 0.996,0.593 1.645,0.471 4.229,-0.547 5.177,-1.968 0.402,-0.604 0.859,-1.173 1.319,-1.795 1.565,2.602 3.033,5.042 4.574,7.603 M -18.049,-70.744 c -0.18,0.131 -0.36,0.263 -0.54,0.393 5.245,11.171 12.18,21.449 17.654,32.686 -1.209,0.13 -2.333,0.23 -3.45,0.377 -1.486,0.196 -3.046,0.208 -4.126,1.524 -0.085,0.105 -0.27,0.127 -0.442,0.202 -0.16,-0.171 -0.323,-0.294 -0.419,-0.457 -1.443,-2.466 -2.864,-4.947 -4.324,-7.405 -0.495,-0.834 -0.91,-1.898 -1.665,-2.359 -1.581,-0.963 -3.521,0.6 -3.335,2.541 0.037,0.382 0.127,0.759 0.167,0.989 -1.151,0.637 -2.247,1.127 -3.211,1.806 -1.104,0.776 -2.106,1.703 -3.123,2.596 -2.111,1.855 -4.52,3.451 -5.48,6.319 -0.088,0.262 -0.498,0.417 -0.758,0.621 -0.181,-0.235 -0.386,-0.455 -0.538,-0.708 -0.163,-0.272 -0.25,-0.588 -0.413,-0.859 -1.909,-3.149 -3.857,-6.277 -5.73,-9.448 -1.01,-1.709 -1.742,-3.6 -2.881,-5.21 -1.134,-1.602 -1.927,-3.277 -2.479,-5.138 -0.129,-0.435 -0.925,-0.995 -1.353,-0.947 -0.762,0.084 -0.754,0.755 -0.392,1.391 0.096,0.169 0.073,0.609 0.019,0.625 -0.284,0.081 -0.669,0.19 -0.885,0.062 -1.263,-0.747 -2.648,-1.39 -3.694,-2.382 -1.929,-1.831 -3.562,-3.924 -4.083,-6.671 -0.273,-1.438 -0.858,-2.844 -0.934,-4.283 -0.17,-3.192 0.97,-6.064 2.513,-8.823 2.096,-3.746 4.66,-6.938 8.549,-9.042 4.362,-2.36 8.758,-4.102 13.874,-3.443 3.545,0.457 6.865,1.429 9.451,3.907 2.733,2.621 4.639,5.801 4.545,9.784 -0.027,1.124 -0.376,2.241 -0.606,3.524 -0.777,-0.884 -1.344,-1.528 -1.911,-2.172 M 27.227,5.874 c 0.597,0.057 1.063,0.112 1.529,0.142 1.364,0.086 1.775,-0.335 2.203,-1.625 0.578,-1.74 0.052,-3.332 -0.681,-4.769 -1.007,-1.975 -2.337,-3.785 -3.532,-5.663 -1.064,-1.67 -2.886,-1.571 -4.473,-0.994 -1.12,0.406 -2.18,0.983 -3.311,1.348 -0.362,0.116 -0.87,-0.187 -1.301,-0.329 -0.293,-0.095 -0.59,-0.385 -0.848,-0.345 -1.753,0.268 -3.502,0.578 -5.24,0.938 -0.307,0.064 -0.62,0.381 -0.804,0.662 -0.148,0.226 -0.23,0.658 -0.107,0.845 0.108,0.164 0.567,0.213 0.825,0.143 1.14,-0.31 2.261,-0.691 3.396,-1.022 0.24,-0.07 0.51,-0.04 1.134,-0.078 -1.767,1.077 -3.224,1.966 -4.905,2.99 -0.263,-0.399 -0.695,-0.981 -1.049,-1.606 -2.031,-3.589 -3.763,-7.388 -6.148,-10.722 -2.074,-2.896 -3.766,-5.975 -5.547,-9.018 -0.902,-1.542 -1.601,-3.205 -2.493,-5.019 h 8.299 c 3.727,6.203 7.66,12.75 11.771,19.591 -2.728,-0.628 -4.863,0.187 -6.559,2.345 0.511,0 1.13,0.188 1.517,-0.033 1.567,-0.891 3.202,-1.115 4.966,-0.937 1.633,0.166 2.234,-0.598 1.455,-2.062 -0.947,-1.782 -2.228,-3.383 -3.261,-5.123 -1.745,-2.94 -3.389,-5.94 -5.115,-8.892 C 8.031,-24.926 6.961,-26.404 6.085,-27.991 4.9,-30.14 3.878,-32.377 2.703,-34.53 1.97,-35.876 1.017,-37.102 0.282,-38.446 c -0.998,-1.828 -1.882,-3.719 -2.813,-5.583 -0.089,-0.177 -0.158,-0.364 -0.256,-0.534 -1.66,-2.904 -3.311,-5.812 -4.989,-8.705 -1.134,-1.953 -2.33,-3.871 -3.458,-5.827 -1.599,-2.773 -3.163,-5.565 -4.731,-8.355 -0.126,-0.225 -0.163,-0.499 -0.282,-0.882 0.571,0.223 0.998,0.39 1.67,0.651 0.223,-1.036 0.591,-1.98 0.594,-2.925 0.007,-2.264 -0.01,-4.413 -1.202,-6.638 -1.354,-2.527 -3.152,-4.495 -5.134,-6.415 -0.086,-0.083 -0.167,-0.186 -0.272,-0.235 -2.351,-1.087 -4.491,-2.703 -7.217,-2.855 -1.666,-0.093 -3.338,-0.389 -4.992,-0.298 -3.215,0.177 -6.271,0.833 -9.23,2.392 -3.75,1.973 -6.63,4.793 -9.131,8.036 -2.218,2.876 -4.187,6.007 -4.471,9.761 -0.457,6.034 1.606,11.182 6.221,15.093 1.341,1.137 3.265,1.575 4.9,2.376 0.421,0.206 0.889,0.504 1.115,0.89 1.349,2.299 2.589,4.662 3.951,6.953 1.484,2.499 3.077,4.933 4.589,7.415 0.741,1.218 1.395,2.487 2.106,3.724 0.263,0.46 0.577,0.89 0.961,1.475 -0.119,0.315 -0.366,0.784 -0.464,1.281 -0.081,0.406 -0.128,0.925 0.056,1.259 1.146,2.084 2.359,4.132 3.56,6.186 0.158,0.271 0.342,0.686 0.573,0.731 1.798,0.347 1.838,1.995 2.436,3.209 1.274,2.586 2.351,5.271 4.271,7.503 0.343,0.4 0.377,1.19 0.329,1.782 -0.324,3.95 2.714,8.693 6.391,10.287 0.744,0.322 1.24,1.458 1.627,2.318 1.008,2.24 1.778,4.592 2.857,6.793 1.061,2.163 2.398,4.19 3.594,6.289 1.516,2.657 2.998,5.333 4.522,7.985 1.249,2.173 2.567,4.307 3.783,6.497 0.229,0.413 0.341,1.124 0.14,1.503 -1.216,2.302 -1.578,4.788 -1.267,7.273 0.145,1.159 1.015,2.344 1.835,3.271 0.9,1.019 2.141,1.729 3.19,2.624 0.53,0.453 1.09,0.948 1.42,1.543 1.507,2.72 3.46,4.99 6.274,6.395 0.77,0.385 1.641,0.688 2.49,0.77 1.302,0.125 1.431,1.196 1.929,1.997 0.877,1.413 1.734,2.839 2.657,4.222 3.133,4.696 6.646,9.125 9.199,14.227 1.883,3.762 4.294,7.26 6.467,10.879 0.266,0.442 0.515,0.896 0.761,1.35 1.752,3.233 3.483,6.476 5.272,9.688 0.241,0.432 0.767,0.706 1.282,1.159 -0.463,1.072 -0.326,2.243 0.252,3.519 0.83,1.83 1.092,2.186 2.779,2.014 1.033,1.986 2.017,4.071 3.176,6.055 1.261,2.161 2.693,4.223 4.033,6.339 0.618,0.976 1.271,1.942 1.75,2.986 0.211,0.459 -0.058,1.116 0.044,1.653 0.18,0.941 0.302,1.958 0.758,2.769 1.869,3.326 3.752,6.655 5.83,9.853 1.772,2.725 3.85,5.174 6.414,7.314 2.116,1.765 3.594,4.301 5.336,6.51 0.879,1.115 1.761,2.232 2.563,3.402 1.577,2.3 3.136,4.614 4.619,6.975 0.408,0.649 0.879,1.587 0.702,2.22 -0.767,2.75 0.636,4.858 2.363,6.333 2.116,1.806 2.936,4.184 4.151,6.427 1.515,2.799 3.045,5.592 4.553,8.396 0.51,0.947 0.925,1.948 1.462,2.878 2.19,3.791 4.395,7.573 6.622,11.342 3.144,5.319 6.285,10.639 9.483,15.926 1.498,2.478 3.164,4.853 4.68,7.319 1.208,1.964 2.272,4.017 3.466,5.99 0.722,1.191 1.621,2.274 2.351,3.461 0.791,1.287 1.269,2.693 1.065,4.245 -0.347,2.624 1.168,4.357 2.884,5.97 1.586,1.492 3.226,2.927 4.823,4.407 0.191,0.177 0.293,0.467 0.392,0.722 1.617,4.205 4.397,7.441 8.173,9.855 1.956,1.251 4.143,1.442 6.428,1.54 v -1.384 c 0.091,-0.044 0.183,-0.088 0.274,-0.133 0.79,1.284 1.592,2.56 2.365,3.854 2.698,4.509 5.471,8.978 8.036,13.562 0.978,1.746 2.628,2.709 3.876,4.123 1.848,2.094 3.122,4.515 4.483,6.896 0.807,1.411 1.624,2.832 2.25,4.327 0.406,0.971 0.32,2.149 0.728,3.119 1.358,3.225 2.615,6.541 4.897,9.252 2.175,2.585 4.873,4.56 8.036,5.821 1.35,0.538 2.81,0.042 3.764,-1.015 0.632,-0.701 1.422,-1.257 2.095,-1.925 0.227,-0.226 0.47,-0.615 0.436,-0.897 -0.291,-2.436 -0.538,-4.885 -1.005,-7.29 -0.632,-3.248 -2.827,-5.636 -4.741,-8.19 -1.325,-1.767 -3.336,-2.489 -4.945,-3.787 -1.303,-1.051 -2.284,-2.507 -3.372,-3.814 -0.138,-0.165 -0.014,-0.526 -0.087,-0.774 -0.106,-0.359 -0.242,-0.975 -0.432,-1.002 -1.357,-0.188 -1.52,-1.427 -2.113,-2.263 -1.621,-2.288 -1.639,-5.08 -2.385,-7.646 -0.534,-1.833 -1.242,-3.673 -2.21,-5.309 -1.739,-2.937 -3.739,-5.72 -5.618,-8.575 -0.721,-1.096 -1.46,-2.187 -2.084,-3.339 -0.167,-0.308 -0.06,-0.898 0.132,-1.239 0.347,-0.613 0.874,-1.121 1.289,-1.698 1.372,-1.908 1.434,-4.128 1.177,-6.289 -0.284,-2.39 -0.842,-4.757 -1.412,-7.101 -0.484,-1.99 -2.134,-3.221 -3.386,-4.706 -0.573,-0.679 -1.285,-1.364 -1.529,-2.169 -0.47,-1.547 -0.822,-3.171 -0.913,-4.781 -0.157,-2.773 -1.926,-5.929 -4.59,-6.461 -1.514,-0.302 -2.183,-0.864 -2.926,-2.015 -1.434,-2.223 -3.065,-4.318 -4.602,-6.475 -0.621,-0.872 -1.209,-1.766 -1.75,-2.558 0.473,-0.934 0.875,-1.832 1.367,-2.678 0.86,-1.475 0.301,-2.85 -0.235,-4.221 -0.737,-1.888 -2.145,-2.811 -4.127,-3.319 -0.948,-0.243 -1.807,-1.345 -2.424,-2.25 -1.136,-1.664 -2.056,-3.474 -3.079,-5.215 -0.923,-1.571 -1.814,-3.165 -2.812,-4.688 -0.867,-1.323 -1.866,-2.559 -2.8,-3.839 -0.139,-0.191 -0.25,-0.406 -0.363,-0.617 -1.133,-2.108 -2.208,-4.25 -3.413,-6.316 -1.014,-1.74 -1.169,-3.64 -1.571,-5.546 -0.502,-2.382 -1.797,-4.587 -2.634,-6.911 -0.783,-2.174 -2.384,-3.774 -3.705,-5.565 -0.446,-0.603 -1.216,-1.244 -1.906,-1.332 -1.787,-0.229 -2.306,-1.667 -2.949,-2.854 -2.432,-4.491 -4.71,-9.067 -7.087,-13.589 -1.199,-2.282 -2.528,-4.496 -3.725,-6.779 -1.393,-2.655 -2.635,-5.39 -4.073,-8.019 -1.082,-1.975 -2.455,-3.792 -3.549,-5.762 -1.792,-3.224 -3.467,-6.512 -5.183,-9.778 -1.391,-2.648 -2.768,-5.303 -4.257,-8.157 1.045,-0.605 2.036,-1.223 3.075,-1.741 0.187,-0.093 0.648,0.154 0.863,0.365 1.735,1.703 2.905,1.794 4.942,0.353 0.355,-0.251 0.783,-0.404 1.113,-0.68 1.193,-1 1.472,-2.345 0.753,-3.77 -1.57,-3.111 -3.12,-6.234 -4.787,-9.292 -0.624,-1.145 -1.511,-2.157 -2.351,-3.169 -0.746,-0.9 -1.69,-1.649 -2.367,-2.592 -0.623,-0.868 -0.876,-2.009 -1.528,-2.848 -0.963,-1.24 -1.865,-2.395 -3.942,-2.181 -2.685,0.276 -5.557,0.39 -7.992,-1.194 C 66.096,69.505 64.854,68.257 63.522,67.146 62.41,66.219 61.632,64.854 60.069,64.512 59.933,64.482 59.773,64.37 59.706,64.25 59.134,63.229 58.63,62.167 58.015,61.174 55.611,57.292 53.105,53.471 50.771,49.549 48.911,46.425 47.233,43.191 45.498,39.995 44.613,38.367 43.764,36.721 42.926,35.068 41.736,32.718 40.59,30.344 39.39,27.999 38.165,25.604 36.917,23.22 35.641,20.851 34.301,18.364 32.957,15.877 31.539,13.435 30.273,11.253 28.897,9.136 27.591,6.977 27.418,6.692 27.373,6.33 27.227,5.874"
             style="fill:#000000;fill-opacity:1;fill-rule:nonzero;stroke:none"
             id="path22"
             inkscape:connector-curvature="0" /></g></g></g></g></svg>