<?xml version="1.0" encoding="UTF-8" standalone="no"?>
<!-- Created with Inkscape (http://www.inkscape.org/) -->

<svg
   xmlns:dc="http://purl.org/dc/elements/1.1/"
   xmlns:cc="http://creativecommons.org/ns#"
   xmlns:rdf="http://www.w3.org/1999/02/22-rdf-syntax-ns#"
   xmlns:svg="http://www.w3.org/2000/svg"
   xmlns="http://www.w3.org/2000/svg"
   xmlns:sodipodi="http://sodipodi.sourceforge.net/DTD/sodipodi-0.dtd"
   xmlns:inkscape="http://www.inkscape.org/namespaces/inkscape"
   version="1.1"
   id="svg2"
   xml:space="preserve"
   width="608"
   height="546.56"
   viewBox="0 0 608 546.56"
   sodipodi:docname="Percussion.svg"
   inkscape:version="0.92.4 (5da689c313, 2019-01-14)"><metadata
     id="metadata8"><rdf:RDF><cc:Work
         rdf:about=""><dc:format>image/svg+xml</dc:format><dc:type
           rdf:resource="http://purl.org/dc/dcmitype/StillImage" /><dc:title></dc:title></cc:Work></rdf:RDF></metadata><defs
     id="defs6"><clipPath
       clipPathUnits="userSpaceOnUse"
       id="clipPath18"><path
         d="M 0,409.92 H 456 V 0 H 0 Z"
         id="path16"
         inkscape:connector-curvature="0" /></clipPath></defs><sodipodi:namedview
     pagecolor="#ffffff"
     bordercolor="#666666"
     borderopacity="1"
     objecttolerance="10"
     gridtolerance="10"
     guidetolerance="10"
     inkscape:pageopacity="0"
     inkscape:pageshadow="2"
     inkscape:window-width="640"
     inkscape:window-height="480"
     id="namedview4"
     showgrid="false"
     inkscape:zoom="0.43179157"
     inkscape:cx="56.195255"
     inkscape:cy="273.28"
     inkscape:window-x="0"
     inkscape:window-y="0"
     inkscape:window-maximized="0"
     inkscape:current-layer="g10" /><g
     id="g10"
     inkscape:groupmode="layer"
     inkscape:label="Percussion"
     transform="matrix(1.3333333,0,0,-1.3333333,0,546.56)"><g
       id="g12"><g
         id="g14"
         clip-path="url(#clipPath18)"><g
           id="g20"
           transform="translate(188.2417,275.9849)"><path
             d="m 0,0 c -0.038,-0.138 -0.075,-0.276 -0.113,-0.414 l 3.86,-0.566 c 0.03,0.15 0.06,0.301 0.09,0.451 C 2.558,-0.353 1.279,-0.176 0,0 m 60.882,-209.726 c -0.124,-0.106 -0.248,-0.21 -0.371,-0.315 0.741,-0.815 0.934,-2.099 2.164,-2.498 0.107,0.091 0.213,0.181 0.32,0.271 -0.704,0.848 -1.409,1.694 -2.113,2.542 M -87.393,24.087 c 0.063,-0.156 0.126,-0.312 0.188,-0.468 0.585,0.228 1.169,0.457 1.753,0.685 -0.176,0.355 -0.299,0.97 -0.537,1.019 -0.928,0.189 -1.175,-0.554 -1.404,-1.236 M -52.06,-144.23 c 0.197,-1.329 3.353,-2.295 5.323,-1.62 -1.862,0.566 -3.567,1.086 -5.323,1.62 M 106.426,34.785 c -0.18,0.022 -0.36,0.043 -0.541,0.065 -0.408,-0.465 -1.086,-0.891 -1.161,-1.405 -0.104,-0.719 0.065,-1.907 1.05,-1.744 0.554,0.091 1.028,1.206 1.335,1.944 0.1,0.244 -0.437,0.752 -0.683,1.14 M -97.223,-168.149 c -0.736,0.121 -1.506,0.048 -1.509,-1.111 -0.005,-1.26 1.052,-2.292 2.27,-2.258 1.091,0.031 1.948,0.743 1.903,1.581 -0.056,1.03 -1.15,1.808 -2.664,1.788 m 71.077,75.422 c 0.017,-2.558 0.089,-2.642 2.468,-2.868 0.04,-0.003 0.079,-0.026 0.117,-0.022 1.643,0.152 3.285,0.306 5.053,0.471 -0.169,0.486 -0.338,0.74 -0.33,0.987 0.045,1.296 -0.71,1.509 -1.767,1.391 -0.273,-0.031 -0.555,0.038 -0.833,0.038 -1.569,0.005 -3.139,0.003 -4.708,0.003 m -40.407,-43.487 c -0.468,1.37 -0.849,2.777 -1.421,4.102 -1.387,3.213 -2.86,6.388 -4.31,9.572 -0.087,0.19 -0.282,0.33 -0.427,0.492 -0.141,-0.203 -0.419,-0.417 -0.403,-0.607 0.162,-1.934 0.121,-3.932 0.623,-5.78 0.896,-3.307 3.382,-5.578 5.938,-7.779 m -7.924,20.04 c -0.269,-0.403 -0.341,-0.499 -0.401,-0.603 -0.08,-0.139 -0.172,-0.275 -0.22,-0.426 -1.122,-3.54 -1.873,-7.188 -0.911,-10.821 0.682,-2.576 1.919,-5.025 3.086,-7.444 0.637,-1.32 1.636,-2.45 3.094,-3.056 0.939,-0.39 1.879,-0.817 2.734,-1.361 0.945,-0.603 1.774,-1.386 2.695,-2.031 0.307,-0.214 0.743,-0.245 1.119,-0.36 l 0.252,0.375 c -1.546,1.267 -1.286,4.194 -4.222,4.194 -0.132,0 -0.279,0.153 -0.394,0.261 -1.148,1.077 -2.326,2.127 -3.428,3.25 -1.875,1.911 -2.348,4.427 -2.766,6.92 -0.212,1.262 -0.259,2.568 -0.226,3.85 0.038,1.492 0.085,3.018 0.429,4.458 0.272,1.135 -0.324,1.718 -0.841,2.794 m -64.562,166.911 c 0.018,-0.326 0.075,-0.572 0.039,-0.804 -0.239,-1.516 0.252,-2.65 1.54,-3.557 1.253,-0.882 2.285,-2.105 3.589,-2.885 2.308,-1.382 4.089,-0.834 4.492,1.797 0.234,1.529 0.081,3.126 0.018,4.69 -0.015,0.382 -0.294,0.808 -0.562,1.119 -1.757,2.037 -4.188,2.802 -6.678,3.385 -1.23,0.288 -2.207,-0.529 -2.333,-1.801 -0.067,-0.674 -0.075,-1.353 -0.105,-1.944 M 105.225,24.681 c 0.002,0.028 0.004,0.056 0.007,0.084 0.759,0 1.53,0.089 2.274,-0.016 3.353,-0.473 5.434,3.347 4.207,6.063 -0.116,0.257 -0.332,0.538 -0.576,0.657 -0.709,0.347 -1.47,0.591 -2.185,0.926 -0.734,0.342 -1.19,0.238 -1.449,-0.6 -0.587,-1.908 -1.867,-2.265 -3.164,-0.723 -0.855,1.018 -1.741,1.198 -2.82,0.806 -1.16,-0.421 -2.649,-0.533 -3.034,-2.001 -0.267,-1.017 -0.265,-2.118 -0.277,-3.183 -0.01,-0.973 0.534,-1.52 1.546,-1.589 1.825,-0.126 3.647,-0.281 5.471,-0.424 M 14.25,7.295 c 0.02,0.086 0.04,0.171 0.06,0.257 0.836,0.049 1.721,-0.061 2.496,0.181 1.305,0.409 2.955,0.267 3.686,1.801 0.769,1.613 0.414,3.269 -0.123,4.849 -0.132,0.39 -0.749,0.742 -1.21,0.873 -3.774,1.065 -7.546,1.773 -11.434,0.348 C 6.678,15.221 5.833,14.803 5.69,13.718 5.487,12.18 4.992,10.531 6.422,9.242 6.564,9.115 6.763,9.023 6.95,8.979 9.382,8.411 11.816,7.854 14.25,7.295 M -86.867,-133.473 c -0.983,1.469 -1.93,2.772 -2.759,4.147 -1.21,2.007 -2.4,4.032 -3.473,6.114 -0.642,1.245 -0.888,1.453 -1.939,0.547 -1.655,-1.423 -3.243,-2.926 -4.83,-4.426 -1.379,-1.305 -2.733,-2.636 -4.064,-3.989 -0.334,-0.339 -0.538,-0.805 -0.979,-1.487 6.211,-0.311 12.102,-0.607 18.044,-0.906 m 3.983,-45.018 c 0.232,0.293 0.509,0.562 0.687,0.884 0.474,0.86 0.926,1.735 1.348,2.623 0.234,0.493 0.499,1.01 0.566,1.539 0.405,3.242 -0.171,6.323 -1.803,9.154 -1.344,2.33 -2.962,4.465 -5.343,5.838 -1.805,1.042 -3.69,1.735 -5.601,0.138 -0.136,-0.112 -0.382,-0.17 -0.56,-0.142 -1.029,0.164 -1.239,-0.552 -1.332,-1.286 -0.146,-1.153 0.029,-2.212 1.045,-3.006 0.36,-0.283 0.561,-0.763 0.86,-1.133 0.354,-0.438 0.684,-0.92 1.12,-1.262 0.426,-0.335 0.991,-0.488 1.464,-0.772 1.565,-0.938 3.341,-1.664 4.625,-2.898 2.654,-2.552 3.066,-5.926 2.924,-9.677 m -19.51,10.135 -0.534,-0.006 c -0.305,-0.687 -0.885,-1.382 -0.866,-2.06 0.058,-2.219 0.693,-4.369 2.025,-6.138 1.567,-2.082 3.793,-3.448 6.307,-4.023 2.343,-0.537 4.775,-0.731 7.18,-0.933 1.663,-0.14 3.196,0.981 3.408,2.641 0.236,1.83 0.326,3.737 0.074,5.554 -0.312,2.246 -2.169,4.201 -4.248,4.515 0,-1.248 0.025,-2.531 -0.006,-3.814 -0.052,-2.172 -1.696,-3.522 -3.702,-2.911 -1.732,0.527 -3.699,0.906 -5.021,2.002 -1.75,1.451 -4.213,2.401 -4.617,5.173 m 162.69,-41.205 c 0.088,0.065 0.175,0.13 0.263,0.195 -0.055,0.176 -0.073,0.374 -0.169,0.523 -0.955,1.471 -1.904,2.947 -2.891,4.397 -1.114,1.636 -2.322,3.211 -3.386,4.879 -1.498,2.35 -2.894,4.765 -4.348,7.143 -1.593,2.604 -3.252,5.169 -4.792,7.803 -1.936,3.314 -3.804,6.669 -5.66,10.03 -1.568,2.84 -3.096,5.703 -4.607,8.574 -0.79,1.502 -1.478,3.058 -2.26,4.564 -0.837,1.612 -2.003,3.108 -2.544,4.807 -1.217,3.827 -2.149,7.745 -3.164,11.635 -0.153,0.586 -0.134,1.218 -0.194,1.828 -0.096,0.037 -0.192,0.075 -0.289,0.112 -0.23,-0.315 -0.608,-0.606 -0.664,-0.95 -0.198,-1.21 -0.586,-2.499 -0.351,-3.646 0.467,-2.281 1.224,-4.511 1.997,-6.715 1.094,-3.119 2.153,-6.268 3.513,-9.275 2.129,-4.712 4.588,-9.274 6.74,-13.976 2.515,-5.495 5.65,-10.613 9.111,-15.536 1.783,-2.538 3.773,-4.93 5.662,-7.393 0.964,-1.257 1.842,-2.589 2.886,-3.773 1.31,-1.489 2.749,-2.864 4.14,-4.282 0.322,-0.328 0.67,-0.631 1.007,-0.944 m -55.078,61.087 c 1.353,0.337 2.408,0.544 3.428,0.865 3.402,1.072 6.826,2.092 10.173,3.318 2.176,0.797 4.209,1.974 6.348,2.88 1.369,0.579 2.227,1.46 3.095,2.725 1.687,2.456 4.257,3.839 7.302,4.258 1.665,0.228 3.843,3.022 3.702,4.519 -0.181,1.922 -0.305,3.851 -0.542,5.765 -0.223,1.801 -0.44,3.616 -0.879,5.37 -0.514,2.057 -1.806,3.702 -3.372,5.101 -1.977,1.765 -3.887,3.633 -6.027,5.179 -1.753,1.266 -3.833,2.067 -5.709,3.174 -3.257,1.922 -6.84,3.029 -10.372,4.265 -0.196,0.068 -0.447,-0.025 -0.737,-0.047 -0.038,-0.639 -0.072,-1.216 -0.103,-1.753 0.209,-0.074 0.285,-0.125 0.356,-0.12 0.116,0.009 0.254,0.021 0.341,0.088 1.044,0.804 2.013,0.486 3.085,-0.039 3.222,-1.579 6.429,-3.214 9.748,-4.565 3.91,-1.592 6.557,-4.331 7.965,-8.199 0.797,-2.191 1.464,-4.517 1.644,-6.825 0.201,-2.593 -0.903,-4.925 -2.578,-7.014 -2.497,-3.113 -4.637,-6.44 -7.896,-8.978 -2.823,-2.199 -5.935,-3.546 -9.189,-4.651 -2.696,-0.916 -5.543,-1.385 -8.317,-2.081 -0.302,-0.076 -0.721,-0.282 -0.805,-0.525 -0.267,-0.777 -0.403,-1.599 -0.661,-2.71 m -82.094,1.016 c -0.156,0.275 -0.251,0.489 -0.386,0.674 -2.613,3.592 -5.251,7.165 -7.827,10.782 -0.443,0.621 -0.604,1.349 -1.503,0.482 -0.203,-0.197 -0.757,-0.067 -1.143,-0.031 -1.9,0.179 -3.795,0.418 -5.697,0.561 -3.81,0.288 -7.63,0.474 -11.435,0.815 -1.528,0.136 -1.88,-0.044 -1.841,-1.555 0.04,-1.512 0.069,-3.024 0.058,-4.536 -0.025,-3.044 0.717,-3.918 3.737,-4.325 0.316,-0.042 0.635,-0.07 0.95,-0.116 1.89,-0.272 3.782,-0.528 5.667,-0.829 2.942,-0.468 5.873,-1.007 8.819,-1.442 2.081,-0.308 4.182,-0.483 6.271,-0.738 1.413,-0.172 2.832,-0.615 4.33,0.258 m 86.996,-26.074 c 0.056,-0.021 0.234,-0.099 0.419,-0.156 5.164,-1.564 9.921,-3.854 14.047,-7.431 2.146,-1.86 4.612,-3.347 6.792,-5.171 2.955,-2.471 5.765,-5.116 8.658,-7.663 2.548,-2.245 5.129,-4.454 7.687,-6.689 0.858,-0.749 1.677,-1.542 2.535,-2.29 1.048,-0.913 2.109,-1.813 3.184,-2.692 0.451,-0.37 0.956,-0.674 1.436,-1.008 0.064,0.084 0.127,0.167 0.191,0.251 -0.817,0.953 -1.62,1.918 -2.453,2.856 -1.099,1.238 -2.318,2.383 -3.313,3.698 -1.638,2.163 -3.15,4.423 -4.694,6.657 -2.456,3.552 -5.013,7.021 -6.712,11.062 -1.471,3.497 -3.285,6.851 -4.984,10.25 -1.139,2.275 -2.341,4.52 -3.628,6.994 -0.739,-0.462 -1.482,-0.881 -2.176,-1.369 -1.859,-1.307 -4.019,-1.859 -6.106,-2.647 -3.691,-1.394 -7.27,-3.088 -10.883,-4.652 m -71.782,67.115 c 0.526,0.305 1.103,0.626 1.666,0.972 2.901,1.779 5.826,3.453 9.222,4.205 1.663,0.369 3.204,1.264 4.851,1.746 1.113,0.328 2.406,0.126 3.457,0.558 1.967,0.808 4.021,1.008 6.068,1.344 0.257,0.042 0.477,0.285 0.735,0.36 0.37,0.107 0.756,0.165 1.14,0.204 0.453,0.045 0.915,0.011 1.364,0.073 1.377,0.193 2.744,0.52 4.126,0.599 1.887,0.107 1.89,0.029 1.884,1.91 -10e-4,0.118 0.096,0.285 0.045,0.348 -0.464,0.581 -0.879,1.549 -1.442,1.647 -3.381,0.594 -6.804,0.941 -10.197,1.469 -1.566,0.243 -3.282,0.179 -4.111,1.158 -5.223,0.554 -9.231,3.272 -13.63,4.804 -4.516,1.574 -8.299,4.493 -12.183,7.037 2.322,-9.422 4.64,-18.834 7.005,-28.434 m 73.098,2.24 c -0.051,-0.352 -0.13,-0.775 -0.17,-1.2 -0.351,-3.809 -0.616,-7.627 -1.066,-11.424 -0.375,-3.157 -1.019,-6.281 -1.446,-9.433 -0.476,-3.512 -0.797,-7.044 -1.271,-10.556 -0.244,-1.81 -0.7,-3.591 -0.989,-5.398 -0.051,-0.319 0.331,-1.011 0.376,-0.999 0.969,0.249 2.073,-0.381 2.955,0.472 0.271,0.261 0.677,0.422 1.05,0.531 2.24,0.652 4.52,1.184 6.726,1.932 3.294,1.116 6.112,3.064 8.442,5.613 1.826,1.995 3.441,4.184 5.136,6.298 1.332,1.662 2.33,3.636 1.988,5.683 -0.426,2.55 -1.458,5.004 -2.288,7.479 -0.761,2.268 -2.595,3.777 -4.4,5.032 -2.064,1.434 -4.521,2.306 -6.814,3.406 -0.574,0.276 -1.195,0.452 -1.76,0.742 -2.001,1.024 -3.908,2.344 -6.469,1.822 m -20.637,-74.084 c -0.018,-0.101 -0.036,-0.2 -0.054,-0.301 0.326,-0.112 0.648,-0.238 0.979,-0.336 1.987,-0.59 3.984,-1.149 5.963,-1.765 4.349,-1.35 8.429,-3.328 12.358,-5.588 3.083,-1.774 6.05,-3.75 9.044,-5.673 2.101,-1.349 4.208,-2.697 6.232,-4.157 4.48,-3.23 8.925,-6.509 13.353,-9.812 1.862,-1.39 2.98,-3.364 3.602,-5.54 0.657,-2.301 1.873,-4.209 3.536,-5.841 2.53,-2.48 5.917,-3.579 8.946,-5.219 3.198,-1.73 6.585,-3.132 10.212,-3.868 2.594,-0.525 5.126,-0.738 7.64,0.251 0.872,0.343 1.51,0.948 1.544,1.943 0.06,1.792 -0.342,3.463 -1.498,5.064 -1.975,-1.298 -3.906,-1.139 -5.698,0.302 -1.537,1.234 -3.148,2.411 -4.502,3.827 -2.141,2.237 -4.087,4.659 -6.133,6.986 -0.216,0.246 -0.553,0.385 -0.621,0.431 -0.317,-0.666 -0.553,-1.165 -0.79,-1.663 -0.408,0.339 -0.82,0.673 -1.221,1.018 -0.182,0.156 -0.337,0.341 -0.516,0.499 -2.57,2.268 -5.13,4.547 -7.718,6.793 -1.848,1.604 -3.742,3.154 -5.603,4.742 -1.721,1.467 -3.448,2.93 -5.132,4.44 -1.79,1.604 -3.448,3.365 -5.314,4.872 -2.613,2.107 -5.31,4.124 -8.075,6.026 -2.086,1.435 -4.231,2.872 -6.538,3.875 -3.466,1.507 -7.09,2.736 -10.847,0.693 -0.069,-0.037 -0.148,-0.066 -0.226,-0.077 -3.804,-0.575 -7.608,-1.147 -11.413,-1.717 -0.502,-0.075 -1.006,-0.138 -1.51,-0.205 m -78.711,114.116 c 0.031,0.16 0.12,0.344 0.089,0.506 -0.393,2.096 -0.813,4.186 -1.208,6.281 -1.082,5.743 -2.189,11.483 -3.218,17.236 -0.58,3.241 -1.026,6.505 -1.528,9.76 -0.561,3.633 -1.169,7.259 -1.659,10.902 -0.385,2.872 -0.663,5.759 -0.912,8.647 -0.242,2.813 -0.44,5.631 -0.562,8.451 -0.157,3.609 -0.181,7.223 -0.359,10.83 -0.03,0.619 -0.396,1.378 -0.86,1.783 -0.702,0.612 -1.575,1.181 -2.465,1.398 -3.06,0.745 -5.507,2.645 -8.17,4.128 -3.028,1.686 -5.973,3.521 -9.005,5.201 -0.453,0.251 -1.322,0.208 -1.733,-0.079 -0.299,-0.209 -0.31,-1.079 -0.19,-1.595 0.673,-2.914 1.444,-5.806 2.146,-8.715 1.426,-5.919 2.739,-11.867 4.276,-17.757 0.965,-3.697 2.231,-7.316 3.401,-10.958 0.979,-3.048 2.004,-6.082 3.029,-9.116 0.71,-2.1 1.433,-4.196 2.194,-6.278 0.486,-1.331 1.023,-2.645 1.59,-3.942 0.791,-1.812 1.679,-3.581 2.436,-5.406 0.745,-1.795 1.29,-3.676 2.085,-5.446 0.946,-2.104 2.139,-4.097 3.089,-6.2 1.052,-2.326 2.756,-4.133 4.406,-6.001 1.03,-1.166 2.032,-2.356 3.128,-3.63 M 73.41,-213.13 c -0.315,1.912 -0.423,3.888 -0.994,5.72 -0.802,2.57 -1.854,5.075 -2.966,7.532 -2.333,5.152 -4.742,10.272 -7.184,15.375 -1.82,3.807 -3.891,7.503 -5.576,11.367 -1.966,4.505 -3.603,9.153 -5.442,13.714 -1.429,3.544 -2.905,7.07 -4.447,10.566 -1.205,2.732 -2.409,5.481 -3.865,8.08 -1.134,2.025 -2.611,3.874 -5.468,3.283 -0.29,-0.059 -0.685,0.37 -1.028,0.58 -0.352,0.215 -0.747,0.679 -1.042,0.621 -4.378,-0.864 -7.715,-3.486 -7.197,-8.588 0.192,-1.889 0.621,-3.775 1.137,-5.607 0.571,-2.025 1.214,-4.058 2.096,-5.962 1.568,-3.384 3.326,-6.681 5.033,-10 1.531,-2.974 3.02,-5.976 4.679,-8.881 1.511,-2.646 3.268,-5.15 4.835,-7.766 1.746,-2.913 3.377,-5.894 5.1,-8.821 1.487,-2.529 2.952,-5.077 4.57,-7.522 2.456,-3.709 4.993,-7.367 7.579,-10.987 1.767,-2.473 3.414,-5.064 5.974,-6.867 0.925,-0.654 1.673,-0.447 2.47,0.177 1.304,1.02 1.62,2.414 1.736,3.986 M 12.388,-0.937 c -0.14,0.809 -0.267,1.384 -0.335,1.965 -0.173,1.499 -0.257,3.012 -0.52,4.493 -0.071,0.4 -0.595,0.886 -1.015,1.028 C 8.9,7.097 7.223,7.469 5.609,8.027 5.199,8.169 4.793,8.703 4.644,9.145 4.287,10.194 3.767,10.757 2.555,10.607 0.423,10.343 -1.727,10.22 -3.857,9.944 -4.268,9.89 -4.907,9.443 -4.953,9.111 -5.131,7.796 -5.055,6.448 -5.19,5.124 -5.306,3.992 -4.702,3.425 -3.829,2.983 -1.922,2.018 0.032,1.327 2.243,1.517 3.302,1.607 4.252,1.169 4.836,0.167 6.857,-3.304 7.691,-7.126 7.713,-11.061 7.737,-15.598 7.46,-20.141 7.229,-24.676 6.951,-30.138 6.648,-35.601 6.239,-41.054 5.714,-48.053 5.031,-55.041 4.495,-62.04 4.112,-67.041 3.948,-72.058 3.525,-77.055 3.072,-82.416 2.401,-87.758 1.882,-93.114 c -0.276,-2.855 -0.449,-5.721 -0.634,-8.585 -0.167,-2.585 -0.184,-5.182 -0.45,-7.756 -0.571,-5.508 -1.302,-11.002 -1.887,-16.509 -0.433,-4.074 -0.751,-8.16 -1.099,-12.243 -0.38,-4.474 -0.705,-8.954 -1.11,-13.425 -0.281,-3.095 -0.696,-6.177 -0.963,-9.273 -0.063,-0.721 0.124,-1.52 0.412,-2.191 0.123,-0.287 0.857,-0.553 1.212,-0.456 1.1,0.302 1.993,0.974 2.376,2.117 1.247,3.72 2.472,7.447 3.664,11.047 -1.273,1.174 -1.252,1.142 -10e-4,2.012 0.32,0.222 0.575,0.681 0.661,1.075 0.704,3.217 1.499,6.423 2,9.674 0.787,5.113 1.379,10.256 2.029,15.39 0.535,4.23 1.092,8.458 1.53,12.697 0.274,2.654 0.227,5.342 0.537,7.99 0.568,4.859 1.328,9.695 1.941,14.55 0.359,2.849 0.685,5.709 0.856,8.575 0.382,6.406 0.375,12.83 1.453,19.196 0.692,4.08 0.998,8.225 1.501,12.337 0.372,3.046 0.701,6.1 1.194,9.126 0.815,5.001 1.824,9.973 2.602,14.979 0.488,3.144 0.647,6.337 1.054,9.495 0.451,3.501 1.082,6.981 1.514,10.485 0.469,3.807 0.82,4.264 4.534,4.878 0.511,0.085 1.033,0.107 1.546,0.183 2.76,0.411 3.514,0.959 3.627,3.368 0.123,2.607 0.015,4.146 -2.045,4.755 -1.826,0.54 -3.674,1.09 -5.553,1.342 -2.024,0.273 -2.044,0.125 -2.339,-1.887 C 21.734,7.723 21.392,7.333 19.288,6.793 18.184,6.51 17.07,6.263 15.942,5.995 16.044,4.807 16.124,3.696 16.239,2.589 16.352,1.506 16.873,0.386 15.611,-0.833 15.382,-0.32 15.083,0.071 15.045,0.486 14.898,2.11 14.88,3.747 14.696,5.365 14.663,5.648 14.089,5.956 13.71,6.075 13.542,6.127 13.01,5.713 13.027,5.552 13.2,3.917 13.453,2.291 13.706,0.501 13.508,0.286 13.096,-0.164 12.388,-0.937 m -147.169,34.532 c -0.203,0.541 -0.439,0.915 -0.47,1.306 -0.057,0.704 0.089,1.429 0.007,2.128 -0.222,1.901 -0.511,3.795 -0.795,5.688 -0.044,0.295 -0.119,0.683 -0.323,0.84 -0.867,0.664 -1.772,1.28 -2.703,1.848 -0.142,0.087 -0.646,-0.102 -0.72,-0.276 -0.311,-0.732 -0.715,-1.5 -0.736,-2.264 -0.096,-3.297 -0.257,-6.609 -0.042,-9.892 0.322,-4.925 0.501,-9.877 1.867,-14.691 0.726,-2.561 1.108,-5.218 1.711,-7.815 0.449,-1.932 1.077,-3.823 1.499,-5.759 1.111,-5.104 2.088,-10.236 3.239,-15.33 1.347,-5.955 2.791,-11.889 4.247,-17.818 1.531,-6.235 3.106,-12.459 4.699,-18.679 0.752,-2.935 1.513,-5.872 2.409,-8.765 1.155,-3.729 2.44,-7.417 3.686,-11.117 1.018,-3.022 1.968,-6.072 3.118,-9.042 1.204,-3.113 2.609,-6.147 3.93,-9.214 1.493,-3.466 2.987,-6.932 4.486,-10.395 1.139,-2.634 2.247,-5.282 3.444,-7.889 1.294,-2.82 2.621,-5.627 4.034,-8.389 1.722,-3.366 3.494,-6.71 5.348,-10.005 1.522,-2.704 3.124,-5.369 4.819,-7.969 2.199,-3.375 4.47,-6.706 6.814,-9.982 1.761,-2.461 3.664,-4.822 5.552,-7.189 0.352,-0.442 0.82,-1.282 1.509,-0.675 0.312,0.273 0.338,1.171 0.15,1.653 -0.439,1.121 -1.116,2.147 -1.641,3.239 -0.786,1.637 -1.503,3.308 -2.294,4.942 -0.377,0.78 -0.938,1.474 -1.277,2.266 -0.946,2.213 -1.688,4.522 -2.76,6.669 -0.978,1.962 -2.403,3.697 -3.413,5.647 -1.853,3.576 -3.601,7.21 -5.285,10.869 -1.095,2.378 -2.048,4.824 -2.974,7.273 -0.87,2.299 -1.643,4.635 -2.416,6.969 -0.737,2.227 -1.39,4.483 -2.132,6.709 -1.427,4.273 -2.903,8.53 -4.332,12.803 -0.834,2.493 -1.605,5.005 -2.425,7.503 -1.585,4.826 -3.259,9.625 -4.757,14.478 -1.525,4.941 -2.849,9.945 -4.329,14.901 -0.59,1.976 -1.554,3.852 -2.018,5.85 -1.309,5.636 -2.436,11.313 -3.655,16.969 -0.512,2.373 -1.112,4.727 -1.599,7.105 -0.317,1.55 -0.474,3.132 -0.754,4.69 -0.45,2.498 -0.983,4.982 -1.4,7.485 -0.202,1.212 -0.144,2.467 -0.338,3.682 -0.594,3.719 -1.252,7.428 -1.884,11.142 -0.681,4.011 -1.057,8.007 0.33,11.972 0.334,0.955 0.799,1.184 1.687,0.768 1.08,-0.505 2.163,-1.011 3.272,-1.446 0.833,-0.327 1.171,0.199 1.254,0.937 0.162,1.443 0.218,2.904 0.47,4.33 0.287,1.63 -0.336,3.301 -1.623,4.298 -1.094,0.847 -2.104,1.808 -3.108,2.763 -1.569,1.494 -3.1,3.027 -4.74,4.634 -0.58,-0.724 -0.922,-1.34 -1.434,-1.737 -0.549,-0.428 -1.302,-0.587 -1.876,-0.991 -0.253,-0.178 -0.407,-0.681 -0.388,-1.025 0.07,-1.314 0.257,-2.622 0.341,-3.936 0.035,-0.525 -0.081,-1.059 -0.153,-1.863 -0.585,0.41 -1.095,0.596 -1.102,0.8 -0.047,1.338 -0.093,2.693 0.068,4.017 0.177,1.447 -0.445,3.134 -2.51,3.568 0.392,-2.086 0.634,-4.073 1.176,-5.974 0.278,-0.976 0.191,-1.637 -0.76,-2.614 M -88.646,7.388 c 0.232,2.529 0.46,4.726 0.622,6.927 0.073,1.002 -0.176,1.672 -1.5,1.432 -0.696,-0.126 -1.528,0.112 -2.205,0.404 -0.461,0.199 -0.99,0.726 -1.09,1.191 -0.386,1.796 -0.582,3.631 -0.922,5.437 -0.062,0.327 -0.416,0.759 -0.722,0.85 -1.237,0.367 -2.515,0.589 -3.762,0.923 -1.235,0.331 -2.689,-0.458 -2.961,-1.705 -0.153,-0.701 -0.273,-1.413 -0.338,-2.126 -0.177,-1.962 0.426,-3.543 2.062,-4.8 0.842,-0.646 1.599,-1.571 2.042,-2.532 0.794,-1.72 1.653,-3.522 1.879,-5.364 0.327,-2.665 0.136,-5.396 0.123,-8.098 -0.009,-1.662 -0.204,-3.329 -0.123,-4.985 0.119,-2.42 0.41,-4.832 0.626,-7.247 0.065,-0.715 0.084,-1.437 0.198,-2.144 0.992,-6.136 2.004,-12.269 3.005,-18.405 1.046,-6.411 2.041,-12.831 3.148,-19.231 0.753,-4.357 1.683,-8.683 2.485,-13.032 0.246,-1.325 0.255,-2.695 0.506,-4.018 0.688,-3.637 1.437,-7.263 2.182,-10.888 0.794,-3.864 1.43,-7.772 2.462,-11.572 1.557,-5.733 3.359,-11.401 5.131,-17.072 1.107,-3.542 2.32,-7.051 3.542,-10.555 0.866,-2.484 1.953,-4.896 2.714,-7.408 1.379,-4.549 3.677,-8.661 5.869,-12.821 0.987,-1.874 2.178,-3.649 3.367,-5.409 3.182,-4.711 6.407,-9.394 9.639,-14.072 0.223,-0.322 0.65,-0.503 0.982,-0.75 0.244,0.35 0.617,0.674 0.7,1.059 0.131,0.612 0.213,1.302 0.06,1.892 -0.463,1.795 -0.821,3.673 -1.641,5.307 -1.158,2.308 -1.698,4.775 -2.447,7.194 -0.739,2.388 -1.48,4.775 -2.217,7.164 -0.738,2.39 -1.529,4.766 -2.193,7.176 -0.597,2.164 -1.043,4.369 -1.578,6.551 -0.309,1.258 -0.67,2.504 -0.995,3.757 -0.559,2.158 -1.185,4.302 -1.641,6.481 -0.463,2.217 -0.561,4.524 -1.166,6.695 -0.995,3.57 -1.871,7.139 -2.549,10.793 -0.795,4.285 -2.252,8.446 -3.347,12.679 -0.697,2.692 -1.282,5.413 -1.876,8.131 -0.999,4.574 -2.037,9.141 -2.92,13.739 -0.668,3.478 -1.112,6.999 -1.67,10.499 -0.307,1.929 -0.716,3.845 -0.952,5.783 -0.455,3.738 -0.801,7.49 -1.228,11.231 -0.339,2.975 -0.832,5.936 -1.073,8.918 -0.289,3.57 -0.451,7.154 -0.541,10.736 -0.074,2.918 -0.009,5.843 0.085,8.763 0.06,1.82 0.33,3.633 0.43,5.453 0.125,2.259 0.755,4.37 1.884,6.299 0.277,0.472 1.057,0.924 1.6,0.919 2.301,-0.025 4.601,-0.223 6.901,-0.365 0.904,-0.056 1.502,0.237 1.464,1.253 -0.069,1.86 -0.116,3.721 -0.249,5.576 -0.069,0.951 -0.632,1.508 -1.523,2.017 -2.26,1.289 -4.754,1.796 -7.188,2.522 -0.7,0.208 -1.386,0.461 -2.049,0.684 -0.354,-1.066 -0.59,-1.996 -0.985,-2.853 -0.145,-0.316 -0.65,-0.619 -1.016,-0.654 -1.15,-0.108 -2.313,-0.094 -3.471,-0.112 -0.713,-0.011 -0.922,-0.312 -0.899,-1.05 0.079,-2.501 0.091,-5.006 0.053,-7.508 -0.005,-0.361 -0.423,-0.716 -0.649,-1.074 -0.277,0.4 -0.783,0.794 -0.793,1.201 -0.063,2.583 -0.005,5.169 -0.024,7.754 -0.002,0.244 -0.258,0.487 -0.396,0.73 -0.301,-0.187 -0.848,-0.355 -0.864,-0.564 -0.177,-2.275 -0.616,-4.561 0.135,-7.093 -0.649,-0.186 -1.325,-0.381 -2.133,-0.613 M 11.806,-99.16 c 2.083,-0.532 4.146,-0.78 5.964,-1.584 3.405,-1.505 6.677,-3.315 9.987,-5.031 3.772,-1.955 6.867,-4.719 9.371,-8.126 0.888,-1.208 1.825,-2.467 2.323,-3.851 0.567,-1.579 0.689,-3.32 0.967,-4.996 0.403,-2.43 0.866,-4.894 0.095,-7.306 -0.429,-1.34 -1.149,-2.603 -1.853,-3.834 -0.39,-0.682 -0.36,-1.316 0.305,-1.456 1.82,-0.385 2.922,-1.699 4.156,-2.863 0.962,-0.908 2.129,-0.959 2.988,0.075 1.214,1.462 2.307,3.023 3.465,4.531 0.821,1.069 1.768,2.058 2.475,3.196 1.231,1.985 2.271,4.087 3.479,6.087 1.862,3.081 3.787,6.125 5.706,9.172 2.744,4.357 5.69,8.589 7.874,13.284 1.308,2.813 2.75,5.564 4.155,8.33 1.537,3.029 3.096,6.046 4.654,9.065 1.152,2.233 2.361,4.438 3.464,6.696 1.506,3.079 2.914,6.206 4.401,9.295 2.188,4.547 4.509,9.033 6.579,13.632 1.38,3.068 2.465,6.272 3.6,9.444 0.922,2.575 1.718,5.196 2.581,7.794 0.651,1.962 1.398,3.896 1.96,5.882 1.04,3.666 1.956,7.367 2.956,11.044 1.13,4.156 2.315,8.296 3.44,12.453 0.579,2.142 1.118,4.295 1.604,6.46 1.089,4.84 2.233,9.671 3.145,14.545 0.332,1.775 0.529,3.822 -1.808,4.777 -0.345,0.142 -0.731,0.599 -0.787,0.959 -0.173,1.118 -0.163,2.262 -0.284,3.39 -0.186,1.75 -0.237,1.767 -2.121,1.285 -0.03,-0.171 -0.089,-0.363 -0.096,-0.556 -0.059,-1.864 -0.069,-3.732 -0.19,-5.592 -0.032,-0.499 -0.364,-0.996 -0.636,-1.448 -0.044,-0.074 -0.703,0.076 -0.707,0.143 -0.027,0.485 0.021,0.979 0.086,1.464 0.063,0.464 0.22,0.917 0.261,1.381 0.137,1.59 0.242,3.183 0.362,4.806 -0.813,0.155 -1.356,-0.068 -1.301,-1.154 0.032,-0.63 -0.102,-1.267 -0.126,-1.902 -0.037,-0.99 0.049,-1.996 -0.103,-2.965 -0.07,-0.438 -0.585,-1.137 -0.9,-1.137 -0.718,-0.002 -0.526,0.649 -0.472,1.187 0.202,2.017 0.346,4.039 0.498,5.882 -1.919,0.324 -3.622,0.288 -5.009,0.932 -1.574,0.731 -2.763,0.38 -4.122,-0.262 -1.613,-0.762 -3.278,-1.415 -4.911,-2.135 -1.174,-0.518 -2.515,-1.012 -2.597,-2.507 -0.056,-1.035 0.178,-2.151 0.546,-3.131 0.75,-2.003 1.615,-2.393 3.693,-1.966 0.391,0.08 0.8,0.315 1.161,0.252 0.865,-0.15 1.887,-0.215 2.507,-0.726 0.652,-0.535 0.942,-1.534 1.331,-2.358 1.127,-2.38 0.661,-4.896 0.359,-7.317 -0.702,-5.619 -1.602,-11.214 -2.461,-16.812 -0.695,-4.534 -1.273,-9.096 -2.227,-13.576 -0.962,-4.519 -2.268,-8.967 -3.532,-13.417 -0.683,-2.402 -1.618,-4.733 -2.39,-7.112 -1.078,-3.321 -2.005,-6.695 -3.188,-9.976 -1.469,-4.075 -3.081,-8.101 -4.731,-12.106 -1.105,-2.686 -2.406,-5.29 -3.579,-7.95 -1.989,-4.515 -3.914,-9.059 -5.932,-13.56 -0.916,-2.042 -1.943,-4.039 -3.008,-6.009 -1.53,-2.828 -3.158,-5.603 -4.713,-8.419 -1.552,-2.809 -3.048,-5.649 -4.606,-8.455 -0.321,-0.577 -0.85,-1.034 -1.215,-1.591 -1.132,-1.724 -2.209,-3.484 -3.345,-5.206 -1.958,-2.967 -4.346,-5.655 -5.76,-8.974 -0.275,-0.646 -0.836,-1.176 -1.485,-0.713 -0.531,0.378 -0.643,1.088 -0.145,1.775 0.463,0.638 0.728,1.419 1.187,2.061 1.829,2.553 3.828,4.995 5.526,7.63 2.629,4.08 5.149,8.235 7.555,12.449 2.409,4.22 4.675,8.525 6.907,12.842 1.812,3.503 3.53,7.057 5.194,10.632 1.277,2.745 2.402,5.562 3.598,8.344 1.087,2.527 2.238,5.028 3.258,7.582 1.376,3.445 2.673,6.921 3.964,10.398 0.839,2.26 1.606,4.545 2.406,6.819 -0.163,0.121 -0.326,0.242 -0.489,0.363 -0.146,-0.273 -0.258,-0.572 -0.444,-0.815 -1.107,-1.459 -2.11,-3.023 -3.375,-4.332 -2.763,-2.86 -5.548,-5.721 -8.543,-8.33 -2.301,-2.003 -4.936,-3.622 -7.421,-5.414 -1.092,-0.787 -2.212,-1.538 -3.265,-2.374 -1.603,-1.275 -3.012,-2.866 -4.763,-3.87 -4.796,-2.748 -9.725,-5.263 -14.607,-7.862 -1.002,-0.533 -1.786,-1.114 -1.939,-2.425 -0.144,-1.234 -0.589,-2.446 -0.995,-3.636 -1.636,-4.802 -3.297,-9.596 -4.979,-14.383 -0.345,-0.982 -0.819,-1.918 -1.326,-3.091 -0.58,0.625 -0.891,0.961 -1.184,1.276 0.366,0.525 0.777,0.908 0.936,1.377 0.651,1.918 1.175,3.881 1.845,5.792 0.495,1.409 1.24,2.733 1.703,4.151 0.914,2.8 1.717,5.638 2.546,8.465 0.093,0.316 0.064,0.665 0.092,0.999 -0.328,-0.053 -0.678,-0.052 -0.981,-0.171 -2.408,-0.945 -4.84,-1.839 -7.189,-2.914 -0.825,-0.377 -2.117,-0.151 -2.392,-1.461 -0.828,-3.938 -1.632,-7.88 -2.503,-11.808 -0.116,-0.523 -0.565,-0.973 -0.86,-1.457 l -0.372,0.141 c -0.077,0.292 -0.149,0.585 -0.234,0.876 -0.381,1.296 0.377,2.38 0.641,3.561 0.552,2.465 1.036,4.946 1.511,7.427 0.085,0.442 -0.008,0.918 -0.018,1.378 -0.456,-0.052 -0.939,-0.024 -1.363,-0.169 -2.564,-0.881 -5.054,-2.178 -7.687,-2.602 -2.551,-0.41 -3.309,-1.611 -3.43,-3.891 -0.085,-1.609 -0.446,-3.203 -0.668,-4.697 m 11.862,-45.397 c -1.373,-0.414 -2.682,-0.835 -4.006,-1.202 -4.48,-1.241 -8.972,-2.444 -13.442,-3.719 -0.576,-0.165 -1.374,-0.574 -1.523,-1.044 -0.941,-2.961 -1.587,-6.02 -2.619,-8.945 -0.649,-1.84 -1.579,-3.679 -2.787,-5.198 -1.365,-1.716 -4.066,-1.27 -4.408,0.586 -0.319,1.73 -0.376,3.548 -0.257,5.309 0.155,2.296 0.703,4.563 0.894,6.859 0.434,5.235 0.691,10.485 1.137,15.719 0.507,5.956 1.169,11.899 1.712,17.852 0.459,5.034 0.847,10.075 1.255,15.114 0.043,0.527 0.005,1.061 0.005,1.544 -0.547,0 -0.945,-0.056 -1.322,0.009 -2.9,0.496 -5.789,1.066 -8.699,1.5 -1.128,0.168 -2.301,0.05 -3.453,0.045 -3.699,-0.017 -7.412,0.149 -11.093,-0.121 -3.479,-0.255 -6.927,-0.956 -10.382,-1.495 -1.295,-0.202 -2.572,-0.51 -3.861,-0.754 -2.378,-0.451 -4.864,-0.594 -7.111,-1.406 -3.008,-1.086 -5.846,-2.655 -8.728,-4.076 -1.614,-0.796 -3.168,-1.712 -4.851,-2.628 0.117,0.97 0.565,1.712 1.397,2.171 1.594,0.877 3.286,1.594 4.813,2.57 2.238,1.432 4.54,2.7 7.147,3.244 3.652,0.763 7.162,2.324 11.01,2.028 0.118,-0.009 0.243,-0.007 0.358,0.02 2.932,0.701 5.864,1.341 8.905,1.419 2.17,0.056 4.333,0.354 6.502,0.495 0.628,0.04 1.268,-0.131 1.901,-0.124 2.026,0.025 4.062,0.239 6.075,0.104 3.386,-0.228 6.757,-0.672 10.135,-1.015 1.387,-0.14 1.585,0.03 1.701,1.457 0.136,1.67 0.231,3.345 0.385,5.013 0.083,0.895 -0.284,1.14 -1.117,0.995 -1.732,-0.3 -3.464,-0.613 -5.208,-0.824 -1.691,-0.204 -3.398,-0.403 -5.096,-0.392 -2.136,0.015 -4.27,0.244 -6.401,0.381 -0.194,-2.083 -0.071,-2.284 1.778,-2.455 0.612,-0.057 1.249,0.19 1.867,0.153 2.182,-0.13 4.363,-0.295 6.539,-0.506 0.823,-0.08 1.646,-0.518 2.44,-0.45 1.66,0.146 2.582,-0.941 3.688,-1.985 -0.864,-0.23 -1.732,-0.365 -2.575,-0.274 -3.926,0.426 -7.845,0.917 -11.767,1.379 -0.748,0.089 -1.508,0.274 -2.247,0.217 -2.816,-0.215 -5.629,-0.471 -8.435,-0.786 -2.567,-0.288 -5.131,-0.63 -7.683,-1.028 -1.647,-0.258 -3.277,-0.634 -4.904,-1.005 -2.905,-0.661 -5.806,-1.345 -8.701,-2.049 -1.119,-0.271 -2.257,-0.531 -3.319,-0.961 -1.803,-0.73 -3.556,-1.584 -5.322,-2.4 -1.867,-0.863 -3.725,-1.742 -5.584,-2.614 0.188,-1.176 0.283,-2.215 0.528,-3.217 1.041,-4.256 2.118,-8.504 3.2,-12.75 0.971,-3.81 1.944,-7.619 2.961,-11.415 0.38,-1.42 1.011,-2.782 1.305,-4.214 0.303,-1.473 1.25,-2.32 2.433,-2.901 3.952,-1.94 8.344,-2.217 12.561,-3.134 2.241,-0.487 4.566,-0.567 6.834,-0.946 4.071,-0.68 8.165,-0.841 12.28,-0.79 1.744,0.021 3.521,-0.216 5.227,0.041 2.63,0.397 5.212,1.115 7.998,1.74 -0.089,-0.484 -0.06,-0.77 -0.165,-0.833 -1.18,-0.706 -2.312,-1.741 -3.59,-1.983 -2.733,-0.518 -5.543,-0.795 -8.327,-0.851 -3.399,-0.066 -6.809,0.106 -10.204,0.336 -4.726,0.322 -9.45,0.727 -14.056,1.967 -0.989,0.267 -2.024,0.364 -3.038,0.538 1.574,-1.613 4.073,-0.823 5.61,-2.384 1.288,-0.116 2.614,-0.172 3.92,-0.364 2.817,-0.414 5.617,-0.938 8.435,-1.338 1.717,-0.243 3.453,-0.437 5.184,-0.468 1.618,-0.03 3.27,0.424 4.853,0.23 1.744,-0.214 3.397,-0.434 5.174,-0.101 1.694,0.316 3.475,0.145 5.213,0.257 0.856,0.055 1.19,-0.242 1.031,-1.427 -2.566,-0.246 -5.185,-0.626 -7.814,-0.715 -2.705,-0.092 -5.419,0.092 -8.129,0.17 -1.636,0.048 -3.293,-0.023 -4.902,0.216 -3.218,0.479 -6.427,1.056 -9.609,1.736 -3.337,0.712 -6.638,1.593 -9.956,2.398 -1.479,0.36 -2.958,0.718 -4.438,1.076 -0.084,-0.136 -0.169,-0.272 -0.253,-0.409 0.551,-1.262 1.077,-2.536 1.657,-3.785 1.416,-3.048 2.585,-6.127 1.083,-9.486 -0.195,-0.435 -0.649,-0.89 -1.082,-1.029 -0.265,-0.085 -0.839,0.329 -1.066,0.661 -1.095,1.593 -2.102,3.246 -3.17,4.859 -1.41,2.131 -2.86,4.236 -4.268,6.368 -1.293,1.957 -2.531,3.951 -3.848,5.892 -0.239,0.352 -0.707,0.644 -1.127,0.763 -1.566,0.446 -3.196,0.72 -4.315,2.091 -0.078,0.096 -0.301,0.123 -0.447,0.106 -2.371,-0.287 -3.688,1.488 -5.174,2.774 -2.095,1.813 -2.747,4.535 -3.705,6.98 -0.887,2.267 -1.981,4.64 -0.811,7.382 -2.38,0.638 -4.593,1.231 -6.806,1.823 -0.054,-0.111 -0.107,-0.221 -0.16,-0.332 1.316,-2.535 2.632,-5.07 3.947,-7.605 0.856,-1.652 2.449,-2.863 2.859,-4.782 0.147,-0.689 0.17,-1.441 0.471,-2.056 1.384,-2.829 2.809,-5.639 4.293,-8.417 1.104,-2.064 0.625,-3.704 -1.379,-4.531 0,-1.067 -0.058,-2.104 0.014,-3.133 0.109,-1.554 0.377,-3.051 1.728,-4.129 1.236,-0.986 2.503,-1.967 3.576,-3.12 3.995,-4.287 8.572,-7.76 13.936,-10.137 2.456,-1.087 4.742,-2.502 7.404,-3.202 4.996,-1.312 10.035,-2.287 15.183,-2.631 1.905,-0.126 3.829,0.043 5.745,0.062 4.446,0.044 8.813,-0.958 13.318,-0.662 3.648,0.24 7.298,0.09 10.929,0.858 3.546,0.751 7.098,1.321 9.712,4.186 0.151,0.165 0.513,0.179 0.781,0.191 2.143,0.097 4.152,0.455 6.149,1.462 3.077,1.552 6.397,2.613 9.529,4.066 1.769,0.819 3.368,2.004 4.963,2.975 -1.384,3.457 -2.678,6.559 -3.867,9.699 -1.037,2.742 -1.22,5.621 -1.061,8.647 m 60.523,97.77 c 0.172,0.384 0.295,0.592 0.36,0.817 0.47,1.626 0.899,3.265 1.397,4.882 0.744,2.413 1.623,4.787 2.28,7.223 0.661,2.452 1.144,4.955 1.665,7.444 0.814,3.879 1.652,7.754 2.371,11.651 0.793,4.302 1.386,8.643 2.212,12.938 0.554,2.879 0.908,5.76 1.04,8.685 0.096,2.121 -0.486,3.89 -2.277,5.116 -0.335,0.23 -0.918,0.377 -1.274,0.248 C 90.566,11.71 89.242,10.994 87.835,10.51 84.604,9.398 81.384,8.216 78.083,7.358 72.56,5.922 66.963,4.775 61.425,3.399 55.742,1.987 50.168,0.137 44.381,-0.862 c -0.745,-0.128 -1.494,-0.25 -2.247,-0.315 -1.55,-0.134 -3.105,-0.195 -4.653,-0.343 -2.659,-0.255 -5.308,-0.664 -7.972,-0.795 -1.72,-0.085 -3.554,-0.479 -5.136,0.67 -0.221,-0.94 -0.443,-1.884 -0.664,-2.828 -0.404,-1.732 -0.96,-3.444 -1.182,-5.199 -0.505,-3.995 -0.713,-8.03 -1.285,-12.013 -0.752,-5.243 -1.779,-10.446 -2.608,-15.679 -0.56,-3.535 -1.019,-7.087 -1.46,-10.639 -0.442,-3.561 -0.79,-7.133 -1.209,-10.697 -0.363,-3.084 -0.88,-6.154 -1.128,-9.247 -0.438,-5.484 -0.709,-10.981 -1.08,-16.471 -0.106,-1.569 -0.315,-3.13 -0.501,-4.931 0.634,0.17 1.001,0.254 1.358,0.367 3.45,1.1 6.905,2.183 10.344,3.315 3.619,1.189 7.308,2.221 10.809,3.695 4.496,1.89 8.95,3.923 13.115,6.51 2.539,1.576 5.142,3.057 7.607,4.743 1.981,1.355 3.846,2.897 5.677,4.457 2.309,1.968 5.09,3.271 7.322,5.345 1.68,1.563 3.513,2.97 5.128,4.596 2.771,2.792 5.533,5.603 7.637,8.978 0.361,0.578 0.902,1.41 1.938,0.556 M 6.436,-13.558 c -0.179,1.486 -0.359,3.463 -0.668,5.419 -0.271,1.713 -0.677,3.406 -1.044,5.102 -0.165,0.762 -0.418,1.32 -1.361,0.661 -0.313,-0.219 -0.842,-0.192 -1.268,-0.175 -2.492,0.096 -5.025,0.558 -7.466,0.263 -3.96,-0.48 -7.799,0.186 -11.679,0.529 -5.567,0.492 -11.128,1.049 -16.69,1.585 -4.273,0.413 -8.55,0.783 -12.813,1.274 -3.273,0.378 -6.551,0.796 -9.781,1.424 -2.067,0.402 -4.05,1.231 -6.076,1.85 -1.326,0.404 -2.641,0.921 -4,1.123 -1.634,0.242 -3.31,0.268 -4.968,0.264 -1.22,-0.003 -2.447,-0.157 -3.654,-0.351 -0.304,-0.049 -0.705,-0.467 -0.785,-0.785 -0.492,-1.95 -1.107,-3.902 -1.299,-5.89 -0.351,-3.636 -0.546,-7.297 -0.599,-10.95 -0.047,-3.264 0.073,-6.541 0.324,-9.796 0.282,-3.65 0.812,-7.28 1.201,-10.923 0.401,-3.762 0.675,-7.541 1.166,-11.291 0.479,-3.662 1.174,-7.295 1.75,-10.943 0.403,-2.562 0.687,-5.144 1.165,-7.691 0.718,-3.833 1.555,-7.643 2.359,-11.46 0.071,-0.34 0.184,-0.75 0.424,-0.961 0.865,-0.761 1.761,-1.496 2.701,-2.159 2.931,-2.068 6.139,-3.611 9.358,-5.192 7.559,-3.71 15.479,-6.164 23.796,-7.153 6.8,-0.807 13.652,-1.187 20.488,-1.661 1.812,-0.126 3.656,0.017 5.471,0.185 2.219,0.206 4.423,0.559 6.631,0.866 1.036,0.145 1.655,0.547 1.729,1.805 0.19,3.256 0.587,6.502 0.854,9.755 0.302,3.694 0.569,7.392 0.822,11.091 0.261,3.814 0.442,7.633 0.741,11.444 0.211,2.692 0.611,5.369 0.835,8.06 0.312,3.754 0.545,7.514 0.799,11.272 0.134,1.981 0.263,3.962 0.359,5.944 0.173,3.553 0.278,7.11 0.494,10.661 0.128,2.101 0.415,4.191 0.684,6.804 m -93.99,-51.11 c -0.132,-0.093 -0.263,-0.186 -0.395,-0.278 -0.676,0.327 -1.494,0.509 -2,1.009 -1.364,1.348 -2.824,2.61 -3.769,4.362 -0.833,1.547 -2.025,2.902 -2.832,4.459 -0.982,1.893 -1.732,3.907 -2.571,5.873 -0.261,0.613 -0.489,1.241 -0.723,1.865 -0.667,1.775 -1.283,3.571 -2.006,5.323 -0.997,2.419 -2.149,4.776 -3.099,7.212 -1.251,3.205 -2.373,6.461 -3.545,9.697 -1.42,3.919 -2.938,7.807 -4.219,11.771 -1.27,3.931 -2.359,7.923 -3.416,11.918 -1.052,3.974 -1.955,7.988 -2.945,11.979 -0.536,2.166 -1.06,4.336 -1.697,6.473 -0.471,1.574 -1.008,3.081 -0.304,4.738 0.486,1.145 1.164,1.668 2.29,1.276 1.428,-0.498 2.858,-1.049 4.181,-1.771 4.337,-2.367 8.62,-4.831 12.939,-7.231 0.702,-0.39 1.48,-0.642 2.224,-0.958 0.057,0.118 0.115,0.235 0.173,0.353 -0.305,0.228 -0.586,0.506 -0.92,0.676 -1.715,0.868 -2.539,2.299 -2.859,4.152 -0.418,2.42 0.136,4.754 0.473,7.111 0.023,0.157 0.226,0.314 0.381,0.419 1.244,0.843 2.642,1.392 4.107,1.016 1.512,-0.389 2.942,-1.094 4.037,-1.517 1.091,0.666 1.966,1.288 2.919,1.75 0.654,0.317 2.055,-0.547 2.029,-1.211 -0.038,-0.998 -0.841,-0.501 -1.35,-0.602 -0.913,-0.18 -1.726,-0.554 -1.777,-1.631 -0.057,-1.228 -0.169,-2.484 0.015,-3.687 0.304,-1.985 0.948,-2.42 2.984,-2.43 0.863,-0.004 1.726,0.025 2.589,0.027 2.415,0.004 4.829,10e-4 7.541,10e-4 0.071,1.489 0.249,3.017 0.187,4.536 -0.064,1.579 -3.551,3.246 -4.899,2.391 -0.217,-0.137 -0.253,-0.608 -0.314,-0.936 -0.164,-0.874 -1.153,-1.711 -1.975,-1.516 -0.652,0.154 -1.274,0.464 -1.884,0.757 -0.826,0.396 -1.272,0.947 -0.63,1.87 0.469,0.673 0.795,1.492 1.389,2.014 0.398,0.35 1.455,0.601 1.697,0.365 0.977,-0.955 2.194,-0.597 3.275,-0.851 3.692,-0.864 3.687,0.237 4.42,-4.097 0.051,-0.305 0.347,-0.714 0.623,-0.811 1.313,-0.464 2.676,-0.786 3.987,-1.255 2.021,-0.723 4.03,-1.487 6.015,-2.306 0.967,-0.399 1.537,-1.119 1.6,-2.282 0.148,-2.696 0.409,-5.386 0.648,-8.364 2.067,-0.621 4.348,-1.474 6.704,-1.974 3.142,-0.665 6.334,-1.127 9.521,-1.548 4.62,-0.611 9.249,-1.167 13.885,-1.637 5.108,-0.519 10.231,-0.884 15.342,-1.374 2.848,-0.274 5.678,-0.833 8.53,-0.96 3.256,-0.146 6.526,0.044 9.79,0.097 0.092,0.002 0.184,0.11 0.351,0.216 -0.163,0.13 -0.26,0.25 -0.386,0.302 -1.217,0.498 -2.504,0.873 -3.634,1.522 -0.594,0.342 -1.207,1.115 -1.304,1.769 -0.254,1.715 -0.333,3.473 -0.286,5.209 0.048,1.758 0.74,2.711 1.972,2.879 2.404,0.328 4.818,0.607 7.236,0.794 1.417,0.109 1.766,0.317 1.903,1.757 0.034,0.357 -0.036,0.739 0.068,1.07 0.138,0.439 0.304,1.093 0.624,1.214 1.518,0.571 3.084,1.355 4.648,1.39 2.922,0.065 5.857,-0.289 8.779,-0.563 1.622,-0.152 2.922,-0.845 3.099,-2.719 0.062,-0.65 0.42,-0.818 1.039,-0.868 2.531,-0.202 5.034,-0.48 7.447,-1.431 1.638,-0.645 2.663,-1.647 2.798,-3.365 C 33.297,7.105 33.329,5.418 33.231,3.75 33.13,2.042 31.902,1.008 30.203,0.779 28.546,0.555 26.9,0.233 25.262,-0.103 24.945,-0.167 24.681,-0.494 24.393,-0.7 c 0.626,-0.118 1.068,0.075 1.521,0.105 2.621,0.171 5.248,0.261 7.867,0.461 2.885,0.221 5.793,0.359 8.636,0.846 3.487,0.598 6.923,1.496 10.371,2.31 2.125,0.502 4.226,1.103 6.344,1.636 3.053,0.768 6.103,1.546 9.168,2.259 2.464,0.574 4.968,0.98 7.417,1.608 2.22,0.569 4.393,1.322 6.577,2.023 1.863,0.599 3.711,1.24 5.917,1.979 -1.678,0.822 -2.535,1.858 -2.676,3.362 -0.105,1.104 -0.131,2.215 -0.239,3.319 -0.176,1.832 0.621,2.993 2.318,3.644 2.001,0.768 3.939,1.719 5.976,2.368 2.836,0.904 3.315,1.326 3.498,3.998 0.188,2.739 2.319,4.566 5.062,4.272 0.897,-0.095 1.42,0.007 1.847,0.987 0.273,0.629 1.205,1.306 1.877,1.344 0.855,0.049 1.767,-0.495 1.969,-1.6 0.059,-0.319 0.176,-0.627 0.41,-1.443 0.497,1.698 1.31,1.199 1.918,0.799 0.837,-0.55 1.713,-1.168 2.277,-1.966 0.529,-0.75 0.675,-1.771 1.015,-2.749 0.217,0.167 0.439,0.272 0.568,0.446 2.62,3.54 4.889,7.267 5.703,11.675 0.445,2.414 1.117,4.883 0.97,7.284 -0.175,2.848 -1.051,5.667 -1.759,8.464 -0.407,1.61 -0.917,3.237 -1.67,4.709 -1.94,3.793 -4.067,7.487 -6.986,10.648 -2.487,2.692 -5.143,5.171 -8.477,6.804 -2.717,1.332 -5.395,2.751 -8.166,3.961 -3.057,1.335 -6.175,2.541 -9.312,3.679 -2.242,0.814 -4.55,1.453 -6.844,2.117 -2.336,0.676 -4.691,1.287 -7.036,1.929 -3.988,1.091 -7.946,2.312 -11.97,3.24 -3.399,0.783 -6.887,1.168 -10.314,1.839 -4.219,0.827 -8.408,1.808 -12.626,2.646 -3.436,0.682 -6.891,1.272 -10.345,1.862 -2.465,0.42 -4.94,0.78 -7.412,1.15 -1.928,0.289 -3.852,0.677 -5.792,0.793 -1.96,0.119 -3.942,-0.139 -5.907,-0.059 -2.901,0.117 -5.796,0.537 -8.694,0.549 -2.726,0.01 -5.449,-0.382 -8.178,-0.521 -1.884,-0.096 -3.776,-0.044 -5.664,-0.093 -2.548,-0.065 -5.097,-0.142 -7.643,-0.255 -2.579,-0.114 -5.177,-0.55 -7.73,-0.362 -5.758,0.424 -11.439,-0.312 -17.132,-0.808 -3.589,-0.312 -7.141,-1.033 -10.711,-1.57 -1.205,-0.181 -2.416,-0.33 -3.614,-0.549 -2.026,-0.37 -4.05,-0.758 -6.065,-1.185 -2.546,-0.539 -5.097,-1.067 -7.619,-1.706 -2.425,-0.614 -4.821,-1.344 -7.22,-2.057 -4.217,-1.253 -8.442,-2.484 -12.632,-3.822 -1.617,-0.517 -3.148,-1.303 -4.719,-1.963 -2.525,-1.061 -5.081,-2.055 -7.568,-3.198 -2.018,-0.927 -3.971,-2.001 -5.922,-3.068 -2.422,-1.326 -5.015,-2.454 -7.16,-4.143 -2.249,-1.771 -4.886,-3.039 -6.68,-5.49 -1.468,-2.006 -3.233,-3.784 -4.295,-6.087 -1.416,-3.071 -2.295,-6.201 -1.215,-9.573 0.1,-0.311 0.421,-0.69 0.715,-0.775 4.075,-1.178 6.603,-4.416 5.871,-9.067 -0.05,-0.323 0.068,-0.805 0.292,-1.019 2.383,-2.277 4.768,-4.552 7.225,-6.746 1.168,-1.043 2.63,-2.007 2.658,-3.638 0.049,-2.852 -0.07,-5.742 -0.511,-8.555 -0.256,-1.631 -1.48,-2.344 -3.023,-1.404 -0.824,0.502 -1.82,0.721 -2.84,1.106 -0.569,-2.111 -1.111,-4.055 -0.805,-6.124 0.315,-2.128 0.645,-4.255 0.926,-6.388 0.582,-4.426 1.02,-8.873 1.733,-13.277 0.872,-5.394 1.951,-10.754 2.968,-16.124 0.922,-4.868 1.837,-9.739 2.847,-14.589 0.33,-1.585 0.963,-3.105 1.436,-4.661 1.607,-5.299 3.177,-10.609 4.812,-15.9 1.945,-6.301 3.916,-12.595 5.927,-18.876 1.336,-4.175 2.767,-8.319 4.144,-12.48 1.524,-4.603 3.034,-9.21 4.55,-13.815 0.585,-1.778 1.12,-3.575 1.767,-5.331 1.36,-3.693 2.738,-7.38 4.191,-11.037 0.657,-1.656 1.562,-3.211 2.262,-4.853 0.751,-1.76 1.705,-3.157 3.905,-2.97 0.076,0.006 0.157,-0.027 0.234,-0.051 1.255,-0.389 2.516,-0.758 3.761,-1.176 1.022,-0.343 1.714,-0.141 1.838,0.57 0.147,0.845 0.257,1.711 0.532,2.517 0.384,1.128 0.656,2.457 1.436,3.243 0.855,0.86 0.574,1.523 0.299,2.288 -1.056,2.945 -2.202,5.859 -3.24,8.809 -0.983,2.793 -2.015,5.58 -2.775,8.436 -1.511,5.675 -2.999,11.365 -4.206,17.109 -0.797,3.793 -1.076,7.693 -1.61,11.542 -0.113,0.814 -0.331,1.613 -0.5,2.42 m -48.223,120.719 c -0.126,1.142 -0.388,2.089 -0.297,3.001 0.169,1.707 0.372,3.444 0.863,5.078 1.28,4.265 3.924,7.647 7.229,10.563 0.553,0.488 0.87,1.28 1.465,1.678 1.563,1.043 3.232,1.927 4.837,2.911 2.084,1.277 4.088,2.698 6.235,3.856 2.272,1.225 4.647,2.274 7.023,3.293 3.356,1.439 6.729,2.843 10.141,4.142 2.229,0.848 4.536,1.49 6.812,2.212 3.266,1.035 6.503,2.177 9.81,3.057 3.604,0.959 7.274,1.672 10.916,2.491 2.38,0.537 4.755,1.104 7.146,1.585 0.676,0.136 1.408,-0.037 2.103,0.037 0.927,0.099 1.842,0.312 2.765,0.455 1.99,0.307 3.984,0.589 5.972,0.908 0.643,0.103 1.264,0.357 1.909,0.431 1.637,0.186 3.284,0.288 4.922,0.463 2.015,0.216 4.021,0.522 6.039,0.691 1.199,0.101 2.413,0.004 3.62,0.013 1.501,0.011 3.003,0.008 4.502,0.068 2.932,0.118 5.863,0.28 8.794,0.415 3.441,0.158 6.881,0.31 10.322,0.457 1.502,0.065 3.004,0.111 4.506,0.162 2.331,0.077 4.664,0.264 6.991,0.197 2.65,-0.076 5.29,-0.434 7.94,-0.567 2.091,-0.105 4.19,-0.083 6.285,-0.065 1.934,0.015 3.809,0.116 5.658,-0.857 1.114,-0.585 2.537,-0.68 3.839,-0.79 4.053,-0.345 8.039,-0.997 11.968,-2.07 1.322,-0.361 2.742,-0.344 4.087,-0.64 3.231,-0.713 6.432,-1.557 9.667,-2.251 1.625,-0.35 3.318,-0.39 4.943,-0.741 4.952,-1.071 9.898,-2.171 14.82,-3.37 2.211,-0.538 4.345,-1.381 6.537,-2.003 2.389,-0.678 4.845,-1.138 7.199,-1.913 3.342,-1.101 6.661,-2.304 9.914,-3.646 3.697,-1.526 7.388,-3.106 10.931,-4.953 1.927,-1.005 3.541,-2.612 5.294,-3.951 0.685,-0.524 1.425,-0.996 2.029,-1.602 1.939,-1.941 3.799,-3.921 5.068,-6.431 1.304,-2.583 3.076,-4.94 4.268,-7.566 1.007,-2.22 1.417,-4.705 2.198,-7.037 1.774,-5.308 1.148,-10.52 -0.676,-15.633 -0.931,-2.61 -2.028,-5.199 -3.384,-7.611 -1.09,-1.94 -2.428,-3.795 -4.736,-4.7 -1.014,-0.397 -1.798,-1.381 -2.683,-2.103 -0.056,-0.046 -0.086,-0.132 -0.115,-0.204 -0.442,-1.074 0.694,-4.329 1.755,-4.655 1.019,-0.313 1.183,-1.046 1.329,-1.874 0.4,-2.284 0.08,-4.507 -0.427,-6.751 -0.911,-4.032 -1.647,-8.105 -2.549,-12.14 -0.798,-3.568 -1.651,-7.126 -2.612,-10.652 -0.842,-3.089 -1.893,-6.12 -2.805,-9.19 -1.074,-3.62 -2.034,-7.274 -3.163,-10.876 -1.126,-3.595 -2.376,-7.151 -3.611,-10.71 -1.435,-4.13 -2.826,-8.278 -4.405,-12.353 -0.916,-2.363 -2.167,-4.596 -3.26,-6.892 -1.16,-2.439 -2.309,-4.884 -3.465,-7.324 -1.601,-3.378 -3.182,-6.764 -4.813,-10.127 -1.231,-2.536 -2.488,-5.06 -3.807,-7.55 -1.166,-2.202 -2.491,-4.318 -3.643,-6.526 -1.242,-2.383 -2.322,-4.849 -3.548,-7.24 -1.594,-3.109 -3.219,-6.203 -4.917,-9.256 -0.811,-1.456 -1.842,-2.788 -2.738,-4.199 -1.833,-2.889 -3.459,-5.932 -5.512,-8.653 -1.972,-2.614 -2.954,-5.734 -4.794,-8.369 -2.039,-2.917 -4.225,-5.729 -6.387,-8.557 -0.355,-0.463 -0.914,-0.769 -1.481,-1.23 0.439,-0.896 1.006,-1.94 1.471,-3.028 1.751,-4.099 3.475,-8.209 5.196,-12.32 1.185,-2.83 2.309,-5.686 3.531,-8.5 2.271,-5.231 4.503,-10.483 6.925,-15.644 2.011,-4.281 4.427,-8.375 6.381,-12.68 2.271,-5.003 4.76,-9.957 5.892,-15.388 0.602,-2.89 0.997,-5.849 -0.386,-8.332 0.963,-3.046 2.783,-5.678 1.241,-8.762 -0.326,-0.652 -1.116,-1.242 -1.825,-1.505 -4.592,-1.696 -9.049,-0.73 -13.419,0.932 -1.599,0.608 -3.158,1.341 -4.687,2.111 -3.192,1.608 -6.57,2.973 -9.459,5.019 -2.513,1.779 -4.655,4.173 -5.184,7.584 -0.181,1.167 -0.817,2.528 -1.694,3.273 -2.744,2.333 -5.714,4.399 -8.566,6.607 -0.542,0.42 -0.945,1.018 -1.414,1.533 -0.13,0.141 -0.25,0.302 -0.404,0.41 -2.063,1.441 -4.111,2.905 -6.205,4.302 -1.87,1.246 -3.793,2.414 -5.69,3.62 -2.103,1.339 -4.158,2.76 -6.32,3.997 -1.598,0.915 -3.327,1.603 -5.008,2.372 -1.818,0.832 -3.617,1.722 -5.48,2.441 -2.873,1.11 -5.799,2.079 -8.692,3.139 -1.188,0.434 -2.321,1.027 -3.526,1.398 -0.693,0.213 -1.479,0.126 -2.223,0.174 -3.503,0.227 -7.004,0.49 -10.51,0.668 -3.068,0.156 -6.176,-0.038 -9.204,0.375 -4.929,0.672 -9.867,1.479 -14.685,2.691 -2.699,0.678 -5.235,2.156 -7.716,3.508 -2.651,1.445 -5.283,2.992 -7.68,4.814 -2.301,1.748 -4.281,3.917 -6.427,5.874 -0.364,0.332 -0.908,0.466 -1.275,0.796 -1.502,1.357 -3.078,2.681 -3.59,4.776 -0.108,0.442 -0.056,0.923 -0.077,1.387 -0.056,1.19 -0.068,2.387 -0.206,3.567 -0.026,0.222 -0.544,0.527 -0.855,0.554 -7.029,0.604 -14.05,1.233 -20.975,2.689 -2.247,0.473 -4.558,0.638 -6.837,0.944 -0.331,-1.876 0.44,-3.626 1.951,-4.547 0.737,-0.448 1.421,-1.008 2.202,-1.354 1.623,-0.719 3.21,-0.277 4.746,0.383 0.797,0.343 1.58,1.043 2.358,1.028 1.071,-0.021 2.475,-0.263 3.102,-0.971 0.635,-0.72 0.515,-2.118 0.675,-3.227 0.014,-0.1 -0.352,-0.256 -0.542,-0.385 -0.056,0.194 -0.186,0.401 -0.155,0.579 0.284,1.622 -0.163,2.404 -1.691,2.853 -0.174,0.051 -0.443,0.091 -0.554,-0.001 -1.693,-1.398 -3.83,-1.621 -5.827,-2.182 -0.868,-0.245 -1.638,-0.092 -2.487,0.632 -0.874,0.746 -2.216,0.979 -3.385,1.333 -0.947,0.288 -1.974,0.441 -2.751,-0.393 -0.244,-0.263 -0.454,-0.885 -0.313,-1.131 2.475,-4.299 3.719,-9.106 5.686,-13.609 0.29,-0.664 0.801,-1.23 1.302,-1.981 0.413,0.812 0.719,1.468 1.079,2.094 0.138,0.24 0.396,0.585 0.601,0.586 1.033,0.004 2.094,0.039 3.093,-0.178 1.512,-0.329 2.494,-3.785 1.514,-4.986 -0.343,-0.421 -0.604,-0.909 -1.01,-1.532 1.088,-0.309 2.051,-0.687 3.045,-0.808 0.356,-0.044 0.962,0.448 1.156,0.843 0.887,1.803 0.662,3.672 -0.184,5.392 -0.37,0.753 -1.267,1.231 -1.857,1.894 -1.11,1.248 -2.246,2.485 -3.225,3.834 -0.777,1.068 0.111,3.809 1.344,5.022 1.187,1.168 2.678,0.938 4.106,1.182 3.054,0.521 4.723,-1.544 6.436,-3.359 3.38,-3.58 4.82,-7.99 5.038,-12.851 0.095,-2.103 -0.777,-3.837 -1.947,-5.486 -0.218,-0.308 -0.37,-0.711 -0.412,-1.086 -0.136,-1.234 -0.317,-2.277 -1.899,-2.556 -0.628,-0.111 -1.056,-1.088 -1.702,-1.434 -0.914,-0.49 -1.941,-1.053 -2.928,-1.069 -3.154,-0.052 -6.262,0.507 -9.195,1.678 -3.586,1.433 -6.385,3.677 -7.135,7.782 -0.196,1.071 -0.72,2.099 -0.81,3.169 -0.068,0.794 0.069,1.863 0.562,2.395 1.197,1.293 1.549,2.42 0.684,4.094 -0.941,1.821 -1.468,3.849 -2.297,5.734 -0.715,1.627 -1.558,3.204 -2.424,4.758 -0.699,1.253 -0.398,2.303 0.951,2.875 2.689,1.14 2.788,1.272 1.756,3.936 -0.42,1.082 -1.328,2.007 -1.601,3.106 -0.408,1.637 -0.493,3.362 -0.634,5.056 -0.113,1.348 -0.14,2.706 -0.128,4.059 0.005,0.492 0.089,1.107 0.386,1.454 2.034,2.382 4.035,4.806 6.244,7.021 1.932,1.937 4.121,3.616 6.197,5.408 0.769,0.664 0.764,1.352 0.138,2.128 -0.869,1.079 -1.767,2.161 -1.9,3.648 -0.025,0.285 -0.234,0.572 -0.411,0.82 -0.412,0.576 -0.964,1.076 -1.269,1.699 -1.845,3.779 -3.723,7.543 -5.423,11.387 -2.117,4.786 -4.019,9.668 -6.116,14.464 -1.853,4.236 -3.904,8.385 -5.745,12.626 -0.687,1.584 -1.011,3.323 -1.535,4.981 -0.395,1.254 -0.851,2.488 -1.269,3.734 -1.442,4.304 -2.963,8.584 -4.292,12.922 -1.186,3.871 -2.204,7.795 -3.208,11.718 -0.686,2.679 -1.164,5.411 -1.835,8.094 -0.993,3.969 -2.105,7.908 -3.107,11.875 -0.466,1.844 -0.768,3.728 -1.196,5.583 -0.274,1.188 -0.692,2.344 -0.959,3.534 -1.111,4.974 -2.172,9.96 -3.287,14.933 -0.68,3.033 -1.447,6.045 -2.138,9.075 -0.733,3.218 -1.539,6.426 -2.094,9.675 -0.453,2.655 -0.675,5.359 -0.833,8.051 -0.222,3.773 -0.342,7.554 -0.394,11.334 -0.017,1.239 0.258,2.496 0.52,3.718 0.1,0.461 0.607,0.817 0.815,1.273 0.789,1.738 0.798,3.574 0.674,5.442 -0.061,0.925 0.062,1.869 0.175,2.797 0.088,0.721 1.782,1.658 2.97,1.701 0.428,0.015 0.858,0.002 1.357,0.002"
             style="fill:#000000;fill-opacity:1;fill-rule:nonzero;stroke:none"
             id="path22"
             inkscape:connector-curvature="0" /></g><g
           id="g24"
           transform="translate(381.9561,208.7984)"><path
             d="m 0,0 c -0.106,-0.386 -0.181,-0.706 -0.282,-1.017 -0.446,-1.358 -0.984,-2.692 -1.33,-4.074 -0.761,-3.038 -1.416,-6.102 -2.132,-9.152 -1.224,-5.212 -2.484,-10.415 -3.686,-15.632 -1.163,-5.041 -2.269,-10.094 -3.406,-15.141 -0.943,-4.192 -1.825,-8.399 -2.858,-12.568 -1.634,-6.591 -3.512,-13.125 -5.003,-19.748 -0.677,-3.005 -0.695,-6.163 -0.958,-9.255 -0.03,-0.343 0.291,-0.715 0.449,-1.074 0.333,0.286 0.847,0.508 0.972,0.867 1.035,2.946 2.112,5.886 2.948,8.891 0.819,2.943 1.358,5.962 2.043,8.943 0.481,2.09 1.038,4.164 1.492,6.259 0.349,1.609 0.566,3.245 0.888,4.861 0.308,1.55 0.669,3.09 1.014,4.632 0.926,4.127 1.822,8.261 2.802,12.375 0.395,1.657 1.042,3.252 1.458,4.905 0.515,2.045 0.891,4.126 1.361,6.183 0.555,2.427 1.129,4.851 1.73,7.268 0.618,2.494 1.264,4.981 1.924,7.465 0.95,3.579 1.928,7.15 2.887,10.727 C 2.944,-1.926 2.34,-0.786 0,0 m -2.965,-4.821 c 0.527,1.592 0.907,2.777 1.315,3.952 0.19,0.55 0.321,1.173 0.673,1.603 0.847,1.037 2.125,0.632 3.129,0.478 0.523,-0.08 1.162,-1.135 1.269,-1.824 0.217,-1.395 0.075,-2.843 0.154,-4.265 0.018,-0.32 0.311,-0.871 0.523,-0.894 1.548,-0.171 2.872,0.074 4.006,1.45 1.227,1.49 1.387,3.35 2.238,4.911 0.867,1.59 0.738,2.892 -0.159,4.29 C 9.946,5.248 9.644,5.585 9.472,5.98 9.348,6.265 9.392,6.623 9.36,6.948 c 0.343,-0.08 0.753,-0.07 1.012,-0.262 0.301,-0.223 0.451,-0.638 0.7,-0.942 0.192,-0.234 0.435,-0.425 0.735,-0.711 0.165,0.88 0.307,1.528 0.405,2.182 0.346,2.315 0.61,4.645 1.037,6.945 0.233,1.259 -0.312,2.108 -1.129,2.833 C 9.375,19.43 6.081,20.492 2.47,20.48 1.531,20.477 0.336,20.2 -0.297,19.588 c -2.251,-2.174 -3.522,-4.945 -4.298,-8.243 1.218,0.229 2.231,0.419 3.244,0.609 0.046,-0.145 0.093,-0.291 0.139,-0.436 -0.717,-0.892 -1.672,-1.343 -2.877,-1.415 -0.34,-0.02 -0.902,-0.155 -0.966,-0.36 -0.486,-1.575 -0.875,-3.181 -1.357,-5.016 1.475,0.439 2.619,0.779 3.762,1.12 L -2.363,5.494 C -2.641,5.212 -2.891,4.893 -3.203,4.659 -3.552,4.398 -4.045,4.293 -4.324,3.984 -5.048,3.182 -5.536,2.063 -6.399,1.514 c -1.268,-0.806 -0.67,-1.5 -0.198,-2.248 0.464,-0.733 1.004,-1.429 1.582,-2.077 0.606,-0.678 1.297,-1.279 2.05,-2.01 M -3.227,-6.68 c -2.142,1.571 -3.956,3.504 -5.311,5.795 -0.326,0.553 -0.076,1.523 0.075,2.266 0.355,1.741 0.805,3.463 1.229,5.189 0.14,0.571 0.307,1.136 0.476,1.699 0.645,2.144 1.144,4.348 1.987,6.411 0.832,2.034 1.875,4.019 3.11,5.834 0.524,0.772 1.728,1.39 2.69,1.501 4.289,0.494 8.229,-0.539 11.595,-3.338 1.975,-1.641 2.48,-3.921 1.985,-6.262 C 13.664,7.948 12.487,3.53 11.363,-0.898 11.082,-2.006 10.689,-3.095 10.255,-4.155 9.084,-7.016 6.798,-7.977 3.894,-7.626 3.063,-7.526 2.907,-7.783 2.716,-8.488 1.421,-13.262 0.023,-18.009 -1.248,-22.79 c -0.858,-3.23 -1.564,-6.501 -2.34,-9.752 -0.547,-2.288 -1.09,-4.576 -1.648,-6.86 -0.708,-2.894 -1.411,-5.791 -2.154,-8.677 -0.524,-2.04 -1.172,-4.049 -1.649,-6.099 -0.46,-1.976 -0.718,-3.998 -1.16,-5.979 -0.77,-3.448 -1.599,-6.885 -2.427,-10.32 -0.701,-2.903 -1.377,-5.815 -2.173,-8.691 -0.856,-3.094 -1.858,-6.147 -2.757,-9.229 -0.334,-1.144 -1.2,-1.148 -2.094,-1.101 -0.888,0.047 -1.298,0.562 -1.452,1.452 -0.299,1.743 -0.246,3.438 0.276,5.133 0.105,0.341 0.033,0.748 -0.004,1.121 -0.253,2.548 0.601,4.898 1.245,7.297 0.895,3.334 1.718,6.689 2.543,10.042 1.384,5.625 2.755,11.254 4.115,16.886 1.144,4.738 2.292,9.475 3.386,14.225 0.897,3.891 1.68,7.81 2.589,11.699 0.434,1.856 1.065,3.666 1.57,5.507 0.209,0.763 0.299,1.558 0.478,2.331 0.55,2.374 1.115,4.744 1.677,7.125"
             style="fill:#000000;fill-opacity:1;fill-rule:nonzero;stroke:none"
             id="path26"
             inkscape:connector-curvature="0" /></g><g
           id="g28"
           transform="translate(342.7275,127.1622)"><path
             d="m 0,0 c 0.102,-0.024 0.203,-0.048 0.305,-0.072 0.238,1.031 0.669,2.06 0.675,3.093 0.022,3.043 0.021,6.099 -0.235,9.127 -0.566,6.714 -1.31,13.412 -1.947,20.119 -0.33,3.477 -0.595,6.96 -0.87,10.441 -0.272,3.442 -0.506,6.887 -0.782,10.328 -0.287,3.571 -0.608,7.141 -0.905,10.711 -0.211,2.539 -0.427,5.078 -0.603,7.619 -0.179,2.574 -0.425,5.153 -0.428,7.728 -0.003,1.801 -0.175,3.501 -1.256,4.955 -0.35,0.472 -1.055,0.681 -1.598,1.011 -0.267,-0.518 -0.775,-1.041 -0.762,-1.552 0.08,-3.42 0.052,-6.864 0.478,-10.248 0.623,-4.939 0.222,-9.949 1.282,-14.858 0.559,-2.589 0.763,-5.262 1.036,-7.907 0.406,-3.956 0.747,-7.92 1.085,-11.883 0.226,-2.653 0.385,-5.313 0.603,-7.967 0.251,-3.062 0.491,-6.124 0.812,-9.179 C -2.579,16.405 -2.057,11.342 -1.391,6.298 -1.11,4.175 -0.475,2.098 0,0 m -10.11,79.816 c 0.224,2.213 0.418,4.232 0.652,6.247 0.025,0.218 0.243,0.488 0.446,0.601 1.275,0.713 2.995,0.34 3.823,-0.87 1.245,-1.82 1.603,-3.94 1.876,-6.065 0.074,-0.58 0.062,-1.176 0.839,-0.814 1.993,0.926 3.574,2.147 3.27,4.827 -0.488,4.316 -0.858,8.646 -1.353,12.962 -0.198,1.727 -0.438,3.478 -0.944,5.13 -0.48,1.571 -1.606,2.594 -3.33,3.112 -2.269,0.681 -4.427,0.007 -6.636,-0.049 -2.368,-0.061 -3.752,-1.579 -5.06,-3.191 -0.613,-0.756 -1.304,-1.688 -1.378,-2.588 -0.144,-1.723 0.106,-3.482 0.237,-5.222 0.072,-0.974 0.624,-0.663 1.177,-0.394 0.438,0.212 0.915,0.345 1.375,0.513 -0.276,-0.479 -0.542,-0.964 -0.831,-1.435 -0.08,-0.131 -0.216,-0.24 -0.348,-0.326 -0.851,-0.549 -0.959,-1.263 -0.843,-2.266 0.294,-2.553 1.179,-4.902 2.511,-7.014 0.699,-1.109 1.966,-1.891 3.064,-2.703 0.454,-0.336 1.135,-0.363 1.453,-0.455 m 2.706,27.456 c 4.258,-0.21 7.093,-2.233 7.59,-6.6 0.294,-2.607 0.874,-5.181 1.168,-7.787 0.379,-3.364 0.687,-6.74 0.864,-10.119 0.128,-2.446 -1.591,-4.562 -4.329,-5.535 -0.853,-0.303 -1.062,-0.702 -1.012,-1.57 0.143,-2.506 0.103,-5.022 0.266,-7.526 0.164,-2.539 0.492,-5.068 0.725,-7.602 0.049,-0.537 -0.061,-1.09 0,-1.624 0.285,-2.506 0.646,-5.004 0.898,-7.513 0.157,-1.568 0.155,-3.151 0.25,-4.726 0.142,-2.382 0.306,-4.763 0.465,-7.144 0.171,-2.573 0.281,-5.153 0.536,-7.718 C 0.394,28.02 0.937,24.247 1.294,20.457 1.702,16.139 2.102,11.813 2.275,7.481 2.373,5.054 2.104,2.595 1.79,0.178 1.693,-0.567 1.003,-1.336 0.396,-1.884 c -0.658,-0.593 -1.741,-0.03 -1.888,0.853 -0.368,2.21 -0.809,4.41 -1.086,6.632 -0.309,2.474 -0.429,4.972 -0.701,7.453 -0.386,3.508 -0.904,7.002 -1.241,10.513 -0.472,4.92 -0.822,9.852 -1.244,14.776 -0.113,1.311 -0.318,2.613 -0.45,3.923 -0.349,3.48 -0.63,6.968 -1.037,10.442 -0.431,3.675 -1.057,7.327 -1.445,11.005 -0.31,2.932 -0.366,5.89 -0.579,8.832 -0.124,1.706 -0.314,3.409 -0.54,5.104 -0.031,0.227 -0.425,0.517 -0.699,0.584 -2.767,0.683 -4.638,2.205 -5.965,4.868 -1.444,2.895 -2.148,5.83 -2.279,8.993 -0.095,2.26 -0.312,4.516 -0.4,6.777 -0.064,1.608 0.325,3.016 1.776,4.053 0.703,0.503 1.039,1.498 1.712,2.07 1.316,1.119 2.788,1.907 4.642,1.888 1.305,-0.014 2.615,0.273 3.624,0.39"
             style="fill:#000000;fill-opacity:1;fill-rule:nonzero;stroke:none"
             id="path30"
             inkscape:connector-curvature="0" /></g><g
           id="g32"
           transform="translate(77.1167,332.793)"><path
             d="M 0,0 C 0.076,-0.141 0.152,-0.281 0.229,-0.421 -0.189,-1.34 -0.824,-2.046 -1.837,-2.413 -2.359,-2.602 -2.931,-2.749 -3.362,-3.072 -4.781,-4.138 -6.18,-5.237 -7.506,-6.414 -7.851,-6.72 -8.188,-7.5 -8.032,-7.818 c 0.502,-1.026 1.057,-2.161 1.914,-2.853 2.984,-2.409 6.035,-4.749 9.201,-6.909 1.528,-1.043 3.329,-1.737 5.081,-2.39 2.541,-0.947 5.207,-1.571 7.717,-2.587 4.406,-1.785 8.946,-3.068 13.578,-4.048 4.413,-0.934 8.848,-1.758 13.26,-2.693 4.733,-1.002 9.492,-1.754 14.329,-2.058 6.016,-0.379 12.023,-0.898 18.037,-1.316 2.629,-0.183 5.269,-0.206 7.897,-0.408 6.007,-0.46 12.007,-1.003 18.014,-1.466 1.127,-0.087 2.492,-0.397 2.749,1.379 0.013,0.093 0.158,0.173 0.252,0.248 1.935,1.559 3.514,3.48 5.795,4.719 1.905,1.035 3.872,1.415 5.928,1.821 -1.917,-1.202 -4.062,-2.017 -5.891,-3.288 -1.91,-1.327 -3.515,-3.093 -5.252,-4.667 0.857,-0.365 1.537,-0.548 2.181,-0.46 1.837,0.251 3.764,-0.495 5.514,0.894 2.876,2.282 5.897,4.382 8.892,6.51 0.677,0.481 1.473,0.626 2.027,-0.315 -3.025,-2.181 -6.007,-4.331 -8.99,-6.482 0.365,-0.333 0.584,-0.396 0.798,-0.38 4.336,0.324 8.677,0.601 13.006,1.003 6.916,0.642 13.833,1.295 20.733,2.089 3.96,0.456 7.898,1.134 11.825,1.833 4.031,0.717 8.015,1.716 12.058,2.35 5.504,0.864 10.929,1.949 16.024,4.276 3.446,1.574 6.826,3.292 10.276,4.855 4.447,2.015 8.308,4.855 11.803,8.21 1.105,1.061 1.95,2.389 3.02,3.493 2.564,2.646 4.051,5.844 4.085,9.451 0.039,4.16 -1.11,8.105 -3.857,11.387 -0.684,0.817 -1.627,1.419 -2.671,2.307 -0.032,1.179 -1.528,1.482 -2.468,1.997 -2.263,1.237 -4.673,2.249 -7.109,3.115 -3.79,1.348 -7.649,2.504 -11.481,3.731 -1.409,0.451 -2.752,1.048 -4.273,0.083 -1.456,-0.924 -3.081,-1.579 -4.624,-2.369 -0.596,-0.306 -1.17,-0.655 -1.754,-0.985 -0.094,0.158 -0.188,0.316 -0.282,0.474 1.427,2.537 4.145,3.307 6.573,4.472 -0.057,0.089 -0.086,0.192 -0.141,0.211 -4.674,1.482 -9.301,3.145 -14.039,4.384 -4.928,1.29 -9.963,2.172 -14.953,3.231 -5.217,1.107 -10.463,2.018 -15.794,2.382 -4.85,0.332 -9.696,0.736 -14.547,1.046 -4.411,0.282 -8.826,0.532 -13.242,0.695 -2.666,0.099 -5.338,-0.03 -8.007,0.011 -2.661,0.041 -5.324,0.275 -7.982,0.228 C 93.571,39.329 89.967,39.065 86.362,38.911 84.172,38.817 81.964,38.913 79.793,38.67 75.753,38.218 71.735,37.569 67.705,37.026 65.572,36.739 63.436,36.484 61.297,36.247 57.308,35.803 53.283,35.574 49.334,34.897 45.542,34.246 41.81,33.205 38.082,32.218 34.116,31.167 30.186,29.983 26.243,28.847 25.515,28.637 24.807,28.356 24.081,28.142 19.659,26.832 15.123,25.845 11.029,23.605 8.517,22.231 5.942,20.934 3.582,19.33 0.703,17.373 -2.209,15.44 -4.759,13.02 -6.768,11.113 -9.046,9.489 -10.345,6.922 c -0.922,-1.823 -0.832,-3.801 -1.349,-5.983 0.692,0.243 1.067,0.335 1.405,0.502 0.635,0.312 1.225,0.731 1.879,0.989 0.858,0.339 1.132,-0.424 1.352,-0.978 0.063,-0.159 -0.406,-0.613 -0.709,-0.819 -0.882,-0.604 -1.849,-1.093 -2.685,-1.752 -0.281,-0.222 -0.474,-0.898 -0.348,-1.229 0.352,-0.918 0.938,-1.744 1.347,-2.645 0.384,-0.845 0.749,-0.871 1.4,-0.24 1.171,1.134 2.296,2.372 3.647,3.248 C -3.07,-1.119 -1.479,-0.646 0,0 m 126.991,-35.231 c -1.987,-0.196 -3.97,-0.437 -5.961,-0.576 -3.292,-0.231 -6.587,-0.464 -9.884,-0.568 -3.413,-0.107 -6.831,-0.127 -10.244,-0.065 -3.013,0.056 -6.028,0.206 -9.033,0.44 -6.237,0.487 -12.465,1.084 -18.701,1.586 -6.475,0.521 -12.951,1.067 -19.435,1.446 -5.822,0.34 -11.383,1.996 -17.059,3.075 -2.308,0.439 -4.646,0.744 -6.933,1.268 -3.527,0.808 -7.056,1.64 -10.519,2.677 -2.578,0.773 -5.043,1.917 -7.578,2.841 -1.536,0.56 -3.142,0.935 -4.662,1.533 -5.256,2.066 -9.95,5.107 -13.945,9.044 -1.58,1.557 -2.427,3.865 -3.577,5.85 -0.976,1.685 -1.981,3.37 -2.133,5.384 -0.073,0.973 -0.254,1.963 -0.153,2.921 0.183,1.738 0.392,3.501 0.878,5.17 0.303,1.041 0.984,2.079 1.758,2.855 2.342,2.346 4.796,4.581 7.242,6.821 0.803,0.736 1.66,1.443 2.588,2.006 3.119,1.893 6.296,3.69 9.423,5.57 3.386,2.035 7.099,3.146 10.904,4.044 0.555,0.132 1.016,0.637 1.57,0.801 3.59,1.06 7.197,2.065 10.794,3.106 3.366,0.974 6.698,2.081 10.097,2.92 2.469,0.61 5.023,0.876 7.538,1.301 2.174,0.367 4.344,0.766 6.522,1.102 0.861,0.132 1.748,0.085 2.613,0.197 5.321,0.689 10.628,1.503 15.962,2.071 4.152,0.443 8.333,0.625 12.506,0.855 2.985,0.165 5.977,0.294 8.966,0.297 3.787,0.005 7.574,-0.109 11.36,-0.217 5.857,-0.168 11.717,-0.311 17.57,-0.586 3.98,-0.187 7.952,-0.572 11.925,-0.891 2.757,-0.22 5.535,-0.331 8.263,-0.753 4.054,-0.626 8.077,-1.456 12.102,-2.251 5.55,-1.097 11.101,-2.188 16.626,-3.397 1.977,-0.433 3.894,-1.163 5.812,-1.831 2.327,-0.811 4.622,-1.711 6.938,-2.553 2.621,-0.952 5.228,-1.951 7.882,-2.802 2.602,-0.834 5.304,-1.369 7.869,-2.293 2.087,-0.75 4.051,-1.853 6.042,-2.855 2.283,-1.148 4.486,-2.438 6.093,-4.495 2.145,-2.741 3.383,-5.896 3.986,-9.295 0.552,-3.107 0.486,-6.253 -0.829,-9.125 -0.842,-1.839 -2.22,-3.464 -3.514,-5.058 -2.388,-2.942 -4.95,-5.742 -8.202,-7.764 -2.57,-1.596 -5.143,-3.22 -7.852,-4.554 -3.501,-1.724 -7.168,-3.109 -10.712,-4.752 -5.652,-2.62 -11.677,-3.658 -17.776,-4.516 -3.228,-0.454 -6.399,-1.304 -9.611,-1.89 -3.68,-0.671 -7.369,-1.312 -11.071,-1.843 -3.109,-0.446 -6.243,-0.72 -9.367,-1.06 -3.957,-0.431 -7.915,-0.856 -11.873,-1.272 -0.394,-0.041 -0.797,-0.005 -1.196,-0.005 -0.003,0.028 -0.006,0.057 -0.009,0.086"
             style="fill:#000000;fill-opacity:1;fill-rule:nonzero;stroke:none"
             id="path34"
             inkscape:connector-curvature="0" /></g><g
           id="g36"
           transform="translate(281.4824,293.9722)"><path
             d="M 0,0 C -0.013,0.224 -0.026,0.448 -0.039,0.671 -0.561,0.637 -1.081,0.603 -1.603,0.568 -1.58,0.351 -1.562,-0.055 -1.535,-0.056 -1.024,-0.065 -0.512,-0.028 0,0 M 1.276,0.979 C 1.191,-0.563 -0.312,-1.869 -1.558,-1.845 -2.419,-1.829 -3.034,-1.083 -2.81,0.061 -2.648,0.886 -2.999,2.228 -1.663,2.343 -0.787,2.418 0.155,2.096 1.01,1.791 1.24,1.708 1.26,1.036 1.276,0.979"
             style="fill:#000000;fill-opacity:1;fill-rule:nonzero;stroke:none"
             id="path38"
             inkscape:connector-curvature="0" /></g><g
           id="g40"
           transform="translate(117.002,288.8018)"><path
             d="M 0,0 C -0.01,-1.889 -0.914,-2.862 -2.11,-2.117 -2.781,-1.7 -3.265,-0.75 -3.509,0.057 -3.77,0.918 -3.408,1.85 -2.696,2.46 -1.985,3.07 -0.179,1.954 -0.006,0.832 0.036,0.561 0,0.277 0,0"
             style="fill:#000000;fill-opacity:1;fill-rule:nonzero;stroke:none"
             id="path42"
             inkscape:connector-curvature="0" /></g><g
           id="g44"
           transform="translate(93.1704,297.4859)"><path
             d="m 0,0 c -0.098,-0.866 -0.07,-1.645 -0.31,-2.331 -0.131,-0.377 -0.746,-0.864 -1.084,-0.823 -0.466,0.056 -1.03,0.475 -1.281,0.899 -0.661,1.122 -0.934,2.333 0.502,3.111 0.471,0.256 1.136,0.338 1.66,0.235 C -0.272,1.043 -0.156,0.358 0,0"
             style="fill:#000000;fill-opacity:1;fill-rule:nonzero;stroke:none"
             id="path46"
             inkscape:connector-curvature="0" /></g><g
           id="g48"
           transform="translate(214.6641,284.3433)"><path
             d="M 0,0 C 0.652,-0.097 1.75,0.18 1.963,-1.091 2.197,-2.488 1.291,-3.905 0.208,-4.024 -1.028,-4.159 -2.026,-3.15 -2.153,-1.636 -2.238,-0.618 -1.673,-0.146 0,0"
             style="fill:#000000;fill-opacity:1;fill-rule:nonzero;stroke:none"
             id="path50"
             inkscape:connector-curvature="0" /></g><g
           id="g52"
           transform="translate(188.2354,283.4366)"><path
             d="M 0,0 C 0.542,0 0.997,0.011 1.451,-0.003 2.226,-0.027 2.813,-1.591 2.302,-2.526 2.054,-2.979 1.523,-3.277 1.121,-3.646 0.607,-3.019 -0.081,-2.459 -0.358,-1.741 -0.542,-1.268 -0.135,-0.565 0,0"
             style="fill:#000000;fill-opacity:1;fill-rule:nonzero;stroke:none"
             id="path54"
             inkscape:connector-curvature="0" /></g><g
           id="g56"
           transform="translate(203.6973,288.5874)"><path
             d="M 0,0 C -0.374,1.228 -1.975,2.552 -2.372,2.042 -2.705,1.614 -2.628,0.742 -2.502,0.113 -2.345,-0.673 -1.425,-0.698 0,0 M 0.723,-1.156 C 0.521,-1.239 0.294,-1.314 0.085,-1.422 c -0.963,-0.498 -1.978,-1.099 -2.96,-0.194 -1.106,1.02 -1.458,3.029 -0.78,4.186 0.169,0.288 0.689,0.416 1.074,0.514 0.244,0.063 0.536,-0.103 0.807,-0.101 C 0.317,3 1.208,1.993 0.903,-0.067 0.852,-0.419 0.788,-0.769 0.723,-1.156"
             style="fill:#000000;fill-opacity:1;fill-rule:nonzero;stroke:none"
             id="path58"
             inkscape:connector-curvature="0" /></g><g
           id="g60"
           transform="translate(51.541,327.8926)"><path
             d="M 0,0 C 0.115,0.928 1.2,0.71 1.97,0.777 3.082,0.874 4.282,-0.358 4.255,-1.386 4.226,-2.565 3.558,-3.39 2.682,-3.33 1.295,-3.233 -0.054,-1.746 0,0"
             style="fill:#000000;fill-opacity:1;fill-rule:nonzero;stroke:none"
             id="path62"
             inkscape:connector-curvature="0" /></g><g
           id="g64"
           transform="translate(342.0566,215.0337)"><path
             d="m 0,0 c -1.302,0.707 -2.429,1.286 -3.513,1.937 -0.212,0.126 -0.295,0.525 -0.352,0.815 -0.016,0.075 0.276,0.274 0.45,0.314 C -2.383,3.3 -0.112,1.47 0,0"
             style="fill:#000000;fill-opacity:1;fill-rule:nonzero;stroke:none"
             id="path66"
             inkscape:connector-curvature="0" /></g><g
           id="g68"
           transform="translate(328.5049,212.3267)"><path
             d="M 0,0 C -0.392,0.881 1.15,2.974 2.886,3.679 2.084,2.156 1.623,0.715 0,0"
             style="fill:#000000;fill-opacity:1;fill-rule:nonzero;stroke:none"
             id="path70"
             inkscape:connector-curvature="0" /></g><g
           id="g72"
           transform="translate(269.6924,356.9722)"><path
             d="M 0,0 C 0.468,-0.294 0.835,-0.526 1.203,-0.758 0.906,-0.998 0.645,-1.332 0.306,-1.462 -1.355,-2.1 -3.032,-2.7 -4.72,-3.265 c -0.23,-0.077 -0.552,0.122 -0.833,0.193 0.085,0.306 0.085,0.807 0.269,0.888 C -3.559,-1.422 -1.801,-0.732 0,0"
             style="fill:#000000;fill-opacity:1;fill-rule:nonzero;stroke:none"
             id="path74"
             inkscape:connector-curvature="0" /></g></g></g></g></svg>