<?xml version="1.0" encoding="UTF-8" standalone="no"?>
<!-- Created with Inkscape (http://www.inkscape.org/) -->

<svg
   xmlns:dc="http://purl.org/dc/elements/1.1/"
   xmlns:cc="http://creativecommons.org/ns#"
   xmlns:rdf="http://www.w3.org/1999/02/22-rdf-syntax-ns#"
   xmlns:svg="http://www.w3.org/2000/svg"
   xmlns="http://www.w3.org/2000/svg"
   xmlns:sodipodi="http://sodipodi.sourceforge.net/DTD/sodipodi-0.dtd"
   xmlns:inkscape="http://www.inkscape.org/namespaces/inkscape"
   version="1.1"
   id="svg2"
   xml:space="preserve"
   width="736"
   height="816"
   viewBox="0 0 736 816"
   sodipodi:docname="Trombone.svg"
   inkscape:version="0.92.4 (5da689c313, 2019-01-14)"><metadata
     id="metadata8"><rdf:RDF><cc:Work
         rdf:about=""><dc:format>image/svg+xml</dc:format><dc:type
           rdf:resource="http://purl.org/dc/dcmitype/StillImage" /><dc:title></dc:title></cc:Work></rdf:RDF></metadata><defs
     id="defs6"><clipPath
       clipPathUnits="userSpaceOnUse"
       id="clipPath18"><path
         d="M 0,612 H 552 V 0 H 0 Z"
         id="path16"
         inkscape:connector-curvature="0" /></clipPath></defs><sodipodi:namedview
     pagecolor="#ffffff"
     bordercolor="#666666"
     borderopacity="1"
     objecttolerance="10"
     gridtolerance="10"
     guidetolerance="10"
     inkscape:pageopacity="0"
     inkscape:pageshadow="2"
     inkscape:window-width="640"
     inkscape:window-height="480"
     id="namedview4"
     showgrid="false"
     inkscape:zoom="0.28921569"
     inkscape:cx="-1.9661017"
     inkscape:cy="408"
     inkscape:window-x="0"
     inkscape:window-y="0"
     inkscape:window-maximized="0"
     inkscape:current-layer="g10" /><g
     id="g10"
     inkscape:groupmode="layer"
     inkscape:label="Trombone"
     transform="matrix(1.3333333,0,0,-1.3333333,0,816)"><g
       id="g12"><g
         id="g14"
         clip-path="url(#clipPath18)"><g
           id="g20"
           transform="translate(241.2891,412.0889)"><path
             d="M 0,0 C 1.689,-1.285 3.595,-1.537 5.457,-1.875 7.234,-2.197 8.906,-3.123 11.289,-3.174 10.119,-1.707 9.506,-0.263 8.442,0.253 6.328,1.281 3.979,1.844 1.693,2.477 1.328,2.578 0.604,2.15 0.373,1.769 0.075,1.277 0.106,0.586 0,0 m -36.768,-47.044 c -1.875,-1.686 -1.783,-3.17 0.237,-4.345 4.206,-2.444 8.871,-3.342 13.62,-3.867 0.765,-0.085 1.586,0.323 2.528,0.538 -0.664,1.453 -1.653,1.819 -2.731,2.147 -2.115,0.645 -4.205,1.367 -6.305,2.059 -0.604,0.199 -1.192,0.501 -1.812,0.591 -2.191,0.319 -4.083,1.196 -5.537,2.877 M 0.71,-55.553 c -1.683,-1.481 -1.946,-2.06 -1.117,-3.658 0.491,-0.948 1.219,-2.086 2.119,-2.449 2.639,-1.064 5.371,-2.018 8.155,-2.568 2.567,-0.507 3.145,0.221 3.568,3.326 -4.149,1.937 -8.864,2.705 -12.725,5.349 m -0.155,34.029 c -0.418,-1.36 -0.841,-2.631 -1.195,-3.921 -0.346,-1.262 0.106,-2.173 1.336,-2.68 2.13,-0.876 4.251,-1.779 6.392,-2.629 0.482,-0.191 1.032,-0.21 1.777,-0.35 0.462,1.737 0.997,3.32 1.27,4.946 0.152,0.901 -0.007,1.929 -1.186,2.305 -2.199,0.7 -4.386,1.439 -6.592,2.117 -0.508,0.156 -1.073,0.132 -1.802,0.212 m 49.02,113.758 c -5.434,1.825 -21.811,5.522 -23.756,5.35 V 94.99 c 1.858,-0.469 3.647,-0.854 5.397,-1.373 4.194,-1.244 8.345,-2.646 12.565,-3.787 1.69,-0.456 3.205,-1.826 5.314,-1.23 0.157,1.188 0.31,2.348 0.48,3.634 m -13.289,40.195 c 7.599,-2.441 14.946,-4.802 22.437,-7.209 0.233,1.759 0.417,3.141 0.564,4.254 -2.058,0.576 -4.02,0.933 -5.828,1.672 -3.715,1.517 -7.517,2.533 -11.512,2.926 -1.619,0.159 -3.208,0.62 -4.928,0.969 -0.272,-0.968 -0.481,-1.712 -0.733,-2.612 m -46.639,-143.43 c 0.368,0.089 0.898,0.053 1.103,0.294 0.867,1.018 1.745,2.056 2.4,3.211 0.399,0.704 -0.594,2.487 -1.366,2.747 -3.465,1.165 -6.914,2.383 -10.416,3.422 -2.613,0.775 -4.071,-0.084 -4.945,-2.577 -0.48,-1.368 -0.196,-2.089 1.142,-2.683 1.808,-0.804 3.604,-1.648 5.462,-2.319 2.159,-0.781 4.379,-1.394 6.62,-2.095 m 24.459,-34.245 c 1.932,4.344 4.111,12.511 4.152,15.447 -1.805,0.515 -3.623,1.075 -5.464,1.543 -1.313,0.334 -1.724,0.056 -2.043,-1.265 -0.26,-1.075 -0.354,-2.197 -0.676,-3.251 -0.987,-3.222 -2.049,-6.42 -3.089,-9.652 2.426,-1.315 4.541,-2.509 7.12,-2.822 m 8.983,169.968 c -2.2,0.87 -4.306,1.703 -6.543,2.587 -2.31,-5.634 -4.938,-10.986 -5.179,-17.311 2.332,-0.246 4.663,-0.491 6.691,-0.704 1.728,5.299 3.369,10.331 5.031,15.428 M -122.526,-353.14 c 0.734,0.852 1.214,1.275 1.529,1.797 1.438,2.389 2.961,4.739 4.203,7.229 1.432,2.867 2.283,5.954 2.275,9.197 -0.003,1.607 -0.755,3.237 0.282,4.803 0.124,0.187 -0.055,0.621 -0.168,0.912 -0.535,1.38 -3.632,3.289 -5.058,2.978 -0.493,-0.107 -1.089,-0.681 -1.242,-1.168 -0.202,-0.636 -0.112,-1.419 0.029,-2.102 0.339,-1.635 0.749,-3.257 1.19,-4.867 0.484,-1.765 0.46,-3.462 -0.465,-5.084 -1.528,-2.677 -3.01,-5.382 -4.618,-8.011 -0.66,-1.078 -0.873,-2.056 -0.128,-3.086 0.586,-0.81 1.28,-1.541 2.171,-2.598 m 39.925,20.216 c -2.712,-2.79 -2.841,-5.239 -0.3,-7.764 1.048,-1.041 2.356,-1.911 3.691,-2.559 4.341,-2.106 7.123,-2.239 10.672,0.54 1.873,1.467 2.339,3.306 1.328,5.712 -3.223,-0.868 -6.218,-0.243 -9.149,1.339 -2.011,1.086 -4.195,1.85 -6.242,2.732 M 65.963,96.989 c 3.93,-1.287 7.607,-2.492 11.633,-3.811 0.705,4.176 1.383,8.197 2.043,12.102 -3.766,1.211 -7.22,2.322 -10.84,3.486 -0.906,-3.763 -1.831,-7.607 -2.836,-11.777 M 5.062,-43.188 c -0.69,-1.329 -1.277,-2.607 -1.995,-3.807 -1.115,-1.863 -1.238,-3.918 -1.301,-5.988 -0.039,-1.256 0.567,-2.07 1.786,-2.516 1.79,-0.654 3.53,-1.441 5.316,-2.105 0.737,-0.273 1.535,-0.401 2.315,-0.542 1.198,-0.216 2.069,0.347 2.495,1.399 0.981,2.434 1.886,4.898 2.767,7.37 0.177,0.496 0.108,1.079 0.17,1.839 -4.265,0.187 -7.702,2.388 -11.553,4.35 M 37.057,-3.64 C 33.656,-2.101 30.662,-0.372 27.44,0.625 22.749,2.076 17.903,3.039 13.105,4.131 11.25,4.553 10.154,3.425 10.492,1.57 c 0.357,-1.963 1.499,-3.345 3.403,-3.941 4.239,-1.326 8.495,-2.597 12.756,-3.85 1.899,-0.558 3.869,-0.9 5.723,-1.57 1.168,-0.421 1.82,-0.067 2.419,0.793 0.676,0.973 1.325,1.963 2.264,3.358 m -54.483,-24.456 c 0.108,0.773 0.152,1.411 0.292,2.028 0.438,1.927 2.177,3.083 4.102,2.638 1.851,-0.428 3.669,-1.002 5.509,-1.481 1.527,-0.399 3.065,-0.753 4.81,-1.179 0.356,1.231 0.675,2.332 1.043,3.603 -1.148,0.418 -2.099,0.787 -3.065,1.111 -2.264,0.757 -4.551,1.446 -6.797,2.252 -1.928,0.692 -2.715,2.169 -2.258,4.13 0.231,0.99 0.609,1.945 0.94,2.979 -2.641,0.9 -5.242,1.786 -8.041,2.739 -1.682,-5.682 -3.297,-11.138 -4.95,-16.718 2.515,-1.854 5.077,-3.033 8.415,-2.102 m 48.429,18.838 c -6.031,1.737 -12.03,3.466 -18.128,5.223 -0.546,-2.336 -0.08,-4.357 1.187,-6.216 0.851,-1.249 1.363,-2.653 0.829,-4.057 -0.728,-1.913 -1.798,-3.692 -2.641,-5.566 -0.455,-1.01 -0.864,-2.072 -1.072,-3.153 -0.218,-1.129 -0.037,-2.318 1.146,-2.896 1.498,-0.734 3.021,-1.477 4.613,-1.94 1.976,-0.574 3.162,0.172 3.496,2.16 0.246,1.466 0.08,2.996 0.228,4.485 0.178,1.81 0.298,3.667 0.834,5.381 0.25,0.799 1.335,1.479 2.192,1.916 1.477,0.755 3.153,1.135 4.591,1.944 1.111,0.625 2.547,1.133 2.725,2.719 m -5.906,135.913 c 0.575,1.507 1.052,2.749 1.526,3.993 1.044,2.748 1.798,3.129 4.452,2.003 2.618,-1.109 3.219,-0.728 3.973,2.112 0.197,0.743 0.282,1.516 0.452,2.462 -1.487,0.443 -2.765,0.834 -4.048,1.206 -1.751,0.506 -2.217,1.495 -1.555,3.224 0.414,1.079 0.765,2.181 1.124,3.214 -3.637,2.004 -5.41,2.138 -11.377,0.934 -1.574,-5.072 -3.17,-10.217 -4.832,-15.572 1.743,-0.71 3.395,-1.457 5.098,-2.056 1.564,-0.55 3.185,-0.941 5.187,-1.52 M -16.389,-29.804 c -4.216,-1.028 -7.485,0.943 -10.949,2.609 -3.374,-6.565 -3.504,-13.804 -5.954,-20.278 1.981,-0.835 3.661,-1.539 5.337,-2.251 1.742,-0.739 3.448,-1.662 5.501,-1.013 2.014,6.862 4.91,13.452 6.065,20.933 M 4.352,88.307 c 2.474,-0.864 4.622,-1.67 6.806,-2.362 2.154,-0.682 2.333,-0.483 3.032,1.642 0.571,1.735 1.235,3.454 2.021,5.101 0.916,1.923 1.685,2.173 3.87,1.72 0.917,-0.19 1.853,-0.29 2.928,-0.453 0.677,2.308 1.304,4.443 2.007,6.838 -1.017,0.262 -1.819,0.537 -2.643,0.666 -2.022,0.315 -2.619,0.91 -2.704,2.913 -0.032,0.759 -0.005,1.521 -0.005,2.562 -3.591,0.444 -6.88,0.852 -10.436,1.294 C 7.309,101.532 5.227,95.132 4.352,88.307 m 73.109,1.979 c -0.097,0.154 -0.15,0.325 -0.267,0.414 -3.415,2.61 -7.602,3.125 -11.575,4.187 -0.941,0.252 -1.87,-0.258 -2.3,-1.294 -0.091,-0.22 -0.183,-0.444 -0.303,-0.649 -1.394,-2.374 -1.38,-2.32 -3.928,-1.556 -1.898,0.569 -3.829,1.04 -5.77,1.444 -1.704,0.355 -1.969,0.13 -2.301,-1.447 -0.066,-0.312 -0.093,-0.632 -0.153,-0.945 -0.491,-2.539 -0.018,-3.235 2.475,-3.906 1.298,-0.35 2.58,-0.786 3.828,-1.288 1.149,-0.463 1.69,-1.232 1.369,-2.634 -0.392,-1.705 -0.18,-2.14 1.495,-2.687 3.398,-1.109 6.825,-2.163 10.301,-2.981 2.585,-0.609 3.891,0.385 4.54,2.945 0.88,3.466 1.73,6.941 2.589,10.397 m -89.109,-102.62 c -0.142,-0.887 -0.221,-1.595 -0.373,-2.287 -0.423,-1.923 -0.496,-2.06 1.168,-2.786 2.325,-1.014 4.747,-1.807 7.136,-2.672 1.182,-0.427 2.248,-0.751 3.524,0.165 0.95,0.683 2.249,0.313 3.427,-0.191 2.023,-0.868 4.129,-1.542 6.33,-2.346 1.207,3.051 2.338,5.846 3.404,8.665 0.209,0.554 0.366,1.265 0.202,1.797 -0.697,2.255 -1.525,4.47 -2.252,6.549 -4.581,1.402 -9.167,2.749 -13.709,4.229 -1.45,0.472 -2.838,0.985 -4.543,0.791 -0.286,-0.806 -0.566,-1.595 -0.813,-2.293 0.662,-0.591 1.189,-1.059 1.714,-1.53 1.256,-1.128 1.843,-2.933 1.023,-4.253 -1.034,-1.664 -1.884,-3.542 -3.682,-4.619 -0.8,0.244 -1.554,0.475 -2.556,0.781 m 93.949,118.913 c 1.642,7.571 3.235,14.913 4.879,22.485 -4.503,1.678 -9.113,3.223 -14.079,3.999 -0.321,-2.127 -0.991,-3.787 -2.468,-5.18 -0.839,0.22 -1.682,0.429 -2.518,0.66 -1.459,0.405 -2.895,0.942 -4.381,1.187 -0.783,0.129 -1.928,0.048 -2.428,-0.436 -1.861,-1.799 -1.108,-4.548 1.316,-5.525 1.403,-0.566 2.801,-1.17 4.126,-1.895 1.887,-1.032 2.143,-1.76 1.691,-3.904 -0.198,-0.937 -0.418,-1.873 -0.556,-2.82 -0.34,-2.335 0.25,-3.643 2.325,-4.74 1.33,-0.703 2.737,-1.312 4.175,-1.746 2.496,-0.753 5.043,-1.338 7.918,-2.085 M 8.242,-32.857 c -4.739,2 -9.061,3.94 -13.476,5.639 -2.212,0.851 -4.579,1.322 -6.901,1.86 -2.131,0.493 -2.971,-0.087 -3.902,-2.523 0.86,-0.484 2.252,-0.648 1.719,-2.238 -0.656,-1.956 -1.28,-3.923 -1.886,-5.896 -1.336,-4.346 -2.675,-8.693 -3.952,-13.057 -0.214,-0.729 -0.424,-1.703 -0.116,-2.294 0.868,-1.667 2.058,-3.11 4.018,-3.684 2.291,-0.671 4.551,-1.446 6.842,-2.115 2.276,-0.665 4.575,-1.254 6.924,-1.893 0.706,1.979 0.409,4.217 2.424,5.395 0.138,0.08 0.023,0.586 0.033,0.894 0.091,2.671 0.586,5.218 2.145,7.477 0.405,0.586 0.762,1.24 0.978,1.915 0.348,1.083 0.531,2.221 2.036,2.251 0.149,0.002 0.358,0.303 0.428,0.503 0.895,2.548 1.769,5.102 2.686,7.766 M -1.083,3.329 c -1.739,0.646 -3.25,1.149 -4.714,1.764 -2.259,0.948 -3.227,2.761 -2.636,5.063 0.414,1.615 1.094,3.16 1.52,4.771 0.448,1.694 0.671,3.447 1.105,5.144 1.125,4.395 2.31,8.774 3.474,13.158 0.408,1.539 0.866,3.065 1.226,4.614 0.65,2.795 1.128,5.634 1.881,8.398 1.824,6.693 3.749,13.359 5.665,20.026 1.101,3.831 2.284,7.638 3.388,11.467 0.567,1.97 1.041,3.966 1.569,5.992 -1.01,0.316 -1.855,0.527 -2.659,0.846 -0.888,0.351 -1.711,0.876 -2.61,1.191 C 4.694,86.265 4.333,85.978 3.982,84.492 3.126,80.866 2.321,77.223 1.322,73.635 0.62,71.11 -0.533,68.708 -1.19,66.174 -2.388,61.555 -3.316,56.865 -4.452,52.229 -5.589,47.587 -6.841,42.974 -8.047,38.35 c -1.225,-4.701 -2.435,-9.404 -3.689,-14.097 -0.761,-2.845 -1.587,-5.672 -2.389,-8.506 -1.376,-4.864 -2.756,-9.727 -4.196,-14.81 2.821,-1.064 5.676,-2.142 8.576,-3.235 0.274,0.858 0.449,1.625 0.76,2.332 0.814,1.843 1.161,2.032 3.112,1.645 1.381,-0.274 2.741,-0.65 4.264,-1.017 0.181,0.92 0.33,1.677 0.526,2.667 M 8.59,-66.289 c -1.904,0.775 -3.479,1.576 -5.146,2.05 -1.854,0.527 -3.217,1.669 -4.59,2.888 -0.204,0.181 -0.615,0.113 -0.917,0.201 -3.057,0.891 -6.116,1.776 -9.165,2.692 -3.272,0.983 -6.388,2.96 -10.034,1.396 -0.468,-0.2 -1.104,-0.004 -1.662,10e-4 -0.532,0.005 -1.065,10e-4 -1.578,10e-4 -0.302,-1.989 -0.314,-2.025 1.484,-2.615 5.433,-1.782 11.005,-3.169 16.202,-5.615 1.983,-0.933 4.321,-1.219 5.773,-2.877 -0.344,-1.287 -0.637,-2.42 -0.952,-3.547 -0.321,-1.15 -0.667,-2.294 -0.999,-3.441 -1.485,-5.126 -3.056,-10.229 -4.429,-15.385 -1.229,-4.617 -2.163,-9.312 -3.365,-13.936 -2.097,-8.068 -4.294,-16.109 -6.459,-24.159 -0.662,-2.463 -1.367,-4.914 -2.032,-7.377 -0.108,-0.401 -0.107,-0.832 -0.197,-1.586 0.777,0.434 1.278,0.647 1.702,0.961 2.579,1.916 4.688,4.302 6.725,6.763 1.526,1.844 3.066,3.662 3.487,6.129 0.118,0.69 0.196,1.396 0.405,2.06 2.653,8.444 5.368,16.867 7.979,25.323 1.318,4.27 2.51,8.581 3.66,12.899 1.003,3.77 1.878,7.574 2.789,11.368 0.458,1.91 0.872,3.831 1.319,5.806 m 22.434,206.673 c 1.585,-0.453 2.821,-0.734 4.001,-1.167 0.792,-0.291 1.807,-0.615 2.19,-1.247 0.73,-1.206 1.699,-1.551 2.949,-1.623 4.896,-0.284 9.431,-1.963 13.892,-3.79 2.274,-0.932 4.489,-1.297 6.926,-1.055 1.783,0.177 3.607,0.29 5.356,-0.665 0.925,-0.504 2.136,-0.6 3.225,-0.638 0.487,-0.017 1.342,0.481 1.435,0.883 0.488,2.127 1.893,4.003 1.775,6.281 -0.187,3.657 -0.342,7.318 -0.653,10.965 -0.099,1.165 -0.451,2.398 -1.018,3.416 -2.348,4.212 -5.636,7.523 -10.066,9.53 -2.432,1.103 -5.099,1.768 -7.682,0.918 -3.075,-1.013 -6.147,-2.218 -8.959,-3.805 -4.755,-2.683 -8.9,-6.129 -11.194,-11.32 -0.154,-0.348 -0.478,-0.81 -0.366,-1.056 0.488,-1.075 -0.207,-1.842 -0.553,-2.699 -0.351,-0.866 -0.736,-1.718 -1.258,-2.928 m 55.197,-8.967 c 0.186,1.324 0.45,2.409 0.468,3.498 0.036,1.993 -0.255,4.004 -0.085,5.98 0.332,3.826 -0.336,7.506 -1.496,11.077 -0.654,2.018 -1.671,3.992 -2.881,5.739 -1.859,2.685 -4.055,5.133 -6.05,7.725 -1.874,2.435 -4.181,4.373 -6.675,6.123 -3.826,2.685 -8.258,3.751 -12.728,4.553 -2.574,0.462 -5.26,0.596 -7.826,-0.345 -2.021,-0.743 -4.067,-1.442 -6.029,-2.323 -2.781,-1.248 -5.374,-2.811 -7.389,-5.185 -1.848,-2.178 -3.649,-4.404 -5.606,-6.482 -3.285,-3.485 -5.245,-7.768 -7.422,-11.926 -0.164,-0.312 -0.105,-0.741 -0.148,-1.106 3.14,-0.497 6.148,-0.974 9.103,-1.442 0.276,0.693 0.55,1.572 0.964,2.38 2.791,5.443 7.803,8.546 12.761,11.52 2.676,1.605 5.906,2.292 8.89,3.381 0.218,0.08 0.475,0.101 0.709,0.084 3.875,-0.275 7.585,-1.065 10.604,-3.733 2.141,-1.893 4.226,-3.879 5.674,-6.369 0.866,-1.489 1.861,-3.102 2.055,-4.747 0.597,-5.04 0.834,-10.122 1.212,-15.207 3.7,-0.994 7.597,-2.04 11.895,-3.195 M 61.059,92.715 c 0.652,1.82 1.072,3.548 2.987,4.23 0.34,0.121 0.464,0.975 0.603,1.512 0.961,3.69 1.909,7.384 2.832,11.084 0.092,0.367 0.127,0.859 -0.043,1.163 -1.315,2.33 -1.195,4.734 -0.518,7.199 0.253,0.921 0.155,1.763 -0.843,2.226 -2.516,1.167 -4.953,2.58 -7.572,3.438 -6.661,2.183 -13.403,4.121 -20.116,6.147 -1.405,0.424 -2.754,1.271 -4.303,0.188 -0.357,-0.249 -1.218,0.106 -1.799,0.317 -3.441,1.246 -3.456,1.266 -4.706,-2.171 -0.542,-1.489 -0.909,-3.025 -2.654,-3.696 -0.407,-0.157 -0.704,-0.867 -0.857,-1.38 -1.299,-4.353 -2.576,-8.714 -3.793,-13.091 -0.152,-0.545 -0.134,-1.405 0.193,-1.76 0.755,-0.819 0.728,-1.715 0.74,-2.672 0.023,-1.833 0.016,-1.919 1.909,-2.31 1.555,-0.322 2.925,-1.006 3.622,-2.337 0.409,-0.781 0.91,-1.001 1.55,-1.217 2.48,-0.835 5.02,-1.415 7.578,-1.982 4.101,-0.911 8.112,-2.212 12.183,-3.268 0.723,-0.187 1.646,-0.205 2.306,0.086 1.433,0.634 2.803,0.457 4.197,0.093 2.078,-0.542 4.14,-1.141 6.504,-1.799 m -86.351,-249.579 c -1.907,-5.373 -3.749,-10.375 -5.453,-15.423 -1.73,-5.127 -3.338,-10.296 -4.974,-15.455 -1.318,-4.159 -2.937,-8.228 -3.591,-12.586 -0.331,-2.202 -0.809,-4.394 -1.384,-6.546 -0.843,-3.159 -1.821,-6.284 -2.764,-9.416 -0.597,-1.983 -1.309,-3.934 -1.839,-5.934 -1.225,-4.623 -2.27,-9.295 -3.576,-13.893 -1.283,-4.518 -2.866,-8.949 -4.191,-13.456 -1.441,-4.898 -2.748,-9.835 -4.091,-14.762 -1.237,-4.537 -2.369,-9.103 -3.682,-13.617 -1.716,-5.896 -3.531,-11.763 -5.366,-17.622 -1.428,-4.56 -2.989,-9.078 -4.427,-13.634 -1.657,-5.249 -3.23,-10.523 -4.866,-15.779 -0.82,-2.637 -1.696,-5.256 -2.534,-7.842 4.575,-3.121 7.674,-3.64 9.644,-2.077 0.285,1.679 0.286,3.051 0.762,4.229 1.471,3.638 2.796,7.3 3.446,11.189 0.183,1.091 0.566,2.151 0.883,3.217 0.931,3.133 1.929,6.247 2.802,9.396 1.532,5.532 2.955,11.086 5.289,16.371 1.123,2.544 1.84,5.272 2.676,7.936 0.788,2.508 1.28,5.132 2.284,7.547 1.394,3.349 2.133,6.821 2.746,10.355 0.176,1.009 0.53,1.99 0.848,2.97 0.444,1.365 0.972,2.703 1.391,4.075 0.931,3.05 1.821,6.112 2.718,9.172 1.167,3.974 2.345,7.946 3.482,11.929 1.182,4.142 2.249,8.317 3.496,12.438 1.314,4.343 2.827,8.626 4.17,12.961 1.432,4.618 2.81,9.255 4.126,13.907 0.737,2.601 1.221,5.273 1.962,7.872 1.613,5.661 3.329,11.293 4.982,16.944 1.14,3.895 2.221,7.809 3.379,11.699 0.323,1.084 0.306,1.938 -0.957,2.231 -2.392,0.554 -4.798,1.045 -7.391,1.604 m -10.307,103.123 c -0.395,-1.115 -0.792,-2.152 -1.132,-3.207 -1.386,-4.299 -1.722,-8.82 -3.262,-13.14 -2.243,-6.289 -3.792,-12.837 -5.432,-19.326 -1.21,-4.786 -2.191,-9.626 -3.829,-14.302 -1.079,-3.081 -2.06,-6.202 -2.94,-9.346 -1.421,-5.075 -2.669,-10.199 -4.087,-15.275 -2.6,-9.3 -5.253,-18.586 -7.921,-27.866 -0.968,-3.369 -2.077,-6.697 -3.055,-10.064 -0.444,-1.528 -0.615,-3.138 -1.097,-4.652 -2.103,-6.601 -4.371,-13.149 -6.395,-19.773 -2.051,-6.713 -3.879,-13.495 -5.818,-20.242 -2.028,-7.054 -4.06,-14.107 -6.111,-21.155 -1.404,-4.828 -2.778,-9.666 -4.28,-14.463 -1.907,-6.088 -4.012,-12.114 -5.886,-18.212 -2.835,-9.227 -5.512,-18.504 -8.323,-27.74 -1.275,-4.19 -2.71,-8.332 -4.07,-12.496 -0.693,-2.125 -1.353,-4.26 -2.073,-6.376 -1.551,-4.557 -3.13,-9.104 -4.597,-13.365 0.664,-0.816 1.19,-1.808 2.009,-2.38 1.153,-0.807 1.22,-1.723 0.934,-2.899 -0.221,-0.904 -0.644,-1.89 -0.472,-2.737 0.737,-3.617 0.09,-7.02 -1.432,-10.259 -1.219,-2.593 -2.622,-5.109 -4.086,-7.575 -1.794,-3.02 -1.795,-5.837 0.413,-8.649 1.231,-1.57 2.319,-3.251 3.488,-4.869 1.457,-2.019 2.589,-4.099 2.922,-6.686 0.47,-3.657 5.108,-5.278 7.88,-2.848 1.081,0.95 2.141,1.235 3.5,0.914 1.553,-0.368 3.119,-0.729 4.7,-0.915 2.447,-0.289 5.017,-0.808 7.23,0.675 2.367,1.588 4.779,3.215 6.788,5.21 5.829,5.787 8.407,13.215 10.007,21.061 0.026,0.124 -0.104,0.28 -0.202,0.518 -2.929,-0.767 -5.442,0.951 -8.217,1.646 -0.202,-0.493 -0.404,-0.839 -0.489,-1.212 -1.078,-4.718 -3.154,-8.979 -5.73,-13.053 -2.493,-3.943 -6.219,-5.188 -10.499,-4.723 -4.07,0.442 -7.62,2.34 -10.389,5.424 -1.55,1.726 -2.789,3.676 -3.164,6.06 -0.754,4.784 -0.464,9.548 0.24,14.302 0.264,1.779 0.69,3.338 2.882,3.885 1.589,0.397 2,1.891 1.35,3.504 -0.298,0.74 -0.682,1.445 -1.003,2.176 -0.566,1.289 -0.732,2.504 0.041,3.865 0.53,0.935 0.794,2.109 0.871,3.197 0.242,3.387 1.128,6.603 2.274,9.769 1.057,2.917 2.201,5.805 3.153,8.755 1.027,3.177 2.207,6.269 3.501,9.355 2.557,6.098 4.741,12.361 6.879,18.624 1.723,5.048 3.133,10.203 4.714,15.3 1.513,4.881 3.142,9.727 4.584,14.627 2.161,7.345 4.234,14.716 6.289,22.091 2.098,7.526 4.369,15.016 6.126,22.622 2.069,8.964 5.02,17.643 7.762,26.395 1.048,3.345 2.393,6.607 3.294,9.989 1.746,6.548 3.323,13.143 4.874,19.74 1.24,5.28 2.971,10.402 4.674,15.539 1.075,3.242 1.989,6.538 2.989,9.806 0.233,0.762 0.489,1.519 0.783,2.259 2.264,5.691 4.198,11.493 5.898,17.377 1.081,3.739 2.248,7.454 3.379,11.178 0.765,2.517 1.561,5.025 2.296,7.551 0.89,3.061 1.707,6.144 2.595,9.206 1.374,4.731 2.782,9.452 4.183,14.202 -3.043,0.955 -6.137,1.925 -9.511,2.983 m 71.587,52.763 c 0.322,1.191 0.537,1.949 0.731,2.713 1.133,4.484 2.305,8.958 3.376,13.457 0.68,2.865 1.044,5.811 1.838,8.641 1.421,5.067 2.643,10.171 3.701,15.326 0.785,3.826 1.827,7.599 2.74,11.399 0.893,3.715 1.878,7.413 2.619,11.158 0.901,4.557 2.195,8.986 3.948,13.271 1.106,2.704 2.413,5.318 1.756,8.501 -0.158,0.099 -0.401,0.32 -0.686,0.42 -4.123,1.456 -8.274,2.834 -12.372,4.355 -5.476,2.032 -11.186,3.132 -16.853,4.41 -0.518,0.117 -1.304,0.232 -1.597,-0.044 -1.318,-1.237 -2.711,-0.595 -4.091,-0.358 -2.562,0.44 -3.619,-0.088 -4.526,-2.545 -0.523,-1.418 -0.803,-2.925 -1.285,-4.36 C 15.07,84.721 14.756,83.795 14.265,83.621 13.049,83.189 12.776,82.25 12.486,81.264 11.294,77.211 10.148,73.145 8.949,69.095 7.748,65.042 6.426,61.023 5.297,56.95 3.982,52.203 2.138,47.609 1.429,42.68 1.057,40.093 0.21,37.574 -0.416,35.022 -1.366,31.148 -2.294,27.269 -3.261,23.399 -4.377,18.928 -5.524,14.464 -6.656,9.997 -6.676,9.92 -6.667,9.837 -6.677,9.758 -6.912,8.059 -6.836,7.867 -5.31,7.259 -1.312,5.665 2.692,4.086 6.709,2.541 7.256,2.33 7.891,2.344 8.482,2.254 c 0.44,2.924 1.671,4.157 3.801,3.911 1.107,-0.128 2.228,-0.244 3.301,-0.522 6.065,-1.57 12.19,-2.958 17.796,-5.927 0.733,-0.388 1.641,-0.446 2.608,-0.694 M 72.509,74.026 C 67.717,75.389 63.147,76.688 58.484,78.015 58.432,77.954 58.213,77.8 58.139,77.595 56.571,73.252 54.716,68.985 53.534,64.54 51.381,56.442 49.654,48.232 47.701,40.08 46.517,35.133 45.227,30.211 44.011,25.271 43.326,22.486 42.651,19.698 42.052,16.895 41.535,14.477 41.194,12.02 40.654,9.607 40.202,7.589 39.488,5.63 39.051,3.61 38.684,1.917 38.688,0.125 37.091,-1.203 c 1.952,-1.654 1.456,-3.407 0.396,-5.139 -0.539,-0.882 -1.242,-1.663 -1.781,-2.545 -0.682,-1.113 -1.457,-1.901 -2.628,-1.343 -1.06,-1.049 -1.849,-2.097 -2.879,-2.784 -1.438,-0.959 -3.013,-1.744 -4.605,-2.432 -2.791,-1.208 -3.663,-2.166 -3.17,-5.017 0.524,-3.032 -0.337,-5.65 -1.476,-8.318 -0.593,-1.388 -1.205,-2.823 -1.446,-4.296 -0.704,-4.309 -1.705,-8.5 -4.215,-12.585 1.018,0.259 1.651,0.421 2.568,0.654 0.547,-5.458 -1.947,-9.881 -3.64,-14.301 0.467,-0.675 1.268,-1.326 1.17,-1.786 -0.36,-1.682 -0.644,-3.556 -2.153,-4.634 -0.702,-0.502 -1.807,-0.441 -2.893,-0.67 -0.84,-3.129 -1.794,-6.321 -2.547,-9.559 -1.352,-5.81 -2.533,-11.661 -4.527,-17.302 -0.558,-1.578 -1.069,-3.174 -1.585,-4.766 -1.249,-3.852 -2.52,-7.697 -3.722,-11.564 -0.941,-3.032 -1.804,-6.09 -2.675,-9.143 -0.184,-0.646 -0.252,-1.325 -0.39,-2.077 1.485,-0.171 2.031,0.69 2.511,1.479 1.659,2.725 3.436,5.399 4.82,8.262 1.49,3.081 2.645,6.33 3.841,9.544 1.251,3.361 2.385,6.766 3.556,10.156 0.309,0.892 0.477,1.844 0.866,2.697 2.472,5.426 5.429,10.634 6.532,16.63 0.588,3.199 1.748,6.289 2.559,9.451 1.227,4.782 2.309,9.603 3.58,14.374 0.902,3.384 2.034,6.706 3.028,10.067 1.74,5.889 3.516,11.77 5.15,17.689 0.72,2.608 1.108,5.306 1.692,7.953 0.122,0.554 0.443,1.065 0.673,1.595 0.186,-0.005 0.372,-0.011 0.558,-0.017 0.16,-0.547 0.504,-1.114 0.446,-1.637 -0.196,-1.734 -0.431,-3.476 -0.845,-5.168 -0.605,-2.473 -1.344,-4.914 -2.088,-7.35 -1.23,-4.031 -2.507,-8.046 -3.769,-12.067 -0.597,-1.903 -1.289,-3.781 -1.789,-5.708 -1.657,-6.392 -3.213,-12.811 -4.875,-19.202 -1.102,-4.236 -2.65,-8.368 -2.843,-12.808 -0.017,-0.381 -0.217,-0.766 -0.379,-1.128 -2.311,-5.168 -4.653,-10.323 -6.937,-15.503 -0.739,-1.677 -1.342,-3.414 -1.988,-5.131 -0.924,-2.457 -1.799,-4.934 -2.753,-7.381 -2.194,-5.627 -4.166,-11.365 -7.819,-16.292 -0.708,-0.955 -1.414,-1.914 -2.165,-2.835 -1.81,-2.216 -3.624,-4.429 -5.477,-6.61 -2.013,-2.369 -4.065,-4.707 -6.119,-7.043 -0.257,-0.292 -0.604,-0.527 -0.948,-0.719 -2.431,-1.343 -4.843,-2.724 -7.314,-3.986 -4.411,-2.254 -9.007,-3.956 -13.922,-4.83 -2.578,-0.458 -5.082,-1.34 -7.61,-2.062 -0.262,-0.075 -0.462,-0.366 -1.03,-0.839 1.138,-0.416 1.983,-0.764 2.853,-1.035 7.515,-2.331 15.298,-3.652 22.81,-6.006 1.732,-0.542 3.534,-0.855 5.282,-1.351 3.066,-0.87 6.103,-1.841 9.173,-2.694 4.604,-1.282 9.224,-2.504 13.841,-3.741 7.31,-1.958 14.609,-3.96 21.939,-5.841 4.701,-1.207 9.482,-2.114 14.168,-3.377 3.303,-0.892 6.495,-2.197 9.762,-3.235 1.158,-0.368 2.569,-1.203 3.509,0.172 0.89,1.302 -0.112,2.524 -0.938,3.432 -2.088,2.295 -4.31,4.469 -6.508,6.663 -3.106,3.097 -6.487,5.959 -9.299,9.301 -4.139,4.917 -7.069,10.65 -9.418,16.61 -2.476,6.282 -3.66,12.838 -3.628,19.645 0.024,5.359 0.408,10.67 1.063,15.972 0.284,2.294 0.583,4.592 1.041,6.856 1.025,5.061 2.271,10.08 3.211,15.156 0.955,5.162 2.123,10.265 3.326,15.373 1.516,6.436 2.541,12.987 3.99,19.441 0.816,3.633 0.814,7.489 2.767,10.85 0.299,0.517 0.252,1.234 0.367,1.858 0.313,1.722 0.545,3.466 0.966,5.161 0.343,1.382 0.985,2.688 1.371,4.062 0.863,3.071 1.636,6.166 2.468,9.246 0.621,2.296 1.304,4.577 1.91,6.878 0.871,3.315 1.709,6.639 2.539,9.964 0.844,3.382 1.704,6.762 2.482,10.16 0.907,3.961 1.609,7.974 2.624,11.906 1.635,6.333 3.462,12.616 5.191,18.925 1.496,5.455 2.916,10.931 4.469,16.37 0.917,3.216 2.045,6.371 3.042,9.565 0.728,2.33 2.226,4.436 2.101,6.969 M -25.729,-60.892 c -1.153,-3.822 -2.286,-7.464 -3.341,-11.129 -0.347,-1.203 -0.394,-2.493 -0.746,-3.694 -1.161,-3.967 -2.389,-7.916 -3.613,-11.865 -0.425,-1.369 -0.981,-2.7 -1.364,-4.08 -1.512,-5.445 -2.853,-10.931 -5.028,-16.183 -1.308,-3.157 -2.2,-6.486 -3.283,-9.737 -0.652,-1.96 -1.328,-3.911 -1.967,-5.876 -0.91,-2.803 -1.799,-5.613 -2.692,-8.422 -0.796,-2.507 -1.708,-4.984 -2.355,-7.529 -2.119,-8.335 -3.961,-16.745 -6.263,-25.028 -1.467,-5.276 -3.609,-10.363 -5.358,-15.565 -1.118,-3.328 -2.117,-6.698 -3.079,-10.075 -0.389,-1.368 -0.446,-2.828 -0.81,-4.206 -1.645,-6.232 -3.329,-12.453 -5.031,-18.67 -1.853,-6.771 -3.725,-13.535 -5.622,-20.294 -1.054,-3.758 -2.349,-7.456 -3.231,-11.252 -1.993,-8.58 -5.149,-16.781 -7.969,-25.089 -2.613,-7.695 -5.53,-15.288 -8.272,-22.94 -1.879,-5.243 -3.743,-10.492 -5.505,-15.774 -1.136,-3.401 -2.141,-6.85 -3.075,-10.313 -0.453,-1.68 -0.399,-3.511 -0.952,-5.147 -0.691,-2.045 -1.088,-3.776 0.144,-5.889 1.373,-2.355 0.376,-4.616 -2.015,-5.962 -0.486,-0.275 -0.974,-0.546 -1.35,-0.756 -1.808,-6.004 -1.839,-11.892 0.218,-17.737 0.206,-0.585 0.49,-1.15 0.792,-1.692 1.375,-2.469 3.852,-3.632 6.225,-4.618 5.667,-2.357 11.167,-1.427 14.342,4.458 1.784,3.307 3.424,6.644 4.512,10.268 0.5,1.664 0.35,2.622 -0.987,3.891 -3.356,3.186 -3.636,5.841 -1.055,9.735 0.717,1.083 1.58,1.202 2.673,0.678 0.654,-0.312 1.335,-0.568 2.057,-0.872 0.299,1.11 0.455,1.887 0.716,2.626 1.428,4.048 2.996,8.051 4.3,12.139 2.4,7.523 4.647,15.095 6.96,22.647 0.747,2.441 1.503,4.878 2.253,7.318 1.471,4.793 3.041,9.557 4.386,14.385 2.098,7.525 3.979,15.11 6.077,22.634 1.265,4.537 2.77,9.007 4.161,13.509 1.174,3.797 2.407,7.577 3.489,11.4 1.02,3.604 1.849,7.261 2.813,10.88 1.006,3.775 2.135,7.517 3.095,11.302 0.9,3.549 1.502,7.178 2.503,10.695 1.33,4.673 2.879,9.284 4.406,13.898 2.205,6.664 4.487,13.302 6.701,19.963 0.287,0.862 0.361,1.795 0.503,2.531 -0.322,0.256 -0.376,0.332 -0.446,0.35 -4.878,1.183 -9.767,2.329 -14.633,3.56 -1.618,0.409 -3.19,1.007 -4.763,1.574 -0.876,0.317 -1.348,1.053 -0.902,1.898 0.582,1.099 1.191,2.244 2.638,2.559 2.102,0.459 4.16,1.136 6.273,1.52 6.654,1.21 12.898,3.463 18.794,7.091 -1.164,0.749 -0.986,1.68 -0.594,2.756 1.037,2.847 2.083,5.699 2.932,8.606 0.736,2.524 1.136,5.145 1.812,7.69 1.063,4.009 2.293,7.973 3.344,11.985 1.575,6.011 3.113,12.033 4.559,18.076 1.038,4.338 2.157,8.627 3.799,12.797 0.92,2.338 1.266,4.903 1.915,7.545 -7.903,2.374 -15.297,5.512 -23.091,7.43 m 10.815,-98.353 c -2.37,-8.096 -4.643,-15.815 -6.887,-23.541 -2.047,-7.045 -4.034,-14.108 -6.098,-21.148 -2.312,-7.884 -4.714,-15.744 -7.012,-23.633 -1.114,-3.825 -1.987,-7.721 -3.138,-11.534 -2.349,-7.79 -4.852,-15.534 -7.205,-23.323 -0.621,-2.056 -0.82,-4.237 -1.401,-6.308 -1.033,-3.685 -2.194,-7.334 -3.332,-10.989 -1.091,-3.5 -1.954,-7.101 -3.388,-10.456 -2.839,-6.641 -4.559,-13.601 -6.471,-20.517 -1.531,-5.537 -3.121,-11.059 -4.742,-16.571 -0.473,-1.604 -1.154,-3.146 -1.714,-4.726 -0.265,-0.746 -0.177,-1.35 0.16,-2.195 1.365,-3.402 1.696,-7.727 -1.738,-9.847 -3.113,-1.923 -3.854,-4.981 -4.472,-8.024 -1.081,-5.328 -3.15,-10.047 -6.413,-14.444 -2.745,-3.7 -5.957,-6.578 -10.02,-8.625 -1.091,-0.55 -2.127,-0.996 -3.414,-0.789 -2.511,0.404 -5.055,0.608 -7.556,1.059 -1.439,0.259 -2.567,0.152 -3.724,-0.892 -2.004,-1.809 -4.051,-1.756 -6.342,-0.374 -2.513,1.515 -3.687,3.654 -4.35,6.512 -0.48,2.073 -1.978,3.932 -3.13,5.821 -1.439,2.359 -3.346,4.438 -4.036,7.239 -0.147,0.597 -0.793,1.104 -1.284,1.573 -0.631,0.604 -1.43,1.048 -1.996,1.701 -3.032,3.491 -2.665,4.547 -0.676,7.589 1.438,2.202 2.759,4.479 4.161,6.705 1.1,1.747 1.272,3.561 0.604,5.506 -0.465,1.358 -0.898,2.732 -1.243,4.123 -0.704,2.845 -0.077,3.922 2.688,4.72 1.005,0.291 1.535,0.902 1.963,1.879 2.919,6.669 4.895,13.649 7.057,20.576 1.754,5.625 4.047,11.084 5.746,16.725 2.992,9.932 5.688,19.952 9.171,29.736 1.633,4.583 3.184,9.204 4.524,13.88 1.408,4.906 2.425,9.923 3.785,14.845 1.549,5.61 3.335,11.155 4.93,16.753 1.548,5.437 2.915,10.926 4.493,16.354 1.135,3.906 2.487,7.749 3.738,11.621 0.859,2.659 1.869,5.281 2.531,7.987 1.136,4.643 2.963,9.07 3.913,13.787 0.764,3.794 2.328,7.424 3.492,11.14 0.666,2.128 1.258,4.28 1.859,6.427 1.591,5.687 3.186,11.372 4.748,17.067 1.561,5.688 2.975,11.42 4.658,17.073 1.43,4.801 3.156,9.513 4.739,14.269 0.201,0.603 0.491,1.237 0.467,1.847 -0.116,3.041 1.091,5.759 1.9,8.589 1.709,5.973 3.356,11.965 4.909,17.98 0.895,3.469 1.524,7.005 2.347,10.494 0.216,0.913 0.708,1.759 1.124,2.757 -0.418,0.344 -0.825,0.698 -1.251,1.027 -1.919,1.482 -2.054,4.559 -0.269,6.221 0.951,0.884 1.571,0.759 3.461,-0.852 1.877,3.356 2.047,7.144 3.141,10.63 1.114,3.55 2.114,7.134 3.236,10.95 1.036,0.184 1.537,1.115 1.913,2.334 1.103,3.576 2.375,7.099 3.523,10.661 0.339,1.05 0.487,2.161 0.741,3.329 -2.225,1.058 -3.554,2.575 -2.96,5.1 0.676,2.874 2.519,4.513 5.438,4.901 1.644,5.495 3.353,10.883 4.863,16.327 2.28,8.223 4.488,16.467 6.605,24.733 2.215,8.65 4.27,17.341 6.439,26.003 0.288,1.15 0.935,2.207 1.242,3.354 1.196,4.463 2.454,8.917 3.424,13.431 0.582,2.708 0.484,5.558 1.032,8.276 0.738,3.659 1.736,7.272 2.767,10.863 0.345,1.2 1.259,2.227 1.696,3.413 0.767,2.084 1.308,4.25 2.051,6.344 1.333,3.756 2.694,7.502 4.149,11.211 0.558,1.42 0.668,2.478 -0.195,3.969 -0.637,1.1 -0.434,2.956 -0.057,4.323 1.166,4.217 2.604,8.358 3.916,12.535 0.443,1.411 1.352,2.284 2.782,2.506 1.216,5.555 4.146,10.061 7.683,14.221 2.15,2.529 4.371,4.998 6.577,7.479 2.293,2.579 5.325,4.023 8.404,5.368 1.386,0.605 2.867,0.993 4.242,1.619 2.998,1.364 6.085,1.022 9.185,0.64 3.996,-0.492 7.67,-2.07 11.412,-3.417 0.149,-0.053 0.305,-0.116 0.424,-0.215 2.134,-1.785 4.513,-3.354 6.336,-5.415 3.268,-3.693 6.323,-7.594 9.235,-11.578 2.153,-2.944 3.148,-6.452 3.398,-10.078 0.273,-3.97 0.316,-7.957 0.442,-11.938 0.018,-0.554 0.082,-1.182 -0.135,-1.656 -0.746,-1.628 -0.634,-2.972 0.717,-4.291 0.364,-0.356 0.304,-1.351 0.161,-1.99 -1.213,-5.436 -2.496,-10.857 -3.743,-16.285 -0.391,-1.706 -0.683,-3.436 -1.14,-5.123 -0.12,-0.438 -0.631,-0.87 -1.07,-1.094 -0.47,-0.239 -1.066,-0.231 -1.753,-0.357 -0.374,-2.301 -0.715,-4.577 -1.124,-6.84 -0.265,-1.474 -0.635,-2.929 -0.95,-4.393 -0.066,-0.306 -0.219,-0.654 -0.134,-0.92 0.731,-2.289 -0.2,-4.382 -0.707,-6.526 C 77.737,84.171 77.426,82.354 76.859,80.62 76.327,78.989 76.195,77.242 74.984,75.775 74.302,74.947 74.098,73.535 74.088,72.382 74.072,70.479 73.563,68.74 72.721,67.126 70.928,63.685 70.101,59.932 69.037,56.26 67.573,51.209 66.242,46.118 64.883,41.037 62.369,31.637 59.541,22.305 57.481,12.806 55.857,5.32 53.884,-2.058 51.929,-9.447 c -1.917,-7.243 -4.204,-14.388 -6.048,-21.648 -1.53,-6.024 -2.63,-12.157 -3.962,-18.232 -1.538,-7.011 -3.123,-14.013 -4.687,-21.019 -1.147,-5.14 -2.302,-10.279 -3.437,-15.424 -0.67,-3.034 -1.443,-6.053 -1.93,-9.118 -0.914,-5.739 -1.706,-11.501 -2.44,-17.266 -0.291,-2.292 -0.317,-4.619 -0.422,-6.933 -0.349,-7.719 1.175,-15.08 4.351,-22.1 1.674,-3.705 3.385,-7.375 5.704,-10.766 2.367,-3.462 5.318,-6.363 8.213,-9.317 2.67,-2.722 5.503,-5.296 8.391,-7.788 1.837,-1.584 2.768,-3.697 3.789,-5.736 1.053,-2.102 -0.755,-4.514 -3.118,-4.324 -0.939,0.075 -1.896,0.342 -2.775,0.695 -6.688,2.689 -13.673,4.257 -20.697,5.748 -4.907,1.042 -9.81,2.2 -14.6,3.678 -3.565,1.099 -7.081,2.33 -10.713,3.233 -4.17,1.036 -8.289,2.282 -12.417,3.481 -2.359,0.684 -4.691,1.465 -7.04,2.187 -0.898,0.277 -1.809,0.514 -3.005,0.851"
             style="fill:#000000;fill-opacity:1;fill-rule:nonzero;stroke:none"
             id="path22"
             inkscape:connector-curvature="0" /></g><g
           id="g24"
           transform="translate(181.897,81.25)"><path
             d="m 0,0 c 2.047,-0.883 4.231,-1.647 6.242,-2.732 2.931,-1.582 5.925,-2.207 9.148,-1.339 1.012,-2.407 0.546,-4.245 -1.327,-5.712 -3.549,-2.78 -6.332,-2.646 -10.673,-0.54 C 2.055,-9.676 0.748,-8.807 -0.3,-7.765 -2.842,-5.24 -2.712,-2.791 0,0"
             style="fill:#ffffff;fill-opacity:1;fill-rule:nonzero;stroke:none"
             id="path26"
             inkscape:connector-curvature="0" /></g><g
           id="g28"
           transform="translate(141.9717,61.0342)"><path
             d="m 0,0 c -0.891,1.057 -1.585,1.788 -2.171,2.597 -0.746,1.031 -0.532,2.008 0.128,3.087 1.607,2.628 3.09,5.334 4.618,8.01 0.925,1.622 0.949,3.32 0.466,5.084 -0.442,1.611 -0.852,3.233 -1.191,4.868 -0.142,0.683 -0.231,1.464 -0.029,2.102 0.153,0.486 0.749,1.061 1.242,1.168 1.426,0.31 4.523,-1.599 5.058,-2.979 C 8.233,23.646 8.413,23.213 8.289,23.025 7.252,21.46 8.003,19.83 8.007,18.222 8.015,14.979 7.164,11.893 5.732,9.024 4.49,6.536 2.967,4.186 1.529,1.797 1.214,1.274 0.734,0.852 0,0"
             style="fill:#ffffff;fill-opacity:1;fill-rule:nonzero;stroke:none"
             id="path30"
             inkscape:connector-curvature="0" /></g></g></g></g></svg>