<?xml version="1.0" encoding="UTF-8" standalone="no"?>
<!-- Created with Inkscape (http://www.inkscape.org/) -->

<svg
   xmlns:dc="http://purl.org/dc/elements/1.1/"
   xmlns:cc="http://creativecommons.org/ns#"
   xmlns:rdf="http://www.w3.org/1999/02/22-rdf-syntax-ns#"
   xmlns:svg="http://www.w3.org/2000/svg"
   xmlns="http://www.w3.org/2000/svg"
   xmlns:sodipodi="http://sodipodi.sourceforge.net/DTD/sodipodi-0.dtd"
   xmlns:inkscape="http://www.inkscape.org/namespaces/inkscape"
   version="1.1"
   id="svg2"
   xml:space="preserve"
   width="604.72931"
   height="604.72931"
   viewBox="0 0 604.72931 604.72931"
   sodipodi:docname="Trumpet.svg"
   inkscape:version="0.92.4 (5da689c313, 2019-01-14)"><metadata
     id="metadata8"><rdf:RDF><cc:Work
         rdf:about=""><dc:format>image/svg+xml</dc:format><dc:type
           rdf:resource="http://purl.org/dc/dcmitype/StillImage" /><dc:title></dc:title></cc:Work></rdf:RDF></metadata><defs
     id="defs6"><clipPath
       clipPathUnits="userSpaceOnUse"
       id="clipPath18"><path
         d="M 0,453.547 H 453.547 V 0 H 0 Z"
         id="path16"
         inkscape:connector-curvature="0" /></clipPath></defs><sodipodi:namedview
     pagecolor="#ffffff"
     bordercolor="#666666"
     borderopacity="1"
     objecttolerance="10"
     gridtolerance="10"
     guidetolerance="10"
     inkscape:pageopacity="0"
     inkscape:pageshadow="2"
     inkscape:window-width="640"
     inkscape:window-height="480"
     id="namedview4"
     showgrid="false"
     inkscape:zoom="0.39025725"
     inkscape:cx="28.186536"
     inkscape:cy="302.36465"
     inkscape:window-x="0"
     inkscape:window-y="0"
     inkscape:window-maximized="0"
     inkscape:current-layer="g10" /><g
     id="g10"
     inkscape:groupmode="layer"
     inkscape:label="Trumpet"
     transform="matrix(1.3333333,0,0,-1.3333333,0,604.72933)"><g
       id="g12"><g
         id="g14"
         clip-path="url(#clipPath18)"><g
           id="g20"
           transform="translate(231.7435,208.9769)"><path
             d="m 0,0 c -0.823,-2.046 -1.845,-3.365 -2.035,-5.511 1.016,1.793 1.829,3.415 2.878,5.264 -0.211,0.12 -0.237,0.418 -0.626,0.638 M -56.23,111.316 c 0.111,0.205 0.324,0.421 0.288,0.578 -0.033,0.158 -0.308,0.318 -0.507,0.369 -1.021,0.267 -2.05,0.52 -3.087,0.724 -0.199,0.039 -0.617,-0.139 -0.621,-0.23 -0.018,-0.306 0.065,-0.86 0.192,-0.884 1.207,-0.234 2.432,-0.376 3.735,-0.557 M 35.087,-20.499 c -0.035,0.094 -0.065,0.19 -0.095,0.288 -0.314,-0.08 -0.808,-0.061 -0.905,-0.25 -0.726,-1.416 -1.372,-2.883 -2.119,-4.49 0.414,0.053 0.723,0.006 0.774,0.102 0.804,1.435 1.57,2.897 2.345,4.35 m -20.442,6.057 c 0.076,-0.061 0.165,-0.13 0.245,-0.191 0.156,0.14 0.349,0.251 0.455,0.419 0.666,1.113 1.308,2.24 1.942,3.368 0.147,0.265 0.304,0.581 0.29,0.869 -0.014,0.242 -0.265,0.467 -0.416,0.706 -0.222,-0.144 -0.537,-0.243 -0.649,-0.447 -0.289,-0.529 -0.507,-1.109 -0.726,-1.675 -0.39,-1.016 -0.765,-2.032 -1.141,-3.049 M 29.77,-24.979 c -0.405,-0.618 -0.908,-1.072 -0.987,-1.6 -0.051,-0.306 0.492,-0.874 0.891,-1.068 0.99,-0.478 2.039,-0.84 3.083,-1.197 0.27,-0.093 0.62,-0.056 0.907,0.019 0.87,0.237 1.085,0.826 0.424,1.42 -0.813,0.718 -1.734,1.342 -2.659,1.913 -0.431,0.267 -0.993,0.319 -1.659,0.513 M -19.931,75.544 c 1.026,-0.843 1.42,-0.789 2.281,0.466 0.094,0.144 0.244,0.254 0.331,0.402 0.89,1.478 1.777,2.966 2.651,4.425 -1.461,1.093 -1.908,1.012 -2.697,-0.32 -0.191,-0.325 -0.327,-0.684 -0.503,-1.021 -0.664,-1.277 -1.33,-2.553 -2.063,-3.952 m 31.713,-92.659 c 0.664,-1.486 3.876,-2.419 5.072,-1.393 0.183,0.157 0.187,0.793 0.02,1.022 -1.034,1.428 -2.578,2.13 -4.194,2.64 -0.659,0.208 -1.03,-0.326 -1.055,-0.952 -0.026,-0.436 0.1,-0.877 0.157,-1.317 m 26.671,37.734 c 0.387,-0.269 0.66,-0.476 0.953,-0.657 2.057,-1.244 4.114,-2.479 6.171,-3.72 0.866,-0.522 1.404,-0.233 1.792,0.985 -2.639,1.596 -5.345,3.239 -8.145,4.942 -0.331,-0.668 -0.536,-1.084 -0.771,-1.55 M -0.409,-9.634 c -0.482,0.567 -0.32,1.623 -1.463,1.489 -0.09,-0.009 -0.258,0.141 -0.295,0.255 -0.493,1.367 -1.905,1.458 -2.912,2.093 -0.696,0.432 -1.281,0.1 -1.439,-0.703 -0.071,-0.396 -0.088,-0.832 -0.004,-1.231 0.586,-2.854 3.336,-3.759 6.113,-1.903 M -54.626,110.66 c 0.498,0.185 1.353,0.445 1.337,0.503 -0.183,0.808 -0.254,1.924 -0.809,2.302 -1.31,0.894 -2.801,1.646 -4.326,2.081 -5.198,1.49 -10.364,1.309 -15.4,-0.784 -1.009,-0.422 -1.972,-0.942 -2.958,-1.415 0.063,-0.172 0.123,-0.344 0.185,-0.518 0.446,0.118 0.956,0.137 1.332,0.372 2.876,1.807 6.097,1.763 9.292,1.726 1.56,-0.019 1.738,-0.337 1.804,-1.599 0.562,-0.644 0.983,-1.125 1.543,-1.759 0.327,0.046 0.891,0.132 1.466,0.221 0.015,0.675 0,1.262 0.049,1.84 0.091,1.123 0.379,1.29 1.469,0.914 0.839,-0.292 1.654,-0.754 2.518,-0.872 2.501,-0.344 2.292,-0.998 2.498,-3.012 M -2.479,56.589 C -2.29,56.16 -2.204,55.918 -2.085,55.7 -1.459,54.503 -0.884,53.277 -0.95,51.889 -0.988,51.14 -1.218,50.4 -1.277,49.65 c -0.21,-2.401 -1.266,-3.664 -3.592,-4.054 -0.686,-0.114 -1.447,-0.082 -2.118,0.094 -1.346,0.349 -2.671,0.627 -3.638,1.927 -1.014,1.363 -1.477,2.753 -1.366,4.393 0.116,1.704 0.449,3.282 2.07,4.27 0.586,0.35 1.096,0.84 1.607,1.304 0.923,0.84 1.905,1.358 3.193,0.847 0.252,-0.101 0.55,-0.092 0.871,-0.137 -0.032,0.177 -0.021,0.226 -0.043,0.239 -0.076,0.068 -0.152,0.133 -0.238,0.176 -2.108,1.055 -3.934,0.479 -5.638,-0.932 -2.355,-1.959 -3.187,-4.651 -3.427,-7.516 -0.116,-1.433 0.343,-2.878 1.548,-3.915 1.52,-1.311 3.328,-1.852 5.282,-2.118 1.668,-0.232 3.147,0.184 4.536,1.014 3.287,1.966 3.25,7.179 1.921,9.597 -0.405,0.745 -0.83,1.62 -2.17,1.75 m 47.237,2.223 c -2.045,1.307 -3.973,2.564 -5.922,3.773 -0.547,0.341 -1.018,0.221 -1.308,-0.466 -0.934,-2.2 -1.904,-4.384 -2.895,-6.653 2.192,-1.256 4.334,-2.484 6.471,-3.709 1.225,2.369 2.386,4.602 3.654,7.055 M 80.727,16.358 c -0.379,-1.371 -1.201,-1.321 -2.202,-0.964 -0.542,0.196 -1.15,0.342 -1.713,0.307 C 76.085,15.653 75.229,15.592 74.686,15.193 73.724,14.485 72.994,13.48 72.103,12.669 71.116,11.765 71.293,10.448 70.815,9.371 69.737,6.934 69.603,4.323 69.271,1.743 69.253,1.616 69.392,1.46 69.456,1.316 c 0.115,-0.033 0.229,-0.06 0.34,-0.093 0.323,0.787 0.817,1.548 0.937,2.36 0.368,2.513 0.537,5.029 1.771,7.359 0.772,1.46 3.356,3.136 4.994,2.862 2.424,-0.416 4.261,-1.71 5.472,-3.841 C 84.135,7.918 83.691,5.622 81.868,4.143 80.533,3.056 79.106,2.057 78.253,0.504 77.669,-0.55 77.11,-1.614 76.632,-2.711 c -0.099,-0.234 0.181,-0.635 0.284,-0.959 0.354,0.185 0.729,0.334 1.044,0.571 0.133,0.098 0.193,0.388 0.171,0.582 -0.127,1.435 0.986,1.955 1.915,2.562 1.669,1.084 3.259,2.091 4.241,4.036 1.639,3.241 0.775,6.9 -1.931,8.439 -1.333,0.751 -1.42,1.852 -0.345,2.844 -0.408,0.315 -0.797,0.615 -1.284,0.994 m 89.378,-98.502 c 0.138,-0.206 0.241,-0.39 0.375,-0.544 0.902,-1.035 2.16,-1.198 2.909,-0.278 1.242,1.523 2.548,3.018 3.547,4.688 1.47,2.455 2.7,5.058 4.051,7.639 -1.242,0.74 -2.515,0.938 -3.834,0.836 -0.33,-0.032 -0.703,-0.256 -0.943,-0.51 -0.577,-0.594 -1.094,-1.254 -1.626,-1.894 -0.279,-0.334 -0.62,-0.65 -0.796,-1.036 -0.831,-1.786 -1.643,-3.588 -2.402,-5.406 -0.474,-1.123 -0.845,-2.292 -1.281,-3.495 M -2.164,54.047 c -0.421,0.718 -0.827,1.481 -1.3,2.198 -0.849,1.29 -3.07,1.771 -4.2,0.4 -0.386,-0.472 -0.942,-0.808 -1.432,-1.184 -2.033,-1.573 -2.659,-5.121 -1.114,-6.955 1.063,-1.257 2.703,-1.382 4.205,-1.727 1.065,-0.251 1.944,0.338 2.492,0.947 1.587,1.777 1.928,3.948 1.349,6.321 M 38.107,19.838 c -1.732,-3.29 -3.404,-6.462 -5.087,-9.656 2.341,-1.278 4.561,-2.464 6.761,-3.686 0.704,-0.391 1.23,-0.325 1.62,0.392 0.325,0.592 0.591,1.217 0.944,1.792 1.198,1.924 2.434,3.824 3.61,5.761 0.094,0.152 -0.092,0.69 -0.251,0.743 -2.189,0.736 -4.08,1.961 -5.862,3.391 -0.529,0.42 -1.092,0.796 -1.735,1.263 m 137.078,-90.166 c -0.306,0.214 -0.434,0.344 -0.59,0.395 -2.083,0.714 -4.14,1.533 -6.268,2.075 -1.123,0.292 -2.276,0.641 -3.592,-0.016 -1.851,-0.927 -2.061,-2.792 -3.006,-4.23 -0.057,-0.089 -0.043,-0.29 0.022,-0.391 0.839,-1.322 1.516,-2.808 2.58,-3.912 1.317,-1.366 2.966,-2.418 4.475,-3.598 0.499,-0.391 0.886,-0.287 1.13,0.311 0.334,0.826 0.647,1.662 1.017,2.473 1.111,2.43 1.433,5.32 4.232,6.893 M 21.051,29.278 c -0.76,-1.458 -1.447,-2.688 -2.054,-3.958 -0.825,-1.729 -1.594,-3.487 -2.392,-5.23 -0.243,-0.525 -0.176,-0.877 0.385,-1.173 1.703,-0.913 3.372,-1.896 5.089,-2.786 0.233,-0.122 0.84,0.025 0.97,0.232 0.972,1.604 1.915,3.223 2.778,4.885 0.536,1.028 0.896,2.148 1.369,3.215 0.474,1.057 1.017,2.085 1.462,3.152 0.078,0.184 -0.075,0.62 -0.256,0.739 -1.471,0.959 -2.959,1.895 -4.469,2.8 -1.512,0.909 -1.527,0.887 -2.271,-0.895 1.988,-1.198 4.632,-2.603 6.664,-3.827 -0.713,-0.689 -0.595,-0.891 -2.592,0.207 -1.554,0.855 -3.091,1.742 -4.683,2.639 M 46.98,-6.575 c -2.884,1.353 -5.694,2.653 -8.485,3.987 -0.772,0.369 -1.106,0.058 -1.403,-0.634 -0.994,-2.303 -1.987,-4.612 -3.06,-6.877 -0.853,-1.804 -1.821,-3.55 -2.763,-5.313 -0.277,-0.52 -0.172,-0.808 0.262,-1.221 1.744,-1.657 3.866,-2.721 5.941,-3.861 1.255,-0.693 1.285,-0.651 2.048,0.64 1.589,2.692 3.231,5.361 4.782,8.075 0.914,1.601 1.694,3.283 2.678,5.204 M 22.998,32.943 c 1.775,-1.159 3.504,-2.341 5.284,-3.431 1.046,-0.643 1.123,-0.567 1.634,0.598 0.229,0.539 0.438,1.093 0.707,1.608 1.119,2.136 2.242,4.266 3.379,6.383 0.698,1.3 1.49,2.562 2.119,3.896 0.817,1.735 1.463,3.548 2.276,5.284 0.562,1.184 1.314,2.279 1.911,3.446 0.077,0.153 -0.186,0.628 -0.409,0.759 -1.65,0.978 -3.316,1.937 -5.016,2.822 -0.263,0.134 -0.806,-0.049 -1.092,-0.258 -0.233,-0.178 -0.263,-0.619 -0.417,-0.928 -1.833,-3.588 -3.672,-7.178 -5.52,-10.761 -1.604,-3.126 -3.22,-6.245 -4.856,-9.418 m 36.655,8.577 c 0.665,1.521 1.312,3.001 1.962,4.484 0.436,1.005 0.777,2.066 1.328,3.003 0.692,1.181 0.697,1.578 -0.502,2.214 -1.875,0.998 -3.763,1.982 -5.675,2.904 -1.507,0.726 -1.525,0.684 -2.274,-0.811 -0.016,-0.03 -0.027,-0.065 -0.045,-0.095 -1.737,-3.516 -3.498,-7.027 -5.218,-10.554 -2.214,-4.546 -4.4,-9.106 -6.605,-13.659 -0.955,-1.97 -1.92,-3.941 -2.85,-5.855 2.444,-1.667 4.799,-3.286 7.185,-4.864 0.222,-0.147 0.811,-0.144 0.916,0.006 0.529,0.76 0.984,1.567 1.405,2.389 0.978,1.943 1.923,3.905 2.901,5.847 0.511,1.011 1.113,1.98 1.595,3.006 0.591,1.27 1.04,2.611 1.66,3.866 1.209,2.45 2.494,4.864 3.789,7.373 -1.343,0.742 -2.663,1.413 -3.917,2.179 -1.211,0.754 -2.371,1.584 -3.518,2.432 -0.248,0.181 -0.342,0.568 -0.511,0.864 0.064,0.037 0.121,0.073 0.182,0.11 2.663,-1.573 5.335,-3.146 8.192,-4.839 M 46.068,-11.49 c 1.913,-1.031 3.724,-1.949 5.474,-2.961 1.944,-1.118 3.796,-2.396 5.757,-3.482 2.41,-1.345 4.901,-2.544 7.334,-3.851 2.305,-1.239 4.564,-2.581 6.878,-3.817 3.046,-1.624 6.122,-3.192 9.196,-4.766 1.567,-0.802 3.179,-1.517 4.733,-2.348 1.452,-0.775 2.992,-1.391 4.326,-2.394 0.566,-0.432 1.257,-0.692 1.897,-1.026 3.692,-1.94 7.375,-3.894 11.074,-5.812 5.246,-2.72 10.65,-5.021 16.497,-6.12 1.052,-0.196 2.12,-0.345 3.175,-0.516 -0.18,0.437 -0.424,0.669 -0.705,0.83 -1.665,0.948 -3.358,1.843 -4.997,2.841 -0.961,0.59 -1.792,1.397 -2.751,2 -2.672,1.648 -5.371,3.253 -8.072,4.849 -2.199,1.3 -4.386,2.633 -6.647,3.821 -2.221,1.17 -4.546,2.145 -6.801,3.249 -3.501,1.732 -7.021,3.431 -10.466,5.264 -3.472,1.852 -6.827,3.917 -10.291,5.782 -6.483,3.495 -13.006,6.911 -19.51,10.363 -1.224,0.646 -2.418,1.337 -3.663,1.945 -0.228,0.113 -0.822,-0.014 -0.902,-0.191 -0.57,-1.21 -1.044,-2.462 -1.536,-3.66 M -33.227,90.728 c 0.154,0.074 0.308,0.155 0.459,0.231 0.319,-0.343 0.778,-0.645 0.92,-1.053 0.191,-0.559 0.148,-1.207 0.197,-1.815 0.16,-1.982 0.432,-3.934 1.809,-5.502 1.979,-2.256 4.427,-3.903 7.005,-5.369 0.585,-0.335 1.179,-0.654 1.718,-0.948 1.316,2.115 2.563,4.119 3.812,6.124 -7.702,3.978 -14.735,9.134 -22.603,13.179 -0.041,-2.35 -0.083,-4.415 -0.117,-6.481 -0.015,-1.028 -0.207,-2.102 0.013,-3.082 0.479,-2.086 1.073,-4.2 2.723,-5.713 1.412,-1.291 2.855,-2.6 4.469,-3.602 3.972,-2.462 8.033,-4.776 12.091,-7.096 2.453,-1.407 4.963,-2.715 7.448,-4.067 1.637,-0.886 3.319,-1.7 4.908,-2.668 2.376,-1.45 4.664,-3.037 7.031,-4.511 3.417,-2.119 6.927,-4.096 10.291,-6.301 2.609,-1.708 5.04,-3.668 7.449,-5.44 0.981,2.119 2.014,4.343 3.11,6.7 0.034,0 -0.13,-0.041 -0.241,0.014 -3.855,1.859 -7.739,3.66 -11.541,5.618 -1.772,0.913 -3.342,2.207 -5.087,3.18 -3.558,1.971 -7.187,3.831 -10.778,5.762 -3.64,1.961 -7.3,3.892 -10.891,5.954 -3.048,1.753 -6.091,3.542 -8.98,5.547 -2.115,1.466 -4.177,3.16 -4.595,5.994 -0.176,1.19 -0.244,2.402 -0.371,3.602 -0.064,0.58 -0.165,1.162 -0.249,1.743 M 24.03,15.168 c 2.306,-1.284 4.503,-2.518 6.702,-3.73 1.341,-0.733 1.352,-0.714 2.051,0.66 2.25,4.423 4.528,8.837 6.748,13.277 1.338,2.679 2.55,5.419 3.897,8.096 1.193,2.368 2.568,4.648 3.726,7.029 1.724,3.525 3.314,7.114 4.993,10.66 0.928,1.959 1.923,3.888 2.882,5.832 0.553,1.11 1.003,2.279 1.649,3.328 1.239,2.017 2.664,3.95 3.231,6.287 0.147,0.601 -10e-4,1.559 -0.405,1.958 -1.587,1.586 -3.592,2.535 -5.762,3.08 -0.648,0.165 -1.205,-0.01 -1.478,-0.766 -0.339,-0.93 -0.697,-1.868 -1.17,-2.733 -0.763,-1.388 -1.697,-2.681 -2.438,-4.08 C 46.736,60.411 44.916,56.7 42.987,53.048 41.586,50.4 40.011,47.845 38.628,45.187 37.389,42.804 36.338,40.328 35.17,37.91 33.31,34.066 31.429,30.233 29.533,26.406 27.957,23.226 26.352,20.057 24.77,16.878 24.483,16.306 24.255,15.701 24.03,15.168 M 7.781,24.031 c 2.339,-1.286 4.582,-2.502 6.814,-3.746 0.531,-0.294 0.681,-0.198 0.944,0.391 0.898,2.011 1.95,3.949 2.901,5.935 1.059,2.211 2.595,4.213 3.001,6.722 0.034,0.177 0.244,0.323 0.375,0.481 0.342,0.429 0.759,0.815 1.018,1.285 0.843,1.541 1.632,3.115 2.429,4.681 2.309,4.545 4.507,9.151 6.99,13.599 0.571,1.017 -0.054,2.755 1.7,3.101 0.037,0.005 0.047,0.12 0.074,0.183 1.337,3.019 2.591,6.08 4.041,9.044 1.29,2.626 2.759,5.17 4.232,7.697 0.913,1.569 0.774,2.402 -0.364,3.797 -1.47,1.809 -3.546,2.151 -5.569,2.622 C 35.562,80.011 34.729,79.77 34.184,78.962 32.005,75.73 30.136,72.327 28.52,68.776 27.69,66.958 27.024,65.075 25.946,63.349 25.188,62.145 24.264,60.894 24.417,59.273 24.436,59.019 24.214,58.552 24.012,58.494 22.889,58.168 22.741,57.092 22.351,56.294 21.2,53.962 20.186,51.561 19.142,49.176 17.334,45.037 15.547,40.889 13.747,36.752 13.115,35.302 12.496,33.844 11.823,32.41 10.513,29.651 9.17,26.912 7.781,24.031 M 41.908,5.52 C 44.4,4.175 46.752,2.868 49.134,1.627 51.05,0.628 50.539,0.7 51.782,2.435 c 0.038,0.056 0.041,0.135 0.072,0.197 1.814,3.458 3.656,6.897 5.431,10.379 1.314,2.577 2.532,5.201 3.811,7.799 0.834,1.691 1.694,3.374 2.558,5.054 0.691,1.348 1.433,2.671 2.094,4.038 2.017,4.149 3.967,8.329 6.018,12.462 1.193,2.406 2.535,4.735 3.795,7.108 1.052,1.981 2.107,3.963 3.122,5.962 0.778,1.531 0.488,2.507 -1.031,3.283 -1.444,0.738 -2.918,1.42 -4.414,2.038 -1.468,0.603 -2.967,0.088 -3.591,-1.119 -1.222,-2.386 -2.473,-4.762 -3.681,-7.158 -2.333,-4.659 -4.678,-9.312 -6.95,-14.002 -0.981,-2.024 -1.717,-4.17 -2.71,-6.188 C 54.51,28.629 52.612,25.026 50.748,21.401 50.062,20.057 49.336,18.73 48.662,17.377 47.85,15.743 47.172,14.036 46.264,12.464 44.926,10.151 43.431,7.932 41.908,5.52 m -0.739,-24.96 c 1.367,-0.544 2.544,-0.873 3.58,-1.45 2.404,-1.336 4.709,-2.839 7.105,-4.181 0.969,-0.542 2.103,-0.762 3.103,-1.253 1.266,-0.617 2.451,-1.403 3.701,-2.046 4.285,-2.232 8.546,-4.497 12.874,-6.638 3.8,-1.88 7.681,-3.601 11.513,-5.421 2.14,-1.011 4.233,-2.101 6.367,-3.123 2.578,-1.231 5.178,-2.423 7.767,-3.621 3.538,-1.639 7.048,-3.328 10.617,-4.882 2.197,-0.961 4.481,-1.718 6.721,-2.58 3.792,-1.458 7.731,-2.358 11.779,-2.344 1.812,0.008 3.625,0.751 5.433,1.183 0.682,0.162 1.35,0.38 2.286,0.654 -1.045,0.706 -1.83,1.296 -2.675,1.791 -0.945,0.553 -1.948,0.999 -2.908,1.528 -1.87,1.031 -3.538,2.46 -5.911,2.34 -3.308,-0.177 -6.412,0.983 -9.517,1.846 -2.344,0.651 -4.551,1.801 -6.781,2.813 -1.825,0.826 -3.616,1.736 -5.379,2.688 -1.698,0.904 -3.325,1.948 -5.015,2.872 -1.778,0.961 -3.604,1.847 -5.403,2.78 -3.7,1.926 -7.394,3.862 -11.097,5.784 -2.694,1.396 -5.417,2.752 -8.094,4.181 -2.798,1.499 -5.556,3.079 -8.342,4.59 -2.366,1.287 -4.765,2.507 -7.124,3.797 -3.084,1.69 -6.127,3.438 -9.216,5.11 -0.311,0.163 -1.057,0.083 -1.214,-0.148 -0.606,-0.863 -1.042,-1.849 -1.562,-2.771 -0.234,-0.413 -0.511,-0.812 -0.798,-1.192 -0.551,-0.725 -1.125,-1.43 -1.81,-2.307 M -45.667,98.325 c -1.163,0.361 -2.084,0.694 -3.031,0.936 -2.392,0.606 -4.785,1.229 -7.198,1.733 -1.412,0.293 -2.89,0.611 -4.295,0.487 -3.944,-0.355 -6.893,-2.38 -8.817,-5.864 -0.432,-0.783 -0.822,-1.594 -1.325,-2.323 -1.348,-1.954 -1.761,-4.235 -2.353,-6.458 -0.432,-1.608 -0.409,-3.205 -0.314,-4.888 0.132,-2.331 0.801,-4.367 2.307,-5.991 5.644,-6.088 11.691,-11.731 18.563,-16.433 2.451,-1.677 4.88,-3.402 7.429,-4.908 4.163,-2.454 8.447,-4.712 12.631,-7.141 3.018,-1.747 5.949,-3.642 8.935,-5.444 1.807,-1.087 3.654,-2.1 5.459,-3.191 4.349,-2.622 8.655,-5.308 13.036,-7.885 3.178,-1.872 6.444,-3.606 9.672,-5.404 1.206,-0.676 1.989,-0.334 2.485,0.953 0.45,1.171 0.986,2.318 1.548,3.447 0.835,1.688 1.805,3.315 2.567,5.03 1.389,3.115 2.673,6.272 3.986,9.423 0.549,1.3 0.369,1.696 -0.86,2.361 -0.796,0.432 -1.56,0.917 -2.303,1.426 -1.766,1.206 -3.49,2.477 -5.284,3.645 C 5.582,52.874 3.925,53.801 2.3,54.786 1.734,55.129 1.18,55.494 0.526,55.899 0.495,55.621 0.44,55.502 0.483,55.434 c 1.051,-1.93 1.228,-4.011 0.984,-6.137 -0.17,-1.481 -0.475,-2.932 -1.624,-4.021 -2.258,-2.149 -4.922,-2.72 -7.917,-2.066 -2.284,0.499 -4.359,1.522 -5.489,3.549 -1.82,3.265 -1.062,6.783 0.954,9.89 1.202,1.859 3.021,3.128 5.065,4.163 -0.409,0.302 -0.756,0.636 -1.172,0.861 -4.091,2.221 -8.236,4.349 -12.281,6.656 -4.495,2.564 -8.931,5.237 -13.338,7.948 -2.404,1.48 -4.577,3.274 -5.688,5.983 -0.757,1.841 -1.503,3.701 -1.397,5.768 0.116,2.133 0.22,4.268 0.225,6.399 0.003,0.937 0.014,2.01 -1.214,2.392 -0.868,0.269 -1.608,1.256 -2.674,0.261 -0.42,-0.397 -1.308,-0.324 -1.688,-0.739 -1.616,-1.763 -2.246,-3.956 -2.384,-6.304 -0.007,-0.168 0.104,-0.453 0.225,-0.495 0.146,-0.052 0.453,0.039 0.532,0.167 0.264,0.438 0.485,0.907 0.682,1.38 0.611,1.46 1.1,2.982 1.829,4.38 0.876,1.677 2.843,1.684 4.132,-0.01 -0.438,0.075 -0.759,0.191 -1.064,0.163 -0.494,-0.047 -1.122,-0.03 -1.445,-0.32 -0.542,-0.49 -1.032,-1.14 -1.294,-1.818 -0.634,-1.627 -1.107,-3.314 -1.681,-4.965 -0.073,-0.221 -0.317,-0.491 -0.528,-0.543 -1.171,-0.284 -2.708,1.115 -2.52,2.306 0.141,0.884 0.371,1.754 0.608,2.618 0.621,2.218 1.162,4.506 4.012,5.425 M 23.177,60.967 c 0.241,0.423 0.435,0.741 0.608,1.073 0.569,1.093 1.082,2.224 1.719,3.286 0.845,1.416 0.747,2.017 -0.621,2.8 -0.064,0.038 -0.121,0.073 -0.18,0.11 -2.594,1.626 -5.163,3.297 -7.792,4.871 -2.16,1.297 -4.405,2.456 -6.587,3.713 -2.032,1.17 -4.012,2.425 -6.048,3.586 -2.214,1.257 -4.47,2.44 -6.71,3.659 -4.154,2.256 -8.317,4.495 -12.452,6.779 -2.75,1.515 -5.505,3.034 -8.181,4.676 -2.605,1.601 -5.051,3.471 -7.685,5.022 -2.611,1.532 -5.273,3.061 -8.083,4.156 -4.228,1.64 -8.605,2.919 -12.926,4.321 -2.903,0.944 -5.878,1.529 -8.947,1.427 -2.566,-0.088 -4.993,-0.698 -7.381,-1.766 -2.555,-1.138 -4.787,-2.643 -6.461,-4.818 -1.585,-2.065 -2.926,-4.328 -4.323,-6.542 -1.861,-2.963 -3.414,-6.017 -3.604,-9.649 -0.176,-3.418 -0.123,-6.772 0.769,-10.108 0.825,-3.099 2.338,-5.822 4.26,-8.322 1.169,-1.522 2.401,-3.096 3.917,-4.228 2.562,-1.919 5.377,-3.5 8.081,-5.229 6.395,-4.096 12.796,-8.192 19.184,-12.306 1.971,-1.271 3.853,-2.686 5.86,-3.899 3.098,-1.875 6.273,-3.63 9.412,-5.444 4.575,-2.641 9.14,-5.301 13.727,-7.925 4.738,-2.708 9.528,-5.323 14.235,-8.087 5.744,-3.381 11.38,-6.946 17.142,-10.295 3.853,-2.236 7.827,-4.267 11.777,-6.327 2.384,-1.244 4.855,-2.326 7.246,-3.559 3.072,-1.588 6.116,-3.233 9.151,-4.879 4.314,-2.347 8.592,-4.751 12.91,-7.068 5.326,-2.859 10.7,-5.629 16.017,-8.495 4.954,-2.667 9.861,-5.425 14.811,-8.088 2.585,-1.392 5.219,-2.692 7.861,-3.978 2.355,-1.147 4.825,-2.08 7.104,-3.352 4.034,-2.264 7.986,-4.686 11.938,-7.095 4.418,-2.702 8.801,-5.467 13.201,-8.201 3.584,-2.224 7.139,-4.484 10.762,-6.639 1.805,-1.071 3.747,-1.916 5.603,-2.914 1.751,-0.936 3.547,-1.823 5.183,-2.942 2.692,-1.838 5.251,-3.866 7.897,-5.773 1.587,-1.143 3.237,-2.209 4.866,-3.296 0.208,-0.139 0.477,-0.181 0.812,-0.301 0.398,1.884 0.996,3.54 2.651,4.423 -3.767,2.589 -7.433,5.137 -11.123,7.648 -1.733,1.179 -3.467,2.367 -5.287,3.407 -1.441,0.827 -3.069,1.319 -4.507,2.149 -1.785,1.039 -3.539,2.149 -5.267,3.3 -5.126,3.412 -10.417,6.586 -15.704,9.752 -4.67,2.802 -9.438,5.448 -14.149,8.182 -6.567,3.811 -13.119,7.658 -19.69,11.46 -2.273,1.312 -4.598,2.533 -6.886,3.81 -2.928,1.629 -5.829,3.313 -8.778,4.901 -2.001,1.076 -4.108,1.973 -6.104,3.067 -4.719,2.585 -9.373,5.302 -14.111,7.857 -4.038,2.172 -8.191,4.134 -12.23,6.302 -4.843,2.602 -9.605,5.342 -14.425,7.989 -0.835,0.459 -1.774,0.749 -2.661,1.12 -0.398,0.114 -0.673,0.537 -1.066,0.764 -2.357,1.369 -4.734,2.716 -7.117,4.031 -3.509,1.938 -7.063,3.794 -10.543,5.782 -6.985,3.992 -13.937,8.042 -20.892,12.082 -2.542,1.478 -5.074,2.965 -7.585,4.489 -3.959,2.391 -7.867,4.862 -11.849,7.207 -4.021,2.365 -8.145,4.548 -12.151,6.934 -2.297,1.369 -4.439,2.993 -6.669,4.482 -0.998,0.666 -2.118,1.181 -3.028,1.951 -1.427,1.204 -2.723,2.58 -4.082,3.877 -3.303,3.135 -6.67,6.206 -9.872,9.439 -0.903,0.909 -1.428,2.258 -1.959,3.474 -0.903,2.058 -0.884,4.27 -0.455,6.407 0.474,2.374 1.061,4.764 1.95,7.009 0.766,1.923 1.995,3.675 3.084,5.462 1.348,2.221 3.511,3.432 5.792,4.46 2.484,1.121 5.047,0.717 7.519,0.132 3.426,-0.807 6.819,-1.806 10.171,-2.898 1.947,-0.638 3.835,-1.52 5.661,-2.469 2.229,-1.161 4.371,-2.493 6.537,-3.774 2.951,-1.749 5.898,-3.513 8.833,-5.291 1.563,-0.946 3.076,-1.977 4.651,-2.894 2.419,-1.418 4.872,-2.772 7.311,-4.149 1.202,-0.677 2.424,-1.309 3.589,-2.037 2.925,-1.831 5.804,-3.73 8.73,-5.547 0.853,-0.529 1.829,-0.837 2.701,-1.332 1.017,-0.568 1.937,-1.315 2.969,-1.842 3.165,-1.61 6.375,-3.131 9.55,-4.727 2.775,-1.395 5.518,-2.843 8.419,-4.343 M 36.913,-1.299 c -1.305,0.711 -2.379,1.331 -3.48,1.901 -5.837,3.006 -11.714,5.926 -17.5,9.017 -4.111,2.197 -8.125,4.569 -12.133,6.946 -4.278,2.536 -8.457,5.241 -12.756,7.739 -4.776,2.785 -9.682,5.34 -14.457,8.134 -6.939,4.066 -13.811,8.247 -20.7,12.402 -2.984,1.803 -5.959,3.629 -8.899,5.504 -4.574,2.917 -9.12,5.878 -13.661,8.841 -2.917,1.899 -5.83,3.811 -8.707,5.77 -1.51,1.03 -2.885,2.253 -4.426,3.23 -2.787,1.769 -5.757,3.26 -8.464,5.15 -4.353,3.028 -8.549,6.284 -12.814,9.44 -4.362,3.221 -8.816,6.314 -13.058,9.677 -3.21,2.55 -6.263,5.324 -9.173,8.215 -2.692,2.666 -5.139,5.593 -7.615,8.474 -1.299,1.516 -2.499,3.129 -3.632,4.777 -2.21,3.202 -1.408,6.723 -0.956,10.206 0.335,2.594 0.827,5.212 0.746,7.799 -0.077,2.412 -0.657,4.844 -1.324,7.183 -0.451,1.587 -1.296,3.112 -2.211,4.503 -0.972,1.473 -2.29,2.526 -4.221,2.862 -1.738,0.303 -3.323,0.027 -4.989,-0.3 -2.734,-0.535 -5.28,-1.512 -7.494,-3.144 -2.659,-1.963 -5.21,-4.074 -7.737,-6.209 -2.68,-2.268 -5.374,-4.538 -7.886,-6.987 -3.842,-3.758 -6.838,-8.218 -9.834,-12.641 -2.55,-3.769 -4.929,-7.668 -7.205,-11.612 -2.054,-3.549 -4.013,-7.171 -5.73,-10.892 -1.123,-2.42 -1.796,-5.056 -2.58,-7.624 -0.906,-2.961 -1.98,-5.905 -2.507,-8.938 -0.821,-4.72 -0.573,-9.484 0.599,-14.155 0.74,-2.936 1.487,-5.863 3.214,-8.467 2.104,-3.178 5.411,-4.666 8.978,-3.772 1.441,0.364 2.734,1.274 4.155,1.761 3.471,1.202 5.745,3.945 8.319,6.295 1.599,1.461 3.153,2.978 4.757,4.437 0.172,0.158 0.545,0.152 0.817,0.133 0.439,-0.035 0.912,-0.299 1.291,-0.195 3.371,0.982 6.833,1.107 10.287,0.944 4.552,-0.22 9.096,-0.661 13.645,-0.974 5.117,-0.348 10.226,-0.884 15.142,-2.346 5.816,-1.734 11.536,-3.801 17.263,-5.816 3.481,-1.221 6.904,-2.614 10.345,-3.942 3.158,-1.221 6.308,-2.456 9.457,-3.697 3.586,-1.411 7.171,-2.833 10.754,-4.261 5.579,-2.226 11.164,-4.435 16.406,-7.407 0.838,-0.474 1.691,-0.932 2.548,-1.36 2.221,-1.109 4.473,-2.154 6.671,-3.302 1.74,-0.913 3.394,-1.987 5.133,-2.893 1.677,-0.876 3.445,-1.578 5.121,-2.457 3.505,-1.838 6.992,-3.717 10.459,-5.629 2.135,-1.172 4.227,-2.442 6.334,-3.67 2.025,-1.179 4.024,-2.406 6.071,-3.532 1.662,-0.912 3.417,-1.654 5.079,-2.566 2.045,-1.123 4.006,-2.397 6.057,-3.505 1.634,-0.884 3.347,-1.633 5.042,-2.4 0.264,-0.121 0.801,-0.173 0.921,-0.02 0.777,0.966 1.559,1.945 2.184,3.013 1.504,2.561 2.926,5.173 4.41,7.815 C 3.806,15.642 4.238,15.149 3.682,14.33 3.063,13.418 2.371,12.549 1.801,11.607 0.992,10.265 0.278,8.86 -0.508,7.5 -1.003,6.64 -1.563,5.823 -2.077,4.972 -2.427,4.39 -2.704,3.853 -1.999,3.239 -0.202,1.669 1.896,0.579 3.992,-0.51 4.261,-0.648 4.918,-0.544 5.061,-0.329 5.872,0.9 6.67,2.161 7.318,3.487 c 0.996,2.034 1.846,4.144 2.805,6.197 0.285,0.607 0.747,1.132 1.141,1.723 1.419,-0.594 0.463,-1.372 0.221,-1.92 C 10.626,7.57 9.631,5.711 8.745,3.806 8.106,2.435 7.556,1.03 6.974,-0.362 6.846,-0.666 6.751,-0.986 6.668,-1.22 c 1.7,-0.869 3.332,-1.682 4.94,-2.528 1.044,-0.55 1.185,-0.501 1.744,0.543 0.632,1.182 1.322,2.332 1.966,3.507 1.058,1.93 2.095,3.87 3.148,5.8 0.187,0.339 0.439,0.923 0.635,0.913 0.361,-0.021 0.702,-0.401 1.063,-0.631 -0.304,-0.405 -0.549,-0.65 -0.699,-0.947 -1.714,-3.37 -3.401,-6.751 -5.129,-10.11 -0.419,-0.815 -0.059,-1.304 0.554,-1.718 0.611,-0.421 1.345,-0.728 1.854,-1.211 1.376,-1.307 2.77,-1.475 4.291,-1.847 0.334,-0.082 0.953,0.187 1.154,0.484 0.602,0.876 1.104,1.837 1.567,2.8 1.287,2.671 2.523,5.366 3.812,8.041 0.116,0.236 0.456,0.36 0.689,0.541 0.116,-0.342 0.424,-0.763 0.325,-1.018 -0.844,-2.114 -1.724,-4.205 -2.655,-6.271 -0.909,-2.02 -1.897,-4.006 -2.889,-6.099 2.242,-1.187 4.516,-2.4 7.056,-3.75 2.343,4.61 4.552,8.962 6.819,13.422 m -40.38,67.966 c 0.034,0.727 0.402,1.235 0.646,1.884 0.435,1.179 1.126,2.262 1.645,3.412 0.107,0.236 0.023,0.777 -0.149,0.882 -3.841,2.337 -7.709,4.641 -11.572,6.948 -0.756,0.453 -1.177,0.132 -1.525,-0.599 -0.429,-0.894 -0.949,-1.75 -1.453,-2.609 -0.479,-0.816 -0.998,-1.614 -1.56,-2.513 4.89,-2.592 9.687,-5.135 14.486,-7.676 3.727,-2.219 7.398,-4.544 11.207,-6.619 3.805,-2.069 7.746,-3.889 11.763,-5.884 0.222,0.626 0.406,1.199 0.639,1.747 0.563,1.315 1.116,2.635 1.743,3.924 0.297,0.613 0.098,0.86 -0.443,1.095 -0.823,0.358 -1.631,0.748 -2.428,1.154 -3.101,1.584 -6.179,3.207 -9.294,4.757 -2.368,1.186 -4.791,2.253 -7.165,3.425 -1.079,0.534 -1.3,0.437 -1.768,-0.676 -0.44,-1.032 -1.016,-2.018 -1.632,-2.963 -0.166,-0.26 -0.744,-0.668 -0.827,-1.043 m 2.367,5.725 C 0.166,71.757 0.065,71.81 -0.413,70.998 -1.064,69.886 -1.532,68.667 -2.126,67.521 -2.339,67.106 -2.678,66.749 -2.957,66.379 M 52.05,0.116 c 0.852,-0.443 1.866,-0.949 2.851,-1.505 3.035,-1.705 6.033,-3.479 9.091,-5.14 3.277,-1.768 6.631,-3.398 9.908,-5.156 3.561,-1.912 7.097,-3.862 10.602,-5.872 4.581,-2.623 9.115,-5.338 13.691,-7.972 3.339,-1.928 6.743,-3.738 10.068,-5.687 3.258,-1.913 6.435,-3.959 9.675,-5.899 1.032,-0.617 2.182,-1.039 3.226,-1.628 1.44,-0.819 2.825,-1.723 4.238,-2.581 2.029,-1.225 4.061,-2.456 6.097,-3.667 0.23,-0.13 0.526,-0.256 0.778,-0.229 2.198,0.261 4.254,0.674 6.039,2.304 1.537,1.401 2.73,3.049 4.08,4.576 0.413,0.473 0.585,1.169 0.8,1.781 0.699,1.968 1.449,3.922 2.025,5.923 0.605,2.127 1.532,4.186 1.25,6.527 -0.151,1.262 0.207,2.574 0.136,3.855 -0.042,0.818 -0.423,1.621 -0.69,2.419 -0.522,1.564 -1.29,2.998 -2.413,4.223 -0.137,0.153 -0.26,0.335 -0.342,0.521 -1.17,2.51 -3.073,4.403 -5.242,6.009 -2.184,1.614 -4.58,2.949 -6.697,4.644 -3.642,2.923 -8.048,4.376 -12.064,6.574 -2.717,1.493 -5.493,2.887 -8.202,4.397 -0.872,0.488 -1.443,0.435 -2.31,-0.109 -1.173,-0.743 -2.539,-1.229 -3.871,-1.661 -3.648,-1.187 -7.161,-0.789 -10.503,1.104 -2.91,1.639 -5.827,3.249 -8.724,4.908 -0.751,0.427 -1.406,1.007 -2.15,1.443 -0.293,0.173 -0.901,0.316 -1.018,0.176 -0.425,-0.5 -0.048,-0.895 0.42,-1.146 1.317,-0.71 2.364,-1.717 2.972,-3.062 C 86.571,8.408 87.27,6.594 85.96,4.697 85.595,4.171 85.415,3.509 85.209,2.89 84.69,1.323 83.416,0.406 82.12,-0.338 80.724,-1.145 79.749,-2.117 79.28,-3.673 78.881,-4.998 77.834,-5.406 76.619,-4.86 c -1.066,0.48 -1.569,1.736 -1.036,2.754 0.848,1.604 1.649,3.246 2.676,4.733 0.585,0.852 1.553,1.451 2.381,2.123 2.179,1.77 2.439,3.994 0.398,5.96 -1.958,1.889 -3.734,2.65 -6.093,0.979 -1.3,-0.917 -2.246,-2.232 -2.436,-3.93 -0.213,-1.912 -0.288,-3.854 -0.697,-5.722 -0.19,-0.853 -0.979,-1.631 -1.648,-2.29 -0.189,-0.185 -1.059,0.017 -1.359,0.311 -0.395,0.382 -0.75,1.033 -0.751,1.566 -0.034,3.635 1.215,7.015 2.236,10.433 0.383,1.269 1.323,2.224 2.365,3.05 0.643,0.507 1.256,1.072 1.959,1.481 0.938,0.555 1.926,0.195 2.914,0.027 0.681,-0.116 1.395,-0.015 2.09,-0.015 0.02,0.137 0.038,0.276 0.055,0.417 -0.956,0.564 -1.929,1.108 -2.866,1.706 -2.581,1.637 -5.148,3.305 -7.728,4.94 -0.861,0.548 -1.777,1.015 -2.63,1.581 -0.231,0.154 -0.31,0.533 -0.461,0.812 0.341,-0.011 0.747,0.09 1.017,-0.06 1.387,-0.768 2.762,-1.56 4.097,-2.419 3.354,-2.16 6.677,-4.367 10.021,-6.541 2.425,-1.58 4.777,-3.284 7.31,-4.676 3.043,-1.671 6.182,-3.193 9.382,-4.54 1.918,-0.805 4.014,-0.428 6.001,0.172 0.887,0.272 1.84,0.455 2.621,0.92 1.006,0.595 2.069,1.289 2.763,2.206 1.044,1.39 1.928,2.96 2.084,4.764 0.07,0.732 -0.005,1.502 -0.153,2.231 -0.624,3.063 -2.213,5.5 -4.906,7.142 -3.71,2.268 -7.462,4.472 -11.159,6.756 -2.051,1.269 -4.002,2.705 -6.06,3.964 -2.499,1.532 -5.052,2.974 -7.603,4.418 -1.733,0.977 -3.514,1.863 -5.245,2.843 -0.396,0.225 -0.674,0.673 -1.004,1.021 0.064,0.117 0.128,0.234 0.193,0.353 0.352,-0.073 0.75,-0.066 1.053,-0.231 3.285,-1.758 6.607,-3.464 9.823,-5.346 2.461,-1.446 4.776,-3.142 7.182,-4.697 1.534,-0.993 3.136,-1.889 4.666,-2.892 3.427,-2.239 6.912,-4.401 10.199,-6.836 1.758,-1.306 3.039,-3.203 3.684,-5.36 0.377,-1.251 0.702,-2.591 0.654,-3.873 -0.035,-1.085 -0.593,-2.171 -1.025,-3.208 -0.343,-0.819 -0.849,-1.568 -1.371,-2.515 1.51,-0.778 2.982,-1.539 4.454,-2.304 2.963,-1.532 5.915,-3.079 8.882,-4.604 0.946,-0.481 1.947,-0.857 2.871,-1.375 1.416,-0.785 2.809,-1.605 4.158,-2.49 2.464,-1.613 5.011,-3.13 7.287,-4.979 1.962,-1.594 3.755,-3.469 5.325,-5.461 1.541,-1.949 2.758,-4.181 4.024,-6.338 0.352,-0.601 0.429,-1.379 0.545,-2.085 0.246,-1.537 -0.027,-3.078 -0.029,-4.603 -0.004,-3.212 -0.891,-6.146 -2.121,-9.046 -0.695,-1.638 -1.085,-3.427 -1.912,-4.986 -0.84,-1.573 -2.006,-2.989 -3.125,-4.391 -0.581,-0.733 -1.284,-1.452 -2.087,-1.913 -1.053,-0.605 -2.249,-0.973 -3.402,-1.404 -0.304,-0.116 -0.664,-0.084 -1.315,-0.144 0.672,-0.549 1.104,-0.953 1.587,-1.282 1.111,-0.757 2.234,-1.489 3.38,-2.19 0.225,-0.135 0.651,-0.2 0.846,-0.075 0.67,0.422 1.476,0.66 1.728,1.643 0.101,0.4 0.806,0.679 1.269,0.946 2.683,1.547 4.715,3.64 5.936,6.536 0.523,1.253 1.435,2.349 1.966,3.601 0.72,1.694 1.231,3.478 1.839,5.223 0.124,0.348 0.223,0.738 0.434,1.029 1.223,1.69 1.469,3.658 1.686,5.648 0.216,1.941 0.135,3.797 -0.21,5.761 -0.688,3.922 -2.261,7.329 -4.325,10.68 -2.374,3.853 -5.696,6.585 -9.388,8.947 -2.578,1.656 -5.283,3.116 -7.935,4.652 -4.711,2.735 -9.428,5.458 -14.138,8.199 -1.591,0.928 -3.174,1.884 -4.749,2.845 -0.244,0.146 -0.424,0.397 -0.634,0.602 0.083,0.129 0.163,0.261 0.245,0.392 1.313,-0.617 2.667,-1.147 3.917,-1.874 3.84,-2.232 7.642,-4.536 11.461,-6.817 2.009,-1.2 4.004,-2.423 6.021,-3.599 1.901,-1.116 3.83,-2.173 5.735,-3.283 0.562,-0.324 1.07,-0.744 1.613,-1.106 2.441,-1.636 4.731,-3.428 6.586,-5.75 2.318,-2.911 4.177,-6.058 5.324,-9.609 0.429,-1.323 0.893,-2.645 1.24,-3.991 0.153,-0.604 0.044,-1.267 0.089,-1.903 0.051,-0.808 0.204,-1.606 0.2,-2.413 -0.01,-1.903 0,-3.794 -0.706,-5.645 -0.861,-2.259 -1.413,-4.636 -2.277,-6.902 -0.697,-1.818 -1.751,-3.503 -2.468,-5.323 -1.436,-3.653 -4.124,-6.125 -7.326,-8.169 -0.651,-0.417 -1.198,-0.988 -2.048,-1.702 1.39,-0.447 2.577,-0.818 3.75,-1.206 0.423,-0.14 0.863,-0.281 1.227,-0.522 3.89,-2.608 7.755,-5.248 11.654,-7.852 2.346,-1.564 4.734,-3.082 7.113,-4.605 0.259,-0.162 0.581,-0.222 0.88,-0.306 1.889,-0.515 3.789,-0.988 5.665,-1.545 0.784,-0.232 1.494,-0.747 2.288,-0.919 0.976,-0.209 2.039,-0.41 2.998,-0.229 1.816,0.35 3.441,-0.144 4.992,-0.867 0.605,-0.283 1.175,-0.937 0.689,-1.959 -1.031,-2.162 -1.789,-4.463 -2.886,-6.589 -0.749,-1.454 -1.88,-2.712 -2.846,-4.048 -0.442,-0.611 -0.895,-1.225 -1.363,-1.824 -1.228,-1.578 -2.515,-1.593 -4.139,-0.463 -1.281,0.887 -1.947,2.105 -2.776,3.313 -0.719,1.045 -1.874,1.815 -2.891,2.636 -1.491,1.201 -2.497,2.752 -3.311,4.447 -0.715,1.476 -1.651,2.635 -3.138,3.537 -3.03,1.837 -5.959,3.865 -8.808,5.987 -2.17,1.608 -4.413,3.017 -6.881,4.14 -2.123,0.969 -4.13,2.205 -6.161,3.374 -0.9,0.519 -1.632,0.997 -2.841,0.552 -2.089,-0.785 -4.279,-1.345 -6.462,-1.81 -1.048,-0.223 -2.198,-0.131 -3.273,0.014 -5.493,0.738 -10.644,2.567 -15.643,4.919 -2.932,1.373 -5.928,2.614 -8.879,3.94 -2.512,1.129 -5.018,2.262 -7.498,3.449 -3.479,1.661 -6.918,3.411 -10.399,5.068 -3.618,1.728 -7.273,3.367 -10.896,5.074 -3.273,1.546 -6.532,3.117 -9.79,4.701 -0.714,0.347 -1.365,0.812 -2.082,1.166 -1.479,0.714 -3.002,1.34 -4.459,2.093 -2.051,1.058 -4.062,2.172 -6.071,3.295 -1.627,0.904 -3.192,1.907 -4.842,2.756 -0.802,0.417 -1.732,0.58 -2.749,0.906 -0.056,-0.079 -0.228,-0.278 -0.339,-0.502 -0.703,-1.407 -1.639,-1.648 -2.969,-0.742 -0.229,0.152 -0.455,0.309 -0.688,0.455 -0.522,0.315 -0.909,0.185 -1.18,-0.368 -0.463,-0.956 -0.942,-1.916 -1.424,-2.868 -0.168,-0.325 -0.367,-0.631 -0.606,-1.044 0.287,-0.311 0.664,-0.664 0.961,-1.066 0.345,-0.481 0.935,-1.045 0.873,-1.5 -0.134,-0.953 -1.279,-1.773 -2.124,-1.611 -2.049,0.403 -4.045,0.974 -5.288,2.896 -0.83,1.285 -0.066,2.966 1.451,3.092 0.413,0.031 0.839,-0.07 1.245,-0.015 0.254,0.032 0.605,0.181 0.708,0.377 0.579,1.123 1.051,2.306 1.65,3.41 0.323,0.603 0.234,0.902 -0.296,1.282 -0.9,0.635 -1.733,1.364 -2.593,2.055 -0.079,0.065 -0.204,0.139 -0.219,0.218 -0.312,1.982 -2.279,1.833 -3.475,2.655 -1.124,0.78 -2.368,1.403 -3.58,2.052 -0.352,0.186 -0.785,0.222 -1.165,0.361 -0.962,0.345 -1.919,0.71 -2.903,1.075 -1.62,-1.166 -1.568,-3.296 -2.568,-4.963 0.461,-0.497 1.038,-1.027 1.499,-1.649 0.877,-1.174 0.457,-2.221 -0.95,-2.533 -2.535,-0.562 -4.714,0.009 -6.063,2.084 -0.684,1.05 -0.379,2.966 0.545,3.672 0.255,0.194 0.669,0.17 0.996,0.273 0.423,0.129 1.047,0.177 1.214,0.468 0.759,1.337 1.37,2.764 2.079,4.136 0.249,0.488 0.123,0.728 -0.307,1.003 -0.747,0.482 -1.473,0.998 -2.163,1.563 -0.299,0.246 -0.642,0.616 -0.691,0.97 -0.099,0.741 -0.534,1.066 -1.136,1.312 -1.693,0.673 -3.328,1.572 -5.079,1.961 -1.239,0.282 -2.357,0.68 -3.469,1.22 -0.195,0.092 -0.637,-0.008 -0.784,-0.177 -1.454,-1.668 -2.437,-3.62 -2.859,-5.763 -0.105,-0.542 0.647,-0.614 1.058,-1.282 0.48,-0.779 0.851,-2.014 0.079,-2.472 -0.972,-0.577 -2.049,-0.977 -3.094,-1.412 -0.2,-0.087 -0.487,-0.038 -0.71,0.029 -2.035,0.594 -4.112,3.434 -4.057,5.517 0.049,1.669 1.087,2.447 2.695,2.015 1.485,-0.403 1.496,-0.407 2.185,0.988 0.663,1.352 1.261,3.261 1.862,4.644 0.095,0.217 0.028,0.149 -0.169,0.292 -1.006,0.733 -2.163,1.238 -2.854,2.424 -0.234,0.401 -1.142,0.371 -1.69,0.641 -2.66,1.296 -5.321,2.591 -7.944,3.963 -1.738,0.906 -3.407,1.948 -5.119,2.902 -1.894,1.059 -3.829,2.041 -5.701,3.137 -3.839,2.235 -7.633,4.539 -11.466,6.771 -1.164,0.675 -2.421,1.182 -3.607,1.813 -2.396,1.271 -4.753,2.611 -7.157,3.866 -1.676,0.877 -3.423,1.619 -5.098,2.506 -4.06,2.123 -8.059,4.362 -12.149,6.433 -2.947,1.494 -5.973,2.838 -9.008,4.15 -3.565,1.544 -7.172,3.006 -10.78,4.442 -2.118,0.841 -4.302,1.506 -6.414,2.351 -6.628,2.66 -13.207,5.448 -19.86,8.025 -3.729,1.451 -7.619,2.481 -11.364,3.904 -3.44,1.304 -6.992,2.17 -10.587,2.817 -3.012,0.538 -6.089,0.731 -9.143,1.049 -2.581,0.269 -5.159,0.563 -7.741,0.74 -3.336,0.228 -6.675,0.455 -10.015,0.471 -1.774,0.008 -3.566,-0.345 -5.325,-0.673 -1.309,-0.238 -2.562,-0.912 -3.866,-1.004 -1.138,-0.084 -1.778,-0.602 -2.523,-1.314 -1.936,-1.866 -3.869,-3.76 -5.996,-5.391 -1.739,-1.333 -3.707,-2.385 -5.651,-3.417 -1.198,-0.639 -2.502,-1.217 -3.82,-1.457 -3.098,-0.552 -5.827,0.166 -8.211,2.46 -3.137,3.022 -3.712,7.067 -4.78,10.916 -0.525,1.888 -0.844,3.86 -1.007,5.81 -0.297,3.483 -0.204,6.968 0.573,10.405 0.291,1.277 0.503,2.572 0.771,3.853 0.111,0.537 0.241,1.081 0.427,1.598 0.554,1.555 1.139,3.101 1.7,4.653 0.908,2.514 1.634,5.103 2.755,7.519 1.225,2.65 2.801,5.134 4.238,7.681 1.081,1.915 2.121,3.86 3.29,5.716 1.685,2.682 3.475,5.301 5.213,7.951 0.319,0.487 0.623,0.991 0.916,1.494 1.944,3.36 4.321,6.391 7.025,9.157 2.39,2.442 4.773,4.911 7.368,7.125 2.803,2.392 5.863,4.47 8.765,6.752 1.552,1.225 3.056,2.522 5.021,3.016 2.163,0.542 4.349,0.991 6.531,1.481 1.881,0.418 3.625,-0.344 5.137,-1.148 1.946,-1.033 3.386,-2.819 4.24,-4.912 0.738,-1.813 1.523,-3.653 1.88,-5.559 0.39,-2.067 0.488,-4.234 0.395,-6.347 -0.135,-2.956 -0.483,-5.91 -0.887,-8.846 -0.225,-1.638 -0.357,-3.23 0.321,-4.756 0.494,-1.115 1.025,-2.256 1.764,-3.212 2.007,-2.588 4.111,-5.099 6.212,-7.608 3.06,-3.652 6.43,-7.003 10.052,-10.092 0.938,-0.805 1.955,-1.518 2.945,-2.267 2.191,-1.662 4.391,-3.305 6.579,-4.976 2.138,-1.634 4.252,-3.297 6.394,-4.921 1.596,-1.214 3.22,-2.382 4.829,-3.572 3.098,-2.295 6.145,-4.662 9.301,-6.867 2.059,-1.437 4.275,-2.65 6.426,-3.95 0.307,-0.183 0.671,-0.269 1.257,-0.496 -0.832,1.278 -1.552,2.271 -2.16,3.325 -1.636,2.829 -2.662,5.818 -2.98,9.13 -0.338,3.476 -0.352,6.901 0.5,10.263 0.451,1.771 1.319,3.456 2.16,5.108 1.425,2.797 2.979,5.519 5.008,7.944 1.721,2.063 3.692,3.801 6.161,4.91 1.434,0.65 2.896,1.249 4.34,1.873 0.12,0.054 0.255,0.137 0.322,0.243 0.323,0.523 -0.452,2.092 -1.068,2.069 -1.844,-0.066 -3.715,-0.066 -5.534,-0.349 -1.093,-0.169 -2.124,-0.784 -3.161,-1.248 -1.287,-0.573 -2.404,-0.17 -3.068,1.126 -0.338,0.663 -0.329,1.181 0.436,1.496 1.91,0.784 3.776,1.69 5.737,2.307 1.732,0.543 3.551,0.97 5.354,1.072 2.012,0.107 4.063,-0.098 6.073,-0.369 1.307,-0.178 2.62,-0.584 3.836,-1.116 1.706,-0.745 3.519,-1.474 4.156,-3.52 0.122,-0.388 0.318,-0.806 0.267,-1.181 -0.134,-0.975 0.337,-1.298 1.181,-1.584 4.565,-1.561 9.13,-3.135 13.648,-4.822 1.673,-0.624 3.286,-1.471 4.811,-2.404 2.818,-1.729 5.481,-3.712 8.329,-5.384 5.381,-3.158 10.839,-6.192 16.282,-9.247 2.282,-1.284 4.618,-2.479 6.915,-3.741 1.84,-1.007 3.662,-2.054 5.497,-3.083 2.279,-1.275 4.587,-2.5 6.833,-3.833 2.899,-1.722 5.735,-3.551 8.63,-5.281 1.715,-1.024 3.492,-1.943 5.232,-2.925 0.215,-0.12 0.386,-0.34 0.539,-0.545 0.527,-0.703 0.994,-0.751 1.414,0.04 0.505,0.956 0.757,2.053 1.269,3.016 1.498,2.815 3.052,5.605 4.627,8.378 0.527,0.93 1.954,1.406 3.119,1.105 2.006,-0.513 3.992,-1.054 5.713,-2.316 2.176,-1.6 2.95,-4.223 1.179,-6.566 -1.606,-2.123 -2.712,-4.63 -4.011,-6.982 -0.259,-0.476 -0.376,-1.024 -0.598,-1.639 2.062,-1.271 4.246,-2.613 6.677,-4.109 0.524,1.074 1.044,2.118 1.546,3.175 0.61,1.273 1.153,2.582 1.812,3.835 0.936,1.796 2.005,3.521 2.912,5.333 0.424,0.842 0.992,0.952 1.83,0.959 1.908,0.015 3.297,-1.126 4.772,-2.029 0.915,-0.559 1.761,-1.288 2.5,-2.072 1.094,-1.159 1.094,-2.142 0.268,-3.55 -1.241,-2.121 -2.485,-4.24 -3.679,-6.385 -0.502,-0.898 -0.886,-1.857 -1.323,-2.789 -0.311,-0.675 0.256,-0.842 0.656,-1.054 2.242,-1.177 4.507,-2.313 6.739,-3.507 0.594,-0.32 0.897,-0.403 1.251,0.344 1.312,2.794 2.725,5.546 4.072,8.324 0.819,1.676 2.646,2.609 4.507,1.868 2,-0.789 3.958,-1.796 5.757,-2.972 1.684,-1.103 1.95,-2.722 0.883,-4.461 -1.615,-2.624 -2.865,-5.478 -4.314,-8.214 -0.9,-1.701 -1.889,-3.35 -2.81,-5.038 C 70.757,38.086 68.851,34.749 67.408,31.157 66.535,28.989 65.375,26.939 64.34,24.84 63.49,23.104 62.667,21.356 61.783,19.649 60.873,17.891 59.871,16.179 58.965,14.421 58.211,12.963 57.535,11.472 56.824,9.994 55.246,6.723 53.665,3.453 52.05,0.116"
             style="fill:#101921;fill-opacity:1;fill-rule:evenodd;stroke:#3d3c3e;stroke-width:1;stroke-linecap:butt;stroke-linejoin:miter;stroke-miterlimit:10;stroke-dasharray:none;stroke-opacity:1"
             id="path22"
             inkscape:connector-curvature="0" /></g><g
           id="g24"
           transform="translate(301.7777,242.3846)"><path
             d="m 0,0 c 0.642,-0.12 1.075,-0.104 1.402,-0.285 2.196,-1.218 4.372,-2.479 6.554,-3.724 2.513,-1.442 5.045,-2.855 7.527,-4.347 1.712,-1.024 3.328,-2.208 5.027,-3.253 2.245,-1.379 4.526,-2.695 6.799,-4.036 0.414,-0.244 0.823,-0.521 1.273,-0.678 0.373,-0.13 0.8,-0.105 1.203,-0.147 0.007,0.514 0.218,1.175 -0.022,1.507 -0.448,0.622 -1.125,1.104 -1.767,1.559 -1.93,1.374 -3.85,2.768 -5.853,4.035 -1.968,1.25 -4.039,2.348 -6.052,3.527 -0.937,0.546 -1.837,1.15 -2.77,1.688 C 9.749,-2.096 6.172,-0.06 2.61,2.01 2.208,2.244 1.874,2.611 1.56,2.964 1.435,3.104 1.456,3.371 1.409,3.585 c 0.248,0.003 0.551,0.105 0.732,0 1.342,-0.763 2.652,-1.58 3.983,-2.364 3.175,-1.873 6.338,-3.76 9.536,-5.595 2.116,-1.219 4.349,-2.253 6.403,-3.56 2.26,-1.441 4.379,-3.1 6.561,-4.66 0.698,-0.506 1.45,-0.947 2.096,-1.51 1.243,-1.092 1.104,-2.938 -0.312,-3.741 -0.344,-0.198 -1.003,-0.154 -1.357,0.052 -2.614,1.51 -5.195,3.078 -7.776,4.647 -2.403,1.466 -4.79,2.97 -7.195,4.433 C 12.086,-7.5 10.091,-6.292 8.062,-5.132 6.51,-4.249 4.932,-3.404 3.32,-2.637 2.112,-2.058 0.942,-1.484 0,0"
             style="fill:#101921;fill-opacity:1;fill-rule:evenodd;stroke:#3d3c3e;stroke-width:1;stroke-linecap:butt;stroke-linejoin:miter;stroke-miterlimit:10;stroke-dasharray:none;stroke-opacity:1"
             id="path26"
             inkscape:connector-curvature="0" /></g><g
           id="g28"
           transform="translate(231.3343,199.3431)"><path
             d="m 0,0 c -2.776,-1.856 -5.526,-0.951 -6.113,1.902 -0.084,0.4 -0.067,0.836 0.004,1.232 0.158,0.803 0.743,1.135 1.436,0.703 C -3.663,3.202 -2.251,3.11 -1.758,1.744 -1.721,1.63 -1.553,1.479 -1.463,1.489 -0.32,1.623 -0.481,0.566 0,0"
             style="fill:#101921;fill-opacity:1;fill-rule:evenodd;stroke:#3d3c3e;stroke-width:1;stroke-linecap:butt;stroke-linejoin:miter;stroke-miterlimit:10;stroke-dasharray:none;stroke-opacity:1"
             id="path30"
             inkscape:connector-curvature="0" /></g><g
           id="g32"
           transform="translate(270.1966,229.5961)"><path
             d="m 0,0 c 0.235,0.466 0.439,0.882 0.771,1.55 2.8,-1.7 5.506,-3.346 8.145,-4.943 C 8.528,-4.61 7.99,-4.899 7.124,-4.377 5.066,-3.136 3.01,-1.901 0.953,-0.657 0.66,-0.478 0.387,-0.27 0,0"
             style="fill:#101921;fill-opacity:1;fill-rule:evenodd;stroke:#3d3c3e;stroke-width:1;stroke-linecap:butt;stroke-linejoin:miter;stroke-miterlimit:10;stroke-dasharray:none;stroke-opacity:1"
             id="path34"
             inkscape:connector-curvature="0" /></g><g
           id="g36"
           transform="translate(243.5257,191.8617)"><path
             d="M 0,0 C -0.058,0.44 -0.184,0.881 -0.157,1.317 -0.13,1.943 0.239,2.478 0.897,2.27 2.514,1.759 4.058,1.058 5.092,-0.371 5.259,-0.6 5.255,-1.235 5.072,-1.393 3.876,-2.419 0.665,-1.485 0,0"
             style="fill:#101921;fill-opacity:1;fill-rule:evenodd;stroke:#3d3c3e;stroke-width:1;stroke-linecap:butt;stroke-linejoin:miter;stroke-miterlimit:10;stroke-dasharray:none;stroke-opacity:1"
             id="path38"
             inkscape:connector-curvature="0" /></g><g
           id="g40"
           transform="translate(261.4994,183.725)"><path
             d="M 0,0 C 0.661,-0.195 1.242,0.027 1.673,-0.24 2.599,-0.812 3.52,-1.435 4.332,-2.153 4.993,-2.747 4.778,-3.336 3.908,-3.573 3.621,-3.648 3.271,-3.685 3.001,-3.592 c -1.044,0.357 -2.093,0.719 -3.08,1.196 -0.399,0.195 -0.944,0.757 -0.896,1.069 0.081,0.528 0.584,0.982 0.994,1.6"
             style="fill:#101921;fill-opacity:1;fill-rule:evenodd;stroke:#3d3c3e;stroke-width:1;stroke-linecap:butt;stroke-linejoin:miter;stroke-miterlimit:10;stroke-dasharray:none;stroke-opacity:1"
             id="path42"
             inkscape:connector-curvature="0" /></g><g
           id="g44"
           transform="translate(246.2074,194.057)"><path
             d="M 0,0 C 0.377,1.011 0.751,2.028 1.139,3.044 1.361,3.615 1.577,4.19 1.867,4.724 1.978,4.929 2.294,5.021 2.517,5.165 2.667,4.929 2.919,4.7 2.932,4.46 2.946,4.171 2.789,3.861 2.643,3.592 2.008,2.464 1.363,1.341 0.7,0.226 0.595,0.061 0.399,-0.052 0.245,-0.195 0.163,-0.135 0.079,-0.064 0,0"
             style="fill:#101921;fill-opacity:1;fill-rule:evenodd;stroke:#3d3c3e;stroke-width:1;stroke-linecap:butt;stroke-linejoin:miter;stroke-miterlimit:10;stroke-dasharray:none;stroke-opacity:1"
             id="path46"
             inkscape:connector-curvature="0" /></g><g
           id="g48"
           transform="translate(266.8304,188.4779)"><path
             d="M 0,0 C -0.774,-1.453 -1.541,-2.915 -2.342,-4.35 -2.396,-4.446 -2.705,-4.399 -3.119,-4.452 -2.372,-2.845 -1.728,-1.378 -1,0.038 -0.903,0.227 -0.792,-0.079 -0.478,0 -0.446,-0.098 -0.035,0.094 0,0"
             style="fill:#101921;fill-opacity:1;fill-rule:evenodd;stroke:#3d3c3e;stroke-width:1;stroke-linecap:butt;stroke-linejoin:miter;stroke-miterlimit:10;stroke-dasharray:none;stroke-opacity:1"
             id="path50"
             inkscape:connector-curvature="0" /></g><g
           id="g52"
           transform="translate(253.6361,239.473)"><path
             d="M 0,0 C 0.187,0.39 0.347,0.732 0.604,1.29 2.799,-0.126 4.921,-1.49 6.986,-2.821 6.684,-3.835 6.259,-4.076 5.584,-3.641 3.97,-2.606 2.358,-1.578 0.746,-0.545 0.519,-0.397 0.304,-0.226 0,0"
             style="fill:#101921;fill-opacity:1;fill-rule:evenodd;stroke:#3d3c3e;stroke-width:1;stroke-linecap:butt;stroke-linejoin:miter;stroke-miterlimit:10;stroke-dasharray:none;stroke-opacity:1"
             id="path54"
             inkscape:connector-curvature="0" /></g><g
           id="g56"
           transform="translate(213.2982,283.3734)"><path
             d="M 0,0 C -0.286,0.169 -0.766,1.161 -1.169,1.396 -0.121,3.365 0.888,5.271 1.875,7.125 2.61,6.849 4.044,7.014 3.942,6.123 3.755,4.496 1.705,2.698 0.942,1.248 0.83,1.043 0.042,0.647 -0.125,0.375"
             style="fill:#101921;fill-opacity:1;fill-rule:evenodd;stroke:#3d3c3e;stroke-width:1;stroke-linecap:butt;stroke-linejoin:miter;stroke-miterlimit:10;stroke-dasharray:none;stroke-opacity:1"
             id="path58"
             inkscape:connector-curvature="0" /></g><g
           id="g60"
           transform="translate(230.3451,273.9359)"><path
             d="M 0,0 C -0.263,0.153 -1.664,1.015 -2.031,1.219 -1.077,2.99 0.759,4.785 1.657,6.451 2.33,6.203 2.487,5.857 2.199,5.314 1.499,4.013 0.801,2.722 0.11,1.423 0.005,1.239 -0.107,1.065 -0.258,0.819"
             style="fill:#101921;fill-opacity:1;fill-rule:evenodd;stroke:#3d3c3e;stroke-width:1;stroke-linecap:butt;stroke-linejoin:miter;stroke-miterlimit:10;stroke-dasharray:none;stroke-opacity:1"
             id="path62"
             inkscape:connector-curvature="0" /></g><g
           id="g64"
           transform="translate(231.9291,209.5062)"><path
             d="M 0,0 C 0.481,-0.27 0.769,-0.424 1.03,-0.573 -0.267,-2.856 -1.526,-5.077 -2.782,-7.297 -2.548,-4.641 -1.019,-2.529 0,0"
             style="fill:#101921;fill-opacity:1;fill-rule:evenodd;stroke:#3d3c3e;stroke-width:1;stroke-linecap:butt;stroke-linejoin:miter;stroke-miterlimit:10;stroke-dasharray:none;stroke-opacity:1"
             id="path66"
             inkscape:connector-curvature="0" /></g></g></g></g></svg>