<?xml version="1.0" encoding="UTF-8" standalone="no"?>
<!-- Created with Inkscape (http://www.inkscape.org/) -->

<svg
   xmlns:dc="http://purl.org/dc/elements/1.1/"
   xmlns:cc="http://creativecommons.org/ns#"
   xmlns:rdf="http://www.w3.org/1999/02/22-rdf-syntax-ns#"
   xmlns:svg="http://www.w3.org/2000/svg"
   xmlns="http://www.w3.org/2000/svg"
   xmlns:sodipodi="http://sodipodi.sourceforge.net/DTD/sodipodi-0.dtd"
   xmlns:inkscape="http://www.inkscape.org/namespaces/inkscape"
   version="1.1"
   id="svg2"
   xml:space="preserve"
   width="708.47998"
   height="985.59998"
   viewBox="0 0 708.47998 985.59998"
   sodipodi:docname="Tuba.svg"
   inkscape:version="0.92.4 (5da689c313, 2019-01-14)"><metadata
     id="metadata8"><rdf:RDF><cc:Work
         rdf:about=""><dc:format>image/svg+xml</dc:format><dc:type
           rdf:resource="http://purl.org/dc/dcmitype/StillImage" /><dc:title></dc:title></cc:Work></rdf:RDF></metadata><defs
     id="defs6"><clipPath
       clipPathUnits="userSpaceOnUse"
       id="clipPath18"><path
         d="M 0,739.2 H 531.36 V 0 H 0 Z"
         id="path16"
         inkscape:connector-curvature="0" /></clipPath></defs><sodipodi:namedview
     pagecolor="#ffffff"
     bordercolor="#666666"
     borderopacity="1"
     objecttolerance="10"
     gridtolerance="10"
     guidetolerance="10"
     inkscape:pageopacity="0"
     inkscape:pageshadow="2"
     inkscape:window-width="640"
     inkscape:window-height="480"
     id="namedview4"
     showgrid="false"
     inkscape:zoom="0.23944806"
     inkscape:cx="-92.621016"
     inkscape:cy="492.79999"
     inkscape:window-x="0"
     inkscape:window-y="0"
     inkscape:window-maximized="0"
     inkscape:current-layer="g10" /><g
     id="g10"
     inkscape:groupmode="layer"
     inkscape:label="Tuba"
     transform="matrix(1.3333333,0,0,-1.3333333,0,985.6)"><g
       id="g12"><g
         id="g14"
         clip-path="url(#clipPath18)"><g
           id="g20"
           transform="translate(288.9525,387.5473)"><path
             d="M 0,0 C -0.004,0.185 -0.007,0.369 -0.011,0.553 -0.521,0.511 -1.031,0.468 -1.541,0.425 -1.531,0.284 -1.522,0.142 -1.513,0 Z m 42.94,-76.369 c -0.039,-0.154 -0.078,-0.31 -0.117,-0.465 0.334,-0.128 0.659,-0.324 1.004,-0.368 0.385,-0.049 0.788,0.039 1.183,0.066 0.004,0.131 0.009,0.261 0.012,0.391 -0.693,0.126 -1.387,0.251 -2.082,0.376 M -9.871,2.383 c -1.233,-1.638 -1.447,-3.848 -0.753,-4.847 0.154,-0.221 0.594,-0.482 0.756,-0.407 0.304,0.14 0.728,0.535 0.703,0.782 -0.138,1.32 -0.398,2.627 -0.706,4.472 m 60.216,-23.74 c -1.223,-0.118 -2.449,-0.241 -3.675,-0.349 -1.979,-0.176 -3.965,-0.291 -5.935,-0.538 -0.704,-0.088 -1.605,-0.299 -1.295,-1.393 1.31,0.273 2.488,0.627 3.689,0.742 1.975,0.189 3.966,0.229 5.951,0.317 0.633,0.027 1.35,-0.107 1.265,1.221 m 7.437,-79.291 c -0.355,1.18 -0.661,2.197 -0.957,3.181 -0.656,0.035 -1.05,0.091 -1.439,0.069 -0.447,-0.027 -0.889,-0.123 -1.291,-0.183 -0.37,-3.141 -0.157,-3.332 3.687,-3.067 m -28.396,-1.278 c 1,0.398 1.611,0.641 2.291,0.91 -0.159,1.258 -0.242,2.356 -0.446,3.43 -0.258,1.369 -0.369,1.392 -2.289,0.918 0.136,-1.603 0.273,-3.228 0.444,-5.258 m -71.627,57.203 c -0.507,-2.091 -0.724,-3.97 -0.013,-6.017 1.163,1.989 2.325,3.978 3.675,6.289 -1.471,-0.11 -2.472,-0.184 -3.662,-0.272 m 124.86,-56.05 c 1.37,0.234 2.568,0.438 3.863,0.659 -0.374,1.838 -0.687,3.379 -1.02,5.013 H 82.619 Z M 32.03,-22.194 c -3.813,1.282 -7.479,1.51 -11.199,1.246 -0.804,-0.058 -1.75,-0.002 -2.27,-1.161 0.474,-0.162 0.823,-0.376 1.178,-0.388 3.826,-0.127 7.654,-0.228 11.481,-0.307 0.176,-0.004 0.357,0.258 0.81,0.61 M 5.281,-4.844 C 7.026,-2.655 6.616,1.675 4.514,3.527 3.948,2.287 3.393,1.071 2.79,-0.248 3.691,-1.55 3.309,-3.729 5.281,-4.844 M 32.225,3.154 C 31.859,4.107 31.526,5.145 31.064,6.122 30.788,6.708 30.375,7.577 29.91,7.656 28.84,7.837 28.484,6.875 28.304,5.974 c -0.458,-2.287 0.118,-4.428 1.055,-6.48 0.202,-0.44 0.742,-0.725 1.35,-1.29 0.379,1.544 0.689,2.811 0.991,4.041 0.8,0.12 1.43,0.19 2.048,0.314 0.608,0.122 1.206,0.298 1.809,0.451 C 35.524,3.156 35.493,3.301 35.461,3.447 34.544,3.364 33.626,3.281 32.225,3.154 m 101.319,159.894 c 2.522,2.936 1.335,9.334 -1.869,11.441 -1.427,-3.471 0.253,-6.685 0.87,-9.978 0.096,-0.509 0.626,-0.935 0.999,-1.463 M -32.933,72.57 c 0.942,0.164 1.855,0.323 2.802,0.488 -1.944,3.475 -7.285,7.627 -10.311,7.979 0.103,-1.078 0.414,-1.96 1.234,-2.698 2.117,-1.904 4.195,-3.851 6.275,-5.769 M -57.98,50.753 c -1.59,-0.484 -1.981,-1.557 -2.049,-2.686 -0.101,-1.668 -0.179,-3.368 0.04,-5.014 0.218,-1.638 0.752,-3.247 1.292,-4.819 0.121,-0.353 0.838,-0.667 1.287,-0.676 0.252,-0.006 0.606,0.617 0.752,1.016 0.13,0.353 0.059,0.79 0.035,1.187 -0.161,2.618 -0.273,5.241 -0.531,7.85 -0.104,1.055 -0.535,2.076 -0.826,3.142 M 40.438,24.688 c 0.334,-0.114 0.682,-0.29 1.047,-0.349 2.584,-0.415 5.169,-0.817 7.758,-1.199 1.004,-0.149 1.637,0.58 1.657,1.8 0.024,1.384 -1.746,3.776 -3.559,3.414 -1.559,-0.311 -3.138,-0.521 -4.691,-0.856 -1.914,-0.414 -1.921,-0.469 -2.212,-2.81 m 95.45,74.041 c -1.521,0.424 -1.938,-0.411 -2.029,-1.592 -0.176,-2.293 -0.281,-4.592 -0.501,-6.881 -0.179,-1.879 -0.274,-3.705 1.176,-5.409 0.653,0.187 1.379,0.395 2.047,0.587 0.206,2.882 0.703,5.505 -0.175,8.182 -0.402,1.229 -0.175,2.661 -0.265,3.999 -0.027,0.378 -0.167,0.748 -0.253,1.114 M 96.135,-62.234 c 4.406,0.091 8.82,3.415 10.969,8.388 -0.701,-0.123 -1.339,-0.116 -1.873,-0.35 -2.326,-1.021 -4.647,-2.061 -6.92,-3.193 -2.201,-1.095 -2.606,-2.116 -2.176,-4.845 M 81.69,0.665 c 0.011,-0.091 0.082,-0.408 0.078,-0.723 -0.035,-2.073 1.675,-2.503 3.148,-1.535 0.549,0.36 1.045,1.007 1.265,1.629 1.095,3.11 0.181,5.955 -1.432,8.625 C 84.525,9.031 83.831,9.298 83.37,9.278 83.093,9.266 82.668,8.629 82.611,8.23 82.265,5.789 82.005,3.334 81.69,0.665 M -5.778,-4.504 c 0.374,0.511 0.632,0.904 0.929,1.263 1.344,1.625 1.344,1.668 0.275,3.498 -0.741,1.267 -1.119,2.586 -0.953,4.11 C -5.416,5.39 -5.188,6.59 -6.289,7.479 -6.618,7.292 -6.949,7.2 -7.134,6.983 -8.96,4.842 -9.344,0.679 -7.598,-1.498 c 0.898,-1.117 0.754,-1.904 0.317,-2.99 -0.875,-2.174 -0.845,-2.186 1.141,-3.998 1.999,0.904 2.102,1.15 1.627,3.896 -0.364,0.025 -0.729,0.049 -1.265,0.086 m -79.692,34.12 c -2.43,-0.621 -2.731,-0.982 -2.871,-3.283 -0.141,-2.308 -0.304,-4.621 -0.296,-6.932 0.008,-2.303 0.155,-4.611 0.358,-6.906 0.132,-1.495 0.698,-2.066 1.615,-1.915 1.154,0.19 0.902,1.144 0.925,1.893 0.106,3.419 0.202,6.839 0.261,10.26 0.039,2.209 0.008,4.42 0.008,6.883 m 163.802,-5.8 c 0.238,0.829 0.425,1.349 0.532,1.885 0.109,0.546 0.183,1.106 0.196,1.661 0.033,1.552 -0.331,1.944 -1.898,2.131 -2.958,0.354 -5.876,0.177 -8.743,-0.671 -1.401,-0.415 -2.377,-1.601 -2.038,-2.76 0.272,-0.934 0.831,-1.785 1.225,-2.595 3.698,0.81 7.035,2.239 10.726,0.349 M 82,9.856 C 80.664,9.536 79.563,9.392 78.554,9.007 75.684,7.914 74.3,5.401 74.874,2.367 c 0.205,-1.085 0.612,-2.132 0.921,-3.198 0.581,-2.007 1.91,-2.564 3.44,-1.205 0.824,0.73 1.575,1.869 1.76,2.928 0.492,2.806 0.66,5.67 1.005,8.964 M 20.09,-90.49 c 1.149,-0.032 2.158,-0.166 3.144,-0.072 4.048,0.392 8.09,0.853 12.134,1.29 0.318,0.034 0.645,0.036 0.949,0.118 0.876,0.236 1.648,0.515 1.632,1.706 -0.015,1.172 -0.508,1.877 -1.637,1.938 -1.667,0.091 -3.364,0.217 -5.009,0.014 -3.407,-0.422 -6.768,-1.236 -10.242,-0.897 -0.37,0.037 -0.758,-0.125 -1.282,-0.221 0.095,-1.179 0.183,-2.274 0.311,-3.876 m 44,-16.419 c 0.457,2.511 0.142,2.995 -1.723,3.257 -2.904,0.406 -5.791,0.964 -8.705,1.262 -2.17,0.222 -4.393,0.383 -6.482,-0.327 -0.295,-3.231 -0.485,-4.103 3.674,-4.309 0.239,-0.013 0.478,-0.03 0.717,-0.034 3.112,-0.049 6.224,-0.125 9.335,-0.131 1.021,-0.002 2.042,0.175 3.184,0.282 m -66.256,72.51 c 1.569,-5.61 5.004,-10.933 10.043,-9.954 v 7.496 c -4.463,2.377 -6.972,3.008 -10.043,2.458 M 65.06,-85.102 c -5.794,1.451 -11.589,0.599 -17.357,0.288 -0.628,-0.035 -1.506,-1.136 -1.711,-1.893 -0.263,-0.974 0.722,-1.173 1.573,-1.307 2.283,-0.358 4.535,-0.608 6.881,-0.483 2.686,0.143 5.414,-0.111 8.096,-0.431 2.943,-0.35 3.738,0.452 2.824,3.259 -0.071,0.218 -0.18,0.535 -0.306,0.567 m -264.854,-6.94 c -3.346,4.965 -4.667,10.159 -5.464,15.558 -0.613,4.147 0.318,7.891 2.502,11.389 0.975,1.562 1.966,3.115 3.14,4.971 -0.695,-0.092 -1.039,-0.042 -1.267,-0.182 -2.523,-1.544 -4.57,-3.63 -5.449,-6.439 -2.477,-7.921 -0.983,-15.576 2.074,-23.026 0.7,-1.708 2.222,-2.338 4.464,-2.271 M -27.546,46.689 c -0.241,2.366 -0.428,4.414 -0.668,6.456 -0.123,1.046 -0.68,1.938 -1.788,1.91 -2.419,-0.063 -4.915,0.582 -7.431,-0.711 0.382,-2.651 0.772,-5.355 1.151,-7.976 3.004,-0.975 5.585,0.346 8.736,0.321 M 94.659,-83.357 c -2.445,0 -4.969,0.065 -7.487,-0.015 -4.354,-0.139 -8.704,-0.367 -13.242,-0.566 -0.369,-1.206 -0.302,-2.528 0.489,-3.705 2.388,0 4.608,-0.117 6.81,0.027 3.325,0.217 6.628,0.86 9.977,0.337 0.314,-0.049 0.637,-0.073 0.952,-0.053 2.715,0.163 3.194,0.85 2.501,3.975 m -55.381,-19.659 c -6.078,0.2 -11.922,-1.113 -17.796,-0.426 -0.37,0.044 -0.766,-0.129 -1.342,-0.238 0,-0.656 0.004,-1.278 -0.001,-1.899 -0.009,-1.066 0.606,-1.67 1.571,-1.786 2.205,-0.266 4.423,-0.584 6.637,-0.597 2.531,-0.013 5.061,0.323 7.595,0.429 1.506,0.063 2.954,0.238 4.47,0.974 -0.374,1.168 -0.707,2.21 -1.134,3.543 m 6.29,28.489 c -0.738,6.458 0.301,12.812 -0.633,19.259 h -3.638 c -0.52,-6.542 -0.699,-12.933 -0.309,-19.463 1.542,0.068 2.795,0.124 4.58,0.204 m 88.538,142.564 c -0.047,-0.603 -0.114,-0.999 -0.105,-1.393 0.099,-4.303 0.234,-8.605 0.311,-12.908 0.087,-4.86 0.057,-9.723 0.224,-14.579 0.054,-1.568 0.479,-3.145 0.907,-4.669 0.257,-0.91 1.729,-1.312 2.382,-0.737 0.79,0.698 0.176,1.274 -0.32,1.8 -0.16,0.169 -0.383,0.28 -0.274,0.202 0,2.543 0.075,4.762 -0.015,6.975 -0.183,4.54 -0.525,9.075 -0.659,13.617 -0.072,2.387 0.189,4.783 0.234,7.176 0.027,1.48 -0.07,2.963 -0.113,4.516 z m -62.104,-174.58 c 6.472,0 12.836,-0.007 19.2,0.013 0.549,0.002 1.116,0.126 1.642,0.297 0.924,0.301 1.616,1.94 1.421,3.241 -0.173,1.15 -1.036,1.322 -1.958,1.285 -2.373,-0.094 -4.757,-0.12 -7.114,-0.379 -3.797,-0.417 -7.568,-1.055 -11.363,-1.489 -2.168,-0.249 -2.301,-0.322 -1.828,-2.968 m 18.973,336.726 c -1.602,0.29 -2.893,0.371 -4.075,0.774 -1.521,0.521 -2.948,0.423 -4.431,-0.025 -1.894,-0.574 -2.07,-0.606 -1.908,-2.643 0.172,-2.18 0.641,-4.335 0.981,-6.5 3.553,0.295 6.755,0.561 10.252,0.852 -0.288,2.656 -0.559,5.146 -0.819,7.542 M -46.323,-149.816 c -0.252,-0.215 -0.68,-0.407 -0.815,-0.723 -0.943,-2.222 -1.517,-4.527 -1.179,-6.964 0.262,-1.889 0.605,-3.766 0.897,-5.65 0.448,-2.886 1.533,-5.516 3.296,-7.831 0.311,-0.408 1.139,-0.79 1.55,-0.654 0.454,0.152 0.804,0.878 1.009,1.425 0.154,0.415 0.036,0.943 -0.006,1.418 -0.495,5.634 -1.462,11.187 -2.877,16.663 -0.263,1.021 -0.524,2.029 -1.875,2.316 m 160.38,232.963 c 0.259,-7.752 0.502,-14.954 0.75,-22.357 1.81,0.166 3.355,0.307 4.96,0.453 0.08,0.675 0.2,1.14 0.178,1.597 -0.163,3.42 -0.492,6.839 -0.494,10.258 -0.002,2.964 -1.097,5.352 -3.011,7.475 -0.722,0.802 -1.465,1.584 -2.383,2.574 M 18.956,-46.206 c 1.157,2.668 0.825,5.455 0.416,8.191 -0.27,1.802 -1.251,2.475 -3.037,2.33 -1.9,-0.153 -3.784,-0.509 -5.68,-0.732 -0.926,-0.109 -1.322,-0.621 -1.623,-1.466 -0.846,-2.376 -0.25,-4.664 0.078,-6.892 3.304,-0.48 6.436,-0.935 9.846,-1.431 M 120.013,58.946 c -1.692,0.621 -4.633,0.572 -5.892,-0.196 -0.487,-0.298 -1.07,-0.934 -1.085,-1.431 -0.107,-3.645 -0.182,-7.297 -0.044,-10.938 0.049,-1.277 1.258,-2.091 2.492,-2.189 1.627,-0.129 3.28,0.062 5.159,0.123 -0.215,5.003 -0.419,9.741 -0.63,14.631 M -72.178,43.479 c -0.506,2.45 -0.927,4.682 -1.468,6.885 -0.076,0.309 -0.726,0.509 -1.137,0.699 -2.366,1.099 -4.806,0.646 -7.257,0.385 -2.539,-0.27 -3.318,-0.964 -3.496,-3.481 -0.05,-0.713 -0.07,-1.432 -0.042,-2.146 0.116,-2.958 0.663,-3.571 3.533,-3.91 0.622,-0.073 1.278,-0.094 1.891,0.017 2.488,0.449 4.965,0.96 7.976,1.551 M 72.695,-74.544 c -0.101,5.08 -0.201,10.103 -0.304,15.299 -2.063,-0.943 -3.768,-1.761 -5.505,-2.501 -0.812,-0.346 -0.986,-0.923 -0.97,-1.707 0.097,-4.843 0.172,-9.688 0.271,-14.53 0.003,-0.21 0.167,-0.416 0.292,-0.706 2.031,0.017 4.064,-0.193 6.058,0.376 0.141,1.542 -0.652,1.65 -1.623,1.38 -1.268,-0.35 -2.519,-0.548 -3.792,-0.382 -0.034,0.166 -0.068,0.332 -0.101,0.498 1.812,0.726 3.625,1.452 5.674,2.273 m -103.616,-96.85 c 0.291,1.072 0.888,2.092 0.758,3.01 -0.463,3.296 -1.069,6.582 -1.827,9.823 -0.45,1.923 -1.185,3.799 -1.974,5.617 -0.899,2.071 -1.643,4.3 -3.654,5.611 -1.352,-0.479 -1.604,-1.459 -1.459,-2.549 0.325,-2.432 0.664,-4.866 1.119,-7.276 0.308,-1.636 0.995,-3.21 1.21,-4.852 0.434,-3.313 2.047,-6.159 3.224,-9.258 0.857,-0.042 1.628,-0.079 2.603,-0.126 M 15.267,57.004 c 0.332,-0.891 0.58,-1.731 0.955,-2.51 0.356,-0.743 0.846,-1.421 1.325,-2.205 2.368,2.735 2.386,10.705 0.25,13.4 -1.966,-0.479 -2.082,-2.296 -2.442,-3.738 -0.342,-1.376 -1.005,-2.153 -2.305,-2.372 -1.486,-0.25 -3.006,-0.595 -4.488,-0.512 -4.852,0.272 -9.694,0.71 -14.538,1.107 -1.794,0.146 -3.242,0.792 -3.713,2.763 -0.262,1.097 -0.745,1.947 -2.09,1.53 -1.392,-3.685 -2.43,-7.267 0.659,-10.881 0.439,0.667 0.756,1.095 1.018,1.555 1.816,3.178 1.987,3.395 5.541,3.347 4.143,-0.055 8.287,-0.252 12.42,-0.534 2.455,-0.167 4.891,-0.617 7.408,-0.95 M -21.255,13.502 c -0.09,0.006 -0.18,0.011 -0.269,0.016 0,0.958 0.069,1.921 -0.014,2.871 -0.203,2.314 -0.634,4.579 -1.755,6.658 -1.386,2.569 -2.945,2.685 -4.673,0.337 -0.284,-0.385 -0.658,-0.759 -0.783,-1.197 -0.949,-3.326 -1.709,-6.723 -0.385,-10.083 0.799,-2.025 1.646,-4.119 4.236,-4.765 2.021,-0.504 2.843,-0.315 3.244,1.675 0.294,1.464 0.277,2.99 0.399,4.488 m 140.044,207.11 c 4.399,0.396 8.306,0.748 12.239,1.103 0.343,2.901 -0.081,5.409 -0.514,7.914 -0.182,1.051 -0.892,1.437 -1.898,1.406 -2.625,-0.081 -5.251,-0.142 -7.874,-0.254 -0.549,-0.023 -1.133,-0.134 -1.625,-0.365 -0.808,-0.381 -1.598,-0.956 -1.473,-1.969 0.319,-2.583 0.746,-5.154 1.145,-7.835 M -11.238,103.057 c -2.98,0.834 -5.84,0.228 -8.684,-0.015 -2.012,-0.171 -2.334,-0.646 -2.801,-2.653 -0.613,-2.642 -0.014,-5.219 0.223,-7.744 1.349,-1.027 2.743,-1.292 4.301,-1.036 0.611,0.101 1.266,-0.075 1.902,-0.118 1.33,-0.09 2.661,-0.176 3.889,-0.256 1.45,2.661 1.938,7.768 1.17,11.822 m 28.507,-9.229 c 3.236,-0.389 6.087,-0.404 8.886,0.281 1.3,0.318 2.515,0.935 3.164,2.294 1.238,2.587 0.781,5.273 0.503,7.941 -0.081,0.784 -0.605,1.332 -1.494,1.167 -2.961,-0.55 -5.938,-1.032 -8.863,-1.735 -1.85,-0.444 -2.77,-1.8 -2.694,-3.619 0.085,-2.054 0.316,-4.103 0.498,-6.329 M -4.16,1.462 c 0.188,-0.081 0.376,-0.162 0.564,-0.243 1.9,2.147 4.269,0.373 6.447,0.903 1.804,4.694 1.078,9.497 0.987,14.24 -0.017,0.831 -0.581,1.383 -1.545,1.544 -2.805,0.466 -5.559,0.295 -8.262,-0.518 -1.802,-0.543 -2.117,-0.894 -2.095,-2.685 0.024,-1.956 0.263,-3.91 0.411,-5.9 2.74,0.591 3.316,0.146 3.27,-2.295 C -4.398,5.633 -4.584,4.756 -4.55,3.886 -4.519,3.074 -4.298,2.27 -4.16,1.462 m -157.789,-82.433 c -1.077,3.345 -1.522,6.516 -0.269,9.805 -5.053,1.445 -9.937,1.022 -15.02,1.129 -0.349,-2.074 -0.685,-3.859 -0.941,-5.656 -0.223,-1.561 0.136,-3.036 1.085,-4.286 0.34,-0.446 0.971,-0.941 1.476,-0.949 4.444,-0.074 8.889,-0.043 13.669,-0.043 m 299.502,231.945 c -1.241,0.254 -2.097,0.401 -2.938,0.609 -1.14,0.283 -1.703,-0.235 -1.772,-1.304 -0.102,-1.578 -0.146,-3.161 -0.164,-4.743 -0.013,-1.11 0.112,-2.223 0.083,-3.332 -0.083,-3.184 -0.514,-6.391 -0.254,-9.543 0.36,-4.383 0.136,-8.737 0.108,-13.106 -0.02,-3.161 0.175,-6.323 0.288,-9.484 0.052,-1.435 0.7,-2.625 1.758,-3.53 0.345,-0.295 1.016,-0.356 1.494,-0.274 0.179,0.03 0.326,0.772 0.33,1.191 0.008,0.868 -0.153,1.738 -0.133,2.605 0.183,8.289 0.369,16.578 0.598,24.866 0.108,3.898 0.43,7.794 -0.426,11.661 -0.182,0.826 -0.253,1.678 0.5,2.446 0.369,0.376 0.332,1.149 0.528,1.938 m -43.612,20.759 c 0,-0.985 -0.008,-1.753 0.002,-2.52 0.017,-1.197 0.024,-2.395 0.074,-3.59 0.1,-2.384 0.123,-4.777 0.374,-7.145 0.261,-2.461 0.85,-2.797 3.405,-2.981 3.018,-0.218 6.028,-0.572 9.042,-0.864 1.621,-0.157 3.242,-0.309 5.419,-0.517 -1.255,2.043 -2.161,3.714 -3.257,5.25 -1.295,1.816 -2.825,3.465 -4.128,5.276 -2.625,3.648 -5.984,6.139 -10.931,7.091 M 83.576,-45.793 c -0.481,0.64 -0.991,1.323 -1.508,2.002 -1.351,1.772 -1.772,5.109 -0.43,6.684 2.688,3.156 2.73,7.101 2.702,10.673 -0.036,4.804 0.249,9.549 0.605,14.316 0.213,2.847 0.161,5.696 -0.291,8.455 -1.307,0.293 -2.444,0.548 -3.56,0.799 -1.414,-1.052 -1.524,-1.047 -1.602,-2.589 -0.133,-2.615 -0.337,-5.257 -0.11,-7.854 0.59,-6.788 0.203,-13.541 -0.332,-20.298 -0.092,-1.166 0.155,-2.437 -0.99,-3.308 -0.14,-0.107 -0.166,-0.43 -0.162,-0.65 0.063,-2.997 0.145,-5.993 0.209,-8.989 0.022,-1 0.003,-2.001 0.003,-3.316 1.953,1.455 3.643,2.716 5.466,4.075 m -16.18,45.076 c 1.191,2.182 1.881,7.092 1.227,9.17 -0.139,0.44 -0.643,0.964 -1.076,1.078 -2.934,0.772 -5.894,1.669 -8.961,0.956 C 56.503,10.003 54.474,9.287 52.423,8.664 50.435,8.061 48.925,7.079 49.223,4.638 49.259,4.34 49.068,4.02 49.03,3.705 48.807,1.888 48.578,0.072 48.406,-1.75 c -0.024,-0.26 0.254,-0.549 0.424,-0.888 0.515,0.102 0.954,0.189 1.391,0.276 0.178,-0.507 0.352,-0.998 0.633,-1.798 1.576,0.781 2.996,1.452 4.386,2.179 3.899,2.038 7.823,3.75 12.156,1.264 m -21.748,-23.58 c -0.346,-0.028 -1.147,-0.051 -1.933,-0.168 -2.258,-0.339 -3.055,-1.275 -2.361,-3.418 1.807,-5.582 3.743,-11.093 8.944,-14.694 1.713,-1.186 3.228,-1.576 5.074,-0.687 0.788,0.38 1.587,0.739 2.363,1.14 2.527,1.309 2.843,2.22 1.665,4.747 -0.868,1.862 -2.308,3.212 -3.921,4.423 -1.727,1.296 -3.282,2.66 -4.013,4.881 -1.133,3.442 -1.817,3.795 -5.818,3.776 M -19.96,-31.83 c 0,1.465 0.14,2.979 -0.027,4.461 -0.409,3.641 -1.122,7.255 -1.413,10.904 -0.469,5.886 -0.676,11.793 -1.042,17.688 -0.083,1.329 -0.366,2.646 -0.551,3.933 -1.826,0.04 -1.883,0.044 -1.983,-1.298 -0.2,-2.703 -0.369,-5.41 -0.475,-8.118 -0.056,-1.433 0.028,-2.872 0.081,-4.307 0.134,-3.568 0.439,-7.136 0.391,-10.701 -0.06,-4.546 -0.571,-9.089 -0.565,-13.633 0.004,-3.725 0.829,-7.474 -1.198,-11.131 h 11.12 c -1.146,2.98 -2.245,5.777 -3.288,8.595 -0.306,0.826 -0.707,1.35 -1.656,1.458 -1.221,0.137 -2.426,0.416 -3.843,0.67 1.014,2.08 2.971,0.585 4.449,1.479 m 127.598,141.458 c 0.133,0.104 0.266,0.208 0.399,0.312 -0.526,1.404 0.047,3.086 -1.502,4.253 -0.405,0.306 -0.671,0.902 -0.824,1.417 -0.452,1.52 -0.753,3.086 -1.23,4.598 -0.718,2.28 -1.474,4.553 -2.323,6.788 -1.901,5.013 -4.004,9.932 -7.453,14.131 -0.23,0.281 -0.547,0.491 -1.227,1.088 -0.15,-1.477 -0.324,-2.532 -0.351,-3.59 -0.081,-3.115 -0.128,-6.232 -0.144,-9.348 -0.019,-3.977 0.012,-7.954 0.005,-11.93 -0.002,-1.06 0.5,-1.567 1.532,-1.783 1.084,-0.226 2.195,-0.493 3.183,-0.972 2.501,-1.213 4.933,-2.568 7.407,-3.838 0.82,-0.42 1.684,-0.753 2.528,-1.126 M -190.687,-88.096 c -2.388,3.667 -4.081,7.459 -3.893,11.889 0.183,4.3 1.32,8.302 3.436,11.951 -1.407,1.868 -3.328,2.421 -5.336,2.552 -0.858,0.056 -2.063,-0.184 -2.582,-0.763 -2.94,-3.284 -5.071,-7.093 -4.859,-11.605 0.26,-5.543 1.752,-10.836 4.697,-15.615 0.314,-0.509 1.188,-1.113 1.658,-1.011 2.293,0.499 4.775,0.584 6.879,2.602 m 11.596,20.211 c -2.634,0.935 -5.289,2.019 -8.03,2.804 -2.091,0.599 -3.223,-0.169 -3.9,-2.085 -0.446,-1.264 -0.999,-2.495 -1.373,-3.779 -1.44,-4.964 -1.354,-9.752 1.754,-14.171 1.414,-2.011 2.51,-2.29 4.643,-1.206 1.488,0.756 3.042,1.382 4.548,2.103 0.862,0.413 1.71,0.863 2.521,1.365 0.87,0.537 1.095,1.247 0.588,2.238 -1.376,2.691 -1.228,5.528 -0.785,8.423 0.198,1.293 0.034,2.64 0.034,4.308 M -57.543,69.541 c -0.345,-8.214 0.059,-16.244 1.798,-24.426 3.389,0.478 6.583,0.928 9.86,1.39 0.436,6.612 0.804,12.9 0.07,19.409 -5.678,3.754 -8.185,4.22 -11.728,3.627 M 17.871,87.67 C 7.578,83.526 2.285,70.628 3.323,61.405 c 2.712,-0.14 5.468,-0.315 8.227,-0.41 1.556,-0.053 2.436,0.806 3.005,2.255 0.454,1.161 1.107,2.305 1.918,3.245 0.69,0.801 0.896,1.564 0.925,2.571 0.099,3.345 0.36,6.685 0.456,10.03 0.082,2.778 0.017,5.56 0.017,8.574 M -160.018,-70.725 c -2.018,-3.122 -1.31,-6.113 -0.563,-9.052 0.324,-1.275 1.327,-1.904 2.747,-1.781 1.905,0.164 3.817,0.318 5.729,0.344 4.524,0.063 9.05,0.05 13.576,0.065 1.498,0.003 2.997,0 4.447,0 -0.268,1.853 -0.736,3.494 -0.677,5.115 0.061,1.701 0.627,3.384 1.052,5.462 -9.042,0.554 -17.745,-0.432 -26.311,-0.153 M 65.988,11.52 c 0.333,2.737 0.547,5.275 0.985,7.774 0.252,1.437 -0.093,2.615 -0.652,3.893 -0.595,1.364 -1.287,2.858 -1.261,4.283 0.042,2.318 -0.717,4.228 -2.073,5.915 -2.073,2.581 -4.007,2.902 -6.956,1.419 -0.638,-0.322 -1.301,-0.602 -1.926,-0.949 -2.034,-1.128 -3.137,-3.654 -2.601,-5.929 0.164,-0.698 0.417,-1.379 0.542,-2.083 0.338,-1.9 0.166,-3.642 -1.571,-4.907 -0.278,-0.203 -0.529,-0.647 -0.536,-0.984 -0.053,-2.956 -0.091,-5.914 -0.034,-8.869 0.017,-0.865 0.687,-1.227 1.545,-0.978 0.995,0.289 1.988,0.593 2.963,0.942 3.772,1.349 7.589,1.651 11.575,0.473 m 0.35,18.536 c 3.52,0.509 6.795,0.982 10.259,1.483 -1.145,3.392 -2.624,6.634 -5.009,9.363 -1.138,1.303 -2.366,2.867 -3.881,3.425 -2.956,1.09 -6.109,1.866 -9.241,2.2 -3.899,0.415 -7.444,-1.131 -10.96,-2.806 -5.817,-2.77 -7.195,-7.117 -5.942,-14.319 2.719,0.191 5.454,0.383 8.245,0.579 0.455,3.044 1.982,5.204 4.878,6.286 0.37,0.139 0.701,0.379 1.053,0.566 3.119,1.654 6.436,0.622 8.122,-2.487 0.794,-1.463 1.662,-2.886 2.476,-4.29 M 0.95,56.674 c -2.05,0 -4.2,-0.037 -6.349,0.013 -1.488,0.034 -2.268,-0.624 -2.874,-1.993 -0.896,-2.021 -0.504,-4.076 -0.494,-6.101 0.021,-3.727 0.37,-7.452 0.397,-11.18 0.034,-4.468 -0.137,-8.938 -0.193,-13.408 -0.024,-1.861 0.018,-3.723 0.029,-5.371 3.525,0.468 6.735,0.893 10.149,1.345 0.075,0.856 0.242,1.879 0.24,2.902 -0.009,3.912 -0.134,7.824 -0.104,11.735 0.048,6.229 0.189,12.457 0.281,18.685 0.018,1.192 0.06,2.406 -1.082,3.373 m 92.322,57.314 c -0.076,-1.27 -0.178,-2.052 -0.161,-2.831 0.065,-2.772 0.182,-5.542 0.255,-8.314 0.077,-2.92 0.035,-3.024 2.649,-3.788 3.212,-0.94 5.806,-2.942 8.525,-4.712 2.323,-1.512 4.432,-3.315 6.35,-5.362 1.959,-2.091 4.177,-3.932 5.694,-6.43 0.399,-0.657 0.757,-1.61 1.928,-1.535 0.045,0.637 0.12,1.191 0.116,1.745 -0.035,5.424 -0.054,10.848 -0.167,16.271 -0.016,0.715 -0.345,1.631 -0.856,2.088 -1.417,1.268 -2.89,2.562 -4.551,3.454 -4.917,2.642 -9.918,5.132 -14.926,7.601 -1.406,0.694 -2.949,1.112 -4.856,1.813 M -35.133,-8.498 c 2.678,-0.364 4.873,-0.703 7.078,-0.947 1.254,-0.139 1.665,0.334 1.64,1.702 -0.021,1.116 -0.156,2.232 -0.126,3.344 0.069,2.553 0.232,5.103 0.31,7.656 0.034,1.113 -0.009,2.18 -0.915,3.097 -4.551,4.602 -4.483,10.092 -2.884,15.826 0.211,0.755 0.477,1.711 1.045,2.113 2.129,1.512 2.081,3.53 1.722,5.73 -0.127,0.784 -0.095,1.593 -0.128,2.392 -0.139,3.426 -0.236,6.855 -0.427,10.278 -0.107,1.928 -0.494,2.178 -2.412,1.871 -1.953,-0.313 -3.903,-0.648 -6.073,-1.009 0.245,-17.391 0.357,-34.712 1.17,-52.053 m 157.372,-38.428 c -1.299,-0.5 -2.26,-0.818 -3.178,-1.234 -2.389,-1.083 -4.713,-2.323 -7.149,-3.28 -1.682,-0.661 -2.792,-1.652 -3.477,-3.317 -1.252,-3.042 -3.4,-5.373 -6.222,-7.022 -1.23,-0.718 -2.62,-1.157 -3.925,-1.748 -2.114,-0.959 -2.089,-0.968 -1.938,-3.198 0.081,-1.191 0.029,-2.392 0.112,-3.584 0.17,-2.454 0.393,-4.904 0.588,-7.356 0.087,-1.102 0.709,-1.674 1.751,-1.392 2.601,0.706 5.451,1.062 7.693,2.406 3.968,2.38 7.37,5.66 9.673,9.724 3.406,6.012 5.318,12.562 6.072,20.001 M 75.274,-56.943 c -0.188,0.043 -0.376,0.085 -0.563,0.127 -0.322,-0.576 -0.89,-1.137 -0.926,-1.73 -0.195,-3.25 -0.414,-6.512 -0.326,-9.761 0.081,-2.993 0.539,-5.975 0.831,-8.963 0.068,-0.7 0.221,-1.402 0.195,-2.098 -0.088,-2.39 0.127,-2.652 2.466,-2.687 0.32,-0.005 0.639,-0.006 0.957,0.002 4.699,0.124 9.398,0.24 14.096,0.381 1.252,0.038 2.502,0.151 3.942,0.24 -0.264,3.852 -0.656,7.476 -0.723,11.106 -0.069,3.618 -0.087,7.221 -0.614,11.029 -0.763,-0.331 -1.223,-0.458 -1.604,-0.707 -1.919,-1.258 -4.024,-1.962 -6.305,-1.969 -2.389,-0.007 -4.792,0.006 -7.165,0.244 -1.641,0.164 -3.017,0.97 -3.477,2.803 -0.172,0.684 -0.518,1.323 -0.784,1.983 m 39.662,24.084 c 3.998,3.189 5.067,7.363 6.668,11.23 0.146,0.354 0.179,0.779 0.167,1.168 -0.056,1.83 -0.18,3.658 -0.217,5.488 -0.102,4.93 -0.22,9.86 -0.24,14.79 -0.02,5.108 0.11,10.216 0.091,15.324 -0.011,3.187 -0.172,6.375 -0.274,9.562 -0.17,5.265 -0.388,10.529 -0.492,15.795 -0.026,1.274 -0.628,1.781 -1.705,1.805 -1.482,0.032 -2.966,-0.088 -4.653,-0.151 0,-1.066 -0.02,-1.849 0.003,-2.631 0.106,-3.509 0.282,-7.016 0.321,-10.524 0.04,-3.509 0.015,-7.022 -0.108,-10.528 -0.134,-3.821 -0.488,-7.635 -0.599,-11.455 -0.066,-2.305 0.175,-4.617 0.234,-6.927 0.272,-10.833 0.53,-21.665 0.804,-32.946 m 18.783,102.275 c 2.123,0.409 3.711,0.767 5.317,1.01 1.572,0.238 3.158,0.44 4.745,0.515 4.225,0.2 8.467,0.609 12.675,0.395 4.114,-0.209 8.198,-1.067 12.289,-1.677 1.834,-0.273 2.342,0.053 2.546,1.846 0.072,0.633 0.142,1.269 0.169,1.906 0.102,2.381 0.183,4.763 0.279,7.144 0.05,1.207 -0.391,1.932 -1.694,2.148 -2.195,0.364 -4.354,1.029 -6.559,1.252 -4.282,0.433 -8.585,0.677 -12.882,0.935 -1.658,0.099 -3.369,0.266 -4.978,-0.026 -3.202,-0.582 -6.36,-1.419 -9.517,-2.232 -2.414,-0.621 -2.472,-0.82 -2.341,-3.237 0.059,-1.113 -0.041,-2.234 -0.046,-3.351 -0.01,-2.221 -0.003,-4.442 -0.003,-6.628 M -84.021,39.895 c -0.137,-14.84 -0.434,-29.757 -1.494,-44.633 h 8.473 c 1.908,1.75 1.949,3.637 1.806,5.601 -0.157,2.142 -0.473,4.308 -0.304,6.431 0.315,3.934 0.442,3.922 3.886,5.684 0.125,0.064 0.193,0.242 0.432,0.56 0,2.586 0.063,5.367 -0.023,8.144 -0.052,1.658 0.14,3.587 -0.625,4.901 -1.26,2.162 -1.36,4.337 -1.399,6.646 -0.044,2.684 -0.154,5.367 -0.241,8.222 -3.61,-0.534 -6.883,-1.019 -10.511,-1.556 m 202.417,166.878 c 0.992,1.301 0.794,2.418 0.726,3.517 -0.084,1.348 -0.268,2.701 -0.209,4.043 0.071,1.656 0.518,3.333 -1.047,4.607 -0.158,0.129 -0.207,0.432 -0.241,0.663 -0.435,2.911 -0.962,5.814 -1.237,8.74 -0.135,1.428 0.25,2.914 1.592,3.804 0.797,0.529 0.843,1.148 0.814,2.03 -0.097,2.955 -1.711,5.096 -3.66,7.012 -1.735,1.705 -3.802,2.941 -6.327,3.053 -5.565,0.247 -10.887,-0.217 -14.535,-5.279 -0.79,-1.096 -1.689,-2.12 -2.395,-3.266 -0.571,-0.929 -1.007,-1.977 -0.673,-3.07 1.006,-0.27 2.021,-0.315 2.766,-0.785 2.221,-1.402 4.516,-2.773 6.458,-4.517 4.081,-3.668 7.957,-7.564 11.91,-11.374 0.225,-0.217 0.391,-0.498 0.563,-0.763 1.774,-2.712 3.544,-5.426 5.495,-8.415 M 16.159,105.68 c -1.944,-0.106 -3.248,-0.857 -4.507,-1.692 -3.048,-2.022 -5.875,-4.267 -8.577,-6.786 -3.702,-3.451 -6.657,-7.272 -8.533,-11.92 -0.891,-2.207 -1.438,-4.551 -2.283,-6.778 -1.13,-2.975 -2.115,-5.918 -2.225,-9.186 -0.07,-2.106 0.327,-3.922 1.301,-5.687 0.214,-0.388 0.561,-0.841 0.947,-0.973 3.052,-1.044 6.207,-0.733 9.457,-0.883 -0.102,1.141 -0.435,2.072 -0.214,2.844 1.486,5.159 1.652,10.666 4.973,15.343 2.978,4.192 6.203,7.777 11.414,9.405 -0.134,0.736 -0.035,1.688 -0.46,2.226 -0.981,1.242 -1.015,2.641 -1.169,4.062 -0.136,1.271 -0.287,2.541 -0.475,3.805 -0.228,1.518 -0.347,2.998 0.321,4.469 0.194,0.425 0.03,1.015 0.03,1.751 M 77.675,10.376 c 0.226,1.995 0.365,3.639 0.612,5.266 0.215,1.418 0.623,2.809 0.81,4.23 0.107,0.82 -0.054,1.675 -0.088,2.39 -3.932,1.496 -7.444,0.469 -10.948,-0.411 -0.222,-3.668 -0.437,-7.212 -0.653,-10.782 0.697,-0.154 1.247,-0.131 1.585,-0.387 0.446,-0.34 0.991,-0.877 1.03,-1.366 0.126,-1.577 0.167,-3.185 0.003,-4.755 -0.23,-2.205 -0.669,-4.388 -1.036,-6.577 -0.037,-0.219 -0.195,-0.418 -0.273,-0.577 -0.738,-0.175 -1.411,-0.334 -2.295,-0.544 -0.045,-2.138 -0.107,-4.198 -0.126,-6.259 -0.072,-7.651 -0.14,-15.302 -0.185,-22.955 -0.009,-1.673 0.399,-2.001 2.126,-2.192 2.207,-0.244 4.411,-0.525 6.607,-0.856 1.648,-0.248 2.448,0.045 2.859,1.738 0.526,2.159 0.955,4.383 1.057,6.597 0.156,3.408 0.048,6.833 -0.038,10.249 -0.102,4.055 -0.3,8.107 -0.461,12.294 -0.652,0.131 -1.329,0.267 -1.942,0.39 -0.269,0.536 -0.565,0.94 -0.682,1.391 -0.562,2.154 -1.373,4.298 -1.533,6.487 -0.218,2.998 1.292,5.343 3.571,6.629 M -85.096,-7.482 c 0.418,-4.993 0.354,-9.928 1.997,-14.689 0.929,-2.69 2.478,-4.951 4.102,-7.235 3.536,-4.973 8.112,-8.694 13.842,-10.56 4.361,-1.419 8.972,-2.202 13.533,-2.829 3.612,-0.497 7.314,-0.349 10.978,-0.445 1.094,-0.029 2.204,0.288 2.51,1.448 0.768,2.915 1.684,5.84 0.928,9.208 -2.83,0 -5.684,-0.044 -8.535,0.013 -2.542,0.05 -5.087,0.144 -7.622,0.341 -4.709,0.364 -8.874,2.512 -13.151,4.24 -2.022,0.817 -3.667,2.202 -4.754,4.192 -2.275,4.166 -3.998,8.508 -4.549,13.264 -0.145,1.247 -0.387,2.483 -0.589,3.753 -2.939,0.559 -5.668,0.612 -8.69,-0.701 m 107.505,-288.97 c -3.915,-2.837 -6.812,-4.031 -11.708,-4.84 -2.361,-0.39 -4.738,-0.699 -7.091,-1.141 -10.542,-1.979 -21.217,-2.802 -31.88,-3.743 -4.375,-0.386 -8.756,-0.706 -13.131,-1.092 -8.267,-0.728 -16.522,-1.642 -24.802,-2.173 -6.688,-0.43 -13.405,-0.409 -20.11,-0.591 -4.226,-0.114 -8.451,-0.325 -12.678,-0.33 -6.532,-0.008 -13.066,0.098 -19.598,0.203 -4.63,0.074 -9.259,0.178 -13.886,0.355 -4.703,0.18 -9.402,0.472 -14.103,0.708 -2.312,0.116 -4.632,0.125 -6.935,0.338 -5.167,0.477 -10.331,0.994 -15.485,1.599 -5.863,0.687 -11.749,1.286 -17.562,2.293 -6.994,1.211 -13.909,2.871 -20.881,4.216 -3.175,0.612 -6.328,1.492 -9.628,1.292 -0.947,-0.057 -1.282,-0.458 -1.227,-1.597 0.977,-0.303 2.007,-0.692 3.072,-0.94 7.303,-1.693 14.589,-3.471 21.928,-4.99 5.227,-1.081 10.501,-2.041 15.802,-2.62 6.982,-0.762 14.011,-1.101 21.02,-1.614 3.185,-0.233 6.371,-0.459 9.559,-0.663 3.744,-0.24 7.489,-0.48 11.237,-0.668 2.713,-0.137 5.43,-0.184 8.146,-0.28 3.277,-0.118 6.553,-0.358 9.829,-0.348 15.905,0.049 31.807,0.266 47.695,1.101 3.03,0.16 6.069,0.237 9.091,0.506 4.673,0.416 9.333,0.977 14.001,1.454 5.716,0.584 11.436,1.134 17.151,1.72 5.233,0.537 10.458,1.143 15.695,1.646 5.638,0.54 11.296,0.906 16.926,1.519 4.097,0.446 8.198,1.005 12.233,1.828 2.795,0.572 5.514,1.625 7.741,3.557 1.589,1.379 1.516,1.913 -0.421,3.295 m 6.005,403.697 c -0.817,2.598 -1.257,4.805 -2.185,6.782 -1.94,4.135 -4.785,7.701 -8.015,10.888 -2.615,2.582 -5.846,4.301 -9.617,4.255 -3.584,-0.043 -7.176,-0.356 -10.74,-0.766 -3.82,-0.439 -7.15,-2.136 -10.151,-4.524 -0.928,-0.738 -1.888,-1.677 -2.968,-1.917 -1.172,-0.26 -1.574,-0.926 -1.98,-1.782 -2.285,-4.823 -3.14,-9.99 -3.782,-15.366 h 8.895 c 0.214,0.463 0.475,0.804 0.525,1.175 0.413,2.977 1.487,5.67 3.217,8.134 0.808,1.15 1.706,2.071 3.091,2.485 1.904,0.569 3.809,1.147 5.68,1.815 5.824,2.08 11.655,-0.861 14.19,-6.786 0.901,-2.105 1.942,-4.149 2.976,-6.342 3.573,0.641 6.994,1.254 10.864,1.949 m 90.056,-4.058 c 0,1.174 -0.014,2.101 0.002,3.027 0.081,4.953 0.209,9.906 0.242,14.859 0.03,4.628 -0.036,9.257 -0.063,13.885 -0.017,2.876 -0.002,5.753 -0.072,8.628 -0.067,2.722 -0.983,3.569 -3.782,3.866 -4.043,0.427 -8.072,0.99 -12.121,1.344 -2.141,0.188 -4.309,0.079 -6.465,0.058 -1.164,-0.012 -1.912,-0.59 -2.269,-1.757 -0.338,-1.108 -0.666,-2.122 0.329,-3.098 4.747,-4.658 7.258,-10.619 9.54,-16.679 1.376,-3.656 2.545,-7.393 3.761,-11.109 0.814,-2.485 1.546,-4.998 2.399,-7.769 2.544,-1.573 5.418,-3.35 8.499,-5.255 M -73.773,53.389 c 0.285,1.68 0.666,3.373 0.841,5.087 0.277,2.702 1.188,5.239 2.804,7.29 3.007,3.817 7.315,5.793 12.017,6.213 8.461,0.757 17.082,-5.633 19.407,-12.478 0.328,-0.966 0.859,-1.862 1.32,-2.843 2.801,0.087 5.498,-0.361 8.13,0.694 0,0.413 0.05,0.738 -0.007,1.044 -0.646,3.447 -1.263,6.902 -2.004,10.33 -0.152,0.702 -0.669,1.426 -1.215,1.926 -1.88,1.722 -3.901,3.29 -5.766,5.027 -2.276,2.121 -4.455,4.322 -7.861,4.445 -0.53,0.019 -1.075,0.296 -1.568,0.543 -2.356,1.176 -4.9,1.213 -7.448,1.342 -2.929,0.148 -5.724,-0.728 -8.601,-0.987 -3.676,-0.332 -7.207,-1.308 -10.434,-3.209 -1.893,-1.116 -3.381,-2.583 -4.611,-4.426 -2.076,-3.11 -3.157,-6.611 -4.202,-10.117 -0.934,-3.132 -1.142,-6.384 -1.131,-9.409 3.462,-0.158 6.764,-0.309 10.329,-0.472 m 204.822,-75.681 c -1.561,0.231 -3.146,0.376 -4.689,0.713 -3.248,0.711 -2.868,-0.019 -4.043,-2.287 -0.216,-0.419 -0.338,-0.901 -0.431,-1.368 -0.531,-2.671 -1.971,-4.873 -3.646,-6.924 -0.644,-0.789 -1.714,-1.256 -2.27,-2.085 -1.778,-2.645 -4.381,-3.986 -7.318,-4.579 -5.819,-1.176 -11.323,-3.246 -16.786,-5.47 -3.618,-1.474 -7.296,-2.822 -10.426,-5.286 -1.737,-1.367 -3.109,-3.008 -4.016,-4.994 -1.285,-2.815 0.092,-5.17 3.166,-5.455 1.349,-0.125 2.718,-0.029 4.075,-0.092 2.87,-0.134 5.492,0.561 8.047,1.907 3.033,1.598 6.19,2.962 9.312,4.385 1.01,0.46 2.095,0.753 3.122,1.177 3.385,1.396 6.751,2.836 10.139,4.224 2.879,1.181 5.855,2.223 8.072,4.522 2.102,2.18 4.484,4.248 5.993,6.807 2.676,4.542 3.197,9.591 1.699,14.805 M -61.704,119.823 c 1.274,0.48 1.749,1.299 1.855,2.576 0.247,2.973 0.032,5.884 -0.542,8.804 -0.359,1.824 -1.179,3.089 -3.057,3.555 -2.938,0.729 -5.855,1.544 -8.803,2.225 -5.247,1.211 -10.57,1.672 -15.938,1.195 -4.524,-0.401 -9.038,-0.919 -13.548,-1.452 -4.434,-0.525 -8.856,-1.155 -13.288,-1.699 -1.909,-0.235 -2.776,-1.378 -3.02,-3.163 -0.152,-1.108 -0.416,-2.212 -0.45,-3.323 -0.071,-2.284 -0.022,-4.572 -0.022,-6.908 2.871,0.252 5.501,0.363 8.095,0.733 6.334,0.905 12.678,1.681 19.086,1.407 4.543,-0.194 9.081,-0.555 13.613,-0.934 5.467,-0.458 11.024,-0.483 16.019,-3.016 m 82.2,-166.512 c 3.831,-2.155 4.921,-4.315 4.203,-8.227 -0.605,-3.3 -2.89,-5.084 -6.292,-4.895 -0.797,0.045 -1.59,0.176 -2.386,0.213 -5.111,0.239 -10.175,0.707 -14.979,2.677 -0.761,0.312 -1.576,0.491 -2.382,0.736 -0.074,-0.414 -0.158,-0.583 -0.12,-0.716 1.943,-6.77 5.52,-12.539 10.915,-17.057 2.074,-1.736 4.589,-2.844 7.691,-2.674 0.042,0.929 0.149,1.788 0.108,2.64 -0.157,3.272 -0.39,6.542 -0.532,9.814 -0.037,0.857 0.071,1.74 0.273,2.573 0.065,0.262 0.651,0.397 1.212,0.709 0,-1.329 -0.02,-2.351 0.003,-3.373 0.144,-6.142 0.313,-12.285 0.433,-18.428 0.023,-1.222 0.485,-1.772 1.731,-1.666 2.851,0.24 5.701,0.502 8.557,0.658 3.333,0.182 6.671,0.262 10.236,0.393 0.132,0.757 0.394,1.6 0.405,2.447 0.031,2.23 -0.084,4.462 -0.075,6.693 0.023,5.593 0.1,11.186 0.107,16.779 0,1.014 -0.007,2.127 -0.402,3.023 -0.931,2.112 -1.21,4.285 -1.182,6.546 0.023,1.998 0.037,3.997 -0.009,5.994 -0.011,0.461 -0.282,0.916 -0.563,1.766 -0.529,-0.847 -0.747,-1.373 -1.115,-1.752 -1.815,-1.875 -3.795,-3.196 -6.671,-2.834 -3.374,0.423 -5.403,2.496 -7.137,5.082 -0.588,0.878 -1.105,1.803 -1.655,2.708 -0.124,-0.059 -0.249,-0.117 -0.374,-0.175 z m 29.81,40.528 c -0.243,-4.072 -0.082,-8.446 0.394,-12.815 0.017,-0.154 0.017,-0.372 0.113,-0.449 1.398,-1.104 0.924,-2.62 0.848,-4.011 -0.134,-2.448 0.461,-4.58 2.343,-6.257 0.892,-0.794 1.71,-1.685 2.664,-2.394 2.059,-1.53 3.384,-3.535 4.258,-5.915 0.73,-1.988 0.087,-4.081 -1.747,-5.148 -0.827,-0.482 -1.704,-0.878 -2.555,-1.321 -2.191,-1.139 -4.352,-1.518 -6.465,0.195 -0.149,0.121 -0.432,0.079 -0.853,0.144 -0.175,-2.441 -0.381,-4.813 -0.5,-7.189 -0.065,-1.264 -0.332,-2.434 -1.449,-3.114 -0.927,-0.564 -0.994,-1.386 -0.99,-2.259 0.015,-2.952 0.031,-5.905 0.117,-8.855 0.092,-3.189 0.301,-6.374 0.387,-9.563 0.065,-2.368 0.013,-4.741 0.013,-7.312 1.138,-0.458 2.537,-0.692 3.961,-0.393 2.367,0.497 4.733,0.437 7.13,0.314 2.363,-0.12 4.738,-0.026 7.136,-0.026 -0.22,3.402 -0.466,6.571 -0.621,9.745 -0.158,3.23 0.246,6.486 -0.261,9.827 -1.124,0 -2.081,0.07 -3.023,-0.014 -2.133,-0.19 -3.89,0.724 -5.587,1.811 -0.363,0.233 -0.804,0.638 -0.86,1.015 -0.481,3.218 -1.428,6.407 -0.501,9.717 0.535,1.912 0.735,2.176 2.599,1.469 1.514,-0.575 2.809,-0.495 3.998,0.587 0.993,0.904 2.036,1.777 2.893,2.801 1.656,1.977 2.773,4.258 3.357,6.786 0.156,0.674 0.313,1.389 1.434,1.277 -0.799,-4.274 -2.582,-7.882 -5.518,-10.952 -1.968,-2.059 -4.019,-3.691 -7.028,-2.436 -0.993,-1.708 -1.139,-2.878 -0.734,-5.383 0.498,-3.075 3.241,-5.307 6.384,-5.046 3.919,0.325 7.363,1.965 10.543,4.178 2.332,1.622 3.673,3.863 4.248,6.688 0.744,3.66 0.45,7.321 0.361,10.988 -0.013,0.535 -0.257,1.065 -0.479,1.925 -2.489,0.271 -5.002,0.61 -7.526,0.8 -2.494,0.186 -2.814,0.322 -3.243,2.823 -0.213,1.245 -0.168,2.54 -0.173,3.812 -0.003,0.876 0.167,1.753 0.161,2.629 -0.037,6.23 -0.105,12.461 -0.151,18.692 -0.019,2.517 -0.003,5.035 -0.003,7.842 -1.255,0 -2.252,0.214 -3.11,-0.043 -1.974,-0.592 -3.913,-1.338 -5.805,-2.16 -1.942,-0.844 -3.812,-1.852 -6.16,-3.01 M -53.42,-29.992 c 3.444,-0.32 6.574,-0.611 10.006,-0.929 -0.047,0.996 -0.044,1.683 -0.12,2.359 -0.124,1.112 -0.392,2.213 -0.435,3.325 -0.191,4.937 -0.37,9.877 -0.459,14.817 -0.051,2.782 0.189,5.571 0.106,8.352 -0.142,4.782 -0.54,9.557 -0.628,14.339 -0.063,3.409 0.271,6.824 0.314,10.238 0.075,5.815 0.032,11.632 0.11,17.447 0.014,1.115 0.359,2.226 0.57,3.453 0.431,-0.269 0.665,-0.343 0.67,-0.429 0.155,-2.916 0.446,-5.836 0.389,-8.75 -0.091,-4.605 -0.436,-9.205 -0.63,-13.809 -0.05,-1.186 0.116,-2.38 0.086,-3.569 -0.059,-2.312 -0.305,-4.624 -0.259,-6.932 0.089,-4.385 0.406,-8.767 0.488,-13.152 0.11,-5.826 0.014,-11.656 0.149,-17.481 0.07,-3.028 0.405,-6.055 0.729,-9.07 0.052,-0.481 0.642,-1.244 1.045,-1.286 1.478,-0.156 2.982,-0.062 4.62,-0.062 0.139,0.805 0.336,1.493 0.366,2.189 0.193,4.47 0.372,8.941 0.504,13.414 0.049,1.672 0.215,3.4 -0.115,5.012 -0.818,4.013 -1.02,8.04 -0.932,12.11 0.026,1.191 -0.23,2.385 -0.254,3.58 -0.075,3.911 -0.141,7.823 -0.135,11.735 0.005,2.782 0.243,5.567 0.178,8.346 -0.101,4.366 -0.376,8.727 -0.565,13.091 -0.131,3.025 -0.181,6.055 -0.385,9.075 -0.15,2.204 -0.727,4.398 -0.698,6.591 0.056,4.149 -2.39,6.935 -4.817,9.786 -0.053,0.061 -0.288,-0.033 -0.536,-0.069 -0.185,-6.022 -0.372,-12.062 -0.559,-18.145 -3.501,-1.537 -7.194,-0.77 -10.476,-2.238 0.876,-0.306 1.781,-0.615 2.669,-0.571 1.977,0.098 3.946,0.363 5.917,0.578 1.11,0.122 1.226,-0.02 1.091,-1.347 -3.317,-0.328 -6.617,-0.655 -9.667,-0.957 -0.499,-2.153 -0.912,-3.902 -1.301,-5.656 -0.049,-0.22 0.02,-0.469 0.051,-0.702 0.823,-6.182 1.194,-12.387 1.023,-18.625 -0.017,-0.632 0.161,-1.269 0.165,-1.905 0.062,-7.803 0.098,-15.607 0.164,-23.41 0.018,-2.146 0.011,-4.3 0.196,-6.435 0.177,-2.045 0.681,-4.062 0.873,-6.108 0.245,-2.601 0.322,-5.218 0.492,-8.2 M 92.479,231.072 c 0.179,-2.815 0.363,-5.26 0.468,-7.709 0.027,-0.611 0.015,-1.496 -0.354,-1.802 -1.498,-1.239 -0.761,-2.81 -0.797,-4.235 -0.031,-1.264 0.259,-2.532 0.273,-3.799 0.09,-7.491 0.206,-14.969 1.3,-22.412 0.46,-3.134 0.387,-6.349 0.501,-9.53 0.091,-2.532 0.099,-5.067 0.144,-7.615 1.197,-0.439 2.152,-0.833 3.132,-1.142 2.877,-0.909 5.434,-2.346 7.343,-4.71 2.55,-3.158 5.01,-6.389 7.484,-9.606 0.336,-0.437 0.51,-0.992 0.798,-1.471 0.643,-1.075 1.31,-2.135 1.916,-3.117 2.704,0.417 3.4,1.173 3.318,3.56 -0.075,2.208 -0.326,4.412 -0.347,6.619 -0.037,4.15 0.044,8.301 0.063,12.452 0.017,3.665 -0.102,7.336 0.054,10.995 0.176,4.132 0.603,8.252 0.895,12.38 0.073,1.034 0.149,2.088 0.029,3.11 -0.077,0.664 -0.371,1.706 -0.805,1.847 -1.161,0.377 -1.214,1.366 -1.695,2.143 -0.795,1.284 -1.647,2.533 -2.519,3.766 -0.918,1.297 -1.892,2.555 -2.835,3.835 -0.425,0.577 -0.752,1.253 -1.265,1.734 -3.771,3.544 -7.525,7.111 -11.4,10.539 -1.698,1.502 -3.666,2.697 -5.701,4.168 M -34.465,-11.025 c -0.14,-4.772 -0.21,-9.23 -0.418,-13.68 -0.197,-4.201 -0.529,-8.396 -0.827,-12.592 -0.057,-0.793 -0.139,-1.607 -0.374,-2.36 -0.621,-1.989 -0.37,-4.195 -1.649,-6.028 -1.368,-1.96 -2.547,-4.052 -3.933,-5.998 -0.916,-1.285 -1.93,-2.552 -3.112,-3.586 -3.975,-3.473 -8.344,-6.418 -13.032,-8.828 -2.178,-1.121 -4.514,-2.042 -6.882,-2.658 -2.835,-0.737 -5.771,-1.114 -8.68,-1.533 -4.193,-0.604 -8.419,-0.398 -12.632,-0.268 -1.984,0.062 -3.963,0.499 -5.941,0.47 -6.372,-0.092 -12.743,-0.328 -19.115,-0.496 -1.886,-0.049 -3.782,0.046 -5.659,-0.107 -2.375,-0.195 -4.731,-0.609 -7.102,-0.866 -2.127,-0.229 -4.267,-0.34 -6.393,-0.576 -0.585,-0.065 -1.523,-0.261 -1.648,-0.622 -0.906,-2.611 -2.18,-5.202 -1,-8.101 0.681,-1.672 1.622,-2.404 3.437,-2.313 2.793,0.139 5.584,0.329 8.375,0.492 1.355,0.079 2.717,0.086 4.064,0.229 3.731,0.394 7.447,0.95 11.185,1.247 6.446,0.512 12.904,0.876 19.356,1.303 8.774,0.583 17.437,1.964 26.099,3.425 8.617,1.453 15.884,5.1 21.291,12.114 0.34,0.441 0.748,0.831 1.135,1.235 2.959,3.089 5.242,6.6 6.826,10.588 0.929,2.338 1.568,4.811 3.329,6.788 0.581,0.652 0.786,1.743 0.923,2.669 0.369,2.509 0.577,5.016 0.13,7.572 -0.215,1.225 0.099,2.54 0.162,3.816 0.165,3.346 0.403,6.691 0.456,10.039 0.034,2.149 -0.145,4.309 -0.364,6.45 -0.063,0.615 -0.494,1.597 -0.926,1.7 -2.274,0.542 -4.584,1.286 -7.081,0.475 M -70.02,11.779 c -0.401,-0.196 -0.869,-0.522 -1.388,-0.665 -2.329,-0.643 -3.047,-2.346 -3.074,-4.529 -0.01,-0.718 0.005,-1.438 0.02,-2.156 0.059,-2.789 0.485,-5.63 0.1,-8.356 -0.605,-4.273 0.04,-8.238 1.636,-12.145 0.211,-0.517 0.476,-1.027 0.59,-1.566 0.736,-3.497 2.927,-6.141 5.643,-8.072 3.341,-2.375 7.44,-3.035 11.585,-3.832 0.07,0.776 0.226,1.331 0.149,1.85 -0.542,3.624 -0.935,7.254 -0.931,10.926 0.002,1.671 -0.274,3.343 -0.253,5.013 0.035,2.854 0.326,5.709 0.293,8.56 -0.074,6.466 -0.218,12.933 -0.453,19.395 -0.174,4.774 -0.457,9.547 -0.854,14.307 -0.162,1.951 0.191,4.249 -2.188,5.383 -0.207,0.099 -0.287,0.549 -0.352,0.852 -0.518,2.415 -1.278,4.815 -1.456,7.256 -0.211,2.913 -0.359,5.938 2.01,8.353 0.454,0.463 0.517,1.471 0.49,2.218 -0.171,4.71 -0.417,9.418 -0.643,14.126 -0.013,0.28 -0.062,0.557 -0.135,1.195 -2.163,-0.83 -4.204,-1.343 -5.96,-2.351 -2.437,-1.398 -4.629,-3.249 -5.503,-6.082 -0.513,-1.663 -0.652,-3.438 -1.016,-5.152 -0.659,-3.103 -0.762,-6.171 0.323,-9.215 0.648,-1.816 0.489,-3.604 -0.277,-5.37 -0.244,-0.563 -0.441,-1.201 -0.443,-1.805 -0.009,-2.314 0.02,-4.631 0.133,-6.943 0.084,-1.737 0.082,-3.503 1.372,-4.962 0.373,-0.422 0.467,-1.175 0.51,-1.789 0.088,-1.272 0.067,-2.553 0.07,-3.83 0.007,-3.418 0.002,-6.836 0.002,-10.614 M 29.994,-24.562 c 0.3,-4.519 2.136,-8.482 5.949,-10.277 2.122,-0.999 2.484,-3.51 3.362,-5.504 0.057,-0.132 -0.005,-0.315 -0.006,-0.474 -0.021,-2.71 -0.151,-5.426 -0.034,-8.131 0.194,-4.55 0.558,-4.729 4.954,-4.44 0.079,0.005 0.161,0.012 0.239,0 1.896,-0.295 2.939,1.065 3.075,2.631 0.219,2.525 0.172,5.074 0.158,7.613 -0.003,0.404 -0.339,0.897 -0.665,1.191 -1.221,1.102 -2.008,2.439 -2.549,3.982 -0.316,0.898 -0.742,1.793 -1.293,2.564 -1.668,2.333 -2.631,4.9 -2.974,7.739 -0.083,0.684 -0.247,1.643 -0.713,1.938 -1.193,0.753 -1.178,1.794 -1.164,2.921 0.061,4.948 0.094,9.896 0.195,14.843 0.054,2.619 0.133,5.189 -1.253,7.6 -0.434,0.756 -0.417,1.693 -1.632,1.651 -1.838,-0.063 -2.661,-0.577 -3.154,-1.865 -0.525,-1.372 -0.377,-2.771 -0.49,-4.178 -0.388,-4.841 -0.492,-9.668 -0.207,-14.511 0.006,-0.088 -0.192,-0.19 -0.389,-0.372 -0.648,0.821 -1.059,1.592 -1,2.752 0.2,3.905 0.274,7.818 0.311,11.729 0.007,0.733 -0.159,1.671 -0.619,2.169 -1.665,1.804 -2.209,4.036 -2.717,6.295 -0.44,1.952 -0.17,3.936 0.914,5.539 1.242,1.836 1.135,3.664 1.005,5.693 -0.236,3.658 -0.314,7.335 -0.249,11.001 0.057,3.267 0.563,6.528 0.578,9.793 0.032,7.822 -0.114,15.644 -0.171,23.467 -0.011,1.436 0.065,2.872 0.095,4.309 0.089,4.307 0.42,8.626 0.199,12.917 -0.263,5.113 -0.534,10.199 0.06,15.3 0.107,0.928 0.015,1.879 0.015,2.841 -1.807,-0.646 -3.471,-1.372 -5.206,-1.824 -1.798,-0.468 -3.795,0.153 -5.579,-0.786 0,-1.46 0.06,-2.808 -0.011,-4.15 -0.225,-4.301 -0.586,-8.596 -0.718,-12.9 -0.064,-2.046 -0.109,-4.227 0.502,-6.134 1.489,-4.651 1.346,-9.431 1.663,-14.18 C 20.55,53.063 20.274,52.052 19.238,51.241 18.714,50.832 18.396,49.888 18.364,49.168 18.252,46.699 18.209,44.218 18.322,41.75 18.487,38.163 19.038,34.582 19.014,31 18.977,25.505 18.523,20.014 18.372,14.517 18.229,9.331 18.227,4.14 18.201,-1.049 c -0.018,-3.752 -0.084,-7.509 0.081,-11.255 0.1,-2.278 0.597,-4.539 0.871,-6.497 4.836,-0.605 9.295,-1.164 13.66,-1.711 0.518,-2.927 0.517,-2.924 -1.789,-3.648 -0.365,-0.115 -0.714,-0.277 -1.03,-0.402 m -51.07,114.141 c -0.067,-0.935 -0.179,-1.786 -0.177,-2.637 0.007,-3.273 0.129,-6.547 0.061,-9.818 -0.099,-4.701 -0.475,-9.4 -0.462,-14.099 0.016,-5.824 0.358,-11.646 0.468,-17.471 0.093,-4.867 0.149,-9.739 0.04,-14.605 -0.071,-3.173 0.903,-6.288 0.297,-9.498 -0.195,-1.036 0.376,-2.194 0.429,-3.304 0.189,-4.029 1.105,-8.13 -1.018,-11.97 -0.107,-0.193 -0.111,-0.465 -0.097,-0.697 0.281,-4.753 0.55,-9.508 0.868,-14.259 0.218,-3.257 0.473,-6.512 0.776,-9.762 0.326,-3.475 0.698,-6.945 1.11,-10.411 0.178,-1.502 0.291,-3.069 0.813,-4.464 1.474,-3.934 2.913,-7.845 5.44,-11.355 2.114,-2.934 4.581,-5.298 7.551,-7.206 5.52,-3.543 11.748,-4.877 18.143,-5.633 1.586,-0.189 3.187,-0.517 4.766,-0.447 1.776,0.08 3.783,0.002 4.982,1.711 1.714,2.443 0.586,6.289 -2.27,7.193 -2.566,0.811 -5.271,1.208 -7.934,1.676 -2.19,0.386 -4.418,0.556 -6.611,0.922 -1.946,0.325 -3.579,1.291 -4.944,2.73 -2.382,2.511 -3.688,5.641 -4.555,8.856 -1.036,3.837 -1.579,7.806 -2.314,11.722 -0.473,2.512 -0.892,5.034 -1.373,7.544 -0.103,0.543 -0.209,1.243 -0.58,1.55 -1.716,1.419 -1.062,3.217 -0.849,4.983 0.2,-0.878 0.398,-1.757 0.635,-2.806 3.058,-0.212 5.99,-0.391 8.918,-0.629 1.132,-0.092 2.039,0.31 2.139,1.404 0.265,2.915 0.827,5.872 -0.377,8.727 -0.147,0.349 -0.373,0.746 -0.678,0.933 -1.941,1.187 -5.495,-0.566 -5.754,-2.835 -0.118,-1.031 -0.132,-2.074 -0.188,-3.111 -0.067,-1.211 -0.809,-1.853 -1.868,-2.229 -1.184,-0.42 -1.415,0.602 -1.995,1.224 -1.086,1.167 -1.083,2.56 -0.926,4.09 -0.941,0.07 -1.709,0.128 -2.458,0.184 -1.201,2.019 -0.84,4.118 -0.62,6.153 0.086,0.79 0.547,1.477 1.423,2.037 1.057,0.675 1.95,2.005 1.521,3.39 -1.075,3.47 0.074,7.166 -1.21,10.593 -0.107,0.283 -0.056,0.635 -0.043,0.953 0.116,2.866 0.369,5.733 0.337,8.597 -0.081,7.349 -0.29,14.697 -0.44,22.046 -0.021,1.084 -0.106,2.036 -1.409,2.456 -0.423,0.136 -0.715,0.807 -0.98,1.282 -2.047,3.647 -2.233,7.423 -0.697,11.291 0.285,0.715 0.451,1.465 1.396,1.804 0.424,0.152 0.806,0.987 0.847,1.538 0.134,1.825 0.097,3.661 0.142,5.494 0.016,0.628 -0.053,1.298 0.139,1.876 1.253,3.785 2.389,7.621 3.898,11.303 2.68,6.539 7.58,11.373 13.001,15.639 2.723,2.142 5.832,3.792 8.939,5.775 -0.7,1.359 -1.318,3.038 -2.333,4.427 -2.159,2.95 -4.936,5.162 -8.845,4.769 -2.354,-0.238 -4.662,-0.984 -6.977,-1.561 -3.68,-0.918 -5.49,-3.694 -6.521,-7.018 -0.492,-1.585 -1.356,-3.253 -0.147,-5.043 0.359,-0.531 0.037,-1.547 -0.033,-2.336 -0.096,-1.101 -0.252,-2.197 -0.375,-3.296 -0.309,-2.749 -0.615,-5.497 -0.936,-8.372 z M 85.836,-21.497 c 2.096,-0.208 4.065,-0.539 6.038,-0.56 1.925,-0.019 2.097,0.357 2.155,2.316 0.103,3.425 0.271,6.849 0.401,10.274 0.045,1.196 0.097,2.395 0.083,3.592 -0.06,4.915 -0.42,9.848 -0.111,14.739 0.168,2.65 -0.083,5.225 -0.159,7.83 -0.097,3.338 -0.424,6.67 -0.501,10.008 -0.109,4.697 -0.042,9.397 -0.122,14.094 -0.055,3.189 -0.27,6.374 -0.346,9.562 -0.195,8.294 -0.361,16.589 -0.521,24.884 -0.08,4.141 -0.305,8.291 -0.134,12.424 0.201,4.837 -0.697,9.616 -0.441,14.453 0.168,3.176 -0.013,6.372 -0.086,9.558 -0.076,3.343 -0.331,6.686 -0.294,10.027 0.084,7.505 0.26,15.01 0.498,22.512 0.05,1.574 0.397,3.172 0.84,4.691 0.489,1.68 1.221,2.151 2.96,2.054 3.101,-0.173 6.197,-0.448 9.294,-0.698 1.894,-0.154 3.789,-0.321 5.679,-0.518 1.507,-0.158 3.01,-0.358 4.512,-0.561 1.647,-0.224 3.126,-0.637 3.27,-2.721 0.022,-0.323 0.421,-0.62 0.628,-0.904 2.023,0.806 2.585,1.58 2.534,4.077 -0.045,2.183 0.372,4.63 -2.056,6.102 -3.231,-4.231 -3.225,-4.173 -8.561,-3.59 -4.911,0.537 -9.757,1.611 -14.739,1.586 -2.21,-0.011 -3.231,0.907 -3.427,3.479 -0.367,4.846 -0.421,9.715 -0.571,14.576 -0.078,2.548 -0.241,5.109 -0.084,7.647 0.279,4.492 -0.416,8.912 -0.679,13.364 -0.299,5.092 -0.52,10.189 -0.82,15.282 -0.202,3.424 -0.42,6.851 -0.751,10.264 -0.172,1.77 -0.664,2.107 -2.513,2.228 -2.072,0.137 -3.921,-0.657 -5.664,-1.614 -0.514,-0.282 -0.952,-1.131 -1.004,-1.755 -0.212,-2.542 -0.326,-5.097 -0.357,-7.648 -0.053,-4.213 0,-8.427 -0.018,-12.64 -0.015,-3.344 -0.21,-6.694 -0.07,-10.031 0.167,-3.971 0.758,-7.924 0.885,-11.894 0.104,-3.262 -0.202,-6.537 -0.33,-9.806 -0.028,-0.718 -0.127,-1.437 -0.098,-2.152 0.092,-2.231 0.216,-4.462 0.362,-6.69 0.029,-0.46 0.121,-0.95 0.322,-1.358 0.87,-1.766 0.889,-1.757 -0.619,-3.18 0.055,-0.971 0.169,-1.927 0.157,-2.88 -0.076,-5.992 -0.366,-11.988 -0.221,-17.973 0.136,-5.571 -0.803,-11.091 -0.314,-16.682 0.699,-8.012 0.152,-16.088 1.079,-24.109 0.327,-2.832 -0.038,-5.739 0.035,-8.608 0.099,-3.886 0.323,-7.768 0.476,-11.653 0.037,-0.954 -0.03,-1.912 0.009,-2.867 0.315,-7.644 0.652,-15.288 0.959,-22.932 0.064,-1.597 0.017,-3.197 0.053,-4.794 0.125,-5.541 0.269,-11.081 0.392,-16.622 0.008,-0.393 -0.025,-0.806 -0.138,-1.18 -0.854,-2.821 -0.788,-5.655 -0.245,-8.52 0.137,-0.723 0.373,-1.215 0.931,-1.781 3.276,-3.323 4.152,-8.868 2.263,-13.076 -0.313,-0.698 -0.526,-1.491 -0.57,-2.253 -0.208,-3.579 -0.316,-7.165 -0.511,-10.746 -0.116,-2.144 -0.476,-4.288 0.26,-6.627 M 79.697,99.43 c -1.384,0.307 -2.843,0.883 -4.311,0.91 -5.026,0.094 -10.064,0.164 -15.08,-0.085 -4.136,-0.204 -8.252,-0.852 -12.371,-1.341 -4.925,-0.585 -9.812,-1.283 -14.066,-4.187 -0.577,-0.395 -1.448,-0.359 -2.225,-0.532 -0.103,-0.276 -0.297,-0.57 -0.311,-0.872 -0.192,-4.12 -1.112,-8.187 -0.676,-12.362 0.314,-2.991 0.365,-6.018 0.392,-9.03 C 31.095,66.514 31.058,61.095 31.01,55.678 30.962,50.337 30.896,44.997 30.766,39.658 30.657,35.197 30.413,30.739 30.286,26.278 30.11,20.142 29.848,13.992 31.374,7.958 31.603,7.053 31.858,6.022 32.461,5.393 32.837,5 33.887,5.262 34.632,5.206 34.866,5.187 35.097,5.098 35.326,5.03 c 1.297,-0.386 2.028,0.241 2.284,1.42 0.422,1.934 0.934,3.878 1.069,5.84 0.362,5.29 0.229,10.614 1.175,15.861 0.042,0.234 0.114,0.505 0.039,0.709 -0.954,2.621 -0.17,5.24 0.102,7.824 0.371,3.527 2.126,6.334 5.313,8.056 1.463,0.791 3.041,1.372 4.55,2.082 3.892,1.833 7.865,2.598 12.051,1.042 0.519,-0.193 1.081,-0.344 1.629,-0.368 4.535,-0.195 7.296,-3.052 9.749,-6.408 1.9,-2.599 3.17,-5.5 4.215,-8.52 0.175,-0.504 0.386,-1.237 0.769,-1.389 2.341,-0.929 1.997,-2.764 1.754,-4.627 -0.081,-0.622 -0.165,-1.305 0.003,-1.887 0.716,-2.485 0.217,-4.849 -0.396,-7.266 -0.557,-2.195 -1.262,-4.454 -0.151,-6.733 0.882,0.18 1.654,0.337 2.535,0.518 0.064,0.566 0.19,1.108 0.174,1.644 -0.037,1.275 -0.249,2.551 -0.199,3.819 0.195,4.941 0.46,9.88 0.705,14.819 0.047,0.956 0.309,1.943 0.152,2.86 -0.965,5.632 -0.486,11.314 -0.689,16.971 -0.078,2.154 -0.006,4.316 -0.126,6.467 -0.414,7.402 -1.027,14.795 -1.285,22.201 -0.225,6.447 0.157,12.917 -1.051,19.465 m 63.968,54.037 c -1.235,0.505 -2.268,1.221 -3.348,1.303 -1.795,0.138 -3.658,0.055 -5.42,-0.297 -1.138,-0.228 -1.951,-0.106 -2.452,0.812 -0.429,0.789 -0.722,1.73 -0.791,2.625 -0.253,3.32 0.508,6.706 -0.638,9.971 -0.594,1.692 -0.735,3.405 -0.488,5.19 0.287,2.078 0.172,4.124 -0.954,6.006 -0.181,0.302 -0.24,0.723 -0.232,1.086 0.095,4.274 0.228,8.547 0.311,12.821 0.014,0.712 -0.174,1.426 -0.244,2.14 -0.055,0.556 -0.124,1.116 -0.098,1.67 0.29,6.291 0.585,12.581 0.909,18.87 0.064,1.248 0.258,2.49 0.422,4.01 -3.713,-0.028 -7.15,-0.312 -10.335,-1.375 0,-3.368 0.101,-6.627 -0.025,-9.877 -0.17,-4.365 -0.59,-8.721 -0.765,-13.086 -0.185,-4.603 -0.201,-9.212 -0.307,-13.817 -0.032,-1.432 -0.278,-2.879 -0.137,-4.29 0.176,-1.763 0.361,-3.479 -0.17,-5.213 -0.16,-0.521 -0.164,-1.111 -0.139,-1.665 0.19,-4.276 0.405,-8.552 0.612,-12.83 2.403,-0.41 3.328,-1.472 3.463,-3.959 0.039,-0.714 0.137,-1.425 0.179,-2.139 0.178,-3.073 0.282,-6.122 -3.08,-7.725 0,-4.6 -0.021,-9.067 0.006,-13.532 0.032,-5.182 0.154,-10.364 0.151,-15.545 -0.005,-6.868 0.086,-13.743 -0.196,-20.601 -0.273,-6.675 0.57,-13.272 0.844,-19.907 0.099,-2.379 0.18,-4.759 0.278,-7.138 0.04,-0.954 0.105,-1.908 0.155,-2.861 0.186,-3.572 0.41,-7.143 0.548,-10.717 0.208,-5.407 0.36,-10.816 0.526,-16.225 0.024,-0.793 0.004,-1.588 -0.007,-2.381 -0.032,-2.285 -0.164,-4.573 -0.082,-6.853 0.118,-3.259 0.415,-6.51 0.58,-9.768 0.044,-0.862 -0.178,-1.736 -0.165,-2.603 0.056,-3.802 0.229,-7.604 0.212,-11.405 -0.016,-3.317 -0.367,-6.635 -0.317,-9.949 0.058,-3.901 0.381,-7.798 0.614,-11.695 0.032,-0.529 0.216,-1.048 0.325,-1.552 1.997,-0.419 3.841,-0.971 5.722,-1.16 2.59,-0.26 3.06,0.283 3.253,2.859 0.261,3.499 0.659,6.99 0.808,10.493 0.278,6.53 0.518,13.065 0.58,19.6 0.04,4.072 -0.402,8.146 -0.389,12.219 0.011,3.6 0.784,4.148 4.344,3.838 1.642,-0.143 1.732,-0.343 1.982,-2.043 0.229,-1.561 0.537,-3.141 1.076,-4.615 0.568,-1.554 1.534,-1.855 3.05,-1.123 2.425,1.172 3.69,3.209 4.023,5.84 0.537,4.236 -0.156,8.304 -2.027,12.108 -0.491,0.997 -1.499,1.896 -2.486,2.459 -1.979,1.126 -2.97,0.569 -3.259,-1.693 -0.241,-1.894 -0.252,-3.816 -0.48,-5.712 -0.285,-2.375 -2.005,-3.054 -4.161,-1.973 -1.911,0.959 -1.856,2.725 -1.978,4.297 -0.259,3.335 -0.313,6.692 -0.32,10.039 -0.007,3.748 0.244,7.499 0.17,11.244 -0.063,3.249 -0.488,6.488 -0.633,9.737 -0.159,3.499 -0.171,7.004 -0.259,10.506 -0.09,3.586 -0.278,7.173 -0.267,10.759 0.009,3.027 0.106,6.067 0.418,9.076 0.246,2.367 0.694,2.578 3.058,2.739 0.685,0.046 1.364,0.183 2.349,0.321 -0.114,-0.794 -0.067,-1.446 -0.307,-1.962 -0.948,-2.037 -0.586,-4.141 -0.011,-6.07 0.545,-1.826 2.182,-2.811 4.084,-1.164 1.45,1.256 2.402,2.775 2.413,4.756 0.009,1.438 0.149,2.904 -0.074,4.31 -0.459,2.906 -1.045,5.798 -1.75,8.654 -0.183,0.737 -0.919,1.76 -1.541,1.872 -1.199,0.215 -1.29,-1.173 -1.692,-1.972 -0.276,-0.552 -0.228,-1.259 -0.465,-1.84 -0.436,-1.071 -0.974,-2.1 -1.458,-3.122 -1.041,0.203 -1.733,0.421 -2.434,0.457 -1.204,0.061 -1.923,0.702 -2.336,1.746 -0.322,0.813 -0.756,1.642 -0.816,2.487 -0.193,2.698 -0.29,5.406 -0.322,8.112 -0.055,4.86 -0.046,9.72 -0.046,14.58 0,5.103 0.015,10.206 0.046,15.309 0.004,0.551 0.163,1.101 0.251,1.651 0.269,1.678 0.537,3.354 0.813,5.069 1.194,-0.195 2.454,-0.323 3.676,-0.614 2.321,-0.551 4.641,-1.129 6.921,-1.829 1.204,-0.368 2.23,-1.088 2.294,-2.876 -2.217,0.92 -3.985,2.393 -6.25,2.382 -1.247,-4.864 0.104,-7.779 4.308,-9.619 1.673,-0.732 3.219,-0.753 4.724,0.393 1.523,1.159 3.053,2.312 4.629,3.399 1.554,1.073 2.407,2.527 2.602,4.374 0.342,3.245 -0.264,6.367 -1.372,9.396 -0.538,1.473 -1.635,2.516 -2.95,3.367 -1.166,0.755 -2.465,0.992 -3.665,0.502 -2.592,-1.057 -5.056,-2.389 -6.819,-4.681 -0.224,-0.29 -0.294,-0.699 -0.441,-1.067 3.532,-0.905 4.122,-1.47 3.669,-3.314 m -63.477,23.832 c -3.319,1.852 -6.418,3.603 -9.542,5.31 -0.623,0.34 -1.317,0.656 -2.007,0.741 -2.058,0.252 -4.129,0.516 -6.198,0.539 -7.509,0.085 -15.021,0.149 -22.53,0.064 -3.349,-0.038 -6.791,-0.028 -10.022,-0.772 -8.698,-2 -17.383,-4.145 -25.126,-8.931 -2.909,-1.797 -6.075,-3.128 -8.937,-5.074 -1.718,-1.168 -3.141,-2.625 -4.805,-3.815 -1.094,-0.782 -2.225,-1.573 -3.128,-2.554 -3.503,-3.808 -6.917,-7.697 -10.377,-11.545 -0.29,-0.323 -0.702,-0.825 -1.011,-0.793 -0.949,0.097 -1.23,-0.494 -1.609,-1.132 -2.28,-3.836 -4.634,-7.63 -6.863,-11.495 -1.309,-2.269 -2.6,-4.575 -3.605,-6.988 -2.083,-5 -3.755,-10.117 -4.991,-15.434 -1.251,-5.379 -2.558,-10.732 -2.954,-16.23 -0.279,-3.875 -0.054,-7.786 -0.054,-11.692 0.543,-0.087 0.852,-0.157 1.164,-0.184 3.828,-0.33 7.287,-1.693 10.509,-3.731 2.048,-1.296 2.619,-3.554 1.21,-5.605 -0.264,0.587 -0.658,1.057 -0.648,1.517 0.041,1.812 -0.988,2.866 -2.477,3.444 -2.067,0.803 -4.165,1.651 -6.328,2.05 -2.968,0.546 -6.03,0.563 -9.015,1.042 -3.055,0.49 -6.206,-0.184 -9.208,0.914 -1.264,0.462 -2.614,0.709 -3.937,0.992 -3.671,0.785 -7.319,-0.026 -10.969,-0.258 -1.083,-0.068 -2.198,-0.496 -3.182,-0.992 -0.735,-0.37 -1.684,-0.948 -1.049,-2.137 5.581,2.594 11.084,3.119 16.728,0.69 0.864,-0.372 1.835,-0.513 2.77,-0.704 4.412,-0.899 9.006,-0.994 13.144,-3.125 0.796,-0.411 1.839,-0.34 2.713,-0.482 1.299,2.573 1.92,2.716 4.266,1.162 0.732,-0.485 1.48,-0.951 2.25,-1.371 2.434,-1.327 4.342,-3.275 6.05,-5.381 0.594,-0.732 0.942,-1.924 0.861,-2.86 -0.062,-0.717 -0.973,-1.361 -1.583,-2.134 0.276,-1.544 0.582,-3.27 0.892,-4.995 0.394,-2.19 0.793,-4.378 1.186,-6.568 0.18,-1.003 0.287,-2.023 0.543,-3.005 0.273,-1.05 0.973,-2.063 0.98,-3.095 0.023,-3.203 0.484,-6.369 0.357,-9.603 -0.186,-4.773 0.22,-9.572 0.441,-14.357 0.026,-0.567 0.318,-1.294 0.739,-1.634 0.889,-0.715 1.944,-1.224 3.027,-1.876 0.046,0.446 0.113,0.758 0.106,1.069 -0.132,5.814 -0.292,11.628 -0.406,17.442 -0.091,4.632 -0.145,9.265 -0.186,13.898 -0.034,3.828 -0.055,7.656 -0.029,11.483 0.043,6.309 0.13,12.617 0.186,18.925 0.003,0.391 0.056,0.938 -0.166,1.151 -1.864,1.791 -1.47,4.214 -1.56,6.343 -0.125,2.925 -0.749,6.094 1.623,8.616 0.141,0.15 0.128,0.451 0.173,0.684 0.344,1.802 0.677,3.605 1.029,5.406 0.765,3.918 1.597,7.822 3.468,11.399 1.03,1.972 2.16,3.89 3.221,5.845 5.774,10.633 14.078,18.917 24.033,25.594 2.833,1.9 6.078,3.173 8.99,4.968 3.594,2.216 7.561,3.381 11.563,4.398 4.171,1.059 8.397,2.035 12.658,2.566 4.178,0.521 8.429,0.515 12.651,0.587 2.385,0.041 4.831,0.054 7.151,-0.408 5.204,-1.036 9.904,-3.403 14.41,-6.154 1.05,-0.641 2.102,-1.277 3.41,-2.071 z m -1.389,-60.907 c -0.99,-0.076 -1.81,-0.256 -2.604,-0.177 -1.902,0.188 -3.8,0.451 -5.686,0.769 -4.116,0.694 -8.265,1.145 -12.412,0.635 -4.897,-0.601 -9.759,-1.473 -14.636,-2.228 -1.084,-0.168 -2.193,-0.242 -3.244,-0.53 -1.594,-0.436 -3.115,-1.182 -4.726,-1.505 -2.379,-0.477 -4.512,-1.431 -6.899,-2.765 0.449,-1.109 0.876,-2.172 1.311,-3.232 0.27,-0.656 0.731,-1.29 0.796,-1.964 0.303,-3.126 0.498,-6.264 0.735,-9.425 6.887,3.336 8.11,4.237 16.574,4.87 0.396,0.03 0.785,0.162 1.181,0.199 5.793,0.533 11.581,1.344 17.384,1.492 4.404,0.112 8.895,0.23 13.415,-1.225 0,0.833 0.02,1.373 -0.004,1.912 -0.214,5.02 -0.519,10.039 -0.623,15.061 -0.05,2.469 0.36,4.943 0.402,7.418 0.15,8.869 0.22,17.739 0.346,26.609 0.035,2.421 0.07,2.402 -2.341,3.344 -0.42,0.164 -0.747,0.562 -1.13,0.83 -5.244,3.654 -10.872,6.443 -17.336,6.966 -2.763,0.222 -5.574,-0.233 -8.349,-0.089 -4.511,0.234 -8.916,-0.416 -13.335,-1.107 -5.626,-0.879 -11.097,-2.341 -16.288,-4.665 -6.727,-3.012 -13.001,-6.775 -18.73,-11.477 -6.259,-5.137 -11.236,-11.282 -15.243,-18.267 -0.3,-0.524 -0.675,-1.061 -0.287,-1.468 2.521,1.2 4.772,2.782 7.253,3.339 4.109,0.922 8.353,1.382 12.564,1.64 2.087,0.127 4.268,-0.475 6.335,-1.02 2.811,-0.741 4.886,-2.723 6.663,-4.887 2.984,-3.633 5.831,-7.386 7.648,-11.794 0.137,-0.333 0.439,-0.599 0.535,-0.726 1.951,0.535 3.681,1.038 5.427,1.485 3.784,0.967 7.554,2.004 11.371,2.823 2.803,0.602 5.67,0.911 8.511,1.337 4.028,0.604 8.049,1.189 12.15,0.682 3.795,-0.469 7.604,-0.831 11.411,-1.183 0.921,-0.085 1.441,-0.472 1.861,-1.677 m -196.616,3.027 c 0.05,-2.146 0.224,-4.118 0.118,-6.075 -0.329,-6.064 -0.793,-12.119 -1.152,-18.181 -0.397,-6.696 -0.869,-13.392 -1.068,-20.094 -0.293,-9.9 -0.292,-19.808 -0.572,-29.709 -0.205,-7.264 -0.812,-14.518 -0.961,-21.783 -0.163,-7.907 -0.31,-15.801 -0.959,-23.693 -0.85,-10.343 -1.395,-20.71 -2.1,-31.066 -0.271,-3.979 -0.602,-7.955 -0.941,-11.929 -0.311,-3.649 -0.619,-7.3 -1.018,-10.94 -0.458,-4.186 -1.032,-8.361 -1.509,-12.546 -0.057,-0.509 0.182,-1.052 0.312,-1.733 0.889,0.044 1.672,0.07 2.454,0.123 6.928,0.469 13.853,0.997 20.785,1.394 4.859,0.278 9.743,0.461 14.591,0.007 6.136,-0.574 12.237,-0.765 18.362,0.093 5.746,0.804 11.183,2.332 16.213,5.395 2.081,1.267 2.639,2.637 2.338,4.889 -0.413,3.083 -0.578,6.2 -0.809,9.307 -0.058,0.787 -0.258,1.656 0.724,2.744 1.062,-4.872 0.11,-9.56 1.561,-14.146 2.677,1.469 4.936,3.192 6.844,5.366 0.248,0.281 0.433,0.696 0.474,1.068 0.271,2.444 0.445,4.893 -0.064,7.415 -0.729,0.071 -1.356,0.154 -1.986,0.187 -1.826,0.093 -3.673,0.033 -5.478,0.279 -3.401,0.464 -6.764,1.207 -10.168,1.641 -5.138,0.653 -9.237,3.241 -13.065,6.504 -3.059,2.607 -5.844,5.405 -7.544,9.118 -0.694,1.514 -1.601,2.978 -2.009,4.568 -0.747,2.916 -1.314,5.893 -1.731,8.877 -0.33,2.364 -0.478,4.778 -0.433,7.165 0.094,4.929 0.372,9.855 0.57,14.685 -2.292,0.803 -2.586,1.055 -2.949,3.008 -0.218,1.173 -0.339,2.383 -0.334,3.575 0.015,3.916 0.053,7.833 0.203,11.744 0.044,1.153 0.224,2.463 0.828,3.381 0.523,0.795 1.736,1.137 2.92,1.845 -0.563,3.045 0.883,6.265 -0.736,9.718 -1.405,2.997 -1.04,6.563 -0.224,9.904 0.507,2.075 1.101,4.166 1.265,6.28 0.438,5.676 1.958,10.993 4.753,15.938 2.041,3.611 4.958,6.228 9,7.387 2.81,0.806 5.659,1.472 8.49,2.2 -0.068,0.139 -0.107,0.371 -0.209,0.404 -4.505,1.465 -8.934,1.536 -13.149,-0.919 -0.78,-0.455 -1.452,-1.14 -2.352,-0.467 -0.832,0.624 -1.114,1.54 -0.908,2.569 0.374,1.858 1.341,3.122 3.246,3.758 2.779,0.929 5.609,1.144 8.499,1.095 2.368,-0.041 4.737,-0.009 7.082,-0.009 -0.084,2.989 -0.127,5.682 -0.243,8.372 -0.141,3.252 -0.405,6.499 -0.498,9.751 -0.073,2.555 -0.019,5.117 0.082,7.672 0.054,1.394 -0.443,2.344 -1.744,2.782 -1.806,0.608 -3.606,1.465 -5.463,1.643 -6.835,0.66 -13.687,1.289 -20.546,1.535 -6.536,0.234 -13.099,0.28 -19.592,-0.964 -2.493,-0.478 -5.043,-0.668 -7.568,-0.979 -0.609,-0.075 -1.223,-0.115 -1.632,-0.153 m 197.696,59.145 c 0.058,1.107 0.121,1.572 0.1,2.033 -0.223,5.019 -0.531,10.036 -0.664,15.057 -0.062,2.388 0.241,4.783 0.308,7.177 0.16,5.718 -0.637,11.461 0.489,17.156 0.106,0.528 -0.032,1.11 -0.087,1.663 -0.584,5.937 -1.155,11.875 -1.792,17.806 -0.068,0.637 -0.371,1.45 -0.845,1.806 -1.522,1.14 -3.127,2.189 -4.788,3.116 -3.462,1.932 -7.297,2.812 -11.154,3.43 -6.688,1.072 -13.409,1.944 -20.118,2.89 -4.454,0.628 -8.925,0.665 -13.361,-0.028 -5.134,-0.802 -10.144,-2.054 -14.897,-4.29 -4.112,-1.935 -8.389,-3.518 -12.512,-5.432 -2.888,-1.341 -5.636,-2.943 -8.159,-4.96 -4.988,-3.988 -9.93,-8.068 -15.207,-11.647 -3.949,-2.68 -7.19,-6.064 -10.534,-9.317 -4.851,-4.719 -9.541,-9.638 -13.674,-15.032 -1.063,-1.388 -2.021,-2.863 -2.95,-4.345 -2.692,-4.295 -3.903,-9.194 -5.552,-13.909 -0.971,-2.776 -1.695,-5.638 -2.626,-8.429 -1.428,-4.285 -1.865,-8.728 -2.191,-13.185 -0.326,-4.455 -0.154,-8.936 -1.034,-13.366 -0.352,-1.772 -0.36,-3.705 -0.068,-5.489 0.413,-2.515 -0.495,-5.323 1.505,-7.517 1.708,-5.239 1.76,-10.46 -0.159,-15.665 -0.104,-0.283 -0.098,-0.615 -0.101,-0.925 -0.046,-3.728 -0.219,-7.461 -0.081,-11.183 0.114,-3.097 0.585,-6.182 0.919,-9.271 0.102,-0.944 0.708,-2.141 0.332,-2.771 -1.063,-1.776 0.228,-3.205 0.127,-4.733 4.528,-1.939 9.219,-0.981 14.087,-1.926 0,2.518 0.169,4.665 -0.031,6.777 -0.623,6.569 1.035,12.837 2.394,19.134 0.67,3.108 1.896,6.098 2.53,9.21 1.2,5.877 4.013,11.079 6.688,16.302 2.388,4.66 5.333,9.036 8.035,13.535 0.247,0.411 0.544,0.794 0.77,1.216 0.595,1.111 1.26,0.26 1.947,0.005 2.193,2.468 4.329,4.945 6.548,7.342 1.515,1.636 3.075,3.245 4.745,4.718 4.329,3.82 9.521,6.343 14.35,9.416 3.119,1.984 6.436,3.457 9.841,4.803 1.334,0.528 2.636,1.135 3.97,1.661 1.326,0.524 2.637,1.172 4.019,1.449 3.436,0.691 6.892,1.342 10.369,1.748 4.5,0.525 9.024,0.882 13.547,1.147 3.107,0.182 6.23,0.145 9.344,0.097 5.266,-0.08 10.543,-0.156 15.712,-1.367 3.032,-0.71 6.065,-1.411 7.85,-4.415 0.315,-0.529 1.069,-0.796 2.059,-1.492 M 142.596,18.41 c 0,-1.11 -0.042,-2.144 0.006,-3.175 0.377,-8.062 0.334,-16.119 0.154,-24.191 -0.198,-8.857 0.025,-17.725 0.168,-26.587 0.087,-5.429 0.357,-10.855 0.56,-16.282 0.318,-8.45 -0.733,-16.883 -0.071,-25.355 0.483,-6.187 -0.177,-12.423 0.34,-18.649 0.361,-4.359 0.07,-8.772 0.081,-13.159 0.01,-3.918 0.107,-7.838 0.036,-11.754 -0.143,-7.891 0.675,-15.841 -1.349,-23.623 -0.742,-2.852 -1.348,-5.757 -2.334,-8.525 -1.388,-3.894 -2.908,-7.759 -4.671,-11.497 -2.172,-4.602 -4.39,-9.222 -7.069,-13.538 -3.192,-5.145 -7.013,-9.882 -11.115,-14.365 -0.644,-0.705 -1.112,-1.632 -1.867,-2.165 -2.666,-1.884 -5.366,-3.734 -8.162,-5.418 -2.183,-1.314 -4.524,-2.367 -6.8,-3.523 -1.403,-0.711 -2.793,-1.458 -4.239,-2.073 -1.096,-0.465 -2.297,-0.677 -3.407,-1.116 -4.866,-1.925 -9.948,-3.02 -15.125,-3.36 -5.32,-0.35 -10.671,-0.205 -16.008,-0.314 -3.913,-0.08 -7.828,-0.366 -11.737,-0.286 -2.933,0.06 -5.858,0.548 -8.786,0.862 -2.162,0.233 -4.211,0.787 -6.126,1.894 -2.488,1.439 -5.056,2.739 -7.58,4.117 -6.952,3.796 -13.779,7.79 -19.849,12.935 -1.579,1.337 -3.207,2.66 -4.546,4.217 -1.022,1.189 -1.616,2.743 -2.413,4.126 -2.869,4.981 -5.802,9.925 -8.6,14.946 -3.272,5.873 -4.667,12.376 -5.909,18.886 -0.868,4.548 -1.53,9.142 -2.123,13.736 -0.941,7.285 -2.055,14.568 -2.515,21.889 -0.385,6.123 -0.025,12.299 0.163,18.447 0.189,6.155 0.551,12.302 -0.358,18.434 -0.257,1.736 -0.453,3.489 -0.532,5.24 -0.32,7.178 -0.572,14.36 -0.884,21.539 -0.047,1.078 -0.276,2.147 -0.421,3.22 h -6.989 c -0.506,-0.98 -1.011,-1.881 -1.445,-2.813 -1.368,-2.937 -2.204,-6.107 -4.449,-8.641 -2.581,-2.915 -4.943,-6.024 -7.372,-9.072 -0.306,-0.385 -0.594,-0.896 -0.627,-1.367 -0.196,-2.794 -0.426,-5.593 -0.427,-8.39 0,-2.705 0.399,-5.41 0.379,-8.113 -0.034,-4.39 -0.326,-8.776 -0.388,-13.166 -0.03,-2.146 0.238,-4.293 0.331,-6.442 0.27,-6.303 0.337,-12.622 0.828,-18.908 0.522,-6.681 1.435,-13.333 2.181,-19.997 0.164,-1.458 0.546,-2.734 1.848,-3.714 0.855,-0.642 1.592,-1.613 2.042,-2.593 1.892,-4.123 3.679,-8.3 4.435,-12.822 0.224,-1.338 0.186,-2.763 0.644,-4.01 0.865,-2.351 0.484,-4.527 -0.256,-6.785 -0.222,-0.677 -0.204,-1.606 0.082,-2.252 1.482,-3.341 3.021,-6.662 4.664,-9.926 2.694,-5.351 5.613,-10.568 9.873,-14.882 1.624,-1.645 3.275,-3.265 4.93,-4.878 3.423,-3.336 6.785,-6.738 10.303,-9.971 6.287,-5.779 13.697,-9.566 21.898,-11.818 6.384,-1.753 12.76,-3.555 19.204,-5.058 4.103,-0.957 8.304,-1.775 12.496,-1.999 5.886,-0.312 11.784,-0.437 17.709,0.285 8.418,1.025 16.788,2.235 24.979,4.411 9.348,2.486 18.505,5.573 27.144,10.003 3.409,1.748 6.787,3.539 9.628,6.214 4.764,4.485 9.632,8.858 14.428,13.308 1.915,1.777 3.732,3.597 5.251,5.805 4.792,6.968 8.364,14.43 10.834,22.538 2.659,8.723 4.482,17.587 5.717,26.594 0.704,5.138 1.402,10.279 1.966,15.433 0.45,4.111 1.21,8.223 0.446,12.392 -0.141,0.77 -0.072,1.593 -0.008,2.384 0.256,3.103 0.647,6.197 0.799,9.303 0.151,3.109 0.351,6.257 0.049,9.341 -0.751,7.646 -0.877,15.31 -0.842,22.971 0.038,8.308 0.139,16.611 -0.388,24.91 -0.181,2.864 -0.255,5.736 -0.36,8.605 -0.141,3.826 -0.191,7.657 -0.418,11.478 -0.255,4.306 -0.72,8.6 -0.99,12.906 -0.25,3.983 -0.397,7.974 -0.53,11.963 -0.193,5.82 -0.373,11.641 -0.483,17.463 -0.085,4.46 -0.094,8.923 -0.065,13.384 0.033,5.352 0.137,10.703 0.218,16.054 0.048,3.191 0.074,6.382 0.178,9.571 0.097,2.945 0.272,5.889 0.438,8.831 0.091,1.635 0.233,3.267 0.355,4.929 -10.476,1.505 -20.653,2.873 -31.265,0.734 -0.765,-8.897 -0.531,-17.84 0.38,-26.815 0.583,0.476 0.917,0.997 1.271,1.504 0.576,0.829 1.416,1.068 2.323,0.797 1.922,-0.575 3.479,-1.83 4.29,-3.571 1.992,-4.276 2.616,-8.848 2.29,-13.555 -0.28,-4.033 -2.413,-6.611 -6.441,-8.086 M 50.174,-91.102 c 1.024,-0.711 1.357,-1.54 1.224,-2.713 -0.055,-0.486 0.428,-1.459 0.738,-1.49 2.496,-0.246 5.043,-0.669 7.4,0.472 v 4.171 c -4.842,0.26 -9.649,-0.423 -14.416,0.853 -0.345,2.462 -0.797,4.903 0.061,7.452 0.754,2.239 -0.05,3.227 -2.4,3.476 -0.299,0.031 -0.613,-0.09 -0.786,-0.118 -1.61,-2.066 -1.452,-4.249 -0.687,-6.44 -0.794,-0.472 -1.385,-0.824 -1.945,-1.156 0,-0.463 -0.003,-0.78 10e-4,-1.097 0.031,-2.606 -0.486,-3.162 -3.152,-3.382 -0.558,-0.046 -1.12,-0.045 -1.676,-0.106 -2.376,-0.261 -4.752,-0.531 -7.124,-0.822 -0.206,-0.025 -0.389,-0.231 -0.637,-0.387 0.105,-0.694 0.206,-1.364 0.332,-2.196 1.418,0 2.695,0.058 3.964,-0.015 1.708,-0.097 2.993,0.315 3.301,2.244 0.014,0.083 0.257,0.128 0.477,0.23 0.111,-0.559 0.218,-1.097 0.325,-1.634 0.322,-1.627 0.299,-1.572 -1.365,-2.275 -0.493,-0.208 -1.105,-0.781 -1.161,-1.247 -0.157,-1.307 -0.346,-2.699 0.713,-4.058 0.988,0.115 2.001,0.223 3.013,0.355 3.068,0.398 4.532,-0.719 4.861,-3.755 0.078,-0.714 0.068,-1.437 0.109,-2.156 0.099,-1.733 -0.026,-1.773 -1.79,-1.856 -2.94,-0.14 -5.895,-0.249 -8.803,-0.656 -3.377,-0.473 -6.666,-0.448 -9.97,0.442 -1.072,0.289 -1.695,0.87 -1.86,1.88 -0.257,1.565 -0.4,3.148 -0.597,4.768 3.019,2.179 6.294,0.255 9.319,0.779 0.656,1.685 0.561,3.438 -0.589,4.364 -1.665,1.341 -1.486,2.995 -1.697,4.765 -1.021,-0.102 -2.048,-0.3 -3.072,-0.279 -1.094,0.021 -2.184,0.25 -3.212,0.379 -0.133,0.431 -0.253,0.653 -0.263,0.88 -0.09,2.006 -0.328,3.936 -1.355,5.763 -0.424,0.756 -0.283,1.854 -0.314,2.8 -0.045,1.335 -0.012,2.674 -0.012,4 -1.364,0.232 -2.704,0.358 -3.986,0.7 -2.625,0.699 -4.728,2.337 -6.57,4.229 -4.597,4.722 -7.701,10.334 -9.462,16.681 -0.177,0.641 -0.133,1.344 -0.171,1.773 -1.646,1.093 -3.298,1.949 -4.651,3.144 -2.083,1.842 -4.016,3.865 -5.901,5.913 -0.926,1.006 -1.992,1.305 -3.208,1.144 -1.292,-0.171 -1.536,-1.171 -1.537,-2.307 0,-0.779 -0.169,-1.559 -0.151,-2.337 0.095,-3.99 0.149,-7.984 0.362,-11.969 0.278,-5.179 0.715,-10.351 1.041,-15.529 0.229,-3.666 0.72,-7.355 0.516,-11.002 -0.693,-12.397 -0.919,-24.78 0.806,-37.1 1.317,-9.405 2.822,-18.79 4.556,-28.126 0.678,-3.653 1.904,-7.284 3.417,-10.685 3.12,-7.011 7.358,-13.423 11.452,-19.897 0.465,-0.737 0.976,-1.501 1.635,-2.048 2.767,-2.294 5.428,-4.779 8.442,-6.699 6.324,-4.03 12.854,-7.736 19.286,-11.598 4.974,-2.987 10.476,-3.846 16.126,-3.807 8.62,0.061 17.24,0.31 25.86,0.504 5.206,0.117 10.303,0.934 15.284,2.479 3.179,0.986 6.272,2.073 9.176,3.81 3.34,1.999 7.05,3.383 10.369,5.409 2.557,1.561 5.118,3.395 7.05,5.644 5.575,6.491 10.411,13.554 14.49,21.089 1.669,3.08 3.193,6.268 4.447,9.537 1.708,4.453 3.131,9.019 4.599,13.561 0.537,1.662 0.956,3.378 1.246,5.1 1.254,7.45 0.537,14.98 0.792,22.472 0.063,1.827 -0.224,3.664 -0.255,5.499 -0.047,2.948 0.024,5.898 -0.024,8.847 -0.089,5.511 -0.242,11.021 -0.341,16.533 -0.075,4.231 -0.096,8.465 -0.169,12.697 -0.02,1.194 -0.217,2.389 -0.196,3.58 0.113,6.537 0.452,13.075 0.367,19.608 -0.125,9.57 -0.577,19.135 -0.82,28.705 -0.133,5.251 -0.125,10.508 -0.172,15.762 -0.003,0.397 0.068,0.793 0.103,1.19 0.14,1.666 0.412,3.334 0.395,4.998 -0.05,5.193 -0.275,10.384 -0.3,15.575 -0.013,3.039 0.051,6.01 -1.467,8.83 -0.566,1.053 -0.492,2.451 -0.72,3.747 h -4.025 c -0.147,-1.627 -0.401,-3.045 -0.372,-4.456 0.041,-1.99 0.422,-3.974 0.431,-5.962 0.024,-5.904 -0.016,-11.809 -0.127,-17.712 -0.049,-2.552 -0.326,-5.1 -0.52,-7.648 -0.234,-3.101 -0.42,-6.208 -0.757,-9.297 -0.298,-2.74 -0.994,-5.436 -0.45,-8.237 0.208,-1.075 0.279,-2.251 0.068,-3.314 -0.417,-2.106 -1.056,-4.17 -1.643,-6.24 -0.127,-0.45 -0.351,-0.909 -0.646,-1.271 -2.404,-2.938 -4.834,-5.853 -7.352,-8.891 0,-0.916 0.171,-2.12 -0.034,-3.258 -0.479,-2.664 -0.958,-5.354 -1.771,-7.927 -0.958,-3.028 -2.1,-6.025 -3.462,-8.893 -2.241,-4.717 -5.851,-8.331 -10.028,-11.379 -0.95,-0.694 -2.011,-1.33 -3.12,-1.692 -2.343,-0.763 -4.751,-1.328 -7.084,-1.962 -0.32,-0.635 -0.474,-1.438 -0.955,-1.782 -0.896,-0.639 -0.877,-1.304 -0.746,-2.266 0.303,-2.243 -0.672,-3.473 -2.885,-3.799 -0.782,-0.116 -1.594,-0.011 -2.391,-0.041 -3.733,-0.139 -7.466,-0.289 -11.352,-0.442 -0.062,-1.297 -0.111,-2.294 -0.169,-3.48 2.589,-0.274 4.899,-0.22 7.157,0.294 0.069,1.229 0.122,2.184 0.176,3.138 0.172,0.033 0.345,0.065 0.518,0.097 0.234,-0.334 0.606,-0.642 0.673,-1.008 0.125,-0.681 -0.016,-1.414 0.118,-2.092 0.153,-0.778 -0.005,-1.292 -0.525,-1.933 -0.43,-0.53 -0.673,-1.459 -0.555,-2.135 0.211,-1.221 0.752,-2.385 1.205,-3.721 1.958,0 3.714,0.057 5.464,-0.016 1.649,-0.069 2.33,-0.938 2.024,-2.497 -0.29,-1.476 -0.662,-2.936 -1.05,-4.632 -1.073,-0.248 -2.217,-0.716 -3.369,-0.741 -3.963,-0.087 -7.907,-0.529 -11.897,-0.132 -3.065,0.306 -6.183,0.061 -9.546,0.061 0.259,1.888 0.434,3.644 0.789,5.363 0.082,0.394 0.734,0.814 1.204,0.955 0.832,0.25 1.725,0.299 2.595,0.424 2.343,0.338 4.689,0.672 7.281,1.043 -0.175,1.976 -0.338,3.815 -0.508,5.735 H 78.43 c -0.094,1.701 -0.184,3.324 -0.279,5.045 -1.559,0.119 -2.971,0.226 -4.456,0.34 -0.925,2.813 -1.754,5.584 -0.691,8.667 -2.235,0.745 -4.311,0.26 -6.808,0.453 1.422,-3.475 0.835,-6.617 0.836,-10.017 -2.126,-0.194 -4.051,-0.369 -5.924,-0.54 v -5.244 c -1.019,-0.407 -1.811,-0.725 -2.734,-1.094 0.329,-1.4 0.634,-2.694 0.944,-4.011 0.967,-0.143 1.825,-0.343 2.688,-0.383 3.577,-0.166 4.285,-2.152 3.795,-5.182 -0.265,-1.639 -0.521,-1.878 -2.165,-1.898 -2.151,-0.027 -4.304,0.045 -6.455,0.115 -2.946,0.096 -5.894,0.179 -8.834,0.37 -1.667,0.109 -2.326,0.741 -2.551,2.312 -0.181,1.262 -0.267,2.548 -0.262,3.824 0.006,1.649 0.308,1.896 2.015,1.92 1.644,0.021 3.289,0.004 4.94,0.004 0.063,1.252 0.228,2.224 -0.784,2.86 -2.101,1.321 -1.749,3.585 -2.08,5.571 -0.034,0.202 0.338,0.471 0.549,0.743 m 88.505,233.434 c -0.278,-10.409 -0.547,-20.552 -0.817,-30.695 0.744,0.122 0.971,0.413 1.246,0.647 1.499,1.275 2.929,1.05 3.957,-0.645 0.328,-0.54 0.667,-1.117 0.801,-1.722 1.021,-4.603 1.642,-9.241 1.568,-13.985 -0.039,-2.526 -1.611,-4.025 -2.931,-5.809 -1,-1.352 -2.348,-1.069 -3.641,-1.236 -0.144,-0.018 -0.274,-0.151 -0.502,-0.283 v -3.019 c 1.176,0.207 2.184,0.199 3.029,0.568 2.472,1.079 5.04,0.642 7.577,0.667 1.033,0.01 2.067,-0.143 3.1,-0.216 3.259,-0.233 6.527,-0.383 9.775,-0.719 2.577,-0.266 5.131,-0.759 7.459,-1.114 -0.227,1.082 -0.61,2.129 -0.639,3.187 -0.093,3.353 -0.12,6.712 -0.043,10.065 0.056,2.393 0.328,4.78 0.488,7.17 0.245,3.654 0.576,7.306 0.683,10.964 0.087,2.947 -0.108,5.903 -0.17,8.854 -0.116,5.67 -0.072,11.349 -0.385,17.008 -0.306,5.58 -0.964,11.14 -1.481,16.708 -0.612,6.59 -1.623,13.127 -2.511,19.681 -0.483,3.571 -1.36,7.008 -2.087,10.493 -1.025,4.917 -2.229,9.801 -3.505,14.66 -1.069,4.075 -2.222,8.139 -3.575,12.127 -1.228,3.622 -2.735,7.151 -4.195,10.691 -2.108,5.111 -5.178,9.693 -8.448,14.079 -2.849,3.821 -6.259,7.222 -9.386,10.839 -2.459,2.846 -5.006,5.584 -8.062,7.818 -2.319,1.695 -4.572,3.48 -6.854,5.225 -3.035,2.322 -5.798,5.016 -9.22,6.809 -5.083,2.664 -9.489,6.433 -14.791,8.778 -3.855,1.705 -7.48,3.927 -11.222,5.894 -3.028,1.592 -6.009,3.3 -9.133,4.678 -3.55,1.566 -7.157,3.106 -10.883,4.135 -3.747,1.034 -7.654,1.568 -11.524,2.07 -8.388,1.09 -16.778,2.229 -25.274,2.124 -3.267,-0.04 -6.557,0.368 -9.798,0.106 -6.527,-0.53 -13.071,-1.115 -19.529,-2.167 -7.259,-1.184 -14.28,-3.437 -21.17,-6.026 -5.146,-1.933 -10.25,-3.983 -15.379,-5.962 -2.009,-0.775 -4.17,-1.261 -6.031,-2.295 -4.882,-2.712 -9.724,-5.519 -14.399,-8.569 -1.816,-1.186 -3.155,-3.11 -4.681,-4.727 -0.516,-0.547 -0.846,-1.295 -1.416,-1.764 -4.046,-3.333 -8.255,-6.444 -11.61,-10.578 -6.29,-7.751 -12.545,-15.508 -17.137,-24.442 -2.366,-4.603 -4.658,-9.246 -7.103,-13.807 -2.322,-4.33 -3.276,-9.136 -4.993,-13.674 -0.14,-0.371 -0.194,-0.775 -0.277,-1.166 -0.914,-4.279 -1.81,-8.563 -2.746,-12.838 -0.341,-1.556 -0.846,-3.078 -1.155,-4.64 -0.806,-4.057 -1.602,-8.118 -2.296,-12.196 -0.882,-5.189 -2.098,-10.373 -2.371,-15.602 -0.346,-6.598 0.108,-13.239 0.244,-19.861 0.009,-0.42 0.262,-0.834 0.398,-1.24 2.371,0.287 4.569,0.577 6.773,0.814 5.716,0.615 11.426,1.316 17.156,1.768 3.805,0.301 7.673,0.588 11.452,0.232 4.264,-0.401 8.463,-1.52 12.685,-2.35 0.839,-0.165 1.658,-0.433 2.818,-0.741 0.208,1.901 0.429,3.597 0.569,5.301 0.13,1.591 0.128,3.194 0.265,4.785 0.253,2.943 0.776,5.879 0.802,8.821 0.04,4.415 0.306,8.81 1.231,13.103 0.818,3.795 2.079,7.497 3.209,11.221 0.463,1.525 1.274,2.959 1.619,4.503 0.992,4.426 3.19,8.338 5.158,12.33 2.65,5.374 6.897,9.561 10.974,13.839 2.641,2.77 5.542,5.306 8.039,8.197 2.492,2.885 5.578,4.995 8.533,7.273 4.862,3.747 9.97,7.181 14.762,11.012 4.63,3.7 10.12,5.732 15.225,8.511 0.137,0.074 0.307,0.086 0.455,0.143 2.008,0.771 4.028,1.513 6.019,2.324 5.191,2.116 10.494,3.859 16.107,4.329 6.313,0.529 12.603,0.363 18.824,-1.066 2.173,-0.5 4.397,-0.787 6.601,-1.15 4.171,-0.688 8.394,-1.149 12.5,-2.108 3.074,-0.718 6.197,-1.616 8.588,-4.009 0.691,-0.691 1.698,-1.066 2.486,-1.542 0.323,0.291 0.506,0.375 0.546,0.504 1.2,3.895 3.81,6.783 6.801,9.354 1.952,1.679 4.158,2.992 6.762,3.408 1.095,0.175 2.252,0.035 3.325,0.279 6.863,1.564 13.526,0.566 20.017,-1.708 4.112,-1.441 7.386,-4.129 9.326,-8.133 0.966,-1.993 1.662,-4.118 2.453,-6.194 0.682,-1.787 1.287,-3.604 2,-5.378 0.338,-0.843 0.228,-1.346 -0.818,-1.674 -0.977,2.642 -2.049,5.198 -2.87,7.832 -2.033,6.531 -6.513,10.513 -12.936,12.257 -3.126,0.848 -6.407,1.328 -9.645,1.514 -4.059,0.233 -8.237,-0.017 -12.059,-1.344 -5.744,-1.994 -11.061,-7.247 -11.553,-15.056 -0.115,-1.833 0.043,-3.815 0.957,-5.563 h 8.629 c 0.149,0.453 0.305,1.148 0.599,1.779 2.479,5.326 5.832,9.693 12.098,10.76 0.861,0.147 1.765,0.088 2.606,0.297 6.402,1.595 12.514,-2.834 14.69,-8.361 0.627,-1.593 0.963,-3.301 1.465,-5.067 3.341,0.144 6.658,0.288 9.878,0.427 1.862,-4.935 2.277,-9.814 1.5,-14.642 -0.458,-2.846 -0.81,-5.643 -0.865,-8.516 -0.101,-5.164 -0.302,-10.327 -0.515,-15.488 -0.16,-3.885 -0.717,-7.771 0.196,-11.638 0.055,-0.228 0.082,-0.486 0.033,-0.711 -0.447,-2.043 0.39,-3.761 1.37,-5.436 0.603,-1.031 1.324,-2 1.868,-3.061 1.097,-2.139 2.06,-4.349 1.787,-6.84 -0.174,-1.581 -0.446,-3.129 0.23,-4.677 0.411,-0.939 0.702,-1.932 0.996,-2.917 0.155,-0.517 0.203,-1.066 0.299,-1.601 l -0.621,-0.152 c -0.554,1.356 -1.107,2.712 -1.711,4.189 -0.787,0.039 -1.544,0.077 -2.591,0.129 0.21,-2.075 0.397,-3.912 0.587,-5.797 1.842,0.319 3.33,0.576 4.989,0.863 0.877,3.313 3.311,5.246 6.297,6.647 4.57,2.144 8.701,0.86 10.201,-3.912 0.786,-2.499 1.575,-5.056 1.847,-7.641 0.267,-2.52 0.035,-5.274 -2.022,-7.12 -2.066,-1.853 -4.434,-3.376 -6.711,-4.984 -1.531,-1.081 -3.188,-0.989 -4.756,-0.088 -1.442,0.829 -2.809,1.791 -4.484,2.872 M 93.713,-41.349 c 3.663,1.073 7.312,2.2 10.995,3.203 3.522,0.959 7.192,1.562 9.359,4.582 -0.233,0.968 -0.505,1.793 -0.614,2.64 -0.121,0.946 -0.089,1.911 -0.131,2.868 -0.161,3.742 -0.385,7.482 -0.475,11.225 -0.119,5.024 -0.181,10.051 -0.185,15.076 -0.004,5.341 0.048,10.684 0.154,16.024 0.075,3.749 0.4,7.495 0.401,11.242 0.002,5.343 -0.16,10.687 -0.333,16.028 -0.028,0.833 -0.499,1.647 -0.731,2.479 -0.295,1.06 -0.768,2.125 -0.792,3.195 -0.068,3.183 0.027,6.372 0.105,9.557 0.017,0.696 0.007,1.57 0.394,2.05 1.554,1.918 1.47,4.156 1.439,6.368 -0.05,3.426 -0.402,6.857 -0.278,10.274 0.08,2.174 0.055,4.252 -0.526,6.358 -0.272,0.989 -0.15,2.086 -0.218,3.324 -5.078,5.35 -10.819,10.161 -18.714,12.458 0,-1.25 -0.025,-2.257 0.004,-3.264 0.098,-3.411 0.189,-6.824 0.333,-10.234 0.118,-2.774 0.204,-5.53 0.085,-8.324 -0.207,-4.906 0.083,-9.835 0.18,-14.754 0.031,-1.578 0.114,-3.155 0.163,-4.733 0.068,-2.143 0.193,-4.286 0.169,-6.428 -0.043,-3.967 -0.35,-7.937 -0.229,-11.897 0.151,-4.99 0.898,-9.972 0.87,-14.955 C 95.11,18.344 96.29,13.69 95.303,9.02 95.271,8.867 95.291,8.702 95.294,8.542 c 0.083,-4.855 0.234,-9.71 0.233,-14.565 -0.002,-4.781 -0.164,-9.562 -0.242,-14.343 -0.032,-1.95 -0.072,-3.903 -0.032,-5.853 0.067,-3.264 0.219,-6.527 0.278,-9.792 0.01,-0.531 -0.248,-1.075 -0.426,-1.598 -0.432,-1.272 -0.89,-2.534 -1.346,-3.791 -1.603,0.558 -1.189,1.56 -0.633,2.663 2.454,4.868 1.38,9.89 0.893,14.706 -1.873,0.208 -3.44,0.399 -5.011,0.55 -0.633,0.06 -1.275,0.053 -1.91,0.041 -1.06,-0.022 -1.553,-0.569 -1.631,-1.642 -0.186,-2.537 -0.624,-5.071 -0.608,-7.605 0.015,-2.196 -0.288,-4.032 -2.19,-5.406 -0.724,-0.522 -1.143,-1.408 -0.725,-2.347 0.508,-1.142 0.986,-2.345 1.748,-3.306 0.408,-0.515 1.522,-0.97 2.083,-0.775 2.69,0.93 5.3,2.092 7.938,3.172 m -90.354,8.232 c -0.055,0.706 -0.141,1.411 -0.161,2.117 -0.116,4.287 -0.19,8.575 -0.34,12.861 -0.041,1.174 -0.292,2.34 -0.463,3.634 -2.735,0.2 -5.377,0.394 -8.209,0.601 0.96,-6.271 1.881,-12.279 2.801,-18.278 2.364,-0.32 4.4,-0.595 6.436,-0.871 2.505,-0.941 4.949,-2.121 7.777,-1.4 0.992,0.253 2.051,0.305 3.082,0.333 1.818,0.051 3.711,0.814 5.7,-1.056 -1.153,3.613 -2.017,6.652 -1.596,10.197 0.394,-0.45 0.557,-0.553 0.591,-0.689 0.092,-0.38 0.188,-0.773 0.183,-1.16 -0.065,-5.449 2.493,-9.833 5.772,-13.857 2.374,-2.914 6.694,-3.347 9.419,-1.26 1.762,1.35 1.725,3.191 1.808,4.981 -0.987,0.684 -1.859,1.244 -2.685,1.867 -3.912,2.95 -3.898,2.956 -4.559,7.815 -0.146,1.073 -0.383,2.135 -0.611,3.388 -2.939,0 -5.65,-0.056 -8.358,0.019 -2.175,0.061 -3.262,1.54 -2.427,3.491 0.473,1.108 0.496,2.134 0.407,3.229 -0.142,1.752 -0.469,3.498 -0.484,5.248 -0.057,6.792 -0.105,13.587 0.006,20.378 0.072,4.39 0.654,8.778 0.605,13.161 -0.091,8.227 -0.582,16.45 -0.676,24.677 -0.035,3.055 -0.397,5.796 -2.428,8.221 -0.554,0.663 -0.98,1.16 -1.864,1.231 C 10.221,55.99 7.361,56.278 4.495,56.49 4.074,56.521 3.631,56.262 3.039,56.09 2.867,43.905 2.696,31.812 2.526,19.766 4.513,18.807 4.784,18.448 4.816,16.481 4.862,13.605 4.832,10.728 4.906,7.854 4.924,7.181 5.071,6.41 5.432,5.865 7.145,3.278 7.553,0.376 7.575,-2.605 7.595,-5.104 6.751,-5.988 4.199,-6.298 c 0,-0.761 0.017,-1.544 -0.004,-2.327 -0.044,-1.673 -0.106,-3.345 -0.162,-5.018 -0.042,-1.268 -0.135,-2.536 -0.12,-3.804 0.056,-4.857 0.163,-9.714 0.19,-14.572 0.001,-0.364 -0.485,-0.732 -0.744,-1.098 M 42.441,4.144 C 42.213,5.197 42.086,6.288 41.718,7.29 41.505,7.874 40.934,8.692 40.475,8.725 39.932,8.763 39.115,8.196 38.813,7.666 38.314,6.792 38.148,5.731 37.813,4.758 37.619,4.193 37.371,3.646 37.18,3.173 c 0.39,-1.016 0.795,-2.105 1.226,-3.183 0.45,-1.124 0.328,-2.584 1.757,-3.143 1.311,0.472 1.272,1.533 1.257,2.589 -0.024,1.68 -0.012,3.354 1.058,4.794 -0.08,-1.828 -0.227,-3.656 -0.215,-5.483 0.009,-1.443 -0.227,-2.775 -1.545,-3.501 -0.786,-0.432 -0.935,-1.024 -1.016,-1.732 -0.099,-0.871 -0.204,-1.751 -0.188,-2.625 0.062,-3.269 0.162,-6.538 0.275,-9.807 0.019,-0.528 0.175,-1.052 0.262,-1.54 2.287,0.095 4.423,0.141 6.553,0.284 2.638,0.178 3.125,0.749 3.073,3.449 -0.055,2.793 -0.039,5.594 -0.253,8.375 -0.101,1.308 -0.4,2.746 -1.078,3.83 -1.259,2.013 -1.406,3.968 -0.76,6.168 0.352,1.205 0.606,2.499 0.569,3.744 -0.045,1.511 0.244,2.818 0.996,3.711 -0.106,1.175 -0.255,2.086 -0.26,2.999 -0.012,2.633 0.09,5.268 0.037,7.9 -0.034,1.639 -0.311,1.921 -1.942,2.159 -1.573,0.23 -3.167,0.337 -4.756,0.433 -1.029,0.062 -1.655,-0.482 -1.797,-1.52 -0.474,-3.466 -0.944,-6.931 -0.458,-10.264 0.771,-0.649 1.778,-1.08 1.979,-1.751 0.467,-1.561 1.163,-3.185 0.487,-4.915 M 18.039,-296.755 c -2.882,1.473 -5.499,3.304 -7.528,5.825 -2.503,3.11 -4.895,6.308 -7.36,9.449 -1.479,1.883 -2.899,3.831 -4.532,5.575 -4.502,4.807 -7.977,10.361 -11.807,15.67 -4.652,6.446 -8.432,13.365 -11.937,20.44 -2.54,5.129 -4.708,10.442 -6.102,16.039 -1.08,4.339 -2.399,8.62 -3.414,12.973 -0.761,3.264 -1.089,6.63 -1.817,9.904 -1.902,8.566 -3.281,17.246 -5.629,25.711 -0.136,0.49 -0.458,1.124 -0.867,1.31 -2.185,0.99 -3.056,3.059 -3.903,4.97 -1.799,4.053 -2.63,8.45 -2.682,12.822 -0.034,2.912 0.131,6.113 2.148,8.258 -1.101,12.523 -2.256,24.756 -3.232,37.004 -0.975,12.235 -1.111,24.508 -1.001,36.848 -2.996,-0.502 -5.605,-0.79 -8.141,-1.391 -6.545,-1.551 -13.186,-2.395 -19.864,-3.041 -3.975,-0.383 -7.941,-0.871 -11.919,-1.201 -4.603,-0.382 -9.22,-0.585 -13.821,-0.973 -3.257,-0.273 -6.498,-0.736 -9.75,-1.087 -1.338,-0.145 -2.686,-0.199 -4.026,-0.33 -3.966,-0.392 -7.928,-0.838 -11.898,-1.176 -0.926,-0.079 -1.881,0.273 -2.822,0.273 -7.514,10e-4 -15.029,-0.021 -22.543,-0.08 -1.029,-0.008 -2.054,-0.313 -3.087,-0.381 -0.864,-0.056 -1.8,-0.162 -2.597,0.093 -4.15,1.326 -8.395,0.522 -12.577,0.503 -1.475,-0.006 -2.94,-1.397 -4.418,-2.14 -0.77,-0.386 -1.55,-0.758 -2.338,-1.107 -0.942,-0.417 -1.895,-0.808 -2.847,-1.201 -1.31,-0.541 -2.623,-1.073 -3.934,-1.612 -0.293,-0.12 -0.631,-0.196 -0.862,-0.393 -2.135,-1.825 -4.655,-2.728 -7.379,-3.184 -0.386,-0.064 -0.895,-0.155 -1.1,-0.423 -1.324,-1.721 -3.042,-1.07 -4.618,-0.737 -1.874,0.397 -2.956,1.817 -3.662,3.511 -2.405,5.76 -3.548,11.708 -3.175,17.998 0.274,4.62 1.802,8.595 5.079,11.789 1.093,1.066 2.64,1.712 4.058,2.388 0.875,0.417 1.806,0.115 2.214,-0.843 0.458,-1.076 1.299,-1.188 2.292,-1.373 1.072,-0.2 2.23,-0.527 3.09,-1.154 1.616,-1.177 3.399,-1.738 5.3,-2.077 3.606,-0.642 6.681,-2.55 9.878,-4.159 0.384,-0.193 0.621,-0.681 0.66,-0.725 15.733,-1.269 31.146,-0.841 46.69,-0.217 0.314,2.707 0.605,5.225 0.899,7.744 0.657,5.634 1.43,11.257 1.942,16.903 0.49,5.405 0.729,10.833 1.046,16.253 0.438,7.479 0.91,14.956 1.558,22.418 0.593,6.835 1.028,13.668 1.161,20.532 0.145,7.501 0.675,14.993 0.969,22.491 0.192,4.87 0.254,9.745 0.39,14.617 0.205,7.326 0.393,14.653 0.645,21.977 0.234,6.771 0.518,13.54 0.834,20.308 0.082,1.75 0.452,3.487 0.54,5.238 0.242,4.856 0.483,9.714 0.56,14.574 0.027,1.729 -0.52,3.459 -0.631,5.199 -0.305,4.784 -0.47,9.577 0.901,14.253 0.33,1.126 0.681,2.281 1.931,2.876 0.301,0.144 0.48,0.777 0.515,1.201 0.078,0.951 0.088,1.916 0.025,2.869 -0.462,6.957 -0.37,13.915 0.454,20.827 0.488,4.104 1.002,8.211 2.097,12.253 1.096,4.047 1.549,8.266 2.34,12.399 0.569,2.976 1.102,5.969 1.877,8.894 1.733,6.549 3.061,13.235 5.646,19.517 1.847,4.489 4.094,8.816 6.224,13.186 1.504,3.083 3.039,6.154 4.686,9.161 2.809,5.129 6.139,9.908 9.956,14.347 1.037,1.205 2.077,2.435 2.918,3.777 2.321,3.709 5.633,6.499 8.72,9.478 2.271,2.191 4.316,4.573 6.495,6.836 2.877,2.988 6.021,5.699 9.861,7.48 1.295,0.601 2.456,1.487 3.7,2.205 1.649,0.951 3.243,2.054 4.995,2.759 4.879,1.961 9.835,3.728 14.744,5.617 2.606,1.003 5.126,2.254 7.773,3.126 6.73,2.218 13.366,4.81 20.43,5.841 7.403,1.079 14.806,2.192 22.333,1.957 2.11,-0.066 4.229,0.18 6.346,0.208 1.409,0.018 2.822,-0.066 4.23,-0.157 4.937,-0.317 9.896,-0.455 14.799,-1.047 4.42,-0.534 8.781,-1.559 13.162,-2.4 2.656,-0.51 5.369,-0.865 7.932,-1.68 3.48,-1.106 6.916,-2.424 10.237,-3.944 4.498,-2.058 8.897,-4.339 13.287,-6.624 4.594,-2.39 9.16,-4.84 13.671,-7.384 1.936,-1.092 3.703,-2.48 5.538,-3.746 4.058,-2.802 8.181,-5.516 12.139,-8.451 3.009,-2.231 5.784,-4.774 8.699,-7.134 4.62,-3.741 8.223,-8.453 12.24,-12.767 0.917,-0.985 1.605,-2.188 2.368,-3.31 2.462,-3.622 5.178,-7.106 7.288,-10.924 2.022,-3.66 4.102,-7.359 4.787,-11.66 0.318,-2.004 1.504,-3.854 2.111,-5.831 1.098,-3.577 2.139,-7.175 3.056,-10.802 1.58,-6.253 3.315,-12.484 4.487,-18.817 1.26,-6.807 1.973,-13.717 2.87,-20.589 0.609,-4.669 1.179,-9.346 1.666,-14.029 0.273,-2.621 0.314,-5.266 0.509,-7.896 0.731,-9.884 0.813,-19.782 0.532,-29.679 -0.143,-5.097 -0.673,-10.183 -0.876,-15.28 -0.142,-3.583 -0.027,-7.175 -0.027,-10.875 2.237,-0.836 3.069,-2.414 2.843,-4.675 -0.188,-1.898 -0.223,-3.812 -0.288,-5.721 -0.064,-1.911 -0.08,-3.825 -0.122,-5.738 -0.008,-0.399 0.031,-0.816 -0.07,-1.193 -1.751,-6.573 -2.232,-12.725 -1.814,-19.031 0.173,-2.613 -0.192,-5.259 -0.28,-7.891 -0.137,-4.134 -0.314,-8.269 -0.351,-12.405 -0.044,-4.773 0.445,-9.533 -0.167,-14.326 -0.337,-2.637 0.024,-5.367 0.122,-8.054 0.186,-5.107 0.357,-10.217 0.635,-15.32 0.2,-3.667 0.602,-7.323 0.842,-10.988 0.213,-3.26 0.314,-6.527 0.488,-9.791 0.279,-5.263 0.65,-10.523 0.845,-15.789 0.193,-5.181 0.274,-10.367 0.296,-15.552 0.029,-6.622 -0.163,-13.247 -0.044,-19.866 0.084,-4.611 0.617,-9.212 0.794,-13.824 0.244,-6.389 0.262,-12.779 -0.461,-19.154 -0.175,-1.549 0.121,-3.147 0.026,-4.713 -0.253,-4.142 -0.775,-8.276 -0.872,-12.42 -0.137,-5.861 -1.329,-11.559 -2.19,-17.314 -0.624,-4.178 -0.854,-8.435 -1.782,-12.54 -1.087,-4.808 -2.829,-9.463 -4.128,-14.229 -2.243,-8.231 -6.84,-15.226 -11.424,-22.243 -0.694,-1.062 -1.346,-1.907 -2.693,-2.47 -1.542,-0.646 -2.765,-2.115 -4.047,-3.311 -3.027,-2.821 -6.001,-5.701 -9.012,-8.541 -1.44,-1.358 -2.875,-2.727 -4.389,-3.999 -1.095,-0.919 -2.236,-1.846 -3.497,-2.492 -3.833,-1.965 -7.723,-3.821 -11.614,-5.673 -5.498,-2.614 -11.287,-4.396 -17.113,-6.123 -6.604,-1.958 -13.322,-3.348 -20.103,-4.372 -5.986,-0.904 -11.982,-1.994 -18.087,-1.755 -4.065,0.158 -8.172,0.056 -12.179,0.63 -4.712,0.676 -9.362,1.853 -13.99,3.005 -5.574,1.386 -11.12,2.894 -16.628,4.514 -2.053,0.605 -3.955,1.709 -5.95,2.528 -4.54,1.861 -8.734,4.238 -12.092,7.9 -3.183,1.294 -4.898,4.492 -7.867,6.075 -0.31,0.166 -0.451,0.625 -0.717,0.904 -1.373,1.434 -2.744,2.872 -4.149,4.275 -2.566,2.564 -5.345,4.87 -7.574,7.82 -4.795,6.348 -8.075,13.503 -11.487,20.588 -0.804,1.668 -1.221,3.413 -3.129,4.226 -0.38,0.161 -0.684,0.694 -0.853,1.122 -1.402,3.551 -3.26,6.953 -3.527,10.879 -0.042,0.62 -0.289,1.243 -0.528,1.829 -1.291,3.153 -1.681,6.47 -1.782,9.831 -0.021,0.69 0.091,1.46 0.39,2.071 0.704,1.439 0.812,2.916 0.583,4.445 -0.922,6.14 -1.954,12.266 -2.758,18.422 -0.423,3.235 -0.539,6.516 -0.653,9.782 -0.128,3.641 -0.098,7.288 -0.135,10.932 -0.087,8.524 -0.3,17.05 -0.19,25.572 0.039,3.082 -0.077,6.092 -0.56,9.286 -2.444,-1.508 -4.728,-2.916 -7.15,-4.411 1.156,-4.302 0.296,-8.816 0.403,-13.307 0.148,-6.226 0.382,-12.454 0.81,-18.665 0.641,-9.322 1.489,-18.63 2.237,-27.945 0.224,-2.785 0.35,-5.577 0.627,-8.355 0.277,-2.774 0.764,-5.479 2.402,-7.892 0.642,-0.947 0.817,-2.22 1.158,-3.358 0.206,-0.686 0.281,-1.412 0.489,-2.098 0.863,-2.842 1.438,-5.721 1.339,-8.716 -0.021,-0.627 0.115,-1.283 0.294,-1.891 0.739,-2.505 0.855,-4.959 0.137,-7.536 -0.295,-1.059 0.156,-2.362 0.401,-3.527 1.017,-4.839 2.164,-9.652 3.116,-14.502 1.429,-7.287 2.719,-14.602 4.103,-21.898 0.312,-1.643 0.705,-3.278 1.174,-4.884 1.769,-6.054 3.528,-12.13 6.455,-17.75 2.875,-5.521 5.871,-10.983 8.958,-16.389 4.163,-7.29 9.202,-13.948 14.753,-20.252 2.947,-3.348 5.382,-7.141 8.274,-10.541 2.883,-3.392 5.216,-7.3 8.853,-10.002 1.388,-1.03 2.984,-1.794 4.532,-2.586 0.349,-0.178 0.923,-0.043 1.352,0.086 1.798,0.54 3.414,-0.116 4.331,-1.818 0.8,-1.481 0.219,-3.038 -1.421,-4.256 -3.917,-2.913 -8.42,-4.212 -13.166,-4.657 -8.102,-0.757 -16.229,-1.25 -24.328,-2.043 -4.764,-0.465 -9.489,-1.313 -14.237,-1.959 -2.134,-0.29 -4.275,-0.544 -6.42,-0.744 -6.995,-0.655 -13.989,-1.345 -20.993,-1.894 -6.281,-0.492 -12.574,-0.825 -18.862,-1.21 -4.379,-0.269 -8.756,-0.597 -13.14,-0.736 -4.632,-0.147 -9.27,-0.076 -13.905,-0.145 -5.183,-0.078 -10.364,-0.271 -15.547,-0.291 -3.105,-0.013 -6.21,0.201 -9.314,0.325 -4.225,0.171 -8.454,0.276 -12.671,0.55 -5.336,0.346 -10.659,0.884 -15.993,1.242 -4.852,0.326 -9.712,0.519 -14.569,0.782 -0.546,0.03 -1.09,0.128 -1.633,0.208 -3.224,0.477 -6.446,0.97 -9.673,1.433 -3.393,0.486 -6.817,0.804 -10.181,1.445 -4.938,0.944 -9.84,2.08 -14.745,3.189 -3.89,0.878 -7.762,1.833 -11.639,2.766 -0.464,0.113 -0.914,0.29 -1.365,0.454 -1.654,0.602 -2.078,1.183 -1.885,2.561 0.231,1.641 1.038,2.403 2.588,2.609 0.676,0.09 1.521,0.179 1.955,0.608 3.59,3.539 8.213,5.498 12.369,8.155 3.088,1.974 6.345,3.697 9.595,5.4 4.86,2.547 9.071,5.982 13.108,9.607 3.799,3.409 7.592,6.885 10.932,10.726 2.702,3.109 4.772,6.777 7.035,10.252 1.173,1.802 2.197,3.704 3.221,5.598 2.926,5.41 5.535,10.968 7.607,16.766 1.555,4.353 3.371,8.635 4.586,13.082 1.935,7.083 3.66,14.235 5.119,21.43 1.855,9.153 3.409,18.367 4.984,27.573 0.646,3.772 0.98,7.596 1.504,11.39 0.732,5.293 1.517,10.579 2.262,15.87 0.122,0.869 0.161,1.748 0.235,2.623 0.289,3.423 0.597,6.843 0.86,10.268 0.409,5.332 0.856,10.662 1.145,16.001 0.121,2.22 -0.25,4.463 -0.167,6.686 0.09,2.386 0.575,4.757 0.666,7.143 0.159,4.145 0.127,8.297 0.226,12.445 0.019,0.792 0.268,1.58 0.412,2.37 0.208,0.014 0.416,0.028 0.625,0.041 0.252,-0.857 0.744,-1.723 0.713,-2.57 -0.13,-3.575 -0.463,-7.142 -0.638,-10.717 -0.462,-9.48 -0.772,-18.968 -1.355,-28.441 -0.363,-5.89 -1.058,-11.763 -1.707,-17.632 -0.64,-5.788 -1.372,-11.567 -2.141,-17.34 -0.346,-2.601 -0.898,-5.174 -1.326,-7.765 -0.949,-5.742 -1.847,-11.492 -2.83,-17.227 -0.526,-3.068 -1.158,-6.119 -1.791,-9.167 -0.953,-4.596 -2.007,-9.171 -2.915,-13.775 -1.21,-6.136 -3.144,-12.039 -5.41,-17.853 -0.983,-2.521 -1.689,-5.154 -2.746,-7.64 -2.049,-4.817 -3.835,-9.752 -6.849,-14.13 -1.527,-2.218 -2.522,-4.795 -3.912,-7.118 -2.645,-4.423 -5.46,-8.728 -9.269,-12.289 -2.505,-2.34 -4.859,-4.847 -7.414,-7.129 -4.758,-4.249 -9.776,-8.133 -15.493,-11.083 -4.531,-2.339 -8.944,-4.914 -13.355,-7.477 -1.72,-0.999 -3.304,-2.235 -4.919,-3.406 -0.359,-0.26 -0.588,-0.699 -1.109,-1.344 2.122,-0.426 3.979,-0.776 5.827,-1.173 5.459,-1.172 10.88,-2.564 16.38,-3.494 7.159,-1.21 14.361,-2.216 21.577,-3.02 8.253,-0.919 16.535,-1.635 24.82,-2.224 6.847,-0.487 13.715,-0.792 20.578,-0.934 5.502,-0.113 11.012,0.193 16.519,0.212 3.266,0.012 6.536,-0.3 9.799,-0.233 5.408,0.11 10.81,0.461 16.218,0.612 6.15,0.172 12.309,0.116 18.455,0.388 4.536,0.2 9.058,0.758 13.585,1.173 5.163,0.473 10.325,0.949 15.485,1.455 4.841,0.473 9.684,0.936 14.515,1.498 7.528,0.876 15.053,1.777 22.565,2.777 3.539,0.471 7.058,1.126 10.558,1.833 1.687,0.341 3.31,0.996 4.963,1.509 0.006,0.177 0.013,0.354 0.021,0.532"
             style="fill:#000000;fill-opacity:1;fill-rule:nonzero;stroke:none"
             id="path22"
             inkscape:connector-curvature="0" /></g></g></g></g></svg>