<?xml version="1.0" encoding="UTF-8" standalone="no"?>
<!-- Created with Inkscape (http://www.inkscape.org/) -->

<svg
   xmlns:dc="http://purl.org/dc/elements/1.1/"
   xmlns:cc="http://creativecommons.org/ns#"
   xmlns:rdf="http://www.w3.org/1999/02/22-rdf-syntax-ns#"
   xmlns:svg="http://www.w3.org/2000/svg"
   xmlns="http://www.w3.org/2000/svg"
   xmlns:sodipodi="http://sodipodi.sourceforge.net/DTD/sodipodi-0.dtd"
   xmlns:inkscape="http://www.inkscape.org/namespaces/inkscape"
   version="1.1"
   id="svg2"
   xml:space="preserve"
   width="736"
   height="816"
   viewBox="0 0 736 816"
   sodipodi:docname="Viola.svg"
   inkscape:version="0.92.4 (5da689c313, 2019-01-14)"><metadata
     id="metadata8"><rdf:RDF><cc:Work
         rdf:about=""><dc:format>image/svg+xml</dc:format><dc:type
           rdf:resource="http://purl.org/dc/dcmitype/StillImage" /><dc:title></dc:title></cc:Work></rdf:RDF></metadata><defs
     id="defs6"><clipPath
       clipPathUnits="userSpaceOnUse"
       id="clipPath18"><path
         d="M 0,612 H 552 V 0 H 0 Z"
         id="path16"
         inkscape:connector-curvature="0" /></clipPath></defs><sodipodi:namedview
     pagecolor="#ffffff"
     bordercolor="#666666"
     borderopacity="1"
     objecttolerance="10"
     gridtolerance="10"
     guidetolerance="10"
     inkscape:pageopacity="0"
     inkscape:pageshadow="2"
     inkscape:window-width="640"
     inkscape:window-height="480"
     id="namedview4"
     showgrid="false"
     inkscape:zoom="0.28921569"
     inkscape:cx="-1.9661017"
     inkscape:cy="408"
     inkscape:window-x="0"
     inkscape:window-y="0"
     inkscape:window-maximized="0"
     inkscape:current-layer="g10" /><g
     id="g10"
     inkscape:groupmode="layer"
     inkscape:label="Viola"
     transform="matrix(1.3333333,0,0,-1.3333333,0,816)"><g
       id="g12"><g
         id="g14"
         clip-path="url(#clipPath18)"><g
           id="g20"
           transform="translate(279.999,183.916)"><path
             d="m 0,0 -0.211,-0.357 c 0.385,-0.741 -0.185,-2.005 1.003,-2.215 0.969,-0.171 2.044,0.17 3.052,0.379 0.26,0.053 0.618,0.464 0.62,0.714 0.003,0.278 -0.308,0.751 -0.556,0.805 C 2.618,-0.391 1.305,-0.214 0,0 m -37.55,-2.406 c 0.748,-0.19 1.52,-0.035 1.503,0.983 -0.016,0.879 -0.331,1.755 -0.545,2.625 -0.026,0.106 -0.236,0.202 -0.377,0.236 -0.776,0.184 -1.943,-0.64 -2.033,-1.42 -0.23,-1.995 -0.033,-2.349 1.452,-2.424 m 0.77,389.293 c -1.513,0.194 -3.117,-0.409 -3.115,-1.168 0.006,-1.624 0.155,-3.248 0.257,-4.872 0.013,-0.197 0.103,-0.389 0.158,-0.582 0.141,0.076 0.282,0.152 0.423,0.229 0.747,2.098 1.494,4.195 2.277,6.393 m 31.277,-8.327 c 0.13,0.022 0.259,0.044 0.389,0.066 0.052,0.257 0.165,0.52 0.146,0.771 -0.195,2.456 -0.344,4.918 -0.678,7.356 -0.07,0.511 -0.776,1.052 -1.315,1.349 -0.566,0.31 -1.01,0.07 -0.84,-0.732 0.365,-1.718 0.642,-3.457 1.071,-5.158 0.313,-1.241 0.812,-2.436 1.227,-3.652 m -4.536,-28.781 c 1.785,0.304 3.447,0.638 5.123,0.859 1.846,0.243 2.274,0.899 1.62,2.87 -1.469,-0.116 -2.967,-0.222 -4.462,-0.358 -0.789,-0.072 -1.942,0.072 -2.264,-0.368 -0.4,-0.546 -0.113,-1.597 -0.112,-2.43 0,-0.152 0.049,-0.305 0.095,-0.573 M -29.78,-2.23 c 0.169,0 0.647,-0.004 1.125,10e-4 1.869,0.02 1.866,0.021 1.909,1.897 0.005,0.195 0.056,0.398 0.128,0.581 0.313,0.799 -0.01,1.105 -0.803,1.121 -1.893,0.038 -3.786,0.119 -5.68,0.134 -0.681,0.006 -1.363,-0.131 -2.045,-0.203 0.134,-0.727 0.083,-1.575 0.457,-2.144 0.352,-0.537 0.086,-1.671 1.264,-1.58 1.11,0.085 2.224,0.12 3.645,0.193 m 17.91,2.917 c 0.094,-0.957 0.182,-1.5 0.191,-2.045 0.015,-0.891 0.389,-1.236 1.318,-1.242 2.66,-0.016 5.319,-0.152 7.979,-0.171 0.352,-0.003 1.035,0.468 1.007,0.602 -0.163,0.773 0.381,2.052 -0.881,2.18 -3.112,0.316 -6.242,0.452 -9.614,0.676 m -13.118,0.229 c 0,-0.597 0.009,-1.382 -0.003,-2.166 -0.012,-0.723 0.264,-1.099 1.05,-1.109 3.179,-0.043 6.358,-0.133 9.537,-0.166 0.279,-0.002 0.761,0.244 0.798,0.441 0.06,0.321 -0.107,0.733 -0.288,1.042 -0.3,0.511 -0.688,0.97 -1.038,1.451 0.066,0.169 0.132,0.338 0.199,0.507 z m 18.731,374.208 c -0.644,1.736 -1.368,3.331 -1.824,4.998 -0.633,2.325 -1.208,4.685 -1.541,7.066 -0.275,1.969 -1.322,3.553 -2.079,5.284 -0.083,0.19 -0.506,0.29 -0.784,0.321 -0.39,0.043 -0.793,-0.051 -1.187,-0.028 -0.802,0.046 -0.963,-0.323 -0.791,-1.036 1.27,-5.257 2.526,-10.518 3.784,-15.778 0.433,-1.813 0.859,-2.058 2.618,-1.47 0.526,0.176 1.045,0.372 1.804,0.643 m -32.119,0.344 c 1.022,0 1.966,0.169 2.817,-0.04 1.263,-0.31 1.573,0.418 1.77,1.31 1.167,5.279 2.312,10.562 3.432,15.85 0.061,0.286 -0.09,0.832 -0.288,0.917 -0.601,0.256 -1.267,0.389 -1.92,0.489 -0.736,0.113 -1.065,-0.17 -1.277,-0.995 -0.552,-2.148 0.098,-4.595 -1.567,-6.466 -0.025,-0.028 -0.033,-0.073 -0.043,-0.111 -0.663,-2.61 -1.289,-5.23 -2.021,-7.819 -0.131,-0.468 -0.629,-0.992 -1.083,-1.17 -0.703,-0.276 -0.798,-0.564 -0.413,-1.132 0.199,-0.294 0.411,-0.578 0.593,-0.833 m 28.435,-39.063 c 0.922,0 1.517,-0.057 2.097,0.01 2.194,0.253 4.384,0.536 6.572,0.843 0.214,0.031 0.506,0.267 0.574,0.471 0.325,0.983 -0.081,1.844 -1.128,2.111 -1.1,0.28 -1.513,1.021 -1.528,1.988 -0.019,1.34 0.131,2.681 0.171,4.024 0.032,1.041 0.007,2.085 0.007,3.229 -2.527,-0.536 -4.721,-1.001 -6.765,-1.435 z m -24.757,8.942 c -1.365,0 -2.674,0.125 -3.949,-0.033 -1.492,-0.183 -1.939,-0.028 -2.481,1.399 -0.225,0.593 -0.391,1.187 -1.283,1.143 -2.377,-0.117 -4.758,-0.215 -7.136,-0.198 -1.746,0.012 -3.494,0.34 -5.234,0.291 -1.004,-0.028 -2.209,-0.268 -2.935,-0.877 -0.789,-0.661 0.268,-3.24 1.215,-3.804 1.286,-0.766 2.682,-0.963 4.108,-1.019 2.896,-0.115 5.795,-0.156 8.692,-0.236 0.743,-0.021 1.265,0.196 1.6,0.95 0.135,0.304 0.677,0.596 1.036,0.6 1.223,0.013 2.463,-0.005 3.668,-0.195 2.256,-0.356 2.425,-0.288 2.699,1.979 m 4.869,14.851 c 0.047,0.003 0.094,0.006 0.14,0.01 -0.125,1.227 -0.289,2.453 -0.361,3.683 -0.048,0.819 -0.398,1.126 -1.201,1.091 -0.796,-0.033 -0.968,-0.462 -1.014,-1.165 -0.15,-2.284 -0.338,-4.567 -0.549,-6.846 -0.187,-2.019 -0.542,-4.029 -0.61,-6.05 -0.072,-2.12 0.146,-4.248 0.172,-6.373 0.055,-4.442 0.048,-8.884 0.111,-13.325 0.014,-0.999 0.212,-1.994 0.319,-2.991 0.034,-0.311 0.183,-0.71 0.049,-0.922 -0.969,-1.542 -0.158,-3.198 -0.334,-4.786 -0.028,-0.247 0.538,-0.81 0.761,-0.776 0.35,0.053 0.872,0.458 0.917,0.771 0.192,1.333 0.278,2.686 0.322,4.035 0.06,1.855 -0.017,3.717 0.082,5.569 0.161,3.045 0.238,6.08 0.891,9.107 0.471,2.184 0.275,4.52 0.295,6.789 0.036,4.059 0.01,8.119 0.01,12.179 m 18.115,-17.897 c 0,2.917 0.015,5.189 -0.003,7.46 -0.04,4.81 -0.145,9.62 -0.124,14.429 0.008,1.749 0.071,1.812 -1.661,1.569 -0.819,-0.115 -1.57,-1.656 -1.48,-2.751 0.249,-3.031 0.489,-6.065 0.617,-9.103 0.078,-1.856 -0.091,-3.721 -0.09,-5.583 0.005,-4.683 -0.067,-9.371 0.1,-14.049 0.161,-4.526 0.56,-9.045 0.936,-13.561 0.029,-0.346 0.674,-0.844 1.082,-0.899 0.413,-0.055 1.205,0.276 1.279,0.575 0.282,1.132 0.446,2.318 0.46,3.486 0.032,2.626 0.063,5.263 -0.116,7.88 -0.255,3.733 -0.699,7.452 -1,10.547 m 10.314,2.804 c -0.055,-0.003 -0.111,-0.006 -0.166,-0.009 0.071,-0.671 0.119,-1.346 0.219,-2.012 0.213,-1.412 0.533,-1.749 1.848,-1.322 1.922,0.624 3.795,1.426 5.633,2.275 0.889,0.41 1.803,0.963 2.442,1.686 1.924,2.177 2.388,4.901 2.368,7.689 -0.008,1.434 -0.62,2.706 -1.875,3.567 -1.179,0.81 -2.367,1.608 -3.519,2.455 -1.945,1.427 -4.181,1.395 -6.415,1.294 -0.743,-0.035 -1.065,-0.471 -0.847,-1.339 0.231,-0.918 0.291,-1.896 0.299,-2.849 0.031,-3.811 0.013,-7.623 0.013,-11.435 m -33.641,22.108 c 0.695,-0.084 1.24,-0.231 1.776,-0.201 2.824,0.156 5.646,0.345 8.466,0.557 0.32,0.024 0.833,0.202 0.898,0.417 0.326,1.084 0.756,2.207 0.74,3.311 -0.046,3.099 -0.28,6.197 -0.465,9.294 -0.135,2.261 -0.324,4.519 -0.462,6.78 -0.131,2.14 -0.258,4.281 -0.326,6.423 -0.052,1.635 -0.01,3.272 -0.01,4.854 -2.385,0.382 -2.471,0.32 -2.821,-1.753 -0.026,-0.156 -0.077,-0.309 -0.115,-0.463 -0.707,-2.804 -1.432,-5.604 -2.116,-8.413 -0.649,-2.666 -1.269,-5.34 -1.877,-8.016 -0.335,-1.473 -0.518,-2.989 -0.951,-4.432 -0.819,-2.732 -1.768,-5.425 -2.737,-8.358 m -5.521,-36.53 c -0.21,1.088 -0.367,2.191 -0.662,3.255 -0.097,0.353 -0.54,0.848 -0.843,0.861 -1.096,0.046 -2.304,0.182 -3.278,-0.201 -2.573,-1.014 -5.096,-2.187 -7.543,-3.479 -1.642,-0.867 -2.538,-2.301 -2.846,-4.281 -0.325,-2.081 0.412,-3.706 1.478,-5.243 1.423,-2.052 3.232,-3.749 5.937,-3.677 1.683,0.045 3.37,0.398 5.031,0.73 2.657,0.531 3.272,1.438 2.962,4.091 -0.189,1.61 0.117,1.88 1.734,1.728 1.021,-0.095 2.062,-0.155 3.074,-0.045 0.331,0.036 0.794,0.622 0.859,1.014 0.203,1.214 -0.848,1.704 -2.47,1.347 -0.56,-0.123 -1.249,-0.065 -1.777,0.156 -1.652,0.691 -1.49,2.329 -1.656,3.744 m 30.413,37.378 c -0.071,0.315 -0.089,0.471 -0.141,0.616 -0.624,1.762 -1.403,3.486 -1.853,5.291 -1.326,5.329 -2.508,10.694 -3.777,16.037 -0.516,2.167 -1.064,4.33 -1.7,6.465 -0.165,0.553 -0.63,1.284 -1.109,1.426 -1.194,0.354 -2.476,0.418 -3.902,0.624 0,-1.623 -0.041,-3.079 0.007,-4.531 0.134,-4.011 0.273,-8.023 0.471,-12.032 0.232,-4.713 0.528,-9.423 0.811,-14.386 3.484,0.152 7.268,0.318 11.193,0.49 m 0.745,-33.687 c 0,-0.878 -0.009,-1.624 0.003,-2.369 0.008,-0.591 0.215,-1.001 0.913,-0.976 1.506,0.052 3.013,0.053 4.516,0.134 1.136,0.061 2.265,0.23 3.4,0.32 0.9,0.072 1.457,-0.442 1.678,-1.241 0.32,-1.145 0.607,-2.309 0.777,-3.484 0.128,-0.884 0.453,-1.167 1.382,-1.19 2.206,-0.055 4.191,0.781 6.268,1.27 1.73,0.407 3.344,0.99 4.67,2.18 0.482,0.433 0.989,0.991 1.165,1.586 0.898,3.043 0.816,6.002 -1.346,8.556 -0.815,0.965 -1.744,1.882 -2.775,2.6 -0.682,0.474 -1.664,0.827 -2.463,0.748 -1.097,-0.11 -2.158,-0.657 -3.22,-1.058 -1.079,-0.408 -2.107,-1.077 -3.215,-1.245 -1.431,-0.218 -1.778,-0.901 -1.826,-2.211 -0.083,-2.217 -0.648,-2.78 -2.86,-3.014 -2.091,-0.222 -4.195,-0.323 -6.293,-0.486 -0.302,-0.023 -0.601,-0.092 -0.774,-0.12 M -34.291,-3.705 c 0.36,-2.496 0.714,-4.754 1.007,-7.02 0.499,-3.866 1.108,-7.725 1.401,-11.608 0.395,-5.252 0.953,-10.474 1.982,-15.637 0.497,-2.495 1.281,-4.936 1.712,-7.441 0.49,-2.851 0.702,-5.749 1.119,-8.614 0.05,-0.346 0.59,-0.832 0.954,-0.883 1.34,-0.187 2.705,-0.188 4.056,-0.316 0.935,-0.089 1.203,0.31 1.101,1.178 -0.204,1.728 -0.439,3.456 -0.532,5.192 -0.184,3.419 -0.191,6.85 -0.435,10.265 -0.301,4.218 -0.711,8.43 -1.179,12.633 -0.51,4.574 -1.091,9.142 -1.737,13.698 -0.383,2.699 -0.938,5.374 -1.457,8.052 -0.054,0.276 -0.393,0.713 -0.596,0.71 -2.421,-0.028 -4.841,-0.126 -7.396,-0.209 m 22.108,-28.076 -0.265,0.006 c -0.161,2.022 -0.376,4.043 -0.467,6.069 -0.085,1.935 0.021,3.878 -0.069,5.811 -0.12,2.543 -0.426,5.079 -0.508,7.622 -0.076,2.377 -0.033,4.765 0.098,7.141 0.057,1.032 -0.139,1.474 -1.236,1.492 -3.01,0.051 -6.018,0.199 -9.029,0.234 -0.271,0.003 -0.811,-0.558 -0.783,-0.807 0.288,-2.605 0.705,-5.197 1.007,-7.801 0.224,-1.928 0.281,-3.877 0.505,-5.805 0.242,-2.077 0.651,-4.135 0.882,-6.212 0.363,-3.268 0.701,-6.54 0.939,-9.818 0.484,-6.704 0.894,-13.413 1.336,-20.12 0.051,-0.776 0.456,-1.104 1.248,-1.114 1.706,-0.021 3.411,-0.11 5.117,-0.165 1.353,-0.044 1.488,0.104 1.457,1.51 -0.079,3.547 -0.187,7.092 -0.224,10.638 -0.038,3.773 -0.008,7.546 -0.008,11.319 m 10.585,27.506 c -0.619,0.027 -1.33,0.05 -2.039,0.09 -2.613,0.148 -5.226,0.318 -7.841,0.416 -0.179,0.006 -0.525,-0.495 -0.537,-0.77 -0.033,-0.75 0.137,-1.508 0.108,-2.258 -0.07,-1.837 -0.364,-3.679 -0.287,-5.507 0.186,-4.41 0.581,-8.81 0.798,-13.219 0.208,-4.213 0.304,-8.432 0.44,-12.648 0.121,-3.742 0.214,-7.485 0.35,-11.227 0.059,-1.63 0.2,-3.257 0.29,-4.886 0.035,-0.639 0.318,-0.883 0.98,-0.891 1.713,-0.021 3.427,-0.166 5.139,-0.141 0.354,0.005 0.973,0.502 1.009,0.823 0.334,3.048 0.657,6.101 0.814,9.163 0.243,4.735 0.386,9.476 0.515,14.217 0.186,6.892 0.325,13.786 0.479,20.679 0.031,1.434 0.064,2.869 0.045,4.302 -0.007,0.561 -0.153,1.119 -0.263,1.857 m -28.054,326.404 c 2.261,-0.343 4.409,-0.677 6.559,-0.993 2.16,-0.317 4.317,-0.679 6.488,-0.897 1.362,-0.137 1.503,0.178 1.271,1.519 -0.182,1.049 -0.24,2.121 -0.316,3.186 -0.067,0.955 -0.077,1.914 -0.123,2.871 -0.188,3.924 -0.456,7.846 -0.55,11.772 -0.099,4.138 -0.021,8.279 -0.045,12.418 -0.013,2.265 -0.076,4.528 -0.121,6.791 -0.036,1.832 -0.067,3.664 -0.124,5.496 -0.025,0.801 -0.243,1.263 -1.288,1.203 -2.699,-0.156 -5.409,-0.133 -8.113,-0.188 -1.753,-0.035 -1.977,-0.24 -2.013,-1.987 -0.078,-3.891 -0.077,-7.785 -0.216,-11.674 -0.144,-4.033 0.428,-8.105 -0.637,-12.096 -0.182,-0.679 -0.223,-1.408 -0.242,-2.116 -0.064,-2.376 -0.055,-4.755 -0.139,-7.13 -0.097,-2.778 -0.263,-5.554 -0.391,-8.175 M -29.607,76.89 c -2.63,-0.809 -4.793,-1.456 -6.939,-2.159 -0.218,-0.071 -0.47,-0.46 -0.472,-0.705 -0.016,-2.311 0.032,-4.624 0.035,-6.935 0.009,-5.579 0.021,-11.158 -0.004,-16.737 -0.011,-2.307 -0.16,-4.613 -0.161,-6.919 -10e-4,-1.984 0.129,-3.966 0.186,-5.95 0.123,-4.258 0.192,-8.52 0.375,-12.777 0.068,-1.586 0.519,-3.157 0.575,-4.743 0.172,-4.895 0.24,-9.793 0.343,-14.691 0.044,-2.158 0.038,-2.157 2.251,-2.25 0.199,-0.007 0.396,-0.074 0.594,-0.075 2.056,-0.006 4.114,-0.003 6.236,-0.003 -0.1,1.505 -0.234,2.687 -0.248,3.87 -0.041,3.343 10e-4,6.687 -0.054,10.03 -0.05,3.01 -0.088,6.028 -0.31,9.029 -0.205,2.768 -0.696,5.512 -0.975,8.274 -0.315,3.132 -0.622,6.27 -0.766,9.414 -0.136,2.942 -0.006,5.895 -0.08,8.841 -0.089,3.533 -0.317,7.062 -0.399,10.594 -0.106,4.509 -0.126,9.02 -0.187,13.892 m -11.566,-1.733 c 0.153,-0.069 0.306,-0.137 0.459,-0.206 0.703,0.582 1.989,0.507 2.079,1.762 0.223,3.142 0.405,6.292 0.488,9.441 0.146,5.543 0.209,11.09 0.298,16.635 0.065,4.031 0.135,8.063 0.17,12.094 0.029,3.264 -0.006,6.53 0.015,9.796 0.013,1.834 0.106,3.668 0.121,5.502 0.043,5.222 -0.131,10.454 0.148,15.663 0.271,5.052 1.087,10.072 1.499,15.119 0.316,3.889 0.353,7.799 0.558,11.698 0.231,4.381 0.501,8.76 0.774,13.139 0.211,3.382 0.507,6.758 0.666,10.142 0.153,3.256 0.149,6.519 0.274,9.777 0.056,1.433 0.341,2.858 0.378,4.29 0.117,4.541 0.132,9.085 0.257,13.626 0.049,1.786 0.364,3.565 0.422,5.351 0.129,3.974 0.199,7.951 0.241,11.927 0.039,3.665 -0.003,7.33 0.013,10.995 0.012,2.904 -0.202,5.838 0.139,8.704 0.748,6.274 1.068,12.55 0.969,18.863 -0.081,5.225 -0.056,10.452 -0.067,15.679 -0.003,1.63 -0.017,3.262 0.051,4.89 0.128,3.059 0.337,6.113 0.464,9.171 0.148,3.528 0.244,7.058 0.371,10.841 -0.757,-0.102 -1.612,-0.134 -2.389,-0.395 -0.146,-0.049 0.019,-1.014 0.033,-1.556 0.005,-0.199 -0.013,-0.398 -0.02,-0.597 -0.051,-1.591 -0.133,-3.181 -0.144,-4.771 -0.019,-2.779 0.03,-5.559 0.008,-8.339 -0.032,-3.783 -0.217,-7.568 -0.132,-11.348 0.157,-7.013 0.508,-14.019 0.038,-21.035 -0.406,-6.083 -0.73,-12.173 -1.006,-18.263 -0.189,-4.147 -0.207,-8.302 -0.351,-12.451 -0.1,-2.896 -0.265,-5.791 -0.438,-8.683 -0.153,-2.584 -0.378,-5.164 -0.532,-7.747 -0.095,-1.587 -0.113,-3.177 -0.171,-4.765 -0.108,-2.942 -0.228,-5.884 -0.328,-8.827 -0.063,-1.873 0.013,-3.759 -0.175,-5.619 -0.404,-4.006 -1.041,-7.99 -1.393,-11.999 -0.337,-3.853 -0.481,-7.724 -0.621,-11.591 -0.091,-2.545 -0.02,-5.095 -0.031,-7.643 -0.002,-0.438 -0.039,-0.876 -0.074,-1.313 -0.248,-3.053 -0.55,-6.104 -0.736,-9.162 -0.142,-2.349 -0.109,-4.709 -0.208,-7.062 -0.189,-4.457 -0.409,-8.914 -0.63,-13.37 -0.365,-7.362 -0.718,-14.725 -1.125,-22.085 -0.108,-1.95 -0.499,-3.885 -0.575,-5.834 -0.102,-2.589 0.024,-5.186 -0.034,-7.778 -0.061,-2.667 -0.35,-5.334 -0.307,-7.997 0.039,-2.383 0.5,-4.757 0.583,-7.14 0.098,-2.822 -0.018,-5.651 -0.027,-8.476 -0.009,-3.018 -0.002,-6.035 -0.002,-9.053 m 22.176,-2.512 h -0.068 c 0,1.315 -0.027,2.63 0.01,3.945 0.021,0.755 -0.302,0.958 -1.012,0.939 -1.991,-0.05 -3.983,-0.025 -5.975,-0.066 -2.07,-0.042 -2.259,-0.273 -2.071,-2.344 0.021,-0.236 0.122,-0.467 0.135,-0.703 0.128,-2.299 0.322,-4.599 0.342,-6.898 0.02,-2.265 -0.248,-4.534 -0.192,-6.795 0.062,-2.535 0.381,-5.062 0.516,-7.596 0.062,-1.19 -0.106,-2.392 -0.065,-3.584 0.076,-2.255 0.239,-4.507 0.346,-6.761 0.159,-3.338 0.282,-6.677 0.464,-10.012 0.045,-0.82 0.279,-1.626 0.389,-2.444 0.281,-2.086 0.678,-4.169 0.767,-6.264 0.078,-1.858 -0.317,-3.733 -0.292,-5.597 0.064,-4.811 0.271,-9.619 0.357,-14.43 0.017,-0.917 0.426,-1.225 1.204,-1.259 1.038,-0.044 2.08,-0.013 3.116,-0.072 1.63,-0.093 3.257,-0.247 4.888,-0.344 0.541,-0.032 1.196,-0.141 1.191,0.747 -0.017,3.539 0.093,7.085 -0.087,10.617 -0.163,3.217 -0.621,6.422 -0.986,9.627 -0.341,2.997 -0.877,5.979 -1.065,8.984 -0.345,5.478 -0.454,10.972 -0.743,16.454 -0.165,3.137 -0.58,6.261 -0.724,9.398 -0.22,4.816 -0.303,9.638 -0.445,14.458 M -2.064,1.808 c 0.018,0.157 0.055,0.276 0.043,0.388 -0.554,4.775 -1.11,9.549 -1.669,14.323 -0.366,3.119 -0.708,6.241 -1.119,9.353 -0.37,2.807 -0.976,5.591 -1.2,8.406 -0.4,5.05 -0.618,10.115 -0.864,15.175 -0.294,6.053 -0.519,12.11 -0.809,18.163 -0.128,2.665 -0.315,5.327 -0.547,7.985 -0.031,0.358 -0.45,0.928 -0.755,0.975 -2.555,0.394 -5.121,0.71 -7.692,0.975 -0.242,0.025 -0.748,-0.449 -0.771,-0.723 -0.09,-1.068 -0.067,-2.15 -0.028,-3.225 0.131,-3.58 0.284,-7.157 0.435,-10.735 0.21,-4.964 0.373,-9.93 0.662,-14.889 0.156,-2.699 0.585,-5.38 0.782,-8.078 0.101,-1.377 -0.16,-2.782 -0.046,-4.157 0.383,-4.582 0.863,-9.155 1.303,-13.732 0.201,-2.09 0.482,-4.175 0.579,-6.27 0.189,-4.052 0.266,-8.11 0.416,-12.165 0.011,-0.321 0.158,-0.85 0.362,-0.918 0.999,-0.33 2.031,-0.579 3.067,-0.767 0.617,-0.114 1.264,-0.079 1.897,-0.081 1.98,-0.008 3.96,-0.003 5.954,-0.003 m -26.495,318.019 c 0,-0.515 0.038,-0.949 -0.006,-1.375 -0.169,-1.622 -0.383,-3.24 -0.543,-4.863 -0.124,-1.248 -0.255,-2.501 -0.27,-3.753 -0.027,-2.291 0.107,-4.586 0.032,-6.874 -0.109,-3.367 -0.413,-6.729 -0.501,-10.096 -0.082,-3.147 0.028,-6.299 0.018,-9.449 -0.007,-1.912 -0.111,-3.823 -0.12,-5.735 -0.014,-2.869 0.114,-5.742 0.002,-8.606 -0.107,-2.704 -0.507,-5.396 -0.666,-8.1 -0.157,-2.664 -0.163,-5.338 -0.259,-8.007 -0.035,-0.991 -0.232,-1.984 -0.186,-2.968 0.058,-1.223 0.419,-2.437 0.424,-3.655 0.014,-3.189 -0.016,-6.382 -0.175,-9.566 -0.178,-3.577 -0.607,-7.143 -0.761,-10.721 -0.213,-4.931 -0.215,-9.871 -0.413,-14.802 -0.189,-4.699 -0.537,-9.391 -0.774,-14.088 -0.305,-6.002 -0.559,-12.008 -0.854,-18.011 -0.149,-3.021 -0.357,-6.039 -0.507,-9.061 -0.128,-2.583 -0.155,-5.173 -0.333,-7.753 -0.125,-1.811 -0.477,-3.605 -0.641,-5.414 -0.295,-3.26 -0.635,-6.522 -0.759,-9.79 -0.203,-5.331 -0.258,-10.667 -0.357,-16.001 -0.057,-3.108 -0.094,-6.217 -0.11,-9.326 -0.029,-5.422 0.029,-10.847 -0.066,-16.269 -0.089,-5.027 -0.348,-10.051 -0.496,-15.077 -0.123,-4.182 -0.198,-8.366 -0.281,-12.55 -0.007,-0.371 0.083,-0.745 0.122,-1.075 2.335,0.621 4.532,1.18 6.708,1.815 0.274,0.08 0.552,0.525 0.619,0.845 0.086,0.412 -0.069,0.869 -0.067,1.306 0.016,2.591 0.106,5.183 0.058,7.772 -0.064,3.415 -0.288,6.827 -0.335,10.241 -0.025,1.821 0.24,3.644 0.265,5.467 0.091,6.286 0.09,12.575 0.21,18.861 0.107,5.618 0.402,11.231 0.48,16.849 0.096,6.84 0.022,13.682 0.079,20.523 0.032,3.894 0.128,7.789 0.286,11.679 0.18,4.458 0.545,8.908 0.673,13.366 0.13,4.583 0.127,9.171 0.079,13.756 -0.042,4.021 -0.374,8.042 -0.316,12.059 0.102,6.972 0.389,13.941 0.633,20.91 0.116,3.309 0.332,6.615 0.466,9.923 0.167,4.1 0.408,8.202 0.405,12.302 -0.003,2.905 -0.478,5.808 -0.516,8.714 -0.035,2.582 0.217,5.169 0.388,7.751 0.269,4.051 1.075,8.058 0.728,12.163 -0.222,2.614 -0.072,5.258 -0.162,7.886 -0.072,2.11 -0.313,4.215 -0.372,6.324 -0.069,2.424 -0.077,4.853 -0.008,7.277 0.069,2.422 0.258,4.841 0.406,7.261 0.132,2.144 0.381,4.286 0.391,6.429 0.009,1.772 -0.908,2.235 -2.618,1.506 M -1.033,76.097 c 0,0.706 0.016,1.21 -0.003,1.713 -0.067,1.673 -0.188,3.346 -0.211,5.02 -0.034,2.433 0.116,4.872 -0.027,7.297 -0.207,3.497 -0.654,6.979 -0.914,10.475 -0.308,4.135 -0.5,8.28 -0.793,12.418 -0.233,3.294 -0.631,6.58 -0.791,9.877 -0.251,5.139 -0.276,10.289 -0.553,15.426 -0.335,6.216 -0.874,12.42 -1.246,18.635 -0.229,3.818 -0.355,7.645 -0.448,11.47 -0.092,3.828 -0.095,7.658 -0.117,11.488 -0.01,1.789 0.107,3.582 0.026,5.367 -0.164,3.601 -0.448,7.196 -0.639,10.797 -0.374,7.081 -0.616,14.172 -1.106,21.245 -0.416,6.005 -1.145,11.986 -1.657,17.985 -0.427,5.012 -0.76,10.034 -1.099,15.053 -0.386,5.693 -0.788,11.385 -1.077,17.083 -0.247,4.899 -0.31,9.807 -0.519,14.708 -0.236,5.569 -0.585,11.133 -0.809,16.701 -0.167,4.137 -0.232,8.278 -0.307,12.417 -0.04,2.21 -0.007,4.421 -0.007,6.703 -1.258,0.16 -2.676,0.287 -4.074,0.531 -1.649,0.288 -1.7,0.293 -1.791,-1.34 -0.017,-0.316 0.015,-0.636 0.04,-0.954 0.175,-2.179 0.366,-4.358 0.529,-6.538 0.162,-2.179 0.28,-4.36 0.447,-6.538 0.18,-2.345 0.488,-4.684 0.569,-7.032 0.097,-2.819 -0.019,-5.646 0.016,-8.469 0.057,-4.53 0.082,-9.063 0.269,-13.589 0.218,-5.247 0.533,-10.492 0.923,-15.729 0.402,-5.4 0.959,-10.788 1.424,-16.183 0.477,-5.514 0.924,-11.031 1.381,-16.547 0.033,-0.398 0.04,-0.797 0.069,-1.195 0.29,-4.003 0.648,-8.004 0.846,-12.012 0.094,-1.894 -0.237,-3.808 -0.168,-5.706 0.191,-5.246 0.508,-10.487 0.745,-15.732 0.163,-3.61 0.277,-7.223 0.411,-10.836 0.119,-3.215 0.179,-6.435 0.37,-9.647 0.142,-2.383 0.674,-4.76 0.635,-7.133 -0.061,-3.725 0.324,-7.389 0.854,-11.055 0.397,-2.756 0.936,-5.502 1.138,-8.273 0.293,-3.998 0.313,-8.017 0.494,-12.024 0.251,-5.595 0.564,-11.187 0.811,-16.782 0.162,-3.654 0.325,-7.311 0.359,-10.967 0.046,-4.869 -0.096,-9.738 -0.038,-14.606 0.045,-3.696 0.268,-7.39 0.445,-11.084 0.011,-0.244 0.252,-0.61 0.47,-0.69 1.636,-0.595 3.295,-1.133 5.123,-1.748 m -27.087,3.41 c 2.883,0 5.537,-0.004 8.192,0.003 0.799,0.002 0.706,0.574 0.687,1.106 -0.16,4.46 -0.361,8.919 -0.46,13.381 -0.133,5.98 -0.177,11.962 -0.278,17.942 -0.068,3.977 -0.132,7.955 -0.272,11.929 -0.09,2.584 -0.452,5.163 -0.45,7.744 0.004,5.463 0.204,10.924 0.254,16.387 0.061,6.816 0.067,13.634 0.069,20.451 0.002,5.565 0.028,11.132 -0.079,16.695 -0.077,3.983 -0.397,7.961 -0.524,11.945 -0.048,1.499 0.225,3.007 0.213,4.509 -0.029,3.539 -0.135,7.077 -0.221,10.616 -0.107,4.412 -0.192,8.826 -0.348,13.236 -0.102,2.874 -0.378,5.741 -0.461,8.615 -0.077,2.67 0.089,5.349 -0.012,8.017 -0.18,4.773 -0.515,9.54 -0.72,14.312 -0.172,4.014 -0.804,7.99 -0.465,12.053 0.261,3.115 -0.185,6.283 -0.158,9.427 0.05,5.804 0.236,11.607 0.324,17.412 0.03,1.979 -0.118,3.96 -0.086,5.939 0.053,3.225 0.195,6.448 0.284,9.673 0.076,2.743 0.13,5.486 0.193,8.243 -1.4,0.178 -1.612,-0.017 -1.577,-1.547 0.01,-0.394 0.002,-0.794 -0.046,-1.184 -0.272,-2.189 -0.647,-4.37 -0.813,-6.567 -0.137,-1.812 0,-3.642 -0.044,-5.464 -0.061,-2.545 -0.309,-5.092 -0.244,-7.632 0.111,-4.352 0.412,-8.697 0.616,-13.046 0.19,-4.038 -0.35,-8.017 -0.963,-11.996 -0.67,-4.351 -0.728,-8.714 -0.1,-13.089 0.288,-2.004 0.55,-4.043 0.5,-6.057 -0.081,-3.172 -0.482,-6.333 -0.658,-9.504 -0.107,-1.95 0.047,-3.915 -0.081,-5.863 -0.236,-3.597 -0.661,-7.183 -0.878,-10.781 -0.131,-2.181 0.021,-4.376 -0.026,-6.563 -0.055,-2.5 -0.299,-5 -0.261,-7.496 0.051,-3.389 0.356,-6.772 0.43,-10.16 0.059,-2.731 -0.051,-5.466 -0.108,-8.199 -0.113,-5.371 -0.177,-10.744 -0.388,-16.111 -0.121,-3.094 -0.597,-6.174 -0.723,-9.267 -0.178,-4.37 0.509,-8.724 0.198,-13.121 -0.232,-3.282 0.103,-6.601 0.105,-9.905 0.003,-4.145 -0.082,-8.29 -0.116,-12.435 -0.006,-0.675 0.133,-1.357 0.074,-2.024 -0.196,-2.219 -0.589,-4.429 -0.655,-6.65 -0.142,-4.719 -0.273,-9.448 -0.129,-14.165 0.118,-3.855 0.396,-7.693 -0.223,-11.528 -0.063,-0.388 -0.083,-0.792 -0.057,-1.184 0.151,-2.253 0.418,-4.503 0.464,-6.757 0.078,-3.811 0.021,-7.624 0.021,-11.34 m 7.686,231.278 c -0.109,-0.003 -0.219,-0.007 -0.328,-0.01 -0.067,-0.281 -0.187,-0.562 -0.194,-0.845 -0.091,-3.813 -0.179,-7.626 -0.235,-11.439 -0.009,-0.627 0.317,-1.3 0.178,-1.877 -0.756,-3.145 -0.372,-6.337 -0.45,-9.502 -0.1,-4.04 0.005,-8.085 0.026,-12.127 0.013,-2.338 0.031,-4.675 0.056,-7.012 0.016,-1.553 0.001,-3.107 0.084,-4.657 0.182,-3.42 0.461,-6.835 0.617,-10.256 0.125,-2.744 0.097,-5.495 0.192,-8.241 0.101,-2.935 0.278,-5.867 0.401,-8.801 0.099,-2.385 0.19,-4.77 0.244,-7.156 0.114,-5.06 0.231,-10.12 0.288,-15.181 0.037,-3.376 -0.055,-6.754 -0.038,-10.131 0.018,-3.459 0.084,-6.918 0.157,-10.376 0.059,-2.743 0.099,-5.488 0.259,-8.225 0.17,-2.9 0.653,-5.791 0.677,-8.688 0.038,-4.458 -0.257,-8.917 -0.3,-13.376 -0.035,-3.585 0.295,-7.182 0.108,-10.755 -0.387,-7.401 -0.676,-14.785 -0.218,-22.198 0.34,-5.487 0.421,-10.992 0.519,-16.49 0.087,-4.857 0.026,-9.716 0.054,-14.575 0.016,-2.864 0.025,-5.729 0.136,-8.591 0.128,-3.257 0.373,-6.51 0.551,-9.767 0.037,-0.69 0.202,-1.085 1.038,-1.111 1.591,-0.049 3.18,-0.217 4.765,-0.379 1.164,-0.119 2.322,-0.306 3.465,-0.46 0.099,1.633 0.271,3.044 0.255,4.452 -0.077,6.615 -0.201,13.229 -0.317,19.844 -0.051,2.858 -0.117,5.715 -0.193,8.572 -0.031,1.189 -0.131,2.377 -0.159,3.566 -0.053,2.27 -0.027,4.542 -0.123,6.809 -0.198,4.655 -0.431,9.308 -0.694,13.959 -0.208,3.664 -0.386,7.334 -0.755,10.984 -0.352,3.488 -1.056,6.942 -1.383,10.432 -0.461,4.905 -0.759,9.825 -1.045,14.744 -0.212,3.64 -0.324,7.285 -0.429,10.93 -0.113,3.946 -0.145,7.895 -0.254,11.841 -0.14,5.042 -0.266,10.086 -0.5,15.123 -0.281,6.079 -0.608,12.156 -1.035,18.225 -0.279,3.965 -0.745,7.917 -1.174,11.87 -0.455,4.191 -1.039,8.369 -1.43,12.565 -0.383,4.122 -0.607,8.259 -0.879,12.391 -0.22,3.342 -0.458,6.682 -0.589,10.028 -0.073,1.823 0.111,3.656 0.088,5.484 -0.049,3.885 -0.174,7.769 -0.236,11.655 -0.036,2.229 0.099,4.466 -0.036,6.687 -0.22,3.646 -0.593,7.282 -0.916,10.921 -0.034,0.385 -0.163,0.763 -0.248,1.144 m -15.62,-427.543 c -0.01,-0.037 -0.02,-0.075 -0.029,-0.112 -0.508,0.636 -0.905,1.434 -1.547,1.871 -1.11,0.753 -2.329,1.388 -3.579,1.879 -2.303,0.903 -4.644,1.723 -7.001,2.475 -3.575,1.141 -7.117,2.501 -10.781,3.217 -5.876,1.148 -11.865,0.782 -17.789,0.205 -4.404,-0.428 -8.79,-1.133 -13.146,-1.924 -1.941,-0.353 -3.829,-1.119 -5.662,-1.885 -1.226,-0.512 -2.421,-1.412 -2.206,-2.948 0.214,-1.525 0.562,-3.112 1.247,-4.472 1.659,-3.296 3.452,-6.535 5.38,-9.682 1.408,-2.3 3.062,-4.457 4.702,-6.603 1.833,-2.399 3.742,-4.742 5.678,-7.059 1.732,-2.073 3.457,-4.164 5.346,-6.09 2.185,-2.225 4.417,-4.405 7.294,-5.826 3.427,-1.692 6.67,-3.779 10.165,-5.302 3.278,-1.426 6.774,-2.363 10.188,-3.468 1.509,-0.49 3.033,-1.059 4.592,-1.243 2.23,-0.262 4.51,-0.082 6.746,-0.314 3.004,-0.311 6.002,-0.744 8.973,-1.289 3.67,-0.674 7.376,-0.936 11.043,-0.479 3.141,0.391 6.25,1.212 9.303,2.089 3.597,1.031 7.098,2.355 10.161,4.626 1.868,1.385 2.499,3.094 1.203,4.646 -1.229,1.469 -2.683,2.88 -4.316,3.848 -1.67,0.99 -3.671,1.43 -5.539,2.073 -0.966,0.332 -2.229,0.303 -2.875,0.933 -0.86,0.839 -1.456,2.101 -1.799,3.286 -0.738,2.554 -0.408,5.193 -0.211,7.804 0.195,2.581 0.471,5.161 0.552,7.746 0.087,2.814 -0.057,5.633 -0.011,8.448 0.04,2.497 0.276,4.993 0.293,7.49 0.023,3.379 -0.185,6.761 -0.103,10.137 0.106,4.342 0.2,8.702 0.672,13.012 0.453,4.137 1.153,8.278 2.167,12.313 0.946,3.768 2.424,7.407 3.711,11.087 0.956,2.738 1.977,5.453 2.994,8.241 -0.37,0.134 -0.582,0.268 -0.804,0.285 -2.345,0.181 -4.689,0.449 -7.037,0.489 -4.828,0.083 -9.658,0.013 -14.486,0.062 -2.832,0.029 -5.662,0.168 -8.493,0.253 -1.244,0.038 -2.073,-0.617 -1.803,-1.445 0.432,-1.323 0.906,-2.633 1.366,-3.947 1.748,-4.993 3.817,-9.853 4.992,-15.069 1.578,-7.005 3.48,-13.929 4.227,-21.103 0.346,-3.327 0.997,-6.621 1.376,-9.945 0.315,-2.766 0.392,-5.559 0.651,-8.333 0.359,-3.848 0.82,-7.687 1.168,-11.535 0.097,-1.061 -0.128,-2.148 -0.072,-3.216 0.105,-2.001 -0.007,-3.981 -0.693,-5.859 -0.295,-0.808 -0.828,-1.936 -1.472,-2.111 -0.918,-0.25 -1.356,0.851 -1.614,1.726 -0.044,0.149 -0.157,0.277 -0.228,0.421 -1.441,2.875 -3.07,5.674 -4.272,8.647 -1.464,3.625 -3.219,7.029 -5.879,9.898 -0.763,0.825 -1.82,1.376 -2.743,2.052 m -3.511,296.84 c 0.077,-0.009 0.154,-0.018 0.231,-0.026 -0.153,0.308 -0.463,0.633 -0.434,0.923 0.148,1.467 0.414,2.922 0.581,4.388 0.212,1.847 0.412,3.699 0.511,5.555 0.02,0.364 -0.382,1.014 -0.693,1.086 -1.317,0.308 -2.691,0.7 -4.01,0.605 -5.597,-0.405 -11.036,-1.575 -16.351,-3.443 -4.281,-1.504 -7.903,-4.034 -11.566,-6.576 -3.511,-2.435 -7.047,-4.824 -9.931,-8.023 -1.864,-2.067 -3.957,-3.989 -5.488,-6.282 -2.625,-3.932 -5.027,-8.03 -7.261,-12.198 -1.615,-3.011 -2.868,-6.224 -4.17,-9.393 -1.333,-3.247 -2.73,-6.491 -3.73,-9.846 -0.96,-3.225 -1.57,-6.572 -2.087,-9.903 -0.233,-1.5 0.152,-3.092 0.222,-4.643 0.129,-2.827 0.101,-5.667 0.375,-8.48 0.399,-4.078 1.005,-8.137 1.528,-12.203 0.212,-1.649 0.423,-3.299 0.658,-4.945 0.348,-2.441 0.978,-4.875 1.006,-7.319 0.031,-2.677 -0.429,-5.37 -0.798,-8.039 -0.105,-0.76 0.035,-1.023 0.735,-1.132 0.984,-0.153 2.009,-0.212 2.934,-0.542 2.84,-1.013 5.552,-2.308 7.609,-4.602 1.379,-1.536 2.975,-3.012 3.875,-4.814 2.006,-4.017 3.388,-8.319 4.111,-12.761 0.709,-4.364 1.307,-8.757 1.655,-13.161 0.222,-2.807 -0.024,-5.661 -0.2,-8.485 -0.146,-2.346 -0.368,-4.704 -0.786,-7.015 -0.594,-3.291 -1.245,-6.588 -2.155,-9.802 -0.918,-3.243 -1.934,-6.506 -3.369,-9.541 -1.311,-2.773 -2.82,-5.515 -4.965,-7.818 -1.453,-1.56 -2.665,-3.37 -4.237,-4.789 -1.582,-1.428 -3.392,-2.661 -5.258,-3.7 -1.586,-0.885 -3.345,-1.595 -5.115,-1.979 -2.229,-0.484 -4.487,-1.2 -6.841,-0.704 -0.122,0.025 -0.277,-0.103 -0.369,-0.141 0.242,-1.279 0.284,-2.572 0.74,-3.697 1.091,-2.695 0.81,-5.523 0.836,-8.268 0.021,-2.208 -0.74,-4.428 -1.18,-6.637 -0.357,-1.794 -0.675,-3.602 -1.151,-5.367 -0.662,-2.46 -1.424,-4.894 -2.201,-7.321 -0.911,-2.844 -1.924,-5.654 -2.814,-8.504 -0.509,-1.63 -0.779,-3.335 -1.305,-4.958 -0.933,-2.879 -2.218,-5.664 -2.918,-8.594 -0.948,-3.963 -2.051,-7.9 -2.178,-12.053 -0.173,-5.688 -0.148,-11.334 1.38,-16.855 0.87,-3.142 1.802,-6.28 2.959,-9.324 1.372,-3.609 2.886,-7.178 4.583,-10.644 1.399,-2.857 3.096,-5.575 4.775,-8.285 1.089,-1.757 2.409,-3.369 3.58,-5.077 2.324,-3.394 4.833,-6.648 7.915,-9.375 2.738,-2.422 5.686,-4.603 8.499,-6.942 5.797,-4.822 12.046,-8.936 18.845,-12.207 0.757,-0.366 1.528,-0.703 2.293,-1.053 -0.112,0.483 -0.345,0.752 -0.632,0.936 -3.338,2.159 -5.771,5.272 -8.357,8.174 -3.251,3.65 -6.275,7.513 -9.242,11.402 -2.319,3.039 -4.514,6.188 -6.559,9.418 -2.011,3.175 -3.141,6.76 -4.337,10.317 -0.505,1.503 -0.065,2.329 0.799,3.393 1.226,1.511 2.849,2.404 4.584,2.89 3.024,0.847 6.113,1.525 9.217,2.005 5.251,0.814 10.548,1.112 15.873,1.075 4.477,-0.031 8.965,0.17 13.309,-1.159 3.359,-1.028 6.65,-2.284 10.021,-3.269 4.113,-1.202 8.032,-2.818 11.722,-4.979 0.472,-0.276 0.826,-0.793 1.164,-1.25 0.557,-0.755 1.014,-1.584 1.595,-2.318 0.362,-0.458 1.02,-0.717 1.291,-1.205 1.381,-2.486 2.72,-4.996 3.992,-7.538 1.389,-2.771 2.671,-5.596 4.052,-8.372 0.17,-0.339 0.666,-0.516 1.011,-0.769 0.042,0.347 0.084,0.694 0.128,1.04 0.031,0.237 0.092,0.474 0.096,0.712 0.04,2.025 0.199,4.059 0.072,6.076 -0.201,3.182 -0.61,6.349 -0.907,9.524 -0.431,4.603 -0.795,9.211 -1.271,13.808 -0.4,3.853 -0.724,7.728 -1.431,11.528 -1.042,5.594 -2.28,11.159 -3.655,16.681 -0.795,3.193 -1.93,6.314 -3.08,9.405 -1.243,3.341 -2.668,6.613 -4.042,9.903 -0.301,0.719 0.024,1.838 0.691,2.266 1.29,0.827 2.688,0.57 4.075,0.483 1.212,-0.078 1.985,0.779 1.796,1.994 -0.234,1.497 -0.466,2.994 -0.706,4.49 -0.477,2.954 -0.934,5.912 -1.445,8.861 -0.625,3.616 -1.404,7.207 -1.918,10.838 -0.491,3.465 -0.652,6.977 -1.097,10.45 -0.569,4.43 -1.292,8.839 -1.913,13.262 -0.109,0.776 -0.446,0.972 -1.191,0.94 -1.306,-0.057 -2.64,-0.141 -3.913,0.075 -0.591,0.1 -1.422,0.818 -1.516,1.364 -0.163,0.954 0.872,0.397 1.339,0.617 0.104,0.05 0.215,0.087 0.091,0.037 0.24,1.292 0.119,2.699 0.757,3.501 0.653,0.825 2.049,1.06 3.316,1.642 -0.028,0.137 -0.237,0.631 -0.209,1.11 0.221,3.697 0.421,7.383 -0.069,11.081 -0.252,1.897 -0.259,3.824 -0.426,5.733 -0.168,1.904 -0.476,3.8 -0.578,5.707 -0.114,2.106 -0.041,4.222 -0.09,6.334 -0.082,3.55 -0.3,7.099 -0.275,10.647 0.043,6.135 0.277,12.269 0.334,18.404 0.031,3.309 -0.125,6.621 -0.227,9.93 -0.045,1.477 -0.52,1.709 -1.757,0.941 -0.306,-0.19 -0.608,-0.388 -0.928,-0.551 -1.088,-0.555 -1.471,-0.349 -1.495,0.833 -0.039,2.032 -0.033,4.065 -0.077,6.098 -0.036,1.593 -0.167,3.185 -0.172,4.779 -0.009,2.907 0.102,5.815 0.057,8.721 -0.071,4.67 -0.293,9.338 -0.322,14.008 -0.015,2.376 0.28,4.753 0.381,7.132 0.069,1.613 -0.034,3.236 0.08,4.845 0.242,3.418 0.611,6.828 0.858,10.246 0.179,2.468 0.256,4.942 0.359,7.414 0.269,6.463 0.513,12.926 0.804,19.388 0.043,0.965 0.395,1.918 0.413,2.881 0.042,2.132 -0.097,4.269 -0.053,6.401 0.083,3.985 0.227,7.969 0.385,11.952 0.035,0.879 0.231,1.751 0.353,2.627 M 58.876,77.016 c -0.636,0.954 -1.322,1.753 -1.755,2.671 -1.633,3.468 -2.042,7.261 -2.533,10.986 -0.701,5.311 -0.444,10.677 0.003,15.995 0.779,9.276 0.844,18.536 -0.121,27.792 -0.578,5.553 -1.309,11.083 -3.631,16.257 -0.695,1.549 -1.104,3.262 -1.991,4.682 -1.419,2.272 -3.07,4.41 -4.733,6.518 -1.628,2.062 -3.245,4.168 -5.131,5.982 -3.098,2.979 -6.36,5.796 -9.648,8.57 -2.827,2.385 -5.707,4.723 -8.714,6.873 -2.22,1.588 -5.111,2.063 -7.137,4.077 -0.361,0.359 -1.023,0.408 -1.535,0.627 -1.522,0.652 -2.983,1.624 -4.57,1.913 -3.554,0.649 -7.164,0.998 -10.761,1.394 -1.781,0.195 -1.781,0.121 -1.684,-1.687 0.181,-3.417 0.411,-6.834 0.507,-10.254 0.081,-2.86 -0.071,-5.727 0.013,-8.587 0.076,-2.619 0.418,-5.231 0.484,-7.85 0.101,-3.971 -0.072,-7.953 0.127,-11.917 0.183,-3.649 0.584,-7.298 1.11,-10.915 0.595,-4.1 0.184,-8.195 0.294,-12.289 0.1,-3.735 0.39,-7.465 0.642,-11.195 0.274,-4.055 0.575,-8.108 0.91,-12.159 0.263,-3.168 0.623,-6.328 0.89,-9.496 0.207,-2.455 0.428,-4.914 0.481,-7.375 0.054,-2.546 -0.154,-5.097 -0.119,-7.643 0.024,-1.617 0.35,-3.228 0.411,-4.847 0.043,-1.141 -0.59,-1.493 -1.633,-1.087 -1.448,0.563 -2.898,1.125 -4.349,1.68 -1.137,0.436 -1.505,0.201 -1.428,-0.994 0.179,-2.776 0.427,-5.548 0.591,-8.325 0.163,-2.759 0.221,-5.524 0.391,-8.282 0.236,-3.845 0.564,-7.683 0.792,-11.527 0.158,-2.654 0.224,-5.312 0.31,-7.969 0.032,-0.991 -0.086,-1.994 0.014,-2.977 0.24,-2.364 0.573,-4.72 0.858,-7.079 0.24,-1.975 0.472,-3.95 0.697,-5.927 0.359,-3.167 0.961,-6.333 0.994,-9.504 C -2.044,9.851 -1.347,6.674 -0.983,3.44 -0.787,1.689 -0.647,1.646 1.062,1.51 2.879,1.364 4.853,1.862 6.432,0.254 6.386,-0.706 6.28,-1.734 6.305,-2.761 6.325,-3.615 5.897,-3.872 5.161,-3.953 3.739,-4.108 2.321,-4.296 0.576,-4.51 0.448,-6.296 0.312,-8.133 0.19,-9.971 0.155,-10.489 0.172,-11.01 0.15,-11.529 c -0.128,-3.111 -0.29,-6.22 -0.381,-9.331 -0.108,-3.617 -0.103,-7.237 -0.242,-10.851 -0.132,-3.456 -0.399,-6.907 -0.578,-10.361 -0.05,-0.955 0.052,-1.918 0,-2.873 -0.177,-3.257 -0.392,-6.512 -0.591,-9.767 -0.031,-0.515 0.01,-0.886 0.719,-0.968 0.919,-0.105 2.079,-0.085 1.957,-1.581 -0.01,-0.121 0.226,-0.324 0.387,-0.387 0.828,-0.322 0.649,-0.838 0.362,-1.45 -0.861,-1.829 -1.702,-3.668 -2.527,-5.514 -0.177,-0.396 -0.243,-0.84 -0.374,-1.258 -0.273,-0.87 -0.532,-1.745 -0.834,-2.606 -1.235,-3.523 -2.567,-7.015 -3.693,-10.573 -0.633,-2.001 -1.054,-4.09 -1.358,-6.17 -0.43,-2.944 -0.671,-5.918 -0.976,-8.881 -0.109,-1.069 -0.185,-2.142 -0.25,-3.215 -0.231,-3.775 -0.533,-7.547 -0.648,-11.325 -0.09,-2.938 0.104,-5.884 0.087,-8.827 -0.012,-2.151 -0.17,-4.301 -0.248,-6.451 -0.165,-4.579 -0.385,-9.157 -0.45,-13.738 -0.029,-2.018 0.18,-4.051 0.447,-6.055 0.159,-1.196 0.894,-2.105 2.174,-2.435 1.466,-0.377 3,-0.616 4.364,-1.228 1.946,-0.875 3.899,-1.854 5.603,-3.12 2.044,-1.521 3.43,-3.64 3.754,-6.268 0.084,-0.677 0.373,-0.828 0.937,-0.698 1.82,0.42 3.657,0.783 5.449,1.301 2.641,0.763 5.259,1.606 7.865,2.479 1.778,0.596 3.498,1.363 5.28,1.94 2.883,0.934 5.83,1.678 8.687,2.679 4.782,1.676 9.583,3.331 13.986,5.92 4.155,2.445 8.48,4.637 12.446,7.356 5.189,3.556 10.182,7.39 14.605,11.951 3.651,3.763 6.795,7.828 8.977,12.567 1.918,4.164 3.335,8.523 3.851,13.117 0.364,3.243 0.769,6.486 0.967,9.741 0.122,2.018 -0.083,4.059 -0.183,6.088 -0.205,4.092 -0.197,8.217 -0.746,12.265 -0.371,2.722 -1.441,5.371 -2.387,7.985 -1.409,3.894 -2.93,7.752 -4.512,11.58 -0.987,2.387 -2.396,4.616 -3.223,7.049 -1.298,3.822 -2.205,7.737 -2.123,11.865 0.067,3.357 -0.531,6.73 -0.417,10.082 0.145,4.308 0.68,8.605 1.111,12.901 0.091,0.906 -0.219,1.451 -1.02,1.602 -4.032,0.754 -6.832,3.658 -10.076,5.765 -1.659,1.08 -3.161,2.423 -4.632,3.761 -1.705,1.552 -3.669,2.994 -4.859,4.898 -2.378,3.803 -4.43,7.83 -6.381,11.878 -1.557,3.229 -2.683,6.656 -3.2,10.234 -0.518,3.579 -1.151,7.154 -1.405,10.754 -0.289,4.075 -0.098,8.181 -0.337,12.262 -0.183,3.12 0.392,6.128 1.095,9.082 0.797,3.345 2.472,6.37 4.699,9.029 0.964,1.153 1.928,2.348 3.079,3.296 1.372,1.13 2.944,2.016 4.489,3.049 m -97.864,117.355 c 0.432,3.813 0.938,7.526 1.253,11.256 0.302,3.578 0.418,7.172 0.592,10.76 0.112,2.316 0.161,4.635 0.273,6.951 0.15,3.115 0.279,6.232 0.526,9.34 0.121,1.53 0.581,3.032 0.708,4.563 0.084,1 -0.243,2.028 -0.231,3.042 0.038,3.144 0.141,6.287 0.237,9.43 0.076,2.513 0.117,5.029 0.292,7.536 0.105,1.52 0.563,3.019 0.632,4.538 0.103,2.247 -0.058,4.505 0,6.755 0.098,3.782 0.337,7.561 0.404,11.343 0.036,2.065 -0.202,4.133 -0.24,6.201 -0.052,2.857 -0.021,5.717 -0.045,8.575 -0.03,3.62 -0.101,7.24 -0.111,10.86 -0.007,2.95 0.056,5.899 0.078,8.848 0.012,1.539 0.017,3.079 -0.01,4.618 -0.004,0.196 -0.267,0.374 -0.337,0.585 -0.116,0.354 -0.357,0.82 -0.226,1.076 0.572,1.123 0.095,1.355 -0.921,1.276 -0.278,-0.022 -0.562,-0.017 -0.839,0.018 -1.142,0.147 -1.578,-0.282 -1.474,-1.478 0.156,-1.784 -1.498,-3.628 -3.25,-3.831 -1.106,-0.128 -2.228,-0.23 -3.303,-0.502 -2.527,-0.64 -4.942,-0.319 -7.185,0.887 -1.094,0.588 -2.246,1.382 -2.908,2.388 -1.055,1.603 -2.185,3.394 -2.448,5.225 -0.398,2.771 0.181,5.424 2.836,7.324 2.826,2.023 5.746,3.73 9.151,4.466 1.585,0.344 3.209,0.537 4.826,0.698 0.742,0.074 1.238,-0.272 1.296,-1.189 0.117,-1.814 0.458,-3.617 0.52,-5.431 0.041,-1.224 0.625,-1.391 1.64,-1.467 2.67,-0.202 2.573,-0.249 2.514,2.401 -0.06,2.704 0.048,5.415 0.171,8.119 0.046,0.999 -0.302,1.362 -1.258,1.394 -0.994,0.033 -1.991,0.129 -2.976,0.272 -0.978,0.142 -1.658,-0.199 -2.274,-0.955 -0.26,-0.32 -0.814,-0.561 -1.236,-0.565 -2.461,-0.024 -4.924,0.064 -7.385,0.056 -3.03,-0.009 -5.929,0.54 -8.567,2.059 -1.475,0.849 -1.571,2.51 -1.633,3.93 -0.151,3.498 0.792,4.332 4.245,4.146 2.387,-0.129 4.774,-0.41 7.159,-0.389 2.256,0.021 4.51,0.347 6.764,0.54 0.616,0.053 1.233,0.306 1.524,-0.635 0.585,-1.887 1.211,-2.229 3.242,-2.11 1.158,0.069 1.961,0.253 1.988,1.786 0.048,2.737 0.357,5.471 0.564,8.206 0.17,2.249 0.34,4.499 0.531,6.747 0.073,0.861 -0.24,1.168 -1.111,1.005 -0.806,-0.151 -1.74,-0.415 -2.098,0.705 -0.142,0.443 -0.216,1.006 -0.07,1.427 0.612,1.765 1.341,3.489 1.98,5.245 0.26,0.715 0.224,1.302 -0.845,1.087 -0.877,-0.176 -1.776,-0.242 -2.654,-0.413 -1.072,-0.208 -1.608,0.3 -1.776,1.402 -0.151,0.987 -0.725,1.917 -0.831,2.902 -0.204,1.885 -0.175,3.795 -0.309,5.689 -0.075,1.058 -0.289,2.106 -0.43,3.159 -0.201,1.506 0.23,2.156 1.708,2.437 1.265,0.239 2.546,0.399 4.018,0.624 0.319,1.637 0.928,3.484 0.568,5.473 -0.247,1.364 0.524,1.874 1.873,1.498 1.122,-0.314 2.309,-0.427 3.476,-0.518 0.213,-0.016 0.592,0.471 0.68,0.786 0.21,0.758 0.312,1.55 0.423,2.333 0.225,1.575 0.926,2.268 2.511,2.167 2.804,-0.177 5.598,-0.51 8.403,-0.672 1.267,-0.074 1.813,-0.862 2.289,-1.807 0.231,-0.457 0.395,-0.954 0.532,-1.448 0.625,-2.244 0.618,-2.246 2.742,-1.759 2.39,0.549 3.272,-0.053 3.664,-2.452 0.124,-0.761 0.267,-1.535 0.541,-2.25 0.101,-0.263 0.584,-0.438 0.927,-0.541 1.08,-0.326 2.227,-0.487 3.245,-0.943 0.461,-0.206 0.938,-0.942 0.965,-1.462 0.155,-2.974 0.192,-5.955 0.236,-8.934 0.014,-0.912 -0.047,-1.829 -0.13,-2.738 -0.159,-1.73 -1.435,-3.025 -3.142,-3.244 -0.04,-0.005 -0.079,-0.015 -0.118,-0.02 -3.066,-0.354 -3.088,-0.391 -2.04,-3.216 0.29,-0.783 0.579,-1.566 0.839,-2.359 0.392,-1.194 -0.13,-1.809 -1.403,-1.683 -0.196,0.02 -0.39,0.042 -0.75,0.081 -0.057,-0.938 -0.14,-1.829 -0.162,-2.722 -0.053,-2.117 -0.053,-4.235 -0.123,-6.351 -0.034,-0.985 0.188,-1.286 1.308,-1.158 1.52,0.172 3.085,-0.023 4.629,-0.081 1.37,-0.052 1.457,0.027 1.263,1.381 -0.168,1.177 -0.514,2.36 -0.46,3.525 0.032,0.695 0.592,1.863 1.077,1.954 2.348,0.439 4.794,0.604 7.067,-0.301 2.814,-1.121 5.564,-2.441 7.186,-5.24 1.55,-2.674 0.934,-5.401 0.099,-8.096 -0.427,-1.376 -1.024,-2.699 -1.557,-4.077 2.693,-0.863 4.394,-3.01 5.754,-5.349 1.947,-3.35 2.375,-7.012 0.508,-10.497 -1.085,-2.025 -3.117,-3.172 -5.5,-3.587 -1.398,-0.243 -2.727,-0.914 -4.127,-1.115 -1.94,-0.277 -3.918,-0.381 -5.88,-0.374 -0.693,0.003 -1.199,0.53 -0.995,1.537 0.81,3.988 -0.301,4.686 -4.095,4.132 -1.619,-0.237 -3.303,-0.04 -5.12,-0.04 0,-0.998 -0.028,-2.241 0.006,-3.482 0.067,-2.508 0.049,-5.014 -0.747,-7.421 -0.302,-0.911 -1.057,-0.967 -1.614,-0.486 -0.092,-1.75 -0.229,-3.486 -0.262,-5.224 -0.049,-2.49 -0.044,-4.982 -0.021,-7.473 0.015,-1.632 0.088,-3.262 0.163,-4.892 0.119,-2.583 0.199,-5.169 0.412,-7.744 0.188,-2.272 0.574,-4.527 0.793,-6.797 0.083,-0.863 0.044,-1.766 -0.115,-2.618 -0.5,-2.682 -0.204,-5.339 0,-8.021 0.249,-3.262 0.244,-6.543 0.431,-9.811 0.341,-5.955 0.75,-11.905 1.116,-17.859 0.429,-6.957 1.046,-13.892 2.024,-20.799 0.531,-3.747 0.878,-7.525 1.151,-11.301 0.151,-2.097 -0.095,-4.22 -0.029,-6.327 0.072,-2.301 0.347,-4.595 0.442,-6.897 0.104,-2.505 0.166,-5.015 0.115,-7.521 -0.019,-0.984 0.221,-1.331 1.213,-1.437 4.117,-0.44 8.247,-0.824 12.325,-1.516 1.89,-0.321 3.659,-1.33 5.503,-1.971 1.437,-0.499 2.811,-0.982 3.717,-2.384 0.347,-0.535 1.187,-0.739 1.778,-1.131 1.578,-1.049 3.193,-2.052 4.703,-3.194 2.469,-1.868 4.935,-3.752 7.282,-5.77 4.291,-3.689 8.604,-7.38 12.088,-11.885 2.265,-2.928 4.622,-5.821 6.538,-8.973 2.019,-3.324 3.575,-6.91 4.363,-10.806 0.332,-1.646 0.594,-3.254 0.717,-4.929 0.117,-1.598 0.807,-3.15 0.98,-4.751 0.359,-3.323 0.58,-6.663 0.784,-10.001 0.129,-2.104 0.232,-4.22 0.156,-6.324 -0.142,-3.929 -0.484,-7.85 -0.626,-11.779 -0.155,-4.289 -0.399,-8.592 -0.188,-12.87 0.18,-3.675 0.844,-7.34 1.497,-10.972 0.371,-2.073 1.188,-4 3.022,-5.38 1.249,-0.94 0.628,-2.765 -0.792,-3.497 -1.503,-0.776 -2.857,-1.855 -4.218,-2.88 -0.871,-0.658 -1.658,-1.433 -2.437,-2.202 -0.419,-0.414 -0.764,-0.91 -1.107,-1.394 -2.127,-2.999 -3.423,-6.307 -4.261,-9.91 -0.755,-3.242 -0.656,-6.473 -0.656,-9.708 -10e-4,-3.822 0.219,-7.65 0.483,-11.466 0.254,-3.676 0.741,-7.277 1.909,-10.858 1.624,-4.983 3.952,-9.573 6.307,-14.204 1.885,-3.708 4.59,-6.5 7.81,-9.048 2.717,-2.15 5.282,-4.501 8.296,-6.228 1.428,-0.816 3.014,-1.472 4.611,-1.849 2.138,-0.504 2.278,-0.454 2.145,-2.669 -0.297,-4.966 -0.667,-9.928 -0.916,-14.895 -0.082,-1.626 0.071,-3.269 0.197,-4.898 0.247,-3.178 0.472,-6.361 0.852,-9.525 0.503,-4.183 2.291,-7.929 4.079,-11.696 1.653,-3.485 3.049,-7.1 4.438,-10.703 1.003,-2.598 1.951,-5.233 2.658,-7.922 0.51,-1.942 0.66,-3.992 0.832,-6.007 0.251,-2.938 0.502,-5.887 0.527,-8.832 0.033,-3.949 0.122,-7.931 -0.312,-11.843 -0.555,-5.013 -1.178,-10.082 -3.037,-14.823 -1.021,-2.607 -2.501,-5.038 -3.82,-7.524 -0.611,-1.152 -1.196,-2.364 -2.034,-3.341 -2.525,-2.946 -5.028,-5.933 -7.804,-8.63 -2.414,-2.345 -5.128,-4.398 -7.82,-6.434 -2.695,-2.037 -5.448,-4.019 -8.318,-5.795 -3.209,-1.983 -6.575,-3.715 -9.882,-5.539 -0.941,-0.518 -1.88,-1.074 -2.882,-1.441 -5.652,-2.074 -11.317,-4.108 -16.987,-6.131 -2.557,-0.912 -5.187,-1.641 -7.692,-2.675 -4.83,-1.995 -9.897,-2.879 -15.016,-3.652 -0.881,-0.133 -1.779,-0.7 -2.5,-1.278 -2.506,-2.015 -5.35,-3.257 -8.45,-3.979 -2.096,-0.488 -4.213,-0.892 -6.285,-1.462 -2.564,-0.705 -5.145,-0.828 -7.784,-0.711 -1.935,0.087 -3.895,-0.242 -5.82,-0.092 -2.622,0.205 -5.218,0.716 -7.831,1.045 -1.503,0.189 -3.023,0.423 -4.528,0.382 -4.547,-0.122 -8.845,1.01 -13.159,2.249 -4.982,1.431 -9.744,3.352 -14.289,5.83 -0.239,0.131 -0.582,0.352 -0.762,0.272 -2.42,-1.064 -4.375,0.41 -6.245,1.378 -4.391,2.269 -8.781,4.61 -12.879,7.359 -4.39,2.944 -8.41,6.437 -12.659,9.599 -3.511,2.612 -6.667,5.591 -9.309,9.052 -2.651,3.475 -5.167,7.062 -7.56,10.718 -1.541,2.353 -2.868,4.864 -4.085,7.404 -1.493,3.117 -2.878,6.296 -4.115,9.524 -1.424,3.715 -2.681,7.496 -3.907,11.282 -0.306,0.946 -0.196,2.023 -0.307,3.036 -0.206,1.882 -0.563,3.757 -0.623,5.642 -0.095,2.972 -0.058,5.952 0.054,8.923 0.043,1.132 0.449,2.249 0.687,3.373 0.066,0.312 0.204,0.634 0.176,0.938 -0.292,3.17 0.911,6.032 1.821,8.953 0.994,3.193 1.975,6.389 2.992,9.575 1.811,5.674 3.716,11.322 5.438,17.024 0.813,2.694 1.134,5.538 1.966,8.225 0.922,2.979 0.845,5.959 0.594,8.972 -0.054,0.653 -0.434,1.272 -0.581,1.924 -0.17,0.753 -0.262,1.526 -0.361,2.292 -0.117,0.898 -0.074,1.84 -0.339,2.689 -0.397,1.27 0.087,2.152 1.428,2.073 2.971,-0.176 5.832,0.451 8.579,1.396 4.436,1.527 8.062,4.339 10.98,7.973 1.74,2.167 3.372,4.455 4.77,6.853 2.177,3.732 3.764,7.721 4.64,11.997 0.348,1.701 0.522,3.428 0.937,5.117 0.437,1.777 0.963,3.556 1.15,5.366 0.368,3.56 0.623,7.137 0.754,10.713 0.278,7.59 -1.349,14.925 -3.299,22.183 -1.771,6.593 -5.857,11.268 -12.266,13.736 -1.23,0.473 -2.66,0.431 -4,0.61 -0.433,0.059 -0.969,-0.078 -1.282,0.134 -0.324,0.22 -0.683,0.816 -0.601,1.142 1.076,4.294 1.404,8.559 0.777,13.011 -1.178,8.373 -2.733,16.712 -3.032,25.19 -0.135,3.827 -0.25,7.664 -0.124,11.489 0.098,3 0.908,5.871 2.186,8.647 1.012,2.199 1.547,4.613 2.39,6.896 1.963,5.316 4.097,10.566 6.935,15.485 1.167,2.022 2.611,3.882 3.889,5.843 0.341,0.524 0.434,1.225 0.813,1.711 1.897,2.428 3.735,4.919 5.821,7.179 1.831,1.984 3.904,3.759 5.979,5.496 1.464,1.224 3.098,2.249 4.68,3.329 1.971,1.347 3.92,2.734 5.965,3.961 1.517,0.911 3.115,1.75 4.776,2.346 3.336,1.196 6.696,2.379 10.13,3.235 2.712,0.678 5.539,0.959 8.333,1.219 1.447,0.135 2.935,-0.157 4.578,-0.268"
             style="fill:#000000;fill-opacity:1;fill-rule:nonzero;stroke:none"
             id="path22"
             inkscape:connector-curvature="0" /></g><g
           id="g24"
           transform="translate(330.6084,155.5596)"><path
             d="m 0,0 c -0.565,-0.687 -0.968,-1.673 -1.623,-1.888 -2.481,-0.813 -5.149,-0.495 -7.066,1.063 -1.945,1.58 -3.674,3.624 -4.631,6.117 -0.729,1.895 -1.603,3.735 -2.322,5.635 -1.58,4.18 -3.151,8.399 -3.652,12.855 -0.584,5.182 -0.776,10.406 -1.242,15.603 -0.31,3.456 -0.794,6.896 -1.211,10.343 -0.337,2.782 -0.886,5.554 -0.995,8.345 -0.208,5.318 -0.746,10.51 -3.502,15.225 -0.836,1.432 -1.629,2.89 -2.413,4.351 -1.8,3.352 -8.016,3.739 -10.233,0.655 -1.43,-1.991 -1.081,-3.975 -0.101,-5.975 0.37,-0.755 0.775,-1.54 1.802,-1.53 1.069,0.01 1.977,0.433 2.49,1.377 0.527,0.969 0.928,2.008 1.356,3.027 0.295,0.703 0.716,1.244 1.531,0.867 2.603,-1.204 4.416,-3.268 5.24,-5.927 0.831,-2.687 1.586,-5.507 1.672,-8.29 0.155,-5.016 -0.175,-10.049 -0.377,-15.072 -0.122,-3.027 -0.564,-6.05 -0.544,-9.072 0.029,-4.702 0.365,-9.402 0.503,-14.105 0.122,-4.171 0.848,-8.244 2.064,-12.209 1.133,-3.697 3.308,-6.833 5.829,-9.74 4.436,-5.111 9.751,-7.795 16.646,-5.989 1.515,0.396 3.18,0.742 4.032,2.316 1.229,2.272 1.1,4.558 0.048,6.889 C 2.393,6.885 0.424,7.512 -1.543,6.725 -2.707,6.259 -3.395,5.399 -3.46,4.087 -3.518,2.959 -3.344,1.919 -2.346,1.246 -1.73,0.832 -1.032,0.542 0,0 m -4.081,-0.044 c -0.273,0.926 -0.469,1.642 -0.695,2.349 -0.62,1.934 0.037,3.632 1.066,5.2 0.297,0.452 0.927,0.773 1.47,0.959 1.67,0.569 3.421,1.554 5.036,-0.008 C 3.432,7.843 3.893,6.993 4.269,6.176 5.376,3.763 6.377,1.251 5.56,-1.433 4.705,-4.239 3.38,-6.332 0.134,-6.397 -1.843,-6.437 -3.806,-7 -5.785,-7.077 c -1.149,-0.045 -2.358,0.281 -3.467,0.655 -3.224,1.088 -6.005,2.82 -8.225,5.504 -2.018,2.439 -3.86,4.973 -5.3,7.783 -0.558,1.088 -0.969,2.26 -1.367,3.42 -1.466,4.284 -2.063,8.74 -2.364,13.225 -0.539,8.036 -0.704,16.074 -0.132,24.128 0.335,4.712 0.491,9.453 0.387,14.174 -0.05,2.26 -0.634,4.602 -1.45,6.724 -0.618,1.607 -1.899,3.002 -3.056,4.343 -0.799,0.927 -1.436,0.707 -1.819,-0.452 -0.755,-2.281 -2.243,-3.638 -4.696,-3.553 -0.743,0.025 -1.703,0.399 -2.159,0.95 -2.173,2.616 -2.471,6.8 -0.359,9.397 0.769,0.944 2.18,1.367 3.299,2.025 0.301,0.177 0.589,0.394 0.912,0.511 0.815,0.296 1.647,0.769 2.475,0.772 2.483,0.007 4.315,-1.271 5.499,-3.403 1.466,-2.642 3.024,-5.255 4.218,-8.021 1.711,-3.961 2.107,-8.207 2.226,-12.507 0.074,-2.694 0.605,-5.372 0.905,-8.061 0.359,-3.206 0.723,-6.412 1.018,-9.624 0.207,-2.26 0.268,-4.533 0.458,-6.795 0.32,-3.846 0.548,-7.708 1.093,-11.524 0.329,-2.305 1.091,-4.566 1.827,-6.79 0.797,-2.408 1.839,-4.735 2.682,-7.129 0.979,-2.777 2.663,-5.093 4.646,-7.185 1.115,-1.177 2.76,-1.194 4.453,-1.534"
             style="fill:#000000;fill-opacity:1;fill-rule:nonzero;stroke:none"
             id="path26"
             inkscape:connector-curvature="0" /></g><g
           id="g28"
           transform="translate(217.1909,211.7139)"><path
             d="m 0,0 c 0.046,0.003 0.092,0.006 0.138,0.01 0,0.759 -0.023,1.518 0.005,2.276 0.08,2.272 -0.04,4.579 0.331,6.805 0.429,2.573 0.866,5.233 2.5,7.42 1.03,1.379 2.069,2.782 3.314,3.952 0.372,0.349 1.497,0.076 2.19,-0.163 0.37,-0.128 0.845,-0.85 0.775,-1.205 -0.357,-1.805 0.531,-3.1 1.576,-4.334 0.663,-0.782 2.873,-1.198 3.572,-0.774 1.321,0.804 2.207,3.287 1.579,4.744 -1.034,2.402 -2.756,4.033 -5.405,4.59 C 6.429,24.193 2.993,22.048 0.924,18.88 -0.019,17.436 -0.314,15.575 -0.96,13.926 -1.821,11.729 -2.418,9.491 -2.366,7.105 -2.355,6.594 -2.463,6.069 -2.583,5.567 -3.009,3.793 -3.587,2.045 -3.878,0.251 c -0.471,-2.909 -0.823,-5.842 -1.107,-8.776 -0.238,-2.456 -0.392,-4.928 -0.431,-7.395 -0.054,-3.492 0.084,-6.986 0.037,-10.478 -0.027,-1.913 -0.209,-3.829 -0.421,-5.731 -0.548,-4.903 -1.123,-9.804 -1.744,-14.698 -0.407,-3.208 -1.637,-6.159 -3.183,-8.962 -1.606,-2.912 -4.156,-4.541 -7.378,-5.365 -2.004,-0.513 -3.468,0.594 -5.087,1.218 -0.495,0.192 -0.73,1.054 -1.085,1.61 0.414,0.262 0.837,0.511 1.239,0.788 0.346,0.238 0.647,0.545 1.005,0.761 3.04,1.836 2.766,6.177 0.016,8.107 -0.438,0.309 -1.196,0.384 -1.746,0.271 -2.078,-0.427 -3.043,-2.137 -4.063,-3.757 -1.196,-1.902 -0.898,-3.77 0.076,-5.646 0.979,-1.888 2.742,-2.847 4.54,-3.665 1.313,-0.596 2.765,-1.207 4.166,-1.232 4.079,-0.073 7.14,1.935 9.315,5.318 0.926,1.44 1.887,2.874 2.625,4.41 1.757,3.658 3.472,7.341 5.052,11.078 1.615,3.823 2.305,7.868 2.386,12.015 0.103,5.262 0.338,10.524 0.287,15.785 C 0.575,-9.394 0.219,-4.697 0,0 m -21.083,-58.595 c 1.486,-0.714 4.589,0.138 6.199,1.348 2.556,1.92 3.58,4.766 4.67,7.488 0.764,1.909 0.811,4.107 1.169,6.178 0.277,1.606 0.563,3.212 0.799,4.824 0.173,1.176 0.319,2.36 0.392,3.544 0.205,3.37 0.843,6.69 0.62,10.119 -0.203,3.101 0.206,6.24 0.314,9.364 0.016,0.468 -0.219,0.947 -0.201,1.416 0.071,1.861 0.182,3.72 0.305,5.579 0.168,2.535 0.287,5.077 0.575,7.599 0.138,1.21 0.658,2.371 0.931,3.572 0.671,2.94 1.414,5.843 1.772,8.875 0.331,2.801 1.023,5.811 2.47,8.169 2.117,3.453 5.15,6.295 9.733,6.163 2.157,-0.063 4.029,-0.951 5.795,-2.247 2.076,-1.526 3.232,-3.379 3.346,-5.98 0.095,-2.153 -1.003,-4.342 -2.898,-5.229 -1.354,-0.635 -4.393,-0.193 -5.605,1.364 -0.785,1.01 -1.47,1.932 -1.581,3.252 -0.041,0.49 -0.45,0.949 -0.691,1.422 C 6.545,17.92 5.947,17.712 5.591,17.296 3.05,14.323 2.232,10.662 2.046,6.94 1.816,2.376 1.957,-2.21 2.039,-6.784 c 0.059,-3.339 0.296,-6.674 0.423,-10.012 0.037,-0.954 -0.043,-1.911 -0.058,-2.867 -0.041,-2.704 0.003,-5.411 -0.129,-8.11 -0.267,-5.428 -1.056,-10.775 -3.293,-15.784 -1.832,-4.1 -3.645,-8.227 -5.793,-12.165 -1.257,-2.303 -2.862,-4.6 -4.835,-6.286 -2.479,-2.117 -5.608,-3.195 -9.015,-2.234 -1.479,0.417 -3.052,0.763 -4.339,1.543 -2.927,1.77 -5.151,4.213 -5.099,7.896 0.037,2.61 1.184,4.768 3.262,6.478 0.794,0.653 1.392,1.491 2.479,1.736 2.017,0.456 3.76,-0.228 5.008,-1.881 1.594,-2.11 1.527,-5.66 -0.068,-7.689 -0.607,-0.774 -1.115,-1.625 -1.665,-2.436"
             style="fill:#000000;fill-opacity:1;fill-rule:nonzero;stroke:none"
             id="path30"
             inkscape:connector-curvature="0" /></g></g></g></g></svg>