<?xml version="1.0" encoding="UTF-8" standalone="no"?>
<!-- Created with Inkscape (http://www.inkscape.org/) -->

<svg
   xmlns:dc="http://purl.org/dc/elements/1.1/"
   xmlns:cc="http://creativecommons.org/ns#"
   xmlns:rdf="http://www.w3.org/1999/02/22-rdf-syntax-ns#"
   xmlns:svg="http://www.w3.org/2000/svg"
   xmlns="http://www.w3.org/2000/svg"
   xmlns:sodipodi="http://sodipodi.sourceforge.net/DTD/sodipodi-0.dtd"
   xmlns:inkscape="http://www.inkscape.org/namespaces/inkscape"
   version="1.1"
   id="svg2"
   xml:space="preserve"
   width="662.40002"
   height="676.47998"
   viewBox="0 0 662.40002 676.47998"
   sodipodi:docname="Violin I _ II.svg"
   inkscape:version="0.92.4 (5da689c313, 2019-01-14)"><metadata
     id="metadata8"><rdf:RDF><cc:Work
         rdf:about=""><dc:format>image/svg+xml</dc:format><dc:type
           rdf:resource="http://purl.org/dc/dcmitype/StillImage" /><dc:title></dc:title></cc:Work></rdf:RDF></metadata><defs
     id="defs6"><clipPath
       clipPathUnits="userSpaceOnUse"
       id="clipPath18"><path
         d="M 0,507.36 H 496.8 V 0 H 0 Z"
         id="path16"
         inkscape:connector-curvature="0" /></clipPath></defs><sodipodi:namedview
     pagecolor="#ffffff"
     bordercolor="#666666"
     borderopacity="1"
     objecttolerance="10"
     gridtolerance="10"
     guidetolerance="10"
     inkscape:pageopacity="0"
     inkscape:pageshadow="2"
     inkscape:window-width="640"
     inkscape:window-height="480"
     id="namedview4"
     showgrid="false"
     inkscape:zoom="0.34886472"
     inkscape:cx="24.490869"
     inkscape:cy="338.23999"
     inkscape:window-x="0"
     inkscape:window-y="0"
     inkscape:window-maximized="0"
     inkscape:current-layer="g10" /><g
     id="g10"
     inkscape:groupmode="layer"
     inkscape:label="Violin I _ II"
     transform="matrix(1.3333333,0,0,-1.3333333,0,676.48)"><g
       id="g12"><g
         id="g14"
         clip-path="url(#clipPath18)"><g
           id="g20"
           transform="translate(416.3922,229.9339)"><path
             d="M 0,0 C 0.065,0.19 0.13,0.381 0.195,0.571 -0.421,0.754 -1.036,0.937 -1.652,1.118 -1.698,0.976 -1.744,0.833 -1.791,0.69 -1.193,0.461 -0.597,0.23 0,0 m -62.043,28.852 c -0.086,-0.131 -0.173,-0.262 -0.259,-0.393 0.437,-0.16 0.873,-0.319 1.31,-0.48 0.038,0.095 0.075,0.19 0.112,0.285 -0.388,0.196 -0.775,0.392 -1.163,0.588 m -282.539,116.174 c 1.277,-1.3 1.277,-1.3 3.06,-1.065 -1.216,0.424 -2.138,0.745 -3.06,1.065 M 15.029,-6.862 c -0.066,-0.174 -0.132,-0.348 -0.198,-0.521 0.904,-0.385 1.479,-1.581 2.661,-1.281 0.086,0.199 0.173,0.397 0.259,0.596 -0.907,0.402 -1.814,0.803 -2.722,1.206 m -6.615,2.988 0.273,0.551 C 6.479,-2.367 4.27,-1.412 2.062,-0.456 1.99,-0.622 1.918,-0.787 1.847,-0.952 4.036,-1.926 6.225,-2.9 8.414,-3.874 m -132.272,-58.293 c 1.155,1.057 2.31,2.112 3.632,3.321 -1.85,0.369 -3.587,-1.071 -3.632,-3.321 m 9.422,8.324 c -0.188,0.227 -0.377,0.453 -0.565,0.679 -1.751,-0.913 -3.138,-2.295 -4.711,-3.841 0.507,-0.201 0.907,-0.474 1.018,-0.386 1.443,1.153 2.846,2.357 4.258,3.548 m 6.855,6.495 c -2.199,-1.282 -4.214,-2.779 -5.553,-5.017 2.254,1.21 4.187,2.788 5.553,5.017 M -3.353,1.33 c 0.062,0.153 0.123,0.307 0.184,0.461 -2.661,2.231 -10.77,5.895 -12.744,5.698 4.242,-2.08 8.401,-4.119 12.56,-6.159 m -144.393,-35.888 c 2.312,-2.163 3.602,-4.773 6.25,-6.315 -0.104,3.033 -2.941,5.93 -6.25,6.315 m -2.078,-11.804 c -0.118,0.51 -0.211,1.028 -0.362,1.529 -0.179,0.6 -0.407,1.185 -0.622,1.801 0.297,0.341 0.538,0.656 0.821,0.928 0.261,0.253 0.567,0.46 0.866,0.698 2.487,-3.959 5.273,-4.966 7.714,-2.626 -2.665,2.984 -5.337,5.977 -8.005,8.967 -1.454,-0.309 -2.022,-1.345 -2.551,-2.423 -1.712,-3.487 0.441,-6.123 2.139,-8.874 M -252.566,103.39 c -0.995,0 -1.747,-0.207 -2.298,0.037 -2.034,0.905 -4.019,1.929 -5.992,2.966 -2.532,1.328 -4.974,2.844 -7.567,4.036 -2.667,1.226 -5.48,2.13 -8.208,3.229 -3.021,1.218 -6.013,2.508 -9.027,3.746 -1.176,0.483 -2.386,0.885 -3.565,1.363 -4.724,1.915 -9.432,3.871 -14.169,5.754 -1.321,0.526 -2.721,0.852 -4.085,1.27 2.099,-1.381 4.283,-2.496 6.532,-3.457 3.369,-1.44 6.793,-2.751 10.176,-4.158 3.52,-1.463 6.984,-3.065 10.536,-4.442 5.791,-2.245 11.537,-4.569 17.108,-7.339 3.74,-1.858 7.263,-4.291 11.764,-4.953 -0.479,0.774 -0.875,1.414 -1.205,1.948 m -64.975,80.485 c -0.45,0.096 -0.986,0.273 -1.53,0.309 -0.622,0.041 -1.283,0.068 -1.873,-0.093 -4.922,-1.343 -7.267,-5.969 -7.445,-9.709 -0.096,-2.03 0.468,-2.595 2.425,-2.567 2.848,0.042 6.686,2.844 7.816,5.508 1.07,2.523 0.968,5.452 2.728,7.724 0.013,0.017 -0.08,0.118 -0.159,0.231 -1.113,0.347 -0.954,-1.031 -1.962,-1.403 m -22.694,-40.901 c 0.509,-0.395 0.776,-0.686 1.106,-0.845 2.662,-1.276 5.33,-2.541 8.007,-3.784 3.753,-1.743 7.668,-3.201 11.238,-5.259 5.099,-2.94 10.759,-4.405 16.076,-6.746 1.886,-0.83 3.882,-1.404 5.784,-2.2 2.255,-0.944 4.439,-2.061 6.697,-2.996 4.334,-1.794 8.706,-3.492 13.045,-5.27 1.846,-0.757 3.604,-1.747 5.481,-2.403 4.523,-1.579 8.934,-3.348 12.989,-5.957 1.525,-0.982 3.195,-1.814 5.155,-1.802 -0.355,0.579 -0.759,1.075 -1.277,1.369 -5.847,3.315 -12.091,5.759 -18.306,8.26 -4.211,1.694 -8.491,3.22 -12.671,4.984 -5.788,2.443 -11.503,5.055 -17.263,7.564 -5.552,2.417 -11.249,4.54 -16.647,7.259 -6,3.021 -12.261,5.34 -18.471,7.816 -0.193,0.077 -0.443,0.01 -0.943,0.01 m 49.389,71.078 c 2.248,-1.545 4.477,-1.688 6.782,-0.473 0.136,0.071 0.307,0.08 0.462,0.115 2.341,0.53 3.949,2.029 5.05,4.053 0.341,0.627 0.37,1.49 0.343,2.238 -0.099,2.616 -1.759,4.082 -3.894,5.268 -3.183,1.768 -7.631,0.047 -8.392,-3.497 -0.324,-1.511 -0.322,-3.194 -0.012,-4.706 0.236,-1.153 0.392,-2.115 -0.339,-2.998 m 171.838,-274.449 c -0.897,-0.839 -1.697,-1.587 -2.497,-2.334 -0.83,-0.775 -0.727,-1.518 0.069,-2.242 2.535,-2.298 5.044,-4.623 7.612,-6.883 1.61,-1.418 3.295,-2.755 4.967,-4.101 3.576,-2.88 7.166,-5.741 10.889,-8.723 0.858,0.946 1.572,1.732 2.348,2.587 -0.606,0.552 -0.97,0.985 -1.423,1.282 -3.78,2.49 -6.493,6.093 -9.658,9.222 -3.893,3.849 -7.472,8.038 -12.307,11.192 m 27.312,-18.349 c -1.125,1.252 -2.184,2.318 -3.116,3.487 -2.127,2.669 -4.121,5.449 -6.304,8.071 -2.388,2.869 -4.859,5.677 -7.432,8.378 -1.346,1.414 -2.991,2.542 -4.66,3.932 -1.516,-1.478 -2.902,-2.832 -4.38,-4.273 1.465,-1.079 2.888,-1.87 3.986,-2.983 3.745,-3.795 7.43,-7.651 11.027,-11.587 2.111,-2.311 4.375,-4.409 6.949,-6.175 1.529,-1.05 1.597,-1.042 3.064,0.239 0.238,0.206 0.437,0.456 0.866,0.911 m -20.042,24.866 c 1.068,-0.977 2.055,-1.768 2.909,-2.683 2.178,-2.334 4.362,-4.669 6.42,-7.108 1.948,-2.31 3.698,-4.787 5.612,-7.128 1.752,-2.143 3.594,-4.214 5.429,-6.287 0.234,-0.266 0.667,-0.356 1.104,-0.578 1.457,1.358 2.841,2.647 4.247,3.958 -0.913,1.139 -1.659,2.175 -2.514,3.113 -2.896,3.178 -5.916,6.248 -8.724,9.501 -2.338,2.71 -4.43,5.632 -6.66,8.437 -0.821,1.033 -1.725,2.001 -2.688,3.11 -1.797,-1.517 -3.357,-2.833 -5.135,-4.335 m -262.995,198.227 c 0.354,0.981 0.493,1.949 1.009,2.634 0.531,0.708 1.659,0.995 2.12,1.722 1.245,1.964 1.962,4.161 2.149,6.51 0.071,0.902 -0.273,1.572 -1.024,1.996 -1.864,1.056 -3.704,2.174 -5.642,3.076 -2.643,1.229 -3.347,1.023 -4.95,-1.38 -2.132,-3.194 -4.82,-5.69 -8.345,-7.273 -0.438,-0.197 -0.751,-0.675 -1.24,-1.133 4.777,-3.586 10.268,-4.601 15.923,-6.152 M 18.68,-2.537 c 0,-0.691 -0.096,-1.261 0.015,-1.787 0.844,-4.018 1.285,-8.01 0.032,-12.053 -0.182,-0.587 0.203,-1.802 0.687,-2.068 2.709,-1.491 5.452,-2.984 8.335,-4.075 2.562,-0.968 4.307,-0.117 5.446,2.429 0.836,1.866 1.296,3.907 1.849,5.892 0.571,2.051 -0.293,3.721 -1.926,4.775 -3.673,2.371 -7.462,4.562 -11.216,6.807 -0.939,0.561 -1.94,0.587 -3.222,0.08 M -97.919,40.384 c 1.743,-0.95 3.218,-2.285 5.315,-2.489 0.855,-0.082 1.713,-0.407 2.51,-0.756 4.738,-2.072 9.469,-4.157 14.179,-6.288 4.354,-1.97 8.655,-4.059 13.024,-5.994 6.269,-2.774 12.593,-5.422 18.868,-8.182 8.687,-3.821 17.352,-7.692 26.024,-11.547 3.208,-1.426 6.431,-2.819 9.603,-4.318 2.436,-1.152 4.805,-2.445 7.204,-3.674 3.125,-1.603 6.244,-3.217 9.379,-4.802 2.7,-1.365 5.409,-2.717 8.14,-4.02 0.394,-0.188 0.934,-0.069 1.962,-0.12 -0.761,0.72 -1.074,1.038 -1.409,1.331 -4.227,3.701 -9.555,5.389 -14.45,7.858 -2.266,1.141 -4.717,1.91 -7.001,3.017 -6.525,3.165 -12.999,6.432 -19.511,9.623 -1.42,0.697 -2.993,1.103 -4.359,1.881 -6.181,3.52 -12.766,6.105 -19.378,8.647 -1.472,0.566 -2.866,1.339 -4.276,2.054 -1.56,0.792 -3.057,1.723 -4.657,2.424 -3.064,1.344 -6.183,2.565 -9.275,3.845 -5.303,2.195 -10.609,4.385 -15.905,6.598 -4.539,1.897 -9.632,2.342 -13.774,5.295 -0.676,0.482 -1.487,0.587 -2.213,-0.383 m -50.701,-89.388 c -0.162,-0.133 -0.324,-0.265 -0.486,-0.397 2.115,-3.357 4.16,-6.76 6.363,-10.058 2.563,-3.836 5.883,-7.08 8.122,-11.224 3.084,-5.704 4.576,-11.523 3.409,-17.95 -0.256,-1.406 -0.777,-2.013 -2.177,-2.014 -1.896,-10e-4 -3.569,0.773 -4.798,2.167 -0.494,0.56 -0.533,1.565 -0.668,2.386 -0.142,0.857 0.014,1.787 -0.247,2.593 -0.86,2.664 -3.757,3.312 -5.553,1.212 -1.576,-1.843 -2.152,-4.11 -1.762,-6.483 0.142,-0.862 0.763,-1.772 1.414,-2.4 2.908,-2.803 6.634,-2.796 10.326,-2.74 0.513,0.008 1.164,0.289 1.505,0.666 1.863,2.062 3.884,4.053 4.526,6.91 0.779,3.475 0.495,6.999 0.265,10.493 -0.145,2.203 -0.238,4.605 -1.168,6.522 -1.98,4.082 -4.87,7.593 -8.392,10.536 -2.323,1.94 -4.626,3.905 -6.871,5.933 -1.336,1.208 -2.542,2.561 -3.808,3.848 m -9.302,27.333 c 2.568,-3.282 5.007,-6.357 7.394,-9.474 0.914,-1.192 1.828,-2.113 3.547,-1.896 0.719,0.09 1.622,-0.228 2.25,-0.647 2.903,-1.936 5.035,-4.442 5.048,-8.153 0.004,-1.19 0.269,-2.18 1.006,-3.084 1.607,-1.971 3.146,-3.997 4.808,-5.918 2.391,-2.761 4.865,-5.453 7.317,-8.163 0.2,-0.222 0.506,-0.348 0.984,-0.664 0.981,1.164 1.937,2.299 3.021,3.584 -8.802,13.4 -19.96,25.314 -29.65,38.565 -1.961,-1.421 -3.678,-2.666 -5.725,-4.15 m -213.044,168.535 c 0.882,-0.446 1.495,-0.822 2.155,-1.079 7.136,-2.771 14.274,-5.535 21.422,-8.273 2.007,-0.769 4.201,-1.18 6.04,-2.227 3.565,-2.029 7.377,-3.373 11.187,-4.781 2.393,-0.884 4.763,-1.843 7.092,-2.881 8.227,-3.666 16.45,-7.329 24.908,-10.456 4.477,-1.656 8.811,-3.701 13.198,-5.598 4.093,-1.769 8.152,-3.616 12.259,-5.353 4.248,-1.797 8.555,-3.457 12.8,-5.262 3.147,-1.339 6.229,-2.832 9.358,-4.215 0.889,-0.392 1.843,-0.639 2.92,-1.004 -0.711,2.402 -2.124,3.279 -4.279,3.862 -2.973,0.805 -5.803,2.202 -8.617,3.513 -3.748,1.747 -7.382,3.741 -11.141,5.464 -2.605,1.195 -5.346,2.091 -8.01,3.161 -4.061,1.632 -8.131,3.245 -12.155,4.966 -4.171,1.783 -8.59,2.952 -12.57,5.223 -1.934,1.103 -3.997,1.993 -6.048,2.87 -1.304,0.558 -2.715,0.862 -4.04,1.375 -1.628,0.631 -3.217,1.362 -4.823,2.048 -4.978,2.128 -9.982,4.195 -14.925,6.398 -5.157,2.298 -10.251,4.736 -15.382,7.092 -1.666,0.765 -3.345,1.51 -5.049,2.188 -4.794,1.907 -9.604,3.774 -14.537,5.708 -0.53,-0.823 -1.075,-1.671 -1.763,-2.739 M 17.133,-14.757 c 0.778,1.048 0.063,1.551 -0.601,1.656 -2.466,0.395 -4.315,1.965 -6.415,3.08 -4.783,2.54 -9.637,4.947 -14.459,7.411 -1.845,0.943 -3.635,2.017 -5.539,2.82 -5.723,2.414 -11.292,5.163 -17.155,7.289 -5.065,1.836 -9.918,4.285 -14.783,6.633 -6.888,3.323 -13.872,6.418 -20.932,9.352 -4.27,1.774 -8.531,3.571 -12.754,5.453 -4.079,1.817 -8.081,3.805 -12.16,5.622 -1.735,0.773 -3.576,1.309 -5.375,1.934 -1.199,0.417 -2.422,0.77 -3.612,1.208 -0.955,0.352 -1.88,0.791 -2.994,1.266 -0.412,-0.834 -0.734,-1.489 -1.092,-2.218 3.009,-1.377 5.731,-2.691 8.509,-3.877 3.728,-1.593 7.516,-3.049 11.249,-4.634 5.125,-2.175 10.254,-4.343 15.323,-6.646 5.37,-2.441 11.151,-3.857 16.374,-6.655 1.545,-0.829 3.105,-1.638 4.706,-2.351 5.966,-2.656 11.952,-5.268 17.929,-7.898 3.131,-1.377 6.268,-2.746 9.391,-4.143 4.727,-2.115 9.448,-4.241 14.162,-6.386 2.825,-1.285 5.616,-2.646 8.449,-3.916 3.334,-1.494 6.694,-2.931 10.048,-4.378 0.565,-0.244 1.159,-0.418 1.731,-0.622 m -132.199,-36.139 c 1.967,2.294 4.567,3.505 6.255,5.951 -1.234,1.458 -2.392,2.76 -3.475,4.123 -2.128,2.677 -4.143,5.447 -6.331,8.073 -4.488,5.383 -9.065,10.692 -13.595,16.04 -1.838,2.169 -3.64,4.367 -5.478,6.534 -0.914,1.076 -1.749,2.262 -3.257,2.834 -0.688,-0.577 -1.377,-1.115 -2.018,-1.706 -0.689,-0.634 -1.333,-1.318 -1.982,-1.966 0.26,-0.368 0.385,-0.573 0.538,-0.754 2.681,-3.159 5.519,-6.2 8.017,-9.499 4.232,-5.587 8.278,-11.316 12.346,-17.026 2.4,-3.368 4.68,-6.82 7.04,-10.217 0.527,-0.758 1.164,-1.439 1.94,-2.387 m -1.302,-0.918 c -4.716,7.017 -9.073,13.962 -13.903,20.563 -4.818,6.583 -10.109,12.819 -15.38,19.444 -2.057,-1.71 -3.858,-3.206 -5.726,-4.758 0.379,-0.622 0.624,-1.119 0.955,-1.551 2.613,-3.416 5.213,-6.845 7.88,-10.219 1.817,-2.3 3.254,-4.909 5.653,-6.746 0.866,-0.662 1.531,-1.605 2.225,-2.469 1.844,-2.296 3.673,-4.605 5.473,-6.935 1.411,-1.828 2.725,-3.729 4.163,-5.533 1.365,-1.713 2.564,-3.59 4.347,-5.026 1.437,1.075 2.766,2.07 4.313,3.23 m -157.465,198.793 c -0.103,-0.09 -0.207,-0.179 -0.31,-0.268 0.778,-1.284 1.501,-2.604 2.342,-3.844 3.935,-5.807 8.148,-11.414 11.764,-17.451 3.359,-5.606 7.167,-10.944 10.797,-16.388 3.494,-5.241 6.923,-10.529 10.544,-15.682 3.941,-5.609 8.069,-11.086 12.115,-16.62 3.195,-4.372 6.477,-8.683 9.562,-13.131 3.631,-5.234 7.089,-10.589 10.633,-15.883 0.219,-0.326 0.546,-0.577 0.808,-0.876 0.89,-1.017 1.835,-1.993 2.644,-3.07 1.386,-1.845 2.481,-3.95 4.064,-5.594 3.145,-3.27 5.008,-7.379 7.584,-11.013 2.251,-3.177 4.197,-6.552 6.763,-9.532 2.232,-2.591 4.231,-5.396 6.179,-8.213 1.49,-2.157 2.625,-4.561 4.119,-6.716 3.41,-4.917 6.949,-9.745 10.425,-14.616 1.707,-2.392 3.392,-4.8 5.233,-7.408 1.625,1.146 3.155,2.224 4.798,3.383 -0.477,0.653 -0.836,1.165 -1.216,1.662 -3.818,5.005 -7.665,9.988 -11.443,15.024 -1.29,1.721 -2.26,3.694 -3.63,5.342 -3.512,4.221 -7.178,8.312 -10.759,12.476 -3.328,3.867 -6.674,7.718 -9.919,11.653 -2.181,2.645 -4.337,5.329 -6.261,8.161 -3.221,4.742 -6.236,9.623 -9.359,14.432 -3.035,4.673 -6.049,9.361 -9.16,13.983 -2.444,3.631 -5.028,7.169 -7.541,10.754 -0.959,1.368 -1.864,2.774 -2.844,4.126 -3.69,5.087 -7.667,9.989 -11.037,15.278 -4.457,6.994 -9.415,13.593 -14.489,20.124 -0.585,0.754 -1.169,1.51 -1.785,2.239 -3.449,4.076 -5.883,8.902 -9.505,12.852 -0.643,0.701 -1.189,1.494 -1.746,2.268 -2.931,4.076 -5.849,8.162 -8.786,12.233 -0.116,0.162 -0.385,0.212 -0.584,0.315 m -25.318,22.076 c 0.683,-0.596 1.248,-0.918 1.574,-1.401 1.422,-2.107 2.745,-4.281 4.162,-6.392 1.242,-1.85 2.478,-3.716 3.864,-5.457 3.976,-4.997 8.029,-9.934 12.047,-14.898 0.15,-0.185 0.258,-0.403 0.388,-0.603 1.6,-2.462 3.104,-4.993 4.821,-7.371 3.543,-4.906 7.218,-9.715 10.801,-14.592 2.168,-2.95 4.212,-5.992 6.406,-8.923 2.147,-2.868 4.484,-5.593 6.609,-8.476 2.694,-3.655 5.106,-7.526 7.914,-11.089 4.353,-5.521 8.532,-11.151 12.269,-17.108 2.079,-3.314 4.095,-6.676 6.34,-9.876 3.114,-4.439 6.482,-8.701 9.617,-13.126 2.754,-3.888 5.297,-7.924 8.017,-11.835 0.902,-1.298 2.13,-2.364 3.099,-3.621 2.712,-3.521 5.363,-7.09 8.047,-10.633 0.627,-0.826 1.358,-1.58 1.926,-2.443 3.902,-5.932 7.714,-11.923 11.673,-17.816 4.314,-6.424 8.748,-12.767 13.144,-19.136 0.95,-1.374 1.915,-2.742 2.954,-4.05 1.05,-1.322 1.954,-1.687 2.541,-1.077 0.93,0.968 0.082,1.821 -0.418,2.556 -2.873,4.222 -5.8,8.409 -8.719,12.6 -2.415,3.468 -4.871,6.908 -7.259,10.395 -1.442,2.103 -2.712,4.327 -4.193,6.402 -4.208,5.899 -8.503,11.736 -12.725,17.626 -1.253,1.749 -2.311,3.638 -3.573,5.38 -1.867,2.576 -3.906,5.029 -5.744,7.625 -2.023,2.858 -3.827,5.872 -5.866,8.719 -1.662,2.321 -3.621,4.428 -5.284,6.748 -3.756,5.237 -7.377,10.57 -11.114,15.822 -4.809,6.76 -9.684,13.472 -14.516,20.216 -2.183,3.048 -4.409,6.07 -6.475,9.196 -3.475,5.26 -6.84,10.593 -10.245,15.898 -2.501,3.895 -4.969,7.812 -7.498,11.69 -1.654,2.536 -3.415,5.001 -5.083,7.528 -3.78,5.723 -7.314,11.624 -11.362,17.15 -3.429,4.682 -7.42,8.955 -11.202,13.374 -1.075,1.255 -2.107,2.484 -1.981,4.693 -1.829,-1.365 -3.308,-2.467 -4.956,-3.695 m 85.159,-72.235 c 0.505,0.48 0.832,0.801 1.169,1.109 0.553,0.506 1.076,1.053 1.678,1.492 0.77,0.561 1.646,0.978 2.405,1.554 3.037,2.304 6.456,3.731 10.114,4.743 4.73,1.31 9.539,1.964 14.422,1.812 4.372,-0.136 8.747,-0.445 13.102,-0.868 3.245,-0.315 6.446,-1.096 9.691,-1.384 5.124,-0.454 9.697,-2.461 14.186,-4.699 4.096,-2.042 7.573,-4.953 10.962,-8.028 2.567,-2.327 4.915,-4.797 6.857,-7.628 3.158,-4.603 6.143,-9.324 9.279,-13.944 1.476,-2.174 2.947,-4.402 4.749,-6.292 2.79,-2.926 5.484,-6.029 9.217,-7.878 2.7,-1.338 5.445,-2.597 7.755,-4.599 0.48,-0.417 1.018,-0.774 1.563,-1.105 1.883,-1.142 3.78,-2.261 5.812,-3.473 0.879,2.553 1.329,4.831 0.633,7.225 -1.086,0.452 -2.226,0.815 -3.256,1.38 -1.796,0.984 -3.566,2.032 -5.272,3.164 -2.307,1.532 -4.872,2.858 -6.749,4.823 -4.554,4.77 -8.757,9.836 -12.368,15.425 -3.103,4.802 -6.556,9.45 -10.387,13.684 -3.452,3.816 -7.505,7.131 -11.534,10.366 -2.144,1.722 -4.78,2.846 -7.231,4.171 -5.003,2.702 -10.166,5.096 -15.833,5.92 -7.695,1.119 -15.439,1.303 -23.117,-0.178 -3.592,-0.693 -7.2,-1.49 -10.65,-2.68 -4.57,-1.576 -9.069,-3.361 -13.111,-6.188 -2.247,-1.571 -4.841,-2.646 -6.813,-4.945 0.87,-0.951 1.758,-1.92 2.727,-2.979 m 66.833,-106.991 c -1.468,1.7 -2.684,3.062 -3.849,4.466 -2.129,2.567 -4.855,4.608 -6.576,7.542 -0.519,0.886 -1.204,1.679 -1.856,2.478 -2.964,3.633 -6.356,6.878 -8.962,10.853 -2.598,3.96 -5.753,7.552 -8.636,11.327 -1.597,2.091 -3.087,4.265 -4.711,6.333 -3.145,4.005 -6.38,7.939 -9.52,11.947 -1.759,2.245 -3.372,4.604 -5.104,6.87 -3.624,4.742 -7.54,9.284 -10.869,14.223 -4.768,7.076 -10.165,13.674 -15.119,20.608 -4.76,6.661 -10.067,12.941 -15.28,19.268 -2.633,3.196 -5.361,6.381 -7.358,9.95 -3.468,6.2 -8.373,11.208 -12.72,16.681 -2.273,2.861 -4.658,5.633 -6.977,8.459 -2.116,2.58 -4.083,5.295 -6.345,7.738 -3.651,3.944 -6.657,8.365 -9.553,12.832 -2.926,4.513 -5.781,9.051 -9.403,13.179 -0.971,-0.42 -1.967,-0.852 -3.135,-1.358 0.522,-1.085 0.858,-2.08 1.429,-2.914 1.532,-2.239 3.151,-4.42 4.762,-6.603 1.741,-2.36 4.281,-4.041 5.653,-6.73 0.48,-0.942 1.202,-1.761 1.813,-2.636 0.167,0.108 0.334,0.217 0.501,0.325 -1.505,2.388 -2.852,4.897 -4.559,7.131 -1.883,2.464 -4.162,4.621 -6.131,7.024 -0.74,0.905 -1.811,1.789 -1.628,3.541 0.608,-0.241 1.311,-0.297 1.465,-0.617 1.168,-2.413 3.229,-4.114 4.761,-6.215 1.587,-2.178 3.712,-3.927 4.834,-6.502 0.851,-1.954 2.042,-3.794 3.29,-5.535 2.458,-3.429 5.089,-6.734 7.597,-10.129 2.414,-3.269 4.715,-6.623 7.164,-9.866 0.994,-1.317 2.527,-2.282 3.314,-3.687 1.177,-2.105 2.587,-3.973 4.072,-5.855 3.249,-4.119 6.323,-8.379 9.392,-12.637 4.007,-5.559 7.945,-11.168 11.904,-16.761 4.141,-5.85 8.279,-11.702 12.4,-17.564 1.422,-2.023 2.77,-4.098 4.191,-6.122 2.605,-3.712 5.321,-7.35 7.84,-11.12 2.879,-4.307 5.284,-8.934 8.789,-12.816 0.413,-0.459 0.713,-1.07 0.915,-1.662 1.028,-2.995 2.903,-5.494 4.794,-7.939 3.075,-3.978 6.314,-7.829 9.52,-11.704 2.183,-2.639 4.431,-5.225 6.643,-7.84 3.144,-3.717 6.365,-7.371 9.393,-11.181 2.029,-2.554 3.759,-5.343 5.659,-8.004 1.714,-2.402 3.617,-4.684 5.18,-7.179 1.514,-2.415 3.532,-4.262 5.741,-6.246 1.73,1.524 3.391,2.988 5.275,4.647 m 109.304,2.051 c 1.282,-2.664 2.347,-5.142 3.638,-7.495 1.61,-2.934 3.341,-5.815 5.884,-8.081 5.775,-5.147 11.559,-10.284 17.338,-15.426 2.446,-2.177 5.078,-4.182 7.294,-6.572 4.222,-4.555 8.567,-8.989 12.016,-14.254 4.994,-7.621 8.385,-15.745 9.438,-24.816 0.03,-0.265 0.189,-0.516 0.352,-0.937 0.733,1.879 0.884,2.875 0.488,4.506 -2.034,8.346 -3.351,16.854 -7.235,24.721 -2.77,5.612 -5.555,11.102 -9.778,15.782 -1.973,2.185 -3.747,4.548 -5.642,6.805 -1.436,1.711 -2.82,3.485 -4.407,5.048 -4.375,4.316 -8.976,8.372 -14.089,11.82 -4.917,3.318 -8.668,7.739 -11.788,12.723 -0.653,1.042 -1.356,1.929 -2.504,2.309 -1.659,-0.666 -2.53,-2.041 -2.98,-3.409 -0.773,-2.348 -2.135,-4.292 -3.555,-6.201 -1.858,-2.498 -4.267,-4.193 -7.504,-4.572 -2.697,-0.316 -5.147,0.325 -7.717,1.098 -3.837,1.153 -7.182,3.008 -10.242,5.494 -2.598,2.11 -5.14,4.29 -7.775,6.352 -3.011,2.358 -6.202,4.495 -9.124,6.953 -4.164,3.501 -8.033,7.385 -10.379,12.357 -2.645,5.605 -5.327,11.241 -6.467,17.425 -0.4,2.174 -0.525,4.29 1.068,6.125 0.159,0.183 0.135,0.525 0.271,1.124 -1.923,-1.136 -3.171,-2.393 -3.902,-4.127 -0.618,-1.468 -1.309,-2.918 -1.777,-4.435 -0.846,-2.746 -1.68,-5.576 -0.571,-8.413 1.132,-2.892 2.259,-5.837 3.836,-8.493 1.947,-3.28 4.253,-6.366 6.592,-9.392 2.777,-3.591 5.549,-7.23 8.708,-10.472 2.705,-2.777 5.871,-5.132 8.98,-7.478 4.728,-3.564 10.245,-5.492 15.894,-6.974 3.827,-1.004 7.765,-1.036 11.635,-0.131 5.246,1.226 9.868,3.241 11.449,9.183 0.286,1.079 1.436,1.987 2.555,1.853 m -291.888,236.685 c -3.104,2.139 -5.307,4.802 -7.495,7.505 -2.026,2.503 -3.075,5.338 -3.412,8.48 -0.164,1.532 0.173,2.012 1.748,2.634 0.127,-0.623 0.369,-1.227 0.351,-1.823 -0.15,-5.083 2.6,-8.761 5.944,-12.078 1.919,-1.903 4.153,-3.485 6.119,-5.344 1.743,-1.647 2.975,-3.653 3.884,-5.928 2.239,-5.611 2.902,-11.594 4.215,-17.412 1.156,-5.123 2.075,-10.287 3.87,-15.244 0.544,-1.499 0.769,-3.151 1.515,-4.531 2.079,-3.852 4.114,-7.764 7.082,-11.042 1.058,-1.169 2.263,-2.245 3.545,-3.162 1.574,-1.125 1.902,-1.053 3.257,0.362 1.686,1.763 3.734,2.904 5.896,3.97 2.283,1.125 4.519,2.394 6.614,3.834 2.501,1.719 3.498,4.312 3.132,7.288 -0.319,2.607 -0.952,5.173 -1.342,7.773 -0.541,3.603 -2.379,6.752 -3.415,10.17 -0.605,1.996 -1.988,3.285 -3.148,4.957 -1.079,-1.141 -1.972,-2.085 -2.91,-3.076 -0.722,1.514 -0.729,1.52 0.159,2.586 1.058,1.271 2.131,2.53 3.111,3.692 -0.511,1.097 -1.086,1.072 -1.661,0.56 -0.715,-0.636 -1.357,-1.354 -2.052,-2.013 -0.713,-0.676 -1.453,-1.323 -2.181,-1.982 -0.208,0.166 -0.416,0.332 -0.624,0.498 -0.114,2.206 2.603,2.763 3.108,4.295 -0.832,6.915 -5.242,11.601 -9.19,16.859 -1.416,-1.512 -2.74,-2.926 -4.084,-4.362 -1.374,0.844 -0.608,1.762 -0.058,2.404 1.558,1.815 3.227,3.539 4.895,5.255 0.31,0.32 0.824,0.441 0.821,0.439 1.553,-0.332 2.708,-0.853 3.815,-0.766 4.041,0.316 6.51,2.986 7.662,6.297 0.799,2.294 -0.365,3.92 -2.765,4.275 -1.955,0.288 -3.713,0.026 -5.403,-1.257 -2.131,-1.619 -3.168,-3.689 -3.547,-6.236 -0.073,-0.493 -0.269,-1.072 -0.61,-1.403 -2.099,-2.036 -4.256,-4.011 -6.422,-6.033 -1.147,0.527 -1.168,1.214 -0.411,2.054 0.945,1.05 1.895,2.097 2.869,3.174 -0.993,1.428 -1.857,2.766 -2.827,4.024 -0.575,0.745 -1.21,1.716 -2.008,1.957 -1.353,0.409 -1.864,1.308 -2.406,2.4 -0.348,0.702 -0.833,1.384 -1.403,1.918 -1.251,1.171 -1.516,2.566 -1.211,4.155 0.135,0.705 0.312,1.403 0.432,2.11 0.305,1.798 -0.451,2.652 -2.209,2.306 -0.729,-0.144 -1.457,-0.617 -2.041,-1.111 -1.443,-1.221 -1.803,-1.325 -3.238,-0.228 -0.691,0.528 -1.237,1.24 -1.89,1.823 -0.938,0.837 -1.822,1.789 -2.892,2.412 -3.033,1.767 -6.425,2.252 -9.873,2.416 -1.035,0.049 -1.912,-0.337 -2.463,-1.206 -1.411,-2.23 -2.7,-4.567 -2.822,-7.252 -0.207,-4.554 -0.102,-9.062 1.863,-13.375 1.131,-2.48 0.649,-3.534 -1.44,-5.409 -0.518,-0.465 -0.977,-0.995 -1.432,-1.464 1.145,-1.783 1.355,-1.883 2.887,-1.416 0.456,0.14 0.896,0.334 1.349,0.485 2.167,0.719 3.306,0.377 4.857,-1.372 0.779,-0.878 1.62,-1.703 2.538,-2.662 1.194,1.363 2.222,2.536 3.347,3.82 m 249.452,-402.471 c 2.558,0 5.114,-0.082 7.664,0.023 2.629,0.108 5.262,0.307 7.873,0.629 4.524,0.558 8.977,1.442 13.058,3.623 3.769,2.015 5.814,7.637 4.129,11.522 -1.024,2.359 -2.527,4.38 -4.359,6.221 -4.024,4.045 -8.415,7.579 -13.531,10.127 -5.549,2.763 -11.44,3.823 -17.617,3.18 -5.627,-0.585 -11.011,-1.853 -15.495,-5.608 -0.916,-0.768 -1.879,-1.483 -2.775,-2.274 -2.027,-1.789 -4.295,-3.394 -5.967,-5.474 -2.085,-2.597 -3.521,-5.647 -4.591,-8.871 -0.955,-2.876 -0.273,-5.163 1.844,-7.102 0.81,-0.74 1.772,-1.392 2.777,-1.825 4.343,-1.874 8.908,-3.01 13.61,-3.414 4.444,-0.383 8.911,-0.515 13.38,-0.757 m 53.757,20.589 c 0.068,1.022 0.181,1.575 0.129,2.11 -0.273,2.765 -0.532,5.532 -0.904,8.284 -0.337,2.513 -1.399,4.662 -3.354,6.389 -1.311,1.157 -2.462,2.5 -3.646,3.795 -2.576,2.818 -5.024,5.761 -7.711,8.469 -5.107,5.15 -10.291,10.227 -15.542,15.23 -6.195,5.901 -10.747,13.039 -15.284,20.166 -2.814,4.422 -5.196,9.118 -7.793,13.68 -0.378,0.663 -0.876,1.257 -1.479,2.112 -8.751,-6.987 -16.329,-14.809 -24.179,-22.503 1.004,-0.509 1.688,-0.939 2.428,-1.217 6.114,-2.286 11.056,-6.258 15.658,-10.751 1.712,-1.671 3.451,-3.333 5.325,-4.812 5.624,-4.444 11.389,-8.709 16.968,-13.206 5.465,-4.405 10.771,-9.008 16.145,-13.527 2.074,-1.744 4.151,-3.45 5.585,-5.847 1,-1.671 2.381,-3.004 4.372,-3.669 3.774,-1.261 7.494,-2.681 11.239,-4.03 0.563,-0.203 1.138,-0.376 2.043,-0.673 M -142.078,-5.599 c -0.311,0.507 -0.456,0.795 -0.647,1.048 -2.579,3.431 -5.256,6.793 -7.722,10.304 -2.149,3.059 -3.875,6.423 -6.124,9.398 -3.063,4.055 -6.361,7.942 -9.711,11.765 -4.357,4.971 -8.866,9.808 -13.304,14.708 -0.851,0.939 -1.695,1.886 -2.505,2.861 -2.895,3.483 -5.772,6.982 -8.659,10.471 -0.815,0.983 -1.672,1.933 -2.461,2.937 -1.753,2.231 -3.471,4.489 -5.211,6.731 -0.831,1.071 -1.732,2.091 -2.509,3.2 -1.683,2.399 -3.181,4.938 -4.987,7.237 -2.061,2.623 -4.495,4.951 -6.182,7.874 -0.194,0.336 -0.479,0.641 -0.778,0.893 -2.527,2.131 -4.307,4.851 -6.181,7.531 -2.872,4.11 -5.693,8.263 -9.091,11.992 -2.895,3.175 -5.883,6.327 -8.31,9.848 -2.132,3.093 -4.304,6.129 -6.713,9.001 -1.836,2.188 -3.611,4.447 -5.62,6.467 -3.152,3.17 -6.084,6.489 -8.761,10.082 -3.189,4.278 -6.687,8.326 -10.056,12.47 -4.426,5.445 -9.538,10.315 -13.513,16.143 -1.615,2.37 -3.359,4.652 -5.016,6.994 -0.373,0.526 -0.674,1.143 0.233,1.706 0.396,-0.298 1.086,-0.543 1.209,-0.958 0.654,-2.195 2.42,-3.633 3.626,-5.431 4.636,-6.91 10.526,-12.814 15.841,-19.181 2.758,-3.305 5.463,-6.654 8.207,-9.972 2.486,-3.006 4.773,-6.218 7.538,-8.943 4.057,-3.997 7.474,-8.499 11.013,-12.908 2.091,-2.606 3.75,-5.557 5.838,-8.166 3.835,-4.788 7.88,-9.408 11.759,-14.162 1.409,-1.727 2.509,-3.705 3.898,-5.45 2.976,-3.74 6.127,-7.342 9.062,-11.113 3.719,-4.779 7.229,-9.721 10.948,-14.501 3.921,-5.039 7.976,-9.973 11.983,-14.945 1.351,-1.677 2.698,-3.358 4.107,-4.986 1.456,-1.685 3.004,-3.29 4.475,-4.963 1.315,-1.495 2.548,-3.063 3.875,-4.548 2.71,-3.037 5.54,-5.971 8.173,-9.074 3.66,-4.315 7.219,-8.718 10.748,-13.143 1.235,-1.551 2.365,-3.212 3.344,-4.934 2.378,-4.179 5.176,-8.04 8.347,-11.64 0.353,-0.399 0.806,-0.711 1.37,-1.199 1.361,1.22 2.636,2.365 4.056,3.639 -0.881,1.182 -1.645,2.292 -2.5,3.327 -0.647,0.781 -1.481,1.409 -2.109,2.202 -1.628,2.06 -3.042,4.308 -4.807,6.237 -3.053,3.333 -6.617,6.206 -8.839,10.266 -0.41,0.75 -1.126,1.331 -1.693,1.997 -0.618,0.725 -1.261,1.432 -1.831,2.195 -1.76,2.358 -3.425,4.79 -5.247,7.1 -2.947,3.739 -5.945,7.441 -9.007,11.087 -2.048,2.441 -4.217,4.783 -6.379,7.126 -2.584,2.802 -5.5,5.347 -7.77,8.379 -4.052,5.413 -8.485,10.519 -12.276,16.158 -3.621,5.387 -8.01,10.26 -12.091,15.336 -1.596,1.985 -3.275,3.904 -4.912,5.858 -0.562,0.67 -1.041,1.426 -1.675,2.018 -3.305,3.084 -5.667,6.897 -8.061,10.648 -2.069,3.242 -4.418,6.206 -7.048,8.993 -2.73,2.894 -5.349,5.895 -8.03,8.836 -1.174,1.287 -2.426,2.506 -3.569,3.82 -3.084,3.545 -6.118,7.131 -9.189,10.687 -3.123,3.615 -6.391,7.112 -9.366,10.842 -3.622,4.542 -7.674,8.733 -10.881,13.623 -1.871,2.854 -4.101,5.477 -6.241,8.147 -1.179,1.471 -2.506,2.823 -3.83,4.3 -1.601,-1.194 -3.029,-2.259 -4.316,-3.219 1.561,-2.353 3.074,-4.574 4.527,-6.835 2.581,-4.018 5.099,-8.078 7.699,-12.085 1.08,-1.665 2.242,-3.285 3.482,-4.834 0.738,-0.922 1.794,-1.59 2.543,-2.506 2.109,-2.581 4.068,-5.285 6.205,-7.84 3.065,-3.665 6.11,-7.362 9.397,-10.822 3.194,-3.361 6.049,-6.962 8.382,-10.93 3.009,-5.117 6.801,-9.628 10.473,-14.236 1.884,-2.364 4.091,-4.486 5.485,-7.207 0.963,-1.878 2.196,-3.486 3.803,-4.857 0.718,-0.612 1.26,-1.439 1.842,-2.198 2.131,-2.784 4.257,-5.57 6.361,-8.373 2.007,-2.674 4.003,-5.356 5.961,-8.065 0.885,-1.224 1.619,-2.556 2.503,-3.781 1.582,-2.188 3.252,-4.312 4.836,-6.499 1.304,-1.801 2.468,-3.706 3.822,-5.466 1.065,-1.384 2.398,-2.561 3.486,-3.93 2.774,-3.486 5.482,-7.025 8.208,-10.549 1.555,-2.01 3.098,-4.029 4.636,-6.052 3.139,-4.127 6.271,-8.258 9.405,-12.388 1.829,-2.41 3.66,-4.817 5.482,-7.231 0.336,-0.446 0.606,-0.943 0.963,-1.37 3.518,-4.217 7.128,-8.363 10.551,-12.656 2.631,-3.299 5.755,-6.174 8.104,-9.718 0.951,-1.436 2.28,-2.623 3.605,-4.112 1.495,1.21 2.835,2.295 4.317,3.494 m 27.502,-158.527 c 0.997,5.224 3.386,9.566 6.233,13.567 1.534,2.156 3.963,3.672 5.981,5.485 4.604,4.137 9.704,7.263 16.002,8.065 3.975,0.506 7.957,0.751 11.922,0.146 5.785,-0.882 10.994,-3.249 15.742,-6.613 4.853,-3.437 9.37,-7.249 12.255,-12.59 0.852,-1.58 1.384,-3.334 2.069,-5.024 5.22,1.13 9.614,3.913 14.194,6.558 -3.138,1.452 -6.23,2.692 -9.388,3.731 -2.219,0.73 -3.947,1.874 -4.928,4.055 -0.289,0.643 -0.731,1.228 -1.158,1.799 -3.579,4.77 -8.533,8.084 -12.913,11.99 -4.1,3.655 -8.594,6.869 -12.908,10.285 -1.127,0.892 -2.154,1.933 -3.357,2.7 -5.602,3.574 -10.581,7.911 -15.443,12.397 -4.441,4.096 -9.253,7.577 -15.158,9.281 -0.763,0.22 -1.565,0.383 -2.258,0.747 -0.515,0.27 -1.111,0.756 -1.256,1.265 -0.18,0.627 0.294,1.088 1.048,1.307 0.558,0.163 1.065,0.649 1.494,1.088 1.614,1.659 3.204,3.344 4.769,5.049 0.794,0.865 1.516,1.797 2.329,2.769 -3.334,2.666 -6.515,5.187 -9.671,7.744 -1.173,0.952 -2.271,1.997 -3.423,2.975 -3.279,2.788 -6.58,5.549 -9.842,8.355 -0.675,0.581 -1.237,1.134 -2.269,1.049 -0.667,-0.055 -1.225,0.458 -0.927,1.29 0.38,1.056 -0.042,1.565 -1.071,1.486 -0.792,-0.061 -1.121,0.433 -1.085,0.95 0.122,1.76 -1.112,2.748 -2.06,3.883 -1.072,1.282 -2.303,2.433 -3.353,3.731 -1.953,2.416 -3.809,4.91 -5.737,7.347 -1.141,1.444 -1.478,1.626 -2.952,0.544 -1.072,-0.786 -1.959,-0.483 -2.905,-0.196 -0.95,0.288 -1.835,0.792 -2.748,1.201 -0.126,-0.119 -0.252,-0.237 -0.378,-0.356 0.625,-0.961 1.136,-2.029 1.902,-2.861 1.339,-1.456 2.817,-2.786 4.266,-4.136 3.261,-3.039 6.776,-5.845 9.747,-9.141 3.361,-3.727 5.582,-8.155 5.514,-13.402 -0.034,-2.635 -0.089,-5.271 -0.134,-7.906 -0.074,-4.239 -1.955,-7.685 -4.882,-10.568 -0.793,-0.781 -2.001,-1.39 -3.101,-1.564 -3.138,-0.498 -6.146,0.171 -9.107,1.348 -4.477,1.779 -5.871,7.795 -2.889,11.729 1.085,1.431 2.502,2.611 3.64,3.776 4.393,-1.336 5.108,-2.178 5.795,-6.347 0.116,-0.701 0.206,-1.591 0.662,-2.01 0.708,-0.652 1.684,-1.247 2.61,-1.362 0.962,-0.12 0.986,0.994 1.23,1.757 0.633,1.977 0.532,3.955 0.121,5.926 -1.107,5.322 -3.5,10.056 -6.769,14.36 -2.164,2.85 -4.503,5.574 -6.547,8.506 -3.203,4.594 -5.88,9.492 -7.748,14.8 -1.166,3.311 -0.385,6.28 2.298,8.583 0.237,0.203 0.584,0.279 1.066,0.499 -3.364,4.038 -6.402,7.685 -9.545,11.458 -1.84,-1.644 -3.103,-0.671 -4.299,0.52 -0.563,0.563 -1.138,1.134 -1.592,1.783 -2.379,3.401 -4.749,6.809 -7.072,10.25 -4.235,6.271 -8.374,12.609 -12.667,18.841 -4.529,6.578 -9.137,13.103 -13.819,19.573 -2.429,3.356 -5.224,6.448 -7.622,9.824 -4.39,6.18 -8.613,12.478 -12.896,18.733 -4.286,6.259 -8.56,12.525 -12.836,18.79 -1.246,1.825 -2.483,3.656 -3.739,5.506 -7.006,-5.741 -8.587,-7.842 -12.341,-15.049 -1.806,-3.464 -2.271,-7.27 -2.937,-11.054 -1.258,-7.147 -1.244,-14.318 -0.54,-21.479 0.356,-3.631 0.938,-7.294 2.477,-10.686 1.186,-2.615 2.262,-5.295 3.664,-7.791 1.713,-3.05 3.546,-6.064 5.633,-8.867 3.535,-4.746 7.775,-8.877 12.095,-12.909 4.724,-4.409 9.556,-8.704 14.217,-13.177 2.285,-2.193 4.492,-4.534 5.886,-7.443 0.986,-2.059 1.794,-4.205 2.752,-6.48 0.721,0.267 1.566,0.483 2.319,0.875 3.921,2.04 7.99,1.569 11.863,0.24 3.138,-1.076 6.041,-2.853 9.012,-4.389 0.982,-0.508 1.923,-1.152 2.758,-1.877 3.375,-2.932 6.74,-5.88 10.026,-8.911 1.163,-1.072 2.227,-2.311 3.093,-3.634 1.347,-2.055 2.446,-4.27 3.721,-6.375 1.777,-2.934 3.435,-5.967 5.486,-8.702 1.919,-2.558 2.9,-5.14 2.705,-8.387 -0.343,-5.688 -0.65,-11.27 -4.087,-16.217 -1.454,-2.094 -2.657,-4.308 -5.212,-5.711 0.887,-0.96 1.607,-1.789 2.379,-2.566 2.366,-2.381 4.661,-4.86 6.167,-7.866 2.067,-4.128 4.024,-8.326 5.755,-12.604 1.643,-4.057 2.841,-8.291 4.407,-12.381 1.167,-3.048 2.446,-6.076 3.966,-8.96 2.584,-4.903 6.001,-9.195 9.907,-13.158 4.602,-4.668 9.996,-7.826 16.392,-9.767 m 75.597,153.004 c -0.705,-1.357 -1.181,-2.441 -1.805,-3.433 -0.628,-0.998 -1.217,-2.18 -2.145,-2.803 -5.922,-3.982 -12.448,-5.113 -19.429,-3.749 -4.081,0.795 -8.022,2.07 -11.824,3.718 -1.805,0.784 -3.551,1.795 -5.149,2.948 -2.248,1.621 -4.333,3.466 -6.487,5.217 -3.348,2.722 -6.544,5.587 -9.048,9.15 -1.056,1.5 -2.209,2.93 -3.318,4.393 -2.208,2.916 -4.414,5.833 -6.625,8.746 -2.017,2.659 -2.709,5.925 -4.079,8.88 -1.301,2.806 -1.422,5.748 -0.61,8.645 0.704,2.514 1.726,4.946 2.707,7.373 1.098,2.717 3.168,4.56 5.778,5.754 1.957,0.894 4.005,1.59 6.004,2.395 0.375,0.151 0.711,0.401 1.117,0.635 -1.236,0.799 -2.296,1.492 -3.364,2.171 -2.619,1.663 -5.104,3.615 -7.894,4.914 -5.387,2.508 -9.49,6.514 -12.989,11.039 -3.896,5.041 -7.254,10.504 -10.77,15.833 -5.907,8.952 -13.571,15.839 -23.386,20.286 -3.832,1.736 -7.875,2.393 -12.003,3.035 -6.734,1.049 -13.455,1.742 -20.276,1.69 -5.563,-0.042 -10.96,-0.789 -16.259,-2.524 -2.619,-0.857 -5.073,-1.998 -7.224,-3.631 -1.653,-1.255 -3.581,-2.327 -4.582,-4.106 3.904,-5.039 7.672,-9.879 11.413,-14.74 2.383,-3.097 4.704,-6.242 7.095,-9.333 1.264,-1.634 2.622,-3.195 3.931,-4.795 1.616,-1.972 3.222,-3.953 4.842,-5.921 0.354,-0.431 0.761,-0.818 1.123,-1.243 1.39,-1.631 2.774,-3.268 4.156,-4.905 2.6,-3.077 5.894,-5.492 8.159,-8.918 1.705,-2.581 3.835,-4.878 5.736,-7.332 3.03,-3.911 5.923,-7.934 9.066,-11.75 3.394,-4.122 7.02,-8.053 10.525,-12.084 1.673,-1.923 3.316,-3.872 4.941,-5.835 1.523,-1.842 3.004,-3.719 4.508,-5.576 0.704,-0.868 1.458,-1.696 2.123,-2.593 0.856,-1.158 0.792,-1.643 -0.203,-2.679 -1.257,-1.31 -2.518,-2.616 -3.917,-4.069 2.299,-2.698 4.376,-5.323 6.649,-7.764 5.993,-6.437 11.172,-13.536 16.747,-20.313 2.567,-3.12 5.329,-6.081 8.178,-9.314 0.81,0.934 1.359,1.592 1.936,2.224 0.48,0.526 0.931,1.118 1.515,1.495 0.304,0.197 1.011,0.155 1.268,-0.076 0.215,-0.194 0.217,-0.954 0.007,-1.229 -0.624,-0.818 -1.461,-1.473 -2.097,-2.284 -0.535,-0.682 -1.508,-1.227 -1.16,-2.504 1.901,-0.183 2.705,3.09 5.18,1.393 -1.551,-1.284 -2.969,-2.456 -4.23,-3.5 5.635,-9.075 12.969,-16.394 19.829,-24.236 0.505,0.405 0.896,0.803 1.362,1.075 1.985,1.164 3.485,0.643 4.357,-1.451 0.338,-0.81 0.672,-1.63 1.104,-2.39 2.008,-3.534 4.057,-7.044 6.077,-10.571 4.051,-7.071 8.5,-13.86 14.137,-19.794 3.019,-3.178 6.064,-6.337 9.188,-9.414 3.01,-2.965 6.185,-5.763 9.194,-8.729 1.529,-1.508 2.818,-3.257 4.276,-4.84 2.425,-2.634 5,-5.136 7.311,-7.863 1.179,-1.394 2.839,-2.554 3.046,-4.639 0.189,-1.898 0.431,-3.792 0.672,-5.685 0.166,-1.305 0.371,-2.605 0.604,-4.215 1.099,0.679 1.933,1.12 2.685,1.673 1.672,1.232 3.349,2.465 4.941,3.796 2.694,2.255 5.582,4.353 7.934,6.93 8.007,8.771 14.784,18.401 20.036,29.119 2.447,4.992 3.58,10.233 4.208,15.625 0.821,7.053 -0.877,13.825 -2.999,20.453 -1.912,5.976 -5.509,11.148 -9.006,16.243 -2.64,3.848 -5.932,7.343 -9.364,10.533 -7.244,6.731 -14.745,13.187 -22.19,19.699 -2.777,2.429 -5.258,5.056 -7.023,8.328 -1.278,2.369 -2.653,4.687 -4.21,7.422 m -223.023,122.708 c 1.099,-0.397 2.199,-0.794 3.299,-1.192 -0.852,1.353 -1.898,1.995 -3.341,1.136 0.045,0.777 -0.442,1.052 -1.081,1.346 -4.261,1.967 -8.504,3.972 -12.744,5.985 -3.232,1.536 -6.423,3.159 -9.682,4.637 -2.172,0.985 -4.431,1.779 -6.648,2.667 -4.283,1.716 -8.564,3.435 -12.844,5.157 -2.501,1.007 -5.044,1.923 -7.489,3.052 -4.844,2.238 -9.619,4.625 -14.451,6.889 -1.724,0.807 -3.54,1.412 -5.294,2.158 -2.843,1.208 -5.646,2.511 -8.506,3.677 -5.739,2.34 -11.476,4.695 -17.275,6.886 -2.939,1.11 -5.673,2.924 -9.11,2.917 -0.398,-1.885 -0.801,-3.795 -1.226,-5.808 2.916,-1.174 5.631,-2.309 8.379,-3.36 3.053,-1.169 6.171,-2.172 9.194,-3.413 2.784,-1.142 5.472,-2.516 8.213,-3.766 2.243,-1.023 4.512,-1.988 6.748,-3.025 3.904,-1.81 7.779,-3.681 11.688,-5.48 3.1,-1.427 6.231,-2.785 9.373,-4.149 0.748,-0.127 1.496,-0.253 2.549,-0.431 -1.012,1.052 -1.791,0.916 -2.588,0.375 0.509,1.069 -0.433,1.151 -1.009,1.449 -3.396,1.759 -6.782,3.537 -10.205,5.243 -2.496,1.243 -5.023,2.427 -7.57,3.564 -3.632,1.62 -7.288,3.188 -10.946,4.747 -2.859,1.219 -5.723,2.43 -8.613,3.574 -3.706,1.469 -7.449,2.846 -11.156,4.312 -0.759,0.301 -1.431,0.822 -2.227,1.292 1.235,1.096 1.286,1.165 1.873,0.733 3.226,-2.38 7.246,-2.794 10.786,-4.395 0.836,-0.378 1.746,-0.596 2.621,-0.888 -2.209,1.607 -4.553,2.892 -6.906,4.161 -1.605,0.865 -3.129,1.863 -5.021,2.136 -0.775,0.112 -1.625,0.642 -1.55,2.055 2.589,-0.692 5.049,-1.542 7.061,-2.966 6.357,-4.497 14,-6.097 20.782,-9.6 0.139,-0.072 0.303,-0.107 0.46,-0.13 4.339,-0.632 8.008,-3.029 11.955,-4.66 5.882,-2.43 11.606,-5.243 17.399,-7.889 0.582,-0.266 1.176,-0.502 1.765,-0.75 6.456,-2.711 12.916,-5.411 19.365,-8.137 3.665,-1.549 7.306,-3.158 10.97,-4.708 4.318,-1.826 8.65,-3.617 13.002,-5.401 m -66.7,95.576 c -0.428,0.053 -0.95,-0.03 -1.267,0.186 -1.097,0.748 -2.147,0.625 -3.395,0.353 -3.07,-0.668 -5.005,-2.498 -6.364,-5.228 -0.955,-1.919 -1.137,-3.726 -0.254,-5.717 0.406,-0.916 0.859,-1.358 1.886,-1.469 3.943,-0.425 8.765,1.97 10.4,6.728 0.237,0.691 0.122,1.571 -0.046,2.315 -0.221,0.976 -0.656,1.903 -0.975,2.838 1.225,-0.213 1.888,0.614 2.592,1.385 1.271,1.395 2.554,2.778 3.954,4.3 -0.111,0.305 -0.288,0.791 -0.496,1.361 -1.691,-0.91 -2.585,-2.306 -3.517,-3.692 -0.779,-1.16 -1.674,-2.243 -2.518,-3.36 M -68.294,31.209 c 0.559,-0.28 1.116,-0.56 1.675,-0.839 0.056,0.186 0.114,0.373 0.172,0.56 -0.634,0.072 -1.267,0.146 -1.901,0.218 -0.602,0.456 -1.151,1.025 -1.818,1.348 -2.006,0.969 -4.15,1.685 -6.07,2.795 -2.516,1.455 -5.19,2.396 -7.947,3.208 -1.048,0.309 -2.045,0.802 -3.053,1.237 -2.621,1.13 -5.235,2.279 -7.859,3.402 -0.191,0.081 -0.448,0.01 -0.675,0.01 -0.147,-0.17 -0.294,-0.341 -0.443,-0.512 0.589,-0.374 1.151,-0.8 1.771,-1.112 1.489,-0.749 2.949,-1.61 4.518,-2.132 5.14,-1.708 10.359,-3.167 15.23,-5.629 2.041,-1.032 4.257,-1.717 6.4,-2.554 m -2.698,3.507 c -0.916,0.225 -1.831,0.451 -2.747,0.676 -0.295,0.38 -0.511,0.918 -0.899,1.114 -1.673,0.846 -3.382,1.623 -5.107,2.356 -0.628,0.268 -1.338,0.345 -2.011,0.508 -0.133,0.182 -0.225,0.45 -0.404,0.532 -3.177,1.444 -6.359,2.877 -9.558,4.27 -0.266,0.117 -0.667,-0.071 -1.315,-0.16 0.487,-0.421 0.683,-0.682 0.945,-0.803 2.669,-1.226 5.328,-2.48 8.041,-3.603 0.689,-0.285 1.56,-0.13 2.35,-0.174 2.669,-1.336 5.337,-2.671 8.022,-3.993 0.921,-0.217 1.842,-0.434 2.762,-0.651 0.258,-0.355 0.438,-0.883 0.785,-1.037 1.276,-0.564 2.607,-1.005 3.917,-1.493 1.427,-0.756 2.825,-1.571 4.291,-2.241 0.738,-0.338 1.598,-0.413 2.402,-0.606 0.284,-0.248 0.534,-0.56 0.858,-0.734 2.879,-1.549 5.774,-3.068 8.658,-4.609 0.838,-0.447 1.621,-1.008 2.484,-1.392 4.44,-1.973 8.913,-3.868 13.343,-5.86 6.185,-2.779 12.293,-5.727 18.728,-7.919 1.652,-0.562 3.245,-1.321 4.818,-2.086 3.442,-1.675 6.816,-3.49 10.285,-5.103 4.406,-2.048 9.077,-3.508 13.183,-6.225 1.19,-0.787 2.573,-1.451 4.211,-1.268 -0.697,0.761 -1.449,1.452 -2.329,1.881 -6.8,3.321 -13.155,7.498 -20.27,10.234 -6.842,2.632 -13.541,5.632 -20.319,8.428 -9.358,3.86 -18.81,7.491 -27.723,12.36 -1.847,1.009 -3.973,1.507 -5.973,2.238 -2.088,1.297 -4.089,2.798 -6.711,2.837 -1.57,0.844 -3.138,1.689 -4.717,2.523 m -17.046,20.825 c -0.447,-3.195 -0.939,-6.706 -1.426,-10.192 2.059,-1.047 3.872,-2.05 5.752,-2.908 3.912,-1.785 7.874,-3.462 11.788,-5.246 3.327,-1.516 6.594,-3.166 9.926,-4.673 3.622,-1.638 7.315,-3.12 10.928,-4.781 2.895,-1.332 5.711,-2.838 8.57,-4.25 0.78,-0.386 1.592,-0.711 2.387,-1.067 3.348,-1.497 6.656,-3.092 10.051,-4.473 6.571,-2.673 13.172,-5.272 19.794,-7.813 7.683,-2.949 15.11,-6.402 22.172,-10.643 1.477,-0.888 3.129,-1.482 4.696,-2.209 0.496,0.711 0.851,1.799 1.463,1.97 1.005,0.28 2.204,0.096 3.267,-0.138 0.914,-0.2 1.813,-0.647 2.615,-1.148 3.115,-1.945 6.215,-3.913 9.26,-5.964 0.975,-0.656 1.83,-1.53 2.614,-2.417 0.837,-0.946 1.059,-2.065 0.636,-3.348 -0.695,-2.116 -1.17,-4.306 -1.909,-6.406 -1.912,-5.429 -6.524,-4.861 -9.925,-2.987 -2.469,1.359 -4.975,2.649 -7.644,4.065 0.144,1.451 -0.706,2.403 -2.17,3.061 -2.975,1.333 -5.898,2.784 -8.842,4.184 -3.023,1.438 -6.029,2.909 -9.072,4.3 -5.933,2.711 -11.843,5.478 -17.842,8.032 -7.038,2.998 -14.13,5.844 -21.002,9.239 -6.859,3.39 -13.865,6.483 -20.979,9.332 -8.291,3.32 -16.506,6.832 -24.768,10.224 -4.045,1.661 -8.124,3.241 -12.467,4.969 0,-0.809 -0.099,-1.335 0.015,-1.81 1.43,-6.004 3.619,-11.75 6.607,-17.125 1.903,-3.423 4.642,-6.315 7.651,-8.833 3.174,-2.655 6.535,-5.087 9.808,-7.624 3.59,-2.782 7.144,-5.61 10.767,-8.349 3.032,-2.292 6.553,-3.465 10.176,-4.549 3.783,-1.132 9.307,1.499 10.984,4.572 1.41,2.584 2.977,5.081 4.415,7.652 1.421,2.539 3.81,2.943 5.823,0.792 0.91,-0.971 1.619,-2.157 2.299,-3.315 3.265,-5.566 7.915,-9.668 13.226,-13.24 3.357,-2.256 6.46,-4.949 9.409,-7.732 2.709,-2.558 5.129,-5.439 7.548,-8.287 2.967,-3.494 5.922,-7.012 8.648,-10.695 1.555,-2.099 2.725,-4.502 3.917,-6.844 1.372,-2.696 2.585,-5.474 3.851,-8.224 0.266,-0.578 0.514,-1.172 0.685,-1.783 1.139,-4.063 2.465,-8.089 3.317,-12.212 0.884,-4.274 1.583,-8.567 1.7,-13.009 0.18,-6.911 -1.888,-13.192 -3.979,-19.572 -1.737,-5.3 -4.283,-10.127 -7.544,-14.619 -0.791,-1.091 -1.374,-2.335 -2.186,-3.407 -0.497,-0.656 -1.261,-1.107 -1.88,-1.678 -0.515,-0.472 -1.037,-0.948 -1.479,-1.486 -3.136,-3.824 -6.108,-7.798 -9.426,-11.456 -2.238,-2.466 -4.889,-4.577 -7.476,-6.7 -3.385,-2.778 -6.889,-5.411 -10.604,-8.311 -0.518,-0.808 1.266,-2.43 -0.639,-3.393 -0.451,0.244 -0.932,0.503 -1.411,0.763 -1.081,0.588 -2.028,0.429 -3.146,-0.151 -4.087,-2.12 -7.978,-4.665 -12.48,-5.925 -0.839,-0.235 -1.69,-0.57 -2.406,-1.052 -0.623,-0.419 -1.162,-1.048 -1.564,-1.694 -0.963,-1.545 -1.789,-3.175 -2.748,-4.723 -0.272,-0.437 -0.76,-0.825 -1.237,-1.037 -1.969,-0.874 -3.907,-1.947 -5.977,-2.436 -3.552,-0.84 -7.198,-1.278 -10.799,-1.921 -4.358,-0.778 -8.715,-0.401 -13.088,-0.154 -2.621,0.146 -5.272,-0.241 -7.891,-0.085 -3.406,0.203 -6.785,0.898 -10.19,1.03 -4.023,0.155 -7.504,2.019 -11.233,3.085 -2.298,0.656 -3.846,2.311 -5.293,5.298 -4.355,1.199 -8.567,2.91 -12.258,5.665 -2.363,1.762 -4.978,3.388 -6.801,5.63 -3.228,3.969 -6.622,7.828 -9.084,12.435 -1.845,3.455 -3.784,6.826 -4.966,10.571 -0.478,1.512 -0.707,3.112 -1.272,4.584 -1.971,5.132 -3.765,10.359 -6.155,15.292 -2.004,4.133 -4.596,8.016 -8.093,11.16 -1.128,1.013 -2.203,2.087 -3.26,3.176 -0.249,0.256 -0.325,0.681 -0.418,0.887 1.506,1.086 3.142,1.86 4.206,3.117 2.338,2.762 4.01,5.992 4.644,9.581 0.54,3.057 0.621,6.192 1.07,9.268 0.414,2.84 -0.612,5.114 -2.213,7.33 -1.578,2.185 -2.978,4.498 -4.468,6.748 -0.397,0.598 -0.898,1.132 -1.245,1.755 -1.057,1.901 -2.719,3.342 -3.203,5.742 -0.319,1.584 -2.043,2.983 -3.347,4.248 -2.114,2.051 -4.409,3.912 -6.611,5.872 -3.743,3.332 -8.097,5.728 -12.587,7.804 -4.034,1.866 -8.289,2.287 -12.526,0.349 -0.797,-0.364 -1.618,-0.714 -2.465,-0.921 -1.251,-0.307 -2.237,0.352 -2.408,1.604 -0.48,3.524 -2.219,6.379 -4.441,9.07 -4.906,5.942 -10.559,11.061 -16.588,15.831 -2.235,1.768 -4.093,4.022 -6.065,6.109 -2.408,2.547 -4.782,5.126 -7.118,7.738 -2.46,2.749 -4.375,5.866 -5.965,9.19 -0.859,1.795 -1.704,3.597 -2.593,5.378 -2.961,5.932 -3.694,12.363 -4.023,18.834 -0.197,3.898 -0.157,7.838 0.169,11.727 0.427,5.086 1.036,10.194 2.955,14.993 1.879,4.694 4.395,9.065 7.739,12.858 1.713,1.943 3.865,3.499 5.915,5.316 -0.19,0.302 -0.397,0.724 -0.687,1.077 -2.072,2.522 -4.134,5.053 -6.263,7.527 -0.556,0.645 -1.267,1.247 -2.032,1.605 -3.608,1.688 -7.242,3.325 -10.9,4.903 -4.534,1.957 -9.094,3.851 -13.653,5.747 -4.315,1.794 -8.674,3.487 -12.957,5.355 -3.489,1.521 -6.878,3.27 -10.346,4.845 -1.44,0.654 -2.986,1.07 -4.452,1.675 -4.769,1.967 -9.522,3.972 -14.282,5.96 -3.97,1.66 -7.93,3.344 -11.915,4.967 -3.604,1.467 -7.251,2.829 -10.851,4.31 -2.436,1.002 -4.788,2.213 -7.237,3.18 -3.624,1.433 -7.307,2.72 -10.955,4.093 -3.433,1.291 -6.865,2.585 -10.278,3.929 -2.652,1.045 -5.274,2.169 -7.889,3.249 -0.264,-0.29 -0.493,-0.436 -0.566,-0.639 -0.804,-2.222 -1.028,-2.433 -3.211,-1.767 -4.177,1.272 -8.334,2.618 -12.463,4.04 -1.109,0.382 -2.129,1.085 -3.111,1.757 -1.53,1.045 -1.368,3.159 0.364,3.793 3.77,1.381 6.516,3.899 8.608,7.237 0.084,0.134 0.208,0.243 0.301,0.372 2.411,3.36 3.211,3.623 6.95,2.071 1.471,-0.611 2.851,-1.448 4.329,-2.039 1.315,-0.526 2.69,-0.935 4.071,-1.256 2.965,-0.688 5.696,-1.948 8.442,-3.201 2.298,-1.049 4.633,-2.017 6.968,-2.983 2.939,-1.215 5.881,-2.425 8.846,-3.574 2.523,-0.977 5.113,-1.787 7.615,-2.812 2.876,-1.178 5.663,-2.571 8.535,-3.759 2.194,-0.908 4.383,-1.784 6.501,-2.888 3.816,-1.986 7.717,-3.827 11.661,-5.544 2.991,-1.302 6.116,-2.293 9.162,-3.469 2.228,-0.86 4.436,-1.772 6.636,-2.701 4.326,-1.828 8.644,-3.672 12.953,-5.538 1.022,-0.442 1.985,-1.021 2.994,-1.494 2.091,-0.98 4.199,-1.923 6.294,-2.894 2.165,-1.004 4.323,-2.023 6.483,-3.037 0.83,-0.389 1.657,-0.785 2.754,-0.814 -0.309,0.508 -0.588,1.036 -0.93,1.519 -5.072,7.17 -10.107,14.367 -15.253,21.485 -2.339,3.236 -4.905,6.31 -7.362,9.461 -4.658,5.974 -9.605,11.742 -13.587,18.206 -0.97,1.575 -2.271,2.442 -3.791,3.04 -2.261,0.89 -3.895,2.549 -5.348,4.294 -2.436,2.924 -4.754,5.978 -6.231,9.552 -0.122,0.296 -0.299,0.568 -0.689,1.296 -0.417,-1.091 -0.707,-1.545 -0.756,-2.025 -0.549,-5.416 -5.082,-9.787 -10.42,-10.762 -3.167,-0.579 -4.941,0.924 -4.409,4.479 0.754,5.031 3.356,9.137 8.367,11.172 0.707,0.287 1.559,0.278 2.346,0.293 2.081,0.041 2.909,0.945 2.457,2.996 -0.48,2.18 -1.17,4.314 -1.669,6.491 -0.817,3.573 -1.534,7.169 -2.337,10.745 -0.255,1.137 -0.651,2.242 -1.125,3.844 -1.522,-1.57 -2.767,-2.755 -3.87,-4.06 -0.287,-0.34 -0.244,-1.077 -0.155,-1.597 0.355,-2.071 0.042,-3.891 -1.429,-5.527 -0.925,-1.03 -1.334,-2.349 -2.573,-3.323 -2.354,-1.851 -5.021,-2.335 -7.761,-2.724 -2.094,-0.298 -3.461,0.794 -4.174,2.773 -1.831,5.083 1.587,11.252 5.803,13.033 1.487,0.628 3.322,0.919 4.904,0.695 1.621,-0.231 2.386,0.34 3.115,1.5 0.677,1.076 1.312,2.188 2.092,3.186 0.728,0.931 1.623,1.732 2.562,2.713 -0.845,3.511 -2.462,6.689 -5.007,9.712 -1.113,-1.231 -2.089,-2.263 -3.009,-3.343 -1.014,-1.193 -1.533,-1.342 -2.756,-0.34 -0.974,0.797 -1.87,1.717 -2.675,2.686 -1.338,1.611 -1.464,1.718 -3.393,0.875 -1.608,-0.702 -3.153,-0.968 -4.757,0.029 -2.378,1.479 -2.712,3.423 -0.863,5.475 0.372,0.413 0.8,0.777 1.214,1.151 0.979,0.885 1.392,1.81 0.752,3.167 -2.334,4.957 -2.197,10.282 -1.736,15.517 0.202,2.287 1.292,4.64 2.493,6.655 1.208,2.025 3.425,2.765 5.833,2.3 1.872,-0.361 3.72,-0.847 5.581,-1.268 2.473,-0.558 4.584,-1.746 6.397,-3.523 0.788,-0.772 1.7,-1.418 2.631,-2.182 0.704,0.45 1.28,0.847 1.883,1.198 1.758,1.023 3.541,0.894 5.096,-0.344 1.732,-1.379 2.076,-2.256 1.251,-4.588 -0.729,-2.058 -0.294,-3.582 1.116,-5.231 2.526,-2.955 4.803,-6.123 7.209,-9.234 1.239,0.109 1.87,0.642 2.081,1.888 0.486,2.879 2.033,5.136 4.305,6.957 2.774,2.222 6.242,2.139 8.955,0.51 0.794,-0.477 1.315,-1.521 1.773,-2.403 0.273,-0.526 0.27,-1.247 0.236,-1.873 -0.234,-4.323 -5.57,-10.9 -11.695,-9.162 -0.914,0.259 -1.526,0.299 -2.111,-0.826 4.365,-4.254 7.767,-9.264 9.512,-15.318 0.177,0.05 0.354,0.1 0.531,0.15 0.059,0.38 0.203,0.768 0.164,1.137 -0.243,2.327 -0.216,4.569 0.886,6.758 2.098,4.171 6.21,5.417 10.166,2.965 1.293,-0.802 2.544,-1.618 3.365,-2.977 2.648,-4.381 0.191,-8.806 -3.294,-10.784 -2.526,-1.434 -5.192,-2.405 -8.206,-1.772 -0.321,0.067 -0.749,-0.38 -0.966,-0.499 0.845,-1.038 1.801,-1.874 2.334,-2.925 2.575,-5.073 4.477,-10.385 5.264,-16.053 0.066,-0.474 0.02,-0.99 0.195,-1.418 1.328,-3.239 0.898,-6.4 -0.319,-9.547 -0.08,-0.207 -0.037,-0.463 -0.026,-0.285 1.12,-1.293 2.094,-2.283 2.914,-3.387 3.464,-4.667 6.766,-9.459 10.35,-14.03 3.199,-4.083 6.674,-7.95 10.055,-11.887 3.693,-4.3 7.413,-8.576 11.132,-12.853 4.337,-4.987 8.669,-9.98 13.045,-14.933 1.053,-1.191 2.259,-2.248 3.417,-3.343 3.579,-3.388 6.029,-7.61 8.664,-11.694 1.52,-2.355 3.355,-4.426 5.467,-6.436 0.689,0.387 1.33,0.686 1.906,1.08 5.891,4.028 12.287,7.114 18.748,10.074 3.675,1.683 7.673,2.139 11.589,2.83 6.343,1.119 12.781,0.891 19.13,0.39 6.294,-0.497 12.419,-2.201 18.007,-5.341 3.947,-2.219 8.223,-3.917 11.661,-6.965 2.743,-2.432 5.399,-4.965 8.043,-7.507 5.613,-5.398 9.881,-11.837 14.152,-18.284 3.589,-5.416 7.804,-10.34 12.864,-14.428 2.154,-1.741 4.695,-3.015 7.106,-4.42 1.968,-1.146 4.007,-2.173 6.576,-3.554"
             style="fill:#000000;fill-opacity:1;fill-rule:nonzero;stroke:none"
             id="path22"
             inkscape:connector-curvature="0" /></g><g
           id="g24"
           transform="translate(353.6422,192.1966)"><path
             d="m 0,0 c 0,-1.028 -0.013,-1.821 0.002,-2.613 0.048,-2.565 -2.099,-4.931 -4.62,-4.863 -2.174,0.059 -4.391,0 -6.52,0.906 -4.959,2.11 -8.902,5.517 -12.512,9.39 -2.51,2.692 -3.374,6.284 -5.106,9.402 -1.701,3.063 -3.372,6.145 -5.156,9.16 -0.474,0.8 -1.262,1.445 -1.996,2.052 -1.409,1.164 -2.928,2.199 -4.323,3.379 -3.292,2.789 -7.318,3.42 -11.373,3.839 -2.255,0.234 -3.935,-1.347 -4.36,-3.58 -1.052,-5.522 3.75,-8.152 7.852,-8.3 0.929,-0.033 1.9,0.472 2.125,1.619 0.216,1.098 -0.325,1.849 -1.248,2.34 -0.703,0.374 -1.439,0.687 -2.163,1.017 -1.725,0.784 -1.824,1.024 -1.226,3.228 0.951,0.227 1.944,0.5 2.953,0.699 2.056,0.406 3.724,-0.562 5.362,-1.591 3.246,-2.04 6.013,-4.573 7.248,-8.291 1.001,-3.014 1.875,-6.108 2.395,-9.236 0.827,-4.982 3.472,-8.922 6.869,-12.317 4,-3.996 9.136,-6.121 14.678,-6.839 7.285,-0.942 12.681,3.033 14.508,10.125 C 3.757,0.957 3.521,2.202 2.925,3.449 0.921,7.65 -4.662,9.124 -8.361,8.463 -8.863,8.373 -9.457,7.561 -9.611,6.978 -10.345,4.203 -8.049,1.311 -5.032,1.359 -3.178,1.39 -1.614,0.811 0,0 m -47.766,25.295 c 0.503,-0.336 1.016,-0.657 1.505,-1.012 1.862,-1.352 2.294,-2.584 1.678,-4.723 -0.377,-1.307 -2.23,-2.622 -3.91,-2.71 -2.66,-0.142 -7.764,2.132 -8.928,5.38 -1.026,2.863 -0.757,5.491 0.979,7.944 0.76,1.076 1.845,1.84 3.204,1.889 4.71,0.173 9.385,-0.345 13.296,-3.107 2.889,-2.041 6.03,-4.03 7.962,-7.114 2.146,-3.428 3.96,-7.066 5.899,-10.623 1.812,-3.327 3.255,-6.762 6.207,-9.506 2.357,-2.192 4.689,-4.223 7.503,-5.749 2.411,-1.308 5.026,-1.488 7.655,-1.382 0.771,0.031 1.565,0.644 2.26,1.118 0.809,0.552 1.131,1.531 0.715,2.327 -0.313,0.599 -1.14,1.102 -1.834,1.286 -0.902,0.238 -1.901,0.182 -2.852,0.132 -1.331,-0.07 -2.364,0.532 -3.153,1.449 -1.713,1.99 -2.38,4.34 -1.779,6.923 0.483,2.079 3.037,3.808 5.093,3.245 C -3.669,10.351 -0.888,9.716 1.298,8.269 3.679,6.691 5.371,4.091 5.026,0.934 4.745,-1.644 4.446,-4.257 2.88,-6.532 0.974,-9.3 -1.39,-11.351 -4.679,-12.288 c -5.68,-1.62 -10.821,-0.061 -15.8,2.563 -0.423,0.223 -0.829,0.495 -1.274,0.657 -3.71,1.353 -5.88,4.383 -8.324,7.242 -3.453,4.037 -4.379,8.93 -5.489,13.816 -0.822,3.613 -1.952,7.057 -4.643,9.8 -2.057,2.098 -4.375,3.604 -7.276,4.026 -0.093,-0.173 -0.187,-0.347 -0.281,-0.521"
             style="fill:#000000;fill-opacity:1;fill-rule:nonzero;stroke:none"
             id="path26"
             inkscape:connector-curvature="0" /></g><g
           id="g28"
           transform="translate(124.3873,415.3821)"><path
             d="m 0,0 c -1.297,1.418 -2.261,2.852 -3.566,3.826 -3.677,2.746 -6.106,6.52 -8.606,10.197 -2.55,3.75 -4.817,7.699 -7.07,11.64 -1.06,1.854 -1.917,3.849 -2.652,5.859 -1.116,3.05 -2.018,6.178 -3.085,9.247 -0.144,0.411 -0.796,0.992 -1.087,0.928 -0.509,-0.113 -1.076,-0.584 -1.327,-1.058 -0.233,-0.442 -0.224,-1.121 -0.087,-1.633 0.78,-2.92 1.601,-5.829 2.464,-8.726 0.818,-2.745 1.771,-5.45 2.544,-8.207 1.099,-3.918 1.93,-7.917 3.168,-11.787 1.189,-3.716 2.661,-7.351 4.181,-10.948 1.1,-2.601 2.675,-4.909 5.544,-6.189 C -6.629,-4.534 -2.882,-3.27 0,0 m -28.56,43.076 c 0.647,0.143 1.251,0.338 1.869,0.403 2.839,0.302 3.259,-0.038 4.045,-2.773 0.964,-3.359 1.866,-6.746 3.053,-10.027 0.806,-2.228 1.93,-4.37 3.136,-6.419 1.978,-3.361 4.188,-6.583 6.207,-9.921 2.554,-4.22 5.986,-7.641 9.598,-10.92 0.521,-0.473 1.001,-1.013 1.405,-1.588 1.375,-1.956 1.336,-3.037 -0.61,-4.447 -2.317,-1.677 -4.819,-3.1 -7.259,-4.603 -1.08,-0.665 -2.207,-1.255 -3.532,-2.004 -1.791,1.901 -4.012,3.629 -4.999,6.142 -2.295,5.838 -4.396,11.758 -6.378,17.711 -1.686,5.063 -3.11,10.214 -4.618,15.335 -0.745,2.528 -1.381,5.087 -2.133,7.612 -0.551,1.847 -0.259,3.614 0.216,5.499"
             style="fill:#000000;fill-opacity:1;fill-rule:nonzero;stroke:none"
             id="path30"
             inkscape:connector-curvature="0" /></g><g
           id="g32"
           transform="translate(102.6637,465.0843)"><path
             d="m 0,0 c 1.156,-0.061 1.402,-0.815 1.542,-1.776 0.771,-5.315 2.218,-10.462 4.81,-15.16 1.647,-2.986 3.795,-5.703 5.792,-8.488 3.529,-4.927 7.113,-9.814 10.675,-14.717 0.141,-0.193 0.275,-0.393 0.429,-0.577 0.492,-0.587 0.558,-1.188 -0.115,-1.638 -0.749,-0.501 -1.094,0.077 -1.5,0.633 -4.829,6.631 -9.724,13.216 -14.511,19.877 C 4.25,-17.85 2.383,-13.348 1.02,-8.638 0.464,-6.722 -0.042,-4.79 -0.514,-2.852 -0.757,-1.853 -1.005,-0.8 0,0"
             style="fill:#000000;fill-opacity:1;fill-rule:nonzero;stroke:none"
             id="path34"
             inkscape:connector-curvature="0" /></g><g
           id="g36"
           transform="translate(95.608,471.9715)"><path
             d="m 0,0 c 0.562,-1.678 0.562,-1.678 -0.717,-3.692 -2.409,-0.396 -4.657,-0.011 -6.576,1.731 -2.067,1.876 -4.112,3.74 -5.158,6.461 -0.481,1.252 -1.34,2.354 -1.9,3.582 -0.904,1.983 0.933,5.243 3.1,5.565 0.257,0.039 0.703,-0.127 0.799,-0.326 0.152,-0.311 0.246,-0.869 0.072,-1.078 -0.446,-0.535 -1.052,-0.938 -1.596,-1.389 -0.904,-0.75 -1.292,-1.57 -0.545,-2.688 0.344,-0.517 0.58,-1.127 0.769,-1.725 1.01,-3.203 3.294,-5.386 5.835,-7.371 0.188,-0.147 0.389,-0.281 0.595,-0.401 C -3.104,-2.62 -1.552,-2.28 0,0"
             style="fill:#000000;fill-opacity:1;fill-rule:nonzero;stroke:none"
             id="path38"
             inkscape:connector-curvature="0" /></g><g
           id="g40"
           transform="translate(89.777,481.7991)"><path
             d="m 0,0 c -0.651,-1.394 -1.475,-0.258 -2.39,-0.481 0.43,-1.52 1.365,-2.598 2.583,-3.457 0.65,-0.458 1.381,-0.798 2.054,-1.226 1.049,-0.667 2.081,-1.282 3.084,0.247 C 5.636,-5.376 5.932,-5.623 5.946,-5.884 5.977,-6.466 6.073,-7.247 5.757,-7.589 5.432,-7.94 4.558,-8.112 4.078,-7.938 1.206,-6.898 -1.414,-5.457 -3.111,-2.753 -3.993,-1.349 -4.23,0.16 -3.609,0.788 -2.884,1.522 -1.602,1.247 0,0"
             style="fill:#000000;fill-opacity:1;fill-rule:nonzero;stroke:none"
             id="path42"
             inkscape:connector-curvature="0" /></g></g></g></g></svg>