<?xml version="1.0" encoding="UTF-8" standalone="no"?>
<!-- Created with Inkscape (http://www.inkscape.org/) -->

<svg
   xmlns:dc="http://purl.org/dc/elements/1.1/"
   xmlns:cc="http://creativecommons.org/ns#"
   xmlns:rdf="http://www.w3.org/1999/02/22-rdf-syntax-ns#"
   xmlns:svg="http://www.w3.org/2000/svg"
   xmlns="http://www.w3.org/2000/svg"
   xmlns:sodipodi="http://sodipodi.sourceforge.net/DTD/sodipodi-0.dtd"
   xmlns:inkscape="http://www.inkscape.org/namespaces/inkscape"
   version="1.1"
   id="svg2"
   xml:space="preserve"
   width="536.96002"
   height="1104"
   viewBox="0 0 536.96002 1104"
   sodipodi:docname="Violoncello.svg"
   inkscape:version="0.92.4 (5da689c313, 2019-01-14)"><metadata
     id="metadata8"><rdf:RDF><cc:Work
         rdf:about=""><dc:format>image/svg+xml</dc:format><dc:type
           rdf:resource="http://purl.org/dc/dcmitype/StillImage" /><dc:title></dc:title></cc:Work></rdf:RDF></metadata><defs
     id="defs6"><clipPath
       clipPathUnits="userSpaceOnUse"
       id="clipPath18"><path
         d="M 0,828 H 402.72 V 0 H 0 Z"
         id="path16"
         inkscape:connector-curvature="0" /></clipPath></defs><sodipodi:namedview
     pagecolor="#ffffff"
     bordercolor="#666666"
     borderopacity="1"
     objecttolerance="10"
     gridtolerance="10"
     guidetolerance="10"
     inkscape:pageopacity="0"
     inkscape:pageshadow="2"
     inkscape:window-width="640"
     inkscape:window-height="480"
     id="namedview4"
     showgrid="false"
     inkscape:zoom="0.21376812"
     inkscape:cx="-232.06236"
     inkscape:cy="552"
     inkscape:window-x="0"
     inkscape:window-y="0"
     inkscape:window-maximized="0"
     inkscape:current-layer="g10" /><g
     id="g10"
     inkscape:groupmode="layer"
     inkscape:label="Violoncello"
     transform="matrix(1.3333333,0,0,-1.3333333,0,1104)"><g
       id="g12"><g
         id="g14"
         clip-path="url(#clipPath18)"><g
           id="g20"
           transform="translate(268.2711,333.4053)"><path
             d="m 0,0 c -0.161,-0.071 -0.323,-0.144 -0.485,-0.216 0.199,-0.444 0.397,-0.888 0.595,-1.331 0.119,0.048 0.239,0.096 0.357,0.145 C 0.312,-0.935 0.156,-0.468 0,0 m -117.676,390.128 c -0.349,-0.785 -0.661,-1.557 0.514,-1.99 -0.171,0.663 -0.343,1.326 -0.514,1.99 M -82.024,-23.46 c 2.636,-0.305 2.636,-0.305 2.563,1.022 -0.906,-0.362 -1.735,-0.692 -2.563,-1.022 m 26.19,-94.218 c -0.829,-0.528 -1.343,-0.855 -1.855,-1.182 0.186,-0.229 0.345,-0.62 0.565,-0.659 0.849,-0.147 1.393,0.182 1.29,1.841 m 10.67,96.82 -0.164,-0.463 c 1.235,-0.157 2.471,-0.314 3.705,-0.47 0.021,0.158 0.042,0.315 0.063,0.474 -1.202,0.152 -2.403,0.306 -3.604,0.459 m -19.891,-99.65 c -0.906,0.027 -1.749,0.538 -2.078,-0.615 -0.055,-0.193 0.228,-0.669 0.427,-0.719 0.847,-0.211 1.59,-0.112 1.651,1.334 m -46.292,471.116 c 0.196,0.013 0.39,0.026 0.585,0.039 0.601,1.398 -0.25,2.611 -0.862,3.866 z M -45.486,-39.25 c -0.166,-0.022 -0.333,-0.045 -0.499,-0.066 -0.579,-2.059 -0.352,-3.252 0.851,-3.809 -0.122,1.345 -0.237,2.609 -0.352,3.875 m -92.105,436.18 c 1.625,0.38 1.552,1.244 1.391,2.122 -0.135,0.737 -0.527,1.105 -1.391,0.76 z m 91.502,-512.63 c -2.181,-1.076 -2.181,-1.076 -0.814,-2.825 1.723,1.219 1.723,1.219 0.814,2.825 m 7.44,0.866 c -0.403,-1.113 -0.158,-2.01 0.901,-2.05 1.155,-0.043 1.356,1.026 1.491,2.05 z m 6.109,12.753 c -2.004,1.208 -3.937,1.033 -5.222,0 z m -93.416,494.178 -0.427,-0.057 c 0.137,-1.711 0.232,-3.428 0.458,-5.127 0.033,-0.254 0.683,-0.427 1.395,-0.837 -0.346,1.422 -0.572,2.324 -0.786,3.229 -0.219,0.929 -0.427,1.862 -0.64,2.792 m 81.839,-429.486 c 0.304,-1.375 -0.398,-2.902 0.596,-4.269 1.655,2.395 1.634,2.582 -0.596,4.269 m -40.42,9.443 c -0.976,-1.102 -1.799,-2.026 -2.615,-2.956 -0.765,-0.872 -1.752,-1.583 -2.079,-2.786 1.74,1.677 4.356,2.631 4.694,5.742 m 6.953,5.072 c 0.08,-0.136 0.161,-0.272 0.241,-0.406 2.088,0.3 4.177,0.6 6.265,0.901 -0.2,1.27 -0.21,1.34 -0.843,1.253 -1.492,-0.205 -2.988,-0.424 -4.452,-0.77 -0.455,-0.107 -0.81,-0.64 -1.211,-0.978 m 29.979,-80.155 c 3.216,-0.58 6.856,-0.056 8.38,1.246 -3.074,0.045 -5.712,-0.655 -8.38,-1.246 m -77.986,502.072 c -0.539,1.439 -0.994,2.706 -1.487,3.957 -0.296,0.751 -0.759,0.982 -1.533,0.212 0.21,-0.942 0.496,-1.935 0.641,-2.948 0.207,-1.441 1.033,-1.612 2.379,-1.221 m 75.748,-502.791 c -0.032,0.225 -0.064,0.448 -0.096,0.673 -2.894,-0.399 -5.788,-0.797 -8.766,-1.207 0.166,-1.003 0.591,-1.164 1.358,-1.01 2.083,0.418 4.182,0.757 6.27,1.15 0.422,0.079 0.824,0.26 1.234,0.394 m -17.235,-3.088 c 2.254,0.156 4.523,0.264 6.683,1.04 0.194,0.07 0.253,0.513 0.385,0.803 -1.692,0.399 -5.665,-0.5 -7.068,-1.843 m -50.477,499.841 c 0.191,-0.027 0.381,-0.055 0.572,-0.083 0.142,-1.075 0.206,-2.169 0.449,-3.221 0.229,-0.993 0.805,-1.501 1.987,-0.63 -0.455,1.513 -0.901,2.994 -1.344,4.469 h -3.058 c 0.197,-0.729 0.359,-1.328 0.589,-2.182 0.371,0.759 0.588,1.203 0.805,1.647 m 69.134,-413.976 c -0.074,0.165 -0.099,0.297 -0.14,0.301 -2.804,0.324 -5.607,0.668 -8.418,0.909 -0.31,0.027 -0.67,-0.544 -1.007,-0.838 0.069,-0.182 0.138,-0.366 0.208,-0.548 2.58,0 5.16,-0.009 7.74,0.007 0.529,0.004 1.058,0.109 1.617,0.169 m -71.164,407.497 c 0.191,0.051 0.382,0.102 0.573,0.153 0.026,0.297 0.129,0.613 0.064,0.888 -0.475,2.014 -0.922,4.037 -1.512,6.017 -0.238,0.798 -0.886,0.638 -1.518,0.133 0.918,-2.38 0.657,-5.14 2.393,-7.191 m -2.2,0.154 c -0.227,2.27 -0.734,4.448 -1.576,6.543 -1.348,-0.309 -1.365,-1.192 -1.165,-1.927 0.466,-1.726 0.323,-3.818 2.741,-4.616 m 14.704,-0.453 c 0.015,-2.035 1.672,-7.522 2.725,-9.019 1.112,2.964 -0.102,6.983 -2.725,9.019 m 31.936,-495.78 c 3.82,0.318 5.406,1.064 6.355,3.147 -2.377,-0.293 -4.568,-0.467 -6.819,-1.002 0.182,-0.843 0.311,-1.436 0.464,-2.145 m 46.938,67.618 c -0.524,1.993 -0.994,3.779 -1.471,5.59 -2.053,-0.732 -2.42,-1.48 -1.986,-3.542 0.354,-1.688 1.161,-2.256 3.457,-2.048 m -31.559,22.196 c -2.699,-0.138 -5.133,-0.258 -7.568,-0.39 -0.315,-0.017 -0.64,-0.058 -0.937,-0.155 -0.782,-0.256 -1.172,-0.757 -0.824,-1.871 2.988,0.222 6.024,0.449 9.18,0.685 0.046,0.527 0.085,0.983 0.149,1.731 m -59.648,427.351 c -3.522,2.146 -6.694,1.679 -9.899,0.572 0.265,-3.072 0.477,-3.129 2.972,-1.533 0.661,0.422 1.617,0.459 2.449,0.519 1.366,0.099 2.792,-0.469 4.478,0.442 m 37.331,-449.846 c -1.28,-2.745 -0.148,-4.822 3.33,-6.11 1.378,3.539 0.763,4.667 -3.33,6.11 m -45.085,439.111 c 0.085,-0.448 0.135,-0.763 0.204,-1.073 0.38,-1.713 0.921,-2.002 2.421,-1.259 0.426,0.212 0.803,0.518 1.218,0.756 1.222,0.701 2.456,1.035 3.853,0.395 0.956,-0.439 1.964,-0.376 3.096,0.213 -0.313,1.038 -0.599,1.984 -0.846,2.804 -3.429,-0.632 -6.585,-1.215 -9.946,-1.836 m 11.645,-34.799 c 0.174,0.017 0.348,0.033 0.523,0.049 0,0.355 0.048,0.718 -0.008,1.064 -0.408,2.495 -0.827,4.988 -1.262,7.478 -0.576,3.288 -1.147,6.577 -1.788,9.852 -0.067,0.347 -0.592,0.866 -0.892,0.857 -0.767,-0.022 -0.71,-0.66 -0.605,-1.25 0.747,-4.219 1.403,-8.457 2.263,-12.653 0.377,-1.842 1.166,-3.6 1.769,-5.397 m -5.728,-0.87 c -0.096,5.042 -2.295,16.748 -3.147,17.896 0.304,-5.567 0.627,-11.483 0.958,-17.541 0.657,-0.106 1.408,-0.229 2.189,-0.355 m 9.298,1.4 c -0.131,5.633 -2.794,16.844 -4.525,18.607 0,-0.456 -0.037,-0.751 0.006,-1.034 0.448,-2.98 0.864,-5.966 1.379,-8.935 0.393,-2.266 0.877,-4.519 1.4,-6.76 0.206,-0.882 0.485,-1.853 1.74,-1.878 m -2.396,79.878 c 0.1,-1.581 0.186,-2.948 0.284,-4.505 2.184,0.296 4.118,0.481 6.01,0.871 0.449,0.092 0.968,0.829 1.077,1.348 0.15,0.717 -0.058,1.509 -0.114,2.286 z m 0.261,-55.321 c -1.417,-0.683 -2.595,-1.115 -3.62,-1.783 -0.93,-0.607 -1.745,-0.874 -2.875,-0.582 -0.975,0.253 -2.063,0.262 -3.07,0.132 -0.834,-0.109 -1.756,-0.461 -1.551,-1.676 0.183,-1.078 1.065,-1.155 1.827,-1.043 1.17,0.172 2.341,0.468 3.453,0.871 1.167,0.424 2.224,0.515 3.458,0.139 1.067,-0.326 2.273,-0.195 3.743,-0.286 -0.487,1.51 -0.846,2.621 -1.365,4.228 m -29.024,49.352 c 0.549,2.533 1.109,5.119 1.675,7.73 -3.031,0.414 -4.353,-0.478 -4.736,-2.926 -0.086,-0.549 -0.12,-1.107 -0.213,-1.654 -0.393,-2.313 0.382,-3.129 3.274,-3.15 m 22.225,-31.545 c 0.352,-1.627 0.658,-3.045 1.044,-4.83 -2.12,1.409 -1.486,3.596 -2.584,5.345 -0.902,-0.065 -1.908,-0.057 -2.873,-0.254 -0.334,-0.068 -0.822,-0.67 -0.797,-0.994 0.159,-2.063 0.806,-3.933 2.648,-5.522 0.576,2.281 -1.794,3.76 -0.805,5.839 0.769,-1.714 1.537,-3.428 2.388,-5.327 1.342,0.467 2.712,0.944 4.188,1.458 -0.476,1.724 -0.891,3.227 -1.342,4.86 -0.678,-0.209 -1.185,-0.365 -1.867,-0.575 m 28.763,-445.651 c -1.313,-0.358 -2.468,-0.585 -3.546,-1.005 -0.544,-0.212 -1.223,-0.694 -1.372,-1.194 -0.677,-2.256 -0.795,-4.572 -0.391,-7.49 2.549,3.111 6.105,4.969 5.309,9.689 m -25.6,402.386 c -0.563,3.3 -1.073,6.35 -1.605,9.395 -0.534,3.057 -1.086,6.111 -1.646,9.163 -0.038,0.21 -0.207,0.396 -0.363,0.682 -0.526,-0.151 -1.023,-0.293 -1.587,-0.453 1.207,-6.436 2.381,-12.697 3.567,-19.023 0.579,0.083 1.037,0.15 1.634,0.236 m 3.908,19.184 c 0.129,-0.766 0.195,-1.234 0.288,-1.696 0.827,-4.141 1.651,-8.282 2.496,-12.419 0.176,-0.858 0.414,-1.706 0.668,-2.545 0.282,-0.935 0.918,-1.199 2.028,-0.812 -0.923,5.965 -1.948,11.899 -3.839,17.782 -0.548,-0.103 -0.989,-0.187 -1.641,-0.31 m -25.153,50.687 c 1.138,3.467 1.27,6.878 0.96,10.283 -0.307,3.377 0.366,6.856 -0.926,10.172 -0.995,-1.23 -1.086,-2.658 -1.046,-4.044 0.11,-3.856 -0.337,-7.614 -1.474,-11.31 -0.908,-2.954 -0.64,-3.42 2.486,-5.101 m 25.924,-76.915 c -0.791,0.357 -1.39,0.187 -1.441,-0.809 -0.078,-1.5 -0.242,-3.027 -0.052,-4.503 0.282,-2.186 0.903,-4.326 1.269,-6.504 0.83,-4.93 1.587,-9.873 2.384,-14.808 0.165,-1.021 0.252,-2.077 0.882,-3.265 1.021,1.919 0.629,3.586 0.37,5.199 -0.54,3.36 -1.274,6.69 -1.765,10.056 -0.309,2.111 -0.245,4.274 -0.485,6.399 -0.303,2.675 -0.746,5.334 -1.162,8.235 m -11.264,0.081 c 5.046,1.003 9.743,1.938 14.406,2.865 0.608,-0.437 1.223,-0.88 2.145,-1.543 -0.097,1.858 -0.173,3.309 -0.258,4.948 -2.832,0.211 -5.354,-0.536 -7.922,-0.902 -2.565,-0.364 -5.16,-0.522 -7.816,-0.778 -0.178,-1.476 -0.348,-2.879 -0.555,-4.59 m 92.251,-635.916 c -3.714,-0.287 -7.428,-0.814 -11.303,-1.877 0.527,-1.558 1.003,-2.9 1.433,-4.256 0.36,-1.132 1.155,-1.511 2.224,-1.257 1.783,0.426 3.586,0.824 5.308,1.435 3.36,1.193 3.835,2.46 2.338,5.955 m -85.979,710.818 c 0.326,0.079 0.703,0.152 1.069,0.262 2.239,0.672 2.289,0.68 2.054,3.164 -0.124,1.321 -0.515,2.614 -0.686,3.932 -0.385,2.981 -0.68,5.974 -1.073,8.953 -0.123,0.93 -0.37,1.859 -0.687,2.744 -0.687,1.914 -1.159,2.116 -3.551,1.627 0.944,-6.795 1.891,-13.602 2.874,-20.682 m 40.415,-455.047 c 0.663,-3.856 1.248,-7.255 1.894,-11.012 2.281,0.722 4.188,1.325 6.053,1.915 0.327,3.006 -0.235,7.548 -1.254,10.019 -2.058,-0.284 -4.155,-0.573 -6.693,-0.922 m -54.369,444.068 c 0.67,-2.586 1.268,-5.12 2.029,-7.604 0.12,-0.396 1.006,-0.862 1.47,-0.798 2.635,0.366 5.236,1.11 8.134,0.041 -1.084,3.319 -1.827,6.324 -3.631,8.986 -2.65,-0.207 -5.242,-0.41 -8.002,-0.625 m 105.209,-696.282 c -0.25,0.297 -0.372,0.587 -0.544,0.621 -2.653,0.525 -5.352,1.567 -7.963,1.387 -3.7,-0.255 -7.348,-1.374 -10.995,-2.222 -0.826,-0.192 -1.674,-0.66 -2.296,-1.234 -0.44,-0.406 -0.815,-1.291 -0.669,-1.805 0.153,-0.532 0.913,-1.062 1.514,-1.245 0.542,-0.166 1.233,0.109 1.848,0.238 2.421,0.508 4.835,1.049 7.258,1.55 3.585,0.742 7.175,1.455 10.759,2.203 0.35,0.072 0.667,0.306 1.088,0.507 m -41.275,243.136 c 1.815,0.219 3.371,0.464 4.937,0.579 1.558,0.114 3.126,0.096 4.903,0.142 -0.378,3.54 -0.728,6.821 -1.088,10.19 -3.498,0.112 -6.59,-0.339 -9.826,-0.726 0.369,-3.5 0.709,-6.722 1.074,-10.185 m 33.811,-254.711 c -1.251,-0.28 -2.355,-0.526 -3.201,-0.715 0.516,-2.264 1.131,-4.233 1.397,-6.247 0.985,-7.429 1.841,-14.875 2.776,-22.311 0.277,-2.204 0.322,-2.198 2.961,-2.523 0.216,1.103 0.697,2.253 0.615,3.36 -0.27,3.643 -0.574,7.299 -1.18,10.897 -0.791,4.698 -1.893,9.343 -2.837,14.017 -0.218,1.079 -0.332,2.179 -0.531,3.522 m -12.077,255.339 c -0.297,3.556 0.322,7.262 -1.487,10.688 -3.284,0.074 -6.517,0.324 -10.049,-0.203 0.878,-3.497 -0.212,-6.915 0.854,-10.485 z m -6.882,-240.163 c 0.279,-0.354 0.567,-0.722 0.857,-1.089 2.156,-2.718 2.109,-2.544 5.343,-1.382 5.32,1.911 10.736,3.517 16.509,2.096 0.538,-0.132 1.106,-0.145 1.662,-0.195 1.713,-0.153 2.973,0.899 3.222,2.683 0.153,1.094 -0.253,1.481 -2.143,2.032 -0.228,0.066 -0.465,0.109 -0.696,0.165 -7.296,1.767 -14.385,1.041 -21.278,-1.82 -1.291,-0.537 -2.71,-0.978 -3.476,-2.49 m -52.211,625.661 c 1.824,0.657 1.578,1.87 1.538,2.908 -0.104,2.706 -0.195,5.418 -0.454,8.112 -0.748,7.786 -1.98,15.459 -4.459,22.939 -2.376,7.173 -4.289,14.5 -6.452,21.745 -0.683,2.287 -1.62,4.5 -2.25,6.798 -0.655,2.392 -2.217,4.07 -3.974,6.099 -0.371,-1.635 0.334,-2.629 0.718,-3.705 0.908,-2.544 1.88,-5.074 2.617,-7.668 1.327,-4.677 2.474,-9.404 3.747,-14.097 1.377,-5.075 2.82,-10.133 4.22,-15.202 2.252,-8.154 3.991,-16.393 4.198,-24.896 0.022,-0.925 0.326,-1.843 0.551,-3.033 m 26.49,-377.378 c -1.251,-0.235 -2.372,-0.445 -3.511,-0.659 -0.278,-4.228 -2.82,-6.699 -5.679,-9.004 -0.633,-0.51 -1.25,-1.288 -1.44,-2.05 -0.419,-1.68 -0.701,-3.422 -0.78,-5.151 -0.1,-2.139 -0.962,-3.825 -2.403,-5.316 -0.976,-1.01 -1.902,-2.069 -3.26,-3.555 5.438,0.727 10.316,0.97 15.619,1.999 -0.956,0.719 -1.501,1.134 -2.051,1.542 -2.48,1.843 -2.39,6.789 0.217,8.472 1.655,1.068 3.411,1.982 5.09,2.947 -0.579,3.457 -1.155,6.902 -1.802,10.775 m 48.824,-8.234 c -0.218,0.455 -0.722,1.003 -0.609,1.349 0.778,2.371 -1.013,3.103 -2.471,3.997 -2.16,1.322 -4.356,2.59 -6.572,3.818 -1.795,0.994 -3.738,1.379 -6.128,1.339 0.343,-3.411 0.648,-6.558 0.981,-9.7 0.121,-1.144 0.576,-1.936 1.697,-2.616 2.507,-1.522 2.868,-3.432 1.443,-5.879 -0.277,-0.476 -0.687,-0.873 -1.015,-1.321 -0.244,-0.33 -0.453,-0.683 -0.887,-1.345 3.998,0.547 7.605,1.041 11.244,1.538 -1.601,5.149 -1.558,6.194 2.317,8.82 m -107.049,494.962 c 0,-2.362 -0.071,-4.828 0.014,-7.289 0.176,-5.028 0.656,-10.056 0.584,-15.078 -0.05,-3.479 -0.795,-6.949 -1.267,-10.418 -0.268,-1.974 -0.719,-3.928 -0.887,-5.908 -0.118,-1.397 0.631,-2.144 1.873,-2.336 1.177,-0.181 1.815,0.22 2.343,1.524 0.209,0.518 0.381,1.054 0.525,1.594 2.414,9.067 3.829,18.282 3.939,27.673 0.027,2.225 -0.05,4.474 -0.351,6.676 -0.561,4.095 -1.964,5.245 -6.486,3.812 -0.067,-0.022 -0.116,-0.099 -0.287,-0.25 m 67.173,-479.858 c -1.461,13.965 -3.536,27.627 -5.824,41.606 -2.135,-0.946 -3.924,-1.739 -5.71,-2.53 0.901,-13.609 3.163,-26.776 4.905,-40.248 2.316,0.409 4.48,0.792 6.629,1.172 m -57.129,367.467 c 0.281,1.688 0.536,3.174 0.775,4.662 1.072,6.657 1.444,13.342 0.685,20.057 -0.582,5.155 -1.207,10.307 -1.889,15.45 -0.48,3.614 -1.006,7.226 -1.664,10.811 -0.61,3.32 -1.634,6.575 -2.076,9.911 -0.352,2.662 -1.413,5.047 -2.128,7.564 -0.289,1.015 -0.868,1.237 -1.94,0.653 0.274,-0.955 0.609,-1.912 0.821,-2.895 1.828,-8.459 2.564,-17.038 2.58,-25.673 0.017,-9.734 -0.133,-19.468 -0.179,-29.203 -0.014,-3.09 0.01,-6.184 0.135,-9.272 0.07,-1.701 0.703,-2.199 2.439,-2.24 0.706,-0.017 1.416,0.097 2.441,0.175 m -2.405,113.576 c 0.329,-2.128 0.777,-4.068 0.897,-6.027 0.16,-2.619 0.035,-5.255 0.088,-7.882 0.139,-6.927 -1.228,-13.656 -2.623,-20.384 -0.356,-1.714 -0.775,-3.428 -0.944,-5.163 -0.164,-1.693 0.597,-2.345 2.286,-2.222 1.748,0.127 3.499,0.263 5.236,0.494 2.65,0.353 3.798,1.487 4.14,4.155 0.635,4.938 0.558,9.847 -0.443,14.759 -0.637,3.121 -1.042,6.299 -1.363,9.47 -0.396,3.915 -1.035,7.747 -2.63,11.377 -1.208,2.751 -2.534,3.087 -4.644,1.423 m 69.809,-479.941 c -1.736,14.468 -3.739,28.61 -6.96,42.762 -2.043,-0.466 -4.128,-0.937 -6.212,-1.416 -1.168,-0.27 -1.539,-0.985 -1.249,-2.142 0.27,-1.078 0.502,-2.171 0.675,-3.268 0.941,-5.985 1.868,-11.972 2.777,-17.961 0.238,-1.576 0.401,-3.163 0.587,-4.747 0.474,-4.032 0.927,-8.066 1.43,-12.093 0.075,-0.603 0.37,-1.178 0.593,-1.853 2.863,0.247 5.611,0.482 8.359,0.718 m -5.103,42.915 c 0.464,-3.326 0.57,-6.399 1.358,-9.284 2.008,-7.35 2.696,-14.866 3.478,-22.392 0.346,-3.322 1.106,-6.6 1.646,-9.903 0.181,-1.108 0.711,-1.722 1.888,-1.715 2.621,0.015 5.242,0.005 7.925,0.005 0.87,2.317 0.857,2.33 0.288,4.419 -0.209,0.765 -0.331,1.553 -0.485,2.332 -0.739,3.737 -1.446,7.482 -2.221,11.212 -0.918,4.427 -1.912,8.837 -2.836,13.263 -0.764,3.658 -1.443,7.335 -2.25,10.983 -0.111,0.503 -0.711,1.244 -1.13,1.276 -2.449,0.183 -4.915,0.259 -7.661,-0.196 M 22.219,52.121 C 18.342,50.649 14.769,49.706 11.613,47.994 7.48,45.753 3.859,42.729 1.032,38.835 -1.851,34.863 -2.727,30.22 -3.289,25.589 -3.943,20.197 -3.72,14.755 -2.439,9.409 c 0.295,-1.234 0.356,-2.523 0.591,-3.775 0.257,-1.367 0.591,-2.72 0.892,-4.078 0.385,0.293 0.496,0.53 0.459,0.741 -0.645,3.667 -0.5,7.335 0.268,10.942 0.461,2.168 0.911,4.508 2.068,6.323 2.779,4.361 5.961,8.44 9.818,11.985 3.549,3.262 6.915,6.74 8.034,11.734 0.294,1.313 0.914,2.549 1.288,3.848 0.432,1.495 0.756,3.021 1.24,4.992 M -75.19,-38.163 c 2.675,-22.012 5.328,-43.832 7.999,-65.811 2.428,0.526 4.586,0.993 7.121,1.541 -3.51,21.91 -6.667,43.708 -9.235,65.694 -2.097,0.218 -3.919,-0.441 -5.885,-1.424 M -188.141,92.135 c -0.241,0.007 -0.482,0.013 -0.723,0.02 -0.696,-3.9 -1.378,-7.801 -2.091,-11.698 -1.2,-6.554 -0.853,-13.171 -0.821,-19.773 0.041,-8.315 1.036,-16.564 1.774,-24.831 0.767,-8.595 3.711,-16.438 7.843,-23.906 0.281,-0.508 0.722,-0.926 1.294,-1.641 0.616,1.11 1.247,1.875 1.488,2.748 0.802,2.904 1.459,5.849 2.185,8.775 0.193,0.775 0.319,1.597 0.675,2.295 0.859,1.682 0.593,3.121 -0.357,4.724 -3.184,5.375 -5.345,11.226 -7.136,17.165 -1.351,4.48 -2.076,9.151 -3.031,13.748 -0.727,3.492 -1.599,6.94 -1.705,10.563 -0.196,6.699 -0.798,13.393 0.589,20.043 0.118,0.566 0.016,1.178 0.016,1.768 M -39.699,-99.72 c -0.267,2.6 -0.461,4.881 -0.741,7.153 -0.546,4.427 -1.165,8.847 -1.708,13.276 -0.485,3.952 -0.936,7.91 -1.35,11.87 -0.38,3.641 -0.756,7.283 -1.013,10.934 -0.212,3.012 -0.25,6.038 -0.354,9.058 -0.027,0.767 -0.177,1.453 -1.013,1.707 -1.493,0.453 -1.563,1.705 -1.55,2.9 0.025,2.121 0.173,4.24 0.277,6.531 -3,1.073 -6.232,1.278 -9.389,0.668 0,-1.931 -0.117,-3.689 0.024,-5.425 0.28,-3.411 0.684,-6.813 1.071,-10.215 0.467,-4.112 0.872,-8.235 1.49,-12.325 0.581,-3.851 1.504,-7.65 2.096,-11.5 0.725,-4.727 1.272,-9.483 1.88,-14.228 0.392,-3.076 0.736,-6.158 1.143,-9.231 0.092,-0.687 0.357,-1.352 0.58,-2.169 2.79,0.325 5.452,0.635 8.557,0.996 m -10.161,-1.277 c -0.155,1.442 -0.269,2.54 -0.39,3.637 -0.601,5.454 -1.048,10.93 -1.852,16.354 -0.652,4.395 -1.767,8.72 -2.601,13.091 -0.234,1.226 -0.152,2.507 -0.295,3.754 -0.807,7.046 -1.646,14.087 -2.455,21.132 -0.288,2.508 -0.526,5.023 -0.778,7.457 -2.164,0 -4.075,0.024 -5.984,-0.014 -0.629,-0.013 -1.265,-0.143 -1.88,-0.296 -1.801,-0.448 -1.96,-0.603 -1.757,-2.451 0.365,-3.314 0.821,-6.618 1.237,-9.927 0.298,-2.371 0.609,-4.741 0.884,-7.114 0.357,-3.089 0.618,-6.189 1.038,-9.268 0.689,-5.044 1.452,-10.078 2.223,-15.11 0.641,-4.169 1.341,-8.328 2.01,-12.492 0.15,-0.939 0.294,-1.879 0.416,-2.822 0.292,-2.264 0.399,-4.565 1.277,-6.941 3.038,0.345 5.922,0.672 8.907,1.01 m -98.369,47.964 0.593,-0.182 c 0.381,1.09 0.92,2.152 1.117,3.273 1.05,5.969 2.235,11.928 2.938,17.941 0.554,4.73 0.515,9.533 0.66,14.306 0.063,2.071 0.28,4.233 -0.185,6.21 -1.645,6.976 -3.484,13.911 -5.386,20.823 -1.591,5.782 -4.898,10.206 -10.263,13.231 -5.226,2.947 -10.669,2.56 -16.075,2.256 -1.399,-5.161 -2.723,-10.04 -4.148,-15.297 1.016,0.165 1.684,0.279 2.353,0.382 1.254,0.195 2.523,0.616 3.762,0.541 7.013,-0.427 12.545,-3.762 17.178,-8.888 3.123,-3.454 5.027,-7.533 6.646,-11.82 1.363,-3.606 2.405,-7.283 2.692,-11.126 0.256,-3.416 0.378,-6.846 0.465,-10.271 0.142,-5.59 0.217,-11.179 -1.302,-16.648 -0.431,-1.554 -0.701,-3.153 -1.045,-4.731 m 62.712,74.249 c 2.372,0.31 2.504,0.495 2.201,3.006 -0.574,4.748 -1.222,9.487 -1.726,14.242 -0.615,5.792 -1.19,11.591 -1.634,17.398 -0.261,3.406 -0.197,6.834 -0.348,10.249 -0.151,3.41 -0.311,6.822 -0.615,10.219 -0.232,2.607 -0.798,5.183 -1.034,7.789 -0.781,8.639 -0.708,17.346 -2.303,25.924 -0.8,4.306 -1.267,8.676 -1.791,13.028 -0.247,2.053 -0.092,4.162 -0.436,6.192 -0.744,4.392 -1.739,8.741 -2.545,13.123 -0.777,4.233 -1.541,8.471 -2.139,12.732 -0.796,5.664 -1.426,11.352 -2.126,17.031 -0.039,0.317 -0.058,0.637 -0.093,0.955 -0.859,7.844 -1.698,15.691 -2.593,23.532 -0.208,1.82 -0.686,3.608 -0.908,5.427 -0.889,7.272 -1.721,14.551 -2.584,21.827 -0.215,1.81 -0.391,3.631 -0.724,5.421 -0.978,5.25 -2.267,10.44 -1.979,15.867 0.126,2.374 -0.122,4.784 -0.377,7.159 -0.425,3.962 -1,7.909 -1.495,11.863 -0.128,1.022 -0.159,2.056 -0.291,3.078 -0.418,3.247 -0.895,6.487 -1.289,9.737 -0.795,6.569 -1.544,13.145 -2.324,19.716 -0.488,4.109 -0.96,8.221 -1.51,12.321 -0.708,5.294 -1.482,10.578 -2.237,15.865 -0.474,3.314 -0.97,6.625 -1.444,9.939 -0.382,2.676 -0.408,5.397 -1.373,7.994 -0.433,1.164 -0.512,2.482 -0.615,3.741 -0.177,2.189 -0.248,4.387 -0.379,6.864 -0.777,-0.364 -1.379,-0.646 -1.83,-0.857 0.417,-2.579 0.864,-4.918 1.164,-7.276 0.847,-6.644 1.619,-13.298 2.449,-19.945 0.613,-4.908 1.324,-9.805 1.884,-14.72 0.253,-2.214 0.124,-4.471 0.373,-6.686 0.901,-8.006 1.883,-16.002 2.848,-24 0.316,-2.611 0.658,-5.219 1.016,-7.825 0.203,-1.479 0.491,-2.948 0.688,-4.429 0.314,-2.364 0.589,-4.735 0.871,-7.104 0.198,-1.659 0.443,-3.316 0.557,-4.981 0.135,-1.984 0.084,-3.98 0.235,-5.962 0.401,-5.248 1.816,-10.364 1.906,-15.67 0.085,-5.098 1.605,-10.02 1.852,-15.171 0.338,-7.064 1.8,-14.074 2.745,-21.111 0.485,-3.61 0.898,-7.229 1.331,-10.844 0.806,-6.734 1.563,-13.475 2.415,-20.203 0.762,-6.02 1.549,-12.04 2.467,-18.038 0.711,-4.644 0.509,-9.388 1.713,-13.982 0.584,-2.229 0.862,-4.545 1.184,-6.835 0.577,-4.113 1.065,-8.238 1.622,-12.355 0.642,-4.748 1.53,-9.473 1.932,-14.24 0.705,-8.355 1.086,-16.737 1.678,-25.103 0.162,-2.302 0.691,-4.577 0.874,-6.879 0.503,-6.367 0.842,-12.747 1.375,-19.111 0.653,-7.802 1.395,-15.597 2.196,-23.384 0.192,-1.871 0.77,-3.701 1.166,-5.528 m -23.293,297.957 c -0.233,0.002 -0.467,0.004 -0.701,0.007 0.063,-1.396 0.079,-2.796 0.196,-4.187 0.407,-4.845 0.972,-9.68 1.242,-14.532 0.242,-4.35 0.374,-8.702 0.995,-13.023 0.247,-1.726 0.377,-3.468 0.604,-5.197 0.176,-1.338 0.409,-2.668 0.636,-3.999 0.521,-3.064 1.187,-6.111 1.553,-9.193 0.801,-6.73 1.446,-13.478 2.166,-20.217 0.212,-1.981 0.451,-3.96 0.7,-5.937 0.378,-3.004 0.753,-6.009 1.17,-9.008 0.822,-5.92 1.603,-11.846 2.531,-17.75 0.769,-4.891 1.851,-9.735 2.565,-14.633 0.723,-4.963 1.112,-9.975 1.745,-14.953 0.554,-4.35 1.304,-8.675 1.86,-13.024 0.495,-3.868 0.776,-7.763 1.276,-11.63 0.458,-3.553 1.129,-7.078 1.618,-10.627 0.466,-3.383 0.823,-6.78 1.219,-10.173 0.332,-2.848 0.661,-5.697 0.975,-8.547 0.462,-4.192 0.863,-8.39 1.381,-12.575 0.413,-3.327 1.101,-6.623 1.42,-9.957 0.615,-6.43 1.036,-12.877 1.577,-19.314 0.248,-2.939 0.627,-5.867 0.879,-8.805 0.368,-4.291 0.656,-8.588 1.013,-12.88 0.277,-3.333 0.608,-6.663 0.91,-9.994 0.072,-0.793 0.081,-1.594 0.193,-2.381 1.083,-7.656 2.176,-15.309 3.28,-22.961 0.385,-2.665 0.808,-5.325 1.222,-8.045 2.679,0.578 5.136,1.108 7.793,1.681 -0.058,0.86 -0.05,1.646 -0.173,2.41 -0.626,3.857 -1.102,7.751 -1.972,11.554 -1.801,7.863 -2.862,15.842 -4.019,23.808 -0.696,4.79 -1.235,9.603 -2.024,14.377 -0.972,5.868 -2.047,11.722 -3.06,17.583 -0.935,5.407 -1.31,10.909 -2,16.361 -0.51,4.022 -1.113,8.031 -1.706,12.041 -0.663,4.483 -1.367,8.959 -2.045,13.439 -0.554,3.668 -1.062,7.342 -1.654,11.004 -0.542,3.355 -1.444,6.677 -1.691,10.05 -0.302,4.141 -0.897,8.22 -1.599,12.296 -0.838,4.856 -1.005,9.831 -2.579,14.56 -0.277,0.829 -0.507,1.688 -0.636,2.552 -0.728,4.886 -1.447,9.774 -2.112,14.669 -0.363,2.671 -0.507,5.374 -0.937,8.032 -1.097,6.797 -2.345,13.57 -3.431,20.369 -0.299,1.875 -0.12,3.823 -0.365,5.71 -0.512,3.944 -1.179,7.867 -1.744,11.804 -0.237,1.653 -0.353,3.324 -0.567,4.981 -0.347,2.676 -0.744,5.345 -1.092,8.02 -0.462,3.55 -0.903,7.103 -1.343,10.657 -0.488,3.936 -1.06,7.864 -1.422,11.811 -0.485,5.284 -0.668,10.587 -1.497,15.849 -0.937,5.948 -1.58,11.943 -2.35,17.917 m -0.488,35.517 c -0.572,-3.251 -0.293,-6.258 0.05,-9.229 0.411,-3.565 1.076,-7.101 1.651,-10.646 0.792,-4.878 1.669,-9.744 2.382,-14.633 0.483,-3.305 0.698,-6.647 1.119,-9.961 0.411,-3.244 0.845,-6.489 1.42,-9.707 1.287,-7.212 2.656,-14.41 4.016,-21.609 0.811,-4.29 1.703,-8.565 2.494,-12.858 0.604,-3.288 1.131,-6.59 1.649,-9.893 0.469,-2.985 0.906,-5.976 1.309,-8.97 0.767,-5.68 1.347,-11.39 2.283,-17.041 1.236,-7.472 2.671,-14.914 4.155,-22.341 0.778,-3.888 0.964,-7.894 2.32,-11.673 0.293,-0.816 0.496,-1.727 0.464,-2.585 -0.233,-6.235 2.218,-12.048 2.801,-18.169 0.36,-3.788 1.555,-7.488 2.229,-11.254 1.238,-6.91 2.508,-13.808 3.969,-20.679 1.276,-5.996 2.854,-11.938 3.573,-18.061 0.539,-4.587 1.516,-9.121 2.268,-13.683 1.272,-7.715 2.527,-15.432 3.779,-23.15 0.996,-6.145 2.055,-12.28 2.942,-18.441 0.864,-5.996 1.425,-12.037 2.35,-18.022 0.719,-4.649 1.838,-9.236 2.69,-13.866 0.52,-2.818 0.786,-5.683 1.323,-8.496 0.481,-2.524 1.025,-2.832 3.95,-2.735 -0.13,1.184 -0.217,2.364 -0.395,3.531 -0.706,4.655 -1.479,9.301 -2.153,13.962 -0.835,5.768 -1.563,11.551 -2.398,17.319 -0.594,4.107 -1.286,8.201 -1.942,12.3 -1.338,8.355 -2.633,16.717 -4.048,25.06 -0.547,3.222 -1.466,6.381 -2.05,9.598 -1.083,5.971 -1.955,11.98 -3.076,17.943 -1.564,8.319 -3.334,16.598 -4.91,24.914 -2.482,13.093 -4.874,26.204 -7.309,39.306 -1.02,5.492 -2.085,10.976 -3.069,16.474 -1.927,10.768 -3.316,21.628 -5.784,32.305 -1.583,6.846 -2.936,13.746 -4.3,20.641 -1.456,7.359 -2.827,14.736 -4.188,22.114 -0.463,2.512 -0.774,5.052 -1.171,7.577 -1.092,6.943 -2.27,13.872 -3.262,20.829 -0.665,4.658 -1.094,9.349 -1.582,14.031 -0.504,4.838 -0.992,9.68 -1.409,14.527 -0.205,2.384 -0.28,4.783 -0.33,7.177 -0.053,2.582 -1.723,4.556 -2.49,6.868 -0.146,0.44 -0.761,0.725 -1.32,1.226 m -6.359,-0.473 c -1.15,0 -1.939,0.028 -2.726,-0.006 -2.114,-0.09 -2.692,-0.491 -2.533,-2.555 0.235,-3.075 0.771,-6.128 1.222,-9.184 0.104,-0.705 0.527,-1.378 0.558,-2.076 0.168,-3.727 1.362,-7.301 1.288,-11.104 -0.057,-2.977 0.842,-5.973 1.321,-8.96 0.779,-4.869 1.57,-9.736 2.339,-14.606 0.223,-1.421 0.423,-2.848 0.565,-4.279 0.529,-5.311 0.718,-10.681 1.649,-15.92 0.627,-3.531 0.641,-7.087 1.213,-10.609 0.665,-4.085 0.615,-8.287 1.282,-12.372 1.031,-6.294 2.037,-12.562 2.144,-18.968 0.051,-3.088 0.363,-6.239 1.08,-9.237 1.717,-7.186 1.937,-14.551 2.957,-21.817 0.821,-5.845 1.365,-11.729 2.081,-17.589 0.405,-3.322 0.99,-6.623 1.35,-9.95 0.668,-6.177 1.192,-12.371 1.857,-18.549 0.273,-2.538 0.791,-5.047 1.131,-7.578 0.414,-3.076 0.66,-6.177 1.154,-9.239 0.736,-4.559 1.738,-9.077 2.425,-13.641 1.126,-7.492 2.145,-15.001 3.102,-22.516 0.524,-4.111 0.847,-8.249 1.225,-12.377 0.576,-6.277 1.105,-12.558 1.686,-18.835 0.191,-2.061 0.484,-4.111 0.726,-6.167 0.57,-4.833 1.207,-9.652 1.031,-14.547 -0.102,-2.854 -0.077,-5.735 0.193,-8.575 0.484,-5.08 1.195,-10.138 1.815,-15.204 0.377,-3.088 0.76,-6.176 1.139,-9.264 0.22,-1.8 0.437,-3.601 0.689,-5.672 1.559,0.614 2.867,1.133 4.179,1.644 1.369,0.533 1.539,0.858 1.318,2.276 -0.724,4.654 -1.522,9.298 -2.122,13.969 -0.812,6.322 -1.484,12.663 -2.184,19 -0.386,3.483 -0.687,6.977 -1.066,10.461 -0.265,2.444 -0.656,4.876 -0.885,7.323 -0.341,3.652 -0.581,7.313 -0.879,10.968 -0.447,5.465 -0.879,10.931 -1.373,16.392 -0.302,3.337 -0.668,6.67 -1.084,9.996 -0.188,1.501 -0.662,2.965 -0.842,4.466 -0.931,7.756 -1.817,15.517 -2.704,23.279 -0.616,5.39 -1.156,10.79 -1.825,16.174 -0.717,5.768 -1.568,11.519 -2.32,17.282 -0.806,6.175 -1.775,12.338 -2.285,18.538 -0.545,6.622 -2.052,13.069 -3.002,19.613 -0.628,4.333 -1.198,8.674 -1.804,13.01 -0.088,0.631 -0.243,1.252 -0.344,1.882 -0.477,2.986 -1.008,5.965 -1.401,8.962 -0.404,3.078 -0.621,6.18 -1.009,9.26 -0.537,4.275 -1.213,8.532 -1.732,12.809 -1.141,9.403 -2.233,18.813 -3.321,28.224 -0.292,2.528 -0.578,5.062 -0.723,7.601 -0.306,5.329 -0.268,10.69 -0.84,15.987 -0.504,4.663 -0.409,9.424 -1.821,13.98 -0.281,0.906 -0.399,1.865 -0.569,2.803 -1.09,6.031 -1.496,12.188 -3.233,18.096 -0.711,2.419 -1.111,4.794 -0.092,7.401 m 8.353,-28.971 c -0.177,-0.005 -0.353,-0.01 -0.53,-0.015 -0.496,-2.019 -0.27,-4.032 0.193,-6.043 0.161,-0.699 0.475,-1.395 0.483,-2.095 0.06,-4.811 1.739,-9.374 2.09,-14.148 0.286,-3.895 0.932,-7.761 1.334,-11.649 0.526,-5.076 0.846,-10.177 1.476,-15.239 0.878,-7.046 2.03,-14.058 2.934,-21.101 0.77,-6 1.268,-12.035 2.039,-18.034 1.13,-8.785 2.372,-17.555 3.617,-26.325 0.58,-4.089 1.25,-8.165 1.929,-12.24 1.401,-8.408 2.85,-16.81 4.25,-25.219 0.589,-3.544 1.159,-7.093 1.633,-10.654 0.568,-4.27 0.931,-8.569 1.561,-12.83 0.43,-2.908 1.21,-5.762 1.756,-8.655 1.033,-5.471 1.383,-11.035 2.209,-16.54 0.995,-6.623 2.119,-13.224 2.719,-19.923 0.617,-6.894 2.19,-13.701 3.278,-20.557 0.463,-2.913 0.692,-5.863 1.145,-8.778 0.845,-5.436 1.804,-10.854 2.657,-16.29 0.334,-2.125 0.38,-4.3 0.787,-6.407 0.575,-2.974 1.489,-5.883 2.034,-8.86 0.877,-4.791 1.564,-9.618 2.352,-14.425 0.096,-0.59 0.327,-1.157 0.508,-1.782 2.771,0.181 5.343,0.349 8.148,0.532 -0.572,3.545 -0.825,6.834 -1.665,9.966 -2.011,7.499 -3.39,15.104 -4.421,22.782 -0.515,3.833 -0.828,7.693 -1.376,11.52 -0.61,4.259 -1.423,8.489 -2.075,12.742 -0.528,3.44 -0.884,6.908 -1.446,10.342 -0.282,1.723 -1.012,3.375 -1.264,5.099 -0.931,6.385 -1.586,12.814 -2.653,19.175 -1.029,6.131 -2.426,12.202 -3.689,18.293 -0.727,3.508 -1.549,6.996 -2.253,10.508 -0.578,2.88 -1.073,5.778 -1.555,8.677 -0.653,3.925 -1.206,7.866 -1.905,11.782 -0.376,2.111 -1.058,4.166 -1.443,6.275 -0.73,3.997 -1.326,8.019 -2.012,12.024 -0.752,4.39 -1.516,8.778 -2.324,13.158 -1.053,5.707 -2.18,11.399 -3.226,17.107 -0.86,4.695 -1.656,9.401 -2.462,14.104 -0.187,1.091 -0.283,2.196 -0.447,3.29 -0.461,3.074 -0.988,6.139 -1.391,9.22 -0.443,3.392 -0.636,6.821 -1.19,10.194 -0.863,5.25 -1.965,10.46 -2.915,15.696 -0.737,4.069 -1.342,8.161 -2.107,12.224 -0.869,4.615 -2.01,9.183 -2.737,13.818 -0.679,4.324 -0.872,8.721 -1.456,13.062 -0.616,4.575 -1.44,9.122 -2.175,13.681 -0.136,0.847 -0.277,1.692 -0.415,2.538 m 60.054,-438.522 c 3.404,-1.517 4.675,-4.334 1.424,-6.686 -0.84,-0.607 -1.388,-0.566 -2.066,0.089 -1.541,1.49 -2.009,3.069 -1.081,4.989 0.538,1.113 0.573,2.077 0.285,3.208 -0.194,0.757 -0.123,1.578 -0.223,2.363 -0.148,1.144 -0.344,2.282 -0.536,3.539 -3.009,-0.601 -5.704,-1.139 -8.617,-1.721 0.806,-3.575 0.391,-7.16 3.212,-9.778 0.822,-0.762 0.683,-1.693 0.195,-2.644 -0.504,-0.982 -1.357,-1.328 -2.341,-1.405 -1.072,-0.084 -1.484,0.747 -1.909,1.542 -0.553,1.032 -0.371,1.992 0.175,2.954 0.267,0.471 0.739,1 0.684,1.45 -0.302,2.505 -0.503,5.051 -1.662,7.566 -2.435,-0.58 -4.904,-0.593 -7.212,-1.636 0.458,-2.951 0.884,-5.693 1.333,-8.587 0.398,-0.338 1.015,-0.733 1.461,-1.268 0.854,-1.023 0.801,-2.567 -0.014,-3.533 -0.77,-0.914 -2.253,-1.211 -3.274,-0.654 -0.971,0.529 -1.667,1.985 -1.018,3.134 1.531,2.706 0.68,5.421 0.4,8.142 -0.082,0.801 -0.442,1.573 -0.686,2.399 -2.156,-0.819 -3.992,-1.517 -6.13,-2.33 0.766,-3.222 1.23,-6.492 2.326,-9.535 3.006,-8.345 7.162,-16.183 11.166,-24.081 0.901,-1.778 1.817,-3.57 2.481,-5.443 2.838,-8.013 4.581,-16.291 5.625,-24.711 0.824,-6.652 1.626,-13.313 2.179,-19.991 0.381,-4.602 0.55,-9.249 0.381,-13.86 -0.128,-3.492 -1.029,-6.95 -1.423,-10.441 -0.448,-3.963 -0.878,-7.94 -1.023,-11.921 -0.182,-5.072 2.063,-9.042 6.526,-11.433 3.825,-2.047 7.845,-2.565 11.836,-0.108 4.487,2.763 5.828,6.92 5.481,11.892 -0.369,5.298 -1.91,10.364 -3.361,15.405 -1.788,6.21 -4.011,12.299 -6.154,18.401 -1.406,4.006 -2.8,8.015 -2.848,12.3 -0.037,3.352 0.114,6.712 0.345,10.058 0.268,3.904 0.641,7.804 1.104,11.69 0.406,3.406 0.97,6.795 1.52,10.182 0.652,4.021 1.378,8.031 2.045,12.05 0.679,4.09 1.305,8.19 1.99,12.281 0.763,4.563 1.746,9.099 2.291,13.688 0.384,3.238 0.194,6.542 0.268,9.818 0.028,1.196 -0.478,1.779 -1.734,1.677 -1.397,-0.113 -2.853,0.132 -4.196,-0.719 0.389,-2.34 0.718,-4.629 1.185,-6.891 0.107,-0.514 0.619,-1.018 1.068,-1.371 0.881,-0.697 1.432,-2.071 1.106,-3.106 -0.32,-1.018 -1.856,-2.216 -2.874,-2.241 -1.119,-0.027 -2.105,0.672 -2.566,1.819 -0.68,1.691 -0.154,2.939 1.922,4.336 -0.35,2.508 -0.711,5.085 -1.099,7.869 -2.948,-0.409 -5.674,-0.788 -8.568,-1.19 0.206,-2.584 0.399,-5.018 0.601,-7.557 m -144.006,-35.648 c -0.133,0.007 -0.265,0.013 -0.397,0.02 -0.089,-0.2 -0.252,-0.397 -0.256,-0.597 -0.145,-7.814 -0.726,-15.606 0.154,-23.444 0.889,-7.925 1.462,-15.883 2.985,-23.728 0.41,-2.112 0.572,-4.301 1.225,-6.333 1.096,-3.41 2.382,-6.771 3.796,-10.064 1.444,-3.366 2.966,-6.722 4.758,-9.91 4.133,-7.351 9.607,-13.717 15.109,-20.06 6.003,-6.919 12.537,-13.209 20.453,-17.921 2.531,-1.507 5.084,-3.017 7.76,-4.232 4.86,-2.209 9.707,-4.54 14.762,-6.203 8.211,-2.701 16.816,-3.628 25.377,-4.593 3.01,-0.339 5.997,-0.577 8.954,-1.427 7.638,-2.194 15.48,-3.066 23.422,-2.944 3.944,0.059 7.886,0.238 11.989,0.369 -0.04,0.192 -10e-4,0.7 -0.232,0.998 -0.975,1.259 -2.064,2.43 -3.048,3.681 -0.938,1.191 -1.058,1.975 0.017,2.91 1.299,1.127 2.776,2.244 4.372,2.794 3.686,1.268 7.403,2.429 11.354,2.836 4.239,0.435 8.263,-0.24 12.225,-1.493 2.521,-0.797 3.015,-2.002 2.29,-4.567 -0.109,-0.383 -0.279,-0.749 -0.435,-1.117 -1.098,-2.586 -0.652,-3.194 2.232,-3.021 0.398,0.024 0.795,0.077 1.188,0.149 7.653,1.387 14.951,3.95 22.185,6.72 1.193,0.457 2.374,0.949 3.53,1.492 3.175,1.494 6.29,3.13 9.511,4.515 5.297,2.278 10.448,4.832 15.135,8.185 4.411,3.156 8.695,6.497 12.945,9.87 4.379,3.477 8.619,7.105 11.942,11.691 2.53,3.491 5.164,6.911 7.852,10.281 3.665,4.592 6.677,9.55 8.781,15.041 0.942,2.457 1.784,4.952 2.713,7.414 1.208,3.207 2.466,6.393 3.675,9.6 0.146,0.387 0.111,0.842 0.192,1.545 -0.411,-0.388 -0.653,-0.516 -0.739,-0.713 -2.388,-5.39 -4.717,-10.807 -7.16,-16.174 -0.886,-1.949 -1.78,-3.992 -3.123,-5.618 -2.892,-3.504 -5.95,-6.895 -9.178,-10.092 -3.752,-3.716 -8.078,-6.766 -12.522,-9.61 -3.688,-2.361 -7.462,-4.59 -11.185,-6.897 -2.839,-1.759 -5.61,-3.636 -8.507,-5.292 -1.717,-0.983 -3.624,-1.633 -5.441,-2.442 -6.115,-2.721 -12.137,-5.577 -18.52,-7.756 -8.869,-3.026 -17.99,-4.904 -27.029,-7.172 -2.911,-0.731 -5.88,-1.283 -8.853,-1.691 -4.341,-0.597 -8.771,-0.511 -13.035,-1.716 -0.455,-0.129 -0.947,-0.162 -1.424,-0.173 -8.31,-0.194 -16.619,-0.471 -24.93,-0.519 -3.663,-0.022 -7.354,0.24 -10.989,0.704 -7.142,0.911 -14.076,2.821 -20.923,4.986 -6.388,2.02 -12.782,4.061 -19.041,6.438 -4.688,1.779 -9.387,3.735 -13.683,6.284 -5.135,3.045 -9.911,6.718 -14.716,10.287 -3.076,2.285 -5.887,4.924 -8.884,7.32 -5.982,4.782 -9.513,11.362 -12.995,17.915 -3.683,6.929 -6.1,14.41 -8.572,21.835 -3.834,11.515 -5.227,23.495 -6.438,35.498 -0.207,2.047 -0.419,4.094 -0.628,6.141 m 115.917,98.851 c -1.201,-0.397 -1.982,-0.77 -2.802,-0.903 -2.278,-0.367 -4.574,-0.631 -6.862,-0.94 -3.317,-0.448 -6.623,-1.012 -9.953,-1.314 -2.933,-0.267 -4.302,1.151 -4.221,4.106 0.05,1.837 0.257,3.668 0.363,5.503 0.123,2.142 0.858,3.136 2.915,3.809 0.74,0.244 1.496,0.442 2.305,0.678 -0.06,3.507 1.513,5.971 4.032,8.132 2.051,1.761 3.805,3.904 3.873,6.9 0.008,0.347 0.236,0.844 0.515,1.002 0.916,0.521 1.882,0.97 2.866,1.346 1.176,0.449 2.391,0.794 3.785,1.247 -0.116,2.193 -0.12,4.268 -0.359,6.315 -0.359,3.071 -0.933,6.117 -1.317,9.185 -0.228,1.819 -0.191,3.671 -0.403,5.492 -0.613,5.291 -1.285,10.577 -1.954,15.861 -0.116,0.916 -0.33,1.819 -0.498,2.724 -0.508,-0.079 -0.743,-0.122 -0.98,-0.152 -2.692,-0.352 -3.064,-0.136 -3.507,2.523 -0.367,2.202 -0.606,4.426 -0.856,6.646 -0.588,5.229 -1.258,10.453 -1.698,15.696 -0.72,8.597 -1.256,17.21 -1.925,25.812 -0.447,5.728 -1.047,11.446 -1.477,17.176 -0.419,5.579 -0.443,11.199 -1.113,16.744 -1.139,9.435 -2.673,18.822 -3.994,28.236 -1.376,9.808 -2.761,19.616 -4.021,29.438 -1.15,8.955 -2.134,17.93 -3.208,26.893 -0.057,0.471 -0.27,0.923 -0.549,1.841 -0.352,-0.843 -0.515,-1.182 -0.638,-1.535 -1.124,-3.23 -2.26,-6.439 -4.036,-9.405 -2.224,-3.715 -4.667,-7.308 -7.926,-10.119 -6.034,-5.207 -11.886,-10.643 -18.33,-15.363 -5.212,-3.817 -10.385,-7.69 -15.672,-11.401 -7.078,-4.967 -13.767,-10.329 -19.416,-16.948 -4.436,-5.198 -8.344,-10.64 -10.44,-17.253 -1.69,-5.333 -3.349,-10.656 -3.848,-16.264 -0.042,-0.476 -0.163,-0.945 -0.206,-1.421 -0.356,-3.949 -0.98,-7.899 -0.995,-11.85 -0.029,-7.942 1.348,-15.741 3.215,-23.442 1.127,-4.65 2.074,-9.383 3.7,-13.861 1.562,-4.3 3.909,-8.314 5.883,-12.466 0.676,-1.422 1.734,-1.905 3.286,-1.815 3.357,0.195 6.744,0.239 9.957,-0.913 4.028,-1.442 7.84,-3.389 10.291,-7.053 1.589,-2.375 3.079,-4.929 4.003,-7.613 1.818,-5.278 3.344,-10.668 4.725,-16.08 0.744,-2.915 1.421,-5.892 1.244,-8.986 -0.179,-3.105 -0.133,-6.222 -0.22,-9.332 -0.092,-3.345 0.044,-6.725 -0.398,-10.026 -0.867,-6.473 -1.77,-12.941 -3.727,-19.239 -1.374,-4.423 -4.165,-7.704 -7.418,-10.641 -3.998,-3.608 -8.723,-6.179 -13.619,-8.383 -1.512,-0.681 -3.127,-1.183 -4.742,-1.575 -1.858,-0.45 -3.774,-0.652 -5.651,-1.031 -0.826,-0.167 -1.715,-0.232 -2.062,-1.332 -1.464,-4.637 -3.128,-9.214 -4.464,-13.887 -1.137,-3.979 -1.914,-8.062 -2.876,-12.092 -0.239,-1.004 -0.665,-1.968 -0.855,-2.978 -0.679,-3.604 -1.287,-7.222 -1.937,-10.832 -0.269,-1.491 -0.814,-2.974 -0.827,-4.465 -0.074,-7.812 -1.216,-15.604 -0.218,-23.445 0.625,-4.907 0.692,-9.883 1.25,-14.801 0.512,-4.512 1.335,-8.989 2.04,-13.478 1.289,-8.214 2.863,-16.357 5.967,-24.124 1.804,-4.517 3.369,-9.14 5.397,-13.552 1.526,-3.321 3.704,-6.336 5.432,-9.573 1.995,-3.737 4.776,-6.774 7.968,-9.465 5.428,-4.578 10.82,-9.191 16.718,-13.191 5.018,-3.403 9.962,-6.88 15.792,-8.809 0.6,-0.199 1.139,-0.58 1.731,-0.812 5.199,-2.03 10.331,-4.265 15.626,-6.005 5.369,-1.763 10.888,-3.078 16.363,-4.506 5.501,-1.435 11.105,-2.305 16.787,-2.519 5.653,-0.213 11.313,-0.426 16.967,-0.378 6.295,0.053 12.607,0.159 18.806,1.512 0.388,0.084 0.786,0.17 1.179,0.171 5.306,0.016 10.396,1.543 15.601,2.267 2.899,0.405 5.703,1.468 8.566,2.161 4.183,1.014 8.445,1.752 12.558,2.993 4.957,1.493 9.839,3.273 14.668,5.147 3.865,1.5 7.609,3.312 11.394,5.014 4.077,1.835 8.145,3.668 11.774,6.365 2.24,1.664 4.617,3.158 7.021,4.579 8.083,4.778 15.683,10.127 21.912,17.278 2.689,3.088 5.276,6.217 7.09,9.895 3.888,7.887 6.948,16.117 9.937,24.373 0.19,0.522 0.278,1.082 0.403,1.627 1.52,6.611 3.223,13.187 4.498,19.846 0.927,4.844 1.857,9.75 1.633,14.728 -0.14,3.108 -0.703,6.194 -0.861,9.302 -0.323,6.354 -1.865,12.474 -3.509,18.557 -1.706,6.314 -3.648,12.567 -5.625,18.803 -1.276,4.027 -2.708,8.01 -4.242,11.946 -1.418,3.634 -2.957,7.231 -4.643,10.749 -1.552,3.237 -3.371,6.345 -5.075,9.509 -2.003,3.721 -4.06,7.413 -5.99,11.171 -1.012,1.97 -2.53,2.626 -4.647,2.565 -5.953,-0.172 -11.619,1.313 -16.886,3.878 -3.403,1.658 -6.505,4.004 -9.571,6.273 -5.592,4.138 -10.09,9.371 -13.496,15.377 -2.385,4.206 -4.026,8.831 -6.046,13.248 -0.756,1.652 -1.689,3.224 -2.463,4.868 -0.675,1.435 -1.447,2.87 -1.819,4.392 -1.659,6.812 -3.275,13.628 -4.001,20.638 -0.605,5.857 -0.428,11.616 0.984,17.326 0.323,1.308 0.554,2.729 1.245,3.838 1.925,3.086 3.589,6.378 6.498,8.766 2.794,2.294 5.713,4.331 9.129,5.613 2.537,0.952 5.032,2.015 7.541,3.042 0.827,0.339 1.567,0.734 1.691,1.803 0.434,3.717 1.15,7.418 1.315,11.145 0.165,3.735 -0.193,7.494 -0.341,11.241 -0.031,0.795 -0.091,1.598 -0.233,2.379 -0.906,4.944 -1.735,9.905 -2.785,14.819 -1.826,8.551 -4.565,16.786 -9.184,24.286 -3.319,5.388 -7.157,10.361 -11.496,14.997 -5.298,5.661 -11.486,10.14 -17.882,14.396 -8.331,5.545 -17.26,10.032 -26.152,14.557 -5.84,2.971 -11.733,5.813 -17.235,9.399 -4.02,2.622 -8.085,5.252 -11.005,9.106 -2.202,2.906 -3.901,6.194 -5.837,9.303 -0.205,0.331 -0.502,0.605 -0.756,0.905 0.099,-2.261 0.632,-4.328 1.053,-6.417 0.992,-4.928 1.964,-9.86 2.88,-14.803 0.726,-3.924 1.36,-7.864 2.031,-11.798 0.577,-3.38 1.083,-6.773 1.737,-10.137 1.293,-6.652 2.705,-13.281 3.99,-19.934 0.603,-3.126 0.96,-6.3 1.548,-9.429 0.618,-3.296 1.374,-6.565 2.078,-9.844 0.669,-3.119 1.406,-6.225 2.007,-9.356 0.512,-2.665 0.88,-5.358 1.3,-8.04 0.962,-6.153 1.918,-12.307 2.879,-18.46 0.358,-2.289 0.744,-4.574 1.087,-6.865 0.71,-4.735 1.435,-9.468 2.091,-14.212 0.547,-3.957 0.962,-7.931 1.511,-11.887 0.757,-5.453 1.59,-10.897 2.371,-16.347 0.075,-0.525 0.01,-1.071 0.01,-1.482 -0.984,-0.575 -1.424,-0.223 -1.701,0.474 -0.503,1.266 -1.43,1.495 -2.657,1.261 2.875,-14.422 5.72,-28.689 8.59,-43.086 2.195,-0.365 4.521,-0.751 7.037,-1.17 -0.983,-2.731 0.588,-4.103 2.429,-5.24 1.215,-0.75 2.57,-1.268 3.834,-1.943 1.683,-0.9 3.654,-1.683 3.555,-4.033 -0.081,-1.913 0.521,-3.569 1.167,-5.296 0.555,-1.486 0.901,-3.067 1.174,-4.635 0.169,-0.982 0.031,-2.016 0.031,-3.113 -5.744,-0.515 -11.257,-1.129 -16.9,-2.488 0.175,-4.051 0.335,-8.01 0.519,-11.968 0.081,-1.75 0.094,-3.514 0.341,-5.243 0.485,-3.388 1.248,-6.739 1.652,-10.134 0.716,-6.007 1.215,-12.041 1.876,-18.055 0.274,-2.5 0.733,-4.98 1.113,-7.499 2.377,0.216 4.423,0.4 6.427,0.582 1.203,-2.244 2.955,-4.128 1.609,-6.76 -0.093,-0.184 0.038,-0.473 0.031,-0.711 -0.102,-3.341 0.051,-6.714 -0.364,-10.017 -1.103,-8.762 -3.607,-17.281 -4.676,-26.065 -0.499,-4.097 -1.591,-8.12 -2.115,-12.215 -0.941,-7.352 -1.789,-14.723 -2.415,-22.108 -0.361,-4.266 -0.777,-8.609 0.359,-12.839 1.218,-4.539 2.515,-9.06 3.923,-13.543 1,-3.185 2.325,-6.268 3.343,-9.447 0.852,-2.657 1.394,-5.411 2.206,-8.081 1.252,-4.123 2.525,-8.288 2.381,-12.604 -0.187,-5.649 -2.171,-10.464 -7.815,-12.942 -2.425,-1.065 -4.882,-1.035 -7.488,-0.678 -4.723,0.648 -7.629,3.696 -10.318,7.149 -0.229,0.296 -0.287,0.737 -0.39,1.12 -1.183,4.381 -1.277,8.829 -0.669,13.292 0.419,3.085 1.064,6.14 1.449,9.228 0.364,2.922 0.74,5.872 0.718,8.808 -0.039,5.256 -0.129,10.506 -0.917,15.748 -0.889,5.916 -1.159,11.923 -1.976,17.851 -1.379,10.014 -4.167,19.614 -8.789,28.669 -3.008,5.893 -5.803,11.898 -8.547,17.918 -1.053,2.311 -1.842,4.767 -2.502,7.224 -1.15,4.278 -2.106,8.607 -3.182,13.076 2.45,1.501 5.382,2.073 8.497,2.1 0.18,0.679 0.464,1.212 0.436,1.73 -0.144,2.689 -0.338,5.378 -0.574,8.063 -0.16,1.814 -0.421,3.62 -0.631,5.429 -0.1,0.864 -0.161,1.733 -0.284,2.592 -0.282,1.973 -0.656,3.935 -0.88,5.913 -0.706,6.249 -0.923,12.555 -2.378,18.716 -0.474,2.006 -0.917,4.096 -0.864,6.134 0.14,5.383 -0.787,10.642 -1.428,15.939 -0.063,0.517 -0.269,1.017 -0.489,1.818 -1.485,-0.756 -2.777,-1.413 -4.067,-2.069 0.022,-0.183 0.043,-0.366 0.065,-0.549 0.551,-0.226 1.124,-0.412 1.649,-0.687 0.985,-0.519 2.126,-0.992 2.122,-2.339 -0.006,-2.062 -0.096,-4.12 1.469,-6.156 m 128.568,-1.525 c 1.891,-2.052 3.456,-4.47 4.723,-7.173 1.861,-3.969 3.941,-7.844 6.1,-11.663 2.795,-4.941 5.273,-10.014 7.215,-15.35 1.5,-4.124 3.061,-8.226 4.517,-12.365 0.579,-1.647 0.945,-3.369 1.411,-5.056 0.637,-2.302 1.091,-4.675 1.949,-6.892 2.777,-7.18 4.456,-14.633 5.67,-22.195 0.659,-4.096 1.012,-8.239 1.478,-12.364 0.07,-0.632 0.052,-1.282 -0.005,-1.917 -0.535,-5.969 -1.154,-11.918 -2.699,-17.74 -0.757,-2.853 -1.715,-5.762 -1.773,-8.661 -0.066,-3.36 -0.544,-6.638 -1.169,-9.865 -1.415,-7.292 -3.455,-14.418 -6.612,-21.202 -1.477,-3.176 -2.385,-6.614 -3.833,-9.806 -1.946,-4.291 -4.413,-8.28 -7.505,-11.893 -2.176,-2.544 -4.101,-5.307 -6.089,-8.008 -4.905,-6.667 -10.83,-12.249 -17.641,-16.942 -2.823,-1.947 -5.452,-4.173 -8.217,-6.207 -4.975,-3.66 -10.389,-6.536 -16.052,-8.98 -3.074,-1.326 -6.064,-2.846 -9.113,-4.232 -1.961,-0.893 -3.925,-1.799 -5.948,-2.529 -4.354,-1.569 -8.681,-3.28 -13.145,-4.45 -3.441,-0.901 -7.075,-1.069 -10.624,-1.558 -0.467,-0.064 -0.974,0 -1.399,-0.165 -1.473,-0.565 -2.917,-1.205 -4.539,-1.886 0.103,-0.834 0.219,-1.76 0.332,-2.685 0.205,-1.681 -0.085,-3.184 -1.525,-4.284 -1.225,-0.936 -1.465,-2.139 -1.148,-3.619 1.019,-4.76 2.056,-9.52 2.907,-14.311 0.768,-4.319 1.693,-8.644 1.227,-13.089 -0.042,-0.395 0.004,-0.805 -0.075,-1.192 -0.667,-3.285 -2.089,-3.974 -5.094,-2.374 -0.706,0.376 -1.026,0.849 -1.103,1.674 -0.292,3.096 -0.627,6.188 -1.035,9.271 -0.784,5.918 -1.543,11.842 -2.506,17.732 -0.253,1.547 -0.796,3.309 -3.15,3.178 -1.095,-0.061 -1.585,1.007 -1.911,1.909 -0.563,1.558 -1.016,3.157 -1.562,4.885 -2.609,-0.415 -5.218,-0.787 -6.436,2.379 -5.368,-1.522 -10.741,-1.041 -16.063,-0.911 -6.303,0.155 -12.517,1.005 -18.658,2.657 -3.669,0.988 -7.562,1.174 -11.366,1.614 -7.38,0.853 -14.722,1.88 -21.898,3.884 -6.565,1.833 -12.803,4.514 -18.831,7.615 -10.354,5.325 -19.16,12.627 -26.516,21.673 -1.306,1.606 -2.815,3.045 -4.15,4.63 -4.58,5.438 -9.077,10.948 -12.342,17.315 -2.95,5.754 -5.699,11.61 -7.51,17.834 -0.688,2.364 -0.941,4.854 -1.374,7.291 -1.522,8.557 -2.581,17.186 -3.237,25.836 -0.633,8.351 -0.604,16.75 0.063,25.129 0.246,3.089 0.023,6.219 0.331,9.298 0.589,5.885 -0.234,11.837 0.918,17.688 1.014,5.149 1.852,10.341 3.07,15.441 1.682,7.045 2.675,14.263 5.124,21.12 1.269,3.554 2.623,7.08 3.896,10.503 11.931,-0.058 27.762,10.001 30.97,17.409 -0.657,0.286 -1.316,0.573 -2.354,1.025 1.832,1.116 1.905,2.759 2.236,4.287 0.355,1.639 0.728,3.276 1.007,4.928 0.719,4.269 0.587,8.567 0.413,12.87 -0.156,3.813 -0.175,7.632 -0.398,11.441 -0.183,3.116 -0.805,6.151 -2.19,9.006 -0.867,1.788 -1.55,3.664 -2.35,5.486 -2.703,6.153 -7.399,10.413 -13.343,13.175 -3.25,1.512 -6.827,2.172 -10.501,0.894 -1.133,-0.394 -2.49,-0.379 -3.708,-0.237 -1.58,0.182 -2.586,1.07 -3.24,2.726 -1.436,3.631 -3.346,7.074 -4.805,10.697 -1.92,4.77 -2.546,9.832 -2.922,14.94 -0.321,4.376 -0.946,8.73 -1.279,13.105 -0.236,3.103 -0.209,6.226 -0.3,9.34 -0.092,3.194 -0.134,6.389 -0.292,9.578 -0.245,4.97 0.235,9.86 1.325,14.708 0.377,1.677 0.783,3.382 0.851,5.086 0.125,3.173 1.222,6.078 2.136,9.038 1.057,3.427 2.033,6.891 3.331,10.228 1.293,3.323 2.712,6.641 4.489,9.723 2.46,4.268 5.672,8.028 8.933,11.729 4.509,5.118 9.76,9.355 15.272,13.325 5.047,3.635 9.913,7.523 14.995,11.107 5.626,3.969 10.936,8.281 16.061,12.885 3.331,2.992 6.818,5.759 9.575,9.342 3.006,3.906 5.255,8.168 6.684,12.883 0.602,1.986 1.368,3.921 1.976,5.905 0.201,0.656 0.267,1.406 0.182,2.087 -0.502,4.044 -1.121,8.075 -1.597,12.122 -0.614,5.229 -1.102,10.473 -1.7,15.704 -0.373,3.252 -0.868,6.491 -1.274,9.739 -0.604,4.836 -1.218,9.671 -1.755,14.514 -0.853,7.701 -1.607,15.413 -2.484,23.111 -0.362,3.169 -0.983,6.308 -1.401,9.472 -0.983,7.44 -1.916,14.887 -2.869,22.332 -0.009,0.079 -0.021,0.159 -0.022,0.239 -0.211,10.405 -2.225,20.619 -3.296,30.933 -0.452,4.347 -1.113,8.673 -1.718,13.306 -1.312,-1.459 -2.933,-1.117 -4.456,-1.153 -2.835,-0.066 -3.453,0.379 -4.484,2.956 -0.145,0.363 -0.189,0.876 -0.459,1.062 -2.441,1.683 -2.322,4.423 -2.804,6.861 -0.54,2.737 -0.921,5.516 -1.19,8.295 -0.199,2.059 -0.093,4.147 -0.152,6.222 -0.045,1.578 -0.035,3.167 -0.233,4.728 -0.37,2.918 -0.951,5.81 -1.287,8.732 -0.151,1.315 0.115,2.673 0.123,4.013 0.035,5.323 0.002,10.632 0.623,15.95 0.384,3.287 0.012,6.667 -0.086,10.003 -0.022,0.745 -0.065,1.386 0.911,1.974 1.799,-5.016 0.2,-10.051 0.659,-14.849 0.891,-0.678 1.884,-1.195 2.514,-1.997 0.432,-0.549 0.528,-1.505 0.482,-2.262 -0.122,-2.005 -0.878,-2.71 -3.306,-3.273 0.028,-3.674 -0.945,-7.347 -0.066,-11.12 0.652,-2.792 0.994,-5.657 1.433,-8.496 0.096,-0.622 0.092,-1.279 0.013,-1.905 -0.556,-4.414 0.059,-8.758 0.733,-13.101 0.256,-1.656 0.445,-3.323 0.74,-4.972 0.146,-0.818 0.319,-1.694 1.452,-2.347 0.154,2.861 0.39,5.448 0.416,8.037 0.086,8.625 0.177,17.251 0.106,25.875 -0.043,5.174 -0.011,10.366 -0.88,15.502 -0.745,4.401 -1.406,8.816 -2.178,13.211 -0.227,1.296 -0.384,2.681 -2.273,2.888 -1.033,0.113 -1.35,1.219 -1.568,2.199 -0.47,2.109 0.124,4.127 0.471,6.165 0.146,0.86 0.367,1.706 0.566,2.616 -1.021,0.679 -2.167,1.177 -2.929,2.022 -0.752,0.832 -1.114,2.016 -1.76,3.264 -0.731,0.279 -1.812,0.557 -2.755,1.083 -1.575,0.879 -1.762,1.462 -1.507,3.135 0.191,1.252 0.239,2.531 0.514,3.762 0.144,0.647 0.496,1.399 0.999,1.786 1.352,1.041 2.605,2.424 4.742,1.969 0.144,1.384 0.318,2.627 0.393,3.877 0.115,1.9 0.714,3.431 2.958,3.966 -0.154,1.574 -0.396,3.067 -0.418,4.563 -0.022,1.4 0.188,2.804 0.296,4.208 2.755,0.672 5.236,1.076 7.839,0.392 1.298,1.688 3.136,1.545 4.982,1.273 1.406,-0.207 1.976,-1.42 2.348,-2.499 0.829,-2.407 1.437,-4.893 2.102,-7.355 0.204,-0.753 0.299,-1.536 0.416,-2.156 0.349,-0.191 0.486,-0.326 0.628,-0.333 3.659,-0.17 4.338,-0.765 4.955,-4.4 0.199,-1.168 0.374,-2.341 0.595,-3.729 1.739,0.14 3.307,0.266 4.875,0.39 0.635,0.051 1.278,0.187 1.905,0.133 2.073,-0.179 2.975,-1.217 2.947,-3.281 -0.003,-0.24 -0.008,-0.481 -0.033,-0.719 -0.324,-3.078 -1.065,-3.763 -4.23,-3.949 -0.795,-0.047 -1.601,-0.068 -2.377,-0.225 -0.613,-0.125 -1.187,-0.441 -1.693,-0.638 -0.144,-1.979 -0.001,-3.928 -0.489,-5.702 -0.562,-2.047 -2.877,-1.96 -4.536,-2.75 -0.178,-1.006 -0.334,-2.028 -0.544,-3.038 -0.208,-1.004 -0.47,-1.996 -0.747,-3.157 2.4,-2.485 3.223,-5.951 4.332,-9.224 2.15,-6.348 4.06,-12.777 6.057,-19.176 0.237,-0.76 0.44,-1.537 0.573,-2.321 0.16,-0.942 0.606,-1.575 1.485,-2.012 3.38,-1.68 5.959,-7.806 4.569,-11.874 -0.219,-0.643 -0.916,-1.124 -1.4,-1.688 0.592,-6.293 1.206,-12.724 1.793,-19.159 0.094,-1.032 0.129,-2.078 0.074,-3.112 -0.033,-0.618 -0.093,-1.483 -0.488,-1.792 -1.726,-1.35 -1.217,-3.105 -1.074,-4.795 0.705,-8.346 1.325,-16.702 2.191,-25.033 0.593,-5.711 1.545,-11.385 2.327,-17.077 0.434,-3.161 0.701,-6.354 1.301,-9.483 1.621,-8.453 3.051,-16.94 4.441,-25.429 1.434,-8.759 3.57,-17.353 5.363,-26.027 1.469,-7.107 2.548,-14.296 3.794,-21.451 0.849,-4.877 1.509,-9.796 2.574,-14.626 1.481,-6.717 3.59,-13.282 7.103,-19.225 1.804,-3.05 3.861,-6.022 6.766,-8.296 6.635,-5.192 13.672,-9.67 21.408,-13.071 3.716,-1.634 7.295,-3.594 10.885,-5.501 4.717,-2.506 9.401,-5.077 14.063,-7.684 1.314,-0.735 2.474,-1.741 3.754,-2.544 10.337,-6.479 19.14,-14.619 26.351,-24.448 3.071,-4.185 6.11,-8.467 7.993,-13.316 2.393,-6.162 4.77,-12.342 6.028,-18.905 1.007,-5.256 2.303,-10.466 2.568,-15.822 0.256,-5.174 0.343,-10.362 0.299,-15.543 -0.065,-7.539 -2.837,-14.451 -5.305,-21.415 -0.706,-1.993 -0.774,-1.968 -0.01,-3.75 -0.686,-0.927 -1.371,-1.855 -2.058,-2.784 -0.048,0.078 -0.096,0.156 -0.144,0.233 -0.829,-0.49 -1.83,-0.822 -2.458,-1.499 C 12.309,30.111 9.278,26.726 6.304,23.295 0.751,16.894 -0.493,9.403 1.073,1.321 c 0.834,-4.3 1.74,-8.602 2.961,-12.803 0.996,-3.431 2.503,-6.713 3.792,-10.057 2.523,-6.549 6.844,-11.994 11.688,-16.788 5.499,-5.443 11.825,-9.961 19.672,-11.84 3.351,-0.803 6.646,-1.729 10.117,-1.69 1.177,0.012 2.354,0.151 3.926,0.259"
             style="fill:#000000;fill-opacity:1;fill-rule:nonzero;stroke:none"
             id="path22"
             inkscape:connector-curvature="0" /></g><g
           id="g24"
           transform="translate(278.0514,258.6025)"><path
             d="m 0,0 c 1.221,0.468 2.436,0.95 3.665,1.395 0.443,0.161 0.93,0.2 1.381,0.343 0.744,0.239 1.558,0.387 2.196,0.8 2.512,1.63 4.283,3.731 4.518,6.931 0.167,2.288 -1.065,4.936 -3.005,5.397 C 6.171,15.479 4.045,15.049 2.938,12.13 2.458,10.863 1.779,9.673 1.263,8.418 0.501,6.569 -2.02,6.032 -3.538,7.422 c -0.472,0.431 -1.03,0.793 -1.409,1.294 -2.556,3.372 -5.254,6.657 -7.563,10.194 -3.273,5.016 -4.786,10.814 -6.136,16.541 -1.315,5.576 -1.893,11.323 -2.859,16.985 -1.242,7.273 -3.088,14.329 -6.889,20.789 -2.169,3.686 -5.184,6.237 -8.981,7.964 -2.797,1.273 -7.216,-0.277 -8.179,-3.08 -0.688,-2.001 -0.818,-4.204 -1.083,-6.331 -0.059,-0.473 0.243,-1.103 0.575,-1.495 2.042,-2.41 6.106,-2.311 7.949,0.257 0.628,0.874 0.906,2.007 1.295,3.039 0.475,1.261 1.161,1.645 2.383,1.151 0.505,-0.203 0.948,-0.574 1.4,-0.895 2.931,-2.08 4.25,-5.154 4.924,-8.494 1.563,-7.745 3.008,-15.515 4.468,-23.28 1.207,-6.428 1.963,-12.934 3.683,-19.275 1.134,-4.18 2.316,-8.311 4.47,-12.095 2.225,-3.912 5.267,-7.017 9.38,-8.926 C -4.235,0.895 -2.278,0.136 0,0 m -34.926,72.347 c -0.726,-1.121 -1.469,-2.231 -2.175,-3.363 -1.031,-1.655 -2.535,-2.219 -4.443,-2.305 -1.772,-0.079 -3.315,0.533 -4.823,1.204 -1.784,0.794 -2.13,2.52 -2.003,4.259 0.121,1.667 0.366,3.341 0.747,4.968 1.24,5.299 7.525,7.618 12.385,5.146 5.72,-2.91 8.654,-7.903 11.001,-13.349 2.734,-6.343 3.922,-13.116 4.888,-19.944 0.953,-6.716 2.238,-13.366 4.11,-19.928 1.603,-5.622 4.661,-10.279 8.061,-14.834 0.717,-0.959 1.379,-1.97 2.186,-2.847 0.8,-0.872 1.666,-1.736 2.653,-2.369 1.503,-0.963 2.232,-0.641 2.886,1.059 0.545,1.417 0.979,2.878 1.569,4.274 0.267,0.632 0.683,1.304 1.221,1.7 2.008,1.477 4.262,1.196 6.394,0.426 2.156,-0.776 3.187,-2.615 3.436,-4.811 C 13.727,6.707 11.243,2.195 6.709,0.149 4.772,-0.725 2.682,-1.617 0.615,-1.737 c -1.97,-0.117 -4.096,0.513 -5.987,1.247 -6.617,2.568 -10.683,7.737 -13.226,14.092 -2.589,6.472 -4.056,13.278 -5.184,20.158 -1.073,6.541 -2.227,13.07 -3.442,19.587 -0.731,3.919 -1.602,7.813 -2.499,11.698 -0.625,2.709 -1.923,5.066 -4.139,6.839 -0.186,0.148 -0.386,0.287 -0.599,0.388 -0.136,0.066 -0.309,0.054 -0.465,0.075"
             style="fill:#000000;fill-opacity:1;fill-rule:nonzero;stroke:none"
             id="path26"
             inkscape:connector-curvature="0" /></g><g
           id="g28"
           transform="translate(158.5431,326.8389)"><path
             d="m 0,0 c 0.323,-0.779 0.847,-1.494 0.878,-2.229 0.072,-1.707 1.14,-2.782 2.183,-3.839 1.011,-1.027 2.245,-1.381 3.695,-0.653 1.409,0.708 2.829,1.413 2.75,3.235 C 9.427,-1.666 9.308,0.2 8.834,1.945 8.138,4.513 4.366,6.959 1.703,6.661 0.657,6.544 -0.366,5.981 -1.339,5.501 -4.277,4.051 -7.346,2.657 -9.459,0.104 c -3.012,-3.639 -5.433,-7.711 -6.837,-12.261 -0.653,-2.112 -1.253,-4.35 -1.248,-6.53 0.01,-4.059 0.424,-8.123 0.772,-12.175 0.531,-6.201 1.211,-12.39 1.705,-18.594 0.302,-3.808 0.149,-7.661 0.619,-11.441 0.403,-3.249 0.005,-6.344 -0.787,-9.412 -0.346,-1.337 -1.121,-2.643 -1.979,-3.749 -0.816,-1.05 -1.911,-1.947 -3.031,-2.687 -1.785,-1.18 -3.739,-1.952 -6.143,-1.559 0.18,0.889 0.222,1.536 0.447,2.113 0.692,1.777 -0.089,3.151 -1.245,4.314 -1.231,1.237 -3.394,1.455 -4.908,0.702 -3.143,-1.564 -4.26,-7.049 -1.848,-9.809 1.896,-2.171 4.331,-3.609 7.341,-3.339 2.456,0.219 4.941,0.524 7.315,1.159 5.767,1.539 9.863,4.985 11.662,10.879 1.15,3.769 1.889,7.592 1.779,11.542 -0.094,3.427 -0.17,6.859 -0.426,10.277 -0.488,6.525 -0.971,13.055 -1.691,19.557 -0.779,7.039 -0.413,14.035 0.358,21.025 0.356,3.238 1.385,6.254 4.377,8.12 C -2.246,-1.151 -1.197,-0.649 0,0 m -1.048,-2.794 c -2.31,-0.997 -3.695,-2.566 -4.275,-4.749 -0.469,-1.769 -0.868,-3.582 -1.037,-5.399 -0.508,-5.482 -0.911,-10.966 -0.279,-16.482 0.197,-1.722 -0.241,-3.514 -0.084,-5.246 0.288,-3.171 0.802,-6.32 1.227,-9.478 0.064,-0.475 0.212,-0.943 0.237,-1.417 0.435,-8.539 0.906,-17.077 -0.774,-25.55 -0.89,-4.486 -3.065,-8.239 -6.775,-10.889 -2.682,-1.915 -5.886,-2.85 -9.104,-3.457 -2.966,-0.56 -5.974,-1.06 -9.001,-0.093 -0.726,0.232 -1.242,0.402 -1.635,1.145 -0.398,0.752 -1.056,1.406 -1.713,1.973 -1.51,1.304 -2.089,3.039 -2.181,4.894 -0.079,1.582 0.097,3.193 0.317,4.77 0.229,1.639 2.591,3.721 4.342,4.012 2.543,0.422 5.028,-0.585 6.13,-2.777 0.733,-1.46 1.099,-3.104 1.678,-4.81 1.149,0.072 2.216,0.716 3.217,1.493 3.532,2.742 5.211,6.359 4.991,10.821 -0.394,8.037 -0.469,16.09 -1.554,24.09 -0.597,4.409 -0.869,8.862 -1.273,13.297 -0.128,1.406 -0.137,2.825 -0.321,4.221 -0.507,3.852 -0.006,7.476 1.267,11.213 1.764,5.18 4.35,9.773 8.021,13.717 2.698,2.898 6.148,4.86 9.981,5.873 4.053,1.069 8.53,-1.683 9.608,-5.816 0.496,-1.904 0.864,-3.913 0.832,-5.866 -0.064,-3.981 -3.3,-5.374 -6.295,-5.52 -1.689,-0.083 -2.675,1.298 -3.561,2.497 -0.747,1.012 -1.251,2.201 -1.986,3.533"
             style="fill:#000000;fill-opacity:1;fill-rule:nonzero;stroke:none"
             id="path30"
             inkscape:connector-curvature="0" /></g></g></g></g></svg>